<?xml version="1.0" encoding="UTF-8" standalone="no"?>
<!DOCTYPE svg PUBLIC "-//W3C//DTD SVG 20010904//EN"
"http://www.w3.org/TR/2001/REC-SVG-20010904/DTD/svg10.dtd">
<!-- Created with Sodipodi ("http://www.sodipodi.com/") -->
<svg
   width="7080"
   height="2192"
   xmlns="http://www.w3.org/2000/svg"
   xmlns:sodipodi="http://sodipodi.sourceforge.net/DTD/sodipodi-0.dtd"
   xmlns:xlink="http://www.w3.org/1999/xlink"
   id="svg602"
   sodipodi:version="0.34"
   sodipodi:docname="/home/markun/rockboxlogo3.svg"
   sodipodi:docbase="/home/markun">
  <defs
     id="defs617" />
  <sodipodi:namedview
     id="base" />
  <path
     style="fill:#020300; stroke:none;"
     d="M0 0L0 2192L7080 2192L7080 0L0 0z"
     id="path603" />
  <path
     style="fill:#ffbf00; stroke:none;"
     d="M7031 51L4048 51L2151 51L560 51L170 51L75 51L52 51C49.383 51.0012 44.8915 50.2505 43.0278 52.6035C40.1049 56.2937 42 66.4871 42 71L42 119L42 308L42 1038L42 1697L42 1859L42 1898C42 1901.48 40.5219 1909.53 43.6034 1911.97C48.5704 1915.91 64.7775 1913 71 1913L147 1913L442 1913L1587 1913L5625 1913L6667 1913L6935 1913L7004 1913C7009.85 1913 7024.71 1915.68 7029.4 1911.97C7033.94 1908.37 7031 1889.52 7031 1884L7031 1800L7031 1456L7031 51z"
     id="path604" />
  <path
     style="font-size:12;fill:#000000;fill-rule:evenodd;fill-opacity:1;"
     d="M 447 1357 C 462.75 1348.25 471.6875 1331.813 476.4375 1315 C 485.9375 1281.313 481.875 1235.938 456 1210 C 444.25 1198.313 427.4375 1192.938 411 1195.313 C 407.375 1195.813 398.25 1196.563 396.625 1200.438 C 394.25 1206.125 402.125 1219.438 404 1225 C 411.6875 1247.625 419.8125 1270.125 426.75 1293 C 433.0625 1314 438.375 1336.875 447 1357 M 3572.063 1203.75 C 3567.938 1205.438 3566.688 1211.313 3571.125 1213.438 C 3581.438 1218.188 3596.75 1216.375 3608 1219.75 C 3638.625 1228.813 3666.063 1251.625 3680.75 1280 C 3708.625 1333.875 3691.688 1401.313 3641 1435.5 C 3622.25 1448.125 3602.125 1453.688 3580 1456.313 C 3577 1456.625 3571.875 1456.313 3569.625 1458.625 C 3564.875 1463.375 3571.563 1467.875 3576 1468 C 3587.5 1468.188 3600 1465.563 3611 1462.438 C 3692.938 1439.063 3728.875 1343.063 3688.688 1270 C 3671.188 1238.188 3640 1215.688 3605 1207.125 C 3596.625 1205.063 3580.313 1200.375 3572.063 1203.75 M 4395.063 1203.75 C 4390.938 1205.438 4389.688 1211.313 4394.125 1213.438 C 4404.125 1218.063 4419.063 1216.313 4430 1219.438 C 4458.375 1227.5 4483.5 1247.188 4499.313 1272 C 4547.5 1347.813 4493.125 1449 4405 1456.063 C 4401.688 1456.375 4395.063 1456.125 4392.625 1458.625 C 4388.438 1462.813 4393.688 1467.625 4398 1467.938 C 4411.5 1468.75 4427.313 1465.063 4440 1460.688 C 4519.063 1433.313 4553.875 1335.938 4508.938 1265 C 4490.188 1235.375 4460.25 1214.25 4426 1206.563 C 4418.125 1204.813 4402.75 1200.625 4395.063 1203.75 M 4835 1225 L 4836 1226 L 4835 1225 z M 575 1776 L 619 1776 L 619 1356 L 619 1257 C 619 1251.375 622.125 1228.188 615.875 1226.313 C 607.25 1223.75 594.9375 1226 586 1226 C 583.1875 1226 578 1225.063 576 1227.625 C 571.5625 1233.25 575 1252.813 575 1260 L 575 1349 L 575 1776 z M 1419 1493 L 1419 1405 L 1443 1405 L 1443 1466 C 1481 1462.688 1504.313 1412.313 1517.563 1382 C 1552.813 1301.25 1557.938 1214.375 1566.188 1128 C 1568.375 1104.938 1569 1081.188 1569 1058 C 1569 1051.125 1571.438 1038.5 1568.375 1032.313 C 1565.875 1027.188 1546.125 1030 1541 1030 L 1469 1030 C 1463.75 1030 1447.563 1027.313 1444 1031.75 C 1440.75 1035.75 1443 1048 1443 1053 L 1443 1113 L 1419 1113 L 1419 1052 L 1417.375 1031 L 1398 1030 L 1346 1030 C 1346 1024.375 1343.813 1013.125 1347 1008.312 C 1349.313 1004.875 1355.5 1006 1359 1006 L 1392 1006 C 1397.75 1006 1417.313 1009.187 1418.75 1001.937 C 1421.75 987.125 1419 969.125 1419 954 L 1419 854 L 1419 540 C 1432.5 540 1445 540 1458 544.375 C 1495.875 557.125 1520.438 593.375 1536.313 628 C 1572.063 706.125 1581.125 793.5625 1589.188 878 C 1592.25 910.5 1589.875 943.6875 1593.688 976 C 1594.5 982.875 1590.688 998.9375 1595 1004.375 C 1597 1006.937 1602.188 1006 1605 1006 C 1614.375 1006 1626.875 1008.187 1635.938 1005.687 C 1644.5 1003.312 1639.313 976.8125 1639.063 970 C 1637.375 931.75 1638.563 893.0625 1633.563 855 C 1620.625 756.1875 1610.438 650.8125 1556.438 564 C 1528.5 519.125 1477.563 480.5 1422 495.125 C 1385.75 504.6875 1358.875 530.5 1338.688 561 C 1305.188 611.4375 1288.875 671.25 1277.188 730 C 1256.063 836.375 1251.313 945.9375 1254 1054 C 1256.125 1140.625 1260.813 1226.938 1279.563 1312 C 1295.813 1385.625 1320.5 1475.375 1387 1519.5 C 1448.063 1560 1515.563 1526.625 1552.688 1471 C 1615.563 1376.625 1622.875 1257.875 1635.688 1149 C 1639.125 1120.063 1638.688 1090.125 1639 1061 C 1639.063 1054.125 1643.625 1037.5 1639 1031.75 C 1636.938 1029.188 1631.875 1030 1629 1030 C 1619.5 1030 1606.25 1027.625 1597.125 1030.313 C 1591.625 1031.938 1593.25 1055.563 1593.063 1061 C 1591.563 1094.375 1591.188 1127.625 1588.938 1161 C 1583.188 1244.563 1570 1331.563 1532.25 1407 C 1515.563 1440.313 1494.688 1476.063 1457 1488.25 C 1444.625 1492.25 1431.938 1493 1419 1493 M 575 520 L 575 558 C 609.875 558 645.1875 556.5 680 558.9375 C 703.75 560.5625 725.9375 564.125 742.6875 583 C 770.9375 614.8125 775.25 657.375 777.0625 698 C 778.6875 735.375 777.5 773.5 768.375 810 C 762.25 834.625 751.3125 862.5 732 879.8125 C 715.6875 894.4375 694.125 898.8125 673 900.8125 C 665.4375 901.5625 653.125 898.25 646.3125 901.625 C 643.375 903.0625 644 907.3125 644 910 C 644 915.5625 640.875 940 647.125 941.6875 C 656.9375 944.3125 672.9375 940.375 683 939.125 C 730.875 933.4375 763.3125 912.875 785.25 869 C 813.375 812.75 817.3125 745.875 813.0625 684 C 810.6875 648.6875 806.875 611.6875 789.6875 580 C 747.6875 502.5 649.1875 520 575 520 M 1444.625 567.125 C 1442.375 568.625 1443 572.75 1443 575 L 1443 597 L 1443 688 L 1443 912 L 1443 976 C 1443 983.5 1440.563 995.9375 1443.625 1002.875 C 1446.313 1009 1465.313 1006 1471 1006 L 1542 1006 C 1547.875 1006 1562.688 1008.687 1567.375 1005 C 1571.25 1001.937 1569 988.5 1569 984 C 1569 962.9375 1567.5 942 1567 921 C 1564.813 831.375 1554 732.3125 1518.75 649 C 1507.625 622.8125 1494.188 596.6875 1471 579.125 C 1466.688 575.875 1450.375 563.3125 1444.625 567.125 M 575 583 L 575 839 L 575 911 L 575.625 939.6875 L 584 942 L 609 942 L 618.375 939.6875 L 619 921 L 619 877 C 647.3125 877 689.4375 883.125 713 863.6875 C 730.125 849.5625 739 825.9375 744.375 805 C 755.8125 760.625 755.5625 711.25 750.125 666 C 747.0625 640 739.9375 613.375 720 595.0625 C 707.3125 583.4375 687.3125 583 671 583 L 575 583 z M 3568 1484 C 3595.5 1484 3622.938 1478.438 3647 1464.563 C 3717.063 1424.25 3742.875 1332.375 3702.563 1262 C 3683.938 1229.438 3652.25 1203.75 3616 1193.438 C 3601.875 1189.375 3586.875 1190.313 3573 1186.688 C 3567.813 1185.313 3567 1178.938 3572.125 1176.75 C 3582.688 1172.188 3604.438 1178.688 3615 1181.688 C 3658.688 1194.125 3696.25 1224.188 3716.625 1265 C 3767.625 1367 3691.875 1490.125 3579 1495 L 3579 1510 C 3602.125 1510 3625.063 1504.625 3646 1494.75 C 3665.125 1485.813 3683.125 1474.188 3697.938 1458.938 C 3772.188 1382.75 3762.75 1256.375 3677 1192.625 C 3660.125 1180.063 3640.375 1170.25 3620 1164.875 C 3595.813 1158.5 3569.75 1156.75 3545 1160.75 C 3518.313 1165.063 3491.938 1175.25 3470 1191.125 C 3443.5 1210.375 3423.75 1235.375 3410.25 1265 C 3392.813 1303.25 3391.375 1349.188 3404 1389 C 3419.313 1437.063 3456.125 1475.875 3502 1496.125 C 3517.5 1503 3534.25 1507.125 3551 1509.25 C 3554.5 1509.75 3564.313 1512.063 3567 1509.188 C 3570.688 1505.063 3568 1489.438 3568 1484 M 4390 1511 L 4391 1484 C 4414.063 1484 4436.813 1480.25 4458 1470.688 C 4537.813 1434.688 4566.063 1338.5 4526.25 1263 C 4507.5 1227.5 4472.188 1202.5 4434 1192 C 4422 1188.75 4406.188 1190.875 4395.063 1186.375 C 4389.75 1184.25 4391.5 1178.563 4396 1176.75 C 4406.938 1172.375 4428.188 1178.875 4439 1182 C 4482.563 1194.5 4521.438 1225.438 4540.688 1267 C 4588.063 1369.438 4515.5 1490.125 4402 1495 L 4403 1511 C 4418.438 1508.125 4433.813 1507.688 4449 1503 C 4495.563 1488.563 4535.438 1455 4556.75 1411 C 4608.563 1304 4532.25 1162 4409 1159 C 4369.25 1158.063 4331.563 1166 4298 1188.375 C 4219.313 1240.813 4194.813 1350.25 4246.688 1430 C 4269.688 1465.25 4305.5 1492 4346 1503.563 C 4360.625 1507.75 4375.25 1508.25 4390 1511 M 2851 1173 C 2845.688 1184.438 2841.125 1196.313 2836.375 1208 C 2834.375 1212.938 2830.688 1218.625 2830.313 1224 C 2829.563 1234.813 2838.25 1249.938 2841.938 1260 C 2851.625 1286.563 2860.813 1313.375 2870.313 1340 C 2906.813 1442.563 2944.813 1544.75 2979.313 1648 C 2989.438 1678.188 3001.188 1707.813 3011.313 1738 C 3014.125 1746.313 3017.625 1767.688 3024.688 1773 C 3027.938 1775.375 3035.188 1774 3039 1774 L 3076 1774 C 3060.625 1726.75 3041.125 1680.688 3024.063 1634 C 2989.125 1538.438 2953.313 1443.188 2917.438 1348 C 2902.125 1307.375 2887.188 1266.625 2872.063 1226 C 2866.313 1210.563 2862 1185.25 2851 1173 z M 268 896 L 270 896 C 276.0625 874.6875 283.9375 852.5 282.9375 830 C 281.75 801.875 264.4375 770.6875 246.5625 750 C 235.375 737.0625 218.25 725 202 719.375 C 196.9375 717.5625 187 714.4375 182.75 719.4375 C 179.875 722.8125 181.375 728.125 182.1875 732 C 184.6875 743.6875 189.6875 755.625 195.5625 766 C 220.1875 809.25 244.5625 852.0625 268 896 M 3083 789 C 3067.188 828.9375 3049.813 868.4375 3033 908 C 3028.625 918.3125 3024.438 928.8125 3019.75 939 C 3017.438 944.125 3013.125 951.25 3013.313 957 C 3013.438 963 3017.5 969.4375 3019.563 975 C 3024.5 988 3029.25 1001.062 3034.375 1014 C 3051 1055.875 3070.5 1098.75 3083 1142 L 3084 1142 C 3086.25 1132.5 3085 1121.75 3085 1112 L 3085 1056 L 3085 878 L 3085 815 C 3085 807.5 3087.313 795.3125 3083 789 M 279 1011 C 272.5625 1038.75 260.25 1065.563 252.4375 1093 C 247 1112.063 242.3125 1131.438 239.0625 1151 C 231.1875 1198.688 236.375 1246.75 249.5625 1293 C 255.75 1314.563 264.5625 1338.375 280.1875 1354.938 C 301.375 1377.438 342.1875 1388.375 372 1386 L 372 1295 L 373 1249 L 394.0625 1306 L 416 1373 C 406.1875 1375.813 397.0625 1380.688 387 1383 C 383.625 1383.75 376.3125 1383.875 374 1386.75 C 369.5625 1392.313 373 1411.875 373 1419 C 390.625 1418.938 409.3125 1413.313 426 1408 C 451.0625 1485.063 470.125 1568.75 470 1650 C 470 1668.75 467.9375 1691.188 456.9375 1707 C 447.375 1720.813 433.8125 1728.063 427 1708 C 432 1705.938 437 1703.625 441 1699.875 C 450.375 1691.188 452.75 1674.375 439 1668.188 C 426.8125 1662.813 408.8125 1667.75 400.5625 1678.063 C 383.625 1699.125 398.25 1740.688 419 1753.5 C 438.1875 1765.438 461.25 1759.938 477 1744.938 C 502 1721.125 506 1688 506 1655 C 506 1591.625 492.4375 1527.313 477.125 1466 C 473.125 1449.938 468.875 1433.938 464.3125 1418 C 462.5 1411.813 457.875 1402.563 458.625 1396.125 C 459.1875 1391.25 468.375 1387.938 472 1385.5 C 483.25 1377.875 493.8125 1368.375 502.5625 1358 C 531.9375 1323.125 538.5625 1273.313 522.5625 1231 C 509.4375 1196.25 479.625 1166.563 443 1157.875 C 429 1154.563 415.25 1154.75 401 1156.063 C 395.75 1156.563 386.1875 1160.813 381.25 1158.688 C 377.25 1156.938 375.5 1148.75 374 1145 L 373 1145 L 373 1243 L 360 1213 C 339.8125 1218.813 321.4375 1237.625 307 1252 C 301.8125 1257.188 292.4375 1267.75 284.0625 1263.5 C 263.3125 1253.188 290.1875 1221.688 298.3125 1212 C 307.125 1201.375 316.75 1191.5 328 1183.438 C 331.875 1180.625 341.8125 1177.25 343.625 1172.75 C 345 1169.375 342 1164.125 340.8125 1161 C 337.125 1151.375 333.375 1141.75 330 1132 C 315.75 1091.063 295.875 1052 282 1011 L 279 1011 M 2093.313 1030.75 C 2088.375 1033.25 2092 1050.125 2092 1055 C 2092 1080.438 2093.813 1105.625 2094.938 1131 C 2097.625 1191.063 2106.813 1251.75 2122.125 1310 C 2135.875 1362.438 2153.938 1413.813 2186.125 1458 C 2207 1486.5 2234.5 1510.688 2268 1522.938 C 2274 1525.125 2293.563 1534.125 2299.375 1529.938 C 2302.375 1527.75 2301 1520.188 2301 1517 C 2301 1506.188 2304.938 1486.063 2300.375 1476.25 C 2298.813 1472.813 2293.188 1472.438 2290 1471.313 C 2282.563 1468.688 2275.438 1464.813 2269 1460.25 C 2251.125 1447.75 2237.25 1429.813 2226.438 1411 C 2182.25 1334 2166.875 1240.188 2158.188 1153 C 2155.188 1123.375 2155 1093.563 2152.188 1064 C 2151.313 1055.25 2155.375 1040.25 2151.375 1032.438 C 2149.438 1028.563 2141.5 1030 2138 1030 L 2107 1030 C 2103.063 1030 2096.938 1028.875 2093.313 1030.75 M 2301 1448 L 2301 1269 L 2301 1148 L 2301 1062 C 2301 1055.188 2304.25 1037 2300 1031.625 C 2296.688 1027.438 2280.938 1030 2276 1030 L 2204 1030 C 2198.875 1030 2179.125 1027.188 2176.625 1032.313 C 2173.75 1038.125 2177 1047.75 2177 1054 C 2177.125 1074.75 2178.5 1095.313 2179.938 1116 C 2185.688 1199.875 2197 1290.75 2232.25 1368 C 2242.625 1390.813 2253.938 1413.125 2272 1431 C 2279.813 1438.75 2289.625 1447 2301 1448 z M 3351 93 L 3329.875 142 L 3319.875 160.8125 L 3298 162 L 3245 162 L 3050 162 L 3050 186 L 3310 186 C 3308.125 196.5625 3301.75 207.1875 3297.563 217 C 3296 220.6875 3294.625 225.875 3290.875 228 C 3287.375 229.9375 3281.875 229 3278 229 L 3248 229 L 3137 229 L 3097 229 C 3092.75 229 3085.875 227.6875 3082.813 231.3125 C 3075.625 240 3072.375 256.5 3068.188 267 C 3057.125 294.625 3046.438 322.375 3035.375 350 C 2996.938 446.125 2957.813 542.1875 2921.063 639 C 2908.625 671.8125 2895.5 704.4375 2882.438 737 C 2876.75 751.25 2872.688 770 2863 782 L 2863 332 L 2863 225 L 2863 198 L 2864.625 187.75 L 2879 186 L 2916 186 L 2916 162 L 2878 162 L 2864.625 159.6875 L 2863 148 L 2863 120 L 2839 120 L 2839 150 L 2836.563 161 L 2814 162 L 2756 162 L 2533 162 L 2532 211 C 2497.5 186.375 2452.938 170.3125 2413 157 C 2364.75 140.9375 2313.125 128.8125 2262 131.0625 C 2226.375 132.625 2190.688 138.6875 2157 150.6875 C 2038.938 192.75 1961.25 302.6875 1912.125 413 C 1894.625 452.375 1877.688 493.875 1868 536 L 1867 536 C 1860.125 506.1875 1847.75 476.4375 1836.438 448 C 1817.438 400.125 1798.375 351.6875 1769 309 C 1697.875 205.8125 1577.375 125 1449 125 L 1449 149 C 1570.25 149 1687 230.875 1752 329 C 1783.25 376.1875 1803.688 431.125 1823.063 484 C 1835.688 518.5 1848.563 553.9375 1856 590 C 1861.688 590 1874.75 592.4375 1879.438 589 C 1883.5 585.9375 1884.188 573.75 1885.188 569 C 1888.938 551.875 1893.813 534.625 1899.313 518 C 1924.125 443.4375 1955.188 371.0625 2001.438 307 C 2024.188 275.5 2050.5 246.1875 2081 222 C 2102.375 205.0625 2125.938 190.9375 2151 180.125 C 2258.188 134.125 2376.875 161.3125 2478 210.25 C 2505.875 223.75 2530.125 242.0625 2557 257 C 2561.5 241.75 2558 220.9375 2558 205 C 2558 200.5625 2556.063 189.875 2560.313 187 C 2564.188 184.4375 2572.5 186 2577 186 L 2618 186 L 2776 186 L 2823 186 C 2827.25 186 2836.25 184.25 2838.375 189.125 C 2840.5 193.9375 2839 201.875 2839 207 L 2839 248 L 2839 391 L 2839 700 L 2839 799 C 2839 814.1875 2841.625 832.0625 2838.625 847 C 2832.813 875.9375 2814.125 902.625 2806 931 L 2805 931 L 2805 594 L 2805 334 L 2805 261 C 2805 253.125 2807.875 238.375 2804.375 231.3125 C 2802.813 228.1875 2797.875 229 2795 229 L 2766 229 L 2646 229 L 2614 229 C 2610.813 229 2604.313 227.8125 2602.625 231.3125 C 2599.25 238.1875 2602 252.375 2602 260 L 2602 329 L 2602 578 L 2602 1466 L 2602 1718 L 2602 1779 C 2602 1783.5 2599.75 1796.938 2603.625 1800 C 2608.125 1803.563 2622.313 1801 2628 1801 L 2696 1801 L 2777 1801 C 2782.375 1801 2800.438 1803.875 2804 1799.375 C 2805.938 1796.938 2805 1791.938 2805 1789 L 2805 1763 L 2805 1661 L 2805 1398 L 2805 1322 C 2805 1310.313 2802.938 1296.438 2805.375 1285 C 2807.125 1276.813 2811.813 1268.688 2815 1261 L 2816 1261 L 2943.688 1622 L 2981.688 1729 L 2997 1774 C 2969.938 1774 2938.688 1769.625 2912.063 1774.125 C 2906.25 1775.125 2905.5 1796.063 2910.313 1798.375 C 2915.688 1801 2926.125 1799 2932 1799 L 2983 1799 C 2988.75 1799 3000.625 1796.75 3005.563 1800 C 3010.063 1803 3011.938 1814.125 3013.688 1819 C 3019.563 1835.938 3024.688 1853.625 3032 1870 L 3055 1862 L 3034 1799 L 3396 1799 L 3396 1780 C 3408.938 1783.75 3421.313 1790.813 3434 1795.563 C 3454.875 1803.438 3477.063 1809.25 3499 1813.375 C 3626.75 1837.313 3760.938 1813.25 3867 1735.875 C 3898.75 1712.688 3927.375 1685.625 3952 1655 C 3960.563 1644.313 3968.75 1633.375 3976.313 1622 C 3980.188 1616.25 3983.75 1608.188 3990 1605 C 3993.688 1616.125 4004 1626.813 4011.188 1636 C 4029.813 1659.688 4050.25 1681.5 4073 1701.25 C 4170.25 1785.875 4299.188 1830.75 4428 1821.938 C 4460.938 1819.625 4494.125 1814.438 4526 1805.563 C 4542.438 1801 4562.25 1789.813 4579 1789 L 4574 1799 L 4839 1799 L 4910 1799 C 4917 1799 4931.5 1801.75 4937.5 1798 C 4941.5 1795.375 4944 1789 4946.375 1785 C 4952.063 1775.625 4957.813 1766.25 4963.688 1757 C 4981.188 1729.188 4998.563 1701.125 5015.563 1673 C 5023.875 1659.188 5031.938 1639.813 5044 1629 C 5045.813 1633.25 5052 1639.75 5051.5 1644.438 C 5050.438 1654.625 5036.813 1669.313 5031.438 1678 C 5014.5 1705.25 4997.563 1732.5 4981 1760 C 4975.938 1768.438 4962.375 1783 4962.375 1793 C 4962.375 1799.25 4970.5 1800.25 4974.875 1797.813 C 4982 1793.875 4986.813 1780.75 4991.063 1774 C 5006.813 1748.813 5022.25 1723.375 5037.813 1698 C 5045.438 1685.563 5054.75 1673.188 5061 1660 L 5063 1660 C 5069.25 1673.438 5056 1686.5 5048.688 1698 C 5034.438 1720.438 5020.688 1743.25 5007 1766 C 5002.688 1773.188 4992.188 1784.313 4992.25 1793 C 4992.25 1803 5012.188 1798.25 5015.938 1793 C 5030.063 1772.938 5041.625 1750.75 5054.688 1730 C 5062.625 1717.375 5074.5 1703.188 5079 1689 L 5098.188 1717 L 5132.563 1772 L 5149.625 1798 L 5176 1799 L 5247 1799 L 5513 1799 C 5510.375 1787.75 5500.375 1776.813 5494.375 1767 C 5480 1743.188 5465.125 1719.625 5450.438 1696 C 5402.563 1619.125 5354.188 1542.5 5307.375 1465 C 5292.625 1440.5 5277.25 1416.25 5262.063 1392 C 5256.625 1383.313 5244.625 1370.125 5243.125 1360 C 5242.375 1355.188 5248 1349.25 5250 1345 L 5252 1345 C 5270.188 1383.875 5297.938 1420.5 5320.563 1457 C 5369.063 1535.25 5418.063 1613.188 5465.625 1692 C 5483.438 1721.5 5501.938 1750.625 5519.938 1780 C 5523.75 1786.125 5527.5 1796 5533.313 1800.375 C 5536.688 1802.938 5541.813 1801.438 5542.375 1797 C 5543.375 1788.5 5530.125 1774 5525.813 1767 C 5509.688 1741.063 5493.813 1714.938 5477.688 1689 C 5423.688 1602.25 5369.438 1515.5 5316.625 1428 C 5302.625 1404.875 5287.813 1382.25 5274.125 1359 C 5270.25 1352.375 5259 1340.75 5259 1333 C 5259 1323.625 5273.25 1307.938 5278.188 1300 C 5295.5 1272.063 5312.5 1243.875 5329.938 1216 C 5384.813 1128.5 5439.313 1040.5 5492.438 952 C 5506.125 929.25 5519.875 906.25 5534.313 884 C 5540.688 874.1875 5552.438 860.625 5554 849 L 5247 849 L 5172 849 C 5167.813 849 5146.688 847.4375 5153.188 857.5625 C 5156.438 862.625 5171.75 860 5177 860 L 5247 860 L 5442 860 L 5502 860 C 5512.688 860 5524.563 858.5 5535 861 L 5478.563 952 L 5369.563 1129 L 5276 1281 L 5236 1347 C 5220.938 1335.188 5232.313 1323.375 5240.313 1311 C 5257.688 1284 5274.5 1256.5 5291.188 1229 C 5340.938 1147.188 5392.188 1066.125 5443.063 985 C 5458.5 960.375 5473.625 935.625 5489.063 911 C 5496.813 898.625 5508.563 884.9375 5513 871 L 5484 870 L 5427 870 L 5240 870 L 5174 870 L 5148.313 871.1875 L 5137.813 886 L 5118.563 917 L 5065.813 1002 L 5044 1038 L 5042 1038 C 5040.313 1034.438 5036.375 1030.063 5036.375 1026 C 5036.438 1022.187 5040.125 1018.125 5042 1015 C 5046.875 1006.937 5051.938 999.0625 5056.813 991 C 5073.625 963.25 5090.875 935.6875 5107.813 908 C 5113.125 899.3125 5126.813 884.4375 5126.75 874 C 5126.75 867.75 5120.375 867.3125 5116.75 871.25 C 5109.5 879.25 5104.5 890.875 5098.688 900 C 5083.625 923.75 5069.438 948.125 5054.563 972 C 5046.063 985.6875 5035.813 999.375 5029 1014 L 5027 1014 C 5024.938 1009.187 5019.25 1003.25 5019.188 998 C 5019.063 990.5625 5030 978.25 5033.938 972 C 5047.688 950.125 5060.875 927.875 5074.688 906 C 5079.5 898.3125 5093.188 883.25 5092.75 874 C 5092.5 868.8125 5087.063 866.9375 5083.375 870.3125 C 5077.438 875.8125 5073.688 885.1875 5069.438 892 C 5050.563 922.25 5026.063 953.3125 5012 986 L 5010 986 C 4996.375 956.8125 4975.938 929.4375 4959.063 902 C 4953.938 893.6875 4947.375 875.9375 4938.813 871 C 4932.688 867.5625 4919.938 870 4913 870 L 4847 870 L 4660 870 L 4603 870 C 4593.813 870 4582.813 868.375 4574 871 L 4580 883 C 4561.125 877.8125 4543 869.875 4524 864.875 C 4482.75 854.0625 4440.5 849 4398 848 C 4276.813 845.25 4153.625 895.375 4065 976.9375 C 4036.75 1002.875 4006.25 1033.813 3988 1068 L 3987 1068 C 3970.063 1036.188 3944.313 1007.312 3919 982 C 3826.5 889.5 3695.5 840.125 3565 849.0625 C 3526.813 851.6875 3488.625 857.625 3452 869 C 3432.875 874.9375 3415 885.5625 3396 891 L 3396 664 L 3396 609 L 3394.375 590 L 3378 589 L 3335 589 L 3169 589 C 3176.25 558.3125 3194.5 528.1875 3206.375 499 C 3234.938 429.125 3263.75 358.875 3294.688 290 C 3305.625 265.625 3314.938 240.5 3325.563 216 C 3328.938 208.25 3332.375 192.8125 3339.25 187.625 C 3343.625 184.25 3352.75 186 3358 186 L 3407 186 L 3407 162 L 3365 162 C 3361.688 162 3353 163.5 3351.375 159.6875 C 3349.625 155.75 3355 147.625 3356.563 144 C 3362.188 130.8125 3371.5 116.125 3374 102 L 3351 93 M 301 105 L 301 147 L 299.375 162.375 L 285 164 L 245 164 L 245 188 L 285 188 L 299.375 189.625 L 301 208 L 301 258 L 301 461 L 326 461 L 326 256 L 326 206 C 326 201.6875 324.1875 191.8125 328.3125 189 C 333.0625 185.875 344.4375 188 350 188 L 406 188 L 619 188 L 685 188 C 689.6875 188 703.8125 190.375 707 186.375 C 710.375 182.125 708 169.3125 708 164 L 430 164 L 356 164 C 349.1875 164 334.125 166.8125 328.3125 163 C 324.4375 160.375 326 152 326 148 L 326 105 L 301 105 M 2164 1809 L 2164 1810 L 1967 1810 L 1921 1810 C 1916.5 1810 1907.188 1808 1906.125 1814.063 C 1905.5 1818 1904.25 1831.313 1907.625 1834 C 1911 1836.688 1919.875 1835 1924 1835 L 1969 1835 L 2180 1835 C 2236.313 1835 2295.5 1839.938 2351 1829.563 C 2406.75 1819.125 2462.5 1785.688 2505 1749.25 C 2517.75 1738.375 2530.375 1727.25 2543 1716.188 C 2548.25 1711.5 2556.75 1706.375 2560 1700 C 2562.063 1695.813 2561 1689.563 2561 1685 L 2561 1652 L 2561 1531 L 2561 1376 L 2561 1338 C 2561 1334.688 2562.375 1327.375 2559.375 1325 C 2556.938 1323.063 2551.938 1324 2549 1324 C 2532.313 1324 2524.938 1348.313 2516.688 1361 C 2482.25 1413.938 2447.75 1469.688 2394 1505.313 C 2379.125 1515.188 2362.375 1523.625 2345 1527.875 C 2340.938 1528.875 2331.063 1532.688 2327.625 1529.375 C 2323 1524.938 2326 1507.125 2326 1501 L 2326 1417 L 2326 1135 L 2326 1061 C 2326 1053.938 2323.063 1038.25 2327 1032.313 C 2330.313 1027.375 2345.688 1030 2351 1030 L 2422 1030 L 2422 1006 L 2350 1006 C 2344.75 1006 2329.125 1008.687 2326.625 1002.875 C 2324.313 997.625 2326 988.6875 2326 983 L 2326 938 C 2326 933.3125 2328.375 919.1875 2324.375 916 C 2320.5 912.9375 2302.125 913.375 2301.125 919.0625 C 2297.75 938.8125 2301 961.9375 2301 982 C 2301 987.25 2303.375 1000.437 2299.375 1004.375 C 2294.875 1008.937 2278.125 1006 2272 1006 L 2204 1006 C 2197.688 1006 2183.75 1008.625 2178.438 1005 C 2173.125 1001.312 2176.875 989.25 2177 984 C 2177.5 962.25 2179 940.6875 2179.938 919 C 2184.188 826.25 2201.125 722.125 2246.313 640 C 2255.688 623 2268.75 605.5 2285 594.5 C 2290.25 590.9375 2295.875 588.4375 2302 586.75 C 2304.875 585.9375 2310 586 2312 583.4375 C 2315.25 579.125 2313.438 564.875 2312 560 C 2302.75 561.6875 2293.813 562.125 2285 565.875 C 2251.375 580.25 2231.438 612.625 2215.75 644 C 2181.375 712.8125 2165.25 796.75 2159.063 873 C 2156.375 906.375 2153.5 939.5625 2152.063 973 C 2151.75 980.0625 2155.813 1002.25 2147.938 1005.375 C 2136.875 1009.875 2116.938 1006 2105 1006 C 2100.875 1006 2094.5 1007.125 2092 1002.875 C 2090.125 999.625 2091.688 995.4375 2091.938 992 C 2092.5 983.75 2092 975.3125 2092 967 C 2092 932.4375 2094.813 897.4375 2098.188 863 C 2106.875 773.3125 2124.625 678.9375 2170 600 C 2195.438 555.6875 2231.313 516.375 2282 502.4375 C 2369.375 478.4375 2441.375 562.0625 2485.313 626 C 2498 644.4375 2510.375 663.0625 2522.313 682 C 2526.313 688.375 2530.75 701 2537.313 705 C 2542.813 708.3125 2554.688 706 2561 706 L 2561 421 L 2561 354 C 2561 346.1875 2563.5 333.0625 2560 326 C 2555.375 316.75 2542.75 308.25 2535 301.5625 C 2518 286.875 2501.563 271.4375 2483 258.6875 C 2381.625 188.9375 2243.125 169.75 2136 238.6875 C 2070.688 280.75 2025.063 343.4375 1990.75 412 C 1937.938 517.625 1910.875 635.4375 1895.75 752 C 1887.188 817.3125 1883.813 882.375 1880.938 948 C 1880.375 961.6875 1880 975.25 1880 989 C 1880 993.375 1881.5 1001.187 1877.688 1004.375 C 1873.75 1007.75 1862.875 1006.375 1858 1005.937 C 1849.938 1005.25 1851 997.125 1851 991 C 1851 975.625 1852.5 959.3125 1850.688 944 C 1848.125 921.9375 1849.438 899.1875 1847.938 877 C 1844.813 831.9375 1841.125 786.8125 1835 742 C 1830.188 706.75 1824.188 671.8125 1817 637 C 1811.313 609.4375 1804.5 582.0625 1796.688 555 C 1755.188 410.5625 1674.375 241.8125 1515 203.125 C 1493.563 197.9375 1471.938 196 1450 196 C 1419.438 196 1389.25 198.375 1360 208 C 1321.625 220.6875 1286.313 240.125 1256 267.1875 C 1160.438 352.375 1111.938 483.375 1083.125 605 C 1051.188 739.6875 1042 878.0625 1042 1016 C 1042 1166.063 1053.438 1316.563 1092.875 1462 C 1131.25 1603.813 1206.688 1774.625 1359 1822 C 1384.25 1829.813 1410.625 1833.813 1437 1834.938 C 1458.313 1835.875 1480.063 1833.625 1501 1830.063 C 1663 1802.5 1743.688 1637.375 1790 1497 C 1799.625 1467.938 1807.313 1437.938 1813.813 1408 C 1821.313 1373.125 1827.188 1338.188 1832.938 1303 C 1844.313 1233.5 1847 1163.063 1850.063 1093 C 1850.688 1078 1851 1063.063 1851 1048 C 1851 1043.813 1849.313 1034.938 1852.625 1031.75 C 1856.375 1028.063 1869.125 1029.563 1874 1030.125 C 1881.438 1030.938 1880 1038.313 1880 1044 C 1880 1058 1879.5 1072.063 1880.813 1086 C 1882.938 1108.125 1881.563 1130.813 1883.063 1153 C 1885.75 1191.75 1889 1230.375 1893.188 1269 C 1907.063 1398.563 1938.688 1532.25 2001.688 1647 C 2038.563 1714.125 2093.125 1776.938 2164 1809 M 372 1138 L 371 1138 C 358.875 1095.563 338.5625 1053.5 321.125 1013 C 316 1001 310.8125 989 305.5625 977 C 303.375 971.9375 299.0625 965.625 298.9375 960 C 298.625 950.875 306.25 938.375 309.625 930 C 317.25 910.8125 324.625 891.5625 327.5625 871 C 337.5 801.875 298.6875 733.8125 240 698.375 C 213.9375 682.6875 160.125 660.5 140.8125 698 C 126.9375 724.9375 147.25 759.9375 162 782 C 187.875 820.625 211.875 859.6875 231.3125 902 C 237.1875 914.75 247.625 929.1875 250.25 943 C 251.75 950.75 244.125 963.5625 241.6875 971 C 233.9375 994.1875 226.75 1017.5 220 1041 C 195.9375 1124.563 174.625 1221 188.5625 1308 C 196.4375 1356.813 220.6875 1403.563 272 1417.125 C 305.875 1426.063 337.8125 1420.063 372 1420 L 372 1706 L 372 1776 C 372 1780.938 369.4375 1796.688 373.625 1800 C 377.125 1802.75 386.6875 1801 391 1801 L 438 1801 L 619 1801 L 619 1853 L 644 1853 L 644 1801 L 696 1801 L 696 1776 L 644 1776 L 644 1352 L 644 1265 C 644 1255.188 640.6875 1238.125 644.625 1229.125 C 646.6875 1224.313 660.75 1224.938 664.9375 1226.625 C 673.5625 1230 678.0625 1253.813 681.0625 1262 C 693.875 1297.063 706.5625 1332.25 720.1875 1367 C 760 1468.313 796.1875 1571.125 834.5625 1673 C 845.5 1701.938 856.125 1731 866.9375 1760 C 871.125 1771.188 874.25 1789.5 881.8125 1798.688 C 885.625 1803.25 897.625 1801 903 1801 L 965 1801 L 1077 1801 L 1106 1801 C 1109.688 1801 1114.625 1800.188 1117.75 1802.625 C 1122.063 1805.813 1123.313 1813.25 1125.188 1818 C 1130.25 1830.938 1134.5 1844.75 1141 1857 L 1164 1848 L 1143 1795 C 1165.25 1789.688 1193.125 1794 1216 1794 L 1216 1769 L 1156 1769 C 1150.375 1769 1138 1771.313 1133.5 1767.375 C 1125.625 1760.563 1122.688 1741.5 1118.75 1732 C 1105.063 1699.375 1092.313 1666.125 1079.938 1633 C 1038.688 1522.688 992.3125 1414.313 951.0625 1304 C 934 1258.375 914.375 1213.75 897.6875 1168 C 894 1157.938 890 1148 886 1138 C 884.6875 1134.688 883.375 1128.125 880.3125 1126.063 C 878.1875 1124.688 874.375 1125.938 872 1126 C 905.625 1096.313 932.0625 1056.188 953.3125 1017 C 1016 901.375 1030.688 762.5625 1025.063 633 C 1023.062 587.875 1020.687 543.5 1011.812 499 C 996.1875 420.875 962.0625 339.5 902 285.1875 C 841.8125 230.75 761.75 229 685 229 L 502 229 L 405 229 L 382 229 C 379.375 229 374.875 228.25 373 230.625 C 370.3125 234 372 242.875 372 247 L 372 292 L 372 465 L 372 1138 z "
     id="path989" />
  <path
     style="font-size:12;fill:#ffffff;fill-rule:evenodd;fill-opacity:1;"
     d="M 388 2039.5 C 353.5625 2045.938 364.875 2097 399 2089.625 C 430.125 2082.875 418.875 2033.688 388 2039.5 M 646 2039.438 C 611.75 2045.563 621.875 2095.75 656 2089.688 C 687.0625 2084.125 677 2033.938 646 2039.438 M 885 2050 L 925 2050 C 917.9375 2035.563 891.9375 2035.438 885 2050 M 1826 2039.5 C 1792 2045.813 1802.125 2095.625 1836 2089.688 C 1868 2084.063 1857.438 2033.563 1826 2039.5 M 2736 2050 L 2776 2050 C 2769.063 2035.5 2742.938 2035.5 2736 2050 M 3838 2050 L 3878 2050 C 3871.063 2035.5 3844.938 2035.5 3838 2050 M 4112 2039.438 C 4077.625 2045.625 4087.813 2095.813 4122 2089.688 C 4153.125 2084.125 4142.875 2033.938 4112 2039.438 M 4367 2039.438 C 4332.625 2045.625 4342.75 2095.813 4377 2089.688 C 4408.375 2084.063 4398.25 2033.875 4367 2039.438 M 6215 2039.438 C 6180.438 2045.625 6190.75 2095.813 6225 2089.688 C 6256.25 2084.063 6246 2033.938 6215 2039.438 M 6655 2050 L 6694 2050 C 6689.313 2034.125 6661.125 2036.938 6655 2050 z M 3182 1978 C 3175.563 1978 3158.75 1975 3153.625 1979 C 3150.25 1981.688 3150.375 2004.25 3153.75 2007 C 3156.938 2009.563 3165.125 2008 3169 2008 C 3172.125 2008 3178.75 2009.25 3181 2006.375 C 3185 2001.25 3182 1984.438 3182 1978 M 3607 2078 L 3608 2078 C 3613.188 2088.125 3621.938 2097.125 3629 2106 C 3631.938 2109.688 3634.75 2114.75 3639 2117 C 3646.438 2120.75 3667.125 2119.313 3675 2117 L 3646.625 2079 L 3636.25 2064 L 3644.688 2049 L 3668 2013 C 3661 2010.938 3638.438 2008.938 3632.5 2013.625 C 3620.938 2022.813 3617.313 2040.438 3606 2050 L 3606 1978 C 3600.313 1978 3580.688 1974.938 3577 1979.625 C 3572.625 1985.125 3576 2004 3576 2011 L 3576 2086 C 3576 2093.875 3573.125 2108.625 3576.75 2115.688 C 3578.75 2119.688 3602.25 2119.875 3605 2116.375 C 3607.063 2113.75 3606 2108.125 3606 2105 C 3606 2096.188 3604.938 2086.625 3607 2078 M 4091 2112 C 4099.375 2118.875 4109.5 2120 4120 2120 C 4129.188 2120 4138.188 2117.813 4146 2112.938 C 4171.688 2097 4179.125 2059.313 4162.938 2034 C 4148.688 2011.813 4113.188 1999.75 4091 2018 L 4090 1978 C 4084.313 1978 4064.688 1974.938 4061 1979.625 C 4056.625 1985.125 4060 2004 4060 2011 L 4060 2086 C 4060 2093.875 4057.125 2108.625 4060.75 2115.688 C 4062.313 2118.813 4067.125 2118 4070 2118 C 4077.688 2118 4088.188 2120.75 4091 2112 M 5001 2012 C 4997.563 2012 4991.5 2010.875 4988.625 2013.188 C 4985.125 2015.938 4985.563 2037.313 4988.625 2040.375 C 4991.313 2043.125 4997.5 2042 5001 2042 L 5001 2091 C 5001 2098 4999.438 2107.125 5001.313 2113.938 C 5002.875 2119.563 5026.563 2120.688 5030 2116.375 C 5033.125 2112.438 5031 2100.875 5031 2096 L 5031 2042 C 5034.313 2042 5040.5 2043.188 5043.25 2041 C 5046.625 2038.25 5046.75 2015.688 5043.375 2013 C 5040.625 2010.813 5034.375 2012 5031 2012 C 5037.875 2006.188 5053.25 2012.125 5057.813 2006.375 C 5060.563 2002.938 5060.813 1980.625 5056.688 1978.625 C 5052.875 1976.75 5046.188 1978 5042 1978 C 5019.875 1978 5003.938 1989.125 5001 2012 M 5205.625 1979 C 5202.625 1981.375 5204 1988.688 5204 1992 C 5204 1995.75 5202.563 2003.313 5205 2006.375 C 5207.75 2009.875 5228.125 2009.313 5231.688 2007 C 5235.438 2004.5 5234 1996.875 5234 1993 C 5234 1989.5 5235.313 1982.563 5233 1979.625 C 5230.375 1976.313 5208.875 1976.438 5205.625 1979 M 391 2009.563 C 335.25 2011.625 316.3125 2087.25 366 2114.125 C 375.8125 2119.438 387 2120.438 398 2119.938 C 455.5 2117.438 463.625 2035.188 414 2013.875 C 406.9375 2010.813 398.6875 2009.313 391 2009.563 M 625 2018 C 622.1875 2009.25 611.6875 2012 604 2012 C 600.125 2012 595 2011.188 594.125 2016.063 C 592.5 2025.813 594 2037.125 594 2047 L 594 2111 C 594 2124.313 590.5625 2143.125 594.3125 2155.875 C 595.8125 2160.813 621.1875 2161.188 623.375 2156.688 C 629.1875 2144.875 621.875 2125.063 625 2112 C 633.4375 2118.438 642.625 2120 653 2120 C 662.6875 2120 671.6875 2118.063 680 2112.938 C 706.1875 2096.688 713.5625 2058.5 696.375 2033 C 681.9375 2011.438 646.75 2000.125 625 2018 M 945 2104 L 945 2103 C 940.0625 2098.063 931.125 2084.938 924 2083.938 C 920 2083.313 915.75 2088.063 912 2089.188 C 901.9375 2092.25 891.1875 2088.125 885 2080 L 938 2080 C 942.8125 2080 953.3125 2082 957.3125 2079 C 960.3125 2076.688 960.4375 2070.438 960.6875 2067 C 961.6875 2053.813 956 2039 947.6875 2029 C 926.8125 2004.063 886.125 2003.313 864.0625 2027 C 838.875 2054.125 847.625 2100.75 882 2115.688 C 903.8125 2125.125 927.5 2119.125 945 2104 M 1544 2081 C 1546.75 2095.938 1551.188 2108.5 1566 2115.625 C 1591.5 2127.875 1631.563 2117.813 1632 2085 C 1632.25 2065.5 1616.625 2053.875 1599 2050 C 1595.875 2049.313 1578.188 2047.75 1580.188 2042.25 C 1581.625 2038.375 1588.938 2038.75 1592 2039.5 C 1595.688 2040.438 1597.75 2043.75 1601.188 2044.688 C 1608.438 2046.688 1621.875 2046.125 1629 2044 C 1626.625 2031.375 1622.25 2020.563 1610 2014.375 C 1585.875 2002.188 1545.813 2014.25 1548.063 2046 C 1549.563 2066.25 1571.25 2073.75 1588 2077.625 C 1591.313 2078.438 1603.75 2080.875 1600.25 2086.688 C 1597.438 2091.25 1587.438 2090.688 1583 2089.438 C 1577.813 2087.938 1576.938 2082.563 1572.688 2080.625 C 1566.438 2077.688 1550.438 2079.063 1544 2081 M 1829 2009.563 C 1774.063 2011.563 1753.813 2086.25 1803 2113.625 C 1813.125 2119.313 1824.563 2120.438 1836 2119.938 C 1893.5 2117.438 1901.625 2035.188 1852 2013.875 C 1844.938 2010.813 1836.688 2009.313 1829 2009.563 M 2565 2027 C 2547.563 2002.75 2507.188 2005.75 2487 2024.188 C 2467.688 2041.875 2464 2073 2478.063 2095 C 2491.438 2115.813 2518.438 2125.313 2542 2117.625 C 2547.5 2115.875 2563.813 2110.188 2563.813 2103 C 2563.813 2099.188 2558.438 2095.438 2556 2093 C 2553 2090 2548.625 2083.75 2544 2083.625 C 2540.125 2083.5 2536.5 2087.563 2533 2088.875 C 2525.375 2091.688 2516.375 2089.813 2510 2085.063 C 2491.25 2071.125 2500.125 2042.125 2523 2039.313 C 2530.5 2038.375 2539.063 2047.313 2545 2045.688 C 2552.063 2043.75 2559.875 2032.125 2565 2027 M 2796 2104 L 2796 2103 C 2791 2098 2782.625 2085.5 2775.688 2083.75 C 2771.875 2082.75 2767.438 2087.625 2764 2088.875 C 2753.938 2092.563 2742.188 2088.375 2736 2080 L 2788 2080 C 2793.313 2080 2804 2082 2808.5 2078.813 C 2811.563 2076.625 2811.375 2070.438 2811.688 2067 C 2812.938 2053.875 2806.938 2038.938 2798.688 2029 C 2777.5 2003.625 2736 2003.5 2714.188 2028 C 2690.625 2054.5 2698.563 2099.25 2731 2114.688 C 2753.25 2125.25 2777.938 2119.75 2796 2104 M 3879 2083 C 3863.375 2086 3851.125 2097.125 3838 2080 L 3892 2080 C 3896.75 2080 3907.563 2082 3911.125 2078.25 C 3916.25 2072.938 3913.688 2059.375 3912.313 2053 C 3907 2027.438 3883.875 2009.563 3858 2009.563 C 3802.875 2009.563 3781.5 2085.438 3830 2113.125 C 3845.75 2122.125 3865.625 2122.188 3882 2114.938 C 3886.063 2113.188 3896.75 2108.25 3896.625 2102.938 C 3896.563 2095.938 3882.875 2088.5 3879 2083 M 4370 2009.563 C 4313.313 2011.688 4293.75 2090.438 4347 2115.188 C 4356.25 2119.5 4365.875 2120.438 4376 2119.938 C 4433.25 2117.438 4443.688 2033.813 4392 2013.625 C 4385.125 2010.938 4377.438 2009.313 4370 2009.563 M 5613 2016 C 5611.188 2010.563 5586.25 2008.938 5583.625 2014.313 C 5580.875 2019.875 5583 2030.875 5583 2037 L 5583 2092 C 5583 2097.688 5580.438 2111.875 5584 2116.375 C 5586.75 2119.813 5606.813 2119.313 5610.563 2117.375 C 5615.063 2115.125 5613 2103.188 5613 2099 C 5613 2085 5609.438 2065.375 5613.625 2052 C 5616.313 2043.438 5626.313 2037.313 5635 2040.25 C 5646.75 2044.25 5648 2054.313 5648 2065 C 5648 2079.563 5643.938 2101 5648.438 2114.875 C 5650.063 2119.938 5671.375 2119.5 5675.688 2117.375 C 5680.188 2115.188 5678 2102.25 5678 2098 C 5678 2082.625 5670.875 2039.375 5696 2039.375 C 5705.188 2039.375 5712.75 2048.375 5713 2057 C 5713.5 2074.438 5708.688 2097.188 5713.313 2113.938 C 5714.938 2119.875 5738.438 2120.375 5742.375 2116.375 C 5745 2113.813 5744 2108.313 5744 2105 L 5744 2074 C 5744 2042.438 5733 2009.125 5695 2009.688 C 5688.5 2009.813 5681.938 2011 5676 2013.75 C 5672.5 2015.438 5667.938 2019.375 5664 2019.438 C 5659.125 2019.438 5652.813 2013.375 5648 2011.688 C 5636.25 2007.563 5623.688 2010.438 5613 2016 M 6244 2112 C 6247 2121.188 6273.75 2122.125 6274 2111 C 6274.375 2089.375 6274 2067.625 6274 2046 C 6274 2036.75 6276.313 2024 6273.688 2015.125 C 6272.5 2011.125 6267.313 2012 6264 2012 C 6256.438 2012 6246.813 2009.438 6244 2018 C 6220.25 2000.25 6184.625 2011.563 6170.438 2036 C 6155.438 2061.875 6163.813 2100 6191 2114.25 C 6198.938 2118.375 6207.125 2120 6216 2120 C 6226.313 2120 6235.438 2118.063 6244 2112 M 6714 2105 C 6712.375 2099.188 6699.688 2083.438 6693 2083.875 C 6689.25 2084.125 6685.625 2087.938 6682 2089.063 C 6672 2092.313 6661 2088.375 6655 2080 L 6708 2080 C 6712.938 2080 6723.563 2082 6727.438 2078.375 C 6730.5 2075.5 6730 2069.813 6730 2066 C 6730 2053.375 6726.75 2041.188 6718.938 2031 C 6701.125 2007.688 6665.813 2002.75 6642 2019.813 C 6606.75 2045 6614.25 2100.5 6654 2116.563 C 6676.188 2125.5 6695.563 2117.188 6714 2105 M 1137 2017 C 1135.813 2009.875 1109.313 2008.75 1107.313 2015.25 C 1105.313 2021.75 1107 2031.188 1107 2038 L 1107 2088 C 1107 2095.5 1104.563 2107.938 1107.625 2114.875 C 1109.688 2119.563 1131.438 2120.063 1135.25 2117 C 1138.938 2114 1137 2103.25 1137 2099 C 1137 2085.063 1133.75 2066.438 1137.625 2053 C 1139.688 2045.875 1147.25 2038.938 1155 2039.25 C 1165.25 2039.75 1172.5 2049.375 1172.938 2059 C 1173.813 2076 1168.5 2098.563 1173.313 2114.875 C 1174.75 2119.625 1198 2120.125 1201 2116.375 C 1205.563 2110.625 1202 2090.375 1202 2083 C 1202 2069.688 1204.375 2053.813 1200.125 2041 C 1191.438 2014.875 1160.875 2000 1137 2017 M 2307 2016 C 2304.625 2008.875 2277.438 2008.938 2277 2018 C 2276.375 2031.938 2277 2046.063 2277 2060 L 2277 2099 C 2277 2103.625 2275.5 2111.438 2277.625 2115.688 C 2279.688 2119.875 2304.125 2119.875 2306.25 2115.688 C 2308.438 2111.375 2307 2103.688 2307 2099 C 2307 2085 2303.438 2065.375 2307.625 2052 C 2311.313 2040.25 2321.25 2043.688 2328.375 2038 C 2331.75 2035.25 2331.25 2016.063 2329.375 2012.313 C 2326.063 2005.5 2311.313 2014.188 2307 2016 M 5413 2016 C 5411.063 2010.188 5385.25 2009 5383.313 2015.25 C 5381.313 2021.75 5383 2031.188 5383 2038 L 5383 2088 C 5383 2095.5 5380.563 2107.938 5383.625 2114.875 C 5385.688 2119.625 5407.563 2120 5411.375 2117 C 5415.125 2114 5413 2101.375 5413 2097 C 5413 2075.938 5405.375 2039.063 5436 2039 L 5436 2010 L 5413 2016 M 6456 2016 C 6454.188 2010.563 6429.25 2008.938 6426.625 2014.313 C 6423.875 2019.875 6426 2030.875 6426 2037 L 6426 2091 C 6426 2097.688 6423.688 2109.688 6426.75 2115.688 C 6428.875 2119.875 6453.313 2119.875 6455.375 2115.688 C 6457.5 2111.438 6456 2103.625 6456 2099 C 6456 2085.125 6453.563 2068.563 6456.5 2055 C 6457.875 2048.75 6461.938 2043.063 6468 2040.625 C 6470.813 2039.5 6476 2039.875 6478 2037.375 C 6481.938 2032.375 6479 2016.313 6479 2010 L 6456 2016 M 2098 2113 C 2099.25 2120.563 2125.688 2121.125 2127.688 2113.938 C 2129.563 2107.125 2128 2098 2128 2091 L 2128 2041 C 2128 2034 2130.563 2020.688 2127.375 2014.438 C 2125.313 2010.313 2103.063 2010.313 2099.625 2013 C 2096.063 2015.813 2098 2026.938 2098 2031 C 2098 2047.5 2105.5 2092.5 2078 2089.875 C 2054.188 2087.625 2062 2045.063 2062 2029 C 2062 2024.875 2063.25 2018.125 2061.375 2014.313 C 2059.438 2010.313 2035.75 2010.188 2033 2013.625 C 2028.438 2019.375 2032 2039.625 2032 2047 C 2032 2063 2030.313 2080 2037.063 2095 C 2047.625 2118.813 2076.5 2127.063 2098 2113 M 3139 2129 C 3139 2135.438 3136 2152.25 3140 2157.375 C 3142.25 2160.25 3148.938 2159.063 3152 2158.563 C 3163.563 2156.438 3173.625 2149.75 3178.688 2139 C 3183.5 2128.813 3182 2116.938 3182 2106 L 3182 2046 C 3182 2037.688 3185.063 2021.813 3181.375 2014.313 C 3179.438 2010.313 3157 2010.375 3153.625 2013 C 3149.375 2016.375 3152 2032.875 3152 2038 L 3152 2098 C 3152 2105.563 3154.125 2116.875 3151.375 2124 C 3149.313 2129.313 3143.75 2129 3139 2129 M 3397 2114 C 3399.75 2118.938 3423.563 2121.5 3426.375 2115.688 C 3429.125 2110.125 3427 2099.125 3427 2093 L 3427 2038 C 3427 2032.313 3429.563 2018.125 3426 2013.625 C 3423.188 2010.063 3403.188 2010.75 3399.313 2012.75 C 3394.938 2015 3397 2026.875 3397 2031 C 3397 2045.063 3400.125 2063.438 3396.188 2077 C 3393.563 2086.125 3384.313 2091.875 3375 2089.563 C 3364.125 2086.875 3362 2076.5 3362 2067 L 3362 2030 C 3362 2025.688 3363.375 2018.375 3361.375 2014.438 C 3359.313 2010.313 3335.813 2010.125 3333 2013.625 C 3331.063 2016.063 3332 2021.063 3332 2024 L 3332 2050 C 3332 2076.813 3331.188 2109.063 3363 2118.563 C 3367.875 2120 3372.938 2120.188 3378 2119.938 C 3385.063 2119.625 3390.563 2116.313 3397 2114 M 4555 2013 L 4577.188 2050 L 4585.188 2065 L 4577.063 2080 L 4555 2117 C 4562 2119.063 4582.25 2120.813 4588.625 2116.813 C 4594.813 2112.938 4600.188 2100.563 4603 2094 L 4605 2094 C 4608.125 2100.563 4613.75 2113.125 4620.188 2116.813 C 4627.813 2121.188 4644.313 2118 4653 2118 C 4651.25 2104.875 4637.688 2090.188 4630.813 2079 C 4628.5 2075.188 4623.5 2069.625 4623.375 2065 C 4623.188 2060 4628.688 2054.063 4631.188 2050 C 4638.75 2037.688 4647 2025.625 4654 2013 C 4646.625 2011.25 4624.688 2008.688 4618.625 2013.75 C 4611.75 2019.438 4609.563 2029.875 4603 2036 C 4601 2029.563 4594.813 2016.625 4588.813 2013.188 C 4582 2009.313 4562.313 2010.813 4555 2013 M 5205.625 2013 C 5200.938 2016.688 5204 2036.313 5204 2042 L 5204 2094 C 5204 2099.875 5202 2110.313 5204.625 2115.688 C 5206.688 2119.875 5228.063 2119.375 5231.688 2117 C 5237 2113.438 5234 2094.813 5234 2089 L 5234 2038 C 5234 2031.188 5235.688 2021.75 5233.688 2015.25 C 5232.188 2010.313 5209.313 2010.063 5205.625 2013 M 5953 2073 L 5956 2073 C 5956.875 2083.75 5961.125 2094.563 5963.875 2105 C 5964.75 2108.438 5965.438 2114.625 5968.5 2116.813 C 5972 2119.313 5978.938 2118 5983 2118 C 5987.25 2118 5995.063 2119.5 5998.063 2115.688 C 6003.563 2108.625 6004.813 2093.625 6007.125 2085 C 6013.125 2063.313 6024.313 2039.375 6026.5 2017 C 6027.188 2009.625 6004.188 2010.438 5999.125 2012.625 C 5994.5 2014.625 5993.688 2023.688 5992.438 2028 C 5989.563 2038.063 5987.688 2049.625 5983 2059 C 5979.625 2048.438 5976.75 2037.688 5973.688 2027 C 5972.563 2023 5971.938 2016.438 5968.563 2013.625 C 5965.313 2010.813 5958.938 2012 5955 2012 C 5950.688 2012 5942.938 2010.5 5939.875 2014.313 C 5930.563 2025.813 5935.875 2047.625 5925 2058 C 5924 2046.938 5919.313 2035.563 5916 2025 C 5914.938 2021.563 5914.625 2015.25 5911.5 2013 C 5907.438 2010.188 5882.438 2010.063 5882.5 2016.063 C 5882.563 2023.625 5886.938 2032.75 5889 2040 C 5893.875 2057 5898.75 2074.063 5903.813 2091 C 5905.75 2097.5 5906.813 2111.5 5911.75 2116.25 C 5914.75 2119.188 5921.188 2118 5925 2118 C 5929.063 2118 5936.063 2119.313 5939.563 2117 C 5942.75 2114.875 5943.313 2109.375 5944.313 2106 C 5947.313 2095.375 5952.063 2084 5953 2073 z "
     id="path997" />
  <path
     style="font-size:12;fill:#b4b4b4;fill-rule:evenodd;"
     d="M 3551 1123.688 C 3533.313 1128.125 3515.438 1129.625 3498 1136.063 C 3445.5 1155.313 3401.375 1195.875 3378.563 1247 C 3366.438 1274.125 3358.688 1306.375 3359 1336 C 3360.375 1469.688 3489.25 1570.125 3619 1541.563 C 3722.813 1518.688 3795.75 1417.875 3783.875 1312 C 3773 1215.438 3695.75 1135.75 3599 1124.875 C 3584.25 1123.188 3565.813 1120 3551 1123.688 M 4375 1123.688 C 4357.313 1128.125 4339.438 1129.625 4322 1136.063 C 4271.375 1154.625 4228.938 1192.813 4204.813 1241 C 4193.875 1262.938 4187.563 1286.875 4184.875 1311 C 4181.625 1340 4183.75 1367.75 4191.688 1396 C 4221.813 1502.438 4337.375 1564.813 4443 1541.563 C 4551.25 1517.75 4622.938 1412.875 4607.813 1304 C 4595.438 1214.938 4523.75 1142.563 4436 1126.75 C 4417.563 1123.438 4393.688 1119.063 4375 1123.688 z M 3359 1707 C 3404.313 1752.313 3463.25 1771 3525 1781.25 C 3649.5 1801.875 3781.75 1766.438 3877 1681.875 C 3908.688 1653.75 3936.188 1620.063 3958.313 1584 C 3968.938 1566.563 3975.438 1545 3988 1529 C 3991.188 1543.75 4002.375 1558.188 4009.875 1571 C 4033.938 1611.875 4066.688 1648.938 4103 1679.25 C 4240.813 1794.25 4435.75 1820.438 4597 1740 C 4628.563 1724.25 4662.5 1705.813 4688 1681 C 4675.75 1709.063 4654.563 1736.188 4638 1762 C 4657.438 1767.75 4684.688 1763 4705 1763 L 4848 1763 L 4898 1763 C 4903.125 1763 4913.125 1764.875 4917.5 1762 C 4921.313 1759.438 4923.875 1752.75 4926.313 1749 C 4934.25 1736.938 4941.188 1724.188 4949 1712 C 4970.563 1678.438 4990.813 1644 5011.688 1610 C 5020.875 1595.125 5036.438 1577.875 5041 1561 L 5053.25 1577 L 5077.5 1616 L 5142 1719 L 5168.75 1761.375 L 5187 1763 L 5236 1763 L 5381 1763 L 5425 1763 L 5449 1762 L 5269.875 1473 L 5209.75 1376 L 5183 1334 L 5183 1333 C 5196.563 1319.938 5205.875 1298.063 5215.688 1282 C 5234.188 1251.875 5253.25 1222.125 5271.688 1192 C 5312 1126.438 5353.5 1061.625 5393.688 996 C 5411.75 966.5625 5433.625 937.875 5449 907 C 5429.563 901.25 5402.313 906 5382 906 L 5238 906 L 5188 906 C 5182.25 906 5173 904.25 5168.063 907.625 C 5162.938 911.0625 5160 918.9375 5156.688 924 C 5147.813 937.4375 5139.688 951.3125 5131.313 965 C 5102.125 1012.437 5070.938 1058.813 5043 1107 L 5042 1107 C 5015.25 1056.688 4982.813 1008.125 4952.313 960 C 4944.375 947.4375 4937.063 934.5 4929 922 C 4926.125 917.5625 4923.375 909.8125 4918.688 907 C 4914.5 904.5625 4906.75 906 4902 906 L 4860 906 L 4704 906 L 4657 906 C 4653.5 906 4643.313 904.25 4641.063 907.625 C 4638.063 912.0625 4649.25 925.1875 4651.625 929 C 4664.313 949.3125 4680.438 970.125 4690 992 C 4655.438 957.4375 4607.188 932.625 4562 915.125 C 4406.688 855.125 4231 884.9375 4103 991.75 C 4067.625 1021.25 4036.938 1056.938 4012.5 1096 C 4003.938 1109.75 3991.5 1125.938 3988 1142 L 3985 1142 C 3981.75 1127.063 3970.75 1111.063 3963.125 1098 C 3944.063 1065.563 3921.625 1035.625 3895 1009 C 3800.375 914.375 3671.313 873.125 3540 887.875 C 3473.188 895.375 3407.688 915.3125 3359 964 L 3359 715 L 3359 651 C 3359 645.5625 3361.438 632 3358 627.625 C 3355.75 624.8125 3349.125 626 3346 626 L 3312 626 L 3172 626 L 3133 626 C 3129.688 626 3122.438 624.625 3120.625 628.3125 C 3117.688 634.3125 3120 646.375 3120 653 L 3120 715 L 3120 935 L 3120 1492 L 3120 1672 L 3120 1730 C 3120 1739.25 3118.563 1749.813 3120.125 1758.938 C 3121.313 1765.688 3135.875 1763 3141 1763 L 3206 1763 L 3320 1763 L 3348 1763 C 3350.813 1763 3356 1763.938 3358 1761.375 C 3360.438 1758.313 3359 1750.75 3359 1747 L 3359 1707 z M 4837 1229 L 4840.75 1248 L 4846.75 1284 L 4849 1358 L 4842.563 1414 L 4837 1442 L 4861.5 1404 L 4904 1336 L 4904 1335 C 4889.25 1313.438 4875.375 1290.563 4862.125 1268 C 4854.938 1255.813 4847.563 1238.375 4837 1229 M 4835 1445 L 4836 1446 L 4835 1445 M 4689 1679 L 4688 1681 L 4689 1679 z "
     id="path1000" />
</svg>
