<?xml version="1.0" encoding="iso-8859-1"?>
<!DOCTYPE svg PUBLIC "-//W3C//DTD SVG 1.0//EN" "http://www.w3.org/TR/2001/REC-SVG-20010904/DTD/svg10.dtd">
<!-- Creator: CorelDRAW -->
<svg xmlns="http://www.w3.org/2000/svg" xmlns:odm="http://product.corel.com/CGS/11/cddns/" xmlns:corel-charset="http://product.corel.com/CGS/11/cddns/" xml:space="preserve" width="200mm" height="62mm" shape-rendering="geometricPrecision" text-rendering="geometricPrecision" image-rendering="optimizeQuality" fill-rule="evenodd"
     viewBox="0 0 20000 6200">
 <g id="Ebene_x0020_1">
  <defs>
   <linearGradient id="id0" gradientUnits="userSpaceOnUse" x1="17608" y1="4190.54" x2="17715.7" y2="4801.28">
    <stop offset="0" stop-color="#FFC100"/>
    <stop offset="0.6" stop-color="#997200"/>
    <stop offset="1" stop-color="#332201"/>
   </linearGradient>
  </defs>
  <path fill="#000000" d="M0 6195.9l20000 0 0 -6191.8 -20000 0 0 6191.8z"/>
  <path fill="#FFFFFF" d="M1264.81 5837.39c0,-86.99 -70.52,-157.51 -157.51,-157.51 -86.98,0 -157.49,70.52 -157.49,157.51 0,86.99 70.51,157.5 157.49,157.5 86.99,0 157.51,-70.51 157.51,-157.5zm494.75 -131.84c63.3,-43.08 147.4,-30.89 197.03,28.56 49.63,59.41 49.63,147.94 0,207.38 -49.63,59.44 -133.73,71.61 -197.03,28.55l0 130.52 -83.43 0 0 -413.02 83.43 0 0 18.01zm952.53 131.82c0,-86.99 -70.51,-157.5 -157.51,-157.5 -86.97,0 -157.49,70.51 -157.49,157.5 0,87 70.52,157.51 157.49,157.51 44.83,0 85.31,-18.72 114,-48.8l-60.27 -57.51 60.27 57.51 -60.27 -57.51c-15.45,16.22 -37.42,24.57 -59.76,22.73 -22.33,-1.86 -42.62,-13.7 -55.22,-32.24l213.2 0c3.65,-13.29 5.56,-27.24 5.56,-41.69zm5231.37 0c0,-86.99 -70.51,-157.5 -157.5,-157.5 -86.98,0 -157.49,70.51 -157.49,157.5 0,87 70.51,157.51 157.49,157.51 44.82,0 85.31,-18.72 113.99,-48.8l-60.26 -57.51 60.26 57.51 -60.26 -57.51c-15.46,16.22 -37.43,24.57 -59.77,22.73 -22.32,-1.86 -42.62,-13.7 -55.22,-32.24l213.21 0c3.65,-13.29 5.55,-27.24 5.55,-41.69zm3112.91 0c0,-86.99 -70.51,-157.5 -157.5,-157.5 -86.98,0 -157.49,70.51 -157.49,157.5 0,87 70.51,157.51 157.49,157.51 44.82,0 85.31,-18.72 113.99,-48.8l-60.26 -57.51 60.26 57.51 -60.26 -57.51c-15.46,16.22 -37.43,24.57 -59.77,22.73 -22.32,-1.86 -42.62,-13.7 -55.22,-32.24l213.21 0c3.65,-13.29 5.55,-27.24 5.55,-41.69zm7955.74 0c0,-86.99 -70.52,-157.5 -157.51,-157.5 -86.98,0 -157.49,70.51 -157.49,157.5 0,87 70.51,157.51 157.49,157.51 44.82,0 85.31,-18.72 113.99,-48.8l-60.26 -57.51 60.26 57.51 -60.26 -57.51c-15.46,16.22 -37.43,24.57 -59.77,22.73 -22.32,-1.86 -42.61,-13.7 -55.22,-32.24l213.21 0c3.65,-13.29 5.56,-27.24 5.56,-41.69zm-15617.1 -23.4c0,-50.44 -24.57,-96.61 -63.6,-119.5 -39.03,-22.88 -85.89,-18.59 -121.3,11.08l0 -18.01 -83.43 0 0 300.52 83.43 0 0 -174.09c0,-28.02 22.71,-50.73 50.74,-50.73 28.01,0 50.73,22.71 50.73,50.73l0 174.09 83.43 0 0 -174.09zm1206.35 -38.9c0,-39.91 -30.09,-75.57 -75.33,-89.34 -45.25,-13.76 -96.08,-2.73 -127.31,27.67 -31.24,30.4 -36.25,73.69 -12.57,108.44 11.95,16.72 29,29.06 48.61,35.21 22.19,7.44 44.85,13.47 67.8,18.1 18.81,3.67 28.72,13.05 23.23,21.96 -5.48,8.9 -24.72,14.6 -45.01,13.35 -20.29,-1.26 -35.41,-9.09 -35.41,-18.33l0 -8.88 -83.34 0 0 8.88c0,44.23 33.71,83.59 83.94,97.96 50.22,14.37 105.86,0.58 138.46,-34.34 32.61,-34.89 35.01,-83.24 5.98,-120.28 -16.79,-19.64 -39.95,-32.74 -65.41,-37.03 -20.15,-3.76 -40.07,-8.62 -59.69,-14.51 -10.89,-3.62 -13.79,-9.54 -7.01,-14.37 6.79,-4.82 21.49,-7.28 35.62,-5.98 14.14,1.29 24.08,6.05 24.08,11.49l0 4.15 83.36 0 0 -4.15zm725.63 62.32c0,-86.99 -70.51,-157.51 -157.5,-157.51 -87,0 -157.51,70.52 -157.51,157.51 0,86.99 70.51,157.5 157.51,157.5 86.99,0 157.5,-70.51 157.5,-157.5zm413.08 24.23l0 -174.08 83.43 0 0 174.08c0,28.02 22.73,50.73 50.74,50.73 28.02,0 50.73,-22.71 50.73,-50.73l0 -174.08 83.44 0 0 300.52 -83.44 0 0 -18.02c-35.4,29.68 -82.26,33.95 -121.29,11.08 -39.03,-22.88 -63.61,-69.05 -63.61,-119.5zm771.83 -156.07l0 -18.01 -83.43 0 0 300.52 83.43 0 0 -150.67c0,-19.67 7.8,-38.53 21.72,-52.43 13.9,-13.92 32.77,-21.72 52.43,-21.72l0 -83.1c-26.42,1.57 -51.98,10.33 -74.15,25.41zm733.98 23.11c-28.68,-30.04 -69.17,-48.79 -113.99,-48.79 -86.96,0 -157.48,70.49 -157.49,157.47 0,0.02 0,0.02 0,0.03 0.01,86.98 70.53,157.48 157.49,157.48 44.82,0 85.31,-18.76 113.99,-48.8l-60.28 -57.51c-13.5,14.12 -32.56,22.95 -53.63,22.95 -40.94,0 -74.13,-33.18 -74.15,-74.12 0,-0.01 0,-0.01 0,-0.03 0.02,-40.93 33.21,-74.12 74.15,-74.12 21.07,0 40.13,8.83 53.63,22.95l60.28 -57.51zm9655.7 108.5l-43.02 -149.62 -74.45 0 -43 149.62 -43 -149.62 -86.74 0 86.37 300.52 86.74 0 36.86 -128.28 36.87 128.28 86.72 0 86.37 -300.52 -86.72 0 -43 149.62m-2117.59 -247.47l-83.42 0 0 83.35 83.42 0 0 -83.35m0 97.85l-83.42 0 0 300.52 83.42 0 0 -300.52m-1728.64 150.39l92.85 150.13 -98.22 0 -43.74 -70.73 -43.75 70.73 -98.22 0 92.86 -150.13 -93.03 -150.39 98.23 0 43.91 70.99 43.9 -70.99 98.24 0 -93.03 150.39m-2794.46 -150.39l-76.47 123.65 0 -221.5 -83.44 0 0 398.37 83.44 0 0 -125.34 93.96 125.34 104.19 0 -114.71 -152.98 91.27 -147.54 -98.24 0m-1270.95 -97.85l-83.44 0 0 83.35 83.44 0 0 -83.35m0 413.02l0 -315.17 -83.44 0 0 315.25c0,7.96 -6.46,14.41 -14.42,14.41l-23.62 0 0 83.36 23.62 0c54.05,0 97.86,-43.82 97.86,-97.85m3512.76 -165.32c0,-86.99 -70.53,-157.51 -157.5,-157.51 -86.99,0 -157.51,70.52 -157.51,157.51 0,86.99 70.52,157.5 157.51,157.5 86.97,0 157.5,-70.51 157.5,-157.5zm-2905.06 132.65l0 18.02 83.42 0 0 -300.52 -83.42 0 0 174.08c0,28.02 -22.73,50.73 -50.74,50.73 -28.03,0 -50.73,-22.71 -50.73,-50.73l0 -174.08 -83.44 0 0 174.08c0,50.45 24.56,96.62 63.59,119.5 39.03,22.87 85.91,18.6 121.32,-11.08zm1951.87 -264.49l0 -115.86 -83.43 0 0 398.37 83.43 0 0 -18.02c63.31,43.06 147.39,30.89 197.02,-28.55 49.65,-59.45 49.65,-147.95 0,-207.38 -49.63,-59.45 -133.71,-71.64 -197.02,-28.56zm2737.53 -32.51l-69.25 0c-1.86,-0.16 -3.69,0.5 -5.02,1.83 -1.31,1.31 -1.98,3.15 -1.81,5.01l0 7.66 0 0 38.04 0 0 83.35 -38.04 0 0 217.17 -83.43 0 0 -217.17 -38.04 0 0 -83.35 38.04 0c0,-54.04 43.8,-97.85 97.83,-97.85l61.68 0 0 83.35zm1075.99 7.1l0 83.1c-19.67,0 -38.53,7.8 -52.44,21.72 -13.91,13.9 -21.71,32.76 -21.71,52.43l0 150.67 -83.44 0 0 -300.52 83.44 0 0 18.01c22.16,-15.08 47.72,-23.84 74.15,-25.41zm489.06 25.41l0 -18.01 -83.44 0 0 300.52 83.44 0 0 -174.09c0,-28.02 22.71,-50.73 50.74,-50.73 28.01,0 50.73,22.71 50.73,50.73l0 174.09 83.44 0 0 -174.09c0,-28.02 22.71,-50.73 50.73,-50.73 28.01,0 50.74,22.71 50.74,50.73l0 174.09 83.42 0 -0.02 -174.09c0,-52.92 -31.13,-100.91 -79.43,-122.48 -48.32,-21.57 -104.82,-12.75 -144.23,22.57 -40.89,-42.15 -101.76,-45.69 -146.12,-8.51zm1784.76 0l0 -18.01 83.44 0 0 300.52 -83.44 0 0 -18.02c-63.3,43.06 -147.38,30.89 -197.01,-28.55 -49.65,-59.45 -49.65,-147.95 0,-207.38 49.63,-59.45 133.71,-71.64 197.01,-28.56zm672.64 -25.41l0 83.1c-19.66,0 -38.53,7.8 -52.43,21.72 -13.92,13.9 -21.73,32.76 -21.73,52.43l0 150.67 -83.42 0 0 -300.52 83.42 0 0 18.01c22.16,-15.08 47.74,-23.84 74.16,-25.41z"/>
  <path fill="#000000" d="M1181.47 5837.39c0,-40.95 -33.2,-74.15 -74.17,-74.15 -40.95,0 -74.15,33.2 -74.15,74.15 0,40.95 33.2,74.15 74.15,74.15 40.97,0 74.17,-33.2 74.17,-74.15zm9656.09 -41.67l122.68 0c-13.81,-20.33 -36.77,-32.48 -61.34,-32.48 -24.57,0 -47.53,12.15 -61.34,32.48m-3112.86 0l122.67 0c-13.8,-20.33 -36.78,-32.48 -61.33,-32.48 -24.57,0 -47.53,12.15 -61.34,32.48m-2481.07 41.67c0,-40.95 -33.2,-74.15 -74.15,-74.15 -40.95,0 -74.15,33.2 -74.15,74.15 0,40.95 33.2,74.15 74.15,74.15 40.95,0 74.15,-33.2 74.15,-74.15zm7175.71 0c0,-40.95 -33.2,-74.15 -74.15,-74.15 -40.97,0 -74.17,33.2 -74.17,74.15 0,40.95 33.2,74.15 74.17,74.15 40.95,0 74.15,-33.2 74.15,-74.15zm-721.52 0c0,-40.95 -33.2,-74.15 -74.17,-74.15 -40.95,0 -74.15,33.2 -74.15,74.15 0,40.95 33.2,74.15 74.15,74.15 40.97,0 74.17,-33.2 74.17,-74.15zm-9789.95 0.81c0,-40.95 -33.2,-74.16 -74.15,-74.16 -40.95,0 -74.16,33.21 -74.16,74.16 0,40.96 33.21,74.15 74.16,74.15 40.95,0 74.15,-33.19 74.15,-74.15zm585.46 -42.48l122.67 0c-13.8,-20.33 -36.77,-32.48 -61.34,-32.48 -24.56,0 -47.53,12.15 -61.33,32.48m16300 0l122.68 0c-13.81,-20.33 -36.77,-32.48 -61.34,-32.48 -24.57,0 -47.53,12.15 -61.34,32.48m-1156.45 41.67c0,-40.95 -33.2,-74.15 -74.15,-74.15 -40.96,0 -74.16,33.2 -74.16,74.15 0,40.95 33.2,74.15 74.16,74.15 40.95,0 74.15,-33.2 74.15,-74.15z"/>
  <path fill="#FFC000" d="M118.4 148.81l19743.5 0 0 5259.14 -19743.5 0 0 -5259.14"/>
  <path fill="url(#id0)" d="M15635.5 5091.93l0 0m4173.41 -864.09l53.01 0 0 30.11 -22.9 0 0 120.43 -30.11 0 0 -150.54m-150.54 0l90.33 0 0 30.11 -90.33 0 0 -30.11m0 120.43l90.33 0 0 30.11 -90.33 0 0 -30.11m-210.77 -120.43l0 0 0 0 0 0 0 0m60.22 30.11l30.1 0 0 120.43 -30.1 0 0 -120.43m30.1 -30.11l30.11 0 0 30.11 -30.11 0 0 -30.11m30.11 30.11l30.13 0 0 120.43 -30.13 0 0 -120.43m-120.43 -30.11l60.22 0 0 30.11 -30.11 0 0 120.43 -30.11 0 0 -150.54m-60.22 -30.12l30.11 0 0 60.23 -30.11 0 0 -60.23m0 90.34l30.11 0 0 60.21 -30.11 0 0 -60.21m-240.88 -60.22l30.13 0 0 60.22 -30.13 0 0 -60.22m-215.57 0l30.11 0 0 30.11 -30.11 0 0 -30.11m-90.33 60.22l30.11 0 0 60.21 -30.11 0 0 -60.21m-115.88 60.21l115.88 0 0 30.11 -115.88 0 0 -30.11m-120.43 -90.32l30.11 0 0 30.11 -30.11 0 0 -30.11m-30.11 -90.34l90.32 0 0 30.11 -90.32 0 0 -30.11m0 180.66l90.32 0 0 30.11 -90.32 0 0 -30.11m-150.54 -180.66l60.22 0 0 30.11 -60.22 0 0 -30.11m-30.11 30.11l30.11 0 0 30.12 -30.11 0 0 -30.12m90.33 90.34l30.1 0 0 60.21 -30.1 0 0 -60.21m813.2 -388.16l120.43 0 0 30.11 -120.43 0 0 -30.11m-30.11 30.11l30.11 0 0 30.11 -30.11 0 0 -30.11m30.11 30.11l90.32 0 0 30.11 -90.32 0 0 -30.11m90.32 30.11l30.11 0 0 30.11 -30.11 0 0 -30.11m-120.43 30.11l120.43 0 0 30.1 -120.43 0 0 -30.1m180.65 -120.44l30.11 0 0 120.44 -30.11 0 0 -120.44m30.11 180.65l90.32 0 0 30.11 -90.32 0 0 -30.11m150.55 -60.21l120.44 0 0 30.1 -120.44 0 0 -30.1m120.44 -30.11l30.1 0 0 30.11 -30.1 0 0 -30.11m-90.33 -30.11l90.33 0 0 30.11 -90.33 0 0 -30.11m-30.11 -30.11l30.11 0 0 30.11 -30.11 0 0 -30.11m30.11 -30.11l120.43 0 0 30.11 -120.43 0 0 -30.11m-361.31 655.86l120.43 0 0 30.11 -120.43 0 0 -30.11m-30.11 30.11l30.11 0 0 30.11 -30.11 0 0 -30.11m30.11 30.11l90.32 0 0 30.11 -90.32 0 0 -30.11m90.32 30.11l30.11 0 0 30.12 -30.11 0 0 -30.12m-120.43 30.12l120.43 0 0 30.11 -120.43 0 0 -30.11m-723.74 0l120.43 0 0 30.11 -120.43 0 0 -30.11m120.43 -30.12l30.11 0 0 30.12 -30.11 0 0 -30.12m-90.32 -30.11l90.32 0 0 30.11 -90.32 0 0 -30.11m-30.11 -30.11l30.11 0 0 30.11 -30.11 0 0 -30.11m30.11 -30.11l120.43 0 0 30.11 -120.43 0 0 -30.11m-905.01 327.94l120.44 0 0 30.11 -120.44 0 0 -30.11m-30.1 30.11l30.1 0 0 30.11 -30.1 0 0 -30.11m30.1 30.11l90.33 0 0 30.1 -90.33 0 0 -30.1m90.33 30.1l30.11 0 0 30.11 -30.11 0 0 -30.11m-120.43 30.11l120.43 0 0 30.11 -120.43 0 0 -30.11m-2000.23 0l120.43 0 0 30.11 -120.43 0 0 -30.11m120.43 -30.11l30.11 0 0 30.11 -30.11 0 0 -30.11m-90.32 -30.1l90.32 0 0 30.1 -90.32 0 0 -30.1m-30.11 -30.11l30.11 0 0 30.11 -30.11 0 0 -30.11m30.11 -30.11l120.43 0 0 30.11 -120.43 0 0 -30.11m3237.55 0l60.22 0 0 30.11 -30.11 0 0 120.43 -30.11 0 0 -150.54m120.43 30.11l30.11 0 0 120.43 -30.11 0 0 -120.43m-30.11 -30.11l30.11 0 0 30.11 -30.11 0 0 -30.11m-30.1 30.11l30.1 0 0 120.43 -30.1 0 0 -120.43m-60.22 -30.11l0 0 0 0 0 0 0 0m-2901.42 0l0 0 0 0 0 0 0 0m60.22 30.11l30.11 0 0 120.43 -30.11 0 0 -120.43m30.11 -30.11l30.11 0 0 30.11 -30.11 0 0 -30.11m30.11 30.11l30.1 0 0 120.43 -30.1 0 0 -120.43m-120.44 -30.11l60.22 0 0 30.11 -30.11 0 0 120.43 -30.11 0 0 -150.54m3563.81 -863.36l0 -120.44 30.13 0 0 180.65 -30.13 0 0 -30.11 -90.32 0 0 -30.1 90.32 0m-2355.45 979.24l0 -120.44 30.11 0 0 180.66 -30.11 0 0 -30.11 -90.33 0 0 -30.11 90.33 0m-90.33 60.22l90.33 0 0 30.11 -90.33 0 0 -30.11m-30.1 -180.66l30.1 0 0 120.44 -30.1 0 0 -120.44m2536.11 -621.19l30.11 0 0 30.11 90.33 0 0 -30.11 30.1 0 0 60.21 -120.43 0 0 30.11 -30.11 0 0 -90.32m-541.97 327.92l30.11 0 0 30.11 90.34 0 0 -30.11 30.1 0 0 60.22 -120.44 0 0 30.12 -30.11 0 0 -90.34m30.11 90.34l90.34 0 0 30.11 -90.34 0 0 -30.11m0 -120.45l90.34 0 0 30.11 -90.34 0 0 -30.11m-723.75 0l90.33 0 0 30.11 -90.33 0 0 -30.11m0 120.45l90.33 0 0 30.11 -90.33 0 0 -30.11m-30.11 -90.34l30.11 0 0 30.11 90.33 0 0 -30.11 30.1 0 0 60.22 -120.43 0 0 30.12 -30.11 0 0 -90.34m1085.06 327.94l30.11 0 0 30.11 90.32 0 0 -30.11 30.13 0 0 60.21 -120.45 0 0 30.11 -30.11 0 0 -90.32m30.11 90.32l90.32 0 0 30.11 -90.32 0 0 -30.11m0 -120.43l90.32 0 0 30.11 -90.32 0 0 -30.11m361.31 0l22.9 0 0 30.11 -22.9 0 0 -30.11m0 120.43l22.9 0 0 30.11 -22.9 0 0 -30.11m-30.11 -90.32l30.11 0 0 30.11 22.9 0 0 0 0 0 0 30.1 -22.9 0 0 30.11 -30.11 0 0 -90.32m-4316.92 -30.11l90.32 0 0 30.11 -90.32 0 0 -30.11m0 120.43l90.32 0 0 30.11 -90.32 0 0 -30.11m-30.11 -90.32l30.11 0 0 30.11 90.32 0 0 -30.11 30.11 0 0 60.21 -120.43 0 0 30.11 -30.11 0 0 -90.32m386.85 60.21l60.22 0 0 55.67 -60.22 0 0 -55.67m3628.98 -418.26l90.32 0 0 30.11 -90.32 0 0 -30.11m-30.11 30.11l30.11 0 0 90.34 -30.11 0 0 -90.34m30.11 90.34l90.32 0 0 30.11 -90.32 0 0 -30.11m90.32 -30.12l30.13 0 0 30.12 -30.13 0 0 -30.12m90.34 -90.33l90.33 0 0 30.11 -90.33 0 0 -30.11m-30.11 90.33l30.11 0 0 30.12 -30.11 0 0 -30.12m-2418.24 0l30.1 0 0 30.12 -30.1 0 0 -30.12m-90.33 30.12l90.33 0 0 30.11 -90.33 0 0 -30.11m-30.12 -90.34l30.12 0 0 90.34 -30.12 0 0 -90.34m30.12 -30.11l90.33 0 0 30.11 -90.33 0 0 -30.11m1665.52 -60.21l30.11 0 0 30.1 -30.11 0 0 -30.1m180.65 120.43l30.1 0 0 30.11 -30.1 0 0 -30.11m-904.41 -60.22l60.23 0 0 30.11 -60.23 0 0 -30.11m60.23 30.11l30.11 0 0 120.45 -30.11 0 0 -120.45m-821.34 -30.11l85.78 0 0 30.11 -85.78 0 0 -30.11m-30.11 30.11l30.11 0 0 90.34 -30.11 0 0 -90.34m30.11 90.34l85.78 0 0 30.11 -85.78 0 0 -30.11m85.78 -90.34l30.1 0 0 90.34 -30.1 0 0 -90.34m1451.89 327.94l30.11 0 0 90.32 -30.11 0 0 -90.32m-85.76 90.32l85.76 0 0 30.11 -85.76 0 0 -30.11m-30.11 -90.32l30.11 0 0 90.32 -30.11 0 0 -90.32m30.11 -30.11l85.76 0 0 30.11 -85.76 0 0 -30.11m-751.02 -327.94l30.11 0 0 30.11 30.11 0 0 30.11 -30.11 0 0 90.34 -30.11 0 0 -150.56m1807.68 0l30.11 0 0 30.11 22.9 0 0 30.11 -22.9 0 0 90.34 -30.11 0 0 -150.56m-1476.47 150.56l-30.11 0 0 -30.11 -30.11 0 0 -30.12 30.11 0 0 -90.33 30.11 0 0 150.56m-120.44 -30.11l-30.1 0 0 -120.45 30.1 0 0 120.45m60.22 30.11l-60.22 0 0 -30.11 60.22 0 0 30.11m-812.95 -150.56l30.11 0 0 30.11 30.11 0 0 30.11 -30.11 0 0 90.34 -30.11 0 0 -150.56m120.43 30.11l30.11 0 0 120.45 -30.11 0 0 -120.45m-60.21 -30.11l60.21 0 0 30.11 -60.21 0 0 -30.11m901.56 327.94l60.21 0 0 30.11 -60.21 0 0 -30.11m60.21 30.11l30.11 0 0 120.43 -30.11 0 0 -120.43m-120.43 -30.11l30.11 0 0 30.11 30.11 0 0 30.11 -30.11 0 0 90.32 -30.11 0 0 -150.54m996.45 150.54l-60.22 0 0 -30.11 60.22 0 0 30.11m-60.22 -30.11l-30.11 0 0 -120.43 30.11 0 0 120.43m120.43 30.11l-30.11 0 0 -30.11 -30.1 0 0 -30.11 30.1 0 0 -90.32 30.11 0 0 150.54m361.31 0l-30.1 0 0 -30.11 -30.11 0 0 -30.11 30.11 0 0 -90.32 30.1 0 0 150.54m-120.43 -30.11l-30.11 0 0 -120.43 30.11 0 0 120.43m60.22 30.11l-60.22 0 0 -30.11 60.22 0 0 30.11m30.11 -448.37l30.1 0 0 120.45 -120.43 0 0 -30.11 90.33 0 0 -30.12 -90.33 0 0 -30.11 90.33 0 0 -30.11m-1448.09 327.94l30.11 0 0 120.43 -120.45 0 0 -30.11 90.34 0 0 -30.11 -90.34 0 0 -30.1 90.34 0 0 -30.11m-120.44 60.21l30.1 0 0 30.11 -30.1 0 0 -30.11m30.1 -90.32l90.34 0 0 30.11 -90.34 0 0 -30.11m-1268.68 0l90.34 0 0 30.11 -90.34 0 0 -30.11m-30.11 90.32l30.11 0 0 30.11 -30.11 0 0 -30.11m120.45 -60.21l30.11 0 0 120.43 -120.45 0 0 -30.11 90.34 0 0 -30.11 -90.34 0 0 -30.1 90.34 0 0 -30.11m2355.45 -746.2l-120.43 0 0 210.77 120.43 0 0 -30.11 -90.32 0 0 -60.21 90.32 0 0 -30.11 -90.32 0 0 -60.23 90.32 0 0 -30.11m-301.09 0l0 210.77 30.11 0 0 -150.54 30.1 0 0 -30.12 -30.1 0 0 -30.11 -30.11 0m150.55 0l0 210.77 -30.1 0 0 -150.54 -30.11 0 0 -30.12 30.11 0 0 -30.11 30.1 0m-245.7 0l30.13 0 0 120.45 30.11 0 0 30.1 -30.11 0 0 60.22 -30.13 0 0 -60.22 -90.32 0 0 -60.21 30.11 0 0 30.11 60.21 0 0 -60.22 -30.1 0 0 -30.12 30.1 0 0 -30.11m-266.42 0l0 30.11 85.78 0 0 30.12 30.1 0 0 -30.12 30.11 0 0 -30.11 -145.99 0m85.78 60.23l-30.11 0 0 30.11 -30.11 0 0 30.11 90.32 0 0 -30.11 -30.1 0 0 -30.11m-266.43 -30.12l0 150.55 30.11 0 0 -30.11 30.11 0 0 -30.1 -30.11 0 0 -90.34 -30.11 0m120.43 0l0 30.12 -30.1 0 0 30.11 30.1 0 0 90.32 30.11 0 0 -150.55 -30.11 0m-301.09 30.12l0 120.43 30.12 0 0 -60.21 90.33 0 0 -30.11 -90.33 0 0 -30.11 -30.12 0m30.12 120.43l90.33 0 0 30.11 -90.33 0 0 -30.11m-1937.67 535.43l-30.11 0 0 30.11 -30.11 0 0 30.11 90.33 0 0 -30.11 -30.11 0 0 -30.11m-85.78 -60.22l0 30.11 85.78 0 0 30.11 30.11 0 0 -30.11 30.11 0 0 -30.11 -146 0m0 180.65l115.89 0 0 30.11 -115.89 0 0 -30.11m115.89 -60.21l30.11 0 0 60.21 -30.11 0 0 -60.21m2419.67 -388.16l0 30.11 90.32 0 0 30.11 30.11 0 0 -30.11 30.11 0 0 -30.11 -150.54 0m30.11 90.33l30.11 0 0 30.12 90.32 0 0 30.11 -150.54 0 0 -30.11 30.11 0 0 -30.12m-180.65 -90.33l60.22 0 0 120.45 30.1 0 0 30.11 -90.32 0 0 -30.11 30.11 0 0 -90.34 -30.11 0 0 -30.11m-904.41 0l60.22 0 0 120.45 30.11 0 0 30.11 -90.33 0 0 -30.11 30.11 0 0 -90.34 -30.11 0 0 -30.11m30.11 -60.21l30.11 0 0 30.1 -30.11 0 0 -30.1m-363.03 327.93l30.11 0 0 30.11 -30.11 0 0 -30.11m-30.1 60.22l60.21 0 0 120.43 30.11 0 0 30.11 -90.32 0 0 -30.11 30.1 0 0 -90.32 -30.1 0 0 -30.11m272.7 -237.61l30.11 0 0 30.12 -30.11 0 0 -30.12m-30.11 30.12l30.11 0 0 30.11 -30.11 0 0 -30.11m-30.11 -180.66l30.11 0 0 60.21 30.11 0 0 30.11 -30.11 0 0 90.34 -30.11 0 0 -90.34 -30.12 0 0 -30.11 30.12 0 0 -60.21m178.94 327.93l30.1 0 0 60.22 30.11 0 0 30.11 -30.11 0 0 90.32 -30.1 0 0 -90.32 -30.13 0 0 -30.11 30.13 0 0 -60.22m30.1 180.65l30.11 0 0 30.11 -30.11 0 0 -30.11m30.11 -30.11l30.11 0 0 30.11 -30.11 0 0 -30.11m60.22 -90.32l30.11 0 0 30.11 30.1 0 0 30.11 -30.1 0 0 90.32 -30.11 0 0 -150.54m120.43 30.11l30.11 0 0 34.67 -30.11 0 0 -34.67m-60.22 -30.11l60.22 0 0 30.11 -60.22 0 0 -30.11m-756.83 -60.22l55.67 0 0 180.65 30.11 0 0 25.56 -85.78 0 0 -25.56 30.11 0 0 -150.54 -30.11 0 0 -30.11m-537.41 0l55.67 0 0 180.65 30.11 0 0 25.56 -85.78 0 0 -25.56 30.11 0 0 -150.54 -30.11 0 0 -30.11m1806.1 60.22l60.21 0 0 30.11 -60.21 0 0 -30.11m-30.11 30.11l30.11 0 0 90.32 -30.11 0 0 -90.32m90.32 0l30.11 0 0 -90.33 30.11 0 0 206.21 -120.43 0 0 -25.56 90.32 0 0 -60.21 -30.11 0 0 -30.11m454.49 0l30.11 0 0 90.32 -30.11 0 0 -90.32m30.11 -30.11l60.23 0 0 30.11 -60.23 0 0 -30.11m60.23 30.11l30.11 0 0 -30.11 30.1 0 0 206.21 -30.1 0 0 -60.22 -90.34 0 0 -25.56 90.34 0 0 -60.21 -30.11 0 0 -30.11m-2506.01 -30.11l-60.22 0 0 30.11 60.22 0 0 -30.11m-60.22 30.11l-30.11 0 0 -30.11 -30.12 0 0 206.21 30.12 0 0 -60.22 90.33 0 0 -25.56 -90.33 0 0 -60.21 30.11 0 0 -30.11m90.33 0l-30.11 0 0 90.32 30.11 0 0 -90.32m-365.3 0l-30.13 0 0 90.32 30.13 0 0 -90.32m-90.34 0l-30.11 0 0 -30.11 -30.11 0 0 206.21 30.11 0 0 -60.22 90.32 0 0 -25.56 -90.32 0 0 -60.21 30.11 0 0 -30.11m60.21 -30.11l-60.21 0 0 30.11 60.21 0 0 -30.11m-669.8 208.23l0 0"/>
  <path fill="#000000" d="M5234.42 1660.15c-271.89,-1183.04 -975.89,-1234.52 -1141.42,-1234.52l0 -69.17c367.1,0 960.4,261.95 1176.01,1161.06 276.21,-897.2 747.9,-1138.02 1078.96,-1142.58 315.47,-4.36 510.05,69.18 809.05,224.96l0 -140.4 863.25 0 0 -118.35 69.17 0 0 118.35 146.39 0 0 69.17 -146.39 0 0 1691.56 620.82 -1569.23 594.79 0 51.82 -122.33 -741.15 0 0 -69.17 770.48 0 81.45 -192.23 63.69 27 -70.02 165.23 163.95 0 0 69.17 -193.27 0 -483.81 1141.78 640.76 0 0 855.77c599.66,-295.14 1317.11,-78.6 1678.72,499.17 358.69,-552.88 1059.42,-773.2 1669.96,-525.06l-24.3 -39.29 1031.92 0 206.15 333.27 201.33 -325.52c2.98,-4.82 8.25,-7.75 13.91,-7.75l0 0c5.92,0 11.38,3.21 14.26,8.39 2.9,5.18 2.76,11.5 -0.36,16.55l-209.93 339.4 26.89 43.48 247.46 -400.07c2.98,-4.82 8.24,-7.75 13.9,-7.75l0 0c5.93,0 11.39,3.21 14.27,8.39 2.89,5.18 2.74,11.5 -0.38,16.55l-256.03 413.94 26.9 43.49 298.36 -482.37 1031.91 0 -814.33 1316.54 26.91 43.48 859.24 -1389.16 -1071.99 0c-5.92,0 -11.38,-3.21 -14.27,-8.38 -2.88,-5.19 -2.73,-11.51 0.39,-16.56l0 0c2.98,-4.8 8.23,-7.73 13.88,-7.73l1130.62 0 -852.55 1378.35 797.54 1289.43c3.12,5.03 3.27,11.37 0.39,16.54 -2.89,5.17 -8.35,8.39 -14.27,8.39 -5.67,0 -10.93,-2.93 -13.9,-7.75l-788.98 -1275.56 -26.9 43.5 766.87 1239.81 -1031.9 0 -197.11 -318.68 -192.33 310.93c-2.98,4.82 -8.23,7.75 -13.9,7.75l0 0c-2.67,0 -5.31,-0.65 -7.67,-1.92 -2.37,1.27 -5.01,1.92 -7.69,1.92 -5.92,0 -11.38,-3.22 -14.28,-8.39 -2.88,-5.17 -2.74,-11.51 0.38,-16.54l208.58 -337.23 -26.89 -43.48 -246.12 397.89c-2.97,4.82 -8.23,7.75 -13.9,7.75 -5.92,0 -11.38,-3.22 -14.27,-8.39 -2.88,-5.17 -2.73,-11.51 0.37,-16.54l254.7 -411.78 -26.89 -43.48 -297.02 480.19 -1031.92 0 30.2 -48.83c-611.03,252.4 -1315.19,33.86 -1675.96,-520.16 -361.12,579.18 -1079.51,791.1 -1679.97,495.58l0 73.41 -876.79 0 0 -6.58 -144.74 0 63.21 178.44 -65.2 23.09 -71.39 -201.53 -277.95 0 0 -69.17 253.45 0 -516.42 -1457.72 -30.52 74.35 0 1459.12 -571.89 0 0 -4440.94 571.89 0 0 1990.95 97.67 -246.87 0 -1866.41 -794.08 0 0 202.17c-344.48,-231.64 -575.32,-286.72 -878.22,-286.72 -239.83,0 -766.14,174.81 -1044.38,1216.03l-69.17 0zm1238.75 3525.13l-1090.37 0.06 0 -69.18 744.62 0c-567.44,-251.97 -814.69,-1163.74 -814.69,-2244.69 0,-1274.43 343.54,-2313.86 1150.54,-2313.86 370.86,0 581.57,190.51 762.92,364.11l0 113.24c0.06,0.11 0.13,0.21 0.19,0.31l-0.05 959.67 -61.61 0c-133.69,-243.61 -379.5,-585.74 -633.38,-585.74 -423.12,0 -632.42,655.3 -627.1,1462.27 -5.32,806.98 203.98,1462.28 627.1,1462.28 253.88,0 499.69,-342.13 633.38,-585.75l61.61 0 0.05 959.68c-0.06,0.1 -0.13,0.19 -0.19,0.3l0 113.25c-179.72,172.04 -388.33,360.68 -753.02,364.05zm-2388.54 -4627.67c800.07,0 1140.66,1091.14 1140.66,2313.86 0,1222.73 -340.59,2313.87 -1140.66,2313.87 -800.07,0 -1140.65,-1039.43 -1140.65,-2313.87 0,-1274.43 340.58,-2313.86 1140.65,-2313.86zm-1991.85 93.39l-1041.74 0 0 2579c6.74,18.03 13.42,36.06 20.05,54.13 46.78,-12.8 95.31,-17.99 143.72,-15.41 94.74,5.08 180.1,58.83 225.6,142.07 41.13,75.24 60.7,160.36 56.57,245.99 -1.73,35.79 -11.15,70.79 -27.63,102.61 -40.47,78.17 -102.93,142.77 -179.67,185.85 25.96,88.13 50.77,176.58 74.44,265.35 45.27,169.84 66.54,345.17 63.14,520.92 -0.88,45.32 -10.71,90.04 -28.94,131.55 -18.69,42.53 -51.42,77.36 -92.74,98.65 -29.98,15.44 -64.95,17.98 -96.84,7.06 -31.9,-10.92 -57.97,-34.37 -72.2,-64.94 -16.55,-35.6 -24.66,-74.53 -23.67,-113.79 0.55,-22.08 11.22,-42.69 28.94,-55.9 22.34,-16.66 49.78,-25.02 77.61,-23.69 18.27,0.9 34.64,11.56 42.83,27.93 8.18,16.35 6.88,35.86 -3.37,51.01 -12.63,18.66 -31.16,32.56 -52.62,39.46l7.35 16.01c3.46,9.08 11.14,15.91 20.59,18.24 9.44,2.34 19.43,-0.09 26.73,-6.51 35.94,-30.62 58.33,-74.2 62.27,-121.25 5.2,-81.09 3.49,-162.46 -5.13,-243.25 -25.27,-172.56 -62.87,-343.11 -112.53,-510.3 -12.75,4.05 -25.68,7.52 -38.74,10.44 -38.23,8.5 -76.87,15.12 -115.76,19.84l0 1079.87 697.19 0 0 144.42 69.17 0 0 -144.42 148.54 0 0 -69.17 -148.54 0 0 -1557.18 66.8 0 608.45 1626.35 668.19 0 60.39 154.11 64.4 -25.24 -60.04 -153.21 208.48 0 0 -69.17 -235.58 0 -719.55 -1836.41c264.86,-273.17 416.81,-684.35 416.81,-1206.54 0,-699.88 -189.47,-1304.48 -802.97,-1304.48zm-917.66 3233.37c-39.71,16.35 -81.45,27.32 -124.08,32.59l0 -393.54c42.92,119.28 84.14,239.17 123.65,359.62 0.15,0.45 0.29,0.88 0.43,1.33 0,0 0,0 0,0 0,0 0,0 0,0 0,0 0,0 0,0m-65.29 -493.05c13.58,-3.73 27.34,-6.89 41.19,-9.47 43.45,-8.08 88.31,2.42 123.65,28.94 32.18,24.15 55.33,58.38 65.82,97.23 23.35,86.59 18.26,178.4 -14.52,261.89 -6.87,17.52 -18.21,32.94 -32.88,44.73 -11.26,9.05 -22.92,17.58 -34.94,25.58 -46.11,-150.72 -95.57,-300.4 -148.32,-448.9m-58.79 525.64c-10.92,1.34 -21.89,2.32 -32.88,2.91 -119.79,6.51 -231.2,-61.49 -280.19,-171 -86.95,-194.38 -99.58,-413.88 -35.52,-616.95 22.5,-71.28 45.73,-142.32 69.72,-213.11 6.63,-19.58 13.34,-39.15 20.12,-58.71 64.3,152.74 125.78,306.66 184.38,461.68 -83.5,44.73 -150.88,114.51 -192.66,199.51 -6.9,14.05 -4.2,30.93 6.76,42.11 10.95,11.18 27.77,14.23 41.96,7.62 12.33,-8.89 23.76,-18.93 34.16,-30 42.21,-46.84 92.8,-85.4 149.16,-113.72 11.79,32 23.44,64.03 34.99,96.12l0 -293.42c-55.46,-148.43 -114.22,-295.6 -176.26,-441.4 -10.28,-24.15 -20.77,-48.21 -31.47,-72.15 12.91,-35.44 26.03,-70.82 39.35,-106.1 19.03,-50.37 33.55,-102.3 43.42,-155.23 11.14,-59.85 6.15,-121.6 -14.48,-178.89 -47,-130.55 -137.6,-240.9 -256.51,-312.42 -52.31,-31.47 -112.63,-47 -173.63,-44.73 -51.11,1.91 -92.39,42.35 -95.37,93.4 -2.71,46.33 8.04,92.47 30.91,132.86 21.18,37.38 44,73.81 68.4,109.17 75.28,109.11 140.33,224.93 194.34,345.97 10.61,23.82 21.17,47.67 31.66,71.53 -16.48,45.32 -32.62,90.75 -48.42,136.32 -73.28,211.39 -120.56,430.94 -140.75,653.77 -9.53,105.17 -0.18,211.19 27.63,313.08 38.14,139.76 162.4,238.75 307.16,244.67 64.78,2.65 129.66,0.05 194.02,-7.78l0 -95.11m947.33 -3450.88l-1077 0 0 -167.8 -69.17 0 0 167.8 -161.09 0 0 69.17 161.09 0 0 770.49 69.17 0 0 -770.49 1077 0 0 -69.17"/>
  <path fill="#B4C3D3" d="M15392.1 2562.35l-793.67 0 -354.81 573.64 -354.82 -573.64 -793.68 0 148.84 240.63c-302.94,-257.17 -708.63,-358.06 -1096.72,-272.82 -388.1,85.25 -714.13,346.92 -881.38,707.38 -149.88,-335.33 -432,-586.34 -773.16,-687.93 -341.2,-101.6 -707.91,-43.84 -1005.06,158.37l0 -952.03 -674.17 0 0 3218.89 674.17 0 0 -129.83c297.68,202.55 665.11,260.16 1006.76,157.86 341.64,-102.31 623.76,-354.43 772.95,-690.79 169.14,361.84 498.32,623.32 889.07,706.15 390.75,82.81 797.7,-22.62 1099.09,-284.73l-159.05 257.13 793.68 0 353.48 -571.48 353.47 571.48 793.67 0 -750.3 -1213.05 751.64 -1215.23z"/>
  <path fill="#000000" d="M10686 3773.21c0,-330.93 -268.26,-599.2 -599.18,-599.2 -330.91,0 -599.18,268.27 -599.18,599.2 0,330.92 268.27,599.18 599.18,599.18 330.92,0 599.18,-268.26 599.18,-599.18zm2970.22 -303.69c50.26,204.49 48.97,418.26 -3.71,622.13l194.26 -314.07 -190.55 -308.06m-636.72 303.69c0,-330.93 -268.26,-599.2 -599.18,-599.2 -330.93,0 -599.2,268.27 -599.2,599.2 0,330.92 268.27,599.18 599.2,599.18 330.92,0 599.18,-268.26 599.18,-599.18z"/>
  <path fill="#FFC000" d="M1622.93 5022.77l125.3 0 0 -1557.18 -125.3 0 0 1557.18m258.74 -2538.71c211.32,0 244.43,-267.93 244.23,-451.8 -0.21,-183.87 -26.91,-383.4 -211.32,-383.4l-291.65 0 0 1016.08 125.3 0 0 -180.88 133.44 0zm0 69.16l-64.27 0 0 111.72 4.44 0c470.96,0 470.96,-421.72 470.96,-568.25l0 -94.59c0,-142.05 -0.96,-534.11 -397.53,-534.11l-272.34 0 0 111.7 258.74 0c134.59,0 315.12,19.14 315.12,470.44 0,451.3 -181.46,499.33 -315.12,503.09zm-1121.52 -12.33c-54.21,-108.19 -112.86,-214.12 -175.81,-317.46 -20.02,-32.86 -38.12,-66.83 -54.21,-101.78 -10.51,-22.78 -16.74,-47.3 -18.42,-72.33 -0.35,-5.4 1.58,-10.7 5.35,-14.58 3.74,-3.89 8.98,-6 14.38,-5.81 26.01,0.88 51.34,8.34 73.67,21.7 95.97,57.41 164.37,151.47 189.42,260.45 7.3,31.79 7.53,64.8 0.66,96.68 -9.68,44.89 -21.37,89.3 -35.04,133.13l0 0m11643.8 1729.92l32.68 0c271.64,-8.92 485.93,-234.03 481.47,-505.78 -4.46,-271.75 -226.02,-489.71 -497.81,-489.71 -271.79,0 -493.35,217.96 -497.81,489.71 -4.47,271.75 209.83,496.86 481.47,505.78zm-2333.49 0l32.67 0c271.64,-8.92 485.94,-234.03 481.47,-505.78 -4.45,-271.75 -226.02,-489.71 -497.81,-489.71 -271.79,0 -493.35,217.96 -497.8,489.71 -4.47,271.75 209.82,496.86 481.47,505.78zm-1560.88 -1565.38l202.54 523.91 0 -1001.92 -202.54 478.01m33.3 2310.76l-550.4 -1553.69 64.52 -157.18 636.03 1710.87 -150.15 0m-4458.31 -3621.98c385.27,0 549.17,696.57 549.17,1477.26 0,780.7 -163.9,1477.27 -549.17,1477.27 -385.25,0 -549.15,-663.63 -549.15,-1477.27 0,-813.63 163.9,-1477.26 549.15,-1477.26z"/>
  <path fill="#000000" d="M12404 4270.81c10.89,0.78 21.77,0.74 32.68,0l0 -45.77c246.42,-8.92 440.23,-213.64 435.71,-460.16 -4.53,-246.53 -205.79,-443.98 -452.37,-443.8 -5.91,-0.12 -10.79,2.99 -13.77,8.07 -2.98,5.11 -3,11.43 -0.02,16.52 2.98,5.1 7.9,8.19 13.81,8.09 151.83,-0.11 291.88,81.84 366.14,214.28 74.28,132.43 71.16,294.69 -8.1,424.16 -79.26,129.49 -222.37,206.05 -374.08,200.14l0 78.47zm-2317.16 -123.91c-9.03,0 -16.33,-7.32 -16.33,-16.33 0,-9.04 7.3,-16.36 16.33,-16.36 188.34,0 341.02,-152.67 341.02,-341 0,-188.35 -152.68,-341.02 -341.02,-341.02 -9.03,0 -16.33,-7.32 -16.33,-16.34 0,-9.03 7.3,-16.35 16.33,-16.35 206.39,0 373.69,167.31 373.69,373.71 0,206.38 -167.3,373.69 -373.69,373.69zm2333.5 0c-9.03,0 -16.34,-7.32 -16.34,-16.33 0,-9.04 7.31,-16.36 16.34,-16.36 188.33,0 341.02,-152.67 341.02,-341 0,-188.35 -152.69,-341.02 -341.02,-341.02 -9.03,0 -16.34,-7.32 -16.34,-16.34 0,-9.03 7.31,-16.35 16.34,-16.35 206.38,0 373.69,167.31 373.69,373.71 0,206.38 -167.31,373.69 -373.69,373.69zm-2349.83 123.91c10.87,0.53 21.76,0.4 32.67,0l0 -45.77c246.42,-8.92 440.23,-213.64 435.71,-460.16 -4.53,-246.53 -205.79,-443.98 -452.37,-443.8 -5.91,-0.12 -10.79,2.99 -13.77,8.07 -2.98,5.11 -3,11.43 -0.02,16.52 2.98,5.1 7.9,8.19 13.81,8.09 151.84,-0.11 291.89,81.84 366.15,214.28 74.27,132.43 71.15,294.69 -8.11,424.16 -79.25,129.49 -222.36,206.05 -374.07,200.14l0 78.47zm-5985.87 -129.96l0 -170.85 -69.19 0 0 181.95 0 69.16c373.94,0 483.69,-635 486.28,-1315.06l1573.75 0c3.73,478.75 108.74,1211.48 421.29,1262.02l0 180.67 69.17 0 0 -1442.69 275.37 0 0 -69.17 -275.37 0 0 -249.56 -69.17 0 0 249.56 -351.88 0c7.5,-474.51 140.07,-1168.24 386.46,-1179.5l0 -69.18c-323.18,12.52 -448.81,752.97 -455.66,1248.68l-1574.07 0c-4.49,-676.87 -113.77,-1306.67 -486.17,-1306.67l0 66.38 0 1240.29 -211.38 0 0 69.17 211.38 0 0 241.58 69.19 0 0 -241.58 347.81 0c-3.46,435.3 -58.31,1138.71 -347.81,1234.8z"/>
  <path fill="#FFC000" d="M6144.67 2906.05c4.47,453.22 119.23,1129.87 352.09,1191.33l0 -1191.33 -352.09 0zm-1712.12 -69.17l-347.92 0 0 -1229.11c288.03,95.72 345.86,793.04 347.92,1229.11z"/>
 </g>
</svg>
