<?xml version="1.0" encoding="UTF-8" standalone="no"?>
<!-- Creator: CorelDRAW -->
<svg
   xmlns:dc="http://purl.org/dc/elements/1.1/"
   xmlns:cc="http://web.resource.org/cc/"
   xmlns:rdf="http://www.w3.org/1999/02/22-rdf-syntax-ns#"
   xmlns:svg="http://www.w3.org/2000/svg"
   xmlns="http://www.w3.org/2000/svg"
   xmlns:sodipodi="http://inkscape.sourceforge.net/DTD/sodipodi-0.dtd"
   xmlns:inkscape="http://www.inkscape.org/namespaces/inkscape"
   xml:space="preserve"
   width="102mm"
   height="150mm"
   shape-rendering="geometricPrecision"
   text-rendering="geometricPrecision"
   image-rendering="optimizeQuality"
   fill-rule="evenodd"
   viewBox="0 0 10200 15000"
   id="svg1852"
   sodipodi:version="0.32"
   inkscape:version="0.43"
   sodipodi:docname="ondiosp-front.svg"
   sodipodi:docbase="/home/martin/src/dev/pics/pixelma/three"><metadata
   id="metadata2004"><rdf:RDF><cc:Work
       rdf:about=""><dc:format>image/svg+xml</dc:format><dc:type
         rdf:resource="http://purl.org/dc/dcmitype/StillImage" /></cc:Work></rdf:RDF></metadata><defs
   id="defs2002" /><sodipodi:namedview
   inkscape:window-height="572"
   inkscape:window-width="746"
   inkscape:pageshadow="2"
   inkscape:pageopacity="0.0"
   borderopacity="1.0"
   bordercolor="#666666"
   pagecolor="#ffffff"
   id="base"
   inkscape:zoom="0.75823708"
   inkscape:cx="180.70866"
   inkscape:cy="265.74802"
   inkscape:window-x="398"
   inkscape:window-y="43"
   inkscape:current-layer="layer1" />
 <g
   id="Ebene_x0020_1">
  <defs
   id="defs1855">
   <linearGradient
   id="id0"
   gradientUnits="userSpaceOnUse"
   x1="2273.91"
   y1="485.54"
   x2="1432.33"
   y2="485.54">
    <stop
   offset="0"
   stop-color="#363636"
   id="stop1858" />
    <stop
   offset="0.501961"
   stop-color="#757575"
   id="stop1860" />
    <stop
   offset="1"
   stop-color="#121212"
   id="stop1862" />
   </linearGradient>
   <linearGradient
   id="id2"
   gradientUnits="userSpaceOnUse"
   x1="9293.86"
   y1="4349.64"
   x2="906.14"
   y2="4349.64">
    <stop
   offset="0"
   stop-color="#6F70AB"
   id="stop1865" />
    <stop
   offset="0.501961"
   stop-color="#8082C9"
   id="stop1867" />
    <stop
   offset="1"
   stop-color="#6769A3"
   id="stop1869" />
   </linearGradient>
   <linearGradient
   id="id3"
   gradientUnits="userSpaceOnUse"
   x1="9009.84"
   y1="11050"
   x2="1152.06"
   y2="11050">
    <stop
   offset="0"
   stop-color="#878787"
   id="stop1872" />
    <stop
   offset="0.501961"
   stop-color="#E8E8E8"
   id="stop1874" />
    <stop
   offset="1"
   stop-color="#B3B3B3"
   id="stop1876" />
   </linearGradient>
   <radialGradient
   id="id4"
   gradientUnits="userSpaceOnUse"
   cx="5100"
   cy="9141.87"
   r="2504.14"
   fx="5100"
   fy="9141.87">
    <stop
   offset="0"
   stop-color="#919191"
   id="stop1879" />
    <stop
   offset="0.639216"
   stop-color="#E8E8E8"
   id="stop1881" />
    <stop
   offset="1"
   stop-color="#858585"
   id="stop1883" />
   </radialGradient>
   <linearGradient
   id="id5"
   gradientUnits="userSpaceOnUse"
   x1="5100"
   y1="6755.18"
   x2="5100"
   y2="6160.38">
    <stop
   offset="0"
   stop-color="#9799CF"
   id="stop1886" />
    <stop
   offset="1"
   stop-color="#8082C9"
   id="stop1888" />
   </linearGradient>
   <linearGradient
   id="id6"
   gradientUnits="userSpaceOnUse"
   x1="5100"
   y1="1549.22"
   x2="5100"
   y2="2144.02">
    <stop
   offset="0"
   stop-color="#9799CF"
   id="stop1891" />
    <stop
   offset="1"
   stop-color="#8082C9"
   id="stop1893" />
   </linearGradient>
   <linearGradient
   id="id7"
   gradientUnits="userSpaceOnUse"
   x1="8258.83"
   y1="4152.11"
   x2="7882.29"
   y2="4152.11">
    <stop
   offset="0"
   stop-color="#9799CF"
   id="stop1896" />
    <stop
   offset="1"
   stop-color="#8082C9"
   id="stop1898" />
   </linearGradient>
   <linearGradient
   id="id8"
   gradientUnits="userSpaceOnUse"
   x1="1941.17"
   y1="4152.09"
   x2="2317.71"
   y2="4152.09">
    <stop
   offset="0"
   stop-color="#9799CF"
   id="stop1901" />
    <stop
   offset="1"
   stop-color="#8082C9"
   id="stop1903" />
   </linearGradient>
  </defs>
  <path
   fill="#000000"
   d="M7990.25 7568.59c15.25,-91.59 73.56,-170.28 156.75,-211.53 83.18,-41.25 181.11,-40.04 263.25,3.26 74.14,55.87 -73.56,170.27 -156.74,211.52 -83.19,41.25 -181.12,40.04 -263.26,-3.25z"
   id="path1905" />
  <path
   fill="#787878"
   d="M2799.28 7945.7l-41.21 82.89c-374.37,786.7 -329.35,1711.56 124.84,2459.87 470.24,774.75 1310.79,1247.84 2217.09,1247.84l0 -968.83c616.75,0 1180.32,-349.22 1454.85,-901.5 300.7,121.9 584.88,281.12 845.87,473.9 390.39,-750.31 390.39,-1643.86 0,-2394.17 -260.99,192.78 -545.17,352 -845.87,473.91 -274.53,-552.29 -838.1,-901.5 -1454.85,-901.5 -616.75,0 -1180.32,349.21 -1454.85,901.5 -300.7,-121.91 -584.88,-281.13 -845.87,-473.91z"
   id="path1907" />
  <path
   fill="#707070"
   stroke="#000000"
   stroke-width="7.62"
   stroke-linejoin="bevel"
   d="M8909.42 14387.8l201.21 0c49.36,0 89.37,-40.01 89.37,-89.37l0 -4375.79c0,-49.36 -40.01,-89.37 -89.37,-89.37l-133.6 0c-0.34,9.14 -0.67,18.26 -1,27.39 -2.54,69.42 -31.93,135.14 -81.97,183.32 -550.78,530.35 -867.05,1258.63 -878.62,2023.16 -11.56,764.52 282.55,1502.03 817.04,2048.78 48.56,49.68 75.94,116.26 76.38,185.73 0.18,28.71 0.35,57.44 0.56,86.15z"
   id="path1909" />
  <path
   fill="url(#id0)"
   stroke="#000000"
   stroke-width="18"
   stroke-linejoin="bevel"
   d="M2273.89 407.69l-0.1 0.04c-281.57,45.14 -562.11,97.03 -841.43,155.65l-0.03 0 0 -66.32c0,-49.35 40.01,-89.37 89.37,-89.37l752.19 0z"
   id="path1911" />
  <g
   id="g1913">
   <defs
   id="defs1915">
    <linearGradient
   id="id1"
   gradientUnits="userSpaceOnUse"
   x1="6174.79"
   y1="109.92"
   x2="4025.21"
   y2="109.92">
     <stop
   offset="0"
   stop-color="#878787"
   id="stop1918" />
     <stop
   offset="0.501961"
   stop-color="#C7C7C7"
   id="stop1920" />
     <stop
   offset="1"
   stop-color="#B3B3B3"
   id="stop1922" />
    </linearGradient>
   </defs>
   <path
   fill="url(#id1)"
   stroke="#000000"
   stroke-width="18"
   stroke-linejoin="bevel"
   d="M6174.79 215.01l0 -124.33c0,-19.27 -12.21,-35.8 -29.51,-42.03l-0.01 0c-3.92,-1.41 -8.12,-2.32 -12.48,-2.58 -647.84,-39.02 -1297.34,-41.26 -1945.37,-6.79 -40.07,2.14 -80.15,4.38 -120.21,6.79 -4.36,0.26 -8.51,1.17 -12.43,2.58 -17.3,6.23 -29.57,22.76 -29.57,42.03l0 124.34c357.63,-21.57 716.04,-32.42 1074.79,-32.42 358.74,0 717.16,10.84 1074.79,32.41z"
   id="path1924" />
   <path
   fill="none"
   stroke="#FFFFFF"
   stroke-width="15"
   stroke-linejoin="bevel"
   d="M4054.78 48.65c696.84,0 1393.66,0 2090.5,0 0,0 -0.01,0 -0.01,0 -3.92,-1.41 -8.12,-2.32 -12.48,-2.58"
   id="path1926" />
  </g>
  <path
   fill="#626487"
   stroke="#000000"
   stroke-width="18"
   stroke-linejoin="bevel"
   d="M9107.6 7202.29c211.66,-2089.55 304.9,-4189.41 279.27,-6289.5l0 0c-1.51,-123.24 -86.84,-229.58 -206.83,-257.75 -1337.31,-313.91 -2706.38,-472.44 -4080.04,-472.44 -1373.66,0 -2742.73,158.53 -4080.04,472.44 -119.99,28.17 -205.32,134.51 -206.83,257.75l0 0c-25.63,2100.09 67.61,4199.95 279.27,6289.5 640.82,50.91 1237.41,346.88 1665.67,826.3 13.23,-27.81 26.93,-55.44 41.21,-82.89 260.99,192.78 545.17,352 845.87,473.91 274.53,-552.29 838.1,-901.5 1454.85,-901.5 616.75,0 1180.32,349.21 1454.85,901.5 300.7,-121.91 584.88,-281.13 845.87,-473.91 14.27,27.43 28.01,55.04 41.24,82.84 159.75,-178.83 344.41,-333.74 548.29,-459.95 15.25,-91.59 73.56,-170.28 156.75,-211.53 83.18,-41.25 181.11,-40.04 263.25,3.26 223.67,-85.84 458.53,-139.06 697.35,-158.03z"
   id="path1928" />
  <path
   fill="url(#id2)"
   d="M9011.01 7192.5c211.29,-2085.9 304.37,-4182.1 278.78,-6278.52 -0.96,-78.62 -55.4,-146.45 -131.94,-164.42 -1330.03,-312.21 -2691.66,-469.88 -4057.85,-469.88 -1366.19,0 -2727.82,157.67 -4057.85,469.88 -76.55,17.97 -130.98,85.8 -131.94,164.42 -25.59,2096.42 67.49,4192.62 278.78,6278.52l33.6 23.59c591.06,78.26 1136.37,365.71 1535.48,812.5 12.24,-25.72 24.9,-51.31 38.03,-76.72l0 -0.04c141.48,-306.66 367.41,-566.66 651.33,-749.54 -217.45,243.06 -409.12,508 -571.94,790.58l3.67 10.24c238.76,167.16 495.69,306.91 765.99,416.5 274.53,-552.29 838.1,-901.5 1454.85,-901.5 616.75,0 1180.32,349.21 1454.85,901.5 272.02,-110.28 530.55,-251.13 770.59,-419.7l-0.94 -7.04c-162.81,-282.58 -354.48,-547.52 -571.93,-790.58 283.77,182.78 509.61,442.61 651.11,749.06 13.22,25.56 25.96,51.3 38.28,77.19 159.75,-178.83 344.41,-333.74 548.29,-459.95 15.25,-91.59 73.56,-170.28 156.75,-211.53 83.18,-41.25 181.11,-40.04 263.25,3.26 192.6,-73.92 393.51,-123.67 598.09,-148.17 0.91,-6.55 1.95,-13.07 2.67,-19.65z"
   id="path1930" />
  <path
   fill="#696969"
   stroke="#000000"
   stroke-width="18"
   stroke-linejoin="bevel"
   d="M9107.6 7202.29c-55.25,885.51 -99.11,1771.7 -131.57,2658.34 -2.54,69.42 -31.93,135.14 -81.97,183.32 -550.78,530.35 -867.05,1258.63 -878.62,2023.16 -11.56,764.52 282.55,1502.03 817.04,2048.78 48.56,49.68 75.94,116.26 76.38,185.73 0.88,137.49 2.02,274.99 3.44,412.48 0.74,71.59 -27.18,140.5 -77.53,191.38 -50.36,50.88 -118.98,79.51 -190.57,79.51l-7321.01 0c-74.13,0 -144.96,-30.69 -195.64,-84.78 -50.69,-54.09 -76.73,-126.75 -71.92,-200.73 162.24,-2496.07 174.52,-4999.64 36.77,-7497.19 640.82,50.91 1237.41,346.88 1665.67,826.3 -374.37,786.7 -329.35,1711.56 124.84,2459.87 470.24,774.75 1310.79,1247.84 2217.09,1247.84l0 -968.83c616.75,0 1180.32,-349.22 1454.85,-901.5 300.7,121.9 584.88,281.12 845.87,473.9 390.39,-750.31 390.39,-1643.86 0,-2394.17 14.27,27.43 28.01,55.04 41.24,82.84 159.75,-178.83 344.41,-333.74 548.29,-459.95 82.14,43.29 180.07,44.5 263.26,3.25 83.18,-41.25 230.88,-155.65 156.74,-211.52 223.67,-85.84 458.53,-139.06 697.35,-158.03zm-6342.02 810.66c3.57,-7.36 7.18,-14.73 10.81,-22.07 -3.64,7.34 -7.24,14.7 -10.81,22.07zm16.33 -33.18c5.71,-11.39 11.47,-22.74 17.37,-34.07 -5.89,11.33 -11.67,22.68 -17.37,34.07z"
   id="path1932" />
  <path
   fill="url(#id3)"
   stroke="#FFFFFF"
   stroke-width="15"
   stroke-linejoin="bevel"
   d="M1190.05 7211.99c603.57,71.87 1161.59,361.62 1568.02,816.6 -374.37,786.7 -329.35,1711.56 124.84,2459.87 470.24,774.75 1310.79,1247.84 2217.09,1247.84l0 -968.83c616.75,0 1180.32,-349.22 1454.85,-901.5 300.7,121.9 584.88,281.12 845.87,473.9 390.39,-750.31 390.39,-1643.86 0,-2394.17 14.27,27.43 28.01,55.04 41.24,82.84 159.75,-178.83 344.41,-333.74 548.29,-459.95 82.14,43.29 180.07,44.5 263.26,3.25 83.18,-41.25 230.88,-155.65 156.74,-211.52 193.07,-74.1 394.49,-123.91 599.59,-148.35 -54.85,881.11 -98.43,1762.89 -130.73,2645.11 -1.62,44.31 -20.38,86.26 -52.32,117.01 -569.4,548.28 -896.37,1301.18 -908.32,2091.55 -11.95,790.37 292.1,1552.8 844.66,2118.05 30.99,31.7 48.47,74.2 48.75,118.54 0.88,137.63 2.02,275.25 3.45,412.88 0.47,45.69 -17.35,89.67 -49.5,122.15 -32.14,32.47 -75.93,50.75 -121.63,50.75l-7321.01 0c-47.32,0 -92.52,-19.59 -124.88,-54.12 -32.35,-34.52 -48.97,-80.9 -45.9,-128.12 162.16,-2494.93 174.73,-4997.34 37.64,-7493.78zm1575.53 800.96c3.57,-7.36 7.18,-14.73 10.81,-22.07 -3.64,7.34 -7.24,14.7 -10.81,22.07zm16.33 -33.18c5.71,-11.39 11.47,-22.74 17.37,-34.07 -5.89,11.33 -11.67,22.68 -17.37,34.07z"
   id="path1934" />
  <path
   fill="url(#id4)"
   stroke="#000000"
   stroke-width="18"
   stroke-linejoin="bevel"
   d="M5010.63 10765l0 880.33c-906.02,-32.36 -1723.79,-551.89 -2138.05,-1358.3 240.69,-169.25 499.88,-310.52 772.57,-421.07 260.24,523.54 781.71,866.87 1365.48,899.04zm-1281.93 -931.79c883.58,-334.59 1859.01,-334.59 2742.6,0 -260.82,518.03 -791.31,844.87 -1371.3,844.87 -579.99,0 -1110.48,-326.84 -1371.3,-844.87zm2742.6 -1380.86c-260.82,-518.04 -791.31,-844.88 -1371.3,-844.88 -579.99,0 -1110.48,326.84 -1371.3,844.88 883.58,334.59 1859.01,334.59 2742.6,0zm-3638.6 -372.64c1362.08,950.6 3172.52,950.6 4534.59,0 315.8,673.53 315.8,1452.6 0,2126.13 -1362.07,-950.6 -3172.51,-950.6 -4534.59,0 -315.79,-673.53 -315.79,-1452.6 0,-2126.13z"
   id="path1936" />
  <path
   fill="url(#id5)"
   d="M7882.29 6160.38l-5564.59 0 -346.72 124.74c18.87,23.33 45.55,40.36 76.66,46.9 2012.91,423.16 4091.81,423.16 6104.71,0 31.12,-6.54 57.79,-23.56 76.67,-46.9l-346.73 -124.74z"
   id="path1938" />
  <path
   fill="url(#id6)"
   d="M2317.71 2144.02l5564.59 0 346.72 -124.74c-18.87,-23.33 -45.55,-40.36 -76.66,-46.9 -2012.91,-423.16 -4091.81,-423.16 -6104.71,0 -31.12,6.54 -57.79,23.56 -76.67,46.9l346.73 124.74z"
   id="path1940" />
  <path
   fill="url(#id7)"
   d="M8258.83 2103.59l0 4097.22c0,31.64 -11.05,61.09 -29.82,84.31l-346.72 -124.74 0 -4016.35 346.57 -124.93c18.87,23.25 29.97,52.78 29.97,84.49z"
   id="path1942" />
  <path
   fill="url(#id8)"
   d="M1941.17 6200.61l0 -4097.22c0,-31.64 11.05,-61.09 29.82,-84.31l346.72 124.74 0 4016.35 -346.57 124.93c-18.87,-23.25 -29.97,-52.78 -29.97,-84.49z"
   id="path1944" />
  <path
   fill="#566B68"
   stroke="#000000"
   stroke-width="18"
   stroke-linejoin="bevel"
   d="M2380.9 2117.86l5438.2 0c49.36,0 89.37,40.01 89.37,89.37l0 3889.96c0,49.35 -40.01,89.37 -89.37,89.37l-5438.2 0c-49.36,0 -89.37,-40.02 -89.37,-89.37l0 -3889.96c0,-49.36 40.01,-89.37 89.37,-89.37"
   id="path1946" />
  <path
   fill="none"
   stroke="#000000"
   stroke-width="25"
   stroke-linejoin="bevel"
   d="M3456.87 10550.7c232.64,343.09 592.01,579.75 999.1,657.92 34.78,10.84 72.69,2.3 99.47,-22.39 26.77,-24.7 38.33,-61.8 30.34,-97.33 -8,-35.53 -34.35,-64.11 -69.12,-74.95 -333.72,-145.04 -639.88,-346.64 -904.96,-595.92 -23.7,-27.66 -60.35,-40.57 -96.16,-33.88 -35.8,6.7 -65.31,31.98 -77.41,66.34 -12.11,34.35 -4.96,72.55 18.74,100.21z"
   id="path1948" />
  <path
   fill="none"
   stroke="#000000"
   stroke-width="25"
   stroke-linejoin="bevel"
   d="M5350.34 8352.78l-500.68 0c-7.17,0 -13.8,-3.81 -17.4,-10.02 -3.6,-6.2 -3.62,-13.85 -0.06,-20.07l250.35 -437.51c3.58,-6.26 10.24,-10.12 17.45,-10.12 7.21,0 13.87,3.86 17.45,10.12l250.35 437.51c3.56,6.22 3.54,13.87 -0.06,20.07 -3.6,6.21 -10.23,10.02 -17.4,10.02"
   id="path1950" />
  <path
   fill="none"
   stroke="#000000"
   stroke-width="25"
   stroke-linejoin="bevel"
   d="M6789.44 9393.13c0,7.17 3.82,13.8 10.02,17.4 6.2,3.59 13.85,3.62 20.08,0.05l437.5 -250.34c6.26,-3.58 10.13,-10.24 10.13,-17.45 0,-7.22 -3.87,-13.87 -10.13,-17.46l-437.5 -250.34c-6.23,-3.56 -13.88,-3.54 -20.08,0.06 -6.2,3.59 -10.02,10.22 -10.02,17.39l0 99.8c0,7.17 -3.82,13.8 -10.02,17.4 -6.2,3.59 -13.85,3.61 -20.08,0.05l-235.41 -134.7c-6.22,-3.56 -13.87,-3.54 -20.07,0.06 -6.21,3.59 -10.03,10.22 -10.03,17.39l0 500.69c0,7.17 3.82,13.8 10.03,17.4 6.2,3.59 13.85,3.62 20.07,0.05l235.41 -134.7c6.23,-3.56 13.88,-3.54 20.08,0.06 6.2,3.59 10.02,10.22 10.02,17.39l0 99.8"
   id="path1952" />
  <path
   fill="none"
   stroke="#000000"
   stroke-width="25"
   stroke-linejoin="bevel"
   d="M5350.34 9932.79l-500.68 0c-7.17,0 -13.8,3.82 -17.4,10.02 -3.6,6.2 -3.62,13.85 -0.06,20.07l250.35 437.51c3.58,6.26 10.24,10.13 17.45,10.13 7.21,0 13.87,-3.87 17.45,-10.13l250.35 -437.51c3.56,-6.22 3.54,-13.87 -0.06,-20.07 -3.6,-6.2 -10.23,-10.02 -17.4,-10.02"
   id="path1954" />
  <path
   fill="none"
   stroke="#000000"
   stroke-width="25"
   stroke-linejoin="bevel"
   d="M3410.56 9393.13c0,7.17 -3.82,13.8 -10.02,17.4 -6.2,3.59 -13.85,3.62 -20.08,0.05l-437.51 -250.34c-6.25,-3.58 -10.12,-10.24 -10.12,-17.45 0,-7.22 3.87,-13.87 10.12,-17.46l437.51 -250.34c6.23,-3.56 13.88,-3.54 20.08,0.06 6.2,3.59 10.02,10.22 10.02,17.39l0 99.8c0,7.17 3.82,13.8 10.02,17.4 6.2,3.59 13.85,3.61 20.08,0.05l235.41 -134.7c6.22,-3.56 13.87,-3.54 20.07,0.06 6.21,3.59 10.02,10.22 10.02,17.39l0 500.69c0,7.17 -3.81,13.8 -10.02,17.4 -6.2,3.59 -13.85,3.62 -20.07,0.05l-235.41 -134.7c-6.23,-3.56 -13.88,-3.54 -20.08,0.06 -6.2,3.59 -10.02,10.22 -10.02,17.39l0 99.8"
   id="path1956" />
  <g
   id="g1958">
   <path
   fill="#000000"
   d="M4242.96 14119.2l0 160.8c0,2.74 -2.22,4.96 -4.96,4.96l-88.89 0c-2.74,0 -4.97,-2.22 -4.97,-4.96l0 -445c0,-2.75 2.23,-4.97 4.97,-4.97l269.32 0c61.34,1.81 111.26,49.95 115.27,111.19l0 61.83c-3.26,49.64 -37.04,92.02 -84.7,106.25l87.07 168.42c0.79,1.54 0.73,3.38 -0.17,4.86 -0.9,1.48 -2.51,2.38 -4.25,2.38l-100.05 0c-1.86,0 -3.56,-1.03 -4.42,-2.68l-85.48 -165.36c-0.85,-1.65 -2.55,-2.68 -4.41,-2.68l-89.36 0c-2.75,0 -4.97,2.22 -4.97,4.96"
   id="path1960" />
   <path
   fill="#000000"
   d="M5670.77 14285c58.85,-4.76 111.6,-38.18 141.03,-89.36 18.83,-43.65 28.94,-90.56 29.8,-138.1 -0.86,-47.53 -10.97,-94.44 -29.8,-138.1 -29.43,-51.19 -82.18,-84.61 -141.03,-89.37l-109.64 0c-58.86,4.76 -111.6,38.18 -141.04,89.37 -18.82,43.66 -28.95,90.57 -29.79,138.1 0.84,47.54 10.97,94.45 29.79,138.1 29.44,51.18 82.18,84.6 141.04,89.36l109.64 0"
   id="path1962" />
   <path
   fill="#000000"
   d="M4732.67 14285l204.7 0c2.75,0 4.97,-2.22 4.97,-4.96l0 -66.57c0,-1.32 -0.52,-2.58 -1.46,-3.51 -0.92,-0.92 -2.19,-1.46 -3.51,-1.46l-164.65 0c-31.43,-1.36 -60.48,-17.03 -78.9,-42.53 -21.66,-32.02 -33.21,-69.78 -33.16,-108.43 -0.05,-38.65 11.5,-76.42 33.16,-108.43 18.42,-25.49 47.47,-41.16 78.9,-42.54l164.65 0c2.75,0 4.97,-2.22 4.97,-4.97l0 -66.56c0,-2.75 -2.22,-4.97 -4.97,-4.97l-204.7 0c-58.85,4.76 -111.6,38.18 -141.03,89.37 -18.83,43.66 -28.96,90.57 -29.8,138.1 0.84,47.54 10.97,94.45 29.8,138.1 29.43,51.18 82.18,84.6 141.03,89.36"
   id="path1964" />
   <path
   fill="#000000"
   d="M3994.73 14183.8l-184.19 0c-1.49,0 -2.89,0.66 -3.84,1.81l-80.04 97.57c-0.95,1.15 -2.35,1.82 -3.84,1.82l-86.1 0c-1.92,0 -3.67,-1.11 -4.48,-2.84 -0.83,-1.73 -0.57,-3.79 0.64,-5.27l365.07 -445c0.94,-1.15 2.35,-1.82 3.83,-1.82l91.76 0c2.74,0 4.96,2.22 4.96,4.97l0 445c0,2.74 -2.22,4.96 -4.96,4.96l-88.89 0c-2.73,0 -4.95,-2.22 -4.95,-4.96l0 -91.28c0,-2.74 -2.23,-4.96 -4.97,-4.96"
   id="path1966" />
   <path
   fill="#000000"
   d="M5081.68 14100.8l0 179.29c0,2.74 -2.22,4.96 -4.96,4.96l-88.89 0c-2.74,0 -4.96,-2.22 -4.96,-4.96l0 -445c0,-2.75 2.22,-4.97 4.96,-4.97l88.89 0c2.74,0 4.96,2.22 4.96,4.97l0 179.29c0,2.74 2.23,4.96 4.96,4.96l165.47 0c1.32,0 2.58,-0.52 3.51,-1.46 0.92,-0.92 1.46,-2.19 1.46,-3.5l0 -179.29c0,-1.32 0.52,-2.58 1.44,-3.51 0.94,-0.94 2.19,-1.46 3.51,-1.46l88.89 0c2.74,0 4.96,2.22 4.96,4.97l0 445c0,1.31 -0.52,2.57 -1.45,3.51 -0.93,0.93 -2.2,1.45 -3.51,1.45l-88.89 0c-1.32,0 -2.57,-0.52 -3.51,-1.45 -0.92,-0.94 -1.44,-2.2 -1.44,-3.51l0 -179.29c0,-2.74 -2.23,-4.96 -4.97,-4.96l-165.47 0c-2.73,0 -4.96,2.22 -4.96,4.96"
   id="path1968" />
   <path
   fill="#000000"
   d="M6197.84 14285c31.61,-0.4 61.41,-14.8 81.38,-39.31 21.51,-26.35 32.85,-59.54 31.99,-93.55 0.86,-34 -10.48,-67.18 -31.99,-93.53 -19.97,-24.52 -49.77,-38.92 -81.38,-39.32l-148.98 0c-19.64,-0.58 -38.1,-9.43 -50.88,-24.36 -7.3,-9.11 -11.52,-20.32 -12.03,-32 0.51,-11.67 4.73,-22.89 12.03,-32.01 12.78,-14.92 31.24,-23.76 50.88,-24.35l223.32 0c1.32,0 2.58,-0.52 3.51,-1.46 0.94,-0.93 1.46,-2.19 1.46,-3.51l0 -66.56c0,-2.75 -2.22,-4.97 -4.97,-4.97l-288.66 0c-31.61,0.4 -61.41,14.8 -81.38,39.32 -21.51,26.35 -32.85,59.54 -31.99,93.54 -0.86,34 10.48,67.18 31.99,93.54 19.97,24.52 49.77,38.91 81.38,39.32l148.98 0c19.64,0.59 38.1,9.42 50.88,24.35 7.3,9.12 11.52,20.33 12.03,32 -0.51,11.69 -4.73,22.9 -12.03,32.01 -12.78,14.93 -31.24,23.77 -50.88,24.35l-257.38 0c-1.32,0 -2.58,0.54 -3.51,1.46 -0.94,0.93 -1.46,2.19 -1.46,3.51l0 66.57c0,1.31 0.52,2.57 1.46,3.51 0.93,0.93 2.19,1.45 3.51,1.45l322.72 0z"
   id="path1970" />
   <path
   fill="#D8D8D8"
   d="M5630.72 13906.6c31.42,1.38 60.48,17.05 78.9,42.54 21.66,32.01 33.21,69.78 33.16,108.43 0.05,38.65 -11.5,76.41 -33.16,108.43 -18.42,25.5 -47.48,41.17 -78.9,42.53 -9.84,0.54 -19.7,0.54 -29.55,0 -31.42,-1.36 -60.49,-17.03 -78.89,-42.53 -21.66,-32.02 -33.22,-69.78 -33.18,-108.43 -0.04,-38.65 11.52,-76.42 33.18,-108.43 18.4,-25.49 47.47,-41.16 78.89,-42.54 9.85,-0.53 19.71,-0.53 29.55,0"
   id="path1972" />
   <path
   fill="#DEDEDE"
   d="M4242.96 13911.5l0 121.29c0,2.74 2.22,4.96 4.97,4.96l101.86 0c34.86,-2.21 63.33,-28.66 68.12,-63.25l0 -4.71c-4.79,-34.6 -33.26,-61.04 -68.12,-63.25l-101.86 0c-1.32,0 -2.59,0.52 -3.51,1.45 -0.94,0.93 -1.46,2.2 -1.46,3.51"
   id="path1974" />
   <path
   fill="#D9D9D9"
   d="M3994.73 14107.3l-113.3 0c-1.92,0 -3.66,-1.11 -4.48,-2.84 -0.82,-1.74 -0.57,-3.79 0.65,-5.27l113.3 -138.11c1.32,-1.62 3.53,-2.23 5.5,-1.52 1.98,0.7 3.3,2.57 3.3,4.67l0 138.1c0,2.75 -2.23,4.97 -4.97,4.97"
   id="path1976" />
  </g>
  <path
   fill="none"
   stroke="#FFFFFF"
   stroke-width="50"
   stroke-linejoin="bevel"
   d="M8672.61 9920.67c-677.15,508.27 -1078.59,1303.22 -1085.65,2149.88 -7.06,846.65 381.06,1648.18 1049.64,2167.67"
   id="path1978" />
  <path
   fill="#FFFFFF"
   d="M3258.13 6970.9l329.22 0 0 -223.5 -329.22 0 0 223.5zm-66.28 -192.53c0,-28.08 6.42,-47.2 19.39,-57.56 12.98,-10.27 37.64,-15.44 74,-15.44l275.01 0c35.84,0 60.24,5.07 73.21,15.34 12.97,10.15 19.4,29.38 19.4,57.66l0 162.46c0,28.48 -6.43,47.71 -19.4,57.86 -12.97,10.06 -37.37,15.14 -73.21,15.14l-275.01 0c-36.36,0 -61.02,-5.18 -74,-15.43 -12.97,-10.36 -19.39,-29.49 -19.39,-57.57l0 -162.46zm662.67 235.46l0 -308.46 41.75 0 297.62 206.27c6.81,4.68 14,10.36 21.71,16.94 7.57,6.67 15.41,13.94 23.5,21.9 -2.05,-9.86 -3.46,-20.21 -4.49,-31.07 -1.03,-10.75 -1.54,-25.7 -1.54,-44.82l0 -169.22 61.02 0 0 308.46 -37.26 0 -305.58 -214.53c-1.41,-0.9 -3.72,-2.5 -6.68,-4.59 -15.16,-10.55 -26.34,-20.62 -33.53,-30.08 1.55,9.36 2.57,19.32 3.34,29.88 0.78,10.66 1.16,23.11 1.16,37.55l0 181.77 -61.02 0zm855.36 -266.43l-142.97 0 0 223.5 142.97 0c64.48,0 109.95,-8.76 136.54,-26.29 26.59,-17.43 39.94,-46.41 39.94,-86.95 0,-39.05 -13.48,-67.23 -40.58,-84.47 -27.1,-17.23 -72.44,-25.79 -135.9,-25.79zm9.38 -42.03c36.6,0 67.05,1.89 91.32,5.67 24.15,3.79 44.71,9.87 61.53,18.23 25.56,13.05 45.6,30.98 60.37,53.69 14.65,22.81 21.96,47.71 21.96,74.7 0,28.88 -7.19,54.78 -21.57,77.79 -14.52,23.1 -34.68,41.24 -60.76,54.48 -16.31,8.16 -36.74,14.14 -61.02,18.02 -24.27,3.89 -54.97,5.88 -91.83,5.88l-219.02 0 0 -308.46 219.02 0zm403.84 308.46l0 -308.46 66.67 0 0 308.46 -66.67 0zm333.84 -42.93l329.22 0 0 -223.5 -329.22 0 0 223.5zm-66.27 -192.53c0,-28.08 6.41,-47.2 19.38,-57.56 12.98,-10.27 37.64,-15.44 74,-15.44l275.01 0c35.84,0 60.24,5.07 73.22,15.34 12.97,10.15 19.39,29.38 19.39,57.66l0 162.46c0,28.48 -6.42,47.71 -19.39,57.86 -12.98,10.06 -37.38,15.14 -73.22,15.14l-275.01 0c-36.36,0 -61.02,-5.18 -74,-15.43 -12.97,-10.36 -19.38,-29.49 -19.38,-57.57l0 -162.46z"
   id="path1980" />
  <path
   fill="#FFFFFF"
   d="M7555.9 6747.42l-281.57 -0.98 -0.3 86.05 250.74 0.88c35.32,0.12 59.45,5.28 72.52,15.39 12.93,10.2 19.42,29.35 19.32,57.64l-0.12 34.66c-0.1,28.48 -6.58,47.69 -19.33,57.8 -12.89,10.01 -37.19,15.01 -73.02,14.88l-232.24 -0.81c-36.22,-0.12 -60.73,-5.29 -73.81,-15.59 -12.93,-10.21 -19.41,-29.46 -19.31,-57.74l0.03 -8.47 61.69 -10.84 -0.17 49.6 296.2 1.04 0.32 -92.83 -249.83 -0.88c-36.09,-0.12 -60.61,-5.28 -73.42,-15.59 -12.69,-10.2 -19.04,-29.44 -18.94,-57.63l0.1 -26.9c0.1,-28.18 6.58,-47.38 19.33,-57.5 12.89,-10.21 37.44,-15.2 73.53,-15.08l211.95 0.74c35.32,0.13 59.7,5.19 73.03,15.3 13.45,10 20.07,27.65 19.98,52.75l-0.02 6.38 -56.82 12.35 0.16 -44.62zm556.96 -0.15l-227.99 -0.8 -0.38 107.78 228 0.79c16.31,0.06 27.49,-2.29 33.67,-7.16 6.19,-4.85 9.3,-13.21 9.34,-25.06l0.15 -43.03c0.04,-11.85 -3.01,-20.23 -9.16,-25.13 -6.15,-4.9 -17.32,-7.33 -33.63,-7.39zm-295.6 267.5l1.08 -308.47 320.61 1.12c29.8,0.11 51.36,4.86 64.44,14.37 13.19,9.51 19.69,24.77 19.62,45.68l-0.24 68.93c-0.08,20.82 -6.68,35.93 -19.94,45.35 -13.14,9.42 -34.73,14.02 -64.53,13.92l-253.95 -0.89 -0.42 120.22 -66.67 -0.23z"
   id="path1982" />
  <path
   fill="#CF8443"
   d="M5617.35 7155l0 -259.96 -86.58 0 0 -30.98 147.6 -19.82 0 310.76 -61.02 0zm422.99 -248.01c0,-23.21 5.78,-39.04 17.47,-47.61 11.69,-8.57 34.42,-12.84 68.34,-12.84l191.9 0c33.66,0 56.26,4.27 67.95,12.84 11.69,8.57 17.47,24.4 17.47,47.61l0 19.23c0,15.14 -3.08,26.99 -9.38,35.35 -6.29,8.37 -19.52,17.44 -39.82,27.4l-257.54 123.7 261.27 0 0 -58.67 63.2 16.04 0 24.51c0,23.2 -5.91,39.04 -17.73,47.6 -11.82,8.57 -34.68,12.85 -68.47,12.85l-313.16 0 0 -19.22c0,-14.24 3.6,-25.1 10.8,-32.57 7.06,-7.47 19,-15.34 35.57,-23.51l269.75 -131.57 0 -60.16 -234.42 0 0 72.11 -63.2 -13.15 0 -39.94zm628.25 248.01c-34.03,0 -57.67,-4.68 -71.03,-14.14 -13.23,-9.46 -19.91,-26.8 -19.91,-52.1l0 -32.36c0,-18.73 5.65,-32.97 17.08,-42.64 11.43,-9.76 29.8,-16.03 55.11,-19.02 -22.09,-2.29 -38.28,-8.26 -48.55,-17.73 -10.28,-9.56 -15.43,-23.6 -15.43,-42.03l0 -28.09c0,-23.11 5.79,-38.94 17.48,-47.51 11.69,-8.57 34.42,-12.84 68.34,-12.84l232.62 0c33.9,0 56.64,4.27 68.33,12.84 11.69,8.57 17.47,24.4 17.47,47.51l0 28.09c0,18.23 -5.26,32.27 -15.67,41.83 -10.4,9.67 -26.84,15.64 -49.45,17.93 25.81,2.99 44.57,9.26 56,19.02 11.56,9.67 17.34,23.91 17.34,42.64l0 32.36c0,25.1 -6.67,42.43 -20.16,51.9 -13.37,9.56 -37.25,14.34 -71.55,14.34l-238.02 0zm-19.52 -234.96l0 24.01c0,13.24 2.7,21.91 8.22,26.09 5.52,4.18 16.31,6.28 32.11,6.28l197.17 0c16.06,0 26.85,-2.1 32.25,-6.38 5.38,-4.28 8.09,-12.95 8.09,-25.99l0 -24.01c0,-13.15 -2.71,-21.82 -8.22,-25.89 -5.53,-4.09 -16.32,-6.18 -32.12,-6.18l-197.17 0c-15.41,0 -25.94,2.09 -31.72,6.27 -5.78,4.19 -8.61,12.75 -8.61,25.8zm-7.45 127.89l0 33.56c0,12.65 2.69,21.12 8.09,25.4 5.39,4.28 15.93,6.37 31.72,6.37l213.11 0c15.79,0 26.32,-2.09 31.72,-6.37 5.4,-4.28 8.09,-12.75 8.09,-25.4l0 -33.56c0,-12.65 -2.69,-21.12 -8.09,-25.3 -5.4,-4.18 -15.93,-6.28 -31.72,-6.28l-213.11 0c-15.53,0 -26.07,2.1 -31.59,6.38 -5.53,4.28 -8.22,12.65 -8.22,25.2z"
   id="path1984" />
  <g
   id="g1986">
   <path
   fill="#000000"
   d="M4182.61 3104.67c-88.74,-386.16 -318.53,-402.97 -372.56,-402.97l0 -22.57c119.82,0 313.48,85.5 383.85,378.99 90.15,-292.86 244.11,-371.47 352.17,-372.96 102.97,-1.42 166.48,22.58 264.08,73.43l0 -45.83 281.76 0 0 -38.63 22.58 0 0 38.63 47.78 0 0 22.58 -47.78 0 0 552.15 202.63 -512.22 194.14 0 16.92 -39.93 -241.92 0 0 -22.58 251.49 0 26.58 -62.75 20.79 8.82 -22.85 53.93 53.51 0 0 22.58 -63.08 0 -157.92 372.7 209.14 0 0 279.33c195.73,-96.33 429.91,-25.65 547.94,162.94 117.08,-180.47 345.79,-252.38 545.07,-171.39l-7.93 -12.82 336.82 0 67.28 108.78 65.72 -106.25c0.97,-1.58 2.69,-2.53 4.54,-2.53l0 0c1.93,0 3.72,1.04 4.66,2.74 0.94,1.69 0.9,3.75 -0.12,5.4l-68.52 110.78 8.77 14.2 80.78 -130.59c0.97,-1.58 2.68,-2.53 4.53,-2.53l0 0c1.94,0 3.72,1.04 4.66,2.74 0.94,1.69 0.89,3.75 -0.13,5.4l-83.56 135.11 8.78 14.2 97.38 -157.45 336.81 0 -265.79 429.74 8.78 14.19 280.46 -453.45 -349.9 0c-1.93,0 -3.71,-1.04 -4.65,-2.73 -0.95,-1.69 -0.9,-3.76 0.12,-5.41l0 0c0.97,-1.56 2.69,-2.52 4.53,-2.52l369.04 0 -278.28 449.92 260.32 420.89c1.02,1.64 1.07,3.71 0.13,5.4 -0.95,1.69 -2.73,2.74 -4.66,2.74 -1.85,0 -3.57,-0.96 -4.54,-2.53l-257.52 -416.37 -8.78 14.2 250.31 404.7 -336.82 0 -64.33 -104.02 -62.78 101.49c-0.97,1.57 -2.68,2.53 -4.54,2.53l0 0c-0.87,0 -1.73,-0.22 -2.5,-0.63 -0.77,0.41 -1.64,0.63 -2.51,0.63 -1.93,0 -3.71,-1.05 -4.66,-2.74 -0.94,-1.69 -0.89,-3.76 0.12,-5.4l68.08 -110.08 -8.77 -14.19 -80.33 129.88c-0.98,1.57 -2.69,2.53 -4.54,2.53 -1.94,0 -3.72,-1.05 -4.66,-2.74 -0.94,-1.69 -0.89,-3.76 0.12,-5.4l83.14 -134.41 -8.78 -14.19 -96.95 156.74 -336.82 0 9.86 -15.94c-199.44,82.39 -429.28,11.05 -547.03,-169.79 -117.87,189.05 -352.36,258.23 -548.35,161.77l0 23.96 -286.18 0 0 -2.15 -47.24 0 20.63 58.24 -21.28 7.54 -23.3 -65.78 -90.73 0 0 -22.58 82.73 0 -168.56 -475.82 -9.96 24.27 0 476.28 -186.67 0 0 -1449.6 186.67 0 0 649.88 31.88 -80.58 0 -609.23 -259.19 0 0 65.99c-112.44,-75.61 -187.78,-93.59 -286.65,-93.59 -78.28,0 -250.07,57.06 -340.88,396.93l-22.58 0zm404.33 1150.66l-355.9 0.03 0 -22.59 243.05 0c-185.22,-82.24 -265.92,-379.86 -265.92,-732.7 0,-416 112.13,-755.29 375.54,-755.29 121.04,0 189.82,62.19 249.01,118.86l0 36.96c0.02,0.04 0.04,0.07 0.07,0.1l-0.02 313.26 -20.11 0c-43.64,-79.53 -123.87,-191.2 -206.74,-191.2 -138.1,0 -206.42,213.9 -204.68,477.31 -1.74,263.41 66.58,477.31 204.68,477.31 82.87,0 163.1,-111.68 206.74,-191.2l20.11 0 0.02 313.26c-0.03,0.03 -0.05,0.06 -0.07,0.1l0 36.96c-58.66,56.16 -126.75,117.74 -245.78,118.83zm-779.62 -1510.55c261.14,0 372.31,356.17 372.31,755.29 0,399.12 -111.17,755.29 -372.31,755.29 -261.14,0 -372.31,-339.29 -372.31,-755.29 0,-416 111.17,-755.29 372.31,-755.29zm-650.14 30.49l-340.02 0 0 841.83c2.2,5.88 4.38,11.77 6.54,17.67 15.27,-4.18 31.11,-5.87 46.91,-5.03 30.93,1.66 58.79,19.2 73.64,46.37 13.42,24.56 19.81,52.35 18.46,80.3 -0.56,11.68 -3.64,23.1 -9.02,33.49 -13.21,25.52 -33.59,46.6 -58.64,60.67 8.47,28.76 16.57,57.63 24.3,86.61 14.77,55.44 21.71,112.67 20.61,170.04 -0.29,14.79 -3.5,29.39 -9.45,42.94 -6.1,13.88 -16.78,25.25 -30.27,32.2 -9.79,5.04 -21.2,5.87 -31.61,2.3 -10.41,-3.56 -18.92,-11.22 -23.56,-21.19 -5.41,-11.63 -8.05,-24.33 -7.73,-37.15 0.18,-7.2 3.66,-13.93 9.45,-18.25 7.29,-5.43 16.24,-8.16 25.33,-7.73 5.96,0.3 11.3,3.78 13.98,9.12 2.67,5.34 2.24,11.7 -1.1,16.65 -4.13,6.09 -10.17,10.63 -17.18,12.88l2.4 5.23c1.13,2.96 3.64,5.19 6.72,5.95 3.08,0.77 6.34,-0.03 8.73,-2.13 11.73,-9.99 19.03,-24.21 20.32,-39.57 1.7,-26.47 1.14,-53.03 -1.67,-79.4 -8.25,-56.33 -20.52,-112 -36.73,-166.57 -4.17,1.32 -8.38,2.45 -12.65,3.4 -12.48,2.78 -25.09,4.94 -37.78,6.48l0 352.49 227.56 0 0 47.14 22.58 0 0 -47.14 48.48 0 0 -22.58 -48.48 0 0 -508.29 21.8 0 198.6 530.87 218.1 0 19.71 50.3 21.02 -8.24 -19.6 -50.01 68.05 0 0 -22.58 -76.89 0 -234.87 -599.43c86.45,-89.17 136.05,-223.39 136.05,-393.83 0,-228.46 -61.84,-425.81 -262.09,-425.81zm-299.52 1055.43c-12.96,5.33 -26.59,8.91 -40.5,10.63l0 -128.45c14.01,38.93 27.46,78.07 40.36,117.38 0.04,0.15 0.09,0.29 0.14,0.44 0,0 0,0 0,0 0,0 0,0 0,0 0,0 0,0 0,0m-21.31 -160.94c4.43,-1.22 8.92,-2.25 13.44,-3.09 14.18,-2.64 28.82,0.79 40.36,9.44 10.5,7.89 18.06,19.06 21.49,31.74 7.62,28.26 5.95,58.23 -4.75,85.48 -2.24,5.72 -5.94,10.76 -10.73,14.61 -3.67,2.95 -7.48,5.74 -11.4,8.34 -15.05,-49.19 -31.19,-98.05 -48.41,-146.52m-19.19 171.57c-3.57,0.44 -7.15,0.76 -10.73,0.96 -39.1,2.12 -75.47,-20.08 -91.46,-55.82 -28.38,-63.45 -32.5,-135.1 -11.59,-201.38 7.34,-23.27 14.93,-46.46 22.76,-69.57 2.16,-6.39 4.35,-12.78 6.56,-19.16 20.99,49.85 41.06,100.1 60.18,150.7 -27.25,14.6 -49.24,37.37 -62.88,65.12 -2.25,4.59 -1.37,10.1 2.2,13.75 3.58,3.64 9.07,4.64 13.7,2.48 4.03,-2.9 7.76,-6.18 11.15,-9.79 13.78,-15.29 30.29,-27.88 48.69,-37.12 3.84,10.45 7.65,20.9 11.42,31.38l0 -95.78c-18.1,-48.45 -37.28,-96.49 -57.53,-144.08 -3.36,-7.89 -6.78,-15.74 -10.27,-23.55 4.21,-11.57 8.49,-23.12 12.84,-34.64 6.21,-16.44 10.95,-33.39 14.17,-50.67 3.64,-19.53 2.01,-39.69 -4.73,-58.39 -15.34,-42.61 -44.91,-78.63 -83.72,-101.98 -17.07,-10.27 -36.76,-15.34 -56.67,-14.6 -16.68,0.63 -30.16,13.82 -31.13,30.49 -0.89,15.12 2.62,30.18 10.09,43.37 6.91,12.2 14.36,24.09 22.32,35.63 24.58,35.62 45.81,73.42 63.43,112.93 3.47,7.78 6.91,15.56 10.34,23.35 -5.38,14.79 -10.65,29.63 -15.8,44.5 -23.92,69 -39.35,140.67 -45.95,213.4 -3.11,34.33 -0.05,68.94 9.02,102.19 12.45,45.63 53.01,77.94 100.26,79.87 21.14,0.86 42.32,0.02 63.33,-2.54l0 -31.05m309.21 -1126.42l-351.54 0 0 -54.78 -22.57 0 0 54.78 -52.58 0 0 22.58 52.58 0 0 251.5 22.57 0 0 -251.5 351.54 0 0 -22.58"
   id="path1988" />
   <path
   fill="#566B68"
   d="M7498.07 3399.17l-259.05 0 -115.81 187.24 -115.82 -187.24 -259.05 0 48.58 78.54c-98.88,-83.94 -231.3,-116.88 -357.97,-89.05 -126.68,27.83 -233.09,113.24 -287.68,230.9 -48.92,-109.46 -141.01,-191.39 -252.36,-224.55 -111.37,-33.17 -231.06,-14.31 -328.05,51.69l0 -310.75 -220.05 0 0 1050.69 220.05 0 0 -42.38c97.16,66.12 217.09,84.93 328.6,51.53 111.52,-33.39 203.6,-115.69 252.3,-225.48 55.2,118.11 162.65,203.46 290.19,230.5 127.54,27.03 260.37,-7.39 358.74,-92.94l-51.91 83.93 259.05 0 115.38 -186.54 115.37 186.54 259.05 0 -244.9 -395.96 245.34 -396.67z"
   id="path1990" />
   <path
   fill="#000000"
   d="M5962.01 3794.41c0,-108.02 -87.56,-195.59 -195.58,-195.59 -108.01,0 -195.57,87.57 -195.57,195.59 0,108.02 87.56,195.58 195.57,195.58 108.02,0 195.58,-87.56 195.58,-195.58zm969.47 -99.13c16.41,66.75 15.99,136.53 -1.21,203.08l63.41 -102.52 -62.2 -100.56m-207.82 99.13c0,-108.02 -87.56,-195.59 -195.57,-195.59 -108.02,0 -195.58,87.57 -195.58,195.59 0,108.02 87.56,195.58 195.58,195.58 108.01,0 195.57,-87.56 195.57,-195.58z"
   id="path1992" />
   <path
   fill="#566B68"
   d="M3003.82 4202.29l40.9 0 0 -508.29 -40.9 0 0 508.29m84.45 -828.68c68.98,0 79.79,-87.46 79.72,-147.47 -0.07,-60.02 -8.78,-125.15 -68.97,-125.15l-95.2 0 0 331.67 40.9 0 0 -59.05 43.55 0zm0 22.58l-20.97 0 0 36.47 1.45 0c153.72,0 153.72,-137.66 153.72,-185.49l0 -30.88c0,-46.37 -0.32,-174.34 -129.76,-174.34l-88.89 0 0 36.46 84.45 0c43.93,0 102.86,6.25 102.86,153.56 0,147.31 -59.23,162.99 -102.86,164.22zm-366.06 -4.03c-17.69,-35.31 -36.84,-69.89 -57.38,-103.62 -6.54,-10.73 -12.45,-21.82 -17.7,-33.22 -3.43,-7.44 -5.46,-15.45 -6.01,-23.62 -0.11,-1.76 0.52,-3.49 1.75,-4.75 1.22,-1.27 2.93,-1.96 4.69,-1.9 8.49,0.29 16.76,2.72 24.05,7.08 31.32,18.74 53.65,49.44 61.82,85.02 2.39,10.37 2.46,21.15 0.22,31.56 -3.16,14.65 -6.98,29.15 -11.44,43.45l0 0m3800.54 564.68l10.67 0c88.66,-2.92 158.61,-76.39 157.15,-165.1 -1.45,-88.7 -73.77,-159.85 -162.48,-159.85 -88.72,0 -161.03,71.15 -162.49,159.85 -1.46,88.71 68.49,162.18 157.15,165.1zm-761.65 0l10.67 0c88.66,-2.92 158.61,-76.39 157.15,-165.1 -1.45,-88.7 -73.77,-159.85 -162.49,-159.85 -88.71,0 -161.03,71.15 -162.48,159.85 -1.46,88.71 68.49,162.18 157.15,165.1zm-509.47 -510.97l66.11 171.01 0 -327.04 -66.11 156.03m10.87 754.27l-179.65 -507.15 21.06 -51.31 207.6 558.46 -49.01 0m-1455.19 -1182.27c125.76,0 179.25,227.37 179.25,482.2 0,254.83 -53.49,482.2 -179.25,482.2 -125.74,0 -179.24,-216.62 -179.24,-482.2 0,-265.59 53.5,-482.2 179.24,-482.2z"
   id="path1994" />
   <path
   fill="#000000"
   d="M6522.75 3956.84c3.56,0.25 7.11,0.24 10.67,0l0 -14.94c80.43,-2.92 143.69,-69.74 142.22,-150.21 -1.48,-80.47 -67.17,-144.92 -147.66,-144.86 -1.93,-0.04 -3.52,0.98 -4.49,2.63 -0.98,1.67 -0.98,3.73 -0.01,5.4 0.97,1.66 2.58,2.67 4.51,2.64 49.56,-0.04 95.27,26.71 119.51,69.94 24.24,43.23 23.22,96.19 -2.65,138.45 -25.87,42.27 -72.58,67.26 -122.1,65.33l0 25.62zm-756.32 -40.45c-2.94,0 -5.33,-2.39 -5.33,-5.33 0,-2.95 2.39,-5.34 5.33,-5.34 61.48,0 111.31,-49.83 111.31,-111.31 0,-61.48 -49.83,-111.31 -111.31,-111.31 -2.94,0 -5.33,-2.39 -5.33,-5.34 0,-2.94 2.39,-5.33 5.33,-5.33 67.37,0 121.98,54.61 121.98,121.98 0,67.37 -54.61,121.98 -121.98,121.98zm761.66 0c-2.95,0 -5.34,-2.39 -5.34,-5.33 0,-2.95 2.39,-5.34 5.34,-5.34 61.47,0 111.31,-49.83 111.31,-111.31 0,-61.48 -49.84,-111.31 -111.31,-111.31 -2.95,0 -5.34,-2.39 -5.34,-5.34 0,-2.94 2.39,-5.33 5.34,-5.33 67.36,0 121.97,54.61 121.97,121.98 0,67.37 -54.61,121.98 -121.97,121.98zm-766.99 40.45c3.55,0.17 7.11,0.13 10.67,0l0 -14.94c80.43,-2.92 143.69,-69.74 142.21,-150.21 -1.48,-80.47 -67.17,-144.92 -147.65,-144.86 -1.93,-0.04 -3.52,0.98 -4.5,2.63 -0.97,1.67 -0.97,3.73 0,5.4 0.97,1.66 2.58,2.67 4.51,2.64 49.55,-0.04 95.27,26.71 119.51,69.94 24.24,43.23 23.22,96.19 -2.65,138.45 -25.87,42.27 -72.58,67.26 -122.1,65.33l0 25.62zm-1953.78 -42.42l0 -55.77 -22.58 0 0 59.39 0 22.58c122.05,0 157.87,-207.28 158.72,-429.26l513.67 0c1.22,156.27 35.49,395.44 137.51,411.94l0 58.97 22.57 0 0 -470.91 89.89 0 0 -22.58 -89.89 0 0 -81.46 -22.57 0 0 81.46 -114.86 0c2.45,-154.89 45.72,-381.34 126.14,-385.01l0 -22.58c-105.48,4.08 -146.49,245.78 -148.72,407.59l-513.78 0c-1.46,-220.94 -37.13,-426.52 -158.68,-426.52l0 21.67 0 404.85 -69 0 0 22.58 69 0 0 78.85 22.58 0 0 -78.85 113.52 0c-1.12,142.09 -19.03,371.69 -113.52,403.06z"
   id="path1996" />
   <path
   fill="#566B68"
   d="M4479.72 3511.36c1.45,147.94 38.91,368.8 114.92,388.87l0 -388.87 -114.92 0zm-558.84 -22.58l-113.56 0 0 -401.21c94.01,31.25 112.89,258.87 113.56,401.21z"
   id="path1998" />
  </g>
 </g>
 <g
   id="Haupt_x0020_Desktop">
 </g>
<g
   inkscape:groupmode="layer"
   id="layer1"
   inkscape:label="Text"><path
     style="fill:none;fill-opacity:0.75;fill-rule:evenodd;stroke:#000000;stroke-width:28.22222383;stroke-linecap:butt;stroke-linejoin:miter;stroke-opacity:1;stroke-miterlimit:4;stroke-dasharray:none"
     d="M 2750.3467,9130.8383 L -263.19147,9130.8383"
     id="path1448"
     inkscape:export-filename="/home/martin/src/dev/rockbox-devel/manual/rockbox_interface/images/ondiofm-front.png"
     inkscape:export-xdpi="72"
     inkscape:export-ydpi="72" /><path
     style="fill:none;fill-opacity:0.75;fill-rule:evenodd;stroke:#000000;stroke-width:28.22222383;stroke-linecap:butt;stroke-linejoin:miter;stroke-opacity:1;stroke-miterlimit:4;stroke-dasharray:none"
     d="M 7369.3507,9130.8383 L 10198.655,9130.8383"
     id="path1450"
     inkscape:export-filename="/home/martin/src/dev/rockbox-devel/manual/rockbox_interface/images/ondiofm-front.png"
     inkscape:export-xdpi="72"
     inkscape:export-ydpi="72" /><path
     style="fill:none;fill-opacity:0.75;fill-rule:evenodd;stroke:#000000;stroke-width:28.22222383;stroke-linecap:butt;stroke-linejoin:miter;stroke-opacity:1;stroke-miterlimit:4;stroke-dasharray:none"
     d="M 3750.473,11091.612 L -78.957695,12920.79"
     id="path1452"
     inkscape:export-filename="/home/martin/src/dev/rockbox-devel/manual/rockbox_interface/images/ondiofm-front.png"
     inkscape:export-xdpi="72"
     inkscape:export-ydpi="72" /><path
     style="fill:none;fill-opacity:0.75;fill-rule:evenodd;stroke:#000000;stroke-width:28.22222383;stroke-linecap:butt;stroke-linejoin:miter;stroke-opacity:1;stroke-miterlimit:4;stroke-dasharray:none"
     d="M 5105.9072,10525.751 L 10224.974,11986.462"
     id="path1454"
     inkscape:export-filename="/home/martin/src/dev/rockbox-devel/manual/rockbox_interface/images/ondiofm-front.png"
     inkscape:export-xdpi="72"
     inkscape:export-ydpi="72" /><path
     style="fill:none;fill-opacity:0.75;fill-rule:evenodd;stroke:#000000;stroke-width:28.22222383;stroke-linecap:butt;stroke-linejoin:miter;stroke-opacity:1;stroke-miterlimit:4;stroke-dasharray:none"
     d="M 5105.9072,7749.0849 L 10198.655,6472.608"
     id="path1456"
     inkscape:export-filename="/home/martin/src/dev/rockbox-devel/manual/rockbox_interface/images/ondiofm-front.png"
     inkscape:export-xdpi="72"
     inkscape:export-ydpi="72" /><text
     xml:space="preserve"
     style="font-size:790.22229004px;font-style:normal;font-variant:normal;font-weight:normal;font-stretch:normal;text-align:start;line-height:100%;writing-mode:lr-tb;text-anchor:start;fill:#000000;fill-opacity:1;stroke:none;stroke-width:1px;stroke-linecap:butt;stroke-linejoin:miter;stroke-opacity:1;font-family:URW Palladio L"
     x="3789.9514"
     y="-475.63721"
     id="text1458"
     sodipodi:linespacing="100%"
     inkscape:export-filename="/home/martin/src/dev/rockbox-devel/manual/rockbox_interface/images/ondiofm-front.png"
     inkscape:export-xdpi="72"
     inkscape:export-ydpi="72"><tspan
       sodipodi:role="line"
       id="tspan1460"
       x="3789.9514"
       y="-475.63721">On/Off</tspan></text>
<text
     xml:space="preserve"
     style="font-size:790.22229004px;font-style:normal;font-variant:normal;font-weight:normal;font-stretch:normal;text-align:start;line-height:100%;writing-mode:lr-tb;text-anchor:start;fill:#000000;fill-opacity:1;stroke:none;stroke-width:1px;stroke-linecap:butt;stroke-linejoin:miter;stroke-opacity:1;font-family:URW Palladio L"
     x="10848.717"
     y="6686.5488"
     id="text1462"
     sodipodi:linespacing="100%"
     inkscape:export-filename="/home/martin/src/dev/rockbox-devel/manual/rockbox_interface/images/ondiofm-front.png"
     inkscape:export-xdpi="72"
     inkscape:export-ydpi="72"><tspan
       sodipodi:role="line"
       id="tspan1464"
       x="10848.717"
       y="6686.5488">Up</tspan></text>
<text
     xml:space="preserve"
     style="font-size:790.22229004px;font-style:normal;font-variant:normal;font-weight:normal;font-stretch:normal;text-align:start;line-height:100%;writing-mode:lr-tb;text-anchor:start;fill:#000000;fill-opacity:1;stroke:none;stroke-width:1px;stroke-linecap:butt;stroke-linejoin:miter;stroke-opacity:1;font-family:URW Palladio L"
     x="10861.875"
     y="9226.3428"
     id="text1466"
     sodipodi:linespacing="100%"
     inkscape:export-filename="/home/martin/src/dev/rockbox-devel/manual/rockbox_interface/images/ondiofm-front.png"
     inkscape:export-xdpi="72"
     inkscape:export-ydpi="72"><tspan
       sodipodi:role="line"
       id="tspan1468"
       x="10861.875"
       y="9226.3428">Right</tspan></text>
<text
     xml:space="preserve"
     style="font-size:790.22229004px;font-style:normal;font-variant:normal;font-weight:normal;font-stretch:normal;text-align:start;line-height:100%;writing-mode:lr-tb;text-anchor:start;fill:#000000;fill-opacity:1;stroke:none;stroke-width:1px;stroke-linecap:butt;stroke-linejoin:miter;stroke-opacity:1;font-family:URW Palladio L"
     x="10875.036"
     y="12331.999"
     id="text1470"
     sodipodi:linespacing="100%"
     inkscape:export-filename="/home/martin/src/dev/rockbox-devel/manual/rockbox_interface/images/ondiofm-front.png"
     inkscape:export-xdpi="72"
     inkscape:export-ydpi="72"><tspan
       sodipodi:role="line"
       id="tspan1472"
       x="10875.036"
       y="12331.999">Down</tspan></text>
<text
     xml:space="preserve"
     style="font-size:790.22229004px;font-style:normal;font-variant:normal;font-weight:normal;font-stretch:normal;text-align:start;line-height:100%;writing-mode:lr-tb;text-anchor:start;fill:#000000;fill-opacity:1;stroke:none;stroke-width:1px;stroke-linecap:butt;stroke-linejoin:miter;stroke-opacity:1;font-family:URW Palladio L"
     x="-2652.9878"
     y="13082.093"
     id="text1474"
     sodipodi:linespacing="100%"
     inkscape:export-filename="/home/martin/src/dev/rockbox-devel/manual/rockbox_interface/images/ondiofm-front.png"
     inkscape:export-xdpi="72"
     inkscape:export-ydpi="72"><tspan
       sodipodi:role="line"
       id="tspan1476"
       x="-2652.9878"
       y="13082.093">Mode</tspan></text>
<text
     xml:space="preserve"
     style="font-size:790.22229004px;font-style:normal;font-variant:normal;font-weight:normal;font-stretch:normal;text-align:start;line-height:100%;writing-mode:lr-tb;text-anchor:start;fill:#000000;fill-opacity:1;stroke:none;stroke-width:1px;stroke-linecap:butt;stroke-linejoin:miter;stroke-opacity:1;font-family:URW Palladio L"
     x="-2639.8281"
     y="9397.418"
     id="text1478"
     sodipodi:linespacing="100%"
     inkscape:export-filename="/home/martin/src/dev/rockbox-devel/manual/rockbox_interface/images/ondiofm-front.png"
     inkscape:export-xdpi="72"
     inkscape:export-ydpi="72"><tspan
       sodipodi:role="line"
       id="tspan1480"
       x="-2639.8281"
       y="9397.418">Left</tspan></text>
</g></svg>