<?xml version="1.0" encoding="UTF-8" standalone="no"?>
<!-- Created with Inkscape (http://www.inkscape.org/) -->

<svg
   xmlns:dc="http://purl.org/dc/elements/1.1/"
   xmlns:cc="http://creativecommons.org/ns#"
   xmlns:rdf="http://www.w3.org/1999/02/22-rdf-syntax-ns#"
   xmlns:svg="http://www.w3.org/2000/svg"
   xmlns="http://www.w3.org/2000/svg"
   xmlns:xlink="http://www.w3.org/1999/xlink"
   xmlns:sodipodi="http://sodipodi.sourceforge.net/DTD/sodipodi-0.dtd"
   xmlns:inkscape="http://www.inkscape.org/namespaces/inkscape"
   version="1.0"
   width="1052.3622"
   height="744.09448"
   id="svg2"
   inkscape:version="0.47 r22583"
   sodipodi:docname="cowond2-front.svg">
  <metadata
     id="metadata65">
    <rdf:RDF>
      <cc:Work
         rdf:about="">
        <dc:format>image/svg+xml</dc:format>
        <dc:type
           rdf:resource="http://purl.org/dc/dcmitype/StillImage" />
      </cc:Work>
    </rdf:RDF>
  </metadata>
  <sodipodi:namedview
     pagecolor="#ffffff"
     bordercolor="#666666"
     borderopacity="1"
     objecttolerance="10"
     gridtolerance="10"
     guidetolerance="10"
     inkscape:pageopacity="0"
     inkscape:pageshadow="2"
     inkscape:window-width="640"
     inkscape:window-height="481"
     id="namedview63"
     showgrid="false"
     inkscape:zoom="0.31716402"
     inkscape:cx="526.18109"
     inkscape:cy="372.04724"
     inkscape:window-x="0"
     inkscape:window-y="26"
     inkscape:window-maximized="0"
     inkscape:current-layer="layer1" />
  <defs
     id="defs4">
    <inkscape:perspective
       sodipodi:type="inkscape:persp3d"
       inkscape:vp_x="0 : 372.04724 : 1"
       inkscape:vp_y="0 : 1000 : 0"
       inkscape:vp_z="1052.3622 : 372.04724 : 1"
       inkscape:persp3d-origin="526.18109 : 248.03149 : 1"
       id="perspective67" />
    <linearGradient
       id="linearGradient3364">
      <stop
         id="stop3366"
         style="stop-color:#ccccb8;stop-opacity:1"
         offset="0" />
      <stop
         id="stop3368"
         style="stop-color:#ccccb8;stop-opacity:0"
         offset="1" />
    </linearGradient>
    <marker
       refX="0"
       refY="0"
       orient="auto"
       id="Arrow1Lstart"
       style="overflow:visible">
      <path
         d="M 0,0 L 5,-5 L -12.5,0 L 5,5 L 0,0 z"
         transform="scale(0.8,0.8)"
         id="path3963"
         style="fill-rule:evenodd;stroke:#000000;stroke-width:1pt;marker-start:none" />
    </marker>
    <linearGradient
       x1="25.319963"
       y1="381.54056"
       x2="1018.5609"
       y2="381.54056"
       id="linearGradient3370"
       xlink:href="#id0"
       gradientUnits="userSpaceOnUse" />
    <linearGradient
       x1="25.319963"
       y1="381.54056"
       x2="1018.5609"
       y2="381.54056"
       id="linearGradient3482"
       xlink:href="#id0"
       gradientUnits="userSpaceOnUse" />
    <linearGradient
       x1="17608"
       y1="4190.54"
       x2="17715.699"
       y2="4801.2798"
       id="linearGradient3484"
       xlink:href="#id0"
       gradientUnits="userSpaceOnUse" />
    <linearGradient
       x1="25.319963"
       y1="381.54056"
       x2="1018.5609"
       y2="381.54056"
       id="linearGradient3529"
       xlink:href="#id0"
       gradientUnits="userSpaceOnUse" />
    <linearGradient
       x1="25.319963"
       y1="381.54056"
       x2="1018.5609"
       y2="381.54056"
       id="linearGradient2509"
       xlink:href="#id0"
       gradientUnits="userSpaceOnUse" />
    <linearGradient
       x1="17608"
       y1="4190.54"
       x2="17715.699"
       y2="4801.2798"
       id="linearGradient2511"
       xlink:href="#id0"
       gradientUnits="userSpaceOnUse" />
    <linearGradient
       inkscape:collect="always"
       xlink:href="#id0"
       id="linearGradient2916"
       gradientUnits="userSpaceOnUse"
       x1="25.319963"
       y1="381.54056"
       x2="1018.5609"
       y2="381.54056"
       gradientTransform="matrix(0.8521418,0,0,0.8521418,81.042143,106.25654)" />
  </defs>
  <g
     id="g2936">
    <g
       transform="matrix(0.8521418,0,0,0.8521418,98.626022,107.60915)"
       id="g3183">
      <path
         d="m 551.24853,21.356682 325.1151,0.002 c 0.59995,-0.176418 9.3025,0.2435 9.22537,7.611608 l -343.81418,0 c 0.14397,-7.733868 9.47371,-7.613642 9.47371,-7.613642 z"
         id="path3184"
         style="fill:#ccccb7;fill-opacity:1;stroke:none" />
      <rect
         width="2.6422641"
         height="6.8624387"
         x="664.5957"
         y="21.534378"
         id="rect3192"
         style="fill:#999989;fill-opacity:1;stroke:none" />
      <rect
         width="2.6422641"
         height="6.8624387"
         x="780.5611"
         y="21.375729"
         id="rect3200"
         style="fill:#9a9a8a;fill-opacity:1;stroke:none" />
    </g>
    <rect
       width="815.27655"
       height="565.70227"
       x="118.17116"
       y="148.53206"
       id="rect2387"
       style="fill:#cdcdb9;fill-opacity:1;fill-rule:evenodd;stroke:url(#linearGradient2916);stroke-width:31.10563087;stroke-linecap:round;stroke-linejoin:round;stroke-miterlimit:4;stroke-opacity:1;stroke-dasharray:none" />
    <rect
       width="747.54413"
       height="552.22522"
       x="122.88006"
       y="155.85983"
       id="rect4179"
       style="fill:#000000;fill-opacity:1;stroke:#000000;stroke-width:22.88061714;stroke-linecap:round;stroke-linejoin:round;stroke-miterlimit:4;stroke-opacity:1;stroke-dasharray:none" />
    <rect
       width="544.16064"
       height="403.09698"
       x="224.35286"
       y="215.84889"
       id="rect4183"
       style="fill:#323232;fill-opacity:1;stroke:#323232;stroke-width:20.09409904;stroke-linecap:round;stroke-linejoin:round;stroke-miterlimit:4;stroke-opacity:1;stroke-dasharray:none" />
    <rect
       width="190.6277"
       height="45.574421"
       x="394.51166"
       y="657.32977"
       id="rect4185"
       style="fill:#4d4d4d;fill-opacity:1;stroke:none" />
    <text
       x="164.1747"
       y="-863.52203"
       transform="matrix(0,0.95731612,-1.044587,0,0,0)"
       id="text4191"
       xml:space="preserve"
       style="font-size:23.84078789px;font-style:normal;font-weight:normal;fill:#747374;fill-opacity:1;stroke:none;font-family:Bitstream Vera Sans"><tspan
         x="164.1747"
         y="-863.52203"
         id="tspan4193">PORTABLE MULTIMEDIA PLAYER</tspan></text>
    <rect
       width="2.1953514"
       height="144.34415"
       x="909.73572"
       y="552.19214"
       id="rect4215"
       style="fill:#34331c;fill-opacity:1;stroke:#f7f7f7;stroke-width:18.42164993;stroke-linecap:round;stroke-linejoin:round;stroke-miterlimit:4;stroke-opacity:1;stroke-dasharray:none" />
    <path
       d="m 428.65412,666.83792 c -8.45469,0 -15.32025,6.06014 -15.32025,13.53196 0,7.47179 6.86556,13.539 15.32025,13.539 4.09833,0 7.82088,-1.42769 10.56951,-3.74784 l -2.40289,-2.12544 c -2.13441,1.77792 -5.00446,2.86933 -8.16662,2.86933 -6.57979,0 -11.92011,-4.72021 -11.92011,-10.53505 0,-5.81487 5.34032,-10.53509 11.92011,-10.53509 3.214,0 6.12412,1.13154 8.26872,2.96145 l 2.37931,-2.14669 c -2.75602,-2.35765 -6.51072,-3.81163 -10.64803,-3.81163 z m 24.98671,0.0567 c -8.4547,0 -15.32025,6.06014 -15.32025,13.53192 0,7.4718 6.86555,13.53904 15.32025,13.53904 8.4547,0 15.31241,-6.06724 15.31241,-13.53904 0,-7.47178 -6.85771,-13.53192 -15.31241,-13.53192 z m 69.23563,0.94227 c -7.93494,0 -14.37797,5.69057 -14.37797,12.70302 0,7.01247 6.443,12.70303 14.37797,12.70303 7.93495,0 14.37008,-5.69056 14.37008,-12.70303 0,-7.01245 -6.43513,-12.70302 -14.37008,-12.70302 z m -48.96831,1.09107 -6.71389,0.11335 11.2998,22.94053 2.44995,0 7.84466,-14.60882 7.84467,14.60882 2.57564,0 11.36257,-23.05388 -6.71389,0.0567 -5.9679,12.51882 -6.3998,-12.51882 -5.21408,0 -6.33698,12.46213 -6.03075,-12.51879 z m 71.63066,0.0567 -5.77944,0.0567 0,22.82717 6.28201,0.0567 0,-13.99245 13.74188,13.76574 5.46536,0.11337 0,-22.77051 -6.28201,0 0,13.31232 -13.4278,-13.369 z m -91.89798,0.90688 c 6.57983,0 11.92012,4.72021 11.92012,10.53504 0,5.81487 -5.34029,10.53509 -11.92012,10.53509 -6.57983,0 -11.92012,-4.72022 -11.92012,-10.53509 0,-5.81483 5.34029,-10.53504 11.92012,-10.53504 z m -24.98671,1.98373 c -5.30629,0 -9.61146,3.80526 -9.61146,8.49466 0,4.68941 4.30517,8.49463 9.61146,8.49463 2.52217,0 4.8183,-0.86142 6.53331,-2.26713 l -2.45785,-2.16084 c -1.08535,0.85279 -2.51008,1.37445 -4.07546,1.37445 -3.39603,0 -6.15635,-2.43989 -6.15635,-5.44111 0,-3.00122 2.76032,-5.43403 6.15635,-5.43403 1.64292,0 3.1296,0.57433 4.23252,1.50196 l 2.42642,-2.18919 c -1.72794,-1.46904 -4.07332,-2.3734 -6.65894,-2.3734 z m 24.98671,0.0567 c -5.3063,0 -9.61149,3.80522 -9.61149,8.49463 0,4.6894 4.30519,8.49466 9.61149,8.49466 5.3063,0 9.61146,-3.80526 9.61146,-8.49466 3e-5,-4.68941 -4.30516,-8.49463 -9.61146,-8.49463 z m 69.23563,1.49488 c 4.44083,0 8.04881,3.18855 8.04881,7.11312 0,3.92457 -3.60798,7.10604 -8.04881,7.10604 -4.44086,0 -8.04099,-3.18147 -8.04099,-7.10604 0,-3.92457 3.60013,-7.11312 8.04099,-7.11312 z m -69.23563,1.56572 c 3.39603,3e-5 6.14852,2.43281 6.14852,5.43403 0,3.00122 -2.75249,5.44113 -6.14852,5.44113 -3.39602,0 -6.15636,-2.43991 -6.15636,-5.44113 0,-3.00122 2.76034,-5.43403 6.15636,-5.43403 z"
       id="path24992"
       style="fill:#cccccc;fill-opacity:1;fill-rule:nonzero;stroke:none" />
    <g
       transform="matrix(0.8521418,0,0,0.8521418,98.626022,107.60915)"
       id="g3178">
      <g
         transform="matrix(3.5937779,0,0,3.5937779,2.6007879,-33.755598)"
         id="g3204"
         style="fill:#cdcdb9;fill-opacity:1">
        <path
           d="m 46.49599,14.610826 30.3754,7.17e-4 c 0.06802,-0.06231 4.18341,-0.533066 4.35346,2.776757 l -38.97638,0 c 0.23981,-3.350571 4.24752,-2.777474 4.24752,-2.777474 z"
           id="rect3168"
           style="fill:#cdcdb9;fill-opacity:1;stroke:none" />
      </g>
      <rect
         width="11.358426"
         height="6.3422699"
         x="218.12448"
         y="13.014067"
         id="rect3172"
         style="fill:#ccccb7;fill-opacity:1;stroke:none" />
    </g>
    <g
       transform="matrix(0.0272783,0,0,0.0272783,223.60219,226.64404)"
       id="Ebene_x0020_1">
      <defs
         id="defs3272">
        <linearGradient
           x1="17608"
           y1="4190.54"
           x2="17715.699"
           y2="4801.2798"
           id="id0"
           gradientUnits="userSpaceOnUse">
          <stop
             id="stop3275"
             style="stop-color:#ccccb8;stop-opacity:1"
             offset="0" />
          <stop
             id="stop3277"
             style="stop-color:#ccccb8;stop-opacity:1"
             offset="0.97000003" />
          <stop
             id="stop3279"
             style="stop-color:#87877a;stop-opacity:1"
             offset="1" />
        </linearGradient>
      </defs>
      <path
         d="m 0,6195.9 20000,0 L 20000,4.1 0,4.1 0,6195.9 z"
         id="path3281"
         style="fill:#000000" />
      <path
         d="m 1264.81,5837.39 c 0,-86.99 -70.52,-157.51 -157.51,-157.51 -86.98,0 -157.49,70.52 -157.49,157.51 0,86.99 70.51,157.5 157.49,157.5 86.99,0 157.51,-70.51 157.51,-157.5 z m 494.75,-131.84 c 63.3,-43.08 147.4,-30.89 197.03,28.56 49.63,59.41 49.63,147.94 0,207.38 -49.63,59.44 -133.73,71.61 -197.03,28.55 l 0,130.52 -83.43,0 0,-413.02 83.43,0 0,18.01 0,0 z m 952.53,131.82 c 0,-86.99 -70.51,-157.5 -157.51,-157.5 -86.97,0 -157.49,70.51 -157.49,157.5 0,87 70.52,157.51 157.49,157.51 44.83,0 85.31,-18.72 114,-48.8 l -60.27,-57.51 60.27,57.51 -60.27,-57.51 c -15.45,16.22 -37.42,24.57 -59.76,22.73 -22.33,-1.86 -42.62,-13.7 -55.22,-32.24 l 213.2,0 c 3.65,-13.29 5.56,-27.24 5.56,-41.69 l 0,0 z m 5231.37,0 c 0,-86.99 -70.51,-157.5 -157.5,-157.5 -86.98,0 -157.49,70.51 -157.49,157.5 0,87 70.51,157.51 157.49,157.51 44.82,0 85.31,-18.72 113.99,-48.8 l -60.26,-57.51 60.26,57.51 -60.26,-57.51 c -15.46,16.22 -37.43,24.57 -59.77,22.73 -22.32,-1.86 -42.62,-13.7 -55.22,-32.24 l 213.21,0 c 3.65,-13.29 5.55,-27.24 5.55,-41.69 l 0,0 z m 3112.91,0 c 0,-86.99 -70.51,-157.5 -157.5,-157.5 -86.98,0 -157.49,70.51 -157.49,157.5 0,87 70.51,157.51 157.49,157.51 44.82,0 85.31,-18.72 113.99,-48.8 l -60.26,-57.51 60.26,57.51 -60.26,-57.51 c -15.46,16.22 -37.43,24.57 -59.77,22.73 -22.32,-1.86 -42.62,-13.7 -55.22,-32.24 l 213.21,0 c 3.65,-13.29 5.55,-27.24 5.55,-41.69 l 0,0 z m 7955.74,0 c 0,-86.99 -70.52,-157.5 -157.51,-157.5 -86.98,0 -157.49,70.51 -157.49,157.5 0,87 70.51,157.51 157.49,157.51 44.82,0 85.31,-18.72 113.99,-48.8 l -60.26,-57.51 60.26,57.51 -60.26,-57.51 c -15.46,16.22 -37.43,24.57 -59.77,22.73 -22.32,-1.86 -42.61,-13.7 -55.22,-32.24 l 213.21,0 c 3.65,-13.29 5.56,-27.24 5.56,-41.69 l 0,0 z m -15617.1,-23.4 c 0,-50.44 -24.57,-96.61 -63.6,-119.5 -39.03,-22.88 -85.89,-18.59 -121.3,11.08 l 0,-18.01 -83.43,0 0,300.52 83.43,0 0,-174.09 c 0,-28.02 22.71,-50.73 50.74,-50.73 28.01,0 50.73,22.71 50.73,50.73 l 0,174.09 83.43,0 0,-174.09 0,0 z m 1206.35,-38.9 c 0,-39.91 -30.09,-75.57 -75.33,-89.34 -45.25,-13.76 -96.08,-2.73 -127.31,27.67 -31.24,30.4 -36.25,73.69 -12.57,108.44 11.95,16.72 29,29.06 48.61,35.21 22.19,7.44 44.85,13.47 67.8,18.1 18.81,3.67 28.72,13.05 23.23,21.96 -5.48,8.9 -24.72,14.6 -45.01,13.35 -20.29,-1.26 -35.41,-9.09 -35.41,-18.33 l 0,-8.88 -83.34,0 0,8.88 c 0,44.23 33.71,83.59 83.94,97.96 50.22,14.37 105.86,0.58 138.46,-34.34 32.61,-34.89 35.01,-83.24 5.98,-120.28 -16.79,-19.64 -39.95,-32.74 -65.41,-37.03 -20.15,-3.76 -40.07,-8.62 -59.69,-14.51 -10.89,-3.62 -13.79,-9.54 -7.01,-14.37 6.79,-4.82 21.49,-7.28 35.62,-5.98 14.14,1.29 24.08,6.05 24.08,11.49 l 0,4.15 83.36,0 0,-4.15 0,0 z m 725.63,62.32 c 0,-86.99 -70.51,-157.51 -157.5,-157.51 -87,0 -157.51,70.52 -157.51,157.51 0,86.99 70.51,157.5 157.51,157.5 86.99,0 157.5,-70.51 157.5,-157.5 z m 413.08,24.23 0,-174.08 83.43,0 0,174.08 c 0,28.02 22.73,50.73 50.74,50.73 28.02,0 50.73,-22.71 50.73,-50.73 l 0,-174.08 83.44,0 0,300.52 -83.44,0 0,-18.02 c -35.4,29.68 -82.26,33.95 -121.29,11.08 -39.03,-22.88 -63.61,-69.05 -63.61,-119.5 l 0,0 z m 771.83,-156.07 0,-18.01 -83.43,0 0,300.52 83.43,0 0,-150.67 c 0,-19.67 7.8,-38.53 21.72,-52.43 13.9,-13.92 32.77,-21.72 52.43,-21.72 l 0,-83.1 c -26.42,1.57 -51.98,10.33 -74.15,25.41 l 0,0 z m 733.98,23.11 c -28.68,-30.04 -69.17,-48.79 -113.99,-48.79 -86.96,0 -157.48,70.49 -157.49,157.47 0,0.02 0,0.02 0,0.03 0.01,86.98 70.53,157.48 157.49,157.48 44.82,0 85.31,-18.76 113.99,-48.8 l -60.28,-57.51 c -13.5,14.12 -32.56,22.95 -53.63,22.95 -40.94,0 -74.13,-33.18 -74.15,-74.12 0,-0.01 0,-0.01 0,-0.03 0.02,-40.93 33.21,-74.12 74.15,-74.12 21.07,0 40.13,8.83 53.63,22.95 l 60.28,-57.51 0,0 z m 9655.7,108.5 -43.02,-149.62 -74.45,0 -43,149.62 -43,-149.62 -86.74,0 86.37,300.52 86.74,0 36.86,-128.28 36.87,128.28 86.72,0 86.37,-300.52 -86.72,0 -43,149.62 m -2117.59,-247.47 -83.42,0 0,83.35 83.42,0 0,-83.35 m 0,97.85 -83.42,0 0,300.52 83.42,0 0,-300.52 m -1728.64,150.39 92.85,150.13 -98.22,0 -43.74,-70.73 -43.75,70.73 -98.22,0 92.86,-150.13 -93.03,-150.39 98.23,0 43.91,70.99 43.9,-70.99 98.24,0 -93.03,150.39 m -2794.46,-150.39 -76.47,123.65 0,-221.5 -83.44,0 0,398.37 83.44,0 0,-125.34 93.96,125.34 104.19,0 -114.71,-152.98 91.27,-147.54 -98.24,0 m -1270.95,-97.85 -83.44,0 0,83.35 83.44,0 0,-83.35 m 0,413.02 0,-315.17 -83.44,0 0,315.25 c 0,7.96 -6.46,14.41 -14.42,14.41 l -23.62,0 0,83.36 23.62,0 c 54.05,0 97.86,-43.82 97.86,-97.85 m 3512.76,-165.32 c 0,-86.99 -70.53,-157.51 -157.5,-157.51 -86.99,0 -157.51,70.52 -157.51,157.51 0,86.99 70.52,157.5 157.51,157.5 86.97,0 157.5,-70.51 157.5,-157.5 z m -2905.06,132.65 0,18.02 83.42,0 0,-300.52 -83.42,0 0,174.08 c 0,28.02 -22.73,50.73 -50.74,50.73 -28.03,0 -50.73,-22.71 -50.73,-50.73 l 0,-174.08 -83.44,0 0,174.08 c 0,50.45 24.56,96.62 63.59,119.5 39.03,22.87 85.91,18.6 121.32,-11.08 l 0,0 z m 1951.87,-264.49 0,-115.86 -83.43,0 0,398.37 83.43,0 0,-18.02 c 63.31,43.06 147.39,30.89 197.02,-28.55 49.65,-59.45 49.65,-147.95 0,-207.38 -49.63,-59.45 -133.71,-71.64 -197.02,-28.56 l 0,0 z m 2737.53,-32.51 -69.25,0 c -1.86,-0.16 -3.69,0.5 -5.02,1.83 -1.31,1.31 -1.98,3.15 -1.81,5.01 l 0,7.66 0,0 38.04,0 0,83.35 -38.04,0 0,217.17 -83.43,0 0,-217.17 -38.04,0 0,-83.35 38.04,0 c 0,-54.04 43.8,-97.85 97.83,-97.85 l 61.68,0 0,83.35 z m 1075.99,7.1 0,83.1 c -19.67,0 -38.53,7.8 -52.44,21.72 -13.91,13.9 -21.71,32.76 -21.71,52.43 l 0,150.67 -83.44,0 0,-300.52 83.44,0 0,18.01 c 22.16,-15.08 47.72,-23.84 74.15,-25.41 l 0,0 z m 489.06,25.41 0,-18.01 -83.44,0 0,300.52 83.44,0 0,-174.09 c 0,-28.02 22.71,-50.73 50.74,-50.73 28.01,0 50.73,22.71 50.73,50.73 l 0,174.09 83.44,0 0,-174.09 c 0,-28.02 22.71,-50.73 50.73,-50.73 28.01,0 50.74,22.71 50.74,50.73 l 0,174.09 83.42,0 -0.02,-174.09 c 0,-52.92 -31.13,-100.91 -79.43,-122.48 -48.32,-21.57 -104.82,-12.75 -144.23,22.57 -40.89,-42.15 -101.76,-45.69 -146.12,-8.51 l 0,0 z m 1784.76,0 0,-18.01 83.44,0 0,300.52 -83.44,0 0,-18.02 c -63.3,43.06 -147.38,30.89 -197.01,-28.55 -49.65,-59.45 -49.65,-147.95 0,-207.38 49.63,-59.45 133.71,-71.64 197.01,-28.56 l 0,0 z m 672.64,-25.41 0,83.1 c -19.66,0 -38.53,7.8 -52.43,21.72 -13.92,13.9 -21.73,32.76 -21.73,52.43 l 0,150.67 -83.42,0 0,-300.52 83.42,0 0,18.01 c 22.16,-15.08 47.74,-23.84 74.16,-25.41 l 0,0 z"
         id="path3283"
         style="fill:#ffffff" />
      <path
         d="m 1181.47,5837.39 c 0,-40.95 -33.2,-74.15 -74.17,-74.15 -40.95,0 -74.15,33.2 -74.15,74.15 0,40.95 33.2,74.15 74.15,74.15 40.97,0 74.17,-33.2 74.17,-74.15 z m 9656.09,-41.67 122.68,0 c -13.81,-20.33 -36.77,-32.48 -61.34,-32.48 -24.57,0 -47.53,12.15 -61.34,32.48 m -3112.86,0 122.67,0 c -13.8,-20.33 -36.78,-32.48 -61.33,-32.48 -24.57,0 -47.53,12.15 -61.34,32.48 m -2481.07,41.67 c 0,-40.95 -33.2,-74.15 -74.15,-74.15 -40.95,0 -74.15,33.2 -74.15,74.15 0,40.95 33.2,74.15 74.15,74.15 40.95,0 74.15,-33.2 74.15,-74.15 z m 7175.71,0 c 0,-40.95 -33.2,-74.15 -74.15,-74.15 -40.97,0 -74.17,33.2 -74.17,74.15 0,40.95 33.2,74.15 74.17,74.15 40.95,0 74.15,-33.2 74.15,-74.15 z m -721.52,0 c 0,-40.95 -33.2,-74.15 -74.17,-74.15 -40.95,0 -74.15,33.2 -74.15,74.15 0,40.95 33.2,74.15 74.15,74.15 40.97,0 74.17,-33.2 74.17,-74.15 z m -9789.95,0.81 c 0,-40.95 -33.2,-74.16 -74.15,-74.16 -40.95,0 -74.16,33.21 -74.16,74.16 0,40.96 33.21,74.15 74.16,74.15 40.95,0 74.15,-33.19 74.15,-74.15 z m 585.46,-42.48 122.67,0 c -13.8,-20.33 -36.77,-32.48 -61.34,-32.48 -24.56,0 -47.53,12.15 -61.33,32.48 m 16300,0 122.68,0 c -13.81,-20.33 -36.77,-32.48 -61.34,-32.48 -24.57,0 -47.53,12.15 -61.34,32.48 m -1156.45,41.67 c 0,-40.95 -33.2,-74.15 -74.15,-74.15 -40.96,0 -74.16,33.2 -74.16,74.15 0,40.95 33.2,74.15 74.16,74.15 40.95,0 74.15,-33.2 74.15,-74.15 z"
         id="path3285"
         style="fill:#000000" />
      <path
         d="m 118.4,148.81 19743.5,0 0,5259.14 -19743.5,0 0,-5259.14"
         id="path3287"
         style="fill:#ffc000" />
      <path
         d="m 15635.5,5091.93 0,0 m 4173.41,-864.09 53.01,0 0,30.11 -22.9,0 0,120.43 -30.11,0 0,-150.54 m -150.54,0 90.33,0 0,30.11 -90.33,0 0,-30.11 m 0,120.43 90.33,0 0,30.11 -90.33,0 0,-30.11 m -210.77,-120.43 0,0 0,0 0,0 0,0 m 60.22,30.11 30.1,0 0,120.43 -30.1,0 0,-120.43 m 30.1,-30.11 30.11,0 0,30.11 -30.11,0 0,-30.11 m 30.11,30.11 30.13,0 0,120.43 -30.13,0 0,-120.43 m -120.43,-30.11 60.22,0 0,30.11 -30.11,0 0,120.43 -30.11,0 0,-150.54 m -60.22,-30.12 30.11,0 0,60.23 -30.11,0 0,-60.23 m 0,90.34 30.11,0 0,60.21 -30.11,0 0,-60.21 m -240.88,-60.22 30.13,0 0,60.22 -30.13,0 0,-60.22 m -215.57,0 30.11,0 0,30.11 -30.11,0 0,-30.11 m -90.33,60.22 30.11,0 0,60.21 -30.11,0 0,-60.21 m -115.88,60.21 115.88,0 0,30.11 -115.88,0 0,-30.11 m -120.43,-90.32 30.11,0 0,30.11 -30.11,0 0,-30.11 m -30.11,-90.34 90.32,0 0,30.11 -90.32,0 0,-30.11 m 0,180.66 90.32,0 0,30.11 -90.32,0 0,-30.11 m -150.54,-180.66 60.22,0 0,30.11 -60.22,0 0,-30.11 m -30.11,30.11 30.11,0 0,30.12 -30.11,0 0,-30.12 m 90.33,90.34 30.1,0 0,60.21 -30.1,0 0,-60.21 m 813.2,-388.16 120.43,0 0,30.11 -120.43,0 0,-30.11 m -30.11,30.11 30.11,0 0,30.11 -30.11,0 0,-30.11 m 30.11,30.11 90.32,0 0,30.11 -90.32,0 0,-30.11 m 90.32,30.11 30.11,0 0,30.11 -30.11,0 0,-30.11 m -120.43,30.11 120.43,0 0,30.1 -120.43,0 0,-30.1 m 180.65,-120.44 30.11,0 0,120.44 -30.11,0 0,-120.44 m 30.11,180.65 90.32,0 0,30.11 -90.32,0 0,-30.11 m 150.55,-60.21 120.44,0 0,30.1 -120.44,0 0,-30.1 m 120.44,-30.11 30.1,0 0,30.11 -30.1,0 0,-30.11 m -90.33,-30.11 90.33,0 0,30.11 -90.33,0 0,-30.11 m -30.11,-30.11 30.11,0 0,30.11 -30.11,0 0,-30.11 m 30.11,-30.11 120.43,0 0,30.11 -120.43,0 0,-30.11 m -361.31,655.86 120.43,0 0,30.11 -120.43,0 0,-30.11 m -30.11,30.11 30.11,0 0,30.11 -30.11,0 0,-30.11 m 30.11,30.11 90.32,0 0,30.11 -90.32,0 0,-30.11 m 90.32,30.11 30.11,0 0,30.12 -30.11,0 0,-30.12 m -120.43,30.12 120.43,0 0,30.11 -120.43,0 0,-30.11 m -723.74,0 120.43,0 0,30.11 -120.43,0 0,-30.11 m 120.43,-30.12 30.11,0 0,30.12 -30.11,0 0,-30.12 m -90.32,-30.11 90.32,0 0,30.11 -90.32,0 0,-30.11 m -30.11,-30.11 30.11,0 0,30.11 -30.11,0 0,-30.11 m 30.11,-30.11 120.43,0 0,30.11 -120.43,0 0,-30.11 m -905.01,327.94 120.44,0 0,30.11 -120.44,0 0,-30.11 m -30.1,30.11 30.1,0 0,30.11 -30.1,0 0,-30.11 m 30.1,30.11 90.33,0 0,30.1 -90.33,0 0,-30.1 m 90.33,30.1 30.11,0 0,30.11 -30.11,0 0,-30.11 m -120.43,30.11 120.43,0 0,30.11 -120.43,0 0,-30.11 m -2000.23,0 120.43,0 0,30.11 -120.43,0 0,-30.11 m 120.43,-30.11 30.11,0 0,30.11 -30.11,0 0,-30.11 m -90.32,-30.1 90.32,0 0,30.1 -90.32,0 0,-30.1 m -30.11,-30.11 30.11,0 0,30.11 -30.11,0 0,-30.11 m 30.11,-30.11 120.43,0 0,30.11 -120.43,0 0,-30.11 m 3237.55,0 60.22,0 0,30.11 -30.11,0 0,120.43 -30.11,0 0,-150.54 m 120.43,30.11 30.11,0 0,120.43 -30.11,0 0,-120.43 m -30.11,-30.11 30.11,0 0,30.11 -30.11,0 0,-30.11 m -30.1,30.11 30.1,0 0,120.43 -30.1,0 0,-120.43 m -60.22,-30.11 0,0 0,0 0,0 0,0 m -2901.42,0 0,0 0,0 0,0 0,0 m 60.22,30.11 30.11,0 0,120.43 -30.11,0 0,-120.43 m 30.11,-30.11 30.11,0 0,30.11 -30.11,0 0,-30.11 m 30.11,30.11 30.1,0 0,120.43 -30.1,0 0,-120.43 m -120.44,-30.11 60.22,0 0,30.11 -30.11,0 0,120.43 -30.11,0 0,-150.54 m 3563.81,-863.36 0,-120.44 30.13,0 0,180.65 -30.13,0 0,-30.11 -90.32,0 0,-30.1 90.32,0 m -2355.45,979.24 0,-120.44 30.11,0 0,180.66 -30.11,0 0,-30.11 -90.33,0 0,-30.11 90.33,0 m -90.33,60.22 90.33,0 0,30.11 -90.33,0 0,-30.11 m -30.1,-180.66 30.1,0 0,120.44 -30.1,0 0,-120.44 m 2536.11,-621.19 30.11,0 0,30.11 90.33,0 0,-30.11 30.1,0 0,60.21 -120.43,0 0,30.11 -30.11,0 0,-90.32 m -541.97,327.92 30.11,0 0,30.11 90.34,0 0,-30.11 30.1,0 0,60.22 -120.44,0 0,30.12 -30.11,0 0,-90.34 m 30.11,90.34 90.34,0 0,30.11 -90.34,0 0,-30.11 m 0,-120.45 90.34,0 0,30.11 -90.34,0 0,-30.11 m -723.75,0 90.33,0 0,30.11 -90.33,0 0,-30.11 m 0,120.45 90.33,0 0,30.11 -90.33,0 0,-30.11 m -30.11,-90.34 30.11,0 0,30.11 90.33,0 0,-30.11 30.1,0 0,60.22 -120.43,0 0,30.12 -30.11,0 0,-90.34 m 1085.06,327.94 30.11,0 0,30.11 90.32,0 0,-30.11 30.13,0 0,60.21 -120.45,0 0,30.11 -30.11,0 0,-90.32 m 30.11,90.32 90.32,0 0,30.11 -90.32,0 0,-30.11 m 0,-120.43 90.32,0 0,30.11 -90.32,0 0,-30.11 m 361.31,0 22.9,0 0,30.11 -22.9,0 0,-30.11 m 0,120.43 22.9,0 0,30.11 -22.9,0 0,-30.11 m -30.11,-90.32 30.11,0 0,30.11 22.9,0 0,0 0,0 0,30.1 -22.9,0 0,30.11 -30.11,0 0,-90.32 m -4316.92,-30.11 90.32,0 0,30.11 -90.32,0 0,-30.11 m 0,120.43 90.32,0 0,30.11 -90.32,0 0,-30.11 m -30.11,-90.32 30.11,0 0,30.11 90.32,0 0,-30.11 30.11,0 0,60.21 -120.43,0 0,30.11 -30.11,0 0,-90.32 m 386.85,60.21 60.22,0 0,55.67 -60.22,0 0,-55.67 m 3628.98,-418.26 90.32,0 0,30.11 -90.32,0 0,-30.11 m -30.11,30.11 30.11,0 0,90.34 -30.11,0 0,-90.34 m 30.11,90.34 90.32,0 0,30.11 -90.32,0 0,-30.11 m 90.32,-30.12 30.13,0 0,30.12 -30.13,0 0,-30.12 m 90.34,-90.33 90.33,0 0,30.11 -90.33,0 0,-30.11 m -30.11,90.33 30.11,0 0,30.12 -30.11,0 0,-30.12 m -2418.24,0 30.1,0 0,30.12 -30.1,0 0,-30.12 m -90.33,30.12 90.33,0 0,30.11 -90.33,0 0,-30.11 m -30.12,-90.34 30.12,0 0,90.34 -30.12,0 0,-90.34 m 30.12,-30.11 90.33,0 0,30.11 -90.33,0 0,-30.11 m 1665.52,-60.21 30.11,0 0,30.1 -30.11,0 0,-30.1 m 180.65,120.43 30.1,0 0,30.11 -30.1,0 0,-30.11 m -904.41,-60.22 60.23,0 0,30.11 -60.23,0 0,-30.11 m 60.23,30.11 30.11,0 0,120.45 -30.11,0 0,-120.45 m -821.34,-30.11 85.78,0 0,30.11 -85.78,0 0,-30.11 m -30.11,30.11 30.11,0 0,90.34 -30.11,0 0,-90.34 m 30.11,90.34 85.78,0 0,30.11 -85.78,0 0,-30.11 m 85.78,-90.34 30.1,0 0,90.34 -30.1,0 0,-90.34 m 1451.89,327.94 30.11,0 0,90.32 -30.11,0 0,-90.32 m -85.76,90.32 85.76,0 0,30.11 -85.76,0 0,-30.11 m -30.11,-90.32 30.11,0 0,90.32 -30.11,0 0,-90.32 m 30.11,-30.11 85.76,0 0,30.11 -85.76,0 0,-30.11 m -751.02,-327.94 30.11,0 0,30.11 30.11,0 0,30.11 -30.11,0 0,90.34 -30.11,0 0,-150.56 m 1807.68,0 30.11,0 0,30.11 22.9,0 0,30.11 -22.9,0 0,90.34 -30.11,0 0,-150.56 m -1476.47,150.56 -30.11,0 0,-30.11 -30.11,0 0,-30.12 30.11,0 0,-90.33 30.11,0 0,150.56 m -120.44,-30.11 -30.1,0 0,-120.45 30.1,0 0,120.45 m 60.22,30.11 -60.22,0 0,-30.11 60.22,0 0,30.11 m -812.95,-150.56 30.11,0 0,30.11 30.11,0 0,30.11 -30.11,0 0,90.34 -30.11,0 0,-150.56 m 120.43,30.11 30.11,0 0,120.45 -30.11,0 0,-120.45 m -60.21,-30.11 60.21,0 0,30.11 -60.21,0 0,-30.11 m 901.56,327.94 60.21,0 0,30.11 -60.21,0 0,-30.11 m 60.21,30.11 30.11,0 0,120.43 -30.11,0 0,-120.43 m -120.43,-30.11 30.11,0 0,30.11 30.11,0 0,30.11 -30.11,0 0,90.32 -30.11,0 0,-150.54 m 996.45,150.54 -60.22,0 0,-30.11 60.22,0 0,30.11 m -60.22,-30.11 -30.11,0 0,-120.43 30.11,0 0,120.43 m 120.43,30.11 -30.11,0 0,-30.11 -30.1,0 0,-30.11 30.1,0 0,-90.32 30.11,0 0,150.54 m 361.31,0 -30.1,0 0,-30.11 -30.11,0 0,-30.11 30.11,0 0,-90.32 30.1,0 0,150.54 m -120.43,-30.11 -30.11,0 0,-120.43 30.11,0 0,120.43 m 60.22,30.11 -60.22,0 0,-30.11 60.22,0 0,30.11 m 30.11,-448.37 30.1,0 0,120.45 -120.43,0 0,-30.11 90.33,0 0,-30.12 -90.33,0 0,-30.11 90.33,0 0,-30.11 m -1448.09,327.94 30.11,0 0,120.43 -120.45,0 0,-30.11 90.34,0 0,-30.11 -90.34,0 0,-30.1 90.34,0 0,-30.11 m -120.44,60.21 30.1,0 0,30.11 -30.1,0 0,-30.11 m 30.1,-90.32 90.34,0 0,30.11 -90.34,0 0,-30.11 m -1268.68,0 90.34,0 0,30.11 -90.34,0 0,-30.11 m -30.11,90.32 30.11,0 0,30.11 -30.11,0 0,-30.11 m 120.45,-60.21 30.11,0 0,120.43 -120.45,0 0,-30.11 90.34,0 0,-30.11 -90.34,0 0,-30.1 90.34,0 0,-30.11 m 2355.45,-746.2 -120.43,0 0,210.77 120.43,0 0,-30.11 -90.32,0 0,-60.21 90.32,0 0,-30.11 -90.32,0 0,-60.23 90.32,0 0,-30.11 m -301.09,0 0,210.77 30.11,0 0,-150.54 30.1,0 0,-30.12 -30.1,0 0,-30.11 -30.11,0 m 150.55,0 0,210.77 -30.1,0 0,-150.54 -30.11,0 0,-30.12 30.11,0 0,-30.11 30.1,0 m -245.7,0 30.13,0 0,120.45 30.11,0 0,30.1 -30.11,0 0,60.22 -30.13,0 0,-60.22 -90.32,0 0,-60.21 30.11,0 0,30.11 60.21,0 0,-60.22 -30.1,0 0,-30.12 30.1,0 0,-30.11 m -266.42,0 0,30.11 85.78,0 0,30.12 30.1,0 0,-30.12 30.11,0 0,-30.11 -145.99,0 m 85.78,60.23 -30.11,0 0,30.11 -30.11,0 0,30.11 90.32,0 0,-30.11 -30.1,0 0,-30.11 m -266.43,-30.12 0,150.55 30.11,0 0,-30.11 30.11,0 0,-30.1 -30.11,0 0,-90.34 -30.11,0 m 120.43,0 0,30.12 -30.1,0 0,30.11 30.1,0 0,90.32 30.11,0 0,-150.55 -30.11,0 m -301.09,30.12 0,120.43 30.12,0 0,-60.21 90.33,0 0,-30.11 -90.33,0 0,-30.11 -30.12,0 m 30.12,120.43 90.33,0 0,30.11 -90.33,0 0,-30.11 m -1937.67,535.43 -30.11,0 0,30.11 -30.11,0 0,30.11 90.33,0 0,-30.11 -30.11,0 0,-30.11 m -85.78,-60.22 0,30.11 85.78,0 0,30.11 30.11,0 0,-30.11 30.11,0 0,-30.11 -146,0 m 0,180.65 115.89,0 0,30.11 -115.89,0 0,-30.11 m 115.89,-60.21 30.11,0 0,60.21 -30.11,0 0,-60.21 m 2419.67,-388.16 0,30.11 90.32,0 0,30.11 30.11,0 0,-30.11 30.11,0 0,-30.11 -150.54,0 m 30.11,90.33 30.11,0 0,30.12 90.32,0 0,30.11 -150.54,0 0,-30.11 30.11,0 0,-30.12 m -180.65,-90.33 60.22,0 0,120.45 30.1,0 0,30.11 -90.32,0 0,-30.11 30.11,0 0,-90.34 -30.11,0 0,-30.11 m -904.41,0 60.22,0 0,120.45 30.11,0 0,30.11 -90.33,0 0,-30.11 30.11,0 0,-90.34 -30.11,0 0,-30.11 m 30.11,-60.21 30.11,0 0,30.1 -30.11,0 0,-30.1 m -363.03,327.93 30.11,0 0,30.11 -30.11,0 0,-30.11 m -30.1,60.22 60.21,0 0,120.43 30.11,0 0,30.11 -90.32,0 0,-30.11 30.1,0 0,-90.32 -30.1,0 0,-30.11 m 272.7,-237.61 30.11,0 0,30.12 -30.11,0 0,-30.12 m -30.11,30.12 30.11,0 0,30.11 -30.11,0 0,-30.11 m -30.11,-180.66 30.11,0 0,60.21 30.11,0 0,30.11 -30.11,0 0,90.34 -30.11,0 0,-90.34 -30.12,0 0,-30.11 30.12,0 0,-60.21 m 178.94,327.93 30.1,0 0,60.22 30.11,0 0,30.11 -30.11,0 0,90.32 -30.1,0 0,-90.32 -30.13,0 0,-30.11 30.13,0 0,-60.22 m 30.1,180.65 30.11,0 0,30.11 -30.11,0 0,-30.11 m 30.11,-30.11 30.11,0 0,30.11 -30.11,0 0,-30.11 m 60.22,-90.32 30.11,0 0,30.11 30.1,0 0,30.11 -30.1,0 0,90.32 -30.11,0 0,-150.54 m 120.43,30.11 30.11,0 0,34.67 -30.11,0 0,-34.67 m -60.22,-30.11 60.22,0 0,30.11 -60.22,0 0,-30.11 m -756.83,-60.22 55.67,0 0,180.65 30.11,0 0,25.56 -85.78,0 0,-25.56 30.11,0 0,-150.54 -30.11,0 0,-30.11 m -537.41,0 55.67,0 0,180.65 30.11,0 0,25.56 -85.78,0 0,-25.56 30.11,0 0,-150.54 -30.11,0 0,-30.11 m 1806.1,60.22 60.21,0 0,30.11 -60.21,0 0,-30.11 m -30.11,30.11 30.11,0 0,90.32 -30.11,0 0,-90.32 m 90.32,0 30.11,0 0,-90.33 30.11,0 0,206.21 -120.43,0 0,-25.56 90.32,0 0,-60.21 -30.11,0 0,-30.11 m 454.49,0 30.11,0 0,90.32 -30.11,0 0,-90.32 m 30.11,-30.11 60.23,0 0,30.11 -60.23,0 0,-30.11 m 60.23,30.11 30.11,0 0,-30.11 30.1,0 0,206.21 -30.1,0 0,-60.22 -90.34,0 0,-25.56 90.34,0 0,-60.21 -30.11,0 0,-30.11 m -2506.01,-30.11 -60.22,0 0,30.11 60.22,0 0,-30.11 m -60.22,30.11 -30.11,0 0,-30.11 -30.12,0 0,206.21 30.12,0 0,-60.22 90.33,0 0,-25.56 -90.33,0 0,-60.21 30.11,0 0,-30.11 m 90.33,0 -30.11,0 0,90.32 30.11,0 0,-90.32 m -365.3,0 -30.13,0 0,90.32 30.13,0 0,-90.32 m -90.34,0 -30.11,0 0,-30.11 -30.11,0 0,206.21 30.11,0 0,-60.22 90.32,0 0,-25.56 -90.32,0 0,-60.21 30.11,0 0,-30.11 m 60.21,-30.11 -60.21,0 0,30.11 60.21,0 0,-30.11 m -669.8,208.23 0,0"
         id="path3289"
         style="fill:url(#linearGradient2511)" />
      <path
         d="M 5234.42,1660.15 C 4962.53,477.11 4258.53,425.63 4093,425.63 l 0,-69.17 c 367.1,0 960.4,261.95 1176.01,1161.06 276.21,-897.2 747.9,-1138.02 1078.96,-1142.58 315.47,-4.36 510.05,69.18 809.05,224.96 l 0,-140.4 863.25,0 0,-118.35 69.17,0 0,118.35 146.39,0 0,69.17 -146.39,0 0,1691.56 620.82,-1569.23 594.79,0 51.82,-122.33 -741.15,0 0,-69.17 770.48,0 81.45,-192.23 63.69,27 -70.02,165.23 163.95,0 0,69.17 -193.27,0 -483.81,1141.78 640.76,0 0,855.77 c 599.66,-295.14 1317.11,-78.6 1678.72,499.17 358.69,-552.88 1059.42,-773.2 1669.96,-525.06 l -24.3,-39.29 1031.92,0 206.15,333.27 201.33,-325.52 c 2.98,-4.82 8.25,-7.75 13.91,-7.75 l 0,0 c 5.92,0 11.38,3.21 14.26,8.39 2.9,5.18 2.76,11.5 -0.36,16.55 l -209.93,339.4 26.89,43.48 247.46,-400.07 c 2.98,-4.82 8.24,-7.75 13.9,-7.75 l 0,0 c 5.93,0 11.39,3.21 14.27,8.39 2.89,5.18 2.74,11.5 -0.38,16.55 l -256.03,413.94 26.9,43.49 298.36,-482.37 1031.91,0 -814.33,1316.54 26.91,43.48 859.24,-1389.16 -1071.99,0 c -5.92,0 -11.38,-3.21 -14.27,-8.38 -2.88,-5.19 -2.73,-11.51 0.39,-16.56 l 0,0 c 2.98,-4.8 8.23,-7.73 13.88,-7.73 l 1130.62,0 -852.55,1378.35 797.54,1289.43 c 3.12,5.03 3.27,11.37 0.39,16.54 -2.89,5.17 -8.35,8.39 -14.27,8.39 -5.67,0 -10.93,-2.93 -13.9,-7.75 l -788.98,-1275.56 -26.9,43.5 766.87,1239.81 -1031.9,0 -197.11,-318.68 -192.33,310.93 c -2.98,4.82 -8.23,7.75 -13.9,7.75 l 0,0 c -2.67,0 -5.31,-0.65 -7.67,-1.92 -2.37,1.27 -5.01,1.92 -7.69,1.92 -5.92,0 -11.38,-3.22 -14.28,-8.39 -2.88,-5.17 -2.74,-11.51 0.38,-16.54 l 208.58,-337.23 -26.89,-43.48 -246.12,397.89 c -2.97,4.82 -8.23,7.75 -13.9,7.75 -5.92,0 -11.38,-3.22 -14.27,-8.39 -2.88,-5.17 -2.73,-11.51 0.37,-16.54 l 254.7,-411.78 -26.89,-43.48 -297.02,480.19 -1031.92,0 30.2,-48.83 c -611.03,252.4 -1315.19,33.86 -1675.96,-520.16 -361.12,579.18 -1079.51,791.1 -1679.97,495.58 l 0,73.41 -876.79,0 0,-6.58 -144.74,0 63.21,178.44 -65.2,23.09 -71.39,-201.53 -277.95,0 0,-69.17 253.45,0 -516.42,-1457.72 -30.52,74.35 0,1459.12 -571.89,0 0,-4440.94 571.89,0 0,1990.95 97.67,-246.87 0,-1866.41 -794.08,0 0,202.17 C 6881.71,499.2 6650.87,444.12 6347.97,444.12 c -239.83,0 -766.14,174.81 -1044.38,1216.03 l -69.17,0 0,0 z m 1238.75,3525.13 -1090.37,0.06 0,-69.18 744.62,0 c -567.44,-251.97 -814.69,-1163.74 -814.69,-2244.69 0,-1274.43 343.54,-2313.86 1150.54,-2313.86 370.86,0 581.57,190.51 762.92,364.11 l 0,113.24 c 0.06,0.11 0.13,0.21 0.19,0.31 l -0.05,959.67 -61.61,0 c -133.69,-243.61 -379.5,-585.74 -633.38,-585.74 -423.12,0 -632.42,655.3 -627.1,1462.27 -5.32,806.98 203.98,1462.28 627.1,1462.28 253.88,0 499.69,-342.13 633.38,-585.75 l 61.61,0 0.05,959.68 c -0.06,0.1 -0.13,0.19 -0.19,0.3 l 0,113.25 c -179.72,172.04 -388.33,360.68 -753.02,364.05 z M 4084.63,557.61 c 800.07,0 1140.66,1091.14 1140.66,2313.86 0,1222.73 -340.59,2313.87 -1140.66,2313.87 -800.07,0 -1140.65,-1039.43 -1140.65,-2313.87 0,-1274.43 340.58,-2313.86 1140.65,-2313.86 l 0,0 z M 2092.78,651 l -1041.74,0 0,2579 c 6.74,18.03 13.42,36.06 20.05,54.13 46.78,-12.8 95.31,-17.99 143.72,-15.41 94.74,5.08 180.1,58.83 225.6,142.07 41.13,75.24 60.7,160.36 56.57,245.99 -1.73,35.79 -11.15,70.79 -27.63,102.61 -40.47,78.17 -102.93,142.77 -179.67,185.85 25.96,88.13 50.77,176.58 74.44,265.35 45.27,169.84 66.54,345.17 63.14,520.92 -0.88,45.32 -10.71,90.04 -28.94,131.55 -18.69,42.53 -51.42,77.36 -92.74,98.65 -29.98,15.44 -64.95,17.98 -96.84,7.06 -31.9,-10.92 -57.97,-34.37 -72.2,-64.94 -16.55,-35.6 -24.66,-74.53 -23.67,-113.79 0.55,-22.08 11.22,-42.69 28.94,-55.9 22.34,-16.66 49.78,-25.02 77.61,-23.69 18.27,0.9 34.64,11.56 42.83,27.93 8.18,16.35 6.88,35.86 -3.37,51.01 -12.63,18.66 -31.16,32.56 -52.62,39.46 l 7.35,16.01 c 3.46,9.08 11.14,15.91 20.59,18.24 9.44,2.34 19.43,-0.09 26.73,-6.51 35.94,-30.62 58.33,-74.2 62.27,-121.25 5.2,-81.09 3.49,-162.46 -5.13,-243.25 -25.27,-172.56 -62.87,-343.11 -112.53,-510.3 -12.75,4.05 -25.68,7.52 -38.74,10.44 -38.23,8.5 -76.87,15.12 -115.76,19.84 l 0,1079.87 697.19,0 0,144.42 69.17,0 0,-144.42 148.54,0 0,-69.17 -148.54,0 0,-1557.18 66.8,0 608.45,1626.35 668.19,0 60.39,154.11 64.4,-25.24 -60.04,-153.21 208.48,0 0,-69.17 -235.58,0 -719.55,-1836.41 C 2743.8,2888.85 2895.75,2477.67 2895.75,1955.48 2895.75,1255.6 2706.28,651 2092.78,651 l 0,0 z m -917.66,3233.37 c -39.71,16.35 -81.45,27.32 -124.08,32.59 l 0,-393.54 c 42.92,119.28 84.14,239.17 123.65,359.62 0.15,0.45 0.29,0.88 0.43,1.33 0,0 0,0 0,0 0,0 0,0 0,0 0,0 0,0 0,0 m -65.29,-493.05 c 13.58,-3.73 27.34,-6.89 41.19,-9.47 43.45,-8.08 88.31,2.42 123.65,28.94 32.18,24.15 55.33,58.38 65.82,97.23 23.35,86.59 18.26,178.4 -14.52,261.89 -6.87,17.52 -18.21,32.94 -32.88,44.73 -11.26,9.05 -22.92,17.58 -34.94,25.58 -46.11,-150.72 -95.57,-300.4 -148.32,-448.9 m -58.79,525.64 c -10.92,1.34 -21.89,2.32 -32.88,2.91 -119.79,6.51 -231.2,-61.49 -280.19,-171 -86.95,-194.38 -99.58,-413.88 -35.52,-616.95 22.5,-71.28 45.73,-142.32 69.72,-213.11 6.63,-19.58 13.34,-39.15 20.12,-58.71 64.3,152.74 125.78,306.66 184.38,461.68 -83.5,44.73 -150.88,114.51 -192.66,199.51 -6.9,14.05 -4.2,30.93 6.76,42.11 10.95,11.18 27.77,14.23 41.96,7.62 12.33,-8.89 23.76,-18.93 34.16,-30 42.21,-46.84 92.8,-85.4 149.16,-113.72 11.79,32 23.44,64.03 34.99,96.12 l 0,-293.42 c -55.46,-148.43 -114.22,-295.6 -176.26,-441.4 -10.28,-24.15 -20.77,-48.21 -31.47,-72.15 12.91,-35.44 26.03,-70.82 39.35,-106.1 19.03,-50.37 33.55,-102.3 43.42,-155.23 11.14,-59.85 6.15,-121.6 -14.48,-178.89 -47,-130.55 -137.6,-240.9 -256.51,-312.42 -52.31,-31.47 -112.63,-47 -173.63,-44.73 -51.11,1.91 -92.39,42.35 -95.37,93.4 -2.71,46.33 8.04,92.47 30.91,132.86 21.18,37.38 44,73.81 68.4,109.17 75.28,109.11 140.33,224.93 194.34,345.97 10.61,23.82 21.17,47.67 31.66,71.53 -16.48,45.32 -32.62,90.75 -48.42,136.32 -73.28,211.39 -120.56,430.94 -140.75,653.77 -9.53,105.17 -0.18,211.19 27.63,313.08 38.14,139.76 162.4,238.75 307.16,244.67 64.78,2.65 129.66,0.05 194.02,-7.78 l 0,-95.11 m 947.33,-3450.88 -1077,0 0,-167.8 -69.17,0 0,167.8 -161.09,0 0,69.17 161.09,0 0,770.49 69.17,0 0,-770.49 1077,0 0,-69.17"
         id="path3291"
         style="fill:#000000" />
      <path
         d="m 15392.1,2562.35 -793.67,0 -354.81,573.64 -354.82,-573.64 -793.68,0 148.84,240.63 c -302.94,-257.17 -708.63,-358.06 -1096.72,-272.82 -388.1,85.25 -714.13,346.92 -881.38,707.38 -149.88,-335.33 -432,-586.34 -773.16,-687.93 -341.2,-101.6 -707.91,-43.84 -1005.06,158.37 l 0,-952.03 -674.17,0 0,3218.89 674.17,0 0,-129.83 c 297.68,202.55 665.11,260.16 1006.76,157.86 341.64,-102.31 623.76,-354.43 772.95,-690.79 169.14,361.84 498.32,623.32 889.07,706.15 390.75,82.81 797.7,-22.62 1099.09,-284.73 l -159.05,257.13 793.68,0 353.48,-571.48 353.47,571.48 793.67,0 -750.3,-1213.05 751.64,-1215.23 0,0 z"
         id="path3293"
         style="fill:#b4c3d3" />
      <path
         d="m 10686,3773.21 c 0,-330.93 -268.26,-599.2 -599.18,-599.2 -330.91,0 -599.18,268.27 -599.18,599.2 0,330.92 268.27,599.18 599.18,599.18 330.92,0 599.18,-268.26 599.18,-599.18 l 0,0 z m 2970.22,-303.69 c 50.26,204.49 48.97,418.26 -3.71,622.13 l 194.26,-314.07 -190.55,-308.06 m -636.72,303.69 c 0,-330.93 -268.26,-599.2 -599.18,-599.2 -330.93,0 -599.2,268.27 -599.2,599.2 0,330.92 268.27,599.18 599.2,599.18 330.92,0 599.18,-268.26 599.18,-599.18 l 0,0 z"
         id="path3295"
         style="fill:#000000" />
      <path
         d="m 1622.93,5022.77 125.3,0 0,-1557.18 -125.3,0 0,1557.18 m 258.74,-2538.71 c 211.32,0 244.43,-267.93 244.23,-451.8 -0.21,-183.87 -26.91,-383.4 -211.32,-383.4 l -291.65,0 0,1016.08 125.3,0 0,-180.88 133.44,0 0,0 z m 0,69.16 -64.27,0 0,111.72 4.44,0 c 470.96,0 470.96,-421.72 470.96,-568.25 l 0,-94.59 c 0,-142.05 -0.96,-534.11 -397.53,-534.11 l -272.34,0 0,111.7 258.74,0 c 134.59,0 315.12,19.14 315.12,470.44 0,451.3 -181.46,499.33 -315.12,503.09 l 0,0 z M 760.15,2540.89 C 705.94,2432.7 647.29,2326.77 584.34,2223.43 c -20.02,-32.86 -38.12,-66.83 -54.21,-101.78 -10.51,-22.78 -16.74,-47.3 -18.42,-72.33 -0.35,-5.4 1.58,-10.7 5.35,-14.58 3.74,-3.89 8.98,-6 14.38,-5.81 26.01,0.88 51.34,8.34 73.67,21.7 95.97,57.41 164.37,151.47 189.42,260.45 7.3,31.79 7.53,64.8 0.66,96.68 -9.68,44.89 -21.37,89.3 -35.04,133.13 l 0,0 m 11643.8,1729.92 32.68,0 c 271.64,-8.92 485.93,-234.03 481.47,-505.78 -4.46,-271.75 -226.02,-489.71 -497.81,-489.71 -271.79,0 -493.35,217.96 -497.81,489.71 -4.47,271.75 209.83,496.86 481.47,505.78 z m -2333.49,0 32.67,0 c 271.64,-8.92 485.94,-234.03 481.47,-505.78 -4.45,-271.75 -226.02,-489.71 -497.81,-489.71 -271.79,0 -493.35,217.96 -497.8,489.71 -4.47,271.75 209.82,496.86 481.47,505.78 z m -1560.88,-1565.38 202.54,523.91 0,-1001.92 -202.54,478.01 m 33.3,2310.76 -550.4,-1553.69 64.52,-157.18 636.03,1710.87 -150.15,0 M 4084.57,1394.21 c 385.27,0 549.17,696.57 549.17,1477.26 0,780.7 -163.9,1477.27 -549.17,1477.27 -385.25,0 -549.15,-663.63 -549.15,-1477.27 0,-813.63 163.9,-1477.26 549.15,-1477.26 l 0,0 z"
         id="path3297"
         style="fill:#ffc000" />
      <path
         d="m 12404,4270.81 c 10.89,0.78 21.77,0.74 32.68,0 l 0,-45.77 c 246.42,-8.92 440.23,-213.64 435.71,-460.16 -4.53,-246.53 -205.79,-443.98 -452.37,-443.8 -5.91,-0.12 -10.79,2.99 -13.77,8.07 -2.98,5.11 -3,11.43 -0.02,16.52 2.98,5.1 7.9,8.19 13.81,8.09 151.83,-0.11 291.88,81.84 366.14,214.28 74.28,132.43 71.16,294.69 -8.1,424.16 -79.26,129.49 -222.37,206.05 -374.08,200.14 l 0,78.47 0,0 z M 10086.84,4146.9 c -9.03,0 -16.33,-7.32 -16.33,-16.33 0,-9.04 7.3,-16.36 16.33,-16.36 188.34,0 341.02,-152.67 341.02,-341 0,-188.35 -152.68,-341.02 -341.02,-341.02 -9.03,0 -16.33,-7.32 -16.33,-16.34 0,-9.03 7.3,-16.35 16.33,-16.35 206.39,0 373.69,167.31 373.69,373.71 0,206.38 -167.3,373.69 -373.69,373.69 z m 2333.5,0 c -9.03,0 -16.34,-7.32 -16.34,-16.33 0,-9.04 7.31,-16.36 16.34,-16.36 188.33,0 341.02,-152.67 341.02,-341 0,-188.35 -152.69,-341.02 -341.02,-341.02 -9.03,0 -16.34,-7.32 -16.34,-16.34 0,-9.03 7.31,-16.35 16.34,-16.35 206.38,0 373.69,167.31 373.69,373.71 0,206.38 -167.31,373.69 -373.69,373.69 z m -2349.83,123.91 c 10.87,0.53 21.76,0.4 32.67,0 l 0,-45.77 c 246.42,-8.92 440.23,-213.64 435.71,-460.16 -4.53,-246.53 -205.79,-443.98 -452.37,-443.8 -5.91,-0.12 -10.79,2.99 -13.77,8.07 -2.98,5.11 -3,11.43 -0.02,16.52 2.98,5.1 7.9,8.19 13.81,8.09 151.84,-0.11 291.89,81.84 366.15,214.28 74.27,132.43 71.15,294.69 -8.11,424.16 -79.25,129.49 -222.36,206.05 -374.07,200.14 l 0,78.47 0,0 z m -5985.87,-129.96 0,-170.85 -69.19,0 0,181.95 0,69.16 c 373.94,0 483.69,-635 486.28,-1315.06 l 1573.75,0 c 3.73,478.75 108.74,1211.48 421.29,1262.02 l 0,180.67 69.17,0 0,-1442.69 275.37,0 0,-69.17 -275.37,0 0,-249.56 -69.17,0 0,249.56 -351.88,0 c 7.5,-474.51 140.07,-1168.24 386.46,-1179.5 l 0,-69.18 c -323.18,12.52 -448.81,752.97 -455.66,1248.68 l -1574.07,0 c -4.49,-676.87 -113.77,-1306.67 -486.17,-1306.67 l 0,66.38 0,1240.29 -211.38,0 0,69.17 211.38,0 0,241.58 69.19,0 0,-241.58 347.81,0 c -3.46,435.3 -58.31,1138.71 -347.81,1234.8 l 0,0 z"
         id="path3299"
         style="fill:#000000" />
      <path
         d="m 6144.67,2906.05 c 4.47,453.22 119.23,1129.87 352.09,1191.33 l 0,-1191.33 -352.09,0 z m -1712.12,-69.17 -347.92,0 0,-1229.11 c 288.03,95.72 345.86,793.04 347.92,1229.11 z"
         id="path3301"
         style="fill:#ffc000" />
    </g>
  </g>
  <text
     style="font-size:34.08567047px;font-style:normal;font-weight:normal;fill:#000000;fill-opacity:1;stroke:none;font-family:Bitstream Vera Sans"
     xml:space="preserve"
     id="text3334"
     y="-46.647469"
     x="156.23112"><tspan
       id="tspan3336"
       y="-46.647469"
       x="156.23112" /></text>
  <g
     inkscape:groupmode="layer"
     id="layer1"
     inkscape:label="Text"
     style="display:inline">
    <g
       id="g2922">
      <text
         x="152.8503"
         y="38.941673"
         id="text3328"
         xml:space="preserve"
         style="font-size:34.08567047px;font-style:normal;font-weight:normal;fill:#000000;fill-opacity:1;stroke:none;font-family:Bitstream Vera Sans"><tspan
           x="152.8503"
           y="38.941673"
           id="tspan3330"
           style="font-size:30.67710495px">Power / Hold</tspan></text>
      <path
         d="m 234.9894,46.84571 45.33614,73.02084"
         id="path3332"
         style="fill:none;stroke:#000000;stroke-width:0.49749494px;stroke-linecap:butt;stroke-linejoin:miter;stroke-opacity:1" />
      <path
         d="M 614.04848,122.11003 567.26423,50.26278"
         id="path3338"
         style="fill:none;stroke:#000000;stroke-width:0.8521418px;stroke-linecap:butt;stroke-linejoin:miter;stroke-opacity:1" />
      <path
         d="m 717.64219,122.12761 0,-70.484526"
         id="path3340"
         style="fill:none;stroke:#000000;stroke-width:0.83437556px;stroke-linecap:butt;stroke-linejoin:miter;stroke-opacity:1" />
      <path
         d="M 808.25399,121.45203 866.06626,50.920783"
         id="path3342"
         style="fill:none;stroke:#000000;stroke-width:0.87224716px;stroke-linecap:butt;stroke-linejoin:miter;stroke-opacity:1" />
      <text
         x="518.85059"
         y="40.655392"
         id="text3344"
         xml:space="preserve"
         style="font-size:34.08567047px;font-style:normal;font-weight:normal;fill:#000000;fill-opacity:1;stroke:none;font-family:Bitstream Vera Sans"><tspan
           x="518.85059"
           y="40.655392"
           id="tspan3346">Minus</tspan></text>
      <text
         x="673.31104"
         y="40.655392"
         id="text3348"
         xml:space="preserve"
         style="font-size:34.08567047px;font-style:normal;font-weight:normal;fill:#000000;fill-opacity:1;stroke:none;font-family:Bitstream Vera Sans"><tspan
           x="673.31104"
           y="40.655392"
           id="tspan3350">Menu</tspan></text>
      <text
         x="833.90894"
         y="41.67831"
         id="text3352"
         xml:space="preserve"
         style="font-size:34.08567047px;font-style:normal;font-weight:normal;fill:#000000;fill-opacity:1;stroke:none;font-family:Bitstream Vera Sans"><tspan
           x="833.90894"
           y="41.67831"
           id="tspan3354">Plus</tspan></text>
    </g>
  </g>
</svg>
