<?xml version="1.0" encoding="UTF-8" standalone="no"?>
<!-- Created with Inkscape (http://www.inkscape.org/) -->
<svg
   xmlns:svg="http://www.w3.org/2000/svg"
   xmlns="http://www.w3.org/2000/svg"
   xmlns:xlink="http://www.w3.org/1999/xlink"
   version="1.0"
   width="1052.3622"
   height="744.09448"
   id="svg2">
  <defs
     id="defs4">
    <linearGradient
       id="linearGradient3364">
      <stop
         id="stop3366"
         style="stop-color:#ccccb8;stop-opacity:1"
         offset="0" />
      <stop
         id="stop3368"
         style="stop-color:#ccccb8;stop-opacity:0"
         offset="1" />
    </linearGradient>
    <marker
       refX="0"
       refY="0"
       orient="auto"
       id="Arrow1Lstart"
       style="overflow:visible">
      <path
         d="M 0,0 L 5,-5 L -12.5,0 L 5,5 L 0,0 z"
         transform="scale(0.8,0.8)"
         id="path3963"
         style="fill-rule:evenodd;stroke:#000000;stroke-width:1pt;marker-start:none" />
    </marker>
    <linearGradient
       x1="25.319963"
       y1="381.54056"
       x2="1018.5609"
       y2="381.54056"
       id="linearGradient3370"
       xlink:href="#id0"
       gradientUnits="userSpaceOnUse" />
    <linearGradient
       x1="25.319963"
       y1="381.54056"
       x2="1018.5609"
       y2="381.54056"
       id="linearGradient3482"
       xlink:href="#id0"
       gradientUnits="userSpaceOnUse" />
    <linearGradient
       x1="17608"
       y1="4190.54"
       x2="17715.699"
       y2="4801.2798"
       id="linearGradient3484"
       xlink:href="#id0"
       gradientUnits="userSpaceOnUse" />
    <linearGradient
       x1="25.319963"
       y1="381.54056"
       x2="1018.5609"
       y2="381.54056"
       id="linearGradient3529"
       xlink:href="#id0"
       gradientUnits="userSpaceOnUse" />
    <linearGradient
       x1="25.319963"
       y1="381.54056"
       x2="1018.5609"
       y2="381.54056"
       id="linearGradient2509"
       xlink:href="#id0"
       gradientUnits="userSpaceOnUse" />
    <linearGradient
       x1="17608"
       y1="4190.54"
       x2="17715.699"
       y2="4801.2798"
       id="linearGradient2511"
       xlink:href="#id0"
       gradientUnits="userSpaceOnUse" />
  </defs>
  <g
     transform="matrix(0.8521418,0,0,0.8521418,81.042143,106.25654)"
     id="g2456">
    <g
       transform="translate(20.634921,1.5873016)"
       id="g3183">
      <path
         d="M 551.24853,21.356682 L 876.36363,21.358716 C 876.96358,21.182298 885.66613,21.602216 885.589,28.970324 L 541.77482,28.970324 C 541.91879,21.236456 551.24853,21.356682 551.24853,21.356682 z"
         id="path3184"
         style="fill:#ccccb7;fill-opacity:1;stroke:none;stroke-width:10.62992096;stroke-linecap:round;stroke-linejoin:round;stroke-miterlimit:4;stroke-opacity:1" />
      <rect
         width="2.6422641"
         height="6.8624387"
         x="664.5957"
         y="21.534378"
         id="rect3192"
         style="fill:#999989;fill-opacity:1;stroke:none;stroke-width:10.62992096;stroke-linecap:round;stroke-linejoin:round;stroke-miterlimit:4;stroke-dasharray:none;stroke-opacity:1" />
      <rect
         width="2.6422641"
         height="6.8624387"
         x="780.5611"
         y="21.375729"
         id="rect3200"
         style="fill:#9a9a8a;fill-opacity:1;stroke:none;stroke-width:10.62992096;stroke-linecap:round;stroke-linejoin:round;stroke-miterlimit:4;stroke-dasharray:none;stroke-opacity:1" />
    </g>
    <rect
       width="956.7381"
       height="663.85931"
       x="43.571404"
       y="49.610901"
       id="rect2387"
       style="fill:#cdcdb9;fill-opacity:1;fill-rule:evenodd;stroke:url(#linearGradient2509);stroke-width:36.5028801;stroke-linecap:round;stroke-linejoin:round;stroke-miterlimit:4;stroke-dasharray:none;stroke-opacity:1" />
    <rect
       width="877.25323"
       height="648.04382"
       x="49.097363"
       y="58.210136"
       id="rect4179"
       style="fill:#000000;fill-opacity:1;stroke:#000000;stroke-width:26.85071564;stroke-linecap:round;stroke-linejoin:round;stroke-miterlimit:4;stroke-dasharray:none;stroke-opacity:1" />
    <rect
       width="638.57996"
       height="473.03979"
       x="168.17708"
       y="128.60811"
       id="rect4183"
       style="fill:#323232;fill-opacity:1;stroke:#323232;stroke-width:23.58069801;stroke-linecap:round;stroke-linejoin:round;stroke-miterlimit:4;stroke-dasharray:none;stroke-opacity:1" />
    <rect
       width="223.70419"
       height="53.482204"
       x="367.86075"
       y="646.69196"
       id="rect4185"
       style="fill:#4d4d4d;fill-opacity:1;stroke:none;stroke-width:1.53188705;stroke-linecap:round;stroke-linejoin:round;stroke-miterlimit:4;stroke-dasharray:none;stroke-opacity:1" />
    <text
       x="62.408039"
       y="-922.31024"
       transform="matrix(0,0.9573161,-1.044587,0,0,0)"
       id="text4191"
       xml:space="preserve"
       style="font-size:27.97748947px;font-style:normal;font-weight:normal;fill:#747374;fill-opacity:1;stroke:none;stroke-width:1px;stroke-linecap:butt;stroke-linejoin:miter;stroke-opacity:1;font-family:Bitstream Vera Sans"><tspan
         x="62.408039"
         y="-922.31024"
         id="tspan4193">PORTABLE MULTIMEDIA PLAYER</tspan></text>
    <rect
       width="2.5762746"
       height="169.38982"
       x="972.48322"
       y="523.31152"
       id="rect4215"
       style="fill:#34331c;fill-opacity:1;stroke:#f7f7f7;stroke-width:21.61805725;stroke-linecap:round;stroke-linejoin:round;stroke-miterlimit:4;stroke-dasharray:none;stroke-opacity:1" />
    <path
       d="M 407.92739,657.84988 C 398.00569,657.84988 389.94887,664.96154 389.94887,673.72982 C 389.94887,682.49806 398.00569,689.61802 407.92739,689.61802 C 412.73683,689.61802 417.10529,687.9426 420.33085,685.21988 L 417.51102,682.72565 C 415.00627,684.81206 411.63822,686.09284 407.92739,686.09284 C 400.20591,686.09284 393.93897,680.55361 393.93897,673.72982 C 393.93897,666.90599 400.20591,661.36675 407.92739,661.36675 C 411.69906,661.36675 415.11412,662.69462 417.63084,664.84205 L 420.42299,662.32288 C 417.18877,659.55614 412.78258,657.84988 407.92739,657.84988 z M 437.24963,657.9164 C 427.32793,657.9164 419.27111,665.02806 419.27111,673.7963 C 419.27111,682.56455 427.32793,689.68454 437.24963,689.68454 C 447.17134,689.68454 455.21895,682.56455 455.21895,673.7963 C 455.21895,665.02806 447.17134,657.9164 437.24963,657.9164 z M 518.49859,659.02217 C 509.18682,659.02217 501.62584,665.70013 501.62584,673.92934 C 501.62584,682.15856 509.18679,688.83651 518.49859,688.83651 C 527.81036,688.83651 535.36207,682.15856 535.36207,673.92934 C 535.36207,665.70013 527.81036,659.02217 518.49859,659.02217 z M 461.03361,660.30256 L 453.15476,660.43557 L 466.41523,687.3566 L 469.29028,687.3566 L 478.4961,670.21295 L 487.70193,687.3566 L 490.72447,687.3566 L 504.05861,660.30256 L 496.17976,660.36905 L 489.17635,675.06005 L 481.6661,660.36905 L 475.5473,660.36905 L 468.11077,674.99353 L 461.03361,660.30256 z M 545.09316,660.36905 L 538.31091,660.43557 L 538.31091,687.22356 L 545.68293,687.29008 L 545.68293,670.86975 L 561.80922,687.02403 L 568.22289,687.15707 L 568.22289,660.43557 L 560.85087,660.43557 L 560.85087,676.05776 L 545.09316,660.36905 z M 437.24963,661.43328 C 444.97115,661.43328 451.23805,666.97251 451.23805,673.7963 C 451.23805,680.62013 444.97115,686.15937 437.24963,686.15937 C 429.52811,686.15937 423.26121,680.62013 423.26121,673.7963 C 423.26121,666.97251 429.52811,661.43328 437.24963,661.43328 z M 407.92739,663.76122 C 401.70038,663.76122 396.64821,668.22674 396.64821,673.72982 C 396.64821,679.2329 401.70038,683.69838 407.92739,683.69838 C 410.88719,683.69838 413.58173,682.68749 415.59432,681.03787 L 412.70999,678.5021 C 411.43632,679.50286 409.76438,680.11503 407.92739,680.11503 C 403.9421,680.11503 400.70282,677.25179 400.70282,673.72982 C 400.70282,670.20784 403.9421,667.35291 407.92739,667.35291 C 409.85538,667.35291 411.60001,668.02689 412.89431,669.11548 L 415.74174,666.54643 C 413.71398,664.8225 410.96165,663.76122 407.92739,663.76122 z M 437.24963,663.82774 C 431.02262,663.82774 425.97042,668.29322 425.97042,673.7963 C 425.97042,679.29938 431.02262,683.7649 437.24963,683.7649 C 443.47664,683.7649 448.52881,679.29938 448.52881,673.7963 C 448.52885,668.29322 443.47664,663.82774 437.24963,663.82774 z M 518.49859,665.582 C 523.70996,665.582 527.94397,669.32381 527.94397,673.92934 C 527.94397,678.53488 523.70996,682.26838 518.49859,682.26838 C 513.28718,682.26838 509.06237,678.53488 509.06237,673.92934 C 509.06237,669.32381 513.28718,665.582 518.49859,665.582 z M 437.24963,667.4194 C 441.23492,667.41943 444.465,670.27433 444.465,673.7963 C 444.465,677.31828 441.23492,680.18155 437.24963,680.18155 C 433.26435,680.18155 430.02506,677.31828 430.02506,673.7963 C 430.02506,670.27433 433.26435,667.4194 437.24963,667.4194 z"
       id="path24992"
       style="fill:#cccccc;fill-opacity:1;fill-rule:nonzero;stroke:none;stroke-width:2.79999995;stroke-linecap:round;stroke-linejoin:round;stroke-miterlimit:4;stroke-dashoffset:0;stroke-opacity:1" />
    <g
       transform="translate(20.634921,1.5873016)"
       id="g3178">
      <g
         transform="matrix(3.5937779,0,0,3.5937779,2.6007879,-33.755598)"
         id="g3204"
         style="fill:#cdcdb9;fill-opacity:1">
        <path
           d="M 46.49599,14.610826 L 76.87139,14.611543 C 76.93941,14.549233 81.0548,14.078477 81.22485,17.3883 L 42.24847,17.3883 C 42.48828,14.037729 46.49599,14.610826 46.49599,14.610826 z"
           id="rect3168"
           style="fill:#cdcdb9;fill-opacity:1;stroke:none;stroke-width:10.62992096;stroke-linecap:round;stroke-linejoin:round;stroke-miterlimit:4;stroke-opacity:1" />
      </g>
      <rect
         width="11.358426"
         height="6.3422699"
         x="218.12448"
         y="13.014067"
         id="rect3172"
         style="fill:#ccccb7;fill-opacity:1;stroke:none;stroke-width:10.62992096;stroke-linecap:round;stroke-linejoin:round;stroke-miterlimit:4;stroke-dasharray:none;stroke-opacity:1" />
    </g>
    <g
       transform="matrix(3.2011462e-2,0,0,3.2011462e-2,167.29616,141.27637)"
       id="Ebene_x0020_1">
      <defs
         id="defs3272">
        <linearGradient
           x1="17608"
           y1="4190.54"
           x2="17715.699"
           y2="4801.2798"
           id="id0"
           gradientUnits="userSpaceOnUse">
          <stop
             id="stop3275"
             style="stop-color:#ccccb8;stop-opacity:1"
             offset="0" />
          <stop
             id="stop3277"
             style="stop-color:#ccccb8;stop-opacity:1"
             offset="0.97000003" />
          <stop
             id="stop3279"
             style="stop-color:#87877a;stop-opacity:1"
             offset="1" />
        </linearGradient>
      </defs>
      <path
         d="M 0,6195.9 L 20000,6195.9 L 20000,4.1 L 0,4.1 L 0,6195.9 z"
         id="path3281"
         style="fill:#000000" />
      <path
         d="M 1264.81,5837.39 C 1264.81,5750.4 1194.29,5679.88 1107.3,5679.88 C 1020.32,5679.88 949.81,5750.4 949.81,5837.39 C 949.81,5924.38 1020.32,5994.89 1107.3,5994.89 C 1194.29,5994.89 1264.81,5924.38 1264.81,5837.39 z M 1759.56,5705.55 C 1822.86,5662.47 1906.96,5674.66 1956.59,5734.11 C 2006.22,5793.52 2006.22,5882.05 1956.59,5941.49 C 1906.96,6000.93 1822.86,6013.1 1759.56,5970.04 L 1759.56,6100.56 L 1676.13,6100.56 L 1676.13,5687.54 L 1759.56,5687.54 L 1759.56,5705.55 L 1759.56,5705.55 z M 2712.09,5837.37 C 2712.09,5750.38 2641.58,5679.87 2554.58,5679.87 C 2467.61,5679.87 2397.09,5750.38 2397.09,5837.37 C 2397.09,5924.37 2467.61,5994.88 2554.58,5994.88 C 2599.41,5994.88 2639.89,5976.16 2668.58,5946.08 L 2608.31,5888.57 L 2668.58,5946.08 L 2608.31,5888.57 C 2592.86,5904.79 2570.89,5913.14 2548.55,5911.3 C 2526.22,5909.44 2505.93,5897.6 2493.33,5879.06 L 2706.53,5879.06 C 2710.18,5865.77 2712.09,5851.82 2712.09,5837.37 L 2712.09,5837.37 z M 7943.46,5837.37 C 7943.46,5750.38 7872.95,5679.87 7785.96,5679.87 C 7698.98,5679.87 7628.47,5750.38 7628.47,5837.37 C 7628.47,5924.37 7698.98,5994.88 7785.96,5994.88 C 7830.78,5994.88 7871.27,5976.16 7899.95,5946.08 L 7839.69,5888.57 L 7899.95,5946.08 L 7839.69,5888.57 C 7824.23,5904.79 7802.26,5913.14 7779.92,5911.3 C 7757.6,5909.44 7737.3,5897.6 7724.7,5879.06 L 7937.91,5879.06 C 7941.56,5865.77 7943.46,5851.82 7943.46,5837.37 L 7943.46,5837.37 z M 11056.37,5837.37 C 11056.37,5750.38 10985.86,5679.87 10898.87,5679.87 C 10811.89,5679.87 10741.38,5750.38 10741.38,5837.37 C 10741.38,5924.37 10811.89,5994.88 10898.87,5994.88 C 10943.69,5994.88 10984.18,5976.16 11012.86,5946.08 L 10952.6,5888.57 L 11012.86,5946.08 L 10952.6,5888.57 C 10937.14,5904.79 10915.17,5913.14 10892.83,5911.3 C 10870.51,5909.44 10850.21,5897.6 10837.61,5879.06 L 11050.82,5879.06 C 11054.47,5865.77 11056.37,5851.82 11056.37,5837.37 L 11056.37,5837.37 z M 19012.11,5837.37 C 19012.11,5750.38 18941.59,5679.87 18854.6,5679.87 C 18767.62,5679.87 18697.11,5750.38 18697.11,5837.37 C 18697.11,5924.37 18767.62,5994.88 18854.6,5994.88 C 18899.42,5994.88 18939.91,5976.16 18968.59,5946.08 L 18908.33,5888.57 L 18968.59,5946.08 L 18908.33,5888.57 C 18892.87,5904.79 18870.9,5913.14 18848.56,5911.3 C 18826.24,5909.44 18805.95,5897.6 18793.34,5879.06 L 19006.55,5879.06 C 19010.2,5865.77 19012.11,5851.82 19012.11,5837.37 L 19012.11,5837.37 z M 3395.01,5813.97 C 3395.01,5763.53 3370.44,5717.36 3331.41,5694.47 C 3292.38,5671.59 3245.52,5675.88 3210.11,5705.55 L 3210.11,5687.54 L 3126.68,5687.54 L 3126.68,5988.06 L 3210.11,5988.06 L 3210.11,5813.97 C 3210.11,5785.95 3232.82,5763.24 3260.85,5763.24 C 3288.86,5763.24 3311.58,5785.95 3311.58,5813.97 L 3311.58,5988.06 L 3395.01,5988.06 L 3395.01,5813.97 L 3395.01,5813.97 z M 4601.36,5775.07 C 4601.36,5735.16 4571.27,5699.5 4526.03,5685.73 C 4480.78,5671.97 4429.95,5683 4398.72,5713.4 C 4367.48,5743.8 4362.47,5787.09 4386.15,5821.84 C 4398.1,5838.56 4415.15,5850.9 4434.76,5857.05 C 4456.95,5864.49 4479.61,5870.52 4502.56,5875.15 C 4521.37,5878.82 4531.28,5888.2 4525.79,5897.11 C 4520.31,5906.01 4501.07,5911.71 4480.78,5910.46 C 4460.49,5909.2 4445.37,5901.37 4445.37,5892.13 L 4445.37,5883.25 L 4362.03,5883.25 L 4362.03,5892.13 C 4362.03,5936.36 4395.74,5975.72 4445.97,5990.09 C 4496.19,6004.46 4551.83,5990.67 4584.43,5955.75 C 4617.04,5920.86 4619.44,5872.51 4590.41,5835.47 C 4573.62,5815.83 4550.46,5802.73 4525,5798.44 C 4504.85,5794.68 4484.93,5789.82 4465.31,5783.93 C 4454.42,5780.31 4451.52,5774.39 4458.3,5769.56 C 4465.09,5764.74 4479.79,5762.28 4493.92,5763.58 C 4508.06,5764.87 4518,5769.63 4518,5775.07 L 4518,5779.22 L 4601.36,5779.22 L 4601.36,5775.07 L 4601.36,5775.07 z M 5326.99,5837.39 C 5326.99,5750.4 5256.48,5679.88 5169.49,5679.88 C 5082.49,5679.88 5011.98,5750.4 5011.98,5837.39 C 5011.98,5924.38 5082.49,5994.89 5169.49,5994.89 C 5256.48,5994.89 5326.99,5924.38 5326.99,5837.39 z M 5740.07,5861.62 L 5740.07,5687.54 L 5823.5,5687.54 L 5823.5,5861.62 C 5823.5,5889.64 5846.23,5912.35 5874.24,5912.35 C 5902.26,5912.35 5924.97,5889.64 5924.97,5861.62 L 5924.97,5687.54 L 6008.41,5687.54 L 6008.41,5988.06 L 5924.97,5988.06 L 5924.97,5970.04 C 5889.57,5999.72 5842.71,6003.99 5803.68,5981.12 C 5764.65,5958.24 5740.07,5912.07 5740.07,5861.62 L 5740.07,5861.62 z M 6511.9,5705.55 L 6511.9,5687.54 L 6428.47,5687.54 L 6428.47,5988.06 L 6511.9,5988.06 L 6511.9,5837.39 C 6511.9,5817.72 6519.7,5798.86 6533.62,5784.96 C 6547.52,5771.04 6566.39,5763.24 6586.05,5763.24 L 6586.05,5680.14 C 6559.63,5681.71 6534.07,5690.47 6511.9,5705.55 L 6511.9,5705.55 z M 7245.88,5728.66 C 7217.2,5698.62 7176.71,5679.87 7131.89,5679.87 C 7044.93,5679.87 6974.41,5750.36 6974.4,5837.34 C 6974.4,5837.36 6974.4,5837.36 6974.4,5837.37 C 6974.41,5924.35 7044.93,5994.85 7131.89,5994.85 C 7176.71,5994.85 7217.2,5976.09 7245.88,5946.05 L 7185.6,5888.54 C 7172.1,5902.66 7153.04,5911.49 7131.97,5911.49 C 7091.03,5911.49 7057.84,5878.31 7057.82,5837.37 C 7057.82,5837.36 7057.82,5837.36 7057.82,5837.34 C 7057.84,5796.41 7091.03,5763.22 7131.97,5763.22 C 7153.04,5763.22 7172.1,5772.05 7185.6,5786.17 L 7245.88,5728.66 L 7245.88,5728.66 z M 16901.58,5837.16 L 16858.56,5687.54 L 16784.11,5687.54 L 16741.11,5837.16 L 16698.11,5687.54 L 16611.37,5687.54 L 16697.74,5988.06 L 16784.48,5988.06 L 16821.34,5859.78 L 16858.21,5988.06 L 16944.93,5988.06 L 17031.3,5687.54 L 16944.58,5687.54 L 16901.58,5837.16 M 14783.99,5589.69 L 14700.57,5589.69 L 14700.57,5673.04 L 14783.99,5673.04 L 14783.99,5589.69 M 14783.99,5687.54 L 14700.57,5687.54 L 14700.57,5988.06 L 14783.99,5988.06 L 14783.99,5687.54 M 13055.35,5837.93 L 13148.2,5988.06 L 13049.98,5988.06 L 13006.24,5917.33 L 12962.49,5988.06 L 12864.27,5988.06 L 12957.13,5837.93 L 12864.1,5687.54 L 12962.33,5687.54 L 13006.24,5758.53 L 13050.14,5687.54 L 13148.38,5687.54 L 13055.35,5837.93 M 10260.89,5687.54 L 10184.42,5811.19 L 10184.42,5589.69 L 10100.98,5589.69 L 10100.98,5988.06 L 10184.42,5988.06 L 10184.42,5862.72 L 10278.38,5988.06 L 10382.57,5988.06 L 10267.86,5835.08 L 10359.13,5687.54 L 10260.89,5687.54 M 8989.94,5589.69 L 8906.5,5589.69 L 8906.5,5673.04 L 8989.94,5673.04 L 8989.94,5589.69 M 8989.94,6002.71 L 8989.94,5687.54 L 8906.5,5687.54 L 8906.5,6002.79 C 8906.5,6010.75 8900.04,6017.2 8892.08,6017.2 L 8868.46,6017.2 L 8868.46,6100.56 L 8892.08,6100.56 C 8946.13,6100.56 8989.94,6056.74 8989.94,6002.71 M 12502.7,5837.39 C 12502.7,5750.4 12432.17,5679.88 12345.2,5679.88 C 12258.21,5679.88 12187.69,5750.4 12187.69,5837.39 C 12187.69,5924.38 12258.21,5994.89 12345.2,5994.89 C 12432.17,5994.89 12502.7,5924.38 12502.7,5837.39 z M 9597.64,5970.04 L 9597.64,5988.06 L 9681.06,5988.06 L 9681.06,5687.54 L 9597.64,5687.54 L 9597.64,5861.62 C 9597.64,5889.64 9574.91,5912.35 9546.9,5912.35 C 9518.87,5912.35 9496.17,5889.64 9496.17,5861.62 L 9496.17,5687.54 L 9412.73,5687.54 L 9412.73,5861.62 C 9412.73,5912.07 9437.29,5958.24 9476.32,5981.12 C 9515.35,6003.99 9562.23,5999.72 9597.64,5970.04 L 9597.64,5970.04 z M 11549.51,5705.55 L 11549.51,5589.69 L 11466.08,5589.69 L 11466.08,5988.06 L 11549.51,5988.06 L 11549.51,5970.04 C 11612.82,6013.1 11696.9,6000.93 11746.53,5941.49 C 11796.18,5882.04 11796.18,5793.54 11746.53,5734.11 C 11696.9,5674.66 11612.82,5662.47 11549.51,5705.55 L 11549.51,5705.55 z M 14287.04,5673.04 L 14217.79,5673.04 C 14215.93,5672.88 14214.1,5673.54 14212.77,5674.87 C 14211.46,5676.18 14210.79,5678.02 14210.96,5679.88 L 14210.96,5687.54 L 14210.96,5687.54 L 14249,5687.54 L 14249,5770.89 L 14210.96,5770.89 L 14210.96,5988.06 L 14127.53,5988.06 L 14127.53,5770.89 L 14089.49,5770.89 L 14089.49,5687.54 L 14127.53,5687.54 C 14127.53,5633.5 14171.33,5589.69 14225.36,5589.69 L 14287.04,5589.69 L 14287.04,5673.04 z M 15363.03,5680.14 L 15363.03,5763.24 C 15343.36,5763.24 15324.5,5771.04 15310.59,5784.96 C 15296.68,5798.86 15288.88,5817.72 15288.88,5837.39 L 15288.88,5988.06 L 15205.44,5988.06 L 15205.44,5687.54 L 15288.88,5687.54 L 15288.88,5705.55 C 15311.04,5690.47 15336.6,5681.71 15363.03,5680.14 L 15363.03,5680.14 z M 15852.09,5705.55 L 15852.09,5687.54 L 15768.65,5687.54 L 15768.65,5988.06 L 15852.09,5988.06 L 15852.09,5813.97 C 15852.09,5785.95 15874.8,5763.24 15902.83,5763.24 C 15930.84,5763.24 15953.56,5785.95 15953.56,5813.97 L 15953.56,5988.06 L 16037,5988.06 L 16037,5813.97 C 16037,5785.95 16059.71,5763.24 16087.73,5763.24 C 16115.74,5763.24 16138.47,5785.95 16138.47,5813.97 L 16138.47,5988.06 L 16221.89,5988.06 L 16221.87,5813.97 C 16221.87,5761.05 16190.74,5713.06 16142.44,5691.49 C 16094.12,5669.92 16037.62,5678.74 15998.21,5714.06 C 15957.32,5671.91 15896.45,5668.37 15852.09,5705.55 L 15852.09,5705.55 z M 17636.85,5705.55 L 17636.85,5687.54 L 17720.29,5687.54 L 17720.29,5988.06 L 17636.85,5988.06 L 17636.85,5970.04 C 17573.55,6013.1 17489.47,6000.93 17439.84,5941.49 C 17390.19,5882.04 17390.19,5793.54 17439.84,5734.11 C 17489.47,5674.66 17573.55,5662.47 17636.85,5705.55 L 17636.85,5705.55 z M 18309.49,5680.14 L 18309.49,5763.24 C 18289.83,5763.24 18270.96,5771.04 18257.06,5784.96 C 18243.14,5798.86 18235.33,5817.72 18235.33,5837.39 L 18235.33,5988.06 L 18151.91,5988.06 L 18151.91,5687.54 L 18235.33,5687.54 L 18235.33,5705.55 C 18257.49,5690.47 18283.07,5681.71 18309.49,5680.14 L 18309.49,5680.14 z"
         id="path3283"
         style="fill:#ffffff" />
      <path
         d="M 1181.47,5837.39 C 1181.47,5796.44 1148.27,5763.24 1107.3,5763.24 C 1066.35,5763.24 1033.15,5796.44 1033.15,5837.39 C 1033.15,5878.34 1066.35,5911.54 1107.3,5911.54 C 1148.27,5911.54 1181.47,5878.34 1181.47,5837.39 z M 10837.56,5795.72 L 10960.24,5795.72 C 10946.43,5775.39 10923.47,5763.24 10898.9,5763.24 C 10874.33,5763.24 10851.37,5775.39 10837.56,5795.72 M 7724.7,5795.72 L 7847.37,5795.72 C 7833.57,5775.39 7810.59,5763.24 7786.04,5763.24 C 7761.47,5763.24 7738.51,5775.39 7724.7,5795.72 M 5243.63,5837.39 C 5243.63,5796.44 5210.43,5763.24 5169.48,5763.24 C 5128.53,5763.24 5095.33,5796.44 5095.33,5837.39 C 5095.33,5878.34 5128.53,5911.54 5169.48,5911.54 C 5210.43,5911.54 5243.63,5878.34 5243.63,5837.39 z M 12419.34,5837.39 C 12419.34,5796.44 12386.14,5763.24 12345.19,5763.24 C 12304.22,5763.24 12271.02,5796.44 12271.02,5837.39 C 12271.02,5878.34 12304.22,5911.54 12345.19,5911.54 C 12386.14,5911.54 12419.34,5878.34 12419.34,5837.39 z M 11697.82,5837.39 C 11697.82,5796.44 11664.62,5763.24 11623.65,5763.24 C 11582.7,5763.24 11549.5,5796.44 11549.5,5837.39 C 11549.5,5878.34 11582.7,5911.54 11623.65,5911.54 C 11664.62,5911.54 11697.82,5878.34 11697.82,5837.39 z M 1907.87,5838.2 C 1907.87,5797.25 1874.67,5764.04 1833.72,5764.04 C 1792.77,5764.04 1759.56,5797.25 1759.56,5838.2 C 1759.56,5879.16 1792.77,5912.35 1833.72,5912.35 C 1874.67,5912.35 1907.87,5879.16 1907.87,5838.2 z M 2493.33,5795.72 L 2616,5795.72 C 2602.2,5775.39 2579.23,5763.24 2554.66,5763.24 C 2530.1,5763.24 2507.13,5775.39 2493.33,5795.72 M 18793.33,5795.72 L 18916.01,5795.72 C 18902.2,5775.39 18879.24,5763.24 18854.67,5763.24 C 18830.1,5763.24 18807.14,5775.39 18793.33,5795.72 M 17636.88,5837.39 C 17636.88,5796.44 17603.68,5763.24 17562.73,5763.24 C 17521.77,5763.24 17488.57,5796.44 17488.57,5837.39 C 17488.57,5878.34 17521.77,5911.54 17562.73,5911.54 C 17603.68,5911.54 17636.88,5878.34 17636.88,5837.39 z"
         id="path3285"
         style="fill:#000000" />
      <path
         d="M 118.4,148.81 L 19861.9,148.81 L 19861.9,5407.95 L 118.4,5407.95 L 118.4,148.81"
         id="path3287"
         style="fill:#ffc000" />
      <path
         d="M 15635.5,5091.93 L 15635.5,5091.93 M 19808.91,4227.84 L 19861.92,4227.84 L 19861.92,4257.95 L 19839.02,4257.95 L 19839.02,4378.38 L 19808.91,4378.38 L 19808.91,4227.84 M 19658.37,4227.84 L 19748.7,4227.84 L 19748.7,4257.95 L 19658.37,4257.95 L 19658.37,4227.84 M 19658.37,4348.27 L 19748.7,4348.27 L 19748.7,4378.38 L 19658.37,4378.38 L 19658.37,4348.27 M 19447.6,4227.84 L 19447.6,4227.84 L 19447.6,4227.84 L 19447.6,4227.84 L 19447.6,4227.84 M 19507.82,4257.95 L 19537.92,4257.95 L 19537.92,4378.38 L 19507.82,4378.38 L 19507.82,4257.95 M 19537.92,4227.84 L 19568.03,4227.84 L 19568.03,4257.95 L 19537.92,4257.95 L 19537.92,4227.84 M 19568.03,4257.95 L 19598.16,4257.95 L 19598.16,4378.38 L 19568.03,4378.38 L 19568.03,4257.95 M 19447.6,4227.84 L 19507.82,4227.84 L 19507.82,4257.95 L 19477.71,4257.95 L 19477.71,4378.38 L 19447.6,4378.38 L 19447.6,4227.84 M 19387.38,4197.72 L 19417.49,4197.72 L 19417.49,4257.95 L 19387.38,4257.95 L 19387.38,4197.72 M 19387.38,4288.06 L 19417.49,4288.06 L 19417.49,4348.27 L 19387.38,4348.27 L 19387.38,4288.06 M 19146.5,4227.84 L 19176.63,4227.84 L 19176.63,4288.06 L 19146.5,4288.06 L 19146.5,4227.84 M 18930.93,4227.84 L 18961.04,4227.84 L 18961.04,4257.95 L 18930.93,4257.95 L 18930.93,4227.84 M 18840.6,4288.06 L 18870.71,4288.06 L 18870.71,4348.27 L 18840.6,4348.27 L 18840.6,4288.06 M 18724.72,4348.27 L 18840.6,4348.27 L 18840.6,4378.38 L 18724.72,4378.38 L 18724.72,4348.27 M 18604.29,4257.95 L 18634.4,4257.95 L 18634.4,4288.06 L 18604.29,4288.06 L 18604.29,4257.95 M 18574.18,4167.61 L 18664.5,4167.61 L 18664.5,4197.72 L 18574.18,4197.72 L 18574.18,4167.61 M 18574.18,4348.27 L 18664.5,4348.27 L 18664.5,4378.38 L 18574.18,4378.38 L 18574.18,4348.27 M 18423.64,4167.61 L 18483.86,4167.61 L 18483.86,4197.72 L 18423.64,4197.72 L 18423.64,4167.61 M 18393.53,4197.72 L 18423.64,4197.72 L 18423.64,4227.84 L 18393.53,4227.84 L 18393.53,4197.72 M 18483.86,4288.06 L 18513.96,4288.06 L 18513.96,4348.27 L 18483.86,4348.27 L 18483.86,4288.06 M 19297.06,3899.9 L 19417.49,3899.9 L 19417.49,3930.01 L 19297.06,3930.01 L 19297.06,3899.9 M 19266.95,3930.01 L 19297.06,3930.01 L 19297.06,3960.12 L 19266.95,3960.12 L 19266.95,3930.01 M 19297.06,3960.12 L 19387.38,3960.12 L 19387.38,3990.23 L 19297.06,3990.23 L 19297.06,3960.12 M 19387.38,3990.23 L 19417.49,3990.23 L 19417.49,4020.34 L 19387.38,4020.34 L 19387.38,3990.23 M 19266.95,4020.34 L 19387.38,4020.34 L 19387.38,4050.44 L 19266.95,4050.44 L 19266.95,4020.34 M 19447.6,3899.9 L 19477.71,3899.9 L 19477.71,4020.34 L 19447.6,4020.34 L 19447.6,3899.9 M 19477.71,4080.55 L 19568.03,4080.55 L 19568.03,4110.66 L 19477.71,4110.66 L 19477.71,4080.55 M 19628.26,4020.34 L 19748.7,4020.34 L 19748.7,4050.44 L 19628.26,4050.44 L 19628.26,4020.34 M 19748.7,3990.23 L 19778.8,3990.23 L 19778.8,4020.34 L 19748.7,4020.34 L 19748.7,3990.23 M 19658.37,3960.12 L 19748.7,3960.12 L 19748.7,3990.23 L 19658.37,3990.23 L 19658.37,3960.12 M 19628.26,3930.01 L 19658.37,3930.01 L 19658.37,3960.12 L 19628.26,3960.12 L 19628.26,3930.01 M 19658.37,3899.9 L 19778.8,3899.9 L 19778.8,3930.01 L 19658.37,3930.01 L 19658.37,3899.9 M 19297.06,4555.76 L 19417.49,4555.76 L 19417.49,4585.87 L 19297.06,4585.87 L 19297.06,4555.76 M 19266.95,4585.87 L 19297.06,4585.87 L 19297.06,4615.98 L 19266.95,4615.98 L 19266.95,4585.87 M 19297.06,4615.98 L 19387.38,4615.98 L 19387.38,4646.09 L 19297.06,4646.09 L 19297.06,4615.98 M 19387.38,4646.09 L 19417.49,4646.09 L 19417.49,4676.21 L 19387.38,4676.21 L 19387.38,4646.09 M 19266.95,4676.21 L 19387.38,4676.21 L 19387.38,4706.32 L 19266.95,4706.32 L 19266.95,4676.21 M 18543.21,4676.21 L 18663.64,4676.21 L 18663.64,4706.32 L 18543.21,4706.32 L 18543.21,4676.21 M 18663.64,4646.09 L 18693.75,4646.09 L 18693.75,4676.21 L 18663.64,4676.21 L 18663.64,4646.09 M 18573.32,4615.98 L 18663.64,4615.98 L 18663.64,4646.09 L 18573.32,4646.09 L 18573.32,4615.98 M 18543.21,4585.87 L 18573.32,4585.87 L 18573.32,4615.98 L 18543.21,4615.98 L 18543.21,4585.87 M 18573.32,4555.76 L 18693.75,4555.76 L 18693.75,4585.87 L 18573.32,4585.87 L 18573.32,4555.76 M 17668.31,4883.7 L 17788.75,4883.7 L 17788.75,4913.81 L 17668.31,4913.81 L 17668.31,4883.7 M 17638.21,4913.81 L 17668.31,4913.81 L 17668.31,4943.92 L 17638.21,4943.92 L 17638.21,4913.81 M 17668.31,4943.92 L 17758.64,4943.92 L 17758.64,4974.02 L 17668.31,4974.02 L 17668.31,4943.92 M 17758.64,4974.02 L 17788.75,4974.02 L 17788.75,5004.13 L 17758.64,5004.13 L 17758.64,4974.02 M 17638.21,5004.13 L 17758.64,5004.13 L 17758.64,5034.24 L 17638.21,5034.24 L 17638.21,5004.13 M 15637.98,5004.13 L 15758.41,5004.13 L 15758.41,5034.24 L 15637.98,5034.24 L 15637.98,5004.13 M 15758.41,4974.02 L 15788.52,4974.02 L 15788.52,5004.13 L 15758.41,5004.13 L 15758.41,4974.02 M 15668.09,4943.92 L 15758.41,4943.92 L 15758.41,4974.02 L 15668.09,4974.02 L 15668.09,4943.92 M 15637.98,4913.81 L 15668.09,4913.81 L 15668.09,4943.92 L 15637.98,4943.92 L 15637.98,4913.81 M 15668.09,4883.7 L 15788.52,4883.7 L 15788.52,4913.81 L 15668.09,4913.81 L 15668.09,4883.7 M 18905.64,4883.7 L 18965.86,4883.7 L 18965.86,4913.81 L 18935.75,4913.81 L 18935.75,5034.24 L 18905.64,5034.24 L 18905.64,4883.7 M 19026.07,4913.81 L 19056.18,4913.81 L 19056.18,5034.24 L 19026.07,5034.24 L 19026.07,4913.81 M 18995.96,4883.7 L 19026.07,4883.7 L 19026.07,4913.81 L 18995.96,4913.81 L 18995.96,4883.7 M 18965.86,4913.81 L 18995.96,4913.81 L 18995.96,5034.24 L 18965.86,5034.24 L 18965.86,4913.81 M 18905.64,4883.7 L 18905.64,4883.7 L 18905.64,4883.7 L 18905.64,4883.7 L 18905.64,4883.7 M 16004.22,4883.7 L 16004.22,4883.7 L 16004.22,4883.7 L 16004.22,4883.7 L 16004.22,4883.7 M 16064.44,4913.81 L 16094.55,4913.81 L 16094.55,5034.24 L 16064.44,5034.24 L 16064.44,4913.81 M 16094.55,4883.7 L 16124.66,4883.7 L 16124.66,4913.81 L 16094.55,4913.81 L 16094.55,4883.7 M 16124.66,4913.81 L 16154.76,4913.81 L 16154.76,5034.24 L 16124.66,5034.24 L 16124.66,4913.81 M 16004.22,4883.7 L 16064.44,4883.7 L 16064.44,4913.81 L 16034.33,4913.81 L 16034.33,5034.24 L 16004.22,5034.24 L 16004.22,4883.7 M 19568.03,4020.34 L 19568.03,3899.9 L 19598.16,3899.9 L 19598.16,4080.55 L 19568.03,4080.55 L 19568.03,4050.44 L 19477.71,4050.44 L 19477.71,4020.34 L 19568.03,4020.34 M 17212.58,4999.58 L 17212.58,4879.14 L 17242.69,4879.14 L 17242.69,5059.8 L 17212.58,5059.8 L 17212.58,5029.69 L 17122.25,5029.69 L 17122.25,4999.58 L 17212.58,4999.58 M 17122.25,5059.8 L 17212.58,5059.8 L 17212.58,5089.91 L 17122.25,5089.91 L 17122.25,5059.8 M 17092.15,4879.14 L 17122.25,4879.14 L 17122.25,4999.58 L 17092.15,4999.58 L 17092.15,4879.14 M 19628.26,4257.95 L 19658.37,4257.95 L 19658.37,4288.06 L 19748.7,4288.06 L 19748.7,4257.95 L 19778.8,4257.95 L 19778.8,4318.16 L 19658.37,4318.16 L 19658.37,4348.27 L 19628.26,4348.27 L 19628.26,4257.95 M 19086.29,4585.87 L 19116.4,4585.87 L 19116.4,4615.98 L 19206.74,4615.98 L 19206.74,4585.87 L 19236.84,4585.87 L 19236.84,4646.09 L 19116.4,4646.09 L 19116.4,4676.21 L 19086.29,4676.21 L 19086.29,4585.87 M 19116.4,4676.21 L 19206.74,4676.21 L 19206.74,4706.32 L 19116.4,4706.32 L 19116.4,4676.21 M 19116.4,4555.76 L 19206.74,4555.76 L 19206.74,4585.87 L 19116.4,4585.87 L 19116.4,4555.76 M 18392.65,4555.76 L 18482.98,4555.76 L 18482.98,4585.87 L 18392.65,4585.87 L 18392.65,4555.76 M 18392.65,4676.21 L 18482.98,4676.21 L 18482.98,4706.32 L 18392.65,4706.32 L 18392.65,4676.21 M 18362.54,4585.87 L 18392.65,4585.87 L 18392.65,4615.98 L 18482.98,4615.98 L 18482.98,4585.87 L 18513.08,4585.87 L 18513.08,4646.09 L 18392.65,4646.09 L 18392.65,4676.21 L 18362.54,4676.21 L 18362.54,4585.87 M 19447.6,4913.81 L 19477.71,4913.81 L 19477.71,4943.92 L 19568.03,4943.92 L 19568.03,4913.81 L 19598.16,4913.81 L 19598.16,4974.02 L 19477.71,4974.02 L 19477.71,5004.13 L 19447.6,5004.13 L 19447.6,4913.81 M 19477.71,5004.13 L 19568.03,5004.13 L 19568.03,5034.24 L 19477.71,5034.24 L 19477.71,5004.13 M 19477.71,4883.7 L 19568.03,4883.7 L 19568.03,4913.81 L 19477.71,4913.81 L 19477.71,4883.7 M 19839.02,4883.7 L 19861.92,4883.7 L 19861.92,4913.81 L 19839.02,4913.81 L 19839.02,4883.7 M 19839.02,5004.13 L 19861.92,5004.13 L 19861.92,5034.24 L 19839.02,5034.24 L 19839.02,5004.13 M 19808.91,4913.81 L 19839.02,4913.81 L 19839.02,4943.92 L 19861.92,4943.92 L 19861.92,4943.92 L 19861.92,4943.92 L 19861.92,4974.02 L 19839.02,4974.02 L 19839.02,5004.13 L 19808.91,5004.13 L 19808.91,4913.81 M 15491.99,4883.7 L 15582.31,4883.7 L 15582.31,4913.81 L 15491.99,4913.81 L 15491.99,4883.7 M 15491.99,5004.13 L 15582.31,5004.13 L 15582.31,5034.24 L 15491.99,5034.24 L 15491.99,5004.13 M 15461.88,4913.81 L 15491.99,4913.81 L 15491.99,4943.92 L 15582.31,4943.92 L 15582.31,4913.81 L 15612.42,4913.81 L 15612.42,4974.02 L 15491.99,4974.02 L 15491.99,5004.13 L 15461.88,5004.13 L 15461.88,4913.81 M 15848.73,4974.02 L 15908.95,4974.02 L 15908.95,5029.69 L 15848.73,5029.69 L 15848.73,4974.02 M 19477.71,4555.76 L 19568.03,4555.76 L 19568.03,4585.87 L 19477.71,4585.87 L 19477.71,4555.76 M 19447.6,4585.87 L 19477.71,4585.87 L 19477.71,4676.21 L 19447.6,4676.21 L 19447.6,4585.87 M 19477.71,4676.21 L 19568.03,4676.21 L 19568.03,4706.32 L 19477.71,4706.32 L 19477.71,4676.21 M 19568.03,4646.09 L 19598.16,4646.09 L 19598.16,4676.21 L 19568.03,4676.21 L 19568.03,4646.09 M 19658.37,4555.76 L 19748.7,4555.76 L 19748.7,4585.87 L 19658.37,4585.87 L 19658.37,4555.76 M 19628.26,4646.09 L 19658.37,4646.09 L 19658.37,4676.21 L 19628.26,4676.21 L 19628.26,4646.09 M 17210.02,4646.09 L 17240.12,4646.09 L 17240.12,4676.21 L 17210.02,4676.21 L 17210.02,4646.09 M 17119.69,4676.21 L 17210.02,4676.21 L 17210.02,4706.32 L 17119.69,4706.32 L 17119.69,4676.21 M 17089.57,4585.87 L 17119.69,4585.87 L 17119.69,4676.21 L 17089.57,4676.21 L 17089.57,4585.87 M 17119.69,4555.76 L 17210.02,4555.76 L 17210.02,4585.87 L 17119.69,4585.87 L 17119.69,4555.76 M 18785.21,4495.55 L 18815.32,4495.55 L 18815.32,4525.65 L 18785.21,4525.65 L 18785.21,4495.55 M 18965.86,4615.98 L 18995.96,4615.98 L 18995.96,4646.09 L 18965.86,4646.09 L 18965.86,4615.98 M 18061.45,4555.76 L 18121.68,4555.76 L 18121.68,4585.87 L 18061.45,4585.87 L 18061.45,4555.76 M 18121.68,4585.87 L 18151.79,4585.87 L 18151.79,4706.32 L 18121.68,4706.32 L 18121.68,4585.87 M 17300.34,4555.76 L 17386.12,4555.76 L 17386.12,4585.87 L 17300.34,4585.87 L 17300.34,4555.76 M 17270.23,4585.87 L 17300.34,4585.87 L 17300.34,4676.21 L 17270.23,4676.21 L 17270.23,4585.87 M 17300.34,4676.21 L 17386.12,4676.21 L 17386.12,4706.32 L 17300.34,4706.32 L 17300.34,4676.21 M 17386.12,4585.87 L 17416.22,4585.87 L 17416.22,4676.21 L 17386.12,4676.21 L 17386.12,4585.87 M 18838.01,4913.81 L 18868.12,4913.81 L 18868.12,5004.13 L 18838.01,5004.13 L 18838.01,4913.81 M 18752.25,5004.13 L 18838.01,5004.13 L 18838.01,5034.24 L 18752.25,5034.24 L 18752.25,5004.13 M 18722.14,4913.81 L 18752.25,4913.81 L 18752.25,5004.13 L 18722.14,5004.13 L 18722.14,4913.81 M 18752.25,4883.7 L 18838.01,4883.7 L 18838.01,4913.81 L 18752.25,4913.81 L 18752.25,4883.7 M 18001.23,4555.76 L 18031.34,4555.76 L 18031.34,4585.87 L 18061.45,4585.87 L 18061.45,4615.98 L 18031.34,4615.98 L 18031.34,4706.32 L 18001.23,4706.32 L 18001.23,4555.76 M 19808.91,4555.76 L 19839.02,4555.76 L 19839.02,4585.87 L 19861.92,4585.87 L 19861.92,4615.98 L 19839.02,4615.98 L 19839.02,4706.32 L 19808.91,4706.32 L 19808.91,4555.76 M 18332.44,4706.32 L 18302.33,4706.32 L 18302.33,4676.21 L 18272.22,4676.21 L 18272.22,4646.09 L 18302.33,4646.09 L 18302.33,4555.76 L 18332.44,4555.76 L 18332.44,4706.32 M 18212,4676.21 L 18181.9,4676.21 L 18181.9,4555.76 L 18212,4555.76 L 18212,4676.21 M 18272.22,4706.32 L 18212,4706.32 L 18212,4676.21 L 18272.22,4676.21 L 18272.22,4706.32 M 17459.27,4555.76 L 17489.38,4555.76 L 17489.38,4585.87 L 17519.49,4585.87 L 17519.49,4615.98 L 17489.38,4615.98 L 17489.38,4706.32 L 17459.27,4706.32 L 17459.27,4555.76 M 17579.7,4585.87 L 17609.81,4585.87 L 17609.81,4706.32 L 17579.7,4706.32 L 17579.7,4585.87 M 17519.49,4555.76 L 17579.7,4555.76 L 17579.7,4585.87 L 17519.49,4585.87 L 17519.49,4555.76 M 18421.05,4883.7 L 18481.26,4883.7 L 18481.26,4913.81 L 18421.05,4913.81 L 18421.05,4883.7 M 18481.26,4913.81 L 18511.37,4913.81 L 18511.37,5034.24 L 18481.26,5034.24 L 18481.26,4913.81 M 18360.83,4883.7 L 18390.94,4883.7 L 18390.94,4913.81 L 18421.05,4913.81 L 18421.05,4943.92 L 18390.94,4943.92 L 18390.94,5034.24 L 18360.83,5034.24 L 18360.83,4883.7 M 19357.28,5034.24 L 19297.06,5034.24 L 19297.06,5004.13 L 19357.28,5004.13 L 19357.28,5034.24 M 19297.06,5004.13 L 19266.95,5004.13 L 19266.95,4883.7 L 19297.06,4883.7 L 19297.06,5004.13 M 19417.49,5034.24 L 19387.38,5034.24 L 19387.38,5004.13 L 19357.28,5004.13 L 19357.28,4974.02 L 19387.38,4974.02 L 19387.38,4883.7 L 19417.49,4883.7 L 19417.49,5034.24 M 19778.8,5034.24 L 19748.7,5034.24 L 19748.7,5004.13 L 19718.59,5004.13 L 19718.59,4974.02 L 19748.7,4974.02 L 19748.7,4883.7 L 19778.8,4883.7 L 19778.8,5034.24 M 19658.37,5004.13 L 19628.26,5004.13 L 19628.26,4883.7 L 19658.37,4883.7 L 19658.37,5004.13 M 19718.59,5034.24 L 19658.37,5034.24 L 19658.37,5004.13 L 19718.59,5004.13 L 19718.59,5034.24 M 19748.7,4585.87 L 19778.8,4585.87 L 19778.8,4706.32 L 19658.37,4706.32 L 19658.37,4676.21 L 19748.7,4676.21 L 19748.7,4646.09 L 19658.37,4646.09 L 19658.37,4615.98 L 19748.7,4615.98 L 19748.7,4585.87 M 18300.61,4913.81 L 18330.72,4913.81 L 18330.72,5034.24 L 18210.27,5034.24 L 18210.27,5004.13 L 18300.61,5004.13 L 18300.61,4974.02 L 18210.27,4974.02 L 18210.27,4943.92 L 18300.61,4943.92 L 18300.61,4913.81 M 18180.17,4974.02 L 18210.27,4974.02 L 18210.27,5004.13 L 18180.17,5004.13 L 18180.17,4974.02 M 18210.27,4883.7 L 18300.61,4883.7 L 18300.61,4913.81 L 18210.27,4913.81 L 18210.27,4883.7 M 16941.59,4883.7 L 17031.93,4883.7 L 17031.93,4913.81 L 16941.59,4913.81 L 16941.59,4883.7 M 16911.48,4974.02 L 16941.59,4974.02 L 16941.59,5004.13 L 16911.48,5004.13 L 16911.48,4974.02 M 17031.93,4913.81 L 17062.04,4913.81 L 17062.04,5034.24 L 16941.59,5034.24 L 16941.59,5004.13 L 17031.93,5004.13 L 17031.93,4974.02 L 16941.59,4974.02 L 16941.59,4943.92 L 17031.93,4943.92 L 17031.93,4913.81 M 19387.38,4167.61 L 19266.95,4167.61 L 19266.95,4378.38 L 19387.38,4378.38 L 19387.38,4348.27 L 19297.06,4348.27 L 19297.06,4288.06 L 19387.38,4288.06 L 19387.38,4257.95 L 19297.06,4257.95 L 19297.06,4197.72 L 19387.38,4197.72 L 19387.38,4167.61 M 19086.29,4167.61 L 19086.29,4378.38 L 19116.4,4378.38 L 19116.4,4227.84 L 19146.5,4227.84 L 19146.5,4197.72 L 19116.4,4197.72 L 19116.4,4167.61 L 19086.29,4167.61 M 19236.84,4167.61 L 19236.84,4378.38 L 19206.74,4378.38 L 19206.74,4227.84 L 19176.63,4227.84 L 19176.63,4197.72 L 19206.74,4197.72 L 19206.74,4167.61 L 19236.84,4167.61 M 18991.14,4167.61 L 19021.27,4167.61 L 19021.27,4288.06 L 19051.38,4288.06 L 19051.38,4318.16 L 19021.27,4318.16 L 19021.27,4378.38 L 18991.14,4378.38 L 18991.14,4318.16 L 18900.82,4318.16 L 18900.82,4257.95 L 18930.93,4257.95 L 18930.93,4288.06 L 18991.14,4288.06 L 18991.14,4227.84 L 18961.04,4227.84 L 18961.04,4197.72 L 18991.14,4197.72 L 18991.14,4167.61 M 18724.72,4167.61 L 18724.72,4197.72 L 18810.5,4197.72 L 18810.5,4227.84 L 18840.6,4227.84 L 18840.6,4197.72 L 18870.71,4197.72 L 18870.71,4167.61 L 18724.72,4167.61 M 18810.5,4227.84 L 18780.39,4227.84 L 18780.39,4257.95 L 18750.28,4257.95 L 18750.28,4288.06 L 18840.6,4288.06 L 18840.6,4257.95 L 18810.5,4257.95 L 18810.5,4227.84 M 18544.07,4197.72 L 18544.07,4348.27 L 18574.18,4348.27 L 18574.18,4318.16 L 18604.29,4318.16 L 18604.29,4288.06 L 18574.18,4288.06 L 18574.18,4197.72 L 18544.07,4197.72 M 18664.5,4197.72 L 18664.5,4227.84 L 18634.4,4227.84 L 18634.4,4257.95 L 18664.5,4257.95 L 18664.5,4348.27 L 18694.61,4348.27 L 18694.61,4197.72 L 18664.5,4197.72 M 18363.41,4227.84 L 18363.41,4348.27 L 18393.53,4348.27 L 18393.53,4288.06 L 18483.86,4288.06 L 18483.86,4257.95 L 18393.53,4257.95 L 18393.53,4227.84 L 18363.41,4227.84 M 18393.53,4348.27 L 18483.86,4348.27 L 18483.86,4378.38 L 18393.53,4378.38 L 18393.53,4348.27 M 16455.86,4883.7 L 16425.75,4883.7 L 16425.75,4913.81 L 16395.64,4913.81 L 16395.64,4943.92 L 16485.97,4943.92 L 16485.97,4913.81 L 16455.86,4913.81 L 16455.86,4883.7 M 16370.08,4823.48 L 16370.08,4853.59 L 16455.86,4853.59 L 16455.86,4883.7 L 16485.97,4883.7 L 16485.97,4853.59 L 16516.08,4853.59 L 16516.08,4823.48 L 16370.08,4823.48 M 16370.08,5004.13 L 16485.97,5004.13 L 16485.97,5034.24 L 16370.08,5034.24 L 16370.08,5004.13 M 16485.97,4943.92 L 16516.08,4943.92 L 16516.08,5004.13 L 16485.97,5004.13 L 16485.97,4943.92 M 18905.64,4555.76 L 18905.64,4585.87 L 18995.96,4585.87 L 18995.96,4615.98 L 19026.07,4615.98 L 19026.07,4585.87 L 19056.18,4585.87 L 19056.18,4555.76 L 18905.64,4555.76 M 18935.75,4646.09 L 18965.86,4646.09 L 18965.86,4676.21 L 19056.18,4676.21 L 19056.18,4706.32 L 18905.64,4706.32 L 18905.64,4676.21 L 18935.75,4676.21 L 18935.75,4646.09 M 18755.1,4555.76 L 18815.32,4555.76 L 18815.32,4676.21 L 18845.42,4676.21 L 18845.42,4706.32 L 18755.1,4706.32 L 18755.1,4676.21 L 18785.21,4676.21 L 18785.21,4585.87 L 18755.1,4585.87 L 18755.1,4555.76 M 17850.69,4555.76 L 17910.91,4555.76 L 17910.91,4676.21 L 17941.02,4676.21 L 17941.02,4706.32 L 17850.69,4706.32 L 17850.69,4676.21 L 17880.8,4676.21 L 17880.8,4585.87 L 17850.69,4585.87 L 17850.69,4555.76 M 17880.8,4495.55 L 17910.91,4495.55 L 17910.91,4525.65 L 17880.8,4525.65 L 17880.8,4495.55 M 17517.77,4823.48 L 17547.88,4823.48 L 17547.88,4853.59 L 17517.77,4853.59 L 17517.77,4823.48 M 17487.67,4883.7 L 17547.88,4883.7 L 17547.88,5004.13 L 17577.99,5004.13 L 17577.99,5034.24 L 17487.67,5034.24 L 17487.67,5004.13 L 17517.77,5004.13 L 17517.77,4913.81 L 17487.67,4913.81 L 17487.67,4883.7 M 17760.37,4646.09 L 17790.48,4646.09 L 17790.48,4676.21 L 17760.37,4676.21 L 17760.37,4646.09 M 17730.26,4676.21 L 17760.37,4676.21 L 17760.37,4706.32 L 17730.26,4706.32 L 17730.26,4676.21 M 17700.15,4495.55 L 17730.26,4495.55 L 17730.26,4555.76 L 17760.37,4555.76 L 17760.37,4585.87 L 17730.26,4585.87 L 17730.26,4676.21 L 17700.15,4676.21 L 17700.15,4585.87 L 17670.03,4585.87 L 17670.03,4555.76 L 17700.15,4555.76 L 17700.15,4495.55 M 17879.09,4823.48 L 17909.19,4823.48 L 17909.19,4883.7 L 17939.3,4883.7 L 17939.3,4913.81 L 17909.19,4913.81 L 17909.19,5004.13 L 17879.09,5004.13 L 17879.09,4913.81 L 17848.96,4913.81 L 17848.96,4883.7 L 17879.09,4883.7 L 17879.09,4823.48 M 17909.19,5004.13 L 17939.3,5004.13 L 17939.3,5034.24 L 17909.19,5034.24 L 17909.19,5004.13 M 17939.3,4974.02 L 17969.41,4974.02 L 17969.41,5004.13 L 17939.3,5004.13 L 17939.3,4974.02 M 17999.52,4883.7 L 18029.63,4883.7 L 18029.63,4913.81 L 18059.73,4913.81 L 18059.73,4943.92 L 18029.63,4943.92 L 18029.63,5034.24 L 17999.52,5034.24 L 17999.52,4883.7 M 18119.95,4913.81 L 18150.06,4913.81 L 18150.06,4948.48 L 18119.95,4948.48 L 18119.95,4913.81 M 18059.73,4883.7 L 18119.95,4883.7 L 18119.95,4913.81 L 18059.73,4913.81 L 18059.73,4883.7 M 17302.9,4823.48 L 17358.57,4823.48 L 17358.57,5004.13 L 17388.68,5004.13 L 17388.68,5029.69 L 17302.9,5029.69 L 17302.9,5004.13 L 17333.01,5004.13 L 17333.01,4853.59 L 17302.9,4853.59 L 17302.9,4823.48 M 16765.49,4823.48 L 16821.16,4823.48 L 16821.16,5004.13 L 16851.27,5004.13 L 16851.27,5029.69 L 16765.49,5029.69 L 16765.49,5004.13 L 16795.6,5004.13 L 16795.6,4853.59 L 16765.49,4853.59 L 16765.49,4823.48 M 18571.59,4883.7 L 18631.8,4883.7 L 18631.8,4913.81 L 18571.59,4913.81 L 18571.59,4883.7 M 18541.48,4913.81 L 18571.59,4913.81 L 18571.59,5004.13 L 18541.48,5004.13 L 18541.48,4913.81 M 18631.8,4913.81 L 18661.91,4913.81 L 18661.91,4823.48 L 18692.02,4823.48 L 18692.02,5029.69 L 18571.59,5029.69 L 18571.59,5004.13 L 18661.91,5004.13 L 18661.91,4943.92 L 18631.8,4943.92 L 18631.8,4913.81 M 19086.29,4913.81 L 19116.4,4913.81 L 19116.4,5004.13 L 19086.29,5004.13 L 19086.29,4913.81 M 19116.4,4883.7 L 19176.63,4883.7 L 19176.63,4913.81 L 19116.4,4913.81 L 19116.4,4883.7 M 19176.63,4913.81 L 19206.74,4913.81 L 19206.74,4883.7 L 19236.84,4883.7 L 19236.84,5089.91 L 19206.74,5089.91 L 19206.74,5029.69 L 19116.4,5029.69 L 19116.4,5004.13 L 19206.74,5004.13 L 19206.74,4943.92 L 19176.63,4943.92 L 19176.63,4913.81 M 16670.62,4883.7 L 16610.4,4883.7 L 16610.4,4913.81 L 16670.62,4913.81 L 16670.62,4883.7 M 16610.4,4913.81 L 16580.29,4913.81 L 16580.29,4883.7 L 16550.17,4883.7 L 16550.17,5089.91 L 16580.29,5089.91 L 16580.29,5029.69 L 16670.62,5029.69 L 16670.62,5004.13 L 16580.29,5004.13 L 16580.29,4943.92 L 16610.4,4943.92 L 16610.4,4913.81 M 16700.73,4913.81 L 16670.62,4913.81 L 16670.62,5004.13 L 16700.73,5004.13 L 16700.73,4913.81 M 16335.43,4913.81 L 16305.3,4913.81 L 16305.3,5004.13 L 16335.43,5004.13 L 16335.43,4913.81 M 16245.09,4913.81 L 16214.98,4913.81 L 16214.98,4883.7 L 16184.87,4883.7 L 16184.87,5089.91 L 16214.98,5089.91 L 16214.98,5029.69 L 16305.3,5029.69 L 16305.3,5004.13 L 16214.98,5004.13 L 16214.98,4943.92 L 16245.09,4943.92 L 16245.09,4913.81 M 16305.3,4883.7 L 16245.09,4883.7 L 16245.09,4913.81 L 16305.3,4913.81 L 16305.3,4883.7 M 15635.5,5091.93 L 15635.5,5091.93"
         id="path3289"
         style="fill:url(#linearGradient2511)" />
      <path
         d="M 5234.42,1660.15 C 4962.53,477.11 4258.53,425.63 4093,425.63 L 4093,356.46 C 4460.1,356.46 5053.4,618.41 5269.01,1517.52 C 5545.22,620.32 6016.91,379.5 6347.97,374.94 C 6663.44,370.58 6858.02,444.12 7157.02,599.9 L 7157.02,459.5 L 8020.27,459.5 L 8020.27,341.15 L 8089.44,341.15 L 8089.44,459.5 L 8235.83,459.5 L 8235.83,528.67 L 8089.44,528.67 L 8089.44,2220.23 L 8710.26,651 L 9305.05,651 L 9356.87,528.67 L 8615.72,528.67 L 8615.72,459.5 L 9386.2,459.5 L 9467.65,267.27 L 9531.34,294.27 L 9461.32,459.5 L 9625.27,459.5 L 9625.27,528.67 L 9432,528.67 L 8948.19,1670.45 L 9588.95,1670.45 L 9588.95,2526.22 C 10188.61,2231.08 10906.06,2447.62 11267.67,3025.39 C 11626.36,2472.51 12327.09,2252.19 12937.63,2500.33 L 12913.33,2461.04 L 13945.25,2461.04 L 14151.4,2794.31 L 14352.73,2468.79 C 14355.71,2463.97 14360.98,2461.04 14366.64,2461.04 L 14366.64,2461.04 C 14372.56,2461.04 14378.02,2464.25 14380.9,2469.43 C 14383.8,2474.61 14383.66,2480.93 14380.54,2485.98 L 14170.61,2825.38 L 14197.5,2868.86 L 14444.96,2468.79 C 14447.94,2463.97 14453.2,2461.04 14458.86,2461.04 L 14458.86,2461.04 C 14464.79,2461.04 14470.25,2464.25 14473.13,2469.43 C 14476.02,2474.61 14475.87,2480.93 14472.75,2485.98 L 14216.72,2899.92 L 14243.62,2943.41 L 14541.98,2461.04 L 15573.89,2461.04 L 14759.56,3777.58 L 14786.47,3821.06 L 15645.71,2431.9 L 14573.72,2431.9 C 14567.8,2431.9 14562.34,2428.69 14559.45,2423.52 C 14556.57,2418.33 14556.72,2412.01 14559.84,2406.96 L 14559.84,2406.96 C 14562.82,2402.16 14568.07,2399.23 14573.72,2399.23 L 15704.34,2399.23 L 14851.79,3777.58 L 15649.33,5067.01 C 15652.45,5072.04 15652.6,5078.38 15649.72,5083.55 C 15646.83,5088.72 15641.37,5091.94 15635.45,5091.94 C 15629.78,5091.94 15624.52,5089.01 15621.55,5084.19 L 14832.57,3808.63 L 14805.67,3852.13 L 15572.54,5091.94 L 14540.64,5091.94 L 14343.53,4773.26 L 14151.2,5084.19 C 14148.22,5089.01 14142.97,5091.94 14137.3,5091.94 L 14137.3,5091.94 C 14134.63,5091.94 14131.99,5091.29 14129.63,5090.02 C 14127.26,5091.29 14124.62,5091.94 14121.94,5091.94 C 14116.02,5091.94 14110.56,5088.72 14107.66,5083.55 C 14104.78,5078.38 14104.92,5072.04 14108.04,5067.01 L 14316.62,4729.78 L 14289.73,4686.3 L 14043.61,5084.19 C 14040.64,5089.01 14035.38,5091.94 14029.71,5091.94 C 14023.79,5091.94 14018.33,5088.72 14015.44,5083.55 C 14012.56,5078.38 14012.71,5072.04 14015.81,5067.01 L 14270.51,4655.23 L 14243.62,4611.75 L 13946.6,5091.94 L 12914.68,5091.94 L 12944.88,5043.11 C 12333.85,5295.51 11629.69,5076.97 11268.92,4522.95 C 10907.8,5102.13 10189.41,5314.05 9588.95,5018.53 L 9588.95,5091.94 L 8712.16,5091.94 L 8712.16,5085.36 L 8567.42,5085.36 L 8630.63,5263.8 L 8565.43,5286.89 L 8494.04,5085.36 L 8216.09,5085.36 L 8216.09,5016.19 L 8469.54,5016.19 L 7953.12,3558.47 L 7922.6,3632.82 L 7922.6,5091.94 L 7350.71,5091.94 L 7350.71,651 L 7922.6,651 L 7922.6,2641.95 L 8020.27,2395.08 L 8020.27,528.67 L 7226.19,528.67 L 7226.19,730.84 C 6881.71,499.2 6650.87,444.12 6347.97,444.12 C 6108.14,444.12 5581.83,618.93 5303.59,1660.15 L 5234.42,1660.15 L 5234.42,1660.15 z M 6473.17,5185.28 L 5382.8,5185.34 L 5382.8,5116.16 L 6127.42,5116.16 C 5559.98,4864.19 5312.73,3952.42 5312.73,2871.47 C 5312.73,1597.04 5656.27,557.61 6463.27,557.61 C 6834.13,557.61 7044.84,748.12 7226.19,921.72 L 7226.19,1034.96 C 7226.25,1035.07 7226.32,1035.17 7226.38,1035.27 L 7226.33,1994.94 L 7164.72,1994.94 C 7031.03,1751.33 6785.22,1409.2 6531.34,1409.2 C 6108.22,1409.2 5898.92,2064.5 5904.24,2871.47 C 5898.92,3678.45 6108.22,4333.75 6531.34,4333.75 C 6785.22,4333.75 7031.03,3991.62 7164.72,3748 L 7226.33,3748 L 7226.38,4707.68 C 7226.32,4707.78 7226.25,4707.87 7226.19,4707.98 L 7226.19,4821.23 C 7046.47,4993.27 6837.86,5181.91 6473.17,5185.28 z M 4084.63,557.61 C 4884.7,557.61 5225.29,1648.75 5225.29,2871.47 C 5225.29,4094.2 4884.7,5185.34 4084.63,5185.34 C 3284.56,5185.34 2943.98,4145.91 2943.98,2871.47 C 2943.98,1597.04 3284.56,557.61 4084.63,557.61 L 4084.63,557.61 z M 2092.78,651 L 1051.04,651 L 1051.04,3230 C 1057.78,3248.03 1064.46,3266.06 1071.09,3284.13 C 1117.87,3271.33 1166.4,3266.14 1214.81,3268.72 C 1309.55,3273.8 1394.91,3327.55 1440.41,3410.79 C 1481.54,3486.03 1501.11,3571.15 1496.98,3656.78 C 1495.25,3692.57 1485.83,3727.57 1469.35,3759.39 C 1428.88,3837.56 1366.42,3902.16 1289.68,3945.24 C 1315.64,4033.37 1340.45,4121.82 1364.12,4210.59 C 1409.39,4380.43 1430.66,4555.76 1427.26,4731.51 C 1426.38,4776.83 1416.55,4821.55 1398.32,4863.06 C 1379.63,4905.59 1346.9,4940.42 1305.58,4961.71 C 1275.6,4977.15 1240.63,4979.69 1208.74,4968.77 C 1176.84,4957.85 1150.77,4934.4 1136.54,4903.83 C 1119.99,4868.23 1111.88,4829.3 1112.87,4790.04 C 1113.42,4767.96 1124.09,4747.35 1141.81,4734.14 C 1164.15,4717.48 1191.59,4709.12 1219.42,4710.45 C 1237.69,4711.35 1254.06,4722.01 1262.25,4738.38 C 1270.43,4754.73 1269.13,4774.24 1258.88,4789.39 C 1246.25,4808.05 1227.72,4821.95 1206.26,4828.85 L 1213.61,4844.86 C 1217.07,4853.94 1224.75,4860.77 1234.2,4863.1 C 1243.64,4865.44 1253.63,4863.01 1260.93,4856.59 C 1296.87,4825.97 1319.26,4782.39 1323.2,4735.34 C 1328.4,4654.25 1326.69,4572.88 1318.07,4492.09 C 1292.8,4319.53 1255.2,4148.98 1205.54,3981.79 C 1192.79,3985.84 1179.86,3989.31 1166.8,3992.23 C 1128.57,4000.73 1089.93,4007.35 1051.04,4012.07 L 1051.04,5091.94 L 1748.23,5091.94 L 1748.23,5236.36 L 1817.4,5236.36 L 1817.4,5091.94 L 1965.94,5091.94 L 1965.94,5022.77 L 1817.4,5022.77 L 1817.4,3465.59 L 1884.2,3465.59 L 2492.65,5091.94 L 3160.84,5091.94 L 3221.23,5246.05 L 3285.63,5220.81 L 3225.59,5067.6 L 3434.07,5067.6 L 3434.07,4998.43 L 3198.49,4998.43 L 2478.94,3162.02 C 2743.8,2888.85 2895.75,2477.67 2895.75,1955.48 C 2895.75,1255.6 2706.28,651 2092.78,651 L 2092.78,651 z M 1175.12,3884.37 C 1135.41,3900.72 1093.67,3911.69 1051.04,3916.96 L 1051.04,3523.42 C 1093.96,3642.7 1135.18,3762.59 1174.69,3883.04 C 1174.84,3883.49 1174.98,3883.92 1175.12,3884.37 C 1175.12,3884.37 1175.12,3884.37 1175.12,3884.37 C 1175.12,3884.37 1175.12,3884.37 1175.12,3884.37 C 1175.12,3884.37 1175.12,3884.37 1175.12,3884.37 M 1109.83,3391.32 C 1123.41,3387.59 1137.17,3384.43 1151.02,3381.85 C 1194.47,3373.77 1239.33,3384.27 1274.67,3410.79 C 1306.85,3434.94 1330,3469.17 1340.49,3508.02 C 1363.84,3594.61 1358.75,3686.42 1325.97,3769.91 C 1319.1,3787.43 1307.76,3802.85 1293.09,3814.64 C 1281.83,3823.69 1270.17,3832.22 1258.15,3840.22 C 1212.04,3689.5 1162.58,3539.82 1109.83,3391.32 M 1051.04,3916.96 C 1040.12,3918.3 1029.15,3919.28 1018.16,3919.87 C 898.37,3926.38 786.96,3858.38 737.97,3748.87 C 651.02,3554.49 638.39,3334.99 702.45,3131.92 C 724.95,3060.64 748.18,2989.6 772.17,2918.81 C 778.8,2899.23 785.51,2879.66 792.29,2860.1 C 856.59,3012.84 918.07,3166.76 976.67,3321.78 C 893.17,3366.51 825.79,3436.29 784.01,3521.29 C 777.11,3535.34 779.81,3552.22 790.77,3563.4 C 801.72,3574.58 818.54,3577.63 832.73,3571.02 C 845.06,3562.13 856.49,3552.09 866.89,3541.02 C 909.1,3494.18 959.69,3455.62 1016.05,3427.3 C 1027.84,3459.3 1039.49,3491.33 1051.04,3523.42 L 1051.04,3230 C 995.58,3081.57 936.82,2934.4 874.78,2788.6 C 864.5,2764.45 854.01,2740.39 843.31,2716.45 C 856.22,2681.01 869.34,2645.63 882.66,2610.35 C 901.69,2559.98 916.21,2508.05 926.08,2455.12 C 937.22,2395.27 932.23,2333.52 911.6,2276.23 C 864.6,2145.68 774,2035.33 655.09,1963.81 C 602.78,1932.34 542.46,1916.81 481.46,1919.08 C 430.35,1920.99 389.07,1961.43 386.09,2012.48 C 383.38,2058.81 394.13,2104.95 417,2145.34 C 438.18,2182.72 461,2219.15 485.4,2254.51 C 560.68,2363.62 625.73,2479.44 679.74,2600.48 C 690.35,2624.3 700.91,2648.15 711.4,2672.01 C 694.92,2717.33 678.78,2762.76 662.98,2808.33 C 589.7,3019.72 542.42,3239.27 522.23,3462.1 C 512.7,3567.27 522.05,3673.29 549.86,3775.18 C 588,3914.94 712.26,4013.93 857.02,4019.85 C 921.8,4022.5 986.68,4019.9 1051.04,4012.07 L 1051.04,3916.96 M 1998.37,466.08 L 921.37,466.08 L 921.37,298.28 L 852.2,298.28 L 852.2,466.08 L 691.11,466.08 L 691.11,535.25 L 852.2,535.25 L 852.2,1305.74 L 921.37,1305.74 L 921.37,535.25 L 1998.37,535.25 L 1998.37,466.08"
         id="path3291"
         style="fill:#000000" />
      <path
         d="M 15392.1,2562.35 L 14598.43,2562.35 L 14243.62,3135.99 L 13888.8,2562.35 L 13095.12,2562.35 L 13243.96,2802.98 C 12941.02,2545.81 12535.33,2444.92 12147.24,2530.16 C 11759.14,2615.41 11433.11,2877.08 11265.86,3237.54 C 11115.98,2902.21 10833.86,2651.2 10492.7,2549.61 C 10151.5,2448.01 9784.79,2505.77 9487.64,2707.98 L 9487.64,1755.95 L 8813.47,1755.95 L 8813.47,4974.84 L 9487.64,4974.84 L 9487.64,4845.01 C 9785.32,5047.56 10152.75,5105.17 10494.4,5002.87 C 10836.04,4900.56 11118.16,4648.44 11267.35,4312.08 C 11436.49,4673.92 11765.67,4935.4 12156.42,5018.23 C 12547.17,5101.04 12954.12,4995.61 13255.51,4733.5 L 13096.46,4990.63 L 13890.14,4990.63 L 14243.62,4419.15 L 14597.09,4990.63 L 15390.76,4990.63 L 14640.46,3777.58 L 15392.1,2562.35 L 15392.1,2562.35 z"
         id="path3293"
         style="fill:#b4c3d3" />
      <path
         d="M 10686,3773.21 C 10686,3442.28 10417.74,3174.01 10086.82,3174.01 C 9755.91,3174.01 9487.64,3442.28 9487.64,3773.21 C 9487.64,4104.13 9755.91,4372.39 10086.82,4372.39 C 10417.74,4372.39 10686,4104.13 10686,3773.21 L 10686,3773.21 z M 13656.22,3469.52 C 13706.48,3674.01 13705.19,3887.78 13652.51,4091.65 L 13846.77,3777.58 L 13656.22,3469.52 M 13019.5,3773.21 C 13019.5,3442.28 12751.24,3174.01 12420.32,3174.01 C 12089.39,3174.01 11821.12,3442.28 11821.12,3773.21 C 11821.12,4104.13 12089.39,4372.39 12420.32,4372.39 C 12751.24,4372.39 13019.5,4104.13 13019.5,3773.21 L 13019.5,3773.21 z"
         id="path3295"
         style="fill:#000000" />
      <path
         d="M 1622.93,5022.77 L 1748.23,5022.77 L 1748.23,3465.59 L 1622.93,3465.59 L 1622.93,5022.77 M 1881.67,2484.06 C 2092.99,2484.06 2126.1,2216.13 2125.9,2032.26 C 2125.69,1848.39 2098.99,1648.86 1914.58,1648.86 L 1622.93,1648.86 L 1622.93,2664.94 L 1748.23,2664.94 L 1748.23,2484.06 L 1881.67,2484.06 L 1881.67,2484.06 z M 1881.67,2553.22 L 1817.4,2553.22 L 1817.4,2664.94 L 1821.84,2664.94 C 2292.8,2664.94 2292.8,2243.22 2292.8,2096.69 L 2292.8,2002.1 C 2292.8,1860.05 2291.84,1467.99 1895.27,1467.99 L 1622.93,1467.99 L 1622.93,1579.69 L 1881.67,1579.69 C 2016.26,1579.69 2196.79,1598.83 2196.79,2050.13 C 2196.79,2501.43 2015.33,2549.46 1881.67,2553.22 L 1881.67,2553.22 z M 760.15,2540.89 C 705.94,2432.7 647.29,2326.77 584.34,2223.43 C 564.32,2190.57 546.22,2156.6 530.13,2121.65 C 519.62,2098.87 513.39,2074.35 511.71,2049.32 C 511.36,2043.92 513.29,2038.62 517.06,2034.74 C 520.8,2030.85 526.04,2028.74 531.44,2028.93 C 557.45,2029.81 582.78,2037.27 605.11,2050.63 C 701.08,2108.04 769.48,2202.1 794.53,2311.08 C 801.83,2342.87 802.06,2375.88 795.19,2407.76 C 785.51,2452.65 773.82,2497.06 760.15,2540.89 L 760.15,2540.89 M 12403.95,4270.81 L 12436.63,4270.81 C 12708.27,4261.89 12922.56,4036.78 12918.1,3765.03 C 12913.64,3493.28 12692.08,3275.32 12420.29,3275.32 C 12148.5,3275.32 11926.94,3493.28 11922.48,3765.03 C 11918.01,4036.78 12132.31,4261.89 12403.95,4270.81 z M 10070.46,4270.81 L 10103.13,4270.81 C 10374.77,4261.89 10589.07,4036.78 10584.6,3765.03 C 10580.15,3493.28 10358.58,3275.32 10086.79,3275.32 C 9815,3275.32 9593.44,3493.28 9588.99,3765.03 C 9584.52,4036.78 9798.81,4261.89 10070.46,4270.81 z M 8509.58,2705.43 L 8712.12,3229.34 L 8712.12,2227.42 L 8509.58,2705.43 M 8542.88,5016.19 L 7992.48,3462.5 L 8057,3305.32 L 8693.03,5016.19 L 8542.88,5016.19 M 4084.57,1394.21 C 4469.84,1394.21 4633.74,2090.78 4633.74,2871.47 C 4633.74,3652.17 4469.84,4348.74 4084.57,4348.74 C 3699.32,4348.74 3535.42,3685.11 3535.42,2871.47 C 3535.42,2057.84 3699.32,1394.21 4084.57,1394.21 L 4084.57,1394.21 z"
         id="path3297"
         style="fill:#ffc000" />
      <path
         d="M 12404,4270.81 C 12414.89,4271.59 12425.77,4271.55 12436.68,4270.81 L 12436.68,4225.04 C 12683.1,4216.12 12876.91,4011.4 12872.39,3764.88 C 12867.86,3518.35 12666.6,3320.9 12420.02,3321.08 C 12414.11,3320.96 12409.23,3324.07 12406.25,3329.15 C 12403.27,3334.26 12403.25,3340.58 12406.23,3345.67 C 12409.21,3350.77 12414.13,3353.86 12420.04,3353.76 C 12571.87,3353.65 12711.92,3435.6 12786.18,3568.04 C 12860.46,3700.47 12857.34,3862.73 12778.08,3992.2 C 12698.82,4121.69 12555.71,4198.25 12404,4192.34 L 12404,4270.81 L 12404,4270.81 z M 10086.84,4146.9 C 10077.81,4146.9 10070.51,4139.58 10070.51,4130.57 C 10070.51,4121.53 10077.81,4114.21 10086.84,4114.21 C 10275.18,4114.21 10427.86,3961.54 10427.86,3773.21 C 10427.86,3584.86 10275.18,3432.19 10086.84,3432.19 C 10077.81,3432.19 10070.51,3424.87 10070.51,3415.85 C 10070.51,3406.82 10077.81,3399.5 10086.84,3399.5 C 10293.23,3399.5 10460.53,3566.81 10460.53,3773.21 C 10460.53,3979.59 10293.23,4146.9 10086.84,4146.9 z M 12420.34,4146.9 C 12411.31,4146.9 12404,4139.58 12404,4130.57 C 12404,4121.53 12411.31,4114.21 12420.34,4114.21 C 12608.67,4114.21 12761.36,3961.54 12761.36,3773.21 C 12761.36,3584.86 12608.67,3432.19 12420.34,3432.19 C 12411.31,3432.19 12404,3424.87 12404,3415.85 C 12404,3406.82 12411.31,3399.5 12420.34,3399.5 C 12626.72,3399.5 12794.03,3566.81 12794.03,3773.21 C 12794.03,3979.59 12626.72,4146.9 12420.34,4146.9 z M 10070.51,4270.81 C 10081.38,4271.34 10092.27,4271.21 10103.18,4270.81 L 10103.18,4225.04 C 10349.6,4216.12 10543.41,4011.4 10538.89,3764.88 C 10534.36,3518.35 10333.1,3320.9 10086.52,3321.08 C 10080.61,3320.96 10075.73,3324.07 10072.75,3329.15 C 10069.77,3334.26 10069.75,3340.58 10072.73,3345.67 C 10075.71,3350.77 10080.63,3353.86 10086.54,3353.76 C 10238.38,3353.65 10378.43,3435.6 10452.69,3568.04 C 10526.96,3700.47 10523.84,3862.73 10444.58,3992.2 C 10365.33,4121.69 10222.22,4198.25 10070.51,4192.34 L 10070.51,4270.81 L 10070.51,4270.81 z M 4084.64,4140.85 L 4084.64,3970 L 4015.45,3970 L 4015.45,4151.95 L 4015.45,4221.11 C 4389.39,4221.11 4499.14,3586.11 4501.73,2906.05 L 6075.48,2906.05 C 6079.21,3384.8 6184.22,4117.53 6496.77,4168.07 L 6496.77,4348.74 L 6565.94,4348.74 L 6565.94,2906.05 L 6841.31,2906.05 L 6841.31,2836.88 L 6565.94,2836.88 L 6565.94,2587.32 L 6496.77,2587.32 L 6496.77,2836.88 L 6144.89,2836.88 C 6152.39,2362.37 6284.96,1668.64 6531.35,1657.38 L 6531.35,1588.2 C 6208.17,1600.72 6082.54,2341.17 6075.69,2836.88 L 4501.62,2836.88 C 4497.13,2160.01 4387.85,1530.21 4015.45,1530.21 L 4015.45,1596.59 L 4015.45,2836.88 L 3804.07,2836.88 L 3804.07,2906.05 L 4015.45,2906.05 L 4015.45,3147.63 L 4084.64,3147.63 L 4084.64,2906.05 L 4432.45,2906.05 C 4428.99,3341.35 4374.14,4044.76 4084.64,4140.85 L 4084.64,4140.85 z"
         id="path3299"
         style="fill:#000000" />
      <path
         d="M 6144.67,2906.05 C 6149.14,3359.27 6263.9,4035.92 6496.76,4097.38 L 6496.76,2906.05 L 6144.67,2906.05 z M 4432.55,2836.88 L 4084.63,2836.88 L 4084.63,1607.77 C 4372.66,1703.49 4430.49,2400.81 4432.55,2836.88 z"
         id="path3301"
         style="fill:#ffc000" />
    </g>
    <text
       x="84.267838"
       y="-78.994911"
       id="text3328"
       xml:space="preserve"
       style="font-size:40px;font-style:normal;font-weight:normal;fill:#000000;fill-opacity:1;stroke:none;stroke-width:1px;stroke-linecap:butt;stroke-linejoin:miter;stroke-opacity:1;font-family:Bitstream Vera Sans"><tspan
         x="84.267838"
         y="-78.994911"
         id="tspan3330"
         style="font-size:36px">Power / Hold</tspan></text>
    <path
       d="M 180.6592,-69.719418 L 233.86178,15.971533"
       id="path3332"
       style="fill:none;fill-rule:evenodd;stroke:#000000;stroke-width:0.58381706px;stroke-linecap:butt;stroke-linejoin:miter;stroke-opacity:1" />
    <text
       x="88.235291"
       y="-179.43494"
       id="text3334"
       xml:space="preserve"
       style="font-size:40px;font-style:normal;font-weight:normal;fill:#000000;fill-opacity:1;stroke:none;stroke-width:1px;stroke-linecap:butt;stroke-linejoin:miter;stroke-opacity:1;font-family:Bitstream Vera Sans"><tspan
         x="88.235291"
         y="-179.43494"
         id="tspan3336" /></text>
    <path
       d="M 625.49019,18.604286 L 570.58824,-65.709439"
       id="path3338"
       style="fill:none;fill-rule:evenodd;stroke:#000000;stroke-width:1px;stroke-linecap:butt;stroke-linejoin:miter;stroke-opacity:1" />
    <path
       d="M 747.05882,18.624918 L 747.05882,-64.089634"
       id="path3340"
       style="fill:none;fill-rule:evenodd;stroke:#000000;stroke-width:0.97915107px;stroke-linecap:butt;stroke-linejoin:miter;stroke-opacity:1" />
    <path
       d="M 853.393,17.832112 L 921.23648,-64.937264"
       id="path3342"
       style="fill:none;fill-rule:evenodd;stroke:#000000;stroke-width:1.0235939px;stroke-linecap:butt;stroke-linejoin:miter;stroke-opacity:1" />
    <text
       x="513.77417"
       y="-76.983841"
       id="text3344"
       xml:space="preserve"
       style="font-size:40px;font-style:normal;font-weight:normal;fill:#000000;fill-opacity:1;stroke:none;stroke-width:1px;stroke-linecap:butt;stroke-linejoin:miter;stroke-opacity:1;font-family:Bitstream Vera Sans"><tspan
         x="513.77417"
         y="-76.983841"
         id="tspan3346">Minus</tspan></text>
    <text
       x="695.03558"
       y="-76.983841"
       id="text3348"
       xml:space="preserve"
       style="font-size:40px;font-style:normal;font-weight:normal;fill:#000000;fill-opacity:1;stroke:none;stroke-width:1px;stroke-linecap:butt;stroke-linejoin:miter;stroke-opacity:1;font-family:Bitstream Vera Sans"><tspan
         x="695.03558"
         y="-76.983841"
         id="tspan3350">Menu</tspan></text>
    <text
       x="883.49945"
       y="-75.783432"
       id="text3352"
       xml:space="preserve"
       style="font-size:40px;font-style:normal;font-weight:normal;fill:#000000;fill-opacity:1;stroke:none;stroke-width:1px;stroke-linecap:butt;stroke-linejoin:miter;stroke-opacity:1;font-family:Bitstream Vera Sans"><tspan
         x="883.49945"
         y="-75.783432"
         id="tspan3354">Plus</tspan></text>
  </g>
</svg>
