<?xml version="1.0" encoding="UTF-8" standalone="no"?>
<!-- Creator: CorelDRAW -->
<svg
   xmlns:dc="http://purl.org/dc/elements/1.1/"
   xmlns:cc="http://web.resource.org/cc/"
   xmlns:rdf="http://www.w3.org/1999/02/22-rdf-syntax-ns#"
   xmlns:svg="http://www.w3.org/2000/svg"
   xmlns="http://www.w3.org/2000/svg"
   xmlns:sodipodi="http://sodipodi.sourceforge.net/DTD/sodipodi-0.dtd"
   xmlns:inkscape="http://www.inkscape.org/namespaces/inkscape"
   xml:space="preserve"
   width="100mm"
   height="152mm"
   shape-rendering="geometricPrecision"
   text-rendering="geometricPrecision"
   image-rendering="optimizeQuality"
   fill-rule="evenodd"
   viewBox="0 0 10000 15200"
   id="svg2"
   sodipodi:version="0.32"
   inkscape:version="0.44"
   sodipodi:docname="gigabeat.svg"
   sodipodi:docbase="/home/martin/src/dev/rockbox-devel"><metadata
   id="metadata444"><rdf:RDF><cc:Work
       rdf:about=""><dc:format>image/svg+xml</dc:format><dc:type
         rdf:resource="http://purl.org/dc/dcmitype/StillImage" /></cc:Work></rdf:RDF></metadata><defs
   id="defs442" /><sodipodi:namedview
   inkscape:window-height="699"
   inkscape:window-width="1265"
   inkscape:pageshadow="2"
   inkscape:pageopacity="0.0"
   guidetolerance="10.0"
   gridtolerance="10.0"
   objecttolerance="10.0"
   borderopacity="1.0"
   bordercolor="#666666"
   pagecolor="#ffffff"
   id="base"
   showguides="false"
   inkscape:zoom="0.7556871"
   inkscape:cx="177.16536"
   inkscape:cy="293.50696"
   inkscape:window-x="5"
   inkscape:window-y="48"
   inkscape:current-layer="svg2" />
 <g
   id="Ebene_x0020_1"
   inkscape:export-filename="/home/martin/src/dev/rockbox-devel/gigabeat.png"
   inkscape:export-xdpi="72"
   inkscape:export-ydpi="72">
  <defs
   id="defs5">
   <linearGradient
   id="id0"
   gradientUnits="userSpaceOnUse"
   x1="9478.6"
   y1="11071.1"
   x2="9384.42"
   y2="11071.1">
    <stop
   offset="0"
   stop-color="#828282"
   id="stop8" />
    <stop
   offset="0.121569"
   stop-color="#7F7DFF"
   id="stop10" />
    <stop
   offset="0.290196"
   stop-color="#F0F0F0"
   id="stop12" />
    <stop
   offset="0.45098"
   stop-color="#ABABAB"
   id="stop14" />
    <stop
   offset="0.619608"
   stop-color="#D1D3E6"
   id="stop16" />
    <stop
   offset="1"
   stop-color="#575659"
   id="stop18" />
    <stop
   offset="1"
   stop-color="#575757"
   id="stop20" />
   </linearGradient>
   <linearGradient
   id="id1"
   gradientUnits="userSpaceOnUse"
   x1="9478.6"
   y1="8480.54"
   x2="9384.42"
   y2="8480.54">
    <stop
   offset="0"
   stop-color="#828282"
   id="stop23" />
    <stop
   offset="0.121569"
   stop-color="#7F7DFF"
   id="stop25" />
    <stop
   offset="0.290196"
   stop-color="#F0F0F0"
   id="stop27" />
    <stop
   offset="0.45098"
   stop-color="#ABABAB"
   id="stop29" />
    <stop
   offset="0.619608"
   stop-color="#D1D3E6"
   id="stop31" />
    <stop
   offset="1"
   stop-color="#575659"
   id="stop33" />
    <stop
   offset="1"
   stop-color="#575757"
   id="stop35" />
   </linearGradient>
   <linearGradient
   id="id2"
   gradientUnits="userSpaceOnUse"
   x1="9478.6"
   y1="5890.02"
   x2="9384.42"
   y2="5890.02">
    <stop
   offset="0"
   stop-color="#828282"
   id="stop38" />
    <stop
   offset="0.121569"
   stop-color="#7F7DFF"
   id="stop40" />
    <stop
   offset="0.290196"
   stop-color="#F0F0F0"
   id="stop42" />
    <stop
   offset="0.45098"
   stop-color="#ABABAB"
   id="stop44" />
    <stop
   offset="0.619608"
   stop-color="#D1D3E6"
   id="stop46" />
    <stop
   offset="1"
   stop-color="#575659"
   id="stop48" />
    <stop
   offset="1"
   stop-color="#575757"
   id="stop50" />
   </linearGradient>
   <linearGradient
   id="id3"
   gradientUnits="userSpaceOnUse"
   x1="9478.6"
   y1="4203.34"
   x2="9384.42"
   y2="4203.34">
    <stop
   offset="0"
   stop-color="#828282"
   id="stop53" />
    <stop
   offset="0.121569"
   stop-color="#7F7DFF"
   id="stop55" />
    <stop
   offset="0.290196"
   stop-color="#F0F0F0"
   id="stop57" />
    <stop
   offset="0.45098"
   stop-color="#ABABAB"
   id="stop59" />
    <stop
   offset="0.619608"
   stop-color="#D1D3E6"
   id="stop61" />
    <stop
   offset="1"
   stop-color="#575659"
   id="stop63" />
    <stop
   offset="1"
   stop-color="#575757"
   id="stop65" />
   </linearGradient>
   <linearGradient
   id="id4"
   gradientUnits="userSpaceOnUse"
   x1="4381.05"
   y1="74.65"
   x2="5418.95"
   y2="74.65">
    <stop
   offset="0"
   stop-color="#828282"
   id="stop68" />
    <stop
   offset="0.0784314"
   stop-color="#FFFFFF"
   id="stop70" />
    <stop
   offset="0.101961"
   stop-color="#F0F0F0"
   id="stop72" />
    <stop
   offset="0.901961"
   stop-color="#F0F0F0"
   id="stop74" />
    <stop
   offset="0.921569"
   stop-color="#FFFFFF"
   id="stop76" />
    <stop
   offset="1"
   stop-color="#828282"
   id="stop78" />
   </linearGradient>
   <linearGradient
   id="id5"
   gradientUnits="userSpaceOnUse"
   x1="5183.83"
   y1="28.1"
   x2="5368.07"
   y2="28.1">
    <stop
   offset="0"
   stop-color="#828282"
   id="stop81" />
    <stop
   offset="0.501961"
   stop-color="#FFFFFF"
   id="stop83" />
    <stop
   offset="1"
   stop-color="#828282"
   id="stop85" />
   </linearGradient>
   <linearGradient
   id="id6"
   gradientUnits="userSpaceOnUse"
   x1="4827.91"
   y1="27.94"
   x2="5012.09"
   y2="27.94">
    <stop
   offset="0"
   stop-color="#828282"
   id="stop88" />
    <stop
   offset="0.501961"
   stop-color="#FFFFFF"
   id="stop90" />
    <stop
   offset="1"
   stop-color="#828282"
   id="stop92" />
   </linearGradient>
   <linearGradient
   id="id7"
   gradientUnits="userSpaceOnUse"
   x1="4471.93"
   y1="27.94"
   x2="4656.11"
   y2="27.94">
    <stop
   offset="0"
   stop-color="#828282"
   id="stop95" />
    <stop
   offset="0.501961"
   stop-color="#FFFFFF"
   id="stop97" />
    <stop
   offset="1"
   stop-color="#828282"
   id="stop99" />
   </linearGradient>
   <linearGradient
   id="id8"
   gradientUnits="userSpaceOnUse"
   x1="692.78"
   y1="7600"
   x2="9213.08"
   y2="7600">
    <stop
   offset="0"
   stop-color="#D7D9DE"
   id="stop102" />
    <stop
   offset="0.0901961"
   stop-color="#EDEDED"
   id="stop104" />
    <stop
   offset="0.109804"
   stop-color="#E7E8EA"
   id="stop106" />
    <stop
   offset="0.890196"
   stop-color="#EDEDED"
   id="stop108" />
    <stop
   offset="0.909804"
   stop-color="#F0F0F0"
   id="stop110" />
    <stop
   offset="1"
   stop-color="#D7D9DE"
   id="stop112" />
   </linearGradient>
   <linearGradient
   id="id25"
   gradientUnits="userSpaceOnUse"
   x1="1804.52"
   y1="7613.36"
   x2="8195.48"
   y2="7613.36">
    <stop
   offset="0"
   stop-color="#C4C8CB"
   id="stop115" />
    <stop
   offset="0.0705882"
   stop-color="#BEC1C4"
   id="stop117" />
    <stop
   offset="0.14902"
   stop-color="#C4C8CB"
   id="stop119" />
    <stop
   offset="0.180392"
   stop-color="#CCCACA"
   id="stop121" />
    <stop
   offset="0.188235"
   stop-color="#C4C8CB"
   id="stop123" />
    <stop
   offset="0.309804"
   stop-color="#BAC0C4"
   id="stop125" />
    <stop
   offset="0.34902"
   stop-color="#C4C8CB"
   id="stop127" />
    <stop
   offset="0.490196"
   stop-color="#CFD2D4"
   id="stop129" />
    <stop
   offset="0.509804"
   stop-color="#CDD1D4"
   id="stop131" />
    <stop
   offset="0.611765"
   stop-color="#C4C8CB"
   id="stop133" />
    <stop
   offset="0.701961"
   stop-color="#C4C8CB"
   id="stop135" />
    <stop
   offset="0.729412"
   stop-color="#B9C1C7"
   id="stop137" />
    <stop
   offset="0.74902"
   stop-color="#C4C8CB"
   id="stop139" />
    <stop
   offset="0.878431"
   stop-color="#CFCFCF"
   id="stop141" />
    <stop
   offset="0.909804"
   stop-color="#C4C8CB"
   id="stop143" />
    <stop
   offset="1"
   stop-color="#C4C8CB"
   id="stop145" />
   </linearGradient>
  </defs>
  <path
   fill="url(#id0)"
   stroke="#7F90B3"
   stroke-width="18"
   stroke-linejoin="bevel"
   d="M9384.44 10772.4l59.9 45.06c11.82,9.93 20.1,23.41 23.62,38.43 14.19,143.09 14.19,287.23 0,430.32 -3.52,15.03 -11.8,28.51 -23.62,38.43l-59.9 45.06 0 -597.3"
   id="path147" />
  <path
   fill="url(#id1)"
   stroke="#7F90B3"
   stroke-width="18"
   stroke-linejoin="bevel"
   d="M9384.44 7137.21l59.9 45.07c11.82,9.92 20.1,23.4 23.62,38.43 14.19,839.83 14.19,1679.84 0,2519.67 -3.52,15.02 -11.8,28.51 -23.62,38.43l-59.9 45.06 0 -2686.66"
   id="path149" />
  <path
   fill="url(#id2)"
   stroke="#7F90B3"
   stroke-width="18"
   stroke-linejoin="bevel"
   d="M9384.44 5591.36l59.9 45.06c11.82,9.93 20.1,23.41 23.62,38.44 14.19,143.08 14.19,287.23 0,430.31 -3.52,15.03 -11.8,28.51 -23.62,38.44l-59.9 45.06 0 -597.31"
   id="path151" />
  <path
   fill="url(#id3)"
   stroke="#7F90B3"
   stroke-width="18"
   stroke-linejoin="bevel"
   d="M9384.44 3904.69l59.9 45.06c11.82,9.92 20.1,23.4 23.62,38.43 14.19,143.09 14.19,287.23 0,430.32 -3.52,15.02 -11.8,28.5 -23.62,38.43l-59.9 45.06 0 -597.3"
   id="path153" />
  <path
   fill="url(#id4)"
   stroke="#6E6E6E"
   stroke-width="18"
   stroke-linejoin="bevel"
   d="M4381.05 49.29l1037.9 0 0 50.71 -1037.9 0 0 -50.71"
   id="path155" />
  <path
   fill="url(#id5)"
   stroke="#6E6E6E"
   stroke-width="18"
   stroke-linejoin="bevel"
   d="M5356.21 6.6l-160.46 0c-6.55,0 -11.87,4 -11.87,9.66l0 33.03 184.19 0 0 -33.03c0,-5.66 -5.31,-9.66 -11.86,-9.66"
   id="path157" />
  <path
   fill="url(#id6)"
   stroke="#6E6E6E"
   stroke-width="18"
   stroke-linejoin="bevel"
   d="M4839.77 6.6l160.46 0c6.55,0 11.86,4.28 11.86,9.52l0 33.17 -184.18 0 0 -33.17c0,-5.24 5.31,-9.52 11.86,-9.52"
   id="path159" />
  <path
   fill="url(#id7)"
   stroke="#6E6E6E"
   stroke-width="18"
   stroke-linejoin="bevel"
   d="M4483.79 6.6l160.46 0c6.55,0 11.86,4.22 11.86,9.51l0 33.18 -184.18 0 0 -33.18c0,-5.29 5.31,-9.51 11.86,-9.51"
   id="path161" />
  <path
   fill="#E8E8E8"
   stroke="#000000"
   stroke-width="18"
   stroke-linejoin="bevel"
   d="M1114.61 100l7676.62 0c327.62,0 593.21,265.59 593.21,593.21l0 13813.6c0,327.62 -265.59,593.22 -593.21,593.22l-7676.62 0c-327.62,0 -593.21,-265.6 -593.21,-593.22l0 -13813.6c0,-327.62 265.59,-593.21 593.21,-593.21"
   id="path163" />
  <path
   fill="#9A9E9F"
   stroke="#000000"
   stroke-width="18"
   stroke-linejoin="bevel"
   d="M1114.61 178.63l7676.62 0c284.19,0 514.58,230.39 514.58,514.58l0 13813.6c0,284.2 -230.39,514.58 -514.58,514.58l-7676.62 0c-284.19,0 -514.58,-230.38 -514.58,-514.58l0 -13813.6c0,-284.19 230.39,-514.58 514.58,-514.58"
   id="path165" />
  <path
   fill="url(#id8)"
   stroke="#F7F7F7"
   stroke-width="50"
   stroke-linejoin="bevel"
   d="M1096.51 271.39l7712.83 0c222.97,0 403.73,180.4 403.73,402.93l0 13851.4c0,222.53 -180.76,402.93 -403.73,402.93l-7712.83 0c-222.97,0 -403.73,-180.4 -403.73,-402.93l0 -13851.4c0,-222.53 180.76,-402.93 403.73,-402.93"
   id="path167" />
  <g
   id="g169">
   <defs
   id="defs171">
    <radialGradient
   id="id9"
   gradientUnits="userSpaceOnUse"
   cx="4438.55"
   cy="12068.3"
   r="327.25"
   fx="4438.55"
   fy="12068.3">
     <stop
   offset="0"
   stop-color="#F0F0F0"
   id="stop174" />
     <stop
   offset="0.658824"
   stop-color="#F0F0F0"
   id="stop176" />
     <stop
   offset="0.74902"
   stop-color="#DBDBD6"
   id="stop178" />
     <stop
   offset="0.890196"
   stop-color="#C5C5BB"
   id="stop180" />
     <stop
   offset="1"
   stop-color="#9E9D8B"
   id="stop182" />
    </radialGradient>
    <radialGradient
   id="id10"
   gradientUnits="userSpaceOnUse"
   cx="5000"
   cy="13273.2"
   r="350.22"
   fx="5000"
   fy="13273.2">
     <stop
   offset="0"
   stop-color="#9E9D8B"
   id="stop185" />
     <stop
   offset="0.670588"
   stop-color="#9E9D8B"
   id="stop187" />
     <stop
   offset="0.760784"
   stop-color="#C5C5BB"
   id="stop189" />
     <stop
   offset="0.901961"
   stop-color="#DBDBD6"
   id="stop191" />
     <stop
   offset="1"
   stop-color="#F0F0F0"
   id="stop193" />
    </radialGradient>
    <radialGradient
   id="id11"
   gradientUnits="userSpaceOnUse"
   cx="5561.45"
   cy="12068.3"
   r="327.25"
   fx="5561.45"
   fy="12068.3">
     <stop
   offset="0"
   stop-color="#F0F0F0"
   id="stop196" />
     <stop
   offset="0.658824"
   stop-color="#F0F0F0"
   id="stop198" />
     <stop
   offset="0.74902"
   stop-color="#DBDBD6"
   id="stop200" />
     <stop
   offset="0.890196"
   stop-color="#C5C5BB"
   id="stop202" />
     <stop
   offset="1"
   stop-color="#9E9D8B"
   id="stop204" />
    </radialGradient>
    <radialGradient
   id="id12"
   gradientUnits="userSpaceOnUse"
   cx="6766.41"
   cy="11506.8"
   r="350.22"
   fx="6766.41"
   fy="11506.8">
     <stop
   offset="0"
   stop-color="#9E9D8B"
   id="stop207" />
     <stop
   offset="0.670588"
   stop-color="#9E9D8B"
   id="stop209" />
     <stop
   offset="0.760784"
   stop-color="#C5C5BB"
   id="stop211" />
     <stop
   offset="0.901961"
   stop-color="#DBDBD6"
   id="stop213" />
     <stop
   offset="1"
   stop-color="#F0F0F0"
   id="stop215" />
    </radialGradient>
    <radialGradient
   id="id13"
   gradientUnits="userSpaceOnUse"
   cx="5561.45"
   cy="10945.4"
   r="327.25"
   fx="5561.45"
   fy="10945.4">
     <stop
   offset="0"
   stop-color="#F0F0F0"
   id="stop218" />
     <stop
   offset="0.658824"
   stop-color="#F0F0F0"
   id="stop220" />
     <stop
   offset="0.74902"
   stop-color="#DBDBD6"
   id="stop222" />
     <stop
   offset="0.890196"
   stop-color="#C5C5BB"
   id="stop224" />
     <stop
   offset="1"
   stop-color="#9E9D8B"
   id="stop226" />
    </radialGradient>
    <radialGradient
   id="id14"
   gradientUnits="userSpaceOnUse"
   cx="5000"
   cy="9740.42"
   r="350.22"
   fx="5000"
   fy="9740.42">
     <stop
   offset="0"
   stop-color="#9E9D8B"
   id="stop229" />
     <stop
   offset="0.670588"
   stop-color="#9E9D8B"
   id="stop231" />
     <stop
   offset="0.760784"
   stop-color="#C5C5BB"
   id="stop233" />
     <stop
   offset="0.901961"
   stop-color="#DBDBD6"
   id="stop235" />
     <stop
   offset="1"
   stop-color="#F0F0F0"
   id="stop237" />
    </radialGradient>
    <radialGradient
   id="id15"
   gradientUnits="userSpaceOnUse"
   cx="4438.55"
   cy="10945.4"
   r="327.25"
   fx="4438.55"
   fy="10945.4">
     <stop
   offset="0"
   stop-color="#F0F0F0"
   id="stop240" />
     <stop
   offset="0.658824"
   stop-color="#F0F0F0"
   id="stop242" />
     <stop
   offset="0.74902"
   stop-color="#DBDBD6"
   id="stop244" />
     <stop
   offset="0.890196"
   stop-color="#C5C5BB"
   id="stop246" />
     <stop
   offset="1"
   stop-color="#9E9D8B"
   id="stop248" />
    </radialGradient>
    <radialGradient
   id="id16"
   gradientUnits="userSpaceOnUse"
   cx="3233.59"
   cy="11506.8"
   r="350.22"
   fx="3233.59"
   fy="11506.8">
     <stop
   offset="0"
   stop-color="#9E9D8B"
   id="stop251" />
     <stop
   offset="0.670588"
   stop-color="#9E9D8B"
   id="stop253" />
     <stop
   offset="0.760784"
   stop-color="#C5C5BB"
   id="stop255" />
     <stop
   offset="0.901961"
   stop-color="#DBDBD6"
   id="stop257" />
     <stop
   offset="1"
   stop-color="#F0F0F0"
   id="stop259" />
    </radialGradient>
    <linearGradient
   id="id17"
   gradientUnits="userSpaceOnUse"
   x1="3836.07"
   y1="11741"
   x2="3836.07"
   y2="11857">
     <stop
   offset="0"
   stop-color="#9E9D8B"
   id="stop262" />
     <stop
   offset="0.309804"
   stop-color="#C5C5BB"
   id="stop264" />
     <stop
   offset="0.729412"
   stop-color="#DBDBD6"
   id="stop266" />
     <stop
   offset="1"
   stop-color="#F0F0F0"
   id="stop268" />
    </linearGradient>
    <linearGradient
   id="id18"
   gradientUnits="userSpaceOnUse"
   x1="4765.82"
   y1="12670.8"
   x2="4649.78"
   y2="12670.8">
     <stop
   offset="0"
   stop-color="#9E9D8B"
   id="stop271" />
     <stop
   offset="0.309804"
   stop-color="#C5C5BB"
   id="stop273" />
     <stop
   offset="0.729412"
   stop-color="#DBDBD6"
   id="stop275" />
     <stop
   offset="1"
   stop-color="#F0F0F0"
   id="stop277" />
    </linearGradient>
    <linearGradient
   id="id19"
   gradientUnits="userSpaceOnUse"
   x1="5234.18"
   y1="12670.8"
   x2="5350.22"
   y2="12670.8">
     <stop
   offset="0"
   stop-color="#9E9D8B"
   id="stop280" />
     <stop
   offset="0.309804"
   stop-color="#C5C5BB"
   id="stop282" />
     <stop
   offset="0.729412"
   stop-color="#DBDBD6"
   id="stop284" />
     <stop
   offset="1"
   stop-color="#F0F0F0"
   id="stop286" />
    </linearGradient>
    <linearGradient
   id="id20"
   gradientUnits="userSpaceOnUse"
   x1="6163.93"
   y1="11741"
   x2="6163.93"
   y2="11857">
     <stop
   offset="0"
   stop-color="#9E9D8B"
   id="stop289" />
     <stop
   offset="0.309804"
   stop-color="#C5C5BB"
   id="stop291" />
     <stop
   offset="0.729412"
   stop-color="#DBDBD6"
   id="stop293" />
     <stop
   offset="1"
   stop-color="#F0F0F0"
   id="stop295" />
    </linearGradient>
    <linearGradient
   id="id21"
   gradientUnits="userSpaceOnUse"
   x1="6163.93"
   y1="11272.6"
   x2="6163.93"
   y2="11156.6">
     <stop
   offset="0"
   stop-color="#9E9D8B"
   id="stop298" />
     <stop
   offset="0.309804"
   stop-color="#C5C5BB"
   id="stop300" />
     <stop
   offset="0.729412"
   stop-color="#DBDBD6"
   id="stop302" />
     <stop
   offset="1"
   stop-color="#F0F0F0"
   id="stop304" />
    </linearGradient>
    <linearGradient
   id="id22"
   gradientUnits="userSpaceOnUse"
   x1="5234.18"
   y1="10342.9"
   x2="5350.22"
   y2="10342.9">
     <stop
   offset="0"
   stop-color="#9E9D8B"
   id="stop307" />
     <stop
   offset="0.309804"
   stop-color="#C5C5BB"
   id="stop309" />
     <stop
   offset="0.729412"
   stop-color="#DBDBD6"
   id="stop311" />
     <stop
   offset="1"
   stop-color="#F0F0F0"
   id="stop313" />
    </linearGradient>
    <linearGradient
   id="id23"
   gradientUnits="userSpaceOnUse"
   x1="4765.82"
   y1="10342.9"
   x2="4649.78"
   y2="10342.9">
     <stop
   offset="0"
   stop-color="#9E9D8B"
   id="stop316" />
     <stop
   offset="0.309804"
   stop-color="#C5C5BB"
   id="stop318" />
     <stop
   offset="0.729412"
   stop-color="#DBDBD6"
   id="stop320" />
     <stop
   offset="1"
   stop-color="#F0F0F0"
   id="stop322" />
    </linearGradient>
    <linearGradient
   id="id24"
   gradientUnits="userSpaceOnUse"
   x1="3836.07"
   y1="11272.6"
   x2="3836.07"
   y2="11156.6">
     <stop
   offset="0"
   stop-color="#9E9D8B"
   id="stop325" />
     <stop
   offset="0.309804"
   stop-color="#C5C5BB"
   id="stop327" />
     <stop
   offset="0.729412"
   stop-color="#DBDBD6"
   id="stop329" />
     <stop
   offset="1"
   stop-color="#F0F0F0"
   id="stop331" />
    </linearGradient>
   </defs>
   <path
   fill="url(#id9)"
   d="M4765.79 12068.3c0,-180.73 -146.51,-327.25 -327.24,-327.25 -180.74,0 -327.25,146.52 -327.25,327.25 0,180.73 146.51,327.24 327.25,327.24 180.73,0 327.24,-146.51 327.24,-327.24z"
   id="path333" />
   <path
   fill="url(#id10)"
   d="M5350.22 13273.2c0,-193.42 -156.8,-350.22 -350.22,-350.22 -193.42,0 -350.22,156.8 -350.22,350.22 0,193.42 156.8,350.22 350.22,350.22 193.42,0 350.22,-156.8 350.22,-350.22z"
   id="path335" />
   <path
   fill="url(#id11)"
   d="M5888.7 12068.3c0,-180.73 -146.51,-327.25 -327.25,-327.25 -180.73,0 -327.24,146.52 -327.24,327.25 0,180.73 146.51,327.24 327.24,327.24 180.74,0 327.25,-146.51 327.25,-327.24z"
   id="path337" />
   <path
   fill="url(#id12)"
   d="M7116.63 11506.8c0,-193.42 -156.8,-350.22 -350.22,-350.22 -193.42,0 -350.22,156.8 -350.22,350.22 0,193.42 156.8,350.22 350.22,350.22 193.42,0 350.22,-156.8 350.22,-350.22z"
   id="path339" />
   <path
   fill="url(#id13)"
   d="M5888.7 10945.4c0,-180.73 -146.51,-327.24 -327.25,-327.24 -180.73,0 -327.24,146.51 -327.24,327.24 0,180.73 146.51,327.25 327.24,327.25 180.74,0 327.25,-146.52 327.25,-327.25z"
   id="path341" />
   <path
   fill="url(#id14)"
   d="M5350.22 9740.42c0,-193.42 -156.8,-350.22 -350.22,-350.22 -193.42,0 -350.22,156.8 -350.22,350.22 0,193.42 156.8,350.22 350.22,350.22 193.42,0 350.22,-156.8 350.22,-350.22z"
   id="path343" />
   <path
   fill="url(#id15)"
   d="M4765.79 10945.4c0,-180.73 -146.51,-327.24 -327.24,-327.24 -180.74,0 -327.25,146.51 -327.25,327.24 0,180.73 146.51,327.25 327.25,327.25 180.73,0 327.24,-146.52 327.24,-327.25z"
   id="path345" />
   <path
   fill="url(#id16)"
   d="M3583.81 11506.8c0,-193.42 -156.8,-350.22 -350.22,-350.22 -193.42,0 -350.22,156.8 -350.22,350.22 0,193.42 156.8,350.22 350.22,350.22 193.42,0 350.22,-156.8 350.22,-350.22z"
   id="path347" />
   <path
   fill="url(#id17)"
   d="M3233.59 11741l1204.96 0 0 116.01 -1204.96 0 0 -116.01"
   id="path349" />
   <path
   fill="url(#id18)"
   d="M4765.79 13273.2l0 -1204.95 -116.01 0 0 1204.95 116.01 0"
   id="path351" />
   <path
   fill="url(#id19)"
   d="M5350.22 13273.2l0 -1204.95 -116.01 0 0 1204.95 116.01 0"
   id="path353" />
   <path
   fill="url(#id20)"
   d="M6766.41 11741l-1204.96 0 0 116.01 1204.96 0 0 -116.01"
   id="path355" />
   <path
   fill="url(#id21)"
   d="M6766.41 11272.6l-1204.96 0 0 -116.01 1204.96 0 0 116.01"
   id="path357" />
   <path
   fill="url(#id22)"
   d="M5350.22 9740.42l0 1204.95 -116.01 0 0 -1204.95 116.01 0"
   id="path359" />
   <path
   fill="url(#id23)"
   d="M4765.79 9740.42l0 1204.95 -116.01 0 0 -1204.95 116.01 0"
   id="path361" />
   <path
   fill="url(#id24)"
   d="M3233.59 11272.6l1204.96 0 0 -116.01 -1204.96 0 0 116.01"
   id="path363" />
  </g>
  <path
   fill="url(#id25)"
   d="M1804.52 11506.8l1078.85 0c0,-193.42 156.8,-350.22 350.22,-350.22l1204.96 0c116.66,0 211.23,-94.57 211.23,-211.24l0 -1204.95c0,-193.42 156.8,-350.22 350.22,-350.22 193.42,0 350.22,156.8 350.22,350.22l0 1204.95c0,116.67 94.57,211.24 211.23,211.24l1204.96 0c193.42,0 350.22,156.8 350.22,350.22l1078.85 0 0 -10836.1c0,-87.37 -70.83,-158.19 -158.19,-158.19l-6074.58 0c-87.36,0 -158.19,70.82 -158.19,158.19l0 10836.1zm3545.7 1766.41c0,193.42 -156.8,350.22 -350.22,350.22 -193.42,0 -350.22,-156.8 -350.22,-350.22l0 -1204.95c0,-116.66 -94.57,-211.24 -211.23,-211.24l-1204.96 0c-193.42,0 -350.22,-156.8 -350.22,-350.22l-1078.85 -0.06 0 3049.26c0,87.37 70.83,158.2 158.19,158.2l6074.58 0c87.36,0 158.19,-70.83 158.19,-158.2l0 -3049.26 -1078.85 0c0,193.42 -156.8,350.28 -350.22,350.28l-1204.96 0c-116.66,0 -211.23,94.58 -211.23,211.24l0 1204.95z"
   id="path365" />
  <path
   fill="none"
   stroke="#565E61"
   stroke-width="35"
   stroke-linejoin="bevel"
   d="M1804.52 670.69l0 13885.3c0,87.37 70.83,158.2 158.19,158.2l6074.58 0c87.36,0 158.19,-70.83 158.19,-158.2l0 -13885.3c0,-87.37 -70.83,-158.19 -158.19,-158.19l-6074.58 0c-87.36,0 -158.19,70.82 -158.19,158.19z"
   id="path367" />
  <path
   fill="#F7F7F7"
   d="M5412.78 13273.2c0,227.98 -184.81,412.79 -412.78,412.79 -227.97,0 -412.78,-184.81 -412.78,-412.79l0 -1204.95c0,-82.11 -66.56,-148.67 -148.67,-148.67l-1204.96 0c-227.97,0 -412.78,-184.81 -412.78,-412.79l62.56 0c0,193.42 156.8,350.22 350.22,350.22l1204.96 0c116.66,0 211.23,94.58 211.23,211.24l0 1204.95c0,193.42 156.8,350.22 350.22,350.22 193.42,0 350.22,-156.8 350.22,-350.22l0 -1204.95c0,-116.66 94.57,-211.24 211.23,-211.24l1204.96 0c193.42,0 350.22,-156.86 350.22,-350.28l62.56 0c0,227.98 -184.81,412.85 -412.78,412.85l-1204.96 0c-82.11,0 -148.67,66.56 -148.67,148.67l0 1204.95z"
   id="path369" />
  <path
   fill="#F7F7F7"
   d="M2820.81 11506.8c0,-227.98 184.81,-412.79 412.78,-412.79l1204.96 0c82.11,0 148.67,-66.56 148.67,-148.67l0 -1204.95c0,-227.98 184.81,-412.79 412.78,-412.79 227.97,0 412.78,184.81 412.78,412.79l0 1204.95c0,82.11 66.56,148.67 148.67,148.67l1204.96 0c227.97,0 412.78,184.81 412.78,412.79l-62.56 0c0,-193.42 -156.8,-350.22 -350.22,-350.22l-1204.96 0c-116.66,0 -211.23,-94.57 -211.23,-211.24l0 -1204.95c0,-193.42 -156.8,-350.22 -350.22,-350.22 -193.42,0 -350.22,156.8 -350.22,350.22l0 1204.95c0,116.67 -94.57,211.24 -211.23,211.24l-1204.96 0c-193.42,0 -350.22,156.8 -350.22,350.22l-62.56 0z"
   id="path371" />
  <path
   fill="none"
   stroke="#34393C"
   stroke-width="17.64"
   stroke-linejoin="bevel"
   d="M5412.78 13273.2l0 -1204.95c0,-82.11 66.56,-148.67 148.67,-148.67l1204.96 0c227.97,0 412.78,-184.81 412.78,-412.79 0,-227.98 -184.81,-412.79 -412.78,-412.79l-1204.96 0c-82.11,0 -148.67,-66.56 -148.67,-148.67l0 -1204.95c0,-227.98 -184.81,-412.79 -412.78,-412.79 -227.97,0 -412.78,184.81 -412.78,412.79l0 1204.95c0,82.11 -66.56,148.67 -148.67,148.67l-1204.96 0c-227.97,0 -412.78,184.81 -412.78,412.79 0,227.98 184.81,412.79 412.78,412.79l1204.96 0c82.11,0 148.67,66.56 148.67,148.67l0 1204.95c0,227.98 184.81,412.79 412.78,412.79 227.97,0 412.78,-184.81 412.78,-412.79"
   id="path373" />
  <path
   fill="#DDDED9"
   stroke="#666666"
   stroke-width="18"
   stroke-linejoin="bevel"
   d="M5234.21 13273.2l0 -1204.95c0,-86.79 34.48,-170.03 95.85,-231.4 61.37,-61.37 144.6,-95.85 231.39,-95.85l1204.96 0c129.35,0 234.21,-104.86 234.21,-234.21 0,-129.35 -104.86,-234.21 -234.21,-234.21l-1204.96 0c-180.73,0 -327.24,-146.52 -327.24,-327.25l0 -1204.95c0,-129.36 -104.86,-234.22 -234.21,-234.22 -129.35,0 -234.21,104.86 -234.21,234.22l0 1204.95c0,180.73 -146.51,327.25 -327.24,327.25l-1204.96 0c-129.35,0 -234.21,104.86 -234.21,234.21 0,129.35 104.86,234.21 234.21,234.21l1204.96 0c180.73,0 327.24,146.52 327.24,327.25l0 1204.95c0,129.36 104.86,234.22 234.21,234.22 129.35,0 234.21,-104.86 234.21,-234.22"
   id="path375" />
  <path
   fill="#333333"
   stroke="#9E9E9E"
   stroke-width="15"
   stroke-linejoin="bevel"
   d="M2403.5 1355.67l5193 0c65.53,0 118.65,53.12 118.65,118.65l0 6760.73c0,65.52 -53.12,118.64 -118.65,118.64l-5193 0c-65.53,0 -118.65,-53.12 -118.65,-118.64l0 -6760.73c0,-65.53 53.12,-118.65 118.65,-118.65"
   id="path377" />
  <path
   fill="#D6DEE8"
   stroke="#9E9E9E"
   stroke-width="25"
   stroke-linejoin="bevel"
   d="M2541.64 1612.46l4916.72 0 0 6484.45 -4916.72 0 0 -6484.45"
   id="path379" />
  <path
   fill="#60676D"
   d="M4087.52 1106.36c0,-6.24 -4.83,-11.42 -11.06,-11.84 -85.33,-5.82 -151.58,-76.73 -151.58,-162.27 0,-85.53 66.25,-156.45 151.58,-162.26 6.23,-0.43 11.06,-5.6 11.06,-11.84l0 -27.09c0,-6.55 -5.31,-11.87 -11.86,-11.87l-402.39 0c-6.56,0 -11.87,5.32 -11.87,11.87l0 402.39c0,6.55 5.31,11.86 11.87,11.86l402.39 0c6.55,0 11.86,-5.31 11.86,-11.86l0 -27.09"
   id="path381" />
  <path
   fill="#60676D"
   d="M4132.74 932.25c0,-24.97 -20.24,-45.22 -45.22,-45.22 -24.97,0 -45.22,20.25 -45.22,45.22 0,24.98 20.25,45.22 45.22,45.22 24.98,0 45.22,-20.24 45.22,-45.22z"
   id="path383" />
  <path
   fill="#60676D"
   d="M4372.9 932.25c0,-33.89 -27.47,-61.37 -61.37,-61.37 -33.89,0 -61.37,27.48 -61.37,61.37 0,33.9 27.48,61.37 61.37,61.37 33.9,0 61.37,-27.47 61.37,-61.37z"
   id="path385" />
  <g
   id="g387">
   <defs
   id="defs389">
    <linearGradient
   id="id26"
   gradientUnits="userSpaceOnUse"
   x1="6842.37"
   y1="2968.58"
   x2="6924.65"
   y2="3440.04">
     <stop
   offset="0"
   stop-color="#FFC100"
   id="stop392" />
     <stop
   offset="0.6"
   stop-color="#997200"
   id="stop394" />
     <stop
   offset="1"
   stop-color="#332201"
   id="stop396" />
     <stop
   offset="1"
   stop-color="#332201"
   id="stop398" />
    </linearGradient>
   </defs>
   <path
   fill="#000000"
   d="M2541.65 3622.24l4916.7 0 0 -1522.24 -4916.7 0 0 1522.24 0 0z"
   id="path400" />
   <path
   fill="#FFFFFF"
   d="M2852.58 3534.11c0,-21.39 -17.33,-38.73 -38.71,-38.73 -21.39,0 -38.73,17.34 -38.73,38.73 0,21.38 17.34,38.71 38.73,38.71 21.38,0 38.71,-17.33 38.71,-38.71zm121.63 -32.41c15.56,-10.6 36.23,-7.6 48.44,7.02 12.2,14.6 12.2,36.36 0,50.97 -12.21,14.62 -32.88,17.61 -48.44,7.02l0 32.1 -20.51 0 0 -101.54 20.51 0 0 4.43zm234.17 32.4c0,-21.39 -17.34,-38.72 -38.72,-38.72 -21.38,0 -38.72,17.33 -38.72,38.72 0,21.39 17.34,38.72 38.72,38.72 11.02,0 20.97,-4.6 28.02,-12l-14.82 -14.13 14.82 14.13 -14.82 -14.13c-3.8,3.98 -9.2,6.04 -14.69,5.59 -5.49,-0.46 -10.47,-3.37 -13.57,-7.93l52.41 0c0.9,-3.27 1.37,-6.69 1.37,-10.25l0 0 0 0 0 0 0 0 0 0 0 0zm1286.06 0c0,-21.39 -17.34,-38.72 -38.73,-38.72 -21.38,0 -38.72,17.33 -38.72,38.72 0,21.39 17.34,38.72 38.72,38.72 11.02,0 20.97,-4.6 28.02,-12l-14.81 -14.13 14.81 14.13 -14.81 -14.13c-3.8,3.98 -9.2,6.04 -14.69,5.59 -5.49,-0.46 -10.48,-3.37 -13.57,-7.93l52.4 0c0.9,-3.27 1.38,-6.69 1.38,-10.25l0 0 0 0 0 0 0 0 0 0 0 0zm765.26 0c0,-21.39 -17.34,-38.72 -38.73,-38.72 -21.38,0 -38.71,17.33 -38.71,38.72 0,21.39 17.33,38.72 38.71,38.72 11.02,0 20.97,-4.6 28.02,-12l-14.81 -14.13 14.81 14.13 -14.81 -14.13c-3.8,3.98 -9.2,6.04 -14.69,5.59 -5.49,-0.46 -10.48,-3.37 -13.57,-7.93l52.4 0c0.9,-3.27 1.38,-6.69 1.38,-10.25l0 0 0 0 0 0 0 0 0 0 0 0zm1955.79 0c0,-21.39 -17.33,-38.72 -38.72,-38.72 -21.39,0 -38.71,17.33 -38.71,38.72 0,21.39 17.32,38.72 38.71,38.72 11.02,0 20.98,-4.6 28.02,-12l-14.81 -14.13 14.81 14.13 -14.81 -14.13c-3.8,3.98 -9.2,6.04 -14.7,5.59 -5.48,-0.46 -10.47,-3.37 -13.57,-7.93l52.41 0c0.9,-3.27 1.37,-6.69 1.37,-10.25l0 0 0 0 0 0 0 0 0 0 0 0zm-3839.23 -5.75c0,-12.4 -6.05,-23.75 -15.64,-29.38 -9.59,-5.63 -21.1,-4.57 -29.82,2.73l0 -4.43 -20.51 0 0 73.87 20.51 0 0 -42.79c0,-6.89 5.59,-12.48 12.48,-12.48 6.88,0 12.47,5.59 12.47,12.48l0 42.79 20.51 0 0 -42.79zm296.56 -9.57c0,-9.8 -7.39,-18.57 -18.51,-21.96 -11.13,-3.38 -23.63,-0.67 -31.3,6.8 -7.68,7.48 -8.92,18.12 -3.1,26.66 2.94,4.11 7.14,7.14 11.95,8.66 5.47,1.83 11.04,3.31 16.67,4.45 4.63,0.9 7.06,3.21 5.72,5.4 -1.36,2.18 -6.08,3.58 -11.07,3.28 -4.98,-0.32 -8.71,-2.24 -8.71,-4.51l0 -2.18 -20.48 0 0 2.18c0,10.88 8.28,20.56 20.63,24.08 12.35,3.53 26.03,0.15 34.04,-8.44 8.02,-8.57 8.61,-20.46 1.47,-29.57 -4.12,-4.82 -9.82,-8.05 -16.08,-9.1 -4.96,-0.92 -9.85,-2.12 -14.67,-3.57 -2.68,-0.89 -3.39,-2.34 -1.72,-3.53 1.66,-1.18 5.28,-1.79 8.75,-1.47 3.48,0.32 5.92,1.49 5.92,2.82l0 1.03 20.49 0 0 -1.03 0 0 0 0 0 0 0 0 0 0 0 0zm178.39 15.33c0,-21.39 -17.34,-38.73 -38.73,-38.73 -21.37,0 -38.71,17.34 -38.71,38.73 0,21.38 17.34,38.71 38.71,38.71 21.39,0 38.73,-17.33 38.73,-38.71zm101.55 5.95l0 -42.79 20.5 0 0 42.79c0,6.89 5.59,12.48 12.48,12.48 6.89,0 12.47,-5.59 12.47,-12.48l0 -42.79 20.52 0 0 73.87 -20.52 0 0 -4.43c-8.7,7.3 -20.22,8.36 -29.82,2.73 -9.59,-5.63 -15.63,-16.98 -15.63,-29.38zm189.74 -38.36l0 -4.43 -20.51 0 0 73.87 20.51 0 0 -37.03c0,-4.84 1.92,-9.48 5.34,-12.89 3.42,-3.42 8.06,-5.35 12.89,-5.35l0 -20.43c-6.5,0.39 -12.78,2.54 -18.23,6.26l0 0 0 0 0 0 0 0 0 0 0 0zm180.44 5.67c-7.06,-7.38 -17.01,-11.99 -28.03,-11.99 -21.38,0 -38.7,17.33 -38.71,38.71 0,0.01 0,0.01 0,0.01 0.01,21.39 17.33,38.71 38.71,38.71 11.02,0 20.97,-4.61 28.03,-12l-14.82 -14.13c-3.32,3.47 -8.01,5.65 -13.19,5.65 -10.06,0 -18.22,-8.17 -18.23,-18.23 0,0 0,0 0,-0.01 0.01,-10.06 8.17,-18.22 18.23,-18.22 5.18,0 9.87,2.17 13.19,5.64l14.82 -14.14 0 0 0 0 0 0 0 0 0 0 0 0zm2373.71 26.68l-10.58 -36.78 -18.3 0 -10.57 36.78 -10.57 -36.78 -21.32 0 21.22 73.87 21.33 0 9.06 -31.53 9.06 31.53 21.32 0 21.24 -73.87 -21.32 0 -10.57 36.78m-520.58 -60.84l-20.51 0 0 20.49 20.51 0 0 -20.49m0 24.06l-20.51 0 0 73.87 20.51 0 0 -73.87m-424.97 36.96l22.83 36.91 -24.14 0 -10.75 -17.38 -10.75 17.38 -24.16 0 22.83 -36.91 -22.87 -36.96 24.16 0 10.79 17.45 10.79 -17.45 24.15 0 -22.88 36.96m-686.96 -36.96l-18.8 30.39 0 -54.45 -20.52 0 0 97.93 20.52 0 0 -30.8 23.09 30.8 25.61 0 -28.19 -37.6 22.43 -36.27 -24.14 0m-312.46 -24.06l-20.5 0 0 20.49 20.5 0 0 -20.49m0 101.54l0 -77.48 -20.5 0 0 77.5c0,1.95 -1.59,3.55 -3.54,3.55l-5.81 0 0 20.49 5.81 0c13.28,0 24.04,-10.78 24.04,-24.06m863.57 -40.64c0,-21.39 -17.33,-38.73 -38.72,-38.73 -21.39,0 -38.72,17.34 -38.72,38.73 0,21.38 17.33,38.71 38.72,38.71 21.39,0 38.72,-17.33 38.72,-38.71zm-714.17 32.6l0 4.43 20.51 0 0 -73.87 -20.51 0 0 42.79c0,6.89 -5.58,12.48 -12.47,12.48 -6.89,0 -12.47,-5.59 -12.47,-12.48l0 -42.79 -20.51 0 0 42.79c0,12.4 6.03,23.75 15.63,29.38 9.6,5.63 21.12,4.57 29.82,-2.73l0 0 0 0 0 0 0 0 0 0 0 0zm479.84 -65.01l0 -28.49 -20.51 0 0 97.93 20.51 0 0 -4.43c15.57,10.59 36.24,7.6 48.43,-7.02 12.21,-14.61 12.21,-36.36 0,-50.97 -12.19,-14.62 -32.86,-17.62 -48.43,-7.02zm672.98 -8l-17.02 0c-0.46,-0.04 -0.91,0.13 -1.24,0.44 -0.32,0.33 -0.48,0.79 -0.44,1.24l0 1.89 0 0 9.35 0 0 20.49 -9.35 0 0 53.38 -20.51 0 0 -53.38 -9.35 0 0 -20.49 9.35 0c0,-13.29 10.77,-24.06 24.04,-24.06l15.17 0 0 20.49zm264.52 1.74l0 20.43c-4.84,0 -9.48,1.93 -12.89,5.35 -3.42,3.41 -5.34,8.05 -5.34,12.89l0 37.03 -20.52 0 0 -73.87 20.52 0 0 4.43c5.44,-3.72 11.73,-5.87 18.23,-6.26l0 0 0 0 0 0 0 0 0 0 0 0zm120.22 6.26l0 -4.43 -20.5 0 0 73.87 20.5 0 0 -42.79c0,-6.89 5.59,-12.48 12.48,-12.48 6.88,0 12.47,5.59 12.47,12.48l0 42.79 20.51 0 0 -42.79c0,-6.89 5.59,-12.48 12.47,-12.48 6.89,0 12.48,5.59 12.48,12.48l0 42.79 20.5 0 0 -42.79c0,-13.01 -7.65,-24.81 -19.53,-30.11 -11.87,-5.3 -25.77,-3.14 -35.45,5.55 -10.05,-10.37 -25.02,-11.24 -35.93,-2.09l0 0 0 0 0 0 0 0 0 0 0 0zm438.76 0l0 -4.43 20.51 0 0 73.87 -20.51 0 0 -4.43c-15.56,10.59 -36.23,7.6 -48.43,-7.02 -12.2,-14.61 -12.2,-36.36 0,-50.97 12.2,-14.62 32.87,-17.62 48.43,-7.02zm165.36 -6.26l0 20.43c-4.84,0 -9.47,1.93 -12.89,5.35 -3.41,3.41 -5.34,8.05 -5.34,12.89l0 37.03 -20.51 0 0 -73.87 20.51 0 0 4.43c5.44,-3.72 11.74,-5.87 18.23,-6.26l0 0 0 0 0 0 0 0 0 0 0 0z"
   id="path402" />
   <path
   fill="#000000"
   d="M2832.09 3534.11c0,-10.08 -8.16,-18.24 -18.22,-18.24 -10.08,0 -18.24,8.16 -18.24,18.24 0,10.06 8.16,18.22 18.24,18.22 10.06,0 18.22,-8.16 18.22,-18.22zm2373.82 -10.25l30.15 0c-3.39,-5 -9.04,-7.99 -15.08,-7.99 -6.04,0 -11.68,2.99 -15.07,7.99m-765.25 0l30.15 0c-3.39,-5 -9.05,-7.99 -15.08,-7.99 -6.03,0 -11.68,2.99 -15.07,7.99m-609.94 10.25c0,-10.08 -8.16,-18.24 -18.24,-18.24 -10.06,0 -18.22,8.16 -18.22,18.24 0,10.06 8.16,18.22 18.22,18.22 10.08,0 18.24,-8.16 18.24,-18.22zm1764.03 0c0,-10.08 -8.16,-18.24 -18.22,-18.24 -10.07,0 -18.23,8.16 -18.23,18.24 0,10.06 8.16,18.22 18.23,18.22 10.06,0 18.22,-8.16 18.22,-18.22zm-177.37 0c0,-10.08 -8.16,-18.24 -18.23,-18.24 -10.07,0 -18.23,8.16 -18.23,18.24 0,10.06 8.16,18.22 18.23,18.22 10.07,0 18.23,-8.16 18.23,-18.22zm-2406.71 0.19c0,-10.06 -8.16,-18.23 -18.23,-18.23 -10.07,0 -18.23,8.17 -18.23,18.23 0,10.08 8.16,18.24 18.23,18.24 10.07,0 18.23,-8.16 18.23,-18.24zm143.93 -10.44l30.15 0c-3.38,-5 -9.03,-7.99 -15.07,-7.99 -6.05,0 -11.69,2.99 -15.08,7.99m4007.1 0l30.16 0c-3.4,-5 -9.04,-7.99 -15.08,-7.99 -6.04,0 -11.69,2.99 -15.08,7.99m-284.3 10.25c0,-10.08 -8.16,-18.24 -18.22,-18.24 -10.08,0 -18.24,8.16 -18.24,18.24 0,10.06 8.16,18.22 18.24,18.22 10.06,0 18.22,-8.16 18.22,-18.22z"
   id="path404" />
   <path
   fill="#FFC000"
   d="M2570.75 2135.58l4853.64 0 0 1292.95 -4853.64 0 0 -1292.95z"
   id="path406" />
   <path
   fill="url(#id26)"
   d="M6385.39 3350.84l0 0m1025.97 -212.44l13.03 0 0 7.41 -5.63 0 0 29.61 -7.4 0 0 -37.02m-37.01 0l22.2 0 0 7.41 -22.2 0 0 -7.41m0 29.61l22.2 0 0 7.41 -22.2 0 0 -7.41m-51.81 -29.61l0 0 0 0 0 0 0 0m14.8 7.41l7.41 0 0 29.61 -7.41 0 0 -29.61m7.41 -7.41l7.39 0 0 7.41 -7.39 0 0 -7.41m7.39 7.41l7.41 0 0 29.61 -7.41 0 0 -29.61m-29.6 -7.41l14.8 0 0 7.41 -7.4 0 0 29.61 -7.4 0 0 -37.02m-14.81 -7.41l7.41 0 0 14.82 -7.41 0 0 -14.82m0 22.21l7.41 0 0 14.81 -7.41 0 0 -14.81m-59.21 -14.8l7.4 0 0 14.8 -7.4 0 0 -14.8m-53 0l7.41 0 0 7.41 -7.41 0 0 -7.41m-22.2 14.8l7.4 0 0 14.81 -7.4 0 0 -14.81m-28.49 14.81l28.49 0 0 7.41 -28.49 0 0 -7.41m-29.61 -22.2l7.41 0 0 7.39 -7.41 0 0 -7.39m-7.4 -22.21l22.2 0 0 7.39 -22.2 0 0 -7.39m0 44.41l22.2 0 0 7.41 -22.2 0 0 -7.41m-37 -44.41l14.8 0 0 7.39 -14.8 0 0 -7.39m-7.41 7.39l7.41 0 0 7.41 -7.41 0 0 -7.41m22.21 22.21l7.4 0 0 14.81 -7.4 0 0 -14.81m199.91 -95.42l29.61 0 0 7.4 -29.61 0 0 -7.4m-7.4 7.4l7.4 0 0 7.4 -7.4 0 0 -7.4m7.4 7.4l22.2 0 0 7.41 -22.2 0 0 -7.41m22.2 7.41l7.41 0 0 7.4 -7.41 0 0 -7.4m-29.6 7.4l29.6 0 0 7.4 -29.6 0 0 -7.4m44.41 -29.61l7.4 0 0 29.61 -7.4 0 0 -29.61m7.4 44.41l22.2 0 0 7.41 -22.2 0 0 -7.41m37.02 -14.8l29.59 0 0 7.4 -29.59 0 0 -7.4m29.59 -7.4l7.41 0 0 7.4 -7.41 0 0 -7.4m-22.2 -7.41l22.2 0 0 7.41 -22.2 0 0 -7.41m-7.39 -7.4l7.39 0 0 7.4 -7.39 0 0 -7.4m7.39 -7.4l29.61 0 0 7.4 -29.61 0 0 -7.4m-88.82 161.24l29.61 0 0 7.4 -29.61 0 0 -7.4m-7.4 7.4l7.4 0 0 7.41 -7.4 0 0 -7.41m7.4 7.41l22.2 0 0 7.39 -22.2 0 0 -7.39m22.2 7.39l7.41 0 0 7.41 -7.41 0 0 -7.41m-29.6 7.41l29.6 0 0 7.41 -29.6 0 0 -7.41m-177.92 0l29.6 0 0 7.41 -29.6 0 0 -7.41m29.6 -7.41l7.41 0 0 7.41 -7.41 0 0 -7.41m-22.2 -7.39l22.2 0 0 7.39 -22.2 0 0 -7.39m-7.4 -7.41l7.4 0 0 7.41 -7.4 0 0 -7.41m7.4 -7.4l29.61 0 0 7.4 -29.61 0 0 -7.4m-222.48 80.63l29.61 0 0 7.39 -29.61 0 0 -7.39m-7.41 7.39l7.41 0 0 7.41 -7.41 0 0 -7.41m7.41 7.41l22.2 0 0 7.4 -22.2 0 0 -7.4m22.2 7.4l7.41 0 0 7.4 -7.41 0 0 -7.4m-29.61 7.4l29.61 0 0 7.4 -29.61 0 0 -7.4m-491.72 0l29.6 0 0 7.4 -29.6 0 0 -7.4m29.6 -7.4l7.41 0 0 7.4 -7.41 0 0 -7.4m-22.2 -7.4l22.2 0 0 7.4 -22.2 0 0 -7.4m-7.4 -7.41l7.4 0 0 7.41 -7.4 0 0 -7.41m7.4 -7.39l29.61 0 0 7.39 -29.61 0 0 -7.39m795.9 0l14.81 0 0 7.39 -7.4 0 0 29.61 -7.41 0 0 -37m29.61 7.39l7.41 0 0 29.61 -7.41 0 0 -29.61m-7.4 -7.39l7.4 0 0 7.39 -7.4 0 0 -7.39m-7.4 7.39l7.4 0 0 29.61 -7.4 0 0 -29.61m-14.81 -7.39l0 0 0 0 0 0 0 0m-713.27 0l0 0 0 0 0 0 0 0m14.81 7.39l7.41 0 0 29.61 -7.41 0 0 -29.61m7.41 -7.39l7.39 0 0 7.39 -7.39 0 0 -7.39m7.39 7.39l7.41 0 0 29.61 -7.41 0 0 -29.61m-29.61 -7.39l14.81 0 0 7.39 -7.4 0 0 29.61 -7.41 0 0 -37m876.11 -212.26l0 -29.61 7.41 0 0 44.41 -7.41 0 0 -7.4 -22.2 0 0 -7.4 22.2 0m-579.05 240.74l0 -29.61 7.4 0 0 44.42 -7.4 0 0 -7.4 -22.21 0 0 -7.41 22.21 0m-22.21 14.81l22.21 0 0 7.4 -22.21 0 0 -7.4m-7.39 -44.42l7.39 0 0 29.61 -7.39 0 0 -29.61m623.47 -152.71l7.39 0 0 7.39 22.2 0 0 -7.39 7.41 0 0 14.8 -29.61 0 0 7.4 -7.39 0 0 -22.2m-133.25 80.61l7.41 0 0 7.41 22.2 0 0 -7.41 7.41 0 0 14.8 -29.61 0 0 7.41 -7.41 0 0 -22.21m7.41 22.21l22.2 0 0 7.41 -22.2 0 0 -7.41m0 -29.61l22.2 0 0 7.4 -22.2 0 0 -7.4m-177.92 0l22.2 0 0 7.4 -22.2 0 0 -7.4m0 29.61l22.2 0 0 7.41 -22.2 0 0 -7.41m-7.41 -22.21l7.41 0 0 7.41 22.2 0 0 -7.41 7.41 0 0 14.8 -29.61 0 0 7.41 -7.41 0 0 -22.21m266.75 80.62l7.4 0 0 7.41 22.2 0 0 -7.41 7.41 0 0 14.81 -29.61 0 0 7.4 -7.4 0 0 -22.21m7.4 22.21l22.2 0 0 7.4 -22.2 0 0 -7.4m0 -29.6l22.2 0 0 7.39 -22.2 0 0 -7.39m88.82 0l5.63 0 0 7.39 -5.63 0 0 -7.39m0 29.6l5.63 0 0 7.4 -5.63 0 0 -7.4m-7.4 -22.21l7.4 0 0 7.41 5.63 0 0 0 0 0 0 7.4 -5.63 0 0 7.4 -7.4 0 0 -22.21m-1061.25 -7.39l22.2 0 0 7.39 -22.2 0 0 -7.39m0 29.6l22.2 0 0 7.4 -22.2 0 0 -7.4m-7.4 -22.21l7.4 0 0 7.41 22.2 0 0 -7.41 7.41 0 0 14.81 -29.61 0 0 7.4 -7.4 0 0 -22.21m95.1 14.81l14.81 0 0 13.69 -14.81 0 0 -13.69m892.13 -102.83l22.2 0 0 7.4 -22.2 0 0 -7.4m-7.4 7.4l7.4 0 0 22.21 -7.4 0 0 -22.21m7.4 22.21l22.2 0 0 7.41 -22.2 0 0 -7.41m22.2 -7.41l7.41 0 0 7.41 -7.41 0 0 -7.41m22.21 -22.2l22.2 0 0 7.4 -22.2 0 0 -7.4m-7.39 22.2l7.39 0 0 7.41 -7.39 0 0 -7.41m-594.5 0l7.4 0 0 7.41 -7.4 0 0 -7.41m-22.21 7.41l22.21 0 0 7.41 -22.21 0 0 -7.41m-7.4 -22.21l7.4 0 0 22.21 -7.4 0 0 -22.21m7.4 -7.4l22.21 0 0 7.4 -22.21 0 0 -7.4m409.45 -14.8l7.4 0 0 7.4 -7.4 0 0 -7.4m44.41 29.61l7.4 0 0 7.39 -7.4 0 0 -7.39m-222.34 -14.81l14.81 0 0 7.4 -14.81 0 0 -7.4m14.81 7.4l7.4 0 0 29.62 -7.4 0 0 -29.62m-201.92 -7.4l21.09 0 0 7.4 -21.09 0 0 -7.4m-7.39 7.4l7.39 0 0 22.21 -7.39 0 0 -22.21m7.39 22.21l21.09 0 0 7.41 -21.09 0 0 -7.41m21.09 -22.21l7.41 0 0 22.21 -7.41 0 0 -22.21m356.93 80.62l7.4 0 0 22.21 -7.4 0 0 -22.21m-21.09 22.21l21.09 0 0 7.4 -21.09 0 0 -7.4m-7.39 -22.21l7.39 0 0 22.21 -7.39 0 0 -22.21m7.39 -7.39l21.09 0 0 7.39 -21.09 0 0 -7.39m-184.62 -80.63l7.41 0 0 7.4 7.39 0 0 7.41 -7.39 0 0 22.21 -7.41 0 0 -37.02m444.39 0l7.4 0 0 7.4 5.63 0 0 7.41 -5.63 0 0 22.21 -7.4 0 0 -37.02m-362.97 37.02l-7.4 0 0 -7.41 -7.4 0 0 -7.41 7.4 0 0 -22.2 7.4 0 0 37.02m-29.6 -7.41l-7.41 0 0 -29.61 7.41 0 0 29.61m14.8 7.41l-14.8 0 0 -7.41 14.8 0 0 7.41m-199.85 -37.02l7.39 0 0 7.4 7.41 0 0 7.41 -7.41 0 0 22.21 -7.39 0 0 -37.02m29.61 7.4l7.39 0 0 29.62 -7.39 0 0 -29.62m-14.81 -7.4l14.81 0 0 7.4 -14.81 0 0 -7.4m221.64 80.63l14.8 0 0 7.39 -14.8 0 0 -7.39m14.8 7.39l7.4 0 0 29.61 -7.4 0 0 -29.61m-29.6 -7.39l7.39 0 0 7.39 7.41 0 0 7.41 -7.41 0 0 22.2 -7.39 0 0 -37m244.96 37l-14.81 0 0 -7.4 14.81 0 0 7.4m-14.81 -7.4l-7.4 0 0 -29.6 7.4 0 0 29.6m29.61 7.4l-7.41 0 0 -7.4 -7.39 0 0 -7.4 7.39 0 0 -22.2 7.41 0 0 37m88.82 0l-7.41 0 0 -7.4 -7.39 0 0 -7.4 7.39 0 0 -22.2 7.41 0 0 37m-29.61 -7.4l-7.39 0 0 -29.6 7.39 0 0 29.6m14.81 7.4l-14.81 0 0 -7.4 14.81 0 0 7.4m7.39 -110.23l7.41 0 0 29.62 -29.61 0 0 -7.41 22.2 0 0 -7.41 -22.2 0 0 -7.39 22.2 0 0 -7.41m-355.98 80.62l7.4 0 0 29.61 -29.61 0 0 -7.4 22.21 0 0 -7.4 -22.21 0 0 -7.4 22.21 0 0 -7.41m-29.61 14.81l7.4 0 0 7.4 -7.4 0 0 -7.4m7.4 -22.2l22.21 0 0 7.39 -22.21 0 0 -7.39m-311.89 0l22.21 0 0 7.39 -22.21 0 0 -7.39m-7.4 22.2l7.4 0 0 7.4 -7.4 0 0 -7.4m29.61 -14.81l7.41 0 0 29.61 -29.62 0 0 -7.4 22.21 0 0 -7.4 -22.21 0 0 -7.4 22.21 0 0 -7.41m579.05 -183.44l-29.6 0 0 51.82 29.6 0 0 -7.41 -22.2 0 0 -14.81 22.2 0 0 -7.39 -22.2 0 0 -14.82 22.2 0 0 -7.39m-74.02 0l0 51.82 7.41 0 0 -37.02 7.4 0 0 -7.41 -7.4 0 0 -7.39 -7.41 0m37.02 0l0 51.82 -7.41 0 0 -37.02 -7.4 0 0 -7.41 7.4 0 0 -7.39 7.41 0m-60.41 0l7.41 0 0 29.6 7.4 0 0 7.41 -7.4 0 0 14.81 -7.41 0 0 -14.81 -22.2 0 0 -14.8 7.4 0 0 7.39 14.8 0 0 -14.8 -7.39 0 0 -7.41 7.39 0 0 -7.39m-65.49 0l0 7.39 21.08 0 0 7.41 7.41 0 0 -7.41 7.4 0 0 -7.39 -35.89 0m21.08 14.8l-7.39 0 0 7.41 -7.41 0 0 7.39 22.21 0 0 -7.39 -7.41 0 0 -7.41m-65.49 -7.41l0 37.02 7.4 0 0 -7.4 7.4 0 0 -7.41 -7.4 0 0 -22.21 -7.4 0m29.6 0l0 7.41 -7.39 0 0 7.41 7.39 0 0 22.2 7.41 0 0 -37.02 -7.41 0m-74.02 7.41l0 29.61 7.41 0 0 -14.81 22.21 0 0 -7.39 -22.21 0 0 -7.41 -7.41 0m7.41 29.61l22.21 0 0 7.41 -22.21 0 0 -7.41m-476.34 131.64l-7.41 0 0 7.39 -7.4 0 0 7.41 22.2 0 0 -7.41 -7.39 0 0 -7.39m-21.09 -14.81l0 7.4 21.09 0 0 7.41 7.39 0 0 -7.41 7.41 0 0 -7.4 -35.89 0m0 44.41l28.48 0 0 7.4 -28.48 0 0 -7.4m28.48 -14.8l7.41 0 0 14.8 -7.41 0 0 -14.8m594.84 -95.43l0 7.4 22.21 0 0 7.41 7.4 0 0 -7.41 7.41 0 0 -7.4 -37.02 0m7.41 22.2l7.4 0 0 7.41 22.21 0 0 7.41 -37.02 0 0 -7.41 7.41 0 0 -7.41m-44.41 -22.2l14.8 0 0 29.61 7.4 0 0 7.41 -22.2 0 0 -7.41 7.4 0 0 -22.21 -7.4 0 0 -7.4m-222.33 0l14.8 0 0 29.61 7.4 0 0 7.41 -22.2 0 0 -7.41 7.39 0 0 -22.21 -7.39 0 0 -7.4m7.39 -14.8l7.41 0 0 7.4 -7.41 0 0 -7.4m-89.24 80.62l7.4 0 0 7.4 -7.4 0 0 -7.4m-7.4 14.81l14.8 0 0 29.6 7.4 0 0 7.4 -22.2 0 0 -7.4 7.4 0 0 -22.21 -7.4 0 0 -7.39m67.04 -58.43l7.4 0 0 7.41 -7.4 0 0 -7.41m-7.4 7.41l7.4 0 0 7.41 -7.4 0 0 -7.41m-7.41 -44.41l7.41 0 0 14.8 7.4 0 0 7.4 -7.4 0 0 22.21 -7.41 0 0 -22.21 -7.4 0 0 -7.4 7.4 0 0 -14.8m44 80.62l7.39 0 0 14.81 7.41 0 0 7.39 -7.41 0 0 22.21 -7.39 0 0 -22.21 -7.41 0 0 -7.39 7.41 0 0 -14.81m7.39 44.41l7.41 0 0 7.4 -7.41 0 0 -7.4m7.41 -7.4l7.4 0 0 7.4 -7.4 0 0 -7.4m14.79 -22.2l7.41 0 0 7.39 7.4 0 0 7.41 -7.4 0 0 22.2 -7.41 0 0 -37m29.61 7.39l7.41 0 0 8.53 -7.41 0 0 -8.53m-14.8 -7.39l14.8 0 0 7.39 -14.8 0 0 -7.39m-186.06 -14.81l13.69 0 0 44.41 7.4 0 0 6.29 -21.09 0 0 -6.29 7.41 0 0 -37.01 -7.41 0 0 -7.4m-132.11 0l13.68 0 0 44.41 7.41 0 0 6.29 -21.09 0 0 -6.29 7.4 0 0 -37.01 -7.4 0 0 -7.4m444 14.81l14.81 0 0 7.39 -14.81 0 0 -7.39m-7.39 7.39l7.39 0 0 22.21 -7.39 0 0 -22.21m22.2 0l7.39 0 0 -22.2 7.41 0 0 50.7 -29.61 0 0 -6.29 22.2 0 0 -14.8 -7.39 0 0 -7.41m111.72 0l7.41 0 0 22.21 -7.41 0 0 -22.21m7.41 -7.39l14.8 0 0 7.39 -14.8 0 0 -7.39m14.8 7.39l7.4 0 0 -7.39 7.41 0 0 50.69 -7.41 0 0 -14.8 -22.2 0 0 -6.29 22.2 0 0 -14.8 -7.4 0 0 -7.41m-616.06 -7.39l-14.8 0 0 7.39 14.8 0 0 -7.39m-14.8 7.39l-7.41 0 0 -7.39 -7.4 0 0 50.69 7.4 0 0 -14.8 22.21 0 0 -6.29 -22.21 0 0 -14.8 7.41 0 0 -7.41m22.2 0l-7.4 0 0 22.21 7.4 0 0 -22.21m-89.8 0l-7.41 0 0 22.21 7.41 0 0 -22.21m-22.21 0l-7.41 0 0 -7.39 -7.39 0 0 50.69 7.39 0 0 -14.8 22.21 0 0 -6.29 -22.21 0 0 -14.8 7.41 0 0 -7.41m14.8 -7.39l-14.8 0 0 7.39 14.8 0 0 -7.39m-164.66 51.19l0 0z"
   id="path408" />
   <path
   fill="#000000"
   d="M3828.45 2507.14c-66.83,-290.84 -239.9,-303.5 -280.59,-303.5l0 -17.01c90.24,0 236.09,64.4 289.1,285.45 67.89,-220.58 183.86,-279.78 265.24,-280.91 77.56,-1.07 125.39,17.01 198.9,55.31l0 -34.52 212.21 0 0 -29.09 17.01 0 0 29.09 35.99 0 0 17 -35.99 0 0 415.87 152.62 -385.79 146.21 0 12.75 -30.08 -182.21 0 0 -17 189.41 0 20.03 -47.26 15.66 6.64 -17.22 40.62 40.31 0 0 17 -47.51 0 -118.94 280.71 157.52 0 0 210.39c147.41,-72.56 323.79,-19.32 412.69,122.72 88.17,-135.92 260.44,-190.09 410.53,-129.08l-5.97 -9.66 253.68 0 50.68 81.93 49.49 -80.03c0.74,-1.18 2.03,-1.9 3.43,-1.9l0 0c1.45,0 2.79,0.79 3.5,2.06 0.71,1.27 0.67,2.83 -0.09,4.07l-51.6 83.44 6.6 10.69 60.84 -98.36c0.73,-1.18 2.02,-1.9 3.41,-1.9l0 0c1.46,0 2.81,0.79 3.51,2.06 0.71,1.27 0.68,2.83 -0.1,4.07l-62.93 101.77 6.61 10.69 73.35 -118.59 253.67 0 -200.19 323.67 6.62 10.68 211.23 -341.52 -263.53 0c-1.46,0 -2.8,-0.78 -3.51,-2.06 -0.7,-1.28 -0.67,-2.83 0.1,-4.07l0 0c0.73,-1.18 2.02,-1.9 3.41,-1.9l277.95 0 -209.59 338.87 196.06 317c0.77,1.23 0.8,2.79 0.1,4.07 -0.71,1.26 -2.05,2.06 -3.51,2.06 -1.4,0 -2.68,-0.72 -3.42,-1.91l-193.95 -313.59 -6.62 10.69 188.52 304.81 -253.68 0 -48.45 -78.34 -47.28 76.43c-0.73,1.19 -2.02,1.91 -3.41,1.91l0 0c-0.66,0 -1.31,-0.16 -1.89,-0.48 -0.58,0.32 -1.24,0.48 -1.9,0.48 -1.45,0 -2.79,-0.8 -3.51,-2.06 -0.7,-1.28 -0.66,-2.84 0.1,-4.07l51.28 -82.91 -6.62 -10.68 -60.5 97.81c-0.73,1.19 -2.02,1.91 -3.42,1.91 -1.45,0 -2.79,-0.8 -3.5,-2.06 -0.72,-1.28 -0.68,-2.84 0.09,-4.07l62.61 -101.23 -6.61 -10.7 -73.02 118.06 -253.68 0 7.42 -12c-150.21,62.04 -323.32,8.32 -412,-127.89 -88.78,142.39 -265.38,194.5 -413,121.84l0 18.05 -215.55 0 0 -1.62 -35.58 0 15.54 43.87 -16.03 5.68 -17.54 -49.55 -68.34 0 0 -17.01 62.31 0 -126.96 -358.37 -7.5 18.27 0 358.73 -140.59 0 0 -1091.8 140.59 0 0 489.47 24.01 -60.69 0 -458.86 -195.21 0 0 49.71c-84.69,-56.95 -141.43,-70.49 -215.9,-70.49 -58.96,0 -188.34,42.97 -256.74,298.96l-17.01 0 0 0 0 0 0 0 0 0 0 0 0 0zm304.53 866.64l-268.05 0.02 0 -17.01 183.06 0c-139.5,-61.94 -200.28,-286.1 -200.28,-551.85 0,-313.32 84.45,-568.86 282.83,-568.86 91.18,0 142.97,46.84 187.56,89.52l0 27.84c0.02,0.02 0.04,0.05 0.05,0.07l-0.01 235.93 -15.15 0c-32.87,-59.89 -93.29,-144 -155.71,-144 -104.02,0 -155.47,161.11 -154.16,359.5 -1.31,198.39 50.14,359.5 154.16,359.5 62.42,0 122.84,-84.11 155.71,-144l15.15 0 0.01 235.93c-0.01,0.03 -0.03,0.04 -0.05,0.07l0 27.84c-44.18,42.31 -95.47,88.68 -185.12,89.5l0 0zm-587.18 -1137.7c196.68,0 280.41,268.25 280.41,568.86 0,300.6 -83.73,568.86 -280.41,568.86 -196.69,0 -280.42,-255.54 -280.42,-568.86 0,-313.32 83.73,-568.86 280.42,-568.86zm-489.67 22.96l-256.1 0 0 634.04c1.66,4.44 3.3,8.87 4.93,13.32 11.5,-3.16 23.43,-4.43 35.33,-3.8 23.3,1.25 44.28,14.46 55.47,34.93 10.1,18.5 14.92,39.42 13.9,60.47 -0.43,8.81 -2.75,17.41 -6.8,25.23 -9.94,19.22 -25.29,35.1 -44.17,45.7 6.39,21.66 12.49,43.4 18.31,65.23 11.13,41.76 16.36,84.86 15.52,128.07 -0.22,11.14 -2.63,22.13 -7.11,32.34 -4.59,10.45 -12.65,19.02 -22.8,24.25 -7.37,3.8 -15.97,4.42 -23.81,1.74 -7.84,-2.69 -14.25,-8.45 -17.75,-15.97 -4.07,-8.75 -6.06,-18.33 -5.82,-27.98 0.14,-5.42 2.76,-10.49 7.12,-13.74 5.49,-4.1 12.24,-6.15 19.07,-5.82 4.5,0.22 8.52,2.85 10.53,6.87 2.02,4.01 1.7,8.81 -0.83,12.54 -3.1,4.58 -7.66,8 -12.93,9.7l1.8 3.93c0.85,2.24 2.75,3.91 5.07,4.49 2.32,0.57 4.78,-0.03 6.58,-1.61 8.82,-7.52 14.33,-18.23 15.3,-29.81 1.28,-19.92 0.85,-39.93 -1.26,-59.79 -6.21,-42.43 -15.46,-84.36 -27.67,-125.46 -3.13,1 -6.31,1.85 -9.52,2.56 -9.4,2.1 -18.9,3.72 -28.46,4.88l0 265.49 171.4 0 0 35.5 17.01 0 0 -35.5 36.51 0 0 -17 -36.51 0 0 -382.84 16.41 0 149.58 399.84 164.27 0 14.84 37.89 15.84 -6.21 -14.77 -37.67 51.26 0 0 -17 -57.92 0 -176.89 -451.48c65.11,-67.16 102.47,-168.24 102.47,-296.62 0,-172.07 -46.58,-320.71 -197.4,-320.71l0 0 0 0 0 0 0 0 0 0 0 0zm-225.59 794.92c-9.77,4.02 -20.03,6.72 -30.51,8.01l0 -96.75c10.55,29.33 20.68,58.8 30.4,88.41 0.04,0.12 0.07,0.22 0.11,0.33 0,0 0,0 0,0 0,0 0,0 0,0 0,0 0,0 0,0m-16.05 -121.22c3.33,-0.91 6.72,-1.69 10.12,-2.33 10.68,-1.98 21.71,0.6 30.4,7.12 7.91,5.94 13.6,14.35 16.18,23.9 5.74,21.29 4.49,43.86 -3.57,64.39 -1.69,4.3 -4.48,8.09 -8.08,10.99 -2.77,2.23 -5.63,4.33 -8.59,6.29 -11.34,-37.05 -23.5,-73.84 -36.46,-110.36m-14.46 129.23c-2.68,0.33 -5.38,0.58 -8.08,0.72 -29.45,1.6 -56.84,-15.12 -68.89,-42.04 -21.37,-47.79 -24.47,-101.75 -8.73,-151.68 5.53,-17.53 11.25,-34.99 17.15,-52.39 1.63,-4.82 3.27,-9.62 4.95,-14.44 15.8,37.56 30.91,75.39 45.32,113.51 -20.53,10.99 -37.09,28.15 -47.36,49.05 -1.7,3.45 -1.04,7.6 1.66,10.35 2.69,2.74 6.83,3.5 10.32,1.87 3.02,-2.18 5.84,-4.65 8.39,-7.37 10.37,-11.52 22.82,-21 36.67,-27.96 2.9,7.86 5.77,15.74 8.6,23.63l0 -72.14c-13.63,-36.49 -28.08,-72.67 -43.33,-108.52 -2.53,-5.94 -5.1,-11.84 -7.73,-17.73 3.17,-8.71 6.39,-17.42 9.67,-26.09 4.68,-12.38 8.24,-25.15 10.67,-38.16 2.74,-14.71 1.51,-29.89 -3.56,-43.98 -11.55,-32.09 -33.82,-59.23 -63.06,-76.8 -12.86,-7.74 -27.68,-11.56 -42.68,-11.01 -12.57,0.48 -22.71,10.42 -23.45,22.97 -0.66,11.39 1.98,22.73 7.6,32.66 5.21,9.2 10.82,18.15 16.82,26.84 18.5,26.82 34.5,55.3 47.77,85.06 2.61,5.85 5.21,11.71 7.79,17.58 -4.05,11.14 -8.02,22.32 -11.91,33.52 -18.01,51.97 -29.63,105.94 -34.6,160.73 -2.34,25.85 -0.04,51.91 6.8,76.97 9.37,34.35 39.92,58.69 75.5,60.15 15.93,0.65 31.88,0.01 47.7,-1.92l0 -23.38m232.89 -848.39l-264.77 0 0 -41.25 -17 0 0 41.25 -39.6 0 0 17.01 39.6 0 0 189.42 17 0 0 -189.42 264.77 0 0 -17.01z"
   id="path410" />
   <path
   fill="#B4C3D3"
   d="M6325.56 2728.94l-195.1 0 -87.23 141.03 -87.22 -141.03 -195.12 0 36.59 59.16c-74.47,-63.23 -174.2,-88.03 -269.61,-67.07 -95.41,20.96 -175.56,85.29 -216.68,173.91 -36.85,-82.44 -106.19,-144.15 -190.06,-169.13 -83.88,-24.98 -174.04,-10.78 -247.09,38.94l0 -234.06 -165.73 0 0 791.36 165.73 0 0 -31.92c73.19,49.8 163.52,63.96 247.5,38.8 83.99,-25.15 153.35,-87.13 190.02,-169.82 41.58,88.96 122.5,153.24 218.56,173.61 96.06,20.36 196.11,-5.56 270.2,-70l-39.1 63.21 195.11 0 86.9 -140.5 86.9 140.5 195.1 0 -184.45 -298.22 184.78 -298.77 0 0 0 0 0 0 0 0 0 0 0 0z"
   id="path412" />
   <path
   fill="#000000"
   d="M5168.65 3026.63c0,-81.35 -65.95,-147.31 -147.3,-147.31 -81.36,0 -147.3,65.96 -147.3,147.31 0,81.35 65.94,147.31 147.3,147.31 81.35,0 147.3,-65.96 147.3,-147.31zm730.18 -74.66c12.36,50.28 12.04,102.83 -0.92,152.95l47.76 -77.21 -46.84 -75.74m-156.52 74.66c0,-81.35 -65.96,-147.31 -147.31,-147.31 -81.35,0 -147.31,65.96 -147.31,147.31 0,81.35 65.96,147.31 147.31,147.31 81.35,0 147.31,-65.96 147.31,-147.31z"
   id="path414" />
   <path
   fill="#FFC000"
   d="M2940.62 3333.84l30.81 0 0 -382.84 -30.81 0 0 382.84m63.61 -624.15c51.95,0 60.09,-65.87 60.04,-111.07 -0.05,-45.2 -6.61,-94.26 -51.95,-94.26l-71.7 0 0 249.8 30.81 0 0 -44.47 32.8 0 0 0 0 0 0 0 0 0 0 0 0 0zm0 17.01l-15.79 0 0 27.46 1.08 0c115.78,0 115.78,-103.67 115.78,-139.7l0 -23.26c0,-34.91 -0.23,-131.31 -97.73,-131.31l-66.95 0 0 27.47 63.61 0c33.08,0 77.47,4.7 77.47,115.66 0,110.95 -44.61,122.75 -77.47,123.68l0 0 0 0 0 0 0 0 0 0 0 0zm-275.71 -3.04c-13.33,-26.6 -27.74,-52.64 -43.22,-78.04 -4.93,-8.08 -9.37,-16.43 -13.33,-25.02 -2.58,-5.6 -4.11,-11.63 -4.52,-17.78 -0.09,-1.33 0.38,-2.63 1.31,-3.59 0.92,-0.96 2.21,-1.47 3.54,-1.43 6.39,0.22 12.62,2.06 18.11,5.34 23.59,14.11 40.41,37.23 46.57,64.03 1.79,7.82 1.84,15.93 0.15,23.76 -2.38,11.05 -5.25,21.96 -8.61,32.73l0 0m2862.46 425.3l8.04 0c66.77,-2.19 119.46,-57.53 118.36,-124.34 -1.09,-66.81 -55.56,-120.39 -122.38,-120.39 -66.81,0 -121.29,53.58 -122.38,120.39 -1.09,66.81 51.59,122.15 118.36,124.34zm-573.65 0l8.03 0c66.78,-2.19 119.47,-57.53 118.36,-124.34 -1.09,-66.81 -55.56,-120.39 -122.37,-120.39 -66.81,0 -121.29,53.58 -122.38,120.39 -1.1,66.81 51.58,122.15 118.36,124.34zm-383.72 -384.84l49.79 128.81 0 -246.33 -49.79 117.52m8.18 568.09l-135.3 -381.96 15.86 -38.65 156.36 420.61 -36.92 0m-1096 -890.45c94.72,0 135.01,171.25 135.01,363.18 0,191.93 -40.29,363.18 -135.01,363.18 -94.71,0 -135,-163.15 -135,-363.18 0,-200.03 40.29,-363.18 135,-363.18z"
   id="path416" />
   <path
   fill="#000000"
   d="M5590.98 3148.96c2.68,0.19 5.36,0.18 8.04,0l0 -11.25c60.58,-2.19 108.23,-52.52 107.11,-113.13 -1.11,-60.6 -50.59,-109.14 -111.2,-109.11 -1.46,-0.02 -2.66,0.74 -3.4,1.99 -0.72,1.25 -0.73,2.81 0,4.06 0.74,1.25 1.95,2.01 3.4,1.99 37.32,-0.03 71.75,20.12 90.01,52.68 18.26,32.55 17.49,72.45 -1.99,104.28 -19.49,31.83 -54.67,50.66 -91.97,49.2l0 19.29 0 0 0 0 0 0 0 0 0 0 0 0zm-569.63 -30.46c-2.22,0 -4.02,-1.8 -4.02,-4.01 0,-2.23 1.8,-4.02 4.02,-4.02 46.3,0 83.83,-37.54 83.83,-83.84 0,-46.3 -37.53,-83.84 -83.83,-83.84 -2.22,0 -4.02,-1.8 -4.02,-4.01 0,-2.23 1.8,-4.02 4.02,-4.02 50.73,0 91.87,41.13 91.87,91.87 0,50.74 -41.14,91.87 -91.87,91.87l0 0 0 0 0 0 0 0 0 0 0 0zm573.65 0c-2.22,0 -4.02,-1.8 -4.02,-4.01 0,-2.23 1.8,-4.02 4.02,-4.02 46.3,0 83.84,-37.54 83.84,-83.84 0,-46.3 -37.54,-83.84 -83.84,-83.84 -2.22,0 -4.02,-1.8 -4.02,-4.01 0,-2.23 1.8,-4.02 4.02,-4.02 50.74,0 91.87,41.13 91.87,91.87 0,50.74 -41.13,91.87 -91.87,91.87l0 0 0 0 0 0 0 0 0 0 0 0zm-577.67 30.46c2.68,0.14 5.35,0.11 8.03,0l0 -11.25c60.58,-2.19 108.23,-52.52 107.12,-113.13 -1.11,-60.6 -50.59,-109.14 -111.21,-109.11 -1.46,-0.02 -2.66,0.74 -3.39,1.99 -0.73,1.25 -0.74,2.81 0,4.06 0.73,1.25 1.94,2.01 3.39,1.99 37.33,-0.03 71.76,20.12 90.01,52.68 18.27,32.55 17.49,72.45 -1.99,104.28 -19.48,31.83 -54.67,50.66 -91.96,49.2l0 19.29 0 0 0 0 0 0 0 0 0 0 0 0zm-1471.53 -31.95l0 -42 -17.01 0 0 44.73 0 17.01c91.93,0 118.9,-156.11 119.54,-323.31l386.89 0c0.91,117.7 26.73,297.84 103.56,310.26l0 44.42 17 0 0 -354.68 67.7 0 0 -17 -67.7 0 0 -61.36 -17 0 0 61.36 -86.5 0c1.84,-116.66 34.43,-287.21 95,-289.98l0 -17.01c-79.45,3.08 -110.33,185.11 -112.02,306.99l-386.96 0c-1.1,-166.41 -27.96,-321.25 -119.51,-321.25l0 16.32 0 304.93 -51.97 0 0 17 51.97 0 0 59.39 17.01 0 0 -59.39 85.5 0c-0.85,107.01 -14.34,279.95 -85.5,303.57l0 0 0 0 0 0 0 0 0 0 0 0z"
   id="path418" />
   <path
   fill="#FFC000"
   d="M4052.22 2813.44c1.11,111.42 29.32,277.77 86.56,292.89l0 -292.89 -86.56 0zm-420.9 -17l-85.52 0 0 -302.18c70.81,23.53 85.02,194.97 85.52,302.18z"
   id="path420" />
  </g>
  <path
   fill="none"
   stroke="#BABABA"
   stroke-width="15"
   stroke-linejoin="bevel"
   d="M5350.21 13273.2l0 -1204.95c0,-116.67 94.58,-211.24 211.24,-211.24l1204.96 0c193.42,0 350.22,-156.8 350.22,-350.22 0,-193.42 -156.8,-350.22 -350.22,-350.22l-1204.96 0c-116.66,0 -211.24,-94.58 -211.24,-211.24l0 -1204.95c0,-193.43 -156.79,-350.23 -350.22,-350.23 -193.42,0 -350.22,156.8 -350.22,350.23l0 1204.95c0,116.66 -94.57,211.24 -211.24,211.24l-1204.95 0c-193.42,0 -350.22,156.8 -350.22,350.22 0,193.42 156.8,350.22 350.22,350.22l1204.95 0c116.67,0 211.24,94.57 211.24,211.24l0 1204.95c0,193.42 156.8,350.22 350.22,350.22 193.43,0 350.22,-156.8 350.22,-350.22"
   id="path422" />
  <path
   fill="#60676D"
   d="M4785.5 1010.92c0,33.9 -8.62,58.75 -25.88,74.57 -17.25,15.88 -43.8,23.82 -79.6,23.82 -11.92,0 -23.48,-0.73 -34.78,-2.26 -11.3,-1.47 -22.45,-3.6 -33.41,-6.35l0 -34.32 1.99 0c6.16,2.13 15.95,4.82 29.3,7.93 13.35,3.18 26.76,4.77 40.11,4.77 12.8,0 23.48,-1.35 31.9,-4.09 8.42,-2.75 14.92,-6.6 19.65,-11.49 4.65,-4.64 8.01,-10.26 9.99,-16.79 1.98,-6.6 3.01,-13.93 3.01,-22.05l0 -18.2c-11.36,8.06 -22.24,14.11 -32.58,18.14 -10.33,3.97 -23.55,5.99 -39.63,5.99 -26.7,0 -47.92,-8.62 -63.67,-25.84 -15.68,-17.22 -23.55,-41.53 -23.55,-72.92 0,-17.16 2.74,-32 8.15,-44.46 5.4,-12.46 12.8,-23.21 22.1,-32.31 8.7,-8.43 19.32,-15.02 31.7,-19.73 12.47,-4.7 24.85,-7.08 37.1,-7.08 13.02,0 23.83,1.16 32.59,3.48 8.76,2.32 18.01,5.86 27.79,10.63l2.4 -8.55 35.32 0 0 177.11zm-37.72 -32.25l0 -108.89c-10.06,-4.09 -19.36,-6.96 -27.99,-8.73 -8.64,-1.71 -17.19,-2.57 -25.74,-2.57 -20.75,0 -37.03,6.23 -48.95,18.63 -11.91,12.4 -17.86,30.41 -17.86,53.99 0,22.41 4.38,39.39 13.21,50.99 8.82,11.55 23.47,17.35 43.95,17.35 10.95,0 21.97,-1.89 32.99,-5.62 11.03,-3.79 21.15,-8.79 30.39,-15.15z"
   id="path424" />
  <path
   fill="#60676D"
   d="M4900.23 800.28l-42.51 0 0 -34.87 42.51 0 0 34.87zm-2.4 233.36l-37.71 0 0 -199.83 37.71 0 0 199.83z"
   id="path426" />
  <path
   fill="#60676D"
   d="M5154.06 1010.92c0,33.9 -8.62,58.75 -25.88,74.57 -17.25,15.88 -43.8,23.82 -79.6,23.82 -11.92,0 -23.48,-0.73 -34.78,-2.26 -11.3,-1.47 -22.45,-3.6 -33.41,-6.35l0 -34.32 1.99 0c6.16,2.13 15.95,4.82 29.3,7.93 13.35,3.18 26.76,4.77 40.11,4.77 12.8,0 23.48,-1.35 31.9,-4.09 8.42,-2.75 14.92,-6.6 19.65,-11.49 4.65,-4.64 8.01,-10.26 9.99,-16.79 1.98,-6.6 3.01,-13.93 3.01,-22.05l0 -18.2c-11.36,8.06 -22.24,14.11 -32.58,18.14 -10.33,3.97 -23.55,5.99 -39.63,5.99 -26.7,0 -47.92,-8.62 -63.67,-25.84 -15.68,-17.22 -23.55,-41.53 -23.55,-72.92 0,-17.16 2.74,-32 8.15,-44.46 5.4,-12.46 12.8,-23.21 22.1,-32.31 8.7,-8.43 19.32,-15.02 31.7,-19.73 12.47,-4.7 24.85,-7.08 37.1,-7.08 13.02,0 23.83,1.16 32.59,3.48 8.76,2.32 18.01,5.86 27.79,10.63l2.4 -8.55 35.32 0 0 177.11zm-37.72 -32.25l0 -108.89c-10.06,-4.09 -19.36,-6.96 -27.99,-8.73 -8.64,-1.71 -17.19,-2.57 -25.74,-2.57 -20.75,0 -37.03,6.23 -48.95,18.63 -11.91,12.4 -17.86,30.41 -17.86,53.99 0,22.41 4.38,39.39 13.21,50.99 8.82,11.55 23.47,17.35 43.95,17.35 10.95,0 21.97,-1.89 32.99,-5.62 11.03,-3.79 21.15,-8.79 30.39,-15.15z"
   id="path428" />
  <path
   fill="#60676D"
   d="M5402.35 1033.64l-37.51 0 0 -21.25c-3.35,2.01 -7.87,4.82 -13.55,8.49 -5.69,3.6 -11.16,6.53 -16.5,8.67 -6.3,2.75 -13.55,5.01 -21.7,6.9 -8.15,1.83 -17.67,2.75 -28.69,2.75 -20.12,0 -37.23,-5.99 -51.26,-17.9 -14.04,-11.91 -21.09,-27.11 -21.09,-45.62 0,-15.14 3.62,-27.42 10.95,-36.76 7.25,-9.35 17.67,-16.74 31.15,-22.11 13.62,-5.38 30.05,-8.98 49.15,-10.94 19.1,-1.89 39.64,-3.29 61.54,-4.27l0 -5.19c0,-7.64 -1.5,-13.99 -4.52,-19 -3.02,-5 -7.32,-8.97 -12.93,-11.84 -5.34,-2.75 -11.79,-4.58 -19.24,-5.56 -7.46,-0.92 -15.33,-1.41 -23.48,-1.41 -9.85,0 -20.88,1.16 -33.07,3.49 -12.18,2.32 -24.71,5.74 -37.71,10.13l-1.99 0 0 -34.2c7.32,-1.77 18,-3.72 31.9,-5.86 13.9,-2.14 27.59,-3.24 41.07,-3.24 15.82,0 29.51,1.16 41.21,3.48 11.71,2.32 21.84,6.29 30.4,11.91 8.42,5.5 14.85,12.58 19.24,21.32 4.45,8.67 6.63,19.48 6.63,32.37l0 135.64zm-37.51 -49.23l0 -55.63c-11.5,0.61 -25.05,1.46 -40.59,2.68 -15.61,1.16 -27.93,2.94 -37.03,5.2 -10.82,2.74 -19.58,7.02 -26.3,12.76 -6.63,5.8 -9.99,13.8 -9.99,23.94 0,11.42 3.91,20.03 11.64,25.83 7.73,5.81 19.58,8.68 35.46,8.68 13.27,0 25.39,-2.32 36.35,-6.9 10.95,-4.58 21.09,-10.08 30.46,-16.56z"
   id="path430" />
  <path
   fill="#60676D"
   d="M5672.13 932.2c0,16.73 -2.67,31.76 -7.94,45.07 -5.26,13.37 -12.39,24.61 -21.36,33.65 -9.44,9.41 -19.92,16.49 -31.28,21.19 -11.37,4.71 -23.82,7.09 -37.52,7.09 -12.65,0 -23.75,-1.35 -33.27,-4.03 -9.51,-2.69 -18.82,-6.29 -28.06,-10.81l-2.39 9.28 -35.33 0 0 -278.43 37.72 0 0 99.55c10.55,-7.76 21.77,-14.11 33.68,-19.06 11.91,-4.95 25.26,-7.45 40.12,-7.45 26.49,0 47.36,9.04 62.7,27.18 15.26,18.14 22.93,43.73 22.93,76.77zm-38.88 0.91c0,-23.88 -4.39,-42.02 -13.21,-54.35 -8.83,-12.34 -23.08,-18.51 -42.71,-18.51 -11.03,0 -22.12,2.14 -33.35,6.35 -11.22,4.22 -21.63,9.72 -31.28,16.37l0 114.51c10.68,4.34 19.93,7.33 27.59,8.98 7.67,1.65 16.42,2.51 26.15,2.51 20.87,0 37.24,-6.11 49.09,-18.33 11.83,-12.27 17.72,-31.45 17.72,-57.53z"
   id="path432" />
  <path
   fill="#60676D"
   d="M5918.36 937.21l-164.98 0c0,12.27 2.06,23.02 6.23,32.12 4.11,9.1 9.8,16.61 17.05,22.47 6.92,5.68 15.2,10.02 24.71,12.89 9.59,2.87 20.12,4.28 31.62,4.28 15.2,0 30.54,-2.69 46,-8.13 15.42,-5.43 26.43,-10.81 33,-16.06l1.99 0 0 36.71c-12.74,4.76 -25.67,8.73 -38.89,11.97 -13.27,3.23 -27.17,4.82 -41.75,4.82 -37.17,0 -66.13,-8.98 -87.01,-26.93 -20.87,-17.96 -31.28,-43.42 -31.28,-76.47 0,-32.67 9.99,-58.63 29.98,-77.8 19.99,-19.24 46.28,-28.83 78.86,-28.83 30.25,0 53.54,7.88 69.9,23.64 16.35,15.69 24.57,38.11 24.57,67.05l0 18.27zm-36.69 -25.78c-0.14,-17.65 -5.13,-31.33 -14.93,-40.98 -9.85,-9.65 -24.78,-14.47 -44.83,-14.47 -20.13,0 -36.22,5.31 -48.2,15.94 -11.97,10.56 -18.75,23.76 -20.33,39.51l128.29 0z"
   id="path434" />
  <path
   fill="#60676D"
   d="M6149.61 1033.64l-37.51 0 0 -21.25c-3.35,2.01 -7.87,4.82 -13.55,8.49 -5.69,3.6 -11.16,6.53 -16.5,8.67 -6.3,2.75 -13.55,5.01 -21.7,6.9 -8.15,1.83 -17.67,2.75 -28.69,2.75 -20.12,0 -37.23,-5.99 -51.26,-17.9 -14.04,-11.91 -21.09,-27.11 -21.09,-45.62 0,-15.14 3.62,-27.42 10.95,-36.76 7.25,-9.35 17.67,-16.74 31.15,-22.11 13.62,-5.38 30.05,-8.98 49.15,-10.94 19.1,-1.89 39.64,-3.29 61.54,-4.27l0 -5.19c0,-7.64 -1.5,-13.99 -4.52,-19 -3.02,-5 -7.32,-8.97 -12.93,-11.84 -5.34,-2.75 -11.79,-4.58 -19.24,-5.56 -7.46,-0.92 -15.33,-1.41 -23.48,-1.41 -9.85,0 -20.88,1.16 -33.07,3.49 -12.18,2.32 -24.71,5.74 -37.71,10.13l-1.99 0 0 -34.2c7.32,-1.77 18,-3.72 31.9,-5.86 13.9,-2.14 27.59,-3.24 41.07,-3.24 15.82,0 29.51,1.16 41.21,3.48 11.71,2.32 21.84,6.29 30.4,11.91 8.42,5.5 14.85,12.58 19.24,21.32 4.45,8.67 6.63,19.48 6.63,32.37l0 135.64zm-37.51 -49.23l0 -55.63c-11.5,0.61 -25.05,1.46 -40.59,2.68 -15.61,1.16 -27.93,2.94 -37.03,5.2 -10.82,2.74 -19.58,7.02 -26.3,12.76 -6.63,5.8 -9.99,13.8 -9.99,23.94 0,11.42 3.91,20.03 11.64,25.83 7.73,5.81 19.58,8.68 35.46,8.68 13.27,0 25.39,-2.32 36.35,-6.9 10.95,-4.58 21.09,-10.08 30.46,-16.56z"
   id="path436" />
  <path
   fill="#60676D"
   d="M6338.55 1031.81c-7.06,1.71 -14.79,3.05 -23.14,4.15 -8.35,1.04 -15.82,1.59 -22.39,1.59 -22.86,0 -40.25,-5.5 -52.09,-16.43 -11.91,-10.99 -17.87,-28.58 -17.87,-52.77l0 -106.26 -25.46 0 0 -28.28 25.46 0 0 -57.41 37.73 0 0 57.41 77.76 0 0 28.28 -77.76 0 0 91.06c0,10.5 0.27,18.68 0.82,24.61 0.54,5.86 2.39,11.42 5.61,16.49 2.94,4.82 6.98,8.3 12.12,10.5 5.13,2.2 13,3.3 23.55,3.3 6.15,0 12.52,-0.79 19.23,-2.38 6.7,-1.65 11.5,-2.99 14.44,-4.03l1.99 0 0 30.17z"
   id="path438" />
 </g>
 <g
   id="Hilfe">
 </g>
<g
   inkscape:groupmode="layer"
   id="layer1"
   inkscape:label="text"><text
     xml:space="preserve"
     style="font-size:790.222229px;font-style:normal;font-variant:normal;font-weight:normal;font-stretch:normal;text-align:start;line-height:100%;writing-mode:lr-tb;text-anchor:start;fill:black;fill-opacity:1;stroke:none;stroke-width:1px;stroke-linecap:butt;stroke-linejoin:miter;stroke-opacity:1;font-family:URW Palladio L"
     x="-2358.8535"
     y="8873.3701"
     id="text2308"
     sodipodi:linespacing="100%"
     inkscape:export-filename="/home/martin/src/dev/rockbox-devel/gigabeat.png"
     inkscape:export-xdpi="72"
     inkscape:export-ydpi="72"><tspan
       sodipodi:role="line"
       id="tspan2310"
       x="-2358.8535"
       y="8873.3701">Up</tspan></text>
<text
     xml:space="preserve"
     style="font-size:790.222229px;font-style:normal;font-variant:normal;font-weight:normal;font-stretch:normal;text-align:start;line-height:100%;writing-mode:lr-tb;text-anchor:start;fill:black;fill-opacity:1;stroke:none;stroke-width:1px;stroke-linecap:butt;stroke-linejoin:miter;stroke-opacity:1;font-family:URW Palladio L"
     x="10403.25"
     y="11266.136"
     id="text2315"
     sodipodi:linespacing="100%"
     inkscape:export-filename="/home/martin/src/dev/rockbox-devel/gigabeat.png"
     inkscape:export-xdpi="72"
     inkscape:export-ydpi="72"><tspan
       sodipodi:role="line"
       id="tspan2317"
       x="10403.25"
       y="11266.136">A</tspan></text>
<text
     xml:space="preserve"
     style="font-size:790.222229px;font-style:normal;font-variant:normal;font-weight:normal;font-stretch:normal;text-align:start;line-height:100%;writing-mode:lr-tb;text-anchor:start;fill:black;fill-opacity:1;stroke:none;stroke-width:1px;stroke-linecap:butt;stroke-linejoin:miter;stroke-opacity:1;font-family:URW Palladio L"
     x="-2331.8855"
     y="12013.064"
     id="text2319"
     sodipodi:linespacing="100%"
     inkscape:export-filename="/home/martin/src/dev/rockbox-devel/gigabeat.png"
     inkscape:export-xdpi="72"
     inkscape:export-ydpi="72"><tspan
       sodipodi:role="line"
       id="tspan2321"
       x="-2331.8855"
       y="12013.064">Left</tspan></text>
<text
     xml:space="preserve"
     style="font-size:790.222229px;font-style:normal;font-variant:normal;font-weight:normal;font-stretch:normal;text-align:start;line-height:100%;writing-mode:lr-tb;text-anchor:start;fill:black;fill-opacity:1;stroke:none;stroke-width:1px;stroke-linecap:butt;stroke-linejoin:miter;stroke-opacity:1;font-family:URW Palladio L"
     x="-2331.8855"
     y="14888.739"
     id="text2323"
     sodipodi:linespacing="100%"
     inkscape:export-filename="/home/martin/src/dev/rockbox-devel/gigabeat.png"
     inkscape:export-xdpi="72"
     inkscape:export-ydpi="72"><tspan
       sodipodi:role="line"
       id="tspan2325"
       x="-2331.8855"
       y="14888.739">Down</tspan></text>
<text
     xml:space="preserve"
     style="font-size:790.222229px;font-style:normal;font-variant:normal;font-weight:normal;font-stretch:normal;text-align:start;line-height:100%;writing-mode:lr-tb;text-anchor:start;fill:black;fill-opacity:1;stroke:none;stroke-width:1px;stroke-linecap:butt;stroke-linejoin:miter;stroke-opacity:1;font-family:URW Palladio L"
     x="10216.519"
     y="9697.5859"
     id="text2331"
     sodipodi:linespacing="100%"
     inkscape:export-filename="/home/martin/src/dev/rockbox-devel/gigabeat.png"
     inkscape:export-xdpi="72"
     inkscape:export-ydpi="72"><tspan
       sodipodi:role="line"
       id="tspan2333"
       x="10216.519"
       y="9697.5859">Volume down</tspan></text>
<text
     xml:space="preserve"
     style="font-size:790.222229px;font-style:normal;font-variant:normal;font-weight:normal;font-stretch:normal;text-align:start;line-height:100%;writing-mode:lr-tb;text-anchor:start;fill:black;fill-opacity:1;stroke:none;stroke-width:1px;stroke-linecap:butt;stroke-linejoin:miter;stroke-opacity:1;font-family:URW Palladio L"
     x="10216.518"
     y="7792.9175"
     id="text2335"
     sodipodi:linespacing="100%"
     inkscape:export-filename="/home/martin/src/dev/rockbox-devel/gigabeat.png"
     inkscape:export-xdpi="72"
     inkscape:export-ydpi="72"><tspan
       sodipodi:role="line"
       id="tspan2337"
       x="10216.518"
       y="7792.9175">Volume up</tspan></text>
<text
     xml:space="preserve"
     style="font-size:790.222229px;font-style:normal;font-variant:normal;font-weight:normal;font-stretch:normal;text-align:start;line-height:100%;writing-mode:lr-tb;text-anchor:start;fill:black;fill-opacity:1;stroke:none;stroke-width:1px;stroke-linecap:butt;stroke-linejoin:miter;stroke-opacity:1;font-family:URW Palladio L"
     x="10291.21"
     y="6149.6738"
     id="text2339"
     sodipodi:linespacing="100%"
     inkscape:export-filename="/home/martin/src/dev/rockbox-devel/gigabeat.png"
     inkscape:export-xdpi="72"
     inkscape:export-ydpi="72"><tspan
       sodipodi:role="line"
       id="tspan2341"
       x="10291.21"
       y="6149.6738">Menu</tspan></text>
<text
     xml:space="preserve"
     style="font-size:790.222229px;font-style:normal;font-variant:normal;font-weight:normal;font-stretch:normal;text-align:start;line-height:100%;writing-mode:lr-tb;text-anchor:start;fill:black;fill-opacity:1;stroke:none;stroke-width:1px;stroke-linecap:butt;stroke-linejoin:miter;stroke-opacity:1;font-family:URW Palladio L"
     x="10179.171"
     y="4469.0845"
     id="text2343"
     sodipodi:linespacing="100%"
     inkscape:export-filename="/home/martin/src/dev/rockbox-devel/gigabeat.png"
     inkscape:export-xdpi="72"
     inkscape:export-ydpi="72"><tspan
       sodipodi:role="line"
       id="tspan2345"
       x="10179.171"
       y="4469.0845">Power</tspan></text>
<text
     xml:space="preserve"
     style="font-size:790.222229px;font-style:normal;font-variant:normal;font-weight:normal;font-stretch:normal;text-align:start;line-height:100%;writing-mode:lr-tb;text-anchor:start;fill:black;fill-opacity:1;stroke:none;stroke-width:1px;stroke-linecap:butt;stroke-linejoin:miter;stroke-opacity:1;font-family:URW Palladio L"
     x="10477.943"
     y="14253.85"
     id="text2351"
     sodipodi:linespacing="100%"
     inkscape:export-filename="/home/martin/src/dev/rockbox-devel/gigabeat.png"
     inkscape:export-xdpi="72"
     inkscape:export-ydpi="72"><tspan
       sodipodi:role="line"
       id="tspan2353"
       x="10477.943"
       y="14253.85">Select</tspan></text>
<text
     xml:space="preserve"
     style="font-size:790.222229px;font-style:normal;font-variant:normal;font-weight:normal;font-stretch:normal;text-align:start;line-height:100%;writing-mode:lr-tb;text-anchor:start;fill:black;fill-opacity:1;stroke:none;stroke-width:1px;stroke-linecap:butt;stroke-linejoin:miter;stroke-opacity:1;font-family:URW Palladio L"
     x="10328.557"
     y="12461.221"
     id="text2355"
     sodipodi:linespacing="100%"
     inkscape:export-filename="/home/martin/src/dev/rockbox-devel/gigabeat.png"
     inkscape:export-xdpi="72"
     inkscape:export-ydpi="72"><tspan
       sodipodi:role="line"
       id="tspan2357"
       x="10328.557"
       y="12461.221">Right</tspan></text>
<text
     xml:space="preserve"
     style="font-size:790.222229px;font-style:normal;font-variant:normal;font-weight:normal;font-stretch:normal;text-align:start;line-height:100%;writing-mode:lr-tb;text-anchor:start;fill:black;fill-opacity:1;stroke:none;stroke-width:1px;stroke-linecap:butt;stroke-linejoin:miter;stroke-opacity:1;font-family:URW Palladio L"
     x="3988.0679"
     y="-430.42801"
     id="text2359"
     sodipodi:linespacing="100%"
     inkscape:export-filename="/home/martin/src/dev/rockbox-devel/gigabeat.png"
     inkscape:export-xdpi="72"
     inkscape:export-ydpi="72"><tspan
       sodipodi:role="line"
       id="tspan2361"
       x="3988.0679"
       y="-430.42801">Hold</tspan></text>
<path
     style="fill:none;fill-opacity:0.75;fill-rule:evenodd;stroke:black;stroke-width:35.27777675;stroke-linecap:butt;stroke-linejoin:miter;stroke-opacity:1;stroke-miterlimit:4;stroke-dasharray:none"
     d="M -1008.3538,8888.4521 L 5079.1156,9971.4988"
     id="path2363"
     inkscape:export-filename="/home/martin/src/dev/rockbox-devel/gigabeat.png"
     inkscape:export-xdpi="72"
     inkscape:export-ydpi="72" /><path
     style="fill:none;fill-opacity:0.75;fill-rule:evenodd;stroke:black;stroke-width:35.27777675;stroke-linecap:butt;stroke-linejoin:miter;stroke-opacity:1;stroke-miterlimit:4;stroke-dasharray:none"
     d="M -672.23588,11838.821 L 3361.1794,11502.703"
     id="path2365"
     inkscape:export-filename="/home/martin/src/dev/rockbox-devel/gigabeat.png"
     inkscape:export-xdpi="72"
     inkscape:export-ydpi="72" /><path
     style="fill:none;fill-opacity:0.75;fill-rule:evenodd;stroke:black;stroke-width:35.27777675;stroke-linecap:butt;stroke-linejoin:miter;stroke-opacity:1;stroke-miterlimit:4;stroke-dasharray:none"
     d="M -37.346438,14751.843 L 5004.4227,13183.292"
     id="path2367"
     inkscape:export-filename="/home/martin/src/dev/rockbox-devel/gigabeat.png"
     inkscape:export-xdpi="72"
     inkscape:export-ydpi="72" /><path
     style="fill:none;fill-opacity:0.75;fill-rule:evenodd;stroke:black;stroke-width:35.27777675;stroke-linecap:butt;stroke-linejoin:miter;stroke-opacity:1;stroke-miterlimit:4;stroke-dasharray:none"
     d="M 6647.666,11502.703 L 10195.578,12249.632"
     id="path2373"
     inkscape:export-filename="/home/martin/src/dev/rockbox-devel/gigabeat.png"
     inkscape:export-xdpi="72"
     inkscape:export-ydpi="72" /><path
     style="fill:none;fill-opacity:0.75;fill-rule:evenodd;stroke:black;stroke-width:35.27777675;stroke-linecap:butt;stroke-linejoin:miter;stroke-opacity:1;stroke-miterlimit:4;stroke-dasharray:none"
     d="M 5004.4227,11465.356 L 10344.963,14004.914"
     id="path2375"
     inkscape:export-filename="/home/martin/src/dev/rockbox-devel/gigabeat.png"
     inkscape:export-xdpi="72"
     inkscape:export-ydpi="72" /></g></svg>