<?xml version="1.0" encoding="UTF-8" standalone="no"?>
<!-- Creator: CorelDRAW -->
<svg
   xmlns:dc="http://purl.org/dc/elements/1.1/"
   xmlns:cc="http://web.resource.org/cc/"
   xmlns:rdf="http://www.w3.org/1999/02/22-rdf-syntax-ns#"
   xmlns:svg="http://www.w3.org/2000/svg"
   xmlns="http://www.w3.org/2000/svg"
   xmlns:sodipodi="http://inkscape.sourceforge.net/DTD/sodipodi-0.dtd"
   xmlns:inkscape="http://www.inkscape.org/namespaces/inkscape"
   xml:space="preserve"
   width="102mm"
   height="170mm"
   shape-rendering="geometricPrecision"
   text-rendering="geometricPrecision"
   image-rendering="optimizeQuality"
   fill-rule="evenodd"
   viewBox="0 0 10200 17000"
   id="svg2284"
   sodipodi:version="0.32"
   inkscape:version="0.43"
   sodipodi:docname="h1xx-front.svg"
   sodipodi:docbase="/home/martin/src/dev/pics/pixelma/three"><metadata
   id="metadata2641"><rdf:RDF><cc:Work
       rdf:about=""><dc:format>image/svg+xml</dc:format><dc:type
         rdf:resource="http://purl.org/dc/dcmitype/StillImage" /></cc:Work></rdf:RDF></metadata><defs
   id="defs2639" /><sodipodi:namedview
   inkscape:window-height="572"
   inkscape:window-width="746"
   inkscape:pageshadow="2"
   inkscape:pageopacity="0.0"
   borderopacity="1.0"
   bordercolor="#666666"
   pagecolor="#ffffff"
   id="base"
   inkscape:zoom="0.6690327"
   inkscape:cx="180.70866"
   inkscape:cy="241.39328"
   inkscape:window-x="520"
   inkscape:window-y="164"
   inkscape:current-layer="layer1" />
 <g
   id="Ebene_x0020_1">
  <defs
   id="defs2287">
   <linearGradient
   id="id0"
   gradientUnits="userSpaceOnUse"
   x1="9899.3"
   y1="12582.2"
   x2="9899.3"
   y2="10886.9">
    <stop
   offset="0"
   stop-color="#878787"
   id="stop2290" />
    <stop
   offset="0.2"
   stop-color="#E8E8E8"
   id="stop2292" />
    <stop
   offset="0.8"
   stop-color="#E8E8E8"
   id="stop2294" />
    <stop
   offset="1"
   stop-color="#B3B3B3"
   id="stop2296" />
    <stop
   offset="1"
   stop-color="#B3B3B3"
   id="stop2298" />
   </linearGradient>
   <linearGradient
   id="id1"
   gradientUnits="userSpaceOnUse"
   x1="9899.3"
   y1="6903.54"
   x2="9899.3"
   y2="7575.24">
    <stop
   offset="0"
   stop-color="#878787"
   id="stop2301" />
    <stop
   offset="0.501961"
   stop-color="#E8E8E8"
   id="stop2303" />
    <stop
   offset="1"
   stop-color="#B3B3B3"
   id="stop2305" />
    <stop
   offset="1"
   stop-color="#B3B3B3"
   id="stop2307" />
   </linearGradient>
   <linearGradient
   id="id2"
   gradientUnits="userSpaceOnUse"
   x1="9899.32"
   y1="5191.58"
   x2="9899.32"
   y2="4519.82">
    <stop
   offset="0"
   stop-color="#878787"
   id="stop2310" />
    <stop
   offset="0.501961"
   stop-color="#E8E8E8"
   id="stop2312" />
    <stop
   offset="1"
   stop-color="#B3B3B3"
   id="stop2314" />
    <stop
   offset="1"
   stop-color="#B3B3B3"
   id="stop2316" />
   </linearGradient>
   <linearGradient
   id="id3"
   gradientUnits="userSpaceOnUse"
   x1="9899.32"
   y1="2807.87"
   x2="9899.32"
   y2="2136.11">
    <stop
   offset="0"
   stop-color="#878787"
   id="stop2319" />
    <stop
   offset="0.501961"
   stop-color="#E8E8E8"
   id="stop2321" />
    <stop
   offset="1"
   stop-color="#B3B3B3"
   id="stop2323" />
    <stop
   offset="1"
   stop-color="#B3B3B3"
   id="stop2325" />
   </linearGradient>
   <linearGradient
   id="id4"
   gradientUnits="userSpaceOnUse"
   x1="300.67"
   y1="6903.51"
   x2="300.67"
   y2="7575.27">
    <stop
   offset="0"
   stop-color="#878787"
   id="stop2328" />
    <stop
   offset="0.501961"
   stop-color="#E8E8E8"
   id="stop2330" />
    <stop
   offset="1"
   stop-color="#B3B3B3"
   id="stop2332" />
    <stop
   offset="1"
   stop-color="#B3B3B3"
   id="stop2334" />
   </linearGradient>
   <linearGradient
   id="id5"
   gradientUnits="userSpaceOnUse"
   x1="385.31"
   y1="16335.7"
   x2="9814.69"
   y2="16335.7">
    <stop
   offset="0"
   stop-color="#000000"
   id="stop2337" />
    <stop
   offset="0.0313725"
   stop-color="#A6A6A6"
   id="stop2339" />
    <stop
   offset="0.0588235"
   stop-color="#919191"
   id="stop2341" />
    <stop
   offset="0.941176"
   stop-color="#919191"
   id="stop2343" />
    <stop
   offset="0.968627"
   stop-color="#A6A6A6"
   id="stop2345" />
    <stop
   offset="1"
   stop-color="#000000"
   id="stop2347" />
    <stop
   offset="1"
   stop-color="#000000"
   id="stop2349" />
   </linearGradient>
   <linearGradient
   id="id6"
   gradientUnits="userSpaceOnUse"
   x1="394.31"
   y1="16262.2"
   x2="9805.69"
   y2="16262.2">
    <stop
   offset="0"
   stop-color="#000000"
   id="stop2352" />
    <stop
   offset="0.0313725"
   stop-color="#DEDEDE"
   id="stop2354" />
    <stop
   offset="0.0784314"
   stop-color="#D4D4D4"
   id="stop2356" />
    <stop
   offset="0.921569"
   stop-color="#D4D4D4"
   id="stop2358" />
    <stop
   offset="0.968627"
   stop-color="#DEDEDE"
   id="stop2360" />
    <stop
   offset="1"
   stop-color="#000000"
   id="stop2362" />
    <stop
   offset="1"
   stop-color="#000000"
   id="stop2364" />
   </linearGradient>
   <linearGradient
   id="id7"
   gradientUnits="userSpaceOnUse"
   x1="400"
   y1="16853.1"
   x2="9800"
   y2="16853.1">
    <stop
   offset="0"
   stop-color="#000000"
   id="stop2367" />
    <stop
   offset="0.0313725"
   stop-color="#FFFFFF"
   id="stop2369" />
    <stop
   offset="0.0784314"
   stop-color="#F0F0F0"
   id="stop2371" />
    <stop
   offset="0.921569"
   stop-color="#F0F0F0"
   id="stop2373" />
    <stop
   offset="0.968627"
   stop-color="#FFFFFF"
   id="stop2375" />
    <stop
   offset="1"
   stop-color="#000000"
   id="stop2377" />
    <stop
   offset="1"
   stop-color="#000000"
   id="stop2379" />
   </linearGradient>
   <linearGradient
   id="id8"
   gradientUnits="userSpaceOnUse"
   x1="385.32"
   y1="548.51"
   x2="9814.7"
   y2="548.51">
    <stop
   offset="0"
   stop-color="#000000"
   id="stop2382" />
    <stop
   offset="0.0313725"
   stop-color="#A6A6A6"
   id="stop2384" />
    <stop
   offset="0.0588235"
   stop-color="#919191"
   id="stop2386" />
    <stop
   offset="0.941176"
   stop-color="#919191"
   id="stop2388" />
    <stop
   offset="0.968627"
   stop-color="#A6A6A6"
   id="stop2390" />
    <stop
   offset="1"
   stop-color="#000000"
   id="stop2392" />
    <stop
   offset="1"
   stop-color="#000000"
   id="stop2394" />
   </linearGradient>
   <linearGradient
   id="id9"
   gradientUnits="userSpaceOnUse"
   x1="394.32"
   y1="585.66"
   x2="9805.7"
   y2="585.66">
    <stop
   offset="0"
   stop-color="#000000"
   id="stop2397" />
    <stop
   offset="0.0313725"
   stop-color="#DEDEDE"
   id="stop2399" />
    <stop
   offset="0.0784314"
   stop-color="#D4D4D4"
   id="stop2401" />
    <stop
   offset="0.921569"
   stop-color="#D4D4D4"
   id="stop2403" />
    <stop
   offset="0.968627"
   stop-color="#DEDEDE"
   id="stop2405" />
    <stop
   offset="1"
   stop-color="#000000"
   id="stop2407" />
    <stop
   offset="1"
   stop-color="#000000"
   id="stop2409" />
   </linearGradient>
   <linearGradient
   id="id10"
   gradientUnits="userSpaceOnUse"
   x1="400.01"
   y1="146.89"
   x2="9800.01"
   y2="146.89">
    <stop
   offset="0"
   stop-color="#000000"
   id="stop2412" />
    <stop
   offset="0.0313725"
   stop-color="#FFFFFF"
   id="stop2414" />
    <stop
   offset="0.0784314"
   stop-color="#F0F0F0"
   id="stop2416" />
    <stop
   offset="0.921569"
   stop-color="#F0F0F0"
   id="stop2418" />
    <stop
   offset="0.968627"
   stop-color="#FFFFFF"
   id="stop2420" />
    <stop
   offset="1"
   stop-color="#000000"
   id="stop2422" />
    <stop
   offset="1"
   stop-color="#000000"
   id="stop2424" />
   </linearGradient>
   <linearGradient
   id="id11"
   gradientUnits="userSpaceOnUse"
   x1="385.32"
   y1="8521.72"
   x2="9814.68"
   y2="8521.72">
    <stop
   offset="0"
   stop-color="#000000"
   id="stop2427" />
    <stop
   offset="0.0196078"
   stop-color="#636363"
   id="stop2429" />
    <stop
   offset="0.0588235"
   stop-color="#000000"
   id="stop2431" />
    <stop
   offset="0.941176"
   stop-color="#000000"
   id="stop2433" />
    <stop
   offset="0.980392"
   stop-color="#636363"
   id="stop2435" />
    <stop
   offset="1"
   stop-color="#000000"
   id="stop2437" />
    <stop
   offset="1"
   stop-color="#000000"
   id="stop2439" />
   </linearGradient>
   <linearGradient
   id="id12"
   gradientUnits="userSpaceOnUse"
   x1="5100"
   y1="950.14"
   x2="5100"
   y2="12649.1">
    <stop
   offset="0"
   stop-color="#2B2B2B"
   id="stop2442" />
    <stop
   offset="0.521569"
   stop-color="#2B2B2B"
   id="stop2444" />
    <stop
   offset="1"
   stop-color="#000000"
   id="stop2446" />
    <stop
   offset="1"
   stop-color="#000000"
   id="stop2448" />
   </linearGradient>
   <radialGradient
   id="id13"
   gradientUnits="userSpaceOnUse"
   cx="5100"
   cy="9670.32"
   r="2146.62"
   fx="5100"
   fy="9670.32">
    <stop
   offset="0"
   stop-color="#000000"
   id="stop2451" />
    <stop
   offset="0.439216"
   stop-color="#777777"
   id="stop2453" />
    <stop
   offset="1"
   stop-color="#EDEDED"
   id="stop2455" />
    <stop
   offset="1"
   stop-color="#EDEDED"
   id="stop2457" />
   </radialGradient>
   <radialGradient
   id="id14"
   gradientUnits="userSpaceOnUse"
   cx="5100"
   cy="9670.36"
   r="1655.19"
   fx="5100"
   fy="9670.36">
    <stop
   offset="0"
   stop-color="#000000"
   id="stop2460" />
    <stop
   offset="0.439216"
   stop-color="#777777"
   id="stop2462" />
    <stop
   offset="1"
   stop-color="#EDEDED"
   id="stop2464" />
    <stop
   offset="1"
   stop-color="#EDEDED"
   id="stop2466" />
   </radialGradient>
   <radialGradient
   id="id15"
   gradientUnits="userSpaceOnUse"
   cx="5100"
   cy="9670.35"
   r="944.45"
   fx="5100"
   fy="9670.35">
    <stop
   offset="0"
   stop-color="#C9C9C9"
   id="stop2469" />
    <stop
   offset="0.478431"
   stop-color="#E2E2E2"
   id="stop2471" />
    <stop
   offset="0.678431"
   stop-color="#C3C3C3"
   id="stop2473" />
    <stop
   offset="1"
   stop-color="#929292"
   id="stop2475" />
    <stop
   offset="1"
   stop-color="#929292"
   id="stop2477" />
   </radialGradient>
   <radialGradient
   id="id16"
   gradientUnits="userSpaceOnUse"
   cx="5100"
   cy="9670.35"
   r="343.84"
   fx="5100"
   fy="9670.35">
    <stop
   offset="0"
   stop-color="#929292"
   id="stop2480" />
    <stop
   offset="1"
   stop-color="#D1D1D1"
   id="stop2482" />
    <stop
   offset="1"
   stop-color="#D1D1D1"
   id="stop2484" />
   </radialGradient>
   <linearGradient
   id="id17"
   gradientUnits="userSpaceOnUse"
   x1="4640.27"
   y1="9414.79"
   x2="4846.13"
   y2="9212.31">
    <stop
   offset="0"
   stop-color="#CCCCCC"
   id="stop2487" />
    <stop
   offset="0.501961"
   stop-color="#545454"
   id="stop2489" />
    <stop
   offset="1"
   stop-color="#CCCCCC"
   id="stop2491" />
    <stop
   offset="1"
   stop-color="#CCCCCC"
   id="stop2493" />
   </linearGradient>
   <linearGradient
   id="id18"
   gradientUnits="userSpaceOnUse"
   x1="4845.26"
   y1="10129.3"
   x2="4641.06"
   y2="9925.09">
    <stop
   offset="0"
   stop-color="#CCCCCC"
   id="stop2496" />
    <stop
   offset="0.501961"
   stop-color="#545454"
   id="stop2498" />
    <stop
   offset="1"
   stop-color="#CCCCCC"
   id="stop2500" />
    <stop
   offset="1"
   stop-color="#CCCCCC"
   id="stop2502" />
   </linearGradient>
   <linearGradient
   id="id19"
   gradientUnits="userSpaceOnUse"
   x1="5354.71"
   y1="10129.3"
   x2="5558.89"
   y2="9925.07">
    <stop
   offset="0"
   stop-color="#CCCCCC"
   id="stop2505" />
    <stop
   offset="0.501961"
   stop-color="#545454"
   id="stop2507" />
    <stop
   offset="1"
   stop-color="#CCCCCC"
   id="stop2509" />
    <stop
   offset="1"
   stop-color="#CCCCCC"
   id="stop2511" />
   </linearGradient>
   <linearGradient
   id="id20"
   gradientUnits="userSpaceOnUse"
   x1="5559.7"
   y1="9414.83"
   x2="5353.84"
   y2="9212.35">
    <stop
   offset="0"
   stop-color="#CCCCCC"
   id="stop2514" />
    <stop
   offset="0.501961"
   stop-color="#545454"
   id="stop2516" />
    <stop
   offset="1"
   stop-color="#CCCCCC"
   id="stop2518" />
    <stop
   offset="1"
   stop-color="#CCCCCC"
   id="stop2520" />
   </linearGradient>
   <linearGradient
   id="id21"
   gradientUnits="userSpaceOnUse"
   x1="3136.83"
   y1="6926.13"
   x2="7119.09"
   y2="7273.85">
    <stop
   offset="0"
   stop-color="#6D84AB"
   id="stop2523" />
    <stop
   offset="0.239216"
   stop-color="#74EEF7"
   id="stop2525" />
    <stop
   offset="0.411765"
   stop-color="#DEDEDE"
   id="stop2527" />
    <stop
   offset="0.541176"
   stop-color="#DEDEDE"
   id="stop2529" />
    <stop
   offset="0.65098"
   stop-color="#F7A7E8"
   id="stop2531" />
    <stop
   offset="0.8"
   stop-color="#FF7154"
   id="stop2533" />
    <stop
   offset="1"
   stop-color="#F3F592"
   id="stop2535" />
    <stop
   offset="1"
   stop-color="#F3F592"
   id="stop2537" />
   </linearGradient>
   <linearGradient
   id="id22"
   gradientUnits="userSpaceOnUse"
   x1="4366.97"
   y1="1529.37"
   x2="5948.63"
   y2="1668.43">
    <stop
   offset="0"
   stop-color="#6D84AB"
   id="stop2540" />
    <stop
   offset="0.239216"
   stop-color="#74EEF7"
   id="stop2542" />
    <stop
   offset="0.411765"
   stop-color="#DEDEDE"
   id="stop2544" />
    <stop
   offset="0.541176"
   stop-color="#DEDEDE"
   id="stop2546" />
    <stop
   offset="0.65098"
   stop-color="#F7A7E8"
   id="stop2548" />
    <stop
   offset="0.8"
   stop-color="#FF7154"
   id="stop2550" />
    <stop
   offset="1"
   stop-color="#F3F592"
   id="stop2552" />
    <stop
   offset="1"
   stop-color="#F3F592"
   id="stop2554" />
   </linearGradient>
  </defs>
  <path
   fill="url(#id0)"
   stroke="#000000"
   stroke-width="18"
   stroke-linejoin="bevel"
   d="M9814.67 10886.9l61.85 44.25c13.12,9.38 20.9,24.53 20.9,40.66l0 586.08 65.61 46.93c13.12,9.39 20.91,24.53 20.91,40.67l0 178.09c0,16.14 -7.79,31.28 -20.91,40.67l-65.61 46.93 0 586.09c0,16.14 -7.78,31.28 -20.9,40.67l-61.85 44.24 0 -611.8 0 -471.69 0 -611.79 0 0z"
   id="path2556" />
  <path
   fill="url(#id1)"
   stroke="#000000"
   stroke-width="18"
   stroke-linejoin="bevel"
   d="M9814.67 6903.54l148.36 106.13c13.12,9.39 20.91,24.53 20.91,40.67l0 378.09c0,16.14 -7.79,31.28 -20.91,40.67l-148.36 106.13 0 -671.69 0 0z"
   id="path2558" />
  <path
   fill="url(#id2)"
   stroke="#000000"
   stroke-width="18"
   stroke-linejoin="bevel"
   d="M9814.67 5191.58l148.4 -106.16c13.12,-9.39 20.91,-24.53 20.91,-40.67l0 -378.11c0,-16.13 -7.79,-31.27 -20.91,-40.66l-148.4 -106.16 0 671.76 0 0z"
   id="path2560" />
  <path
   fill="url(#id3)"
   stroke="#000000"
   stroke-width="18"
   stroke-linejoin="bevel"
   d="M9814.67 2807.87l148.4 -106.16c13.12,-9.39 20.91,-24.53 20.91,-40.66l0 -378.11c0,-16.14 -7.79,-31.28 -20.91,-40.67l-148.4 -106.16 0 671.76z"
   id="path2562" />
  <path
   fill="url(#id4)"
   stroke="#000000"
   stroke-width="18"
   stroke-linejoin="bevel"
   d="M385.32 6903.51l-148.39 106.16c-13.12,9.39 -20.91,24.53 -20.91,40.67l0 378.09c0,16.14 7.79,31.28 20.91,40.67l148.39 106.16 0 -671.75z"
   id="path2564" />
  <path
   fill="url(#id5)"
   stroke="#000000"
   stroke-width="18"
   stroke-linejoin="bevel"
   d="M385.31 16729.3c0,149.51 65.76,270.71 146.88,270.71l8832.63 0c0.42,0 0.83,-0.02 1.26,-0.04l301.73 0c81.12,0 146.88,-121.2 146.88,-270.71l-0.02 -782.86c0,81.12 -65.76,146.88 -146.88,146.88l-918.12 0c-55.63,0 -106.48,-31.42 -131.36,-81.17l-129.88 -259.63c-24.89,-49.74 -75.74,-81.16 -131.36,-81.16l-6355.09 0c-55.63,0 -106.48,31.42 -131.36,81.16l-129.88 259.63c-24.89,49.75 -75.74,81.17 -131.36,81.17l-1077.18 0c-81.12,0 -146.88,-65.76 -146.88,-146.88l-0.01 782.9 0 0z"
   id="path2566" />
  <path
   fill="url(#id6)"
   d="M394.31 16853.1l9411.38 -0.04 0 -856.04c-20.63,56.18 -74.57,96.23 -137.9,96.23l-918.12 0c-55.63,0 -106.48,-31.42 -131.36,-81.17l-129.88 -259.63c-24.89,-49.74 -75.74,-81.16 -131.36,-81.16l-6355.09 0c-55.63,0 -106.48,31.42 -131.36,81.16l-129.88 259.63c-24.89,49.75 -75.74,81.17 -131.36,81.17l-1077.18 0c-63.3,0 -117.24,-40.03 -137.89,-96.17l0 856.02 0 0z"
   id="path2568" />
  <path
   fill="url(#id7)"
   d="M450 16803.1c-27.61,0 -50,22.39 -50,50 0,27.61 22.39,50 50,50l9300 0c27.61,0 50,-22.39 50,-50 0,-27.61 -22.39,-50 -50,-50l-9300 0z"
   id="path2570" />
  <path
   fill="url(#id8)"
   stroke="#000000"
   stroke-width="18"
   stroke-linejoin="bevel"
   d="M385.32 1097.02l0 -950.14c0,-81.12 65.76,-146.88 146.88,-146.88l8832.63 0c0.42,0 0.83,0.01 1.26,0.02l301.73 0c81.12,0 146.88,65.76 146.88,146.88l0 950.12 -0.03 0c0,-81.12 -65.76,-146.88 -146.88,-146.88l-8979.48 0 -156.11 0c-81.12,0 -146.88,65.76 -146.88,146.88l0 0z"
   id="path2572" />
  <path
   fill="url(#id9)"
   d="M394.32 146.88l9411.38 0.02 0 877.54 -10.23 0c-25.27,-44.37 -72.97,-74.3 -127.68,-74.3l-8979.48 0 -156.11 0c-54.67,0 -102.37,29.88 -127.66,74.19l-10.22 0 0 -877.45 0 0z"
   id="path2574" />
  <path
   fill="url(#id10)"
   d="M450.01 196.89c-27.61,0 -50,-22.39 -50,-50 0,-27.61 22.39,-50 50,-50l9300 0c27.61,0 50,22.39 50,50 0,27.61 -22.39,50 -50,50l-9300 0 0 0z"
   id="path2576" />
  <path
   fill="url(#id11)"
   stroke="#000000"
   stroke-width="18"
   stroke-linejoin="bevel"
   d="M385.32 1097.02l0 14849.4c0,81.12 65.76,146.88 146.88,146.88l1077.18 0c55.62,0 106.47,-31.42 131.36,-81.17l129.88 -259.63c24.88,-49.74 75.73,-81.16 131.36,-81.16l6355.09 0c55.62,0 106.47,31.42 131.36,81.16l129.88 259.63c24.88,49.75 75.73,81.17 131.36,81.17l918.12 0c81.12,0 146.88,-65.76 146.88,-146.88l0 -14849.4c0,-81.12 -65.76,-146.88 -146.88,-146.88l-9135.59 0c-81.12,0 -146.88,65.76 -146.88,146.88l0 0z"
   id="path2578" />
  <path
   fill="url(#id12)"
   stroke="#FFFFFF"
   stroke-width="15"
   stroke-linejoin="bevel"
   d="M1238.47 950.14l7723.05 0c81.12,0 146.88,65.76 146.88,146.88l0 10820.4c0,204.25 -151.02,377.02 -353.43,404.34 -2425.66,327.34 -4884.29,327.34 -7309.94,0 -202.41,-27.32 -353.44,-200.09 -353.44,-404.34l0 -10820.4c0,-81.12 65.76,-146.88 146.88,-146.88l0 0z"
   id="path2580" />
  <g
   id="g2582">
   <path
   fill="none"
   stroke="#C7C7C7"
   stroke-width="35"
   stroke-linejoin="bevel"
   d="M4619.31 13979l-55.29 0c-9.89,0 -19.24,-4.48 -25.44,-12.19 -6.19,-7.71 -8.56,-17.81 -6.43,-27.47l27.31 -123.98c3.3,-14.96 16.55,-25.62 31.88,-25.62l88.63 0c123.03,0 231.96,79.49 269.51,196.65l104.59 326.4c9.54,26.6 25.69,50.32 46.94,68.95 7.7,6.76 17.4,10.83 27.62,11.6l17.89 0c7.99,-0.46 15.47,-4.03 20.85,-9.95 5.93,-5.96 11.42,-12.35 16.41,-19.12l312.51 -435.26c52.84,-80.59 140.13,-132.05 236.23,-139.27l121.31 0c9.89,0 19.26,4.49 25.45,12.2 6.19,7.7 8.56,17.81 6.43,27.47l-8.52 38.67c-1.3,6.34 1.69,12.79 7.36,15.91 5.67,3.12 12.72,2.18 17.38,-2.31 52.7,-53.64 123.09,-86.31 198.07,-91.94l530.55 0c72.42,0.91 144.09,14.79 211.61,40.99 41.34,17.14 72.31,52.6 83.73,95.87 12.48,86.53 -12.13,174.33 -67.77,241.75 -55.64,67.44 -137.16,108.27 -224.49,112.45l-465.32 0c-9.89,0 -19.25,-4.49 -25.44,-12.19 -6.19,-7.71 -8.57,-17.81 -6.44,-27.47l27.31 -123.98c3.3,-14.96 16.56,-25.62 31.88,-25.62l446.27 0c12.53,-0.68 24.56,-5.13 34.52,-12.77 12.1,-16.1 17.49,-36.25 15.05,-56.24 -1.15,-16.66 -12.51,-30.86 -28.51,-35.64 -14.87,-4.42 -30.22,-7.06 -45.72,-7.89l-451.57 0c-57.08,3.08 -106.74,40.12 -125.95,93.96 -21.86,68.44 -37.11,138.82 -45.54,210.18 -0.47,18.63 2.11,37.21 7.64,55.01 6.06,23.35 24.15,41.67 47.42,48.03 12.93,3.78 26.22,6.18 39.66,7.16l917.71 0c56.97,0 110.46,-27.44 143.68,-73.72l63.77 -88.81c52.84,-80.59 140.13,-132.05 236.23,-139.27l698.14 0c12.53,-0.68 24.57,-5.13 34.53,-12.77 12.09,-16.1 17.49,-36.25 15.04,-56.24 -1.14,-16.66 -12.5,-30.86 -28.5,-35.64 -14.88,-4.42 -30.23,-7.06 -45.72,-7.89l-1012.25 0c-9.89,0 -19.25,-4.49 -25.44,-12.19 -6.19,-7.71 -8.56,-17.81 -6.43,-27.47l27.31 -123.98c3.29,-14.96 16.55,-25.62 31.87,-25.62l998.26 0c72.42,0.91 144.09,14.79 211.6,40.99 41.34,17.14 72.31,52.6 83.74,95.87 12.48,86.53 -12.14,174.32 -67.78,241.75 -55.64,67.43 -137.16,108.27 -224.49,112.45l-543.06 0c-13.79,0.37 -26.82,6.39 -36.03,16.65 -4.62,5.14 -7.79,11.43 -9.18,18.2 -1.38,6.77 -1.06,13.78 0.95,20.39 0.21,0.7 0.42,1.41 0.64,2.11 6.05,23.35 24.14,41.67 47.41,48.03 12.93,3.78 26.23,6.18 39.66,7.16l667.93 0c9.89,0 19.25,4.49 25.44,12.2 6.19,7.69 8.56,17.81 6.43,27.46l-27.31 123.98c-3.3,14.97 -16.56,25.62 -31.88,25.62l-728.43 0c-95.76,-8.79 -182.04,-61.5 -233.58,-142.7 -5.49,-8.65 -14.72,-14.22 -24.93,-15.04 -10.21,-0.83 -20.22,3.19 -27.02,10.85 -6.56,6.48 -12.39,13.66 -17.39,21.41 -52.56,71.67 -133.32,117.35 -221.82,125.48l-1036.53 0c-48.92,-4.49 -96.09,-20.54 -137.6,-46.83 -54.15,-45.92 -83.85,-111.66 -80.04,-182.56 5.22,-112.65 24.65,-224.19 57.83,-331.96 3.05,-9.9 1.21,-20.67 -4.94,-29 -6.15,-8.33 -15.9,-13.25 -26.26,-13.25l-16.32 0c-56.97,0 -110.45,27.44 -143.68,73.72l-290.35 404.4c-53.62,73.12 -144.87,118.69 -235.29,125.48l-86.51 0c-27.33,-3.67 -52.46,-16.93 -70.91,-37.41 -27.01,-30.46 -47.75,-65.95 -61.05,-104.42l-108.59 -338.86c-23.46,-73.23 -91.54,-122.91 -168.44,-122.91l0 0z"
   id="path2584" />
   <path
   fill="none"
   stroke="#C7C7C7"
   stroke-width="35"
   stroke-linejoin="bevel"
   d="M4356.5 13750.1c-2.13,9.66 0.24,19.77 6.43,27.47 6.19,7.71 15.55,12.19 25.44,12.19l150.5 0c15.32,0 28.58,-10.65 31.88,-25.61l27.31 -123.98c2.13,-9.66 -0.24,-19.77 -6.43,-27.47 -6.19,-7.71 -15.56,-12.2 -25.45,-12.2l-150.49 0c-15.33,0 -28.58,10.66 -31.88,25.62l-27.31 123.98z"
   id="path2586" />
   <path
   fill="none"
   stroke="#C7C7C7"
   stroke-width="35"
   stroke-linejoin="bevel"
   d="M2062.79 13789.7l150.5 0c15.32,0 28.58,-10.65 31.87,-25.61l27.32 -123.98c2.12,-9.66 -0.25,-19.76 -6.44,-27.47 -6.19,-7.7 -15.55,-12.2 -25.44,-12.2l-150.5 0c-15.32,0 -28.58,10.66 -31.87,25.62l-27.31 123.98c-2.13,9.66 0.23,19.76 6.43,27.47 6.19,7.71 15.55,12.19 25.44,12.19z"
   id="path2588" />
   <path
   fill="none"
   stroke="#C7C7C7"
   stroke-width="35"
   stroke-linejoin="bevel"
   d="M2206.56 13939.3c-2.12,9.66 0.25,19.76 6.44,27.47 6.19,7.7 15.55,12.19 25.44,12.19l150.5 0c15.32,0 28.58,-10.65 31.87,-25.61l27.32 -123.98c2.12,-9.66 -0.24,-19.76 -6.44,-27.47 -6.19,-7.71 -15.55,-12.2 -25.44,-12.2l-150.5 0c-15.32,0 -28.58,10.66 -31.87,25.62l-27.32 123.98z"
   id="path2590" />
   <path
   fill="none"
   stroke="#C7C7C7"
   stroke-width="35"
   stroke-linejoin="bevel"
   d="M2801.62 13789.7l1054.59 0c72.42,0.91 144.09,14.79 211.61,40.99 41.34,17.14 72.31,52.6 83.73,95.87 12.27,85.08 -11.32,171.45 -65.12,238.49 -53.8,67.03 -133.01,108.76 -218.74,115.2l-551.47 0.51c-13.78,0.37 -26.81,6.39 -36.03,16.65 -4.62,5.14 -7.79,11.43 -9.17,18.2 -1.39,6.77 -1.06,13.78 0.94,20.39 0.21,0.7 0.43,1.41 0.64,2.11 6.06,23.35 24.15,41.67 47.42,48.03 12.93,3.78 26.22,6.18 39.66,7.16l763.47 0c19.84,-0.66 39.38,-5.11 57.55,-13.1 23.1,-10.16 40.82,-29.61 48.77,-53.56l70.95 -322.06c3.3,-14.96 16.56,-25.62 31.88,-25.62l150.5 0c9.89,0 19.24,4.49 25.44,12.2 6.19,7.7 8.56,17.81 6.43,27.47l-118.59 538.31c-3.29,14.97 -16.55,25.62 -31.87,25.62l-1092.35 0c-95.77,-8.79 -182.05,-61.5 -233.58,-142.7 -5.49,-8.65 -14.73,-14.22 -24.94,-15.04 -10.21,-0.83 -20.21,3.19 -27.02,10.85 -5.97,6.99 -11.77,14.13 -17.38,21.41 -52.56,71.67 -133.33,117.35 -221.83,125.48l-382.1 0c-9.89,0 -19.26,-4.48 -25.45,-12.19 -6.19,-7.7 -8.56,-17.81 -6.43,-27.47l27.31 -123.98c3.3,-14.96 16.56,-25.62 31.88,-25.62l332.74 0c56.97,0 110.45,-27.44 143.68,-73.72l63.77 -88.81c52.84,-80.59 140.13,-132.05 236.23,-139.27l698.81 0c12.53,-0.68 24.56,-5.13 34.52,-12.77 12.1,-16.1 17.49,-36.25 15.05,-56.24 -1.15,-16.66 -12.51,-30.86 -28.51,-35.64 -14.87,-4.42 -30.22,-7.06 -45.72,-7.89l-1068.58 0c-9.89,0 -19.24,-4.48 -25.44,-12.19 -6.2,-7.71 -8.56,-17.81 -6.43,-27.47l27.31 -123.98c3.29,-14.96 16.55,-25.62 31.87,-25.62l0 0z"
   id="path2592" />
   <path
   fill="none"
   stroke="#C7C7C7"
   stroke-width="35"
   stroke-linejoin="bevel"
   d="M2189.09 14018.7l-118.69 538.74c-3.29,14.97 -16.55,25.62 -31.87,25.62l-150.5 0c-9.89,0 -19.25,-4.49 -25.44,-12.19 -6.19,-7.71 -8.56,-17.81 -6.43,-27.47l118.68 -538.75c3.3,-14.96 16.56,-25.62 31.88,-25.62l150.49 0c9.89,0 19.25,4.49 25.45,12.2 6.19,7.7 8.56,17.81 6.43,27.47l0 0z"
   id="path2594" />
  </g>
  <path
   fill="url(#id13)"
   stroke="#000000"
   stroke-width="18"
   stroke-linejoin="bevel"
   d="M5100 11690.2l280.41 -280.41 -560.83 0 280.42 280.41zm2283.64 -2300.29l-134.48 0 0 206.77 -206.76 -206.77 0 202.94 -202.94 -202.94 0 560.83 202.94 -202.94 0 202.94 206.76 -206.77 0 206.77 134.48 0 0 -560.83m-4567.28 560.83l134.47 0 0 -206.77 206.77 206.77 0 -202.94 202.93 202.94 0 -560.83 -202.93 202.94 0 -202.94 -206.77 206.77 0 -206.77 -134.47 0 0 560.83m2283.64 -2300.28l-280.42 280.41 560.83 0 -280.41 -280.41z"
   id="path2596" />
  <path
   fill="url(#id14)"
   stroke="#000000"
   stroke-width="18"
   stroke-linejoin="bevel"
   d="M3396.37 9034.07l285.88 106.77c70.85,26.46 110.02,102.39 90.53,175.46 -61.89,231.98 -61.89,476.13 0,708.11 19.49,73.07 -19.68,149 -90.53,175.46l-285.88 106.77c-38.42,14.35 -69.09,44.12 -84.59,82.08 -15.5,37.96 -14.43,80.68 2.97,117.82 195.61,417.63 531.44,753.46 949.06,949.07 37.14,17.39 79.86,18.46 117.83,2.96 37.95,-15.5 67.72,-46.17 82.07,-84.59l106.77 -285.88c26.46,-70.85 102.39,-110.02 175.46,-90.53 231.98,61.89 476.13,61.89 708.11,0 73.07,-19.49 149,19.68 175.46,90.53l106.77 285.88c14.35,38.42 44.12,69.09 82.08,84.59 37.96,15.5 80.68,14.43 117.82,-2.96 417.63,-195.61 753.46,-531.44 949.07,-949.07 17.39,-37.14 18.47,-79.87 2.97,-117.82 -15.5,-37.97 -46.18,-67.73 -84.59,-82.08l-285.89 -106.77c-70.84,-26.46 -110.02,-102.39 -90.53,-175.46 61.89,-231.98 61.89,-476.13 0,-708.11 -19.49,-73.07 19.69,-149 90.53,-175.46l285.89 -106.77c38.41,-14.35 69.09,-44.11 84.59,-82.07 15.5,-37.96 14.42,-80.69 -2.97,-117.83 -195.61,-417.62 -531.44,-753.45 -949.07,-949.06 -37.14,-17.39 -79.86,-18.46 -117.82,-2.96 -37.96,15.5 -67.73,46.17 -82.08,84.59l-106.77 285.88c-26.46,70.85 -102.39,110.01 -175.46,90.52 -231.98,-61.88 -476.13,-61.88 -708.11,0 -73.07,19.49 -149,-19.67 -175.46,-90.52l-106.77 -285.88c-14.35,-38.42 -44.12,-69.09 -82.07,-84.59 -37.97,-15.5 -80.69,-14.43 -117.83,2.96 -417.62,195.61 -753.45,531.44 -949.06,949.06 -17.4,37.14 -18.48,79.86 -2.97,117.83 15.5,37.96 46.17,67.72 84.59,82.07z"
   id="path2598" />
  <path
   fill="#000000"
   stroke="#000000"
   stroke-width="18"
   stroke-linejoin="bevel"
   d="M6144.58 9670.36c0,-576.91 -467.67,-1044.59 -1044.58,-1044.59 -576.91,0 -1044.59,467.68 -1044.59,1044.59 0,576.9 467.68,1044.58 1044.59,1044.58 576.91,0 1044.58,-467.68 1044.58,-1044.58z"
   id="path2600" />
  <path
   fill="url(#id15)"
   d="M6044.44 9670.36c0,-521.61 -422.84,-944.45 -944.44,-944.45 -521.61,0 -944.45,422.84 -944.45,944.45 0,521.6 422.84,944.44 944.45,944.44 521.6,0 944.44,-422.84 944.44,-944.44l0 0z"
   id="path2602" />
  <path
   fill="url(#id16)"
   stroke="#FFFFFF"
   stroke-width="15"
   stroke-linejoin="bevel"
   d="M4720.5 9336.2l0 0c-1.75,-1.76 -3.38,-3.66 -4.85,-5.67l-71.91 -98.16c-2.65,-5.24 -1.63,-11.59 2.52,-15.75 4.16,-4.15 10.51,-5.17 15.75,-2.52l98.17 71.91c2.01,1.47 3.91,3.1 5.66,4.85l0 0c191.02,-168.2 477.29,-168.2 668.31,0l0 0.02c1.77,-1.76 3.65,-3.39 5.67,-4.87l98.16 -71.91c5.25,-2.65 11.6,-1.63 15.75,2.52 4.15,4.16 5.17,10.51 2.52,15.75l-71.9 98.16c-1.48,2.02 -3.09,3.92 -4.85,5.68 168.19,191.02 168.19,477.27 0,668.29 1.76,1.76 3.37,3.66 4.85,5.68l71.9 98.16c2.65,5.24 1.63,11.6 -2.52,15.75 -4.15,4.15 -10.5,5.17 -15.75,2.52l-98.16 -71.91c-2.01,-1.47 -3.89,-3.1 -5.65,-4.85l-0.02 0c-191.02,168.2 -477.29,168.2 -668.31,0 -1.75,1.75 -3.65,3.38 -5.66,4.85l-98.17 71.91c-5.24,2.65 -11.59,1.63 -15.75,-2.52 -4.15,-4.15 -5.17,-10.51 -2.52,-15.75l71.91 -98.16c1.47,-2.01 3.1,-3.91 4.85,-5.67 -168.2,-191.02 -168.2,-477.29 0,-668.31zm759 668.3l-0.01 0.01c0,0 0,-0.01 0.01,-0.01zm0 -668.29c-0.01,0 -0.01,-0.01 -0.01,-0.01l0.01 0.01z"
   id="path2604" />
  <path
   fill="url(#id17)"
   d="M4824.38 9413l-98.16 -71.9c-4.05,-2.96 -7.61,-6.52 -10.57,-10.57l-71.91 -98.16c-2.65,-5.24 -1.63,-11.59 2.52,-15.75 4.16,-4.15 10.51,-5.17 15.75,-2.52l98.17 71.91c4.04,2.96 7.6,6.52 10.56,10.56l71.91 98.17c2.65,5.24 1.63,11.59 -2.52,15.75 -4.16,4.15 -10.51,5.16 -15.75,2.51z"
   id="path2606" />
  <path
   fill="url(#id18)"
   d="M4842.61 9946.01l-71.9 98.16c-2.96,4.05 -6.52,7.61 -10.57,10.57l-98.16 71.91c-5.24,2.65 -11.59,1.63 -15.75,-2.52 -4.15,-4.16 -5.17,-10.51 -2.52,-15.75l71.91 -98.17c2.96,-4.04 6.52,-7.6 10.56,-10.56l98.17 -71.91c5.24,-2.65 11.59,-1.63 15.75,2.52 4.15,4.16 5.16,10.51 2.51,15.75z"
   id="path2608" />
  <path
   fill="url(#id19)"
   d="M5375.61 9927.71l98.17 71.9c4.04,2.96 7.6,6.52 10.57,10.57l71.9 98.16c2.65,5.24 1.63,11.6 -2.52,15.75 -4.15,4.15 -10.5,5.17 -15.75,2.52l-98.16 -71.91c-4.04,-2.96 -7.61,-6.52 -10.57,-10.56l-71.9 -98.17c-2.65,-5.24 -1.64,-11.59 2.52,-15.75 4.15,-4.15 10.5,-5.16 15.74,-2.51z"
   id="path2610" />
  <path
   fill="url(#id20)"
   d="M5357.32 9394.78l71.9 -98.17c2.96,-4.04 6.52,-7.6 10.57,-10.57l98.16 -71.9c5.24,-2.65 11.6,-1.63 15.75,2.52 4.15,4.15 5.17,10.5 2.52,15.75l-71.91 98.16c-2.96,4.04 -6.52,7.61 -10.56,10.57l-98.17 71.9c-5.24,2.65 -11.59,1.64 -15.75,-2.52 -4.15,-4.15 -5.16,-10.5 -2.51,-15.74z"
   id="path2612" />
  <path
   fill="#EB7373"
   stroke="#C2C2C2"
   stroke-width="18"
   stroke-linejoin="bevel"
   d="M7320.38 8970.94c18.95,31.85 60.13,42.31 91.99,23.37 31.85,-18.95 42.31,-60.13 23.37,-91.99 -120.82,-203.13 -267.62,-389.63 -436.69,-554.78 -26.51,-25.9 -69,-25.41 -94.9,1.11 -25.89,26.51 -25.4,69 1.11,94.9 160.72,156.99 300.27,334.29 415.12,527.39z"
   id="path2614" />
  <path
   fill="#D7F791"
   stroke="#C2C2C2"
   stroke-width="18"
   stroke-linejoin="bevel"
   d="M2879.61 8970.94c-18.95,31.85 -60.13,42.31 -91.98,23.37 -31.86,-18.95 -42.32,-60.13 -23.37,-91.99 120.81,-203.13 267.61,-389.63 436.68,-554.78 26.51,-25.9 69,-25.41 94.9,1.11 25.9,26.51 25.4,69 -1.11,94.9 -160.72,156.99 -300.27,334.29 -415.12,527.39z"
   id="path2616" />
  <path
   fill="#BFD3D9"
   stroke="#545454"
   stroke-width="50"
   stroke-linejoin="bevel"
   d="M2090.17 1923.21l6019.65 0c81.12,0 146.88,65.76 146.88,146.88l0 4663.1c0,81.12 -65.76,146.88 -146.88,146.88l-6019.65 0c-81.12,0 -146.88,-65.76 -146.88,-146.88l0 -4663.1c0,-81.12 65.76,-146.88 146.88,-146.88z"
   id="path2618" />
  <path
   fill="url(#id21)"
   stroke="#D1D1D1"
   stroke-width="7.62"
   d="M3141.92 7184.18l0 -204.1 49.47 0 69.81 157.97 71.74 -157.97 44.15 0 0 204.1 -33.31 0 0 -165.97 -69.35 152.32 -34.58 0 -67.32 -152.78 0 166.43 -30.61 0 0 0zm297.85 -204.1l35.72 0 0 128.8c0,20.51 4.7,35.39 14.04,44.74 9.34,9.34 24.21,13.98 44.62,13.98 19.92,0 34.09,-4.37 42.42,-13.16 8.31,-8.77 12.49,-23.63 12.49,-44.58l0 -129.78 31.28 0 0 129.36c0,17.83 -2.14,31.52 -6.45,41.09 -4.34,9.56 -12.05,17.97 -23.33,25.22 -14.04,9 -33.37,13.52 -57.96,13.52 -31.82,0 -55.25,-6.56 -70.3,-19.59 -15.02,-13.04 -22.53,-33.41 -22.53,-61.1l0 -128.5 0 0zm243.36 204.1l0 -204.1 35.71 0 0 182.44 113.21 0 0 21.66 -148.92 0 0 0zm245.52 0l0 -182.44 -89.27 0 0 -21.66 214.22 0 0 21.66 -89.26 0 0 182.44 -35.69 0 0 0zm160.2 0l0 -204.1 35.69 0 0 204.1 -35.69 0zm93.21 -74.89l0 -16.95 150.97 0 0 16.95 -150.97 0zm397.93 64.38c-24.85,10.43 -51.94,15.6 -81.31,15.6 -39.07,0 -69.29,-9.28 -90.61,-27.88 -21.29,-18.55 -31.97,-44.94 -31.97,-79.12 0,-34.13 10.86,-60.52 32.57,-79.21 21.7,-18.69 52.33,-28.07 91.92,-28.07 22.4,0 48.75,2.97 79.04,8.96l0 27.14c-34.47,-9.64 -61.05,-14.44 -79.74,-14.44 -27.33,0 -48.46,7.5 -63.43,22.46 -14.97,15.01 -22.45,36.14 -22.45,63.44 0,26.14 8,46.65 23.95,61.61 16.02,15.03 37.91,22.5 65.65,22.5 23.74,0 49.16,-5.92 76.38,-17.79l0 24.8 0 0zm154.74 15.6c-35.74,0 -64.31,-9.76 -85.68,-29.18 -21.34,-19.44 -32.02,-45.44 -32.02,-77.96 0,-32.53 10.68,-58.5 32.02,-77.94 21.37,-19.45 49.94,-29.2 85.68,-29.2 35.69,0 64.25,9.75 85.6,29.2 21.36,19.44 32.05,45.41 32.05,77.94 0,32.52 -10.69,58.52 -32.05,77.96 -21.35,19.42 -49.91,29.18 -85.6,29.18zm0 -21.67c25,0 44.56,-7.57 58.68,-22.68 14.04,-15.11 21.06,-36.15 21.06,-63.06 0,-26.75 -7.02,-47.64 -21.06,-62.67 -14.12,-15 -33.68,-22.54 -58.68,-22.54 -25.09,0 -44.65,7.54 -58.74,22.54 -14.04,15.03 -21.06,35.92 -21.06,62.67 0,26.91 7.02,47.95 21.06,63.06 14.09,15.11 33.65,22.68 58.74,22.68zm167.61 16.58l0 -204.1 83.64 0c24.95,0 45.11,2.26 60.49,6.78 15.38,4.48 28.67,12.09 39.87,22.87 17.8,17.1 26.68,39.64 26.68,67.56 0,31.52 -10.45,57.1 -31.28,76.67 -11.3,10.78 -24.44,18.5 -39.35,23.21 -14.92,4.67 -33.55,7.01 -55.9,7.01l-84.15 0 0 0zm35.71 -21.66l45.73 0c32.67,0 55.82,-7.1 69.42,-21.37 14.61,-15.15 21.94,-35.54 21.94,-61.09 0,-24.01 -7.2,-42.83 -21.6,-56.53 -8.78,-8.38 -19.15,-14.07 -31.28,-17.19 -12.13,-3.05 -30.43,-4.6 -54.79,-4.6l-29.42 0 0 160.78 0 0zm225.11 21.66l0 -204.1 140.64 0 0 21.66 -104.92 0 0 65.51 87.92 0 0 21.39 -87.92 0 0 73.88 112.23 0 0 21.66 -147.95 0zm377.86 -10.51c-24.86,10.43 -51.95,15.6 -81.32,15.6 -39.07,0 -69.29,-9.28 -90.61,-27.88 -21.29,-18.55 -31.97,-44.94 -31.97,-79.12 0,-34.13 10.87,-60.52 32.57,-79.21 21.7,-18.69 52.33,-28.07 91.92,-28.07 22.4,0 48.75,2.97 79.04,8.96l0 27.14c-34.47,-9.64 -61.05,-14.44 -79.74,-14.44 -27.33,0 -48.46,7.5 -63.43,22.46 -14.97,15.01 -22.45,36.14 -22.45,63.44 0,26.14 8,46.65 23.95,61.61 16.02,15.03 37.91,22.5 65.65,22.5 23.74,0 49.16,-5.92 76.39,-17.79l0 24.8 0 0zm98.21 48.39l0 -25.64c13.58,3.62 25.71,5.4 36.39,5.4 13.34,0 22.76,-3.14 28.15,-9.5 5.4,-6.36 8.06,-17.33 8.06,-32.94l0 -179.3 35.69 0 0 178.31c0,44.38 -25.89,66.6 -77.71,66.6 -7.89,0 -18.11,-0.98 -30.58,-2.93zm169.99 -241.98l35.71 0 0 128.8c0,20.51 4.7,35.39 14.04,44.74 9.34,9.34 24.21,13.98 44.62,13.98 19.92,0 34.09,-4.37 42.43,-13.16 8.31,-8.77 12.49,-23.63 12.49,-44.58l0 -129.78 31.27 0 0 129.36c0,17.83 -2.14,31.52 -6.45,41.09 -4.33,9.56 -12.05,17.97 -23.33,25.22 -14.03,9 -33.36,13.52 -57.96,13.52 -31.82,0 -55.25,-6.56 -70.29,-19.59 -15.02,-13.04 -22.53,-33.41 -22.53,-61.1l0 -128.5 0 0zm243.35 204.1l0 -204.1 33.5 0 0 100.39 101.85 -100.39 35.87 0 -98.55 97.34 116.08 106.76 -45.22 0 -110.03 -103.41 0 103.41 -33.5 0zm227.33 0l0 -204.1 140.64 0 0 21.66 -104.93 0 0 65.51 87.92 0 0 21.39 -87.92 0 0 73.88 112.23 0 0 21.66 -147.94 0zm188.74 0l0 -204.1 65.32 0c25.19,0 44.44,3.87 57.91,11.59 13.42,7.7 20.13,18.82 20.13,33.36 0,11.77 -4.47,22.27 -13.45,31.44 -8.95,9.19 -21.7,16.34 -38.24,21.39 41.13,10.21 61.75,28.61 61.75,55.29 0,11.95 -4.54,22.55 -13.6,31.88 -6.97,7.05 -15.25,12.03 -25.01,14.86 -9.75,2.89 -23.32,4.29 -40.61,4.29l-74.2 0 0 0zm35.36 -21.66l7.3 0c26.25,0 43.2,-1.32 50.92,-4 14.73,-5.02 22.11,-14.44 22.11,-28.15 0,-12.1 -6.68,-22.21 -20.08,-30.26 -13.41,-8.04 -30.14,-12.04 -50.21,-12.04l-10.04 0 0 74.45zm0 -92.82l11.38 0c19.2,0 34.01,-3.29 44.38,-9.92 10.46,-6.6 15.69,-16.06 15.69,-28.26 0,-19.86 -19.17,-29.78 -57.52,-29.78l-13.93 0 0 67.96 0 0zm267.84 119.57c-35.74,0 -64.31,-9.76 -85.68,-29.18 -21.34,-19.44 -32.02,-45.44 -32.02,-77.96 0,-32.53 10.68,-58.5 32.02,-77.94 21.37,-19.45 49.94,-29.2 85.68,-29.2 35.69,0 64.26,9.75 85.6,29.2 21.37,19.44 32.05,45.41 32.05,77.94 0,32.52 -10.68,58.52 -32.05,77.96 -21.34,19.42 -49.91,29.18 -85.6,29.18zm0 -21.67c25.01,0 44.57,-7.57 58.68,-22.68 14.04,-15.11 21.06,-36.15 21.06,-63.06 0,-26.75 -7.02,-47.64 -21.06,-62.67 -14.11,-15 -33.67,-22.54 -58.68,-22.54 -25.08,0 -44.64,7.54 -58.74,22.54 -14.03,15.03 -21.05,35.92 -21.05,62.67 0,26.91 7.02,47.95 21.05,63.06 14.1,15.11 33.66,22.68 58.74,22.68zm137.86 16.58l83.5 -102.43 -79.45 -101.67 42.14 0 60.64 76.87 63.62 -76.87 33.6 0 -80.44 98.57 82.47 105.53 -42.14 0 -64.02 -80.91 -66.09 80.91 -33.83 0 0 0z"
   id="path2620" />
  <path
   fill="url(#id22)"
   stroke="#D1D1D1"
   stroke-width="7.62"
   d="M4377.19 1718.02l0 -174.76 38.58 0 0 174.76 -38.58 0zm0 -206.45l0 -31.68 38.58 0 0 31.68 -38.58 0zm114.79 206.45l0 -238.13 41.12 0 0 100.39 137.94 0 0 -100.39 41.1 0 0 238.13 -41.1 0 0 -112.47 -137.94 0 0 112.47 -41.12 0 0 0zm294.76 0l0 -238.13 78.96 0c22.68,0 40.18,1.54 52.56,4.56 12.36,3.07 22.4,8.45 30.3,16.2 10.29,10.17 15.44,24.07 15.44,41.69 0,25.26 -10.45,45.14 -31.37,59.48 -20.86,14.38 -49.86,21.58 -86.98,21.58l-18.19 0 0 94.62 -40.72 0 0 0zm40.72 -120.22l16.66 0c24.41,0 43.31,-4.6 56.61,-13.83 13.33,-9.23 20,-22.31 20,-39.27 0,-14.12 -5.27,-24.27 -15.77,-30.36 -10.49,-6.12 -27.95,-9.19 -52.23,-9.19l-25.27 0 0 92.65 0 0zm172.56 32.84l0 -19.76 173.9 0 0 19.76 -173.9 0zm308.09 87.38l0 -214.34 -45.86 0 0 -19.94 84.64 -5.93 0 240.21 -38.78 0 0 0zm299.71 0l0 -67.43 -130.45 0 0 -24.01 130.45 -146.69 36.23 0 0 144.76 38.78 0 0 25.94 -38.78 0 0 67.43 -36.23 0zm-92.61 -93.37l95.13 0 0 -105.88 -95.13 105.88zm322.18 99.29c-30.5,0 -54.96,-11.4 -73.61,-34.32 -18.6,-22.9 -27.88,-53.16 -27.88,-90.67 0,-37.5 9.28,-67.77 27.88,-90.66 18.65,-22.9 43.11,-34.33 73.61,-34.33 30.55,0 55.08,11.43 73.6,34.26 18.53,22.86 27.83,53.12 27.83,90.73 0,37.51 -9.3,67.77 -27.83,90.67 -18.52,22.92 -43.05,34.32 -73.6,34.32zm0 -23.81c40.3,0 60.51,-33.74 60.51,-101.18 0,-67.43 -20.21,-101.15 -60.51,-101.15 -40.26,0 -60.36,33.72 -60.36,101.15 0,67.44 20.1,101.18 60.36,101.18z"
   id="path2622" />
  <g
   id="g2624">
   <path
   fill="#000000"
   d="M4034.09 2928.28c-103.11,-448.69 -370.1,-468.21 -432.88,-468.21l0 -26.24c139.22,0 364.23,99.35 446,440.36 104.75,-340.28 283.64,-431.62 409.19,-433.35 119.65,-1.65 193.44,26.24 306.84,85.32l0 -53.25 327.38 0 0 -44.88 26.24 0 0 44.88 55.51 0 0 26.24 -55.51 0 0 641.55 235.44 -595.16 225.58 0 19.65 -46.39 -281.08 0 0 -26.24 292.2 0 30.89 -72.9 24.16 10.24 -26.56 62.66 62.18 0 0 26.24 -73.3 0 -183.48 433.04 243 0 0 324.57c227.42,-111.94 499.52,-29.81 636.66,189.32 136.03,-209.69 401.78,-293.25 633.33,-199.14l-9.21 -14.9 391.35 0 78.18 126.4 76.36 -123.46c1.13,-1.83 3.13,-2.94 5.27,-2.94l0 0c2.25,0 4.32,1.21 5.41,3.18 1.1,1.96 1.05,4.36 -0.14,6.27l-79.61 128.73 10.2 16.49 93.85 -151.73c1.13,-1.83 3.12,-2.94 5.27,-2.94l0 0c2.25,0 4.32,1.21 5.41,3.18 1.09,1.96 1.04,4.36 -0.14,6.27l-97.1 157 10.2 16.49 113.15 -182.94 391.35 0 -308.83 499.32 10.2 16.49 325.87 -526.87 -406.55 0c-2.25,0 -4.32,-1.21 -5.41,-3.17 -1.1,-1.97 -1.04,-4.37 0.14,-6.29l0 0c1.13,-1.82 3.13,-2.93 5.27,-2.93l428.79 0 -323.33 522.77 302.46 489.04c1.19,1.91 1.24,4.31 0.15,6.27 -1.09,1.96 -3.16,3.19 -5.41,3.19 -2.15,0 -4.14,-1.12 -5.27,-2.94l-299.22 -483.78 -10.21 16.49 290.84 470.23 -391.35 0 -74.75 -120.87 -72.94 117.93c-1.13,1.82 -3.12,2.94 -5.27,2.94l0 0c-1.02,0 -2.02,-0.25 -2.91,-0.73 -0.9,0.48 -1.9,0.73 -2.92,0.73 -2.25,0 -4.32,-1.23 -5.42,-3.19 -1.09,-1.96 -1.03,-4.36 0.15,-6.27l79.1 -127.9 -10.19 -16.49 -93.34 150.91c-1.13,1.82 -3.13,2.94 -5.28,2.94 -2.24,0 -4.31,-1.23 -5.41,-3.19 -1.09,-1.96 -1.04,-4.36 0.14,-6.27l96.6 -156.18 -10.2 -16.49 -112.65 182.13 -391.35 0 11.45 -18.52c-231.73,95.72 -498.78,12.84 -635.61,-197.29 -136.95,219.67 -409.4,300.04 -637.13,187.96l0 27.85 -332.52 0 0 -2.5 -54.89 0 23.97 67.67 -24.72 8.76 -27.08 -76.43 -105.41 0 0 -26.23 96.12 0 -195.85 -552.88 -11.58 28.21 0 553.4 -216.89 0 0 -1684.32 216.89 0 0 755.11 37.04 -93.63 0 -707.87 -301.15 0 0 76.67c-130.65,-87.85 -218.19,-108.74 -333.07,-108.74 -90.95,0 -290.56,66.3 -396.08,461.2l-26.23 0 0 0zm469.8 1336.97l-413.53 0.03 0 -26.24 282.4 0c-215.2,-95.56 -308.97,-441.37 -308.97,-851.34 0,-483.35 130.28,-877.58 436.34,-877.58 140.65,0 220.56,72.26 289.34,138.1l0 42.95c0.02,0.04 0.05,0.08 0.07,0.11l-0.02 363.98 -23.36 0c-50.71,-92.4 -143.93,-222.16 -240.22,-222.16 -160.46,0 -239.84,248.54 -237.82,554.6 -2.02,306.06 77.36,554.6 237.82,554.6 96.29,0 189.51,-129.76 240.22,-222.16l23.36 0 0.02 363.98c-0.02,0.03 -0.05,0.07 -0.07,0.11l0 42.95c-68.16,65.25 -147.28,136.8 -285.58,138.07zm-905.86 -1755.13c303.43,0 432.6,413.84 432.6,877.58 0,463.74 -129.17,877.58 -432.6,877.58 -303.43,0 -432.59,-394.23 -432.59,-877.58 0,-483.35 129.16,-877.58 432.59,-877.58zm-755.41 35.42l-395.08 0 0 978.14c2.56,6.84 5.09,13.68 7.61,20.53 17.74,-4.86 36.14,-6.82 54.5,-5.85 35.93,1.93 68.31,22.31 85.56,53.89 15.6,28.53 23.02,60.82 21.45,93.29 -0.65,13.58 -4.22,26.85 -10.47,38.92 -15.35,29.65 -39.04,54.15 -68.14,70.49 9.84,33.42 19.25,66.97 28.23,100.64 17.17,64.41 25.23,130.91 23.95,197.56 -0.34,17.19 -4.07,34.15 -10.98,49.9 -7.09,16.13 -19.5,29.34 -35.17,37.41 -11.37,5.86 -24.64,6.82 -36.73,2.68 -12.1,-4.14 -21.99,-13.03 -27.38,-24.63 -6.28,-13.5 -9.35,-28.27 -8.98,-43.16 0.21,-8.37 4.26,-16.19 10.98,-21.2 8.47,-6.32 18.88,-9.49 29.43,-8.98 6.93,0.34 13.14,4.38 16.24,10.59 3.11,6.2 2.61,13.6 -1.27,19.35 -4.79,7.07 -11.82,12.34 -19.96,14.96l2.79 6.08c1.31,3.44 4.22,6.03 7.81,6.91 3.58,0.89 7.37,-0.03 10.13,-2.47 13.63,-11.61 22.13,-28.14 23.62,-45.98 1.97,-30.76 1.32,-61.62 -1.94,-92.26 -9.59,-65.45 -23.85,-130.13 -42.68,-193.54 -4.84,1.53 -9.74,2.85 -14.7,3.96 -14.49,3.22 -29.15,5.73 -43.9,7.52l0 409.57 264.41 0 0 54.77 26.24 0 0 -54.77 56.33 0 0 -26.24 -56.33 0 0 -590.59 25.33 0 230.76 616.83 253.41 0 22.9 58.44 24.42 -9.57 -22.77 -58.11 79.07 0 0 -26.23 -89.35 0 -272.88 -696.5c100.44,-103.6 158.07,-259.55 158.07,-457.6 0,-265.44 -71.86,-494.75 -304.53,-494.75l0 0zm-348.02 1226.32c-15.06,6.2 -30.89,10.36 -47.06,12.36l0 -149.26c16.28,45.24 31.91,90.71 46.9,136.4 0.05,0.17 0.11,0.33 0.16,0.5 0,0 0,0 0,0 0,0 0,0 0,0 0,0 0,0 0,0m-24.76 -187c5.15,-1.41 10.37,-2.61 15.62,-3.59 16.48,-3.07 33.49,0.92 46.9,10.98 12.2,9.16 20.98,22.14 24.96,36.87 8.85,32.84 6.92,67.67 -5.51,99.33 -2.61,6.64 -6.91,12.49 -12.47,16.96 -4.27,3.44 -8.69,6.67 -13.25,9.7 -17.49,-57.16 -36.24,-113.93 -56.25,-170.25m-22.3 199.36c-4.14,0.51 -8.3,0.88 -12.47,1.11 -45.43,2.46 -87.68,-23.33 -106.26,-64.86 -32.97,-73.72 -37.77,-156.97 -13.47,-233.99 8.53,-27.03 17.35,-53.98 26.44,-80.83 2.52,-7.42 5.06,-14.85 7.63,-22.26 24.39,57.92 47.7,116.3 69.93,175.1 -31.67,16.96 -57.22,43.43 -73.07,75.67 -2.62,5.32 -1.59,11.73 2.56,15.97 4.16,4.24 10.54,5.4 15.92,2.89 4.67,-3.37 9.01,-7.18 12.95,-11.38 16.01,-17.77 35.2,-32.39 56.57,-43.13 4.47,12.13 8.89,24.28 13.27,36.45l0 -111.28c-21.03,-56.3 -43.31,-112.12 -66.84,-167.41 -3.9,-9.16 -7.88,-18.29 -11.94,-27.37 4.9,-13.44 9.87,-26.86 14.93,-40.24 7.21,-19.1 12.72,-38.8 16.46,-58.87 4.23,-22.7 2.33,-46.12 -5.49,-67.85 -17.83,-49.51 -52.18,-91.36 -97.28,-118.49 -19.84,-11.93 -42.72,-17.83 -65.85,-16.96 -19.38,0.72 -35.04,16.06 -36.17,35.42 -1.03,17.57 3.05,35.07 11.72,50.39 8.04,14.18 16.69,28 25.94,41.41 28.55,41.38 53.23,85.31 73.71,131.21 4.02,9.03 8.03,18.08 12,27.13 -6.25,17.19 -12.37,34.42 -18.36,51.7 -27.79,80.18 -45.72,163.44 -53.38,247.96 -3.61,39.89 -0.06,80.1 10.48,118.74 14.47,53.01 61.59,90.55 116.49,92.8 24.57,1 49.17,0.01 73.58,-2.96l0 -36.07m359.28 -1308.81l-408.45 0 0 -63.64 -26.24 0 0 63.64 -61.09 0 0 26.23 61.09 0 0 292.23 26.24 0 0 -292.23 408.45 0 0 -26.23z"
   id="path2626" />
   <path
   fill="#94A9B0"
   d="M7886.39 3270.46l-301 0 -134.56 217.56 -134.57 -217.56 -301 0 56.45 91.26c-114.89,-97.53 -268.75,-135.8 -415.93,-103.47 -147.19,32.33 -270.84,131.58 -334.27,268.29 -56.84,-127.18 -163.83,-222.38 -293.22,-260.91 -129.4,-38.54 -268.47,-16.63 -381.17,60.06l0 -361.07 -255.67 0 0 1220.82 255.67 0 0 -49.24c112.9,76.82 252.25,98.67 381.81,59.87 129.57,-38.8 236.57,-134.42 293.15,-261.99 64.14,137.23 188.99,236.4 337.18,267.82 148.19,31.41 302.53,-8.58 416.83,-107.99l-60.32 97.52 301 0 134.06 -216.74 134.05 216.74 301 0 -284.55 -460.07 285.06 -460.9 0 0z"
   id="path2628" />
   <path
   fill="#000000"
   d="M6101.61 3729.7c0,-125.51 -101.74,-227.26 -227.24,-227.26 -125.5,0 -227.24,101.75 -227.24,227.26 0,125.51 101.74,227.25 227.24,227.25 125.5,0 227.24,-101.74 227.24,-227.25zm1126.45 -115.18c19.06,77.56 18.57,158.63 -1.41,235.96l73.67 -119.12 -72.26 -116.84m-241.48 115.18c0,-125.51 -101.74,-227.26 -227.23,-227.26 -125.51,0 -227.25,101.75 -227.25,227.26 0,125.51 101.74,227.25 227.25,227.25 125.49,0 227.23,-101.74 227.23,-227.25z"
   id="path2630" />
   <path
   fill="#BFD3D9"
   d="M2664.43 4203.62l47.52 0 0 -590.59 -47.52 0 0 590.59m98.13 -962.86c80.14,0 92.7,-101.61 92.62,-171.35 -0.08,-69.73 -10.2,-145.41 -80.14,-145.41l-110.61 0 0 385.37 47.52 0 0 -68.61 50.61 0zm0 26.24l-24.37 0 0 42.37 1.68 0c178.61,0 178.61,-159.95 178.61,-215.52l0 -35.88c0,-53.87 -0.36,-202.57 -150.76,-202.57l-103.29 0 0 42.37 98.13 0c51.04,0 119.51,7.26 119.51,178.42 0,171.16 -68.82,189.38 -119.51,190.81l0 0zm-425.34 -4.68c-20.56,-41.03 -42.8,-81.21 -66.67,-120.4 -7.6,-12.47 -14.46,-25.35 -20.56,-38.6 -3.99,-8.65 -6.35,-17.95 -6.99,-27.44 -0.13,-2.05 0.6,-4.06 2.03,-5.53 1.42,-1.47 3.41,-2.27 5.45,-2.2 9.87,0.33 19.48,3.16 27.94,8.23 36.4,21.77 62.34,57.45 71.84,98.78 2.77,12.06 2.86,24.58 0.25,36.67 -3.67,17.02 -8.1,33.87 -13.29,50.49l0 0m4415.93 656.1l12.39 0c103.02,-3.38 184.29,-88.75 182.6,-191.82 -1.69,-103.07 -85.72,-185.73 -188.79,-185.73 -103.08,0 -187.11,82.66 -188.8,185.73 -1.69,103.07 79.58,188.44 182.6,191.82l0 0zm-884.98 0l12.39 0c103.02,-3.38 184.29,-88.75 182.6,-191.82 -1.69,-103.07 -85.72,-185.73 -188.79,-185.73 -103.08,0 -187.11,82.66 -188.8,185.73 -1.69,103.07 79.58,188.44 182.6,191.82l0 0zm-591.96 -593.69l76.81 198.7 0 -380 -76.81 181.3m12.63 876.4l-208.74 -589.27 24.47 -59.62 241.21 648.89 -56.94 0m-1690.81 -1373.71c146.11,0 208.27,264.19 208.27,560.28 0,296.09 -62.16,560.28 -208.27,560.28 -146.11,0 -208.27,-251.69 -208.27,-560.28 0,-308.59 62.16,-560.28 208.27,-560.28z"
   id="path2632" />
   <path
   fill="#000000"
   d="M6753.15 3918.42c4.13,0.3 8.25,0.28 12.39,0l0 -17.35c93.46,-3.39 166.96,-81.03 165.25,-174.53 -1.72,-93.5 -78.05,-168.39 -171.57,-168.32 -2.24,-0.04 -4.09,1.14 -5.22,3.06 -1.13,1.94 -1.14,4.34 -0.01,6.27 1.13,1.93 3,3.1 5.24,3.07 57.58,-0.05 110.7,31.04 138.86,81.27 28.17,50.22 26.99,111.76 -3.07,160.87 -30.06,49.11 -84.33,78.14 -141.87,75.9l0 29.76zm-878.78 -46.99c-3.43,0 -6.2,-2.78 -6.2,-6.19 0,-3.43 2.77,-6.21 6.2,-6.21 71.42,0 129.33,-57.9 129.33,-129.33 0,-71.44 -57.91,-129.34 -129.33,-129.34 -3.43,0 -6.2,-2.77 -6.2,-6.19 0,-3.43 2.77,-6.21 6.2,-6.21 78.27,0 141.72,63.46 141.72,141.74 0,78.28 -63.45,141.73 -141.72,141.73zm884.98 0c-3.43,0 -6.2,-2.78 -6.2,-6.19 0,-3.43 2.77,-6.21 6.2,-6.21 71.42,0 129.33,-57.9 129.33,-129.33 0,-71.44 -57.91,-129.34 -129.33,-129.34 -3.43,0 -6.2,-2.77 -6.2,-6.19 0,-3.43 2.77,-6.21 6.2,-6.21 78.27,0 141.72,63.46 141.72,141.74 0,78.28 -63.45,141.73 -141.72,141.73zm-891.18 46.99c4.13,0.21 8.26,0.16 12.39,0l0 -17.35c93.46,-3.39 166.96,-81.03 165.25,-174.53 -1.72,-93.5 -78.05,-168.39 -171.56,-168.32 -2.25,-0.04 -4.1,1.14 -5.23,3.06 -1.13,1.94 -1.13,4.34 0,6.27 1.13,1.93 2.99,3.1 5.23,3.07 57.59,-0.05 110.7,31.04 138.86,81.27 28.17,50.22 26.99,111.76 -3.07,160.87 -30.06,49.11 -84.33,78.14 -141.87,75.9l0 29.76zm-2270.14 -49.29l0 -64.79 -26.24 0 0 69 0 26.24c141.82,0 183.44,-240.84 184.42,-498.77l596.85 0c1.41,181.58 41.24,459.48 159.77,478.65l0 68.52 26.23 0 0 -547.17 104.44 0 0 -26.23 -104.44 0 0 -94.65 -26.23 0 0 94.65 -133.45 0c2.84,-179.97 53.12,-443.08 146.56,-447.35l0 -26.24c-122.56,4.75 -170.2,285.58 -172.8,473.59l-596.97 0c-1.7,-256.72 -43.15,-495.58 -184.38,-495.58l0 25.18 0 470.4 -80.16 0 0 26.23 80.16 0 0 91.63 26.24 0 0 -91.63 131.91 0c-1.31,165.1 -22.12,431.88 -131.91,468.32l0 0z"
   id="path2634" />
   <path
   fill="#BFD3D9"
   d="M4379.3 3400.81c1.7,171.9 45.22,428.53 133.53,451.84l0 -451.84 -133.53 0zm-649.32 -26.23l-131.95 0 0 -466.16c109.24,36.3 131.17,300.77 131.95,466.16z"
   id="path2636" />
  </g>
 </g>
<g
   inkscape:groupmode="layer"
   id="layer1"
   inkscape:label="Text"><path
     transform="translate(1.12166e-4,0)"
     style="fill:none;fill-opacity:0.75;fill-rule:evenodd;stroke:#7a7a7a;stroke-width:28.22222349;stroke-linecap:butt;stroke-linejoin:miter;stroke-opacity:1;stroke-miterlimit:4;stroke-dasharray:none"
     d="M 7554.3421,9773.6973 L 10029.776,9773.6973"
     id="path1431" /><path
     transform="translate(1.12166e-4,0)"
     style="fill:none;fill-opacity:0.75;fill-rule:evenodd;stroke:#7a7a7a;stroke-width:28.22222349;stroke-linecap:butt;stroke-linejoin:miter;stroke-opacity:1;stroke-miterlimit:4;stroke-dasharray:none"
     d="M 2475.4339,9773.6973 L -0.00037054808,9773.6973"
     id="path2308" /><path
     transform="translate(1.12166e-4,0)"
     style="fill:none;fill-opacity:0.75;fill-rule:evenodd;stroke:#7a7a7a;stroke-width:28.22222349;stroke-linecap:butt;stroke-linejoin:miter;stroke-opacity:1;stroke-miterlimit:4;stroke-dasharray:none"
     d="M 5078.9078,11907.692 L -42.680271,13017.37"
     id="path2310" /><path
     transform="translate(1.12166e-4,0)"
     style="fill:none;fill-opacity:0.75;fill-rule:evenodd;stroke:#7a7a7a;stroke-width:28.22222349;stroke-linecap:butt;stroke-linejoin:miter;stroke-opacity:1;stroke-miterlimit:4;stroke-dasharray:none"
     d="M 4993.548,7639.7022 L -42.680271,5334.9876"
     id="path2312" /><path
     transform="translate(1.12166e-4,0)"
     style="fill:none;fill-opacity:0.75;fill-rule:evenodd;stroke:#7a7a7a;stroke-width:28.22222349;stroke-linecap:butt;stroke-linejoin:miter;stroke-opacity:1;stroke-miterlimit:4;stroke-dasharray:none"
     d="M 5121.5877,9773.6973 L 10029.776,14468.486"
     id="path2314" /><text
     transform="translate(1.12166e-4,0)"
     xml:space="preserve"
     style="font-size:790.222229px;font-style:normal;font-variant:normal;font-weight:normal;font-stretch:normal;text-align:start;line-height:100%;writing-mode:lr-tb;text-anchor:start;fill:#000000;fill-opacity:1;stroke:none;stroke-width:1px;stroke-linecap:butt;stroke-linejoin:miter;stroke-opacity:1;font-family:URW Palladio L"
     x="-2048.6355"
     y="5292.3081"
     id="text2316"
     sodipodi:linespacing="100%"><tspan
       sodipodi:role="line"
       id="tspan2318"
       x="-2048.6355"
       y="5292.3081">Up</tspan></text>
<text
     transform="translate(1.12166e-4,0)"
     xml:space="preserve"
     style="font-size:790.222229px;font-style:normal;font-variant:normal;font-weight:normal;font-stretch:normal;text-align:start;line-height:100%;writing-mode:lr-tb;text-anchor:start;fill:#000000;fill-opacity:1;stroke:none;stroke-width:1px;stroke-linecap:butt;stroke-linejoin:miter;stroke-opacity:1;font-family:URW Palladio L"
     x="-2283.7993"
     y="9990.6211"
     id="text2320"
     sodipodi:linespacing="100%"><tspan
       sodipodi:role="line"
       id="tspan2322"
       x="-2283.7993"
       y="9990.6211">Left</tspan></text>
<text
     transform="translate(1.12166e-4,0)"
     xml:space="preserve"
     style="font-size:790.222229px;font-style:normal;font-variant:normal;font-weight:normal;font-stretch:normal;text-align:start;line-height:100%;writing-mode:lr-tb;text-anchor:start;fill:#000000;fill-opacity:1;stroke:none;stroke-width:1px;stroke-linecap:butt;stroke-linejoin:miter;stroke-opacity:1;font-family:URW Palladio L"
     x="-2198.4395"
     y="7557.8667"
     id="text2324"
     sodipodi:linespacing="100%"><tspan
       sodipodi:role="line"
       id="tspan2326"
       x="-2198.4395"
       y="7557.8667">Rec</tspan></text>
<text
     transform="translate(1.12166e-4,0)"
     xml:space="preserve"
     style="font-size:790.222229px;font-style:normal;font-variant:normal;font-weight:normal;font-stretch:normal;text-align:start;line-height:100%;writing-mode:lr-tb;text-anchor:start;fill:#000000;fill-opacity:1;stroke:none;stroke-width:1px;stroke-linecap:butt;stroke-linejoin:miter;stroke-opacity:1;font-family:URW Palladio L"
     x="-2369.1592"
     y="13191.614"
     id="text2328"
     sodipodi:linespacing="100%"><tspan
       sodipodi:role="line"
       id="tspan2330"
       x="-2369.1592"
       y="13191.614">Down</tspan></text>
<text
     transform="translate(1.12166e-4,0)"
     xml:space="preserve"
     style="font-size:790.222229px;font-style:normal;font-variant:normal;font-weight:normal;font-stretch:normal;text-align:start;line-height:100%;writing-mode:lr-tb;text-anchor:start;fill:#000000;fill-opacity:1;stroke:none;stroke-width:1px;stroke-linecap:butt;stroke-linejoin:miter;stroke-opacity:1;font-family:URW Palladio L"
     x="10306.771"
     y="2820.3977"
     id="text2344"
     sodipodi:linespacing="100%"><tspan
       sodipodi:role="line"
       id="tspan2346"
       x="10306.771"
       y="2820.3977">Play</tspan></text>
<text
     transform="translate(1.12166e-4,0)"
     xml:space="preserve"
     style="font-size:790.222229px;font-style:normal;font-variant:normal;font-weight:normal;font-stretch:normal;text-align:start;line-height:100%;writing-mode:lr-tb;text-anchor:start;fill:#000000;fill-opacity:1;stroke:none;stroke-width:1px;stroke-linecap:butt;stroke-linejoin:miter;stroke-opacity:1;font-family:URW Palladio L"
     x="10331.25"
     y="9999.6924"
     id="text2348"
     sodipodi:linespacing="100%"><tspan
       sodipodi:role="line"
       id="tspan2350"
       x="10331.25"
       y="9999.6924">Right</tspan></text>
<text
     transform="translate(1.12166e-4,0)"
     xml:space="preserve"
     style="font-size:790.222229px;font-style:normal;font-variant:normal;font-weight:normal;font-stretch:normal;text-align:start;line-height:100%;writing-mode:lr-tb;text-anchor:start;fill:#000000;fill-opacity:1;stroke:none;stroke-width:1px;stroke-linecap:butt;stroke-linejoin:miter;stroke-opacity:1;font-family:URW Palladio L"
     x="10306.771"
     y="14770.771"
     id="text2332"
     sodipodi:linespacing="100%"><tspan
       sodipodi:role="line"
       id="tspan2334"
       x="10306.771"
       y="14770.771">Navi</tspan></text>
<text
     transform="translate(1.12166e-4,0)"
     xml:space="preserve"
     style="font-size:790.222229px;font-style:normal;font-variant:normal;font-weight:normal;font-stretch:normal;text-align:start;line-height:100%;writing-mode:lr-tb;text-anchor:start;fill:#000000;fill-opacity:1;stroke:none;stroke-width:1px;stroke-linecap:butt;stroke-linejoin:miter;stroke-opacity:1;font-family:URW Palladio L"
     x="10306.771"
     y="7557.8667"
     id="text2336"
     sodipodi:linespacing="100%"><tspan
       sodipodi:role="line"
       id="tspan2338"
       x="10306.771"
       y="7557.8667">A-B</tspan></text>
<text
     transform="translate(1.12166e-4,0)"
     xml:space="preserve"
     style="font-size:790.222229px;font-style:normal;font-variant:normal;font-weight:normal;font-stretch:normal;text-align:start;line-height:100%;writing-mode:lr-tb;text-anchor:start;fill:#000000;fill-opacity:1;stroke:none;stroke-width:1px;stroke-linecap:butt;stroke-linejoin:miter;stroke-opacity:1;font-family:URW Palladio L"
     x="10306.771"
     y="5210.4722"
     id="text2340"
     sodipodi:linespacing="100%"><tspan
       sodipodi:role="line"
       id="tspan2342"
       x="10306.771"
       y="5210.4722">Stop</tspan></text>
<text
     transform="translate(1.12166e-4,0)"
     xml:space="preserve"
     style="font-size:790.222229px;font-style:normal;font-variant:normal;font-weight:normal;font-stretch:normal;text-align:start;line-height:100%;writing-mode:lr-tb;text-anchor:start;fill:#000000;fill-opacity:1;stroke:none;stroke-width:1px;stroke-linecap:butt;stroke-linejoin:miter;stroke-opacity:1;font-family:URW Palladio L"
     x="10273.011"
     y="11985.095"
     id="text2352"
     sodipodi:linespacing="100%"><tspan
       sodipodi:role="line"
       id="tspan2354"
       x="10273.011"
       y="11985.095">Hold</tspan></text>
</g></svg>