<?xml version="1.0" encoding="UTF-8" standalone="no"?>
<!-- Creator: CorelDRAW -->
<svg
   xmlns:dc="http://purl.org/dc/elements/1.1/"
   xmlns:cc="http://web.resource.org/cc/"
   xmlns:rdf="http://www.w3.org/1999/02/22-rdf-syntax-ns#"
   xmlns:svg="http://www.w3.org/2000/svg"
   xmlns="http://www.w3.org/2000/svg"
   xmlns:sodipodi="http://inkscape.sourceforge.net/DTD/sodipodi-0.dtd"
   xmlns:inkscape="http://www.inkscape.org/namespaces/inkscape"
   xml:space="preserve"
   width="100mm"
   height="172mm"
   shape-rendering="geometricPrecision"
   text-rendering="geometricPrecision"
   image-rendering="optimizeQuality"
   fill-rule="evenodd"
   viewBox="0 0 10000 17200"
   id="svg1711"
   sodipodi:version="0.32"
   inkscape:version="0.43"
   sodipodi:docname="h1xx-front.svg"
   sodipodi:docbase="/home/martin/src/dev/pics/pixelma"><metadata
   id="metadata1870"><rdf:RDF><cc:Work
       rdf:about=""><dc:format>image/svg+xml</dc:format><dc:type
         rdf:resource="http://purl.org/dc/dcmitype/StillImage" /></cc:Work></rdf:RDF></metadata><defs
   id="defs1868" /><sodipodi:namedview
   inkscape:window-height="572"
   inkscape:window-width="746"
   inkscape:pageshadow="2"
   inkscape:pageopacity="0.0"
   borderopacity="1.0"
   bordercolor="#666666"
   pagecolor="#ffffff"
   id="base"
   inkscape:zoom="0.66125326"
   inkscape:cx="177.16536"
   inkscape:cy="304.7244"
   inkscape:window-x="166"
   inkscape:window-y="68"
   inkscape:current-layer="svg1711" />
 <g
   id="Ebene_x0020_1">
  <defs
   id="defs1714">
   <linearGradient
   id="id0"
   gradientUnits="userSpaceOnUse"
   x1="9796.06"
   y1="12739.4"
   x2="9796.06"
   y2="10929.7">
    <stop
   offset="0"
   stop-color="#878787"
   id="stop1717" />
    <stop
   offset="0.2"
   stop-color="#E8E8E8"
   id="stop1719" />
    <stop
   offset="0.8"
   stop-color="#E8E8E8"
   id="stop1721" />
    <stop
   offset="1"
   stop-color="#B3B3B3"
   id="stop1723" />
   </linearGradient>
   <linearGradient
   id="id1"
   gradientUnits="userSpaceOnUse"
   x1="9824.34"
   y1="7711.06"
   x2="9824.34"
   y2="6967.78">
    <stop
   offset="0"
   stop-color="#878787"
   id="stop1726" />
    <stop
   offset="0.501961"
   stop-color="#E8E8E8"
   id="stop1728" />
    <stop
   offset="1"
   stop-color="#B3B3B3"
   id="stop1730" />
   </linearGradient>
   <linearGradient
   id="id2"
   gradientUnits="userSpaceOnUse"
   x1="175.66"
   y1="6967.74"
   x2="175.66"
   y2="7711.02">
    <stop
   offset="0"
   stop-color="#878787"
   id="stop1733" />
    <stop
   offset="0.501961"
   stop-color="#E8E8E8"
   id="stop1735" />
    <stop
   offset="1"
   stop-color="#B3B3B3"
   id="stop1737" />
   </linearGradient>
   <linearGradient
   id="id3"
   gradientUnits="userSpaceOnUse"
   x1="9824.34"
   y1="5327.36"
   x2="9824.34"
   y2="4584.08">
    <stop
   offset="0"
   stop-color="#878787"
   id="stop1740" />
    <stop
   offset="0.501961"
   stop-color="#E8E8E8"
   id="stop1742" />
    <stop
   offset="1"
   stop-color="#B3B3B3"
   id="stop1744" />
   </linearGradient>
   <linearGradient
   id="id4"
   gradientUnits="userSpaceOnUse"
   x1="9824.34"
   y1="2943.65"
   x2="9824.34"
   y2="2200.37">
    <stop
   offset="0"
   stop-color="#878787"
   id="stop1747" />
    <stop
   offset="0.501961"
   stop-color="#E8E8E8"
   id="stop1749" />
    <stop
   offset="1"
   stop-color="#B3B3B3"
   id="stop1751" />
   </linearGradient>
   <linearGradient
   id="id5"
   gradientUnits="userSpaceOnUse"
   x1="4272.27"
   y1="1630.22"
   x2="5843.73"
   y2="1767.7">
    <stop
   offset="0"
   stop-color="#6D84AB"
   id="stop1754" />
    <stop
   offset="0.239216"
   stop-color="#74EEF7"
   id="stop1756" />
    <stop
   offset="0.411765"
   stop-color="#DEDEDE"
   id="stop1758" />
    <stop
   offset="0.541176"
   stop-color="#DEDEDE"
   id="stop1760" />
    <stop
   offset="0.65098"
   stop-color="#F7A7E8"
   id="stop1762" />
    <stop
   offset="0.8"
   stop-color="#FF7154"
   id="stop1764" />
    <stop
   offset="1"
   stop-color="#F3F592"
   id="stop1766" />
   </linearGradient>
   <linearGradient
   id="id6"
   gradientUnits="userSpaceOnUse"
   x1="3046.16"
   y1="7026.54"
   x2="7011.54"
   y2="7373.46">
    <stop
   offset="0"
   stop-color="#6D84AB"
   id="stop1769" />
    <stop
   offset="0.239216"
   stop-color="#74EEF7"
   id="stop1771" />
    <stop
   offset="0.411765"
   stop-color="#DEDEDE"
   id="stop1773" />
    <stop
   offset="0.541176"
   stop-color="#DEDEDE"
   id="stop1775" />
    <stop
   offset="0.65098"
   stop-color="#F7A7E8"
   id="stop1777" />
    <stop
   offset="0.8"
   stop-color="#FF7154"
   id="stop1779" />
    <stop
   offset="1"
   stop-color="#F3F592"
   id="stop1781" />
   </linearGradient>
   <radialGradient
   id="id7"
   gradientUnits="userSpaceOnUse"
   cx="5000"
   cy="9770.37"
   r="2146.62"
   fx="5000"
   fy="9770.37">
    <stop
   offset="0"
   stop-color="#000000"
   id="stop1784" />
    <stop
   offset="0.439216"
   stop-color="#777777"
   id="stop1786" />
    <stop
   offset="1"
   stop-color="#EDEDED"
   id="stop1788" />
   </radialGradient>
   <radialGradient
   id="id8"
   gradientUnits="userSpaceOnUse"
   cx="5000"
   cy="9770.37"
   r="1655.19"
   fx="5000"
   fy="9770.37">
    <stop
   offset="0"
   stop-color="#000000"
   id="stop1791" />
    <stop
   offset="0.439216"
   stop-color="#777777"
   id="stop1793" />
    <stop
   offset="1"
   stop-color="#EDEDED"
   id="stop1795" />
   </radialGradient>
   <radialGradient
   id="id9"
   gradientUnits="userSpaceOnUse"
   cx="5000"
   cy="9770.36"
   r="374.18"
   fx="5000"
   fy="9770.36">
    <stop
   offset="0"
   stop-color="#808080"
   id="stop1798" />
    <stop
   offset="0.380392"
   stop-color="#ABABAB"
   id="stop1800" />
    <stop
   offset="1"
   stop-color="#D6D6D6"
   id="stop1802" />
   </radialGradient>
   <radialGradient
   id="id10"
   gradientUnits="userSpaceOnUse"
   cx="5000"
   cy="9770.36"
   r="944.45"
   fx="5000"
   fy="9770.36">
    <stop
   offset="0"
   stop-color="#FFFFFF"
   id="stop1805" />
    <stop
   offset="0.509804"
   stop-color="#CECECE"
   id="stop1807" />
    <stop
   offset="1"
   stop-color="#9E9E9E"
   id="stop1809" />
   </radialGradient>
  </defs>
  <path
   fill="#ABABAB"
   stroke="#000000"
   stroke-width="18"
   stroke-linejoin="bevel"
   d="M436.8 1050.15l0 -803.26c0,-81.12 65.76,-146.88 146.88,-146.88l8832.63 0c81.12,0 146.88,65.76 146.88,146.88l0 803.26 -9126.39 0z"
   id="path1811" />
  <path
   fill="#ABABAB"
   stroke="#000000"
   stroke-width="18"
   stroke-linejoin="bevel"
   d="M9563.19 16193.3l0 759.85c0,81.12 -65.76,146.88 -146.88,146.88l-8832.63 0c-81.12,0 -146.88,-65.76 -146.88,-146.88l0 -759.85 1072.58 0c55.62,0 106.47,-31.42 131.36,-81.17l129.88 -259.63c24.88,-49.74 75.73,-81.16 131.36,-81.16l6355.09 0c55.62,0 106.47,31.42 131.36,81.16l129.88 259.63c24.88,49.75 75.73,81.17 131.36,81.17l913.52 0z"
   id="path1813" />
  <path
   fill="url(#id0)"
   stroke="#000000"
   stroke-width="18"
   stroke-linejoin="bevel"
   d="M9714.7 12739.4l0 -1809.7 141.82 101.46c13.12,9.38 20.9,24.53 20.9,40.66l0 1525.46c0,16.14 -7.78,31.28 -20.9,40.67l-141.82 101.45z"
   id="path1815" />
  <path
   fill="url(#id1)"
   stroke="#000000"
   stroke-width="18"
   stroke-linejoin="bevel"
   d="M9714.7 6967.78l0 743.25 198.37 -141.91c13.12,-9.39 20.91,-24.53 20.91,-40.67l0 -378.09c0,-16.14 -7.79,-31.28 -20.91,-40.67l-198.37 -141.91z"
   id="path1817" />
  <path
   fill="url(#id2)"
   stroke="#000000"
   stroke-width="18"
   stroke-linejoin="bevel"
   d="M285.3 7711.02l0 -743.25 -198.37 141.91c-13.12,9.39 -20.91,24.53 -20.91,40.67l0 378.09c0,16.14 7.79,31.28 20.91,40.67l198.37 141.91z"
   id="path1819" />
  <path
   fill="url(#id3)"
   stroke="#000000"
   stroke-width="18"
   stroke-linejoin="bevel"
   d="M9714.7 4584.08l0 743.26 198.37 -141.91c13.12,-9.39 20.91,-24.53 20.91,-40.67l0 -378.11c0,-16.13 -7.79,-31.27 -20.91,-40.66l-198.37 -141.91z"
   id="path1821" />
  <path
   fill="url(#id4)"
   stroke="#000000"
   stroke-width="18"
   stroke-linejoin="bevel"
   d="M9714.7 2200.37l0 743.26 198.37 -141.91c13.12,-9.39 20.91,-24.53 20.91,-40.66l0 -378.11c0,-16.14 -7.79,-31.28 -20.91,-40.67l-198.37 -141.91z"
   id="path1823" />
  <path
   fill="#000000"
   stroke="#000000"
   stroke-width="18"
   stroke-linejoin="bevel"
   d="M285.32 1197.03l0 14849.4c0,81.12 65.76,146.88 146.88,146.88l1077.18 0c55.62,0 106.47,-31.42 131.36,-81.17l129.88 -259.63c24.88,-49.74 75.73,-81.16 131.36,-81.16l6355.09 0c55.62,0 106.47,31.42 131.36,81.16l129.88 259.63c24.88,49.75 75.73,81.17 131.36,81.17l918.12 0c81.12,0 146.88,-65.76 146.88,-146.88l0 -14849.4c0,-81.12 -65.76,-146.88 -146.88,-146.88l-9135.59 0c-81.12,0 -146.88,65.76 -146.88,146.88zm1704.85 826.19l6019.65 0c81.12,0 146.88,65.76 146.88,146.88l0 4663.1c0,81.12 -65.76,146.88 -146.88,146.88l-6019.65 0c-81.12,0 -146.88,-65.76 -146.88,-146.88l0 -4663.1c0,-81.12 65.76,-146.88 146.88,-146.88"
   id="path1825" />
  <path
   fill="url(#id5)"
   stroke="#D1D1D1"
   stroke-width="7.62"
   d="M4277.19 1818.03l0 -174.76 38.58 0 0 174.76 -38.58 0zm0 -206.45l0 -31.68 38.58 0 0 31.68 -38.58 0zm114.79 206.45l0 -238.13 41.12 0 0 100.39 137.94 0 0 -100.39 41.1 0 0 238.13 -41.1 0 0 -112.47 -137.94 0 0 112.47 -41.12 0zm294.76 0l0 -238.13 78.96 0c22.68,0 40.18,1.54 52.56,4.56 12.36,3.07 22.4,8.45 30.3,16.2 10.29,10.17 15.44,24.07 15.44,41.69 0,25.26 -10.45,45.14 -31.37,59.48 -20.86,14.38 -49.86,21.58 -86.98,21.58l-18.19 0 0 94.62 -40.72 0zm40.72 -120.22l16.66 0c24.41,0 43.31,-4.6 56.61,-13.83 13.33,-9.23 20,-22.31 20,-39.27 0,-14.12 -5.27,-24.27 -15.77,-30.36 -10.49,-6.12 -27.95,-9.19 -52.23,-9.19l-25.27 0 0 92.65zm172.56 32.84l0 -19.76 173.9 0 0 19.76 -173.9 0zm308.09 87.38l0 -214.34 -45.86 0 0 -19.94 84.64 -5.93 0 240.21 -38.78 0zm299.71 0l0 -67.43 -130.45 0 0 -24.01 130.45 -146.69 36.23 0 0 144.76 38.78 0 0 25.94 -38.78 0 0 67.43 -36.23 0zm-92.61 -93.37l95.13 0 0 -105.88 -95.13 105.88zm322.18 99.29c-30.5,0 -54.96,-11.4 -73.61,-34.32 -18.6,-22.9 -27.88,-53.16 -27.88,-90.67 0,-37.5 9.28,-67.77 27.88,-90.66 18.65,-22.9 43.11,-34.33 73.61,-34.33 30.55,0 55.08,11.43 73.6,34.26 18.53,22.86 27.83,53.12 27.83,90.73 0,37.51 -9.3,67.77 -27.83,90.67 -18.52,22.92 -43.05,34.32 -73.6,34.32zm0 -23.81c40.3,0 60.51,-33.74 60.51,-101.18 0,-67.43 -20.21,-101.15 -60.51,-101.15 -40.26,0 -60.36,33.72 -60.36,101.15 0,67.44 20.1,101.18 60.36,101.18z"
   id="path1827" />
  <path
   fill="url(#id6)"
   stroke="#D1D1D1"
   stroke-width="7.62"
   d="M3041.92 7284.19l0 -204.1 49.47 0 69.81 157.97 71.74 -157.97 44.15 0 0 204.1 -33.31 0 0 -165.97 -69.35 152.32 -34.58 0 -67.32 -152.78 0 166.43 -30.61 0zm297.85 -204.1l35.72 0 0 128.8c0,20.51 4.7,35.39 14.04,44.74 9.34,9.34 24.21,13.98 44.62,13.98 19.92,0 34.09,-4.37 42.42,-13.16 8.31,-8.77 12.49,-23.63 12.49,-44.58l0 -129.78 31.28 0 0 129.36c0,17.83 -2.14,31.52 -6.45,41.09 -4.34,9.56 -12.05,17.97 -23.33,25.22 -14.04,9 -33.37,13.52 -57.96,13.52 -31.82,0 -55.25,-6.56 -70.3,-19.59 -15.02,-13.04 -22.53,-33.41 -22.53,-61.1l0 -128.5zm243.36 204.1l0 -204.1 35.71 0 0 182.44 113.21 0 0 21.66 -148.92 0zm245.52 0l0 -182.44 -89.27 0 0 -21.66 214.22 0 0 21.66 -89.26 0 0 182.44 -35.69 0zm160.2 0l0 -204.1 35.69 0 0 204.1 -35.69 0zm93.21 -74.89l0 -16.95 150.97 0 0 16.95 -150.97 0zm397.93 64.38c-24.85,10.43 -51.94,15.6 -81.31,15.6 -39.07,0 -69.29,-9.28 -90.61,-27.88 -21.29,-18.55 -31.97,-44.94 -31.97,-79.12 0,-34.13 10.86,-60.52 32.57,-79.21 21.7,-18.69 52.33,-28.07 91.92,-28.07 22.4,0 48.75,2.97 79.04,8.96l0 27.14c-34.47,-9.64 -61.05,-14.44 -79.74,-14.44 -27.33,0 -48.46,7.5 -63.43,22.46 -14.97,15.01 -22.45,36.14 -22.45,63.44 0,26.14 8,46.65 23.95,61.61 16.02,15.03 37.91,22.5 65.65,22.5 23.74,0 49.16,-5.92 76.38,-17.79l0 24.8zm154.74 15.6c-35.74,0 -64.31,-9.76 -85.68,-29.18 -21.34,-19.44 -32.02,-45.44 -32.02,-77.96 0,-32.53 10.68,-58.5 32.02,-77.94 21.37,-19.45 49.94,-29.2 85.68,-29.2 35.69,0 64.25,9.75 85.6,29.2 21.36,19.44 32.05,45.41 32.05,77.94 0,32.52 -10.69,58.52 -32.05,77.96 -21.35,19.42 -49.91,29.18 -85.6,29.18zm0 -21.67c25,0 44.56,-7.57 58.68,-22.68 14.04,-15.11 21.06,-36.15 21.06,-63.06 0,-26.75 -7.02,-47.64 -21.06,-62.67 -14.12,-15 -33.68,-22.54 -58.68,-22.54 -25.09,0 -44.65,7.54 -58.74,22.54 -14.04,15.03 -21.06,35.92 -21.06,62.67 0,26.91 7.02,47.95 21.06,63.06 14.09,15.11 33.65,22.68 58.74,22.68zm167.61 16.58l0 -204.1 83.64 0c24.95,0 45.11,2.26 60.49,6.78 15.38,4.48 28.67,12.09 39.87,22.87 17.8,17.1 26.68,39.64 26.68,67.56 0,31.52 -10.45,57.1 -31.28,76.67 -11.3,10.78 -24.44,18.5 -39.35,23.21 -14.92,4.67 -33.55,7.01 -55.9,7.01l-84.15 0zm35.71 -21.66l45.73 0c32.67,0 55.82,-7.1 69.42,-21.37 14.61,-15.15 21.94,-35.54 21.94,-61.09 0,-24.01 -7.2,-42.83 -21.6,-56.53 -8.78,-8.38 -19.15,-14.07 -31.28,-17.19 -12.13,-3.05 -30.43,-4.6 -54.79,-4.6l-29.42 0 0 160.78zm225.11 21.66l0 -204.1 140.64 0 0 21.66 -104.92 0 0 65.51 87.92 0 0 21.39 -87.92 0 0 73.88 112.23 0 0 21.66 -147.95 0zm377.86 -10.51c-24.86,10.43 -51.95,15.6 -81.32,15.6 -39.07,0 -69.29,-9.28 -90.61,-27.88 -21.29,-18.55 -31.97,-44.94 -31.97,-79.12 0,-34.13 10.87,-60.52 32.57,-79.21 21.7,-18.69 52.33,-28.07 91.92,-28.07 22.4,0 48.75,2.97 79.04,8.96l0 27.14c-34.47,-9.64 -61.05,-14.44 -79.74,-14.44 -27.33,0 -48.46,7.5 -63.43,22.46 -14.97,15.01 -22.45,36.14 -22.45,63.44 0,26.14 8,46.65 23.95,61.61 16.02,15.03 37.91,22.5 65.65,22.5 23.74,0 49.16,-5.92 76.39,-17.79l0 24.8zm98.21 48.39l0 -25.64c13.58,3.62 25.71,5.4 36.39,5.4 13.34,0 22.76,-3.14 28.15,-9.5 5.4,-6.36 8.06,-17.33 8.06,-32.94l0 -179.3 35.69 0 0 178.31c0,44.38 -25.89,66.6 -77.71,66.6 -7.89,0 -18.11,-0.98 -30.58,-2.93zm169.99 -241.98l35.71 0 0 128.8c0,20.51 4.7,35.39 14.04,44.74 9.34,9.34 24.21,13.98 44.62,13.98 19.92,0 34.09,-4.37 42.43,-13.16 8.31,-8.77 12.49,-23.63 12.49,-44.58l0 -129.78 31.27 0 0 129.36c0,17.83 -2.14,31.52 -6.45,41.09 -4.33,9.56 -12.05,17.97 -23.33,25.22 -14.03,9 -33.36,13.52 -57.96,13.52 -31.82,0 -55.25,-6.56 -70.29,-19.59 -15.02,-13.04 -22.53,-33.41 -22.53,-61.1l0 -128.5zm243.35 204.1l0 -204.1 33.5 0 0 100.39 101.85 -100.39 35.87 0 -98.55 97.34 116.08 106.76 -45.22 0 -110.03 -103.41 0 103.41 -33.5 0zm227.33 0l0 -204.1 140.64 0 0 21.66 -104.93 0 0 65.51 87.92 0 0 21.39 -87.92 0 0 73.88 112.23 0 0 21.66 -147.94 0zm188.74 0l0 -204.1 65.32 0c25.19,0 44.44,3.87 57.91,11.59 13.42,7.7 20.13,18.82 20.13,33.36 0,11.77 -4.47,22.27 -13.45,31.44 -8.95,9.19 -21.7,16.34 -38.24,21.39 41.13,10.21 61.75,28.61 61.75,55.29 0,11.95 -4.54,22.55 -13.6,31.88 -6.97,7.05 -15.25,12.03 -25.01,14.86 -9.75,2.89 -23.32,4.29 -40.61,4.29l-74.2 0zm35.36 -21.66l7.3 0c26.25,0 43.2,-1.32 50.92,-4 14.73,-5.02 22.11,-14.44 22.11,-28.15 0,-12.1 -6.68,-22.21 -20.08,-30.26 -13.41,-8.04 -30.14,-12.04 -50.21,-12.04l-10.04 0 0 74.45zm0 -92.82l11.38 0c19.2,0 34.01,-3.29 44.38,-9.92 10.46,-6.6 15.69,-16.06 15.69,-28.26 0,-19.86 -19.17,-29.78 -57.52,-29.78l-13.93 0 0 67.96zm267.84 119.57c-35.74,0 -64.31,-9.76 -85.68,-29.18 -21.34,-19.44 -32.02,-45.44 -32.02,-77.96 0,-32.53 10.68,-58.5 32.02,-77.94 21.37,-19.45 49.94,-29.2 85.68,-29.2 35.69,0 64.26,9.75 85.6,29.2 21.37,19.44 32.05,45.41 32.05,77.94 0,32.52 -10.68,58.52 -32.05,77.96 -21.34,19.42 -49.91,29.18 -85.6,29.18zm0 -21.67c25.01,0 44.57,-7.57 58.68,-22.68 14.04,-15.11 21.06,-36.15 21.06,-63.06 0,-26.75 -7.02,-47.64 -21.06,-62.67 -14.11,-15 -33.67,-22.54 -58.68,-22.54 -25.08,0 -44.64,7.54 -58.74,22.54 -14.03,15.03 -21.05,35.92 -21.05,62.67 0,26.91 7.02,47.95 21.05,63.06 14.1,15.11 33.66,22.68 58.74,22.68zm137.86 16.58l83.5 -102.43 -79.45 -101.67 42.14 0 60.64 76.87 63.62 -76.87 33.6 0 -80.44 98.57 82.47 105.53 -42.14 0 -64.02 -80.91 -66.09 80.91 -33.83 0z"
   id="path1829" />
  <path
   fill="url(#id7)"
   stroke="#000000"
   stroke-width="18"
   stroke-linejoin="bevel"
   d="M5000 11790.2l280.41 -280.41 -560.83 0 280.42 280.41zm2283.64 -2300.29l-134.48 0 0 206.77 -206.76 -206.77 0 202.94 -202.94 -202.94 0 560.83 202.94 -202.94 0 202.94 206.76 -206.77 0 206.77 134.48 0 0 -560.83m-4567.28 560.83l134.47 0 0 -206.77 206.77 206.77 0 -202.94 202.93 202.94 0 -560.83 -202.93 202.94 0 -202.94 -206.77 206.77 0 -206.77 -134.47 0 0 560.83m2283.64 -2300.28l-280.42 280.41 560.83 0 -280.41 -280.41z"
   id="path1831" />
  <path
   fill="url(#id8)"
   stroke="#000000"
   stroke-width="18"
   stroke-linejoin="bevel"
   d="M3296.37 9134.08l285.88 106.77c70.85,26.46 110.02,102.39 90.53,175.46 -61.89,231.98 -61.89,476.13 0,708.11 19.49,73.07 -19.68,149 -90.53,175.46l-285.88 106.77c-38.42,14.35 -69.09,44.12 -84.59,82.08 -15.5,37.96 -14.43,80.68 2.97,117.82 195.61,417.63 531.44,753.46 949.06,949.07 37.14,17.39 79.86,18.46 117.83,2.96 37.95,-15.5 67.72,-46.17 82.07,-84.59l106.77 -285.88c26.46,-70.85 102.39,-110.02 175.46,-90.53 231.98,61.89 476.13,61.89 708.11,0 73.07,-19.49 149,19.68 175.46,90.53l106.77 285.88c14.35,38.42 44.12,69.09 82.08,84.59 37.96,15.5 80.68,14.43 117.82,-2.96 417.63,-195.61 753.46,-531.44 949.07,-949.07 17.39,-37.14 18.47,-79.87 2.97,-117.82 -15.5,-37.97 -46.18,-67.73 -84.59,-82.08l-285.89 -106.77c-70.84,-26.46 -110.02,-102.39 -90.53,-175.46 61.89,-231.98 61.89,-476.13 0,-708.11 -19.49,-73.07 19.69,-149 90.53,-175.46l285.89 -106.77c38.41,-14.35 69.09,-44.11 84.59,-82.07 15.5,-37.96 14.42,-80.69 -2.97,-117.83 -195.61,-417.62 -531.44,-753.45 -949.07,-949.06 -37.14,-17.39 -79.86,-18.46 -117.82,-2.96 -37.96,15.5 -67.73,46.17 -82.08,84.59l-106.77 285.88c-26.46,70.85 -102.39,110.01 -175.46,90.52 -231.98,-61.88 -476.13,-61.88 -708.11,0 -73.07,19.49 -149,-19.67 -175.46,-90.52l-106.77 -285.88c-14.35,-38.42 -44.12,-69.09 -82.07,-84.59 -37.97,-15.5 -80.69,-14.43 -117.83,2.96 -417.62,195.61 -753.45,531.44 -949.06,949.06 -17.4,37.14 -18.48,79.86 -2.97,117.83 15.5,37.96 46.17,67.72 84.59,82.07zm2748.21 636.29c0,-576.91 -467.67,-1044.59 -1044.58,-1044.59 -576.91,0 -1044.59,467.68 -1044.59,1044.59 0,576.9 467.68,1044.58 1044.59,1044.58 576.91,0 1044.58,-467.68 1044.58,-1044.58z"
   id="path1833" />
  <path
   fill="#EB7373"
   stroke="#C2C2C2"
   stroke-width="18"
   stroke-linejoin="bevel"
   d="M7220.38 9070.95c18.95,31.85 60.13,42.31 91.99,23.37 31.85,-18.95 42.31,-60.13 23.37,-91.99 -120.82,-203.13 -267.62,-389.63 -436.69,-554.78 -26.51,-25.9 -69,-25.41 -94.9,1.11 -25.89,26.51 -25.4,69 1.11,94.9 160.72,156.99 300.27,334.29 415.12,527.39"
   id="path1835" />
  <path
   fill="#D7F791"
   stroke="#C2C2C2"
   stroke-width="18"
   stroke-linejoin="bevel"
   d="M2779.61 9070.95c-18.95,31.85 -60.13,42.31 -91.98,23.37 -31.86,-18.95 -42.32,-60.13 -23.37,-91.99 120.81,-203.13 267.61,-389.63 436.68,-554.78 26.51,-25.9 69,-25.41 94.9,1.11 25.9,26.51 25.4,69 -1.11,94.9 -160.72,156.99 -300.27,334.29 -415.12,527.39"
   id="path1837" />
  <path
   fill="url(#id9)"
   d="M4620.5 9436.21l0 0c-1.75,-1.76 -3.38,-3.66 -4.85,-5.67l-71.91 -98.16c-2.65,-5.24 -1.63,-11.59 2.52,-15.75 4.16,-4.15 10.51,-5.17 15.75,-2.52l98.17 71.91c2.01,1.47 3.91,3.1 5.66,4.85l0 0c191.02,-168.2 477.29,-168.2 668.31,0l0 0.02c1.77,-1.76 3.65,-3.39 5.67,-4.87l98.16 -71.91c5.25,-2.65 11.6,-1.63 15.75,2.52 4.15,4.16 5.17,10.51 2.52,15.75l-71.9 98.16c-1.48,2.02 -3.09,3.92 -4.85,5.68 168.19,191.02 168.19,477.27 0,668.29 1.76,1.76 3.37,3.66 4.85,5.68l71.9 98.16c2.65,5.24 1.63,11.6 -2.52,15.75 -4.15,4.15 -10.5,5.17 -15.75,2.52l-98.16 -71.91c-2.01,-1.47 -3.89,-3.1 -5.65,-4.85l-0.02 0c-191.02,168.2 -477.29,168.2 -668.31,0 -1.75,1.75 -3.65,3.38 -5.66,4.85l-98.17 71.91c-5.24,2.65 -11.59,1.63 -15.75,-2.52 -4.15,-4.15 -5.17,-10.51 -2.52,-15.75l71.91 -98.16c1.47,-2.01 3.1,-3.91 4.85,-5.67 -168.2,-191.02 -168.2,-477.29 0,-668.31zm759 668.3l-0.01 0.01c0,0 0,-0.01 0.01,-0.01zm0 -668.29c-0.01,0 -0.01,-0.01 -0.01,-0.01l0.01 0.01z"
   id="path1839" />
  <path
   fill="url(#id10)"
   d="M5944.44 9770.37c0,-521.61 -422.84,-944.45 -944.44,-944.45 -521.61,0 -944.45,422.84 -944.45,944.45 0,521.6 422.84,944.44 944.45,944.44 521.6,0 944.44,-422.84 944.44,-944.44zm-1323.94 -334.16l0 0c-1.75,-1.76 -3.38,-3.66 -4.85,-5.67l-71.91 -98.16c-2.65,-5.24 -1.63,-11.59 2.52,-15.75 4.16,-4.15 10.51,-5.17 15.75,-2.52l98.17 71.91c2.01,1.47 3.91,3.1 5.66,4.85l0 0c191.02,-168.2 477.29,-168.2 668.31,0l0 0.02c1.77,-1.76 3.65,-3.39 5.67,-4.87l98.16 -71.91c5.25,-2.65 11.6,-1.63 15.75,2.52 4.15,4.16 5.17,10.51 2.52,15.75l-71.9 98.16c-1.48,2.02 -3.09,3.92 -4.85,5.68 168.19,191.02 168.19,477.27 0,668.29 1.76,1.76 3.37,3.66 4.85,5.68l71.9 98.16c2.65,5.24 1.63,11.6 -2.52,15.75 -4.15,4.15 -10.5,5.17 -15.75,2.52l-98.16 -71.91c-2.01,-1.47 -3.89,-3.1 -5.65,-4.85l-0.02 0c-191.02,168.2 -477.29,168.2 -668.31,0 -1.75,1.75 -3.65,3.38 -5.66,4.85l-98.17 71.91c-5.24,2.65 -11.59,1.63 -15.75,-2.52 -4.15,-4.15 -5.17,-10.51 -2.52,-15.75l71.91 -98.16c1.47,-2.01 3.1,-3.91 4.85,-5.67 -168.2,-191.02 -168.2,-477.29 0,-668.31zm759 668.3l-0.01 0.01c0,0 0,-0.01 0.01,-0.01zm0 -668.29c-0.01,0 -0.01,-0.01 -0.01,-0.01l0.01 0.01z"
   id="path1841" />
  <path
   fill="#666666"
   stroke="#666666"
   stroke-width="18"
   stroke-linejoin="bevel"
   d="M4724.38 9513.01l-98.16 -71.9c-4.05,-2.96 -7.61,-6.52 -10.57,-10.57l-71.91 -98.16c-2.65,-5.24 -1.63,-11.59 2.52,-15.75 4.16,-4.15 10.51,-5.17 15.75,-2.52l98.17 71.91c4.04,2.96 7.6,6.52 10.56,10.56l71.91 98.17c2.65,5.24 1.63,11.59 -2.52,15.75 -4.16,4.15 -10.51,5.16 -15.75,2.51"
   id="path1843" />
  <path
   fill="#666666"
   stroke="#666666"
   stroke-width="18"
   stroke-linejoin="bevel"
   d="M4742.61 10046l-71.9 98.16c-2.96,4.05 -6.52,7.61 -10.57,10.57l-98.16 71.91c-5.24,2.65 -11.59,1.63 -15.75,-2.52 -4.15,-4.16 -5.17,-10.51 -2.52,-15.75l71.91 -98.17c2.96,-4.04 6.52,-7.6 10.56,-10.56l98.17 -71.91c5.24,-2.65 11.59,-1.63 15.75,2.52 4.15,4.16 5.16,10.51 2.51,15.75"
   id="path1845" />
  <path
   fill="#666666"
   stroke="#666666"
   stroke-width="18"
   stroke-linejoin="bevel"
   d="M5275.61 10027.7l98.17 71.9c4.04,2.96 7.6,6.52 10.57,10.57l71.9 98.16c2.65,5.24 1.63,11.6 -2.52,15.75 -4.15,4.15 -10.5,5.17 -15.75,2.52l-98.16 -71.91c-4.04,-2.96 -7.61,-6.52 -10.57,-10.56l-71.9 -98.17c-2.65,-5.24 -1.64,-11.59 2.52,-15.75 4.15,-4.15 10.5,-5.16 15.74,-2.51"
   id="path1847" />
  <path
   fill="#666666"
   stroke="#666666"
   stroke-width="18"
   stroke-linejoin="bevel"
   d="M5257.32 9494.79l71.9 -98.17c2.96,-4.04 6.52,-7.6 10.57,-10.57l98.16 -71.9c5.24,-2.65 11.6,-1.63 15.75,2.52 4.15,4.15 5.17,10.5 2.52,15.75l-71.91 98.16c-2.96,4.04 -6.52,7.61 -10.56,10.57l-98.17 71.9c-5.24,2.65 -11.59,1.64 -15.75,-2.52 -4.15,-4.15 -5.16,-10.5 -2.51,-15.74"
   id="path1849" />
  <path
   fill="none"
   stroke="#FFFFFF"
   stroke-width="15"
   stroke-linejoin="bevel"
   d="M8861.52 1050.15c81.12,0 146.88,65.76 146.88,146.88l0 10820.4c0,204.25 -151.02,377.02 -353.43,404.34 -2425.66,327.34 -4884.29,327.34 -7309.94,0 -202.41,-27.32 -353.44,-200.09 -353.44,-404.34l0 -10820.4c0,-81.12 65.76,-146.88 146.88,-146.88"
   id="path1851" />
  <path
   fill="#465E50"
   stroke="#000000"
   stroke-width="18"
   stroke-linejoin="bevel"
   d="M1990.17 2023.22l6019.65 0c81.12,0 146.88,65.76 146.88,146.88l0 4663.1c0,81.12 -65.76,146.88 -146.88,146.88l-6019.65 0c-81.12,0 -146.88,-65.76 -146.88,-146.88l0 -4663.1c0,-81.12 65.76,-146.88 146.88,-146.88"
   id="path1853" />
  <path
   fill="none"
   stroke="#FFFFFF"
   stroke-width="35"
   stroke-linejoin="bevel"
   d="M4519.31 14079l-55.29 0c-9.89,0 -19.24,-4.48 -25.44,-12.19 -6.19,-7.71 -8.56,-17.81 -6.43,-27.47l27.31 -123.98c3.3,-14.96 16.55,-25.62 31.88,-25.62l88.63 0c123.03,0 231.96,79.49 269.51,196.65l104.59 326.4c9.54,26.6 25.69,50.32 46.94,68.95 7.7,6.76 17.4,10.83 27.62,11.6l17.89 0c7.99,-0.46 15.47,-4.03 20.85,-9.95 5.93,-5.96 11.42,-12.35 16.41,-19.12l312.51 -435.26c52.84,-80.59 140.13,-132.05 236.23,-139.27l121.31 0c9.89,0 19.26,4.49 25.45,12.2 6.19,7.7 8.56,17.81 6.43,27.47l-8.52 38.67c-1.3,6.34 1.69,12.79 7.36,15.91 5.67,3.12 12.72,2.18 17.38,-2.31 52.7,-53.64 123.09,-86.31 198.07,-91.94l530.55 0c72.42,0.91 144.09,14.79 211.61,40.99 41.34,17.14 72.31,52.6 83.73,95.87 12.48,86.53 -12.13,174.33 -67.77,241.75 -55.64,67.44 -137.16,108.27 -224.49,112.45l-465.32 0c-9.89,0 -19.25,-4.49 -25.44,-12.19 -6.19,-7.71 -8.57,-17.81 -6.44,-27.47l27.31 -123.98c3.3,-14.96 16.56,-25.62 31.88,-25.62l446.27 0c12.53,-0.68 24.56,-5.13 34.52,-12.77 12.1,-16.1 17.49,-36.25 15.05,-56.24 -1.15,-16.66 -12.51,-30.86 -28.51,-35.64 -14.87,-4.42 -30.22,-7.06 -45.72,-7.89l-451.57 0c-57.08,3.08 -106.74,40.12 -125.95,93.96 -21.86,68.44 -37.11,138.82 -45.54,210.18 -0.47,18.63 2.11,37.21 7.64,55.01 6.06,23.35 24.15,41.67 47.42,48.03 12.93,3.78 26.22,6.18 39.66,7.16l917.71 0c56.97,0 110.46,-27.44 143.68,-73.72l63.77 -88.81c52.84,-80.59 140.13,-132.05 236.23,-139.27l698.14 0c12.53,-0.68 24.57,-5.13 34.53,-12.77 12.09,-16.1 17.49,-36.25 15.04,-56.24 -1.14,-16.66 -12.5,-30.86 -28.5,-35.64 -14.88,-4.42 -30.23,-7.06 -45.72,-7.89l-1012.25 0c-9.89,0 -19.25,-4.49 -25.44,-12.19 -6.19,-7.71 -8.56,-17.81 -6.43,-27.47l27.31 -123.98c3.29,-14.96 16.55,-25.62 31.87,-25.62l998.26 0c72.42,0.91 144.09,14.79 211.6,40.99 41.34,17.14 72.31,52.6 83.74,95.87 12.48,86.53 -12.14,174.32 -67.78,241.75 -55.64,67.43 -137.16,108.27 -224.49,112.45l-543.06 0c-13.79,0.37 -26.82,6.39 -36.03,16.65 -4.62,5.14 -7.79,11.43 -9.18,18.2 -1.38,6.77 -1.06,13.78 0.95,20.39 0.21,0.7 0.42,1.41 0.64,2.11 6.05,23.35 24.14,41.67 47.41,48.03 12.93,3.78 26.23,6.18 39.66,7.16l667.93 0c9.89,0 19.25,4.49 25.44,12.2 6.19,7.69 8.56,17.81 6.43,27.46l-27.31 123.98c-3.3,14.97 -16.56,25.62 -31.88,25.62l-728.43 0c-95.76,-8.79 -182.04,-61.5 -233.58,-142.7 -5.49,-8.65 -14.72,-14.22 -24.93,-15.04 -10.21,-0.83 -20.22,3.19 -27.02,10.85 -6.56,6.48 -12.39,13.66 -17.39,21.41 -52.56,71.67 -133.32,117.35 -221.82,125.48l-1036.53 0c-48.92,-4.49 -96.09,-20.54 -137.6,-46.83 -54.15,-45.92 -83.85,-111.66 -80.04,-182.56 5.22,-112.65 24.65,-224.19 57.83,-331.96 3.05,-9.9 1.21,-20.67 -4.94,-29 -6.15,-8.33 -15.9,-13.25 -26.26,-13.25l-16.32 0c-56.97,0 -110.45,27.44 -143.68,73.72l-290.35 404.4c-53.62,73.12 -144.87,118.69 -235.29,125.48l-86.51 0c-27.33,-3.67 -52.46,-16.93 -70.91,-37.41 -27.01,-30.46 -47.75,-65.95 -61.05,-104.42l-108.59 -338.86c-23.46,-73.23 -91.54,-122.91 -168.44,-122.91z"
   id="path1855" />
  <path
   fill="none"
   stroke="#FFFFFF"
   stroke-width="35"
   stroke-linejoin="bevel"
   d="M4256.5 13850.1c-2.13,9.66 0.24,19.77 6.43,27.47 6.19,7.71 15.55,12.19 25.44,12.19l150.5 0c15.32,0 28.58,-10.65 31.88,-25.61l27.31 -123.98c2.13,-9.66 -0.24,-19.77 -6.43,-27.47 -6.19,-7.71 -15.56,-12.2 -25.45,-12.2l-150.49 0c-15.33,0 -28.58,10.66 -31.88,25.62l-27.31 123.98z"
   id="path1857" />
  <path
   fill="none"
   stroke="#FFFFFF"
   stroke-width="35"
   stroke-linejoin="bevel"
   d="M1962.79 13889.7l150.5 0c15.32,0 28.58,-10.65 31.87,-25.61l27.32 -123.98c2.12,-9.66 -0.25,-19.76 -6.44,-27.47 -6.19,-7.7 -15.55,-12.2 -25.44,-12.2l-150.5 0c-15.32,0 -28.58,10.66 -31.87,25.62l-27.31 123.98c-2.13,9.66 0.23,19.76 6.43,27.47 6.19,7.71 15.55,12.19 25.44,12.19z"
   id="path1859" />
  <path
   fill="none"
   stroke="#FFFFFF"
   stroke-width="35"
   stroke-linejoin="bevel"
   d="M2106.56 14039.3c-2.12,9.66 0.25,19.76 6.44,27.47 6.19,7.7 15.55,12.19 25.44,12.19l150.5 0c15.32,0 28.58,-10.65 31.87,-25.61l27.32 -123.98c2.12,-9.66 -0.24,-19.76 -6.44,-27.47 -6.19,-7.71 -15.55,-12.2 -25.44,-12.2l-150.5 0c-15.32,0 -28.58,10.66 -31.87,25.62l-27.32 123.98z"
   id="path1861" />
  <path
   fill="none"
   stroke="#FFFFFF"
   stroke-width="35"
   stroke-linejoin="bevel"
   d="M2701.62 13889.7l1054.59 0c72.42,0.91 144.09,14.79 211.61,40.99 41.34,17.14 72.31,52.6 83.73,95.87 12.27,85.08 -11.32,171.45 -65.12,238.49 -53.8,67.03 -133.01,108.76 -218.74,115.2l-551.47 0.51c-13.78,0.37 -26.81,6.39 -36.03,16.65 -4.62,5.14 -7.79,11.43 -9.17,18.2 -1.39,6.77 -1.06,13.78 0.94,20.39 0.21,0.7 0.43,1.41 0.64,2.11 6.06,23.35 24.15,41.67 47.42,48.03 12.93,3.78 26.22,6.18 39.66,7.16l763.47 0c19.84,-0.66 39.38,-5.11 57.55,-13.1 23.1,-10.16 40.82,-29.61 48.77,-53.56l70.95 -322.06c3.3,-14.96 16.56,-25.62 31.88,-25.62l150.5 0c9.89,0 19.24,4.49 25.44,12.2 6.19,7.7 8.56,17.81 6.43,27.47l-118.59 538.31c-3.29,14.97 -16.55,25.62 -31.87,25.62l-1092.35 0c-95.77,-8.79 -182.05,-61.5 -233.58,-142.7 -5.49,-8.65 -14.73,-14.22 -24.94,-15.04 -10.21,-0.83 -20.21,3.19 -27.02,10.85 -5.97,6.99 -11.77,14.13 -17.38,21.41 -52.56,71.67 -133.33,117.35 -221.83,125.48l-382.1 0c-9.89,0 -19.26,-4.48 -25.45,-12.19 -6.19,-7.7 -8.56,-17.81 -6.43,-27.47l27.31 -123.98c3.3,-14.96 16.56,-25.62 31.88,-25.62l332.74 0c56.97,0 110.45,-27.44 143.68,-73.72l63.77 -88.81c52.84,-80.59 140.13,-132.05 236.23,-139.27l698.81 0c12.53,-0.68 24.56,-5.13 34.52,-12.77 12.1,-16.1 17.49,-36.25 15.05,-56.24 -1.15,-16.66 -12.51,-30.86 -28.51,-35.64 -14.87,-4.42 -30.22,-7.06 -45.72,-7.89l-1068.58 0c-9.89,0 -19.24,-4.48 -25.44,-12.19 -6.2,-7.71 -8.56,-17.81 -6.43,-27.47l27.31 -123.98c3.29,-14.96 16.55,-25.62 31.87,-25.62z"
   id="path1863" />
  <path
   fill="none"
   stroke="#FFFFFF"
   stroke-width="35"
   stroke-linejoin="bevel"
   d="M2089.09 14118.7l-118.69 538.74c-3.29,14.97 -16.55,25.62 -31.87,25.62l-150.5 0c-9.89,0 -19.25,-4.49 -25.44,-12.19 -6.19,-7.71 -8.56,-17.81 -6.43,-27.47l118.68 -538.75c3.3,-14.96 16.56,-25.62 31.88,-25.62l150.49 0c9.89,0 19.25,4.49 25.45,12.2 6.19,7.7 8.56,17.81 6.43,27.47z"
   id="path1865" />
 </g>
<path
   style="fill:none;fill-opacity:0.75;fill-rule:evenodd;stroke:#7a7a7a;stroke-width:28.22222349;stroke-linecap:butt;stroke-linejoin:miter;stroke-opacity:1;stroke-miterlimit:4;stroke-dasharray:none"
   d="M 7554.3421,9773.6973 L 10029.776,9773.6973"
   id="path1431" /><path
   style="fill:none;fill-opacity:0.75;fill-rule:evenodd;stroke:#7a7a7a;stroke-width:28.22222349;stroke-linecap:butt;stroke-linejoin:miter;stroke-opacity:1;stroke-miterlimit:4;stroke-dasharray:none"
   d="M 2475.4339,9773.6973 L -0.00037054808,9773.6973"
   id="path2308" /><path
   style="fill:none;fill-opacity:0.75;fill-rule:evenodd;stroke:#7a7a7a;stroke-width:28.22222349;stroke-linecap:butt;stroke-linejoin:miter;stroke-opacity:1;stroke-miterlimit:4;stroke-dasharray:none"
   d="M 5078.9078,11907.692 L -42.680271,13017.37"
   id="path2310" /><path
   style="fill:none;fill-opacity:0.75;fill-rule:evenodd;stroke:#7a7a7a;stroke-width:28.22222349;stroke-linecap:butt;stroke-linejoin:miter;stroke-opacity:1;stroke-miterlimit:4;stroke-dasharray:none"
   d="M 4993.548,7639.7022 L -42.680271,5334.9876"
   id="path2312" /><path
   style="fill:none;fill-opacity:0.75;fill-rule:evenodd;stroke:#7a7a7a;stroke-width:28.22222349;stroke-linecap:butt;stroke-linejoin:miter;stroke-opacity:1;stroke-miterlimit:4;stroke-dasharray:none"
   d="M 5121.5877,9773.6973 L 10029.776,14468.486"
   id="path2314" /><text
   xml:space="preserve"
   style="font-size:790.222229px;font-style:normal;font-variant:normal;font-weight:normal;font-stretch:normal;text-align:start;line-height:100%;writing-mode:lr-tb;text-anchor:start;fill:#000000;fill-opacity:1;stroke:none;stroke-width:1px;stroke-linecap:butt;stroke-linejoin:miter;stroke-opacity:1;font-family:URW Palladio L"
   x="-2048.6355"
   y="5292.3081"
   id="text2316"
   sodipodi:linespacing="100%"><tspan
     sodipodi:role="line"
     id="tspan2318"
     x="-2048.6355"
     y="5292.3081">Up</tspan></text>
<text
   xml:space="preserve"
   style="font-size:790.222229px;font-style:normal;font-variant:normal;font-weight:normal;font-stretch:normal;text-align:start;line-height:100%;writing-mode:lr-tb;text-anchor:start;fill:#000000;fill-opacity:1;stroke:none;stroke-width:1px;stroke-linecap:butt;stroke-linejoin:miter;stroke-opacity:1;font-family:URW Palladio L"
   x="-2283.7993"
   y="9990.6211"
   id="text2320"
   sodipodi:linespacing="100%"><tspan
     sodipodi:role="line"
     id="tspan2322"
     x="-2283.7993"
     y="9990.6211">Left</tspan></text>
<text
   xml:space="preserve"
   style="font-size:790.222229px;font-style:normal;font-variant:normal;font-weight:normal;font-stretch:normal;text-align:start;line-height:100%;writing-mode:lr-tb;text-anchor:start;fill:#000000;fill-opacity:1;stroke:none;stroke-width:1px;stroke-linecap:butt;stroke-linejoin:miter;stroke-opacity:1;font-family:URW Palladio L"
   x="-2198.4395"
   y="7557.8667"
   id="text2324"
   sodipodi:linespacing="100%"><tspan
     sodipodi:role="line"
     id="tspan2326"
     x="-2198.4395"
     y="7557.8667">Rec</tspan></text>
<text
   xml:space="preserve"
   style="font-size:790.222229px;font-style:normal;font-variant:normal;font-weight:normal;font-stretch:normal;text-align:start;line-height:100%;writing-mode:lr-tb;text-anchor:start;fill:#000000;fill-opacity:1;stroke:none;stroke-width:1px;stroke-linecap:butt;stroke-linejoin:miter;stroke-opacity:1;font-family:URW Palladio L"
   x="-2369.1592"
   y="13191.614"
   id="text2328"
   sodipodi:linespacing="100%"><tspan
     sodipodi:role="line"
     id="tspan2330"
     x="-2369.1592"
     y="13191.614">Down</tspan></text>
<text
   xml:space="preserve"
   style="font-size:790.222229px;font-style:normal;font-variant:normal;font-weight:normal;font-stretch:normal;text-align:start;line-height:100%;writing-mode:lr-tb;text-anchor:start;fill:#000000;fill-opacity:1;stroke:none;stroke-width:1px;stroke-linecap:butt;stroke-linejoin:miter;stroke-opacity:1;font-family:URW Palladio L"
   x="10306.771"
   y="14770.771"
   id="text2332"
   sodipodi:linespacing="100%"><tspan
     sodipodi:role="line"
     id="tspan2334"
     x="10306.771"
     y="14770.771">Navi</tspan></text>
<text
   xml:space="preserve"
   style="font-size:790.222229px;font-style:normal;font-variant:normal;font-weight:normal;font-stretch:normal;text-align:start;line-height:100%;writing-mode:lr-tb;text-anchor:start;fill:#000000;fill-opacity:1;stroke:none;stroke-width:1px;stroke-linecap:butt;stroke-linejoin:miter;stroke-opacity:1;font-family:URW Palladio L"
   x="10306.771"
   y="7557.8667"
   id="text2336"
   sodipodi:linespacing="100%"><tspan
     sodipodi:role="line"
     id="tspan2338"
     x="10306.771"
     y="7557.8667">A-B</tspan></text>
<text
   xml:space="preserve"
   style="font-size:790.222229px;font-style:normal;font-variant:normal;font-weight:normal;font-stretch:normal;text-align:start;line-height:100%;writing-mode:lr-tb;text-anchor:start;fill:#000000;fill-opacity:1;stroke:none;stroke-width:1px;stroke-linecap:butt;stroke-linejoin:miter;stroke-opacity:1;font-family:URW Palladio L"
   x="10306.771"
   y="5210.4722"
   id="text2340"
   sodipodi:linespacing="100%"><tspan
     sodipodi:role="line"
     id="tspan2342"
     x="10306.771"
     y="5210.4722">Stop</tspan></text>
<text
   xml:space="preserve"
   style="font-size:790.222229px;font-style:normal;font-variant:normal;font-weight:normal;font-stretch:normal;text-align:start;line-height:100%;writing-mode:lr-tb;text-anchor:start;fill:#000000;fill-opacity:1;stroke:none;stroke-width:1px;stroke-linecap:butt;stroke-linejoin:miter;stroke-opacity:1;font-family:URW Palladio L"
   x="10306.771"
   y="2820.3977"
   id="text2344"
   sodipodi:linespacing="100%"><tspan
     sodipodi:role="line"
     id="tspan2346"
     x="10306.771"
     y="2820.3977">Play</tspan></text>
<text
   xml:space="preserve"
   style="font-size:790.222229px;font-style:normal;font-variant:normal;font-weight:normal;font-stretch:normal;text-align:start;line-height:100%;writing-mode:lr-tb;text-anchor:start;fill:#000000;fill-opacity:1;stroke:none;stroke-width:1px;stroke-linecap:butt;stroke-linejoin:miter;stroke-opacity:1;font-family:URW Palladio L"
   x="10331.25"
   y="9999.6924"
   id="text2348"
   sodipodi:linespacing="100%"><tspan
     sodipodi:role="line"
     id="tspan2350"
     x="10331.25"
     y="9999.6924">Left</tspan></text>
<text
   xml:space="preserve"
   style="font-size:790.222229px;font-style:normal;font-variant:normal;font-weight:normal;font-stretch:normal;text-align:start;line-height:100%;writing-mode:lr-tb;text-anchor:start;fill:#000000;fill-opacity:1;stroke:none;stroke-width:1px;stroke-linecap:butt;stroke-linejoin:miter;stroke-opacity:1;font-family:URW Palladio L"
   x="10273.011"
   y="11985.095"
   id="text2352"
   sodipodi:linespacing="100%"><tspan
     sodipodi:role="line"
     id="tspan2354"
     x="10273.011"
     y="11985.095">Hold</tspan></text>
</svg>