<?xml version="1.0" encoding="UTF-8" standalone="no"?>
<!-- Creator: CorelDRAW -->
<svg
   xmlns:dc="http://purl.org/dc/elements/1.1/"
   xmlns:cc="http://web.resource.org/cc/"
   xmlns:rdf="http://www.w3.org/1999/02/22-rdf-syntax-ns#"
   xmlns:svg="http://www.w3.org/2000/svg"
   xmlns="http://www.w3.org/2000/svg"
   xmlns:sodipodi="http://inkscape.sourceforge.net/DTD/sodipodi-0.dtd"
   xmlns:inkscape="http://www.inkscape.org/namespaces/inkscape"
   xml:space="preserve"
   width="102mm"
   height="170mm"
   shape-rendering="geometricPrecision"
   text-rendering="geometricPrecision"
   image-rendering="optimizeQuality"
   fill-rule="evenodd"
   viewBox="0 0 10200 17000"
   id="svg2"
   sodipodi:version="0.32"
   inkscape:version="0.43"
   sodipodi:docname="h300-front.svg"
   sodipodi:docbase="/home/martin/src/dev/rockbox-devel/manual/rockbox_interface/images"><metadata
   id="metadata227"><rdf:RDF><cc:Work
       rdf:about=""><dc:format>image/svg+xml</dc:format><dc:type
         rdf:resource="http://purl.org/dc/dcmitype/StillImage" /></cc:Work></rdf:RDF></metadata><defs
   id="defs225" /><sodipodi:namedview
   inkscape:window-height="572"
   inkscape:window-width="746"
   inkscape:pageshadow="2"
   inkscape:pageopacity="0.0"
   borderopacity="1.0"
   bordercolor="#666666"
   pagecolor="#ffffff"
   id="base"
   inkscape:zoom="0.6690327"
   inkscape:cx="257.27453"
   inkscape:cy="265.22974"
   inkscape:window-x="154"
   inkscape:window-y="30"
   inkscape:current-layer="svg2" />
 <g
   id="Ebene_x0020_1">
  <defs
   id="defs5">
   <linearGradient
   id="id0"
   gradientUnits="userSpaceOnUse"
   x1="10121"
   y1="2630.33"
   x2="10121"
   y2="1960.59">
    <stop
   offset="0"
   stop-color="#878787"
   id="stop8" />
    <stop
   offset="0.2"
   stop-color="#E8E8E8"
   id="stop10" />
    <stop
   offset="0.8"
   stop-color="#E8E8E8"
   id="stop12" />
    <stop
   offset="1"
   stop-color="#B3B3B3"
   id="stop14" />
   </linearGradient>
   <linearGradient
   id="id1"
   gradientUnits="userSpaceOnUse"
   x1="8514.45"
   y1="125.77"
   x2="7803.89"
   y2="125.77">
    <stop
   offset="0"
   stop-color="#363636"
   id="stop17" />
    <stop
   offset="0.501961"
   stop-color="#757575"
   id="stop19" />
    <stop
   offset="1"
   stop-color="#121212"
   id="stop21" />
   </linearGradient>
   <linearGradient
   id="id2"
   gradientUnits="userSpaceOnUse"
   x1="6966.61"
   y1="102.13"
   x2="6257.53"
   y2="102.13">
    <stop
   offset="0"
   stop-color="#363636"
   id="stop24" />
    <stop
   offset="0.501961"
   stop-color="#757575"
   id="stop26" />
    <stop
   offset="1"
   stop-color="#121212"
   id="stop28" />
   </linearGradient>
   <linearGradient
   id="id3"
   gradientUnits="userSpaceOnUse"
   x1="3975.4"
   y1="100.36"
   x2="3405.66"
   y2="100.36">
    <stop
   offset="0"
   stop-color="#363636"
   id="stop31" />
    <stop
   offset="0.501961"
   stop-color="#757575"
   id="stop33" />
    <stop
   offset="1"
   stop-color="#121212"
   id="stop35" />
   </linearGradient>
   <linearGradient
   id="id4"
   gradientUnits="userSpaceOnUse"
   x1="2526.34"
   y1="123.25"
   x2="1815.76"
   y2="123.25">
    <stop
   offset="0"
   stop-color="#363636"
   id="stop38" />
    <stop
   offset="0.501961"
   stop-color="#757575"
   id="stop40" />
    <stop
   offset="1"
   stop-color="#121212"
   id="stop42" />
   </linearGradient>
   <linearGradient
   id="id5"
   gradientUnits="userSpaceOnUse"
   x1="3424.22"
   y1="11788.6"
   x2="4255.54"
   y2="11788.6">
    <stop
   offset="0"
   stop-color="#262626"
   id="stop45" />
    <stop
   offset="0.160784"
   stop-color="#666666"
   id="stop47" />
    <stop
   offset="0.309804"
   stop-color="#666666"
   id="stop49" />
    <stop
   offset="0.45098"
   stop-color="#383838"
   id="stop51" />
    <stop
   offset="0.560784"
   stop-color="#262626"
   id="stop53" />
    <stop
   offset="0.901961"
   stop-color="#4D4D4D"
   id="stop55" />
    <stop
   offset="1"
   stop-color="#000000"
   id="stop57" />
   </linearGradient>
   <linearGradient
   id="id6"
   gradientUnits="userSpaceOnUse"
   x1="6775.74"
   y1="11788.6"
   x2="5944.42"
   y2="11788.6">
    <stop
   offset="0"
   stop-color="#262626"
   id="stop60" />
    <stop
   offset="0.160784"
   stop-color="#666666"
   id="stop62" />
    <stop
   offset="0.309804"
   stop-color="#666666"
   id="stop64" />
    <stop
   offset="0.45098"
   stop-color="#383838"
   id="stop66" />
    <stop
   offset="0.560784"
   stop-color="#262626"
   id="stop68" />
    <stop
   offset="0.901961"
   stop-color="#4D4D4D"
   id="stop70" />
    <stop
   offset="1"
   stop-color="#000000"
   id="stop72" />
   </linearGradient>
   <linearGradient
   id="id7"
   gradientUnits="userSpaceOnUse"
   x1="5100"
   y1="10509.5"
   x2="5100"
   y2="11340.8">
    <stop
   offset="0"
   stop-color="#262626"
   id="stop75" />
    <stop
   offset="0.160784"
   stop-color="#666666"
   id="stop77" />
    <stop
   offset="0.309804"
   stop-color="#666666"
   id="stop79" />
    <stop
   offset="0.45098"
   stop-color="#383838"
   id="stop81" />
    <stop
   offset="0.560784"
   stop-color="#262626"
   id="stop83" />
    <stop
   offset="0.901961"
   stop-color="#4D4D4D"
   id="stop85" />
    <stop
   offset="1"
   stop-color="#000000"
   id="stop87" />
   </linearGradient>
   <linearGradient
   id="id8"
   gradientUnits="userSpaceOnUse"
   x1="5100"
   y1="13067.8"
   x2="5100"
   y2="12236.5">
    <stop
   offset="0"
   stop-color="#262626"
   id="stop90" />
    <stop
   offset="0.160784"
   stop-color="#666666"
   id="stop92" />
    <stop
   offset="0.309804"
   stop-color="#666666"
   id="stop94" />
    <stop
   offset="0.45098"
   stop-color="#383838"
   id="stop96" />
    <stop
   offset="0.560784"
   stop-color="#262626"
   id="stop98" />
    <stop
   offset="0.901961"
   stop-color="#4D4D4D"
   id="stop100" />
    <stop
   offset="1"
   stop-color="#000000"
   id="stop102" />
   </linearGradient>
   <linearGradient
   id="id9"
   gradientUnits="userSpaceOnUse"
   x1="8385.55"
   y1="7306.81"
   x2="8785.63"
   y2="2733.97">
    <stop
   offset="0"
   stop-color="#6D84AB"
   id="stop105" />
    <stop
   offset="0.239216"
   stop-color="#74EEF7"
   id="stop107" />
    <stop
   offset="0.411765"
   stop-color="#DEDEDE"
   id="stop109" />
    <stop
   offset="0.541176"
   stop-color="#DEDEDE"
   id="stop111" />
    <stop
   offset="0.65098"
   stop-color="#F7A7E8"
   id="stop113" />
    <stop
   offset="0.8"
   stop-color="#FF7154"
   id="stop115" />
    <stop
   offset="1"
   stop-color="#F3F592"
   id="stop117" />
   </linearGradient>
   <linearGradient
   id="id10"
   gradientUnits="userSpaceOnUse"
   x1="78.98"
   y1="3680.15"
   x2="78.98"
   y2="1995.67">
    <stop
   offset="0"
   stop-color="#878787"
   id="stop120" />
    <stop
   offset="0.2"
   stop-color="#E8E8E8"
   id="stop122" />
    <stop
   offset="0.8"
   stop-color="#E8E8E8"
   id="stop124" />
    <stop
   offset="1"
   stop-color="#B3B3B3"
   id="stop126" />
   </linearGradient>
  </defs>
  <path
   d="M10073.4 2630.3l0 -669.71 70.27 0c13.81,0 25,11.19 25,25l0 619.71c0,13.81 -11.19,25 -25,25l-70.27 0z"
   id="path128"
   stroke-linejoin="bevel"
   stroke-width="18"
   stroke="#000000"
   fill="url(#id0)" />
  <path
   d="M8514.45 174.56l-710.55 -25.15 0 -22.43c0,-27.62 22.38,-50 50,-50l610.55 0c27.62,0 50,22.38 50,50l0 47.58z"
   id="path130"
   stroke-linejoin="bevel"
   stroke-width="18"
   stroke="#000000"
   fill="url(#id1)" />
  <path
   d="M6966.61 127.28l-709.07 -12.4c5.56,-22.27 25.57,-37.9 48.52,-37.9l610.55 0c13.32,0 26.08,5.31 35.46,14.75 9.39,9.44 14.62,22.23 14.54,35.55z"
   id="path132"
   stroke-linejoin="bevel"
   stroke-width="18"
   stroke="#000000"
   fill="url(#id2)" />
  <path
   d="M3405.66 123.73l569.72 -9.29c-5.71,-22.06 -25.62,-37.46 -48.4,-37.46l-471.43 0c-26.35,0 -48.18,20.45 -49.89,46.75z"
   id="path134"
   stroke-linejoin="bevel"
   stroke-width="18"
   stroke="#000000"
   fill="url(#id3)" />
  <path
   d="M1815.76 169.51l710.56 -24.08 0 -18.45c0,-27.62 -22.39,-50 -50,-50l-610.56 0c-27.61,0 -50,22.38 -50,50l0 42.53z"
   id="path136"
   stroke-linejoin="bevel"
   stroke-width="18"
   stroke="#000000"
   fill="url(#id4)" />
  <path
   d="M926.63 207.89c-441.83,0 -800,358.17 -800,800l0 15014.4c0,441.83 358.17,800 800,800 2780.62,134.34 5566.12,134.34 8346.75,0 441.82,0 800,-358.17 800,-800l0 -15014.4c0,-441.83 -358.18,-800 -800,-800 -2780.63,-134.35 -5566.13,-134.35 -8346.75,0m6.52 406.74c-131.95,-1.75 -259.1,49.45 -353.03,142.14 -93.92,92.69 -146.8,219.15 -146.8,351.12l0 14814.4c0,131.96 52.88,258.42 146.8,351.12 93.93,92.69 221.08,143.88 353.03,142.14 2776.27,134.4 5557.43,134.4 8333.71,0 131.95,1.74 259.1,-49.45 353.02,-142.14 93.93,-92.7 146.8,-219.16 146.8,-351.12l0 -14814.4c0,-131.97 -52.87,-258.43 -146.8,-351.12 -93.92,-92.69 -221.07,-143.89 -353.02,-142.14 -2776.28,-134.41 -5557.44,-134.41 -8333.71,0"
   id="path138"
   stroke-width="7.62"
   stroke="#000000"
   fill="#2E2E2E" />
  <path
   d="M7992.47 11863.6c-26.52,0 -51.96,10.53 -70.71,29.29l-105.14 105.14c-18.76,18.75 -44.19,29.29 -70.71,29.29l-720.25 0c-55.23,0 -100,44.77 -100,100l0 -163.72c0,-55.23 44.77,-100 100,-100l966.81 0z"
   id="path140"
   stroke-linejoin="bevel"
   stroke-width="18"
   stroke="#949494"
   fill="#262626" />
  <path
   d="M8423.15 12817.8c55.23,0 100,-44.77 100,-100l0 -754.24c0,-55.23 -44.77,-100 -100,-100l-430.68 0c-26.52,0 -51.96,10.53 -70.71,29.29l-105.14 105.14c-18.76,18.75 -44.19,29.29 -70.71,29.29l-720.25 0c-55.23,0 -100,44.77 -100,100l0 590.52c0,55.23 44.77,100 100,100l1397.49 0"
   id="path142"
   stroke-linejoin="bevel"
   stroke-width="18"
   stroke="#949494"
   fill="#2B2B2B" />
  <path
   d="M8423.22 12667.9l0 -654.24c0,-13.26 -5.26,-25.98 -14.64,-35.35 -9.38,-9.38 -22.09,-14.65 -35.36,-14.65l-359.97 0c-13.26,0 -25.97,5.27 -35.35,14.65l-90.5 90.49c-37.5,37.51 -88.38,58.58 -141.42,58.58l-670.25 0c-27.61,0 -50,22.39 -50,50l0 490.52c0,27.62 22.39,50 50,50l1297.49 0c27.62,0 50,-22.38 50,-50"
   id="path144"
   stroke-linejoin="bevel"
   stroke-width="15"
   stroke="#FFFFFF"
   fill="#383838" />
  <path
   d="M2207.45 11863.6c26.52,0 51.96,10.53 70.71,29.29l105.14 105.14c18.76,18.75 44.19,29.29 70.71,29.29l720.25 0c55.23,0 100,44.77 100,100l0 -163.72c0,-55.23 -44.77,-100 -100,-100l-966.81 0z"
   id="path146"
   stroke-linejoin="bevel"
   stroke-width="18"
   stroke="#949494"
   fill="#262626" />
  <path
   d="M1776.77 12817.9c-55.23,0 -100,-44.77 -100,-100l0 -754.24c0,-55.23 44.77,-100 100,-100l430.68 0c26.52,0 51.96,10.53 70.71,29.29l105.14 105.14c18.76,18.75 44.19,29.29 70.71,29.29l720.25 0c55.23,0 100,44.77 100,100l0 590.52c0,55.23 -44.77,100 -100,100l-1397.49 0"
   id="path148"
   stroke-linejoin="bevel"
   stroke-width="18"
   stroke="#949494"
   fill="#2B2B2B" />
  <path
   d="M1776.77 12667.9l0 -654.24c0,-13.26 5.27,-25.98 14.64,-35.35 9.38,-9.38 22.1,-14.65 35.36,-14.65l359.97 0c13.26,0 25.98,5.27 35.36,14.65l90.49 90.49c37.51,37.51 88.38,58.58 141.42,58.58l670.25 0c27.62,0 50,22.39 50,50l0 490.52c0,27.62 -22.38,50 -50,50l-1297.49 0c-27.61,0 -50,-22.38 -50,-50"
   id="path150"
   stroke-linejoin="bevel"
   stroke-width="15"
   stroke="#FFFFFF"
   fill="#383838" />
  <path
   d="M7992.47 11713.6c-26.52,0 -51.96,-10.53 -70.71,-29.29l-105.14 -105.14c-18.76,-18.75 -44.19,-29.29 -70.71,-29.29l-720.25 0c-55.23,0 -100,-44.77 -100,-100l0 163.72c0,55.23 44.77,100 100,100l966.81 0z"
   id="path152"
   stroke-linejoin="bevel"
   stroke-width="18"
   stroke="#949494"
   fill="#262626" />
  <path
   d="M8423.15 10759.3c55.23,0 100,44.77 100,100l0 754.24c0,55.23 -44.77,100 -100,100l-430.68 0c-26.52,0 -51.96,-10.53 -70.71,-29.29l-105.14 -105.14c-18.76,-18.75 -44.19,-29.29 -70.71,-29.29l-720.25 0c-55.23,0 -100,-44.77 -100,-100l0 -590.52c0,-55.23 44.77,-100 100,-100l1397.49 0"
   id="path154"
   stroke-linejoin="bevel"
   stroke-width="18"
   stroke="#949494"
   fill="#2B2B2B" />
  <path
   d="M8423.22 10909.4l0 654.24c0,13.26 -5.26,25.98 -14.64,35.36 -9.38,9.37 -22.09,14.64 -35.36,14.64l-359.97 0c-13.26,0 -25.97,-5.27 -35.35,-14.64l-90.5 -90.5c-37.5,-37.51 -88.38,-58.58 -141.42,-58.58l-670.25 0c-27.61,0 -50,-22.38 -50,-50l0 -490.52c0,-27.61 22.39,-50 50,-50l1297.49 0c27.62,0 50,22.39 50,50"
   id="path156"
   stroke-linejoin="bevel"
   stroke-width="15"
   stroke="#FFFFFF"
   fill="#383838" />
  <path
   d="M1776.77 10759.4c-55.23,0 -100,44.77 -100,100l0 754.24c0,55.23 44.77,100 100,100l430.68 0c26.52,0 51.96,-10.53 70.71,-29.29l105.14 -105.14c18.76,-18.75 44.19,-29.29 70.71,-29.29l720.25 0c55.23,0 100,-44.77 100,-100l0 -590.52c0,-55.23 -44.77,-100 -100,-100l-1397.49 0"
   id="path158"
   stroke-linejoin="bevel"
   stroke-width="18"
   stroke="#949494"
   fill="#2B2B2B" />
  <path
   d="M2207.45 11713.6c26.52,0 51.96,-10.53 70.71,-29.29l105.14 -105.14c18.76,-18.75 44.19,-29.29 70.71,-29.29l720.25 0c55.23,0 100,-44.77 100,-100l0 163.72c0,55.23 -44.77,100 -100,100l-966.81 0z"
   id="path160"
   stroke-linejoin="bevel"
   stroke-width="18"
   stroke="#949494"
   fill="#262626" />
  <path
   d="M1776.77 10909.4l0 654.24c0,13.26 5.27,25.98 14.64,35.36 9.38,9.37 22.1,14.64 35.36,14.64l359.97 0c13.26,0 25.98,-5.27 35.36,-14.64l90.49 -90.5c37.51,-37.51 88.38,-58.58 141.42,-58.58l670.25 0c27.62,0 50,-22.38 50,-50l0 -490.52c0,-27.61 -22.38,-50 -50,-50l-1297.49 0c-27.61,0 -50,22.39 -50,50"
   id="path162"
   stroke-linejoin="bevel"
   stroke-width="15"
   stroke="#FFFFFF"
   fill="#383838" />
  <path
   d="M933.15 614.63c-131.95,-1.75 -259.1,49.45 -353.03,142.14 -93.92,92.69 -146.8,219.15 -146.8,351.12l0 14814.4c0,131.96 52.88,258.42 146.8,351.12 93.93,92.69 221.08,143.88 353.03,142.14 2776.27,134.4 5557.43,134.4 8333.71,0 131.95,1.74 259.1,-49.45 353.02,-142.14 93.93,-92.7 146.8,-219.16 146.8,-351.12l0 -14814.4c0,-131.97 -52.87,-258.43 -146.8,-351.12 -93.92,-92.69 -221.07,-143.89 -353.02,-142.14 -2776.28,-134.41 -5557.44,-134.41 -8333.71,0zm2341.11 9894.77c0,55.23 -44.77,100 -100,100l-1547.49 0c-55.23,0 -100,44.77 -100,100l0 2158.48c0,55.23 44.77,100 100,100l1547.49 0c55.23,0 100,44.77 100,100l0 49.87c0,55.23 44.77,100 100,100l3451.47 0c55.23,0 100,-44.77 100,-100l0 -49.87c0,-55.23 44.77,-100 100,-100l1547.49 0c55.23,0 100,-44.77 100,-100l0 -2158.48c0,-55.23 -44.77,-100 -100,-100l-1547.49 0c-55.23,0 -100,-44.77 -100,-100l0 -49.87c0,-55.23 -44.77,-100 -100,-100l-3451.47 0c-55.23,0 -100,44.77 -100,100l0 49.87zm-1853.38 -8666.69l7358.23 0c110.46,0 200,89.55 200,200l0 5870.81c0,110.46 -89.54,200 -200,200l-7358.23 0c-110.45,0 -199.99,-89.54 -199.99,-200l0 -5870.81c0,-110.45 89.54,-200 199.99,-200"
   id="path164"
   stroke-linejoin="bevel"
   stroke-width="18"
   stroke="#949494"
   fill="#383838" />
  <path
   d="M1594.06 2399.23l6502.99 0 0 5181.64 -6502.99 0 0 -5181.64m-173.18 -556.52l7358.23 0c110.46,0 200,89.55 200,200l0 5870.81c0,110.46 -89.54,200 -200,200l-7358.23 0c-110.45,0 -199.99,-89.54 -199.99,-200l0 -5870.81c0,-110.45 89.54,-200 199.99,-200"
   id="path166"
   stroke-linejoin="bevel"
   stroke-width="18"
   stroke="#949494"
   fill="#707070" />
  <path
   d="M3274.26 10509.4c0,55.23 -44.77,100 -100,100l-1547.49 0c-55.23,0 -100,44.77 -100,100l0 2158.48c0,55.23 44.77,100 100,100l1547.49 0c55.23,0 100,44.77 100,100l0 49.87c0,55.23 44.77,100 100,100l3451.47 0c55.23,0 100,-44.77 100,-100l0 -49.87c0,-55.23 44.77,-100 100,-100l1547.49 0c55.23,0 100,-44.77 100,-100l0 -2158.48c0,-55.23 -44.77,-100 -100,-100l-1547.49 0c-55.23,0 -100,-44.77 -100,-100l0 -49.87c0,-55.23 -44.77,-100 -100,-100l-3451.47 0c-55.23,0 -100,44.77 -100,100l0 49.87zm3751.47 1354.24c-55.23,0 -100,44.77 -100,100l0 754.24c0,55.23 44.77,100 100,100l1397.49 0c55.23,0 100,-44.77 100,-100l0 -754.24 0 0c0,-55.23 -44.77,-100 -100,-100l-1397.49 0zm0 -1104.24c-55.23,0 -100,44.77 -100,100l0 754.24c0,55.23 44.77,100 100,100l1397.49 0c55.23,0 100,-44.77 100,-100l0 -754.24 0 0c0,-55.23 -44.77,-100 -100,-100l-1397.49 0zm-5248.96 1104.24c-55.23,0 -100,44.77 -100,100l0 754.24c0,55.23 44.77,100 100,100l1397.49 0c55.23,0 100,-44.77 100,-100l0 -754.24 0 0c0,-55.23 -44.77,-100 -100,-100l-1397.49 0zm0 -1104.24c-55.23,0 -100,44.77 -100,100l0 754.24c0,55.23 44.77,100 100,100l1397.49 0c55.23,0 100,-44.77 100,-100l0 -754.24 0 0c0,-55.23 -44.77,-100 -100,-100l-1397.49 0zm1747.49 -249.87l3151.47 0c55.23,0 100,44.77 100,100l0 2358.22c0,55.23 -44.77,100 -100,100l-3151.47 0c-55.23,0 -100,-44.77 -100,-100l0 -2358.22c0,-55.23 44.77,-100 100,-100"
   id="path168"
   stroke-linejoin="bevel"
   stroke-width="18"
   stroke="#000000"
   fill="#D1D1D1" />
  <path
   d="M4326.25 11311.5l1547.49 0c55.23,0 100,44.77 100,100l0 754.24c0,55.23 -44.77,100 -100,100l-1547.49 0c-55.23,0 -100,-44.77 -100,-100l0 -754.24c0,-55.23 44.77,-100 100,-100"
   id="path170"
   stroke-linejoin="bevel"
   stroke-width="18"
   stroke="#3A3854"
   fill="#363D9E" />
  <path
   d="M4376.24 11411.5l1447.49 0c27.62,0 50,22.38 50,50l0 654.24c0,27.61 -22.38,50 -50,50l-1447.49 0c-27.61,0 -50,-22.39 -50,-50l0 -654.24c0,-27.62 22.39,-50 50,-50"
   id="path172"
   stroke-linejoin="bevel"
   stroke-width="15"
   stroke="#FFFFFF"
   fill="#4E57D4" />
  <path
   d="M4255.53 12236.5l-801.98 801.98c-18.12,-18.1 -29.33,-43.12 -29.33,-70.75l0 -2358.22c0,-27.68 11.26,-52.72 29.44,-70.83l-0.11 0.16 801.95 801.95c-18.1,18.1 -29.29,43.09 -29.29,70.71l0 754.24c0,27.64 11.2,52.66 29.32,70.76z"
   id="path174"
   fill="url(#id5)" />
  <path
   d="M5944.43 12236.5l801.98 801.98c18.12,-18.1 29.33,-43.12 29.33,-70.75l0 -2358.22c0,-27.68 -11.26,-52.72 -29.44,-70.83l0.11 0.16 -801.95 801.95c18.1,18.1 29.29,43.09 29.29,70.71l0 754.24c0,27.64 -11.2,52.66 -29.32,70.76z"
   id="path176"
   fill="url(#id6)" />
  <path
   d="M4326.25 11311.5l1547.49 0c27.62,0 52.61,11.19 70.71,29.29l801.99 -801.99c-18.1,-18.1 -43.09,-29.29 -70.71,-29.29l-3151.47 0c-27.62,0 -52.61,11.19 -70.71,29.29l801.98 801.98c18.1,-18.1 43.11,-29.28 70.72,-29.28z"
   id="path178"
   fill="url(#id7)" />
  <path
   d="M4326.25 12265.8l1547.49 0c27.62,0 52.61,-11.19 70.71,-29.29l801.99 801.99c-18.1,18.1 -43.09,29.29 -70.71,29.29l-3151.47 0c-27.62,0 -52.61,-11.19 -70.71,-29.29l801.98 -801.98c18.1,18.1 43.11,29.28 70.72,29.28z"
   id="path180"
   fill="url(#id8)" />
  <path
   d="M1594.06 2399.23l6502.99 0 0 5181.64 -6502.99 0 0 -5181.64"
   id="path182"
   stroke-linejoin="bevel"
   stroke-width="18"
   stroke="#FFFFFF"
   fill="#8CABAD" />
  <g
   id="g184">
   <path
   d="M4804.99 15023.6l-31 0c-5.54,0 -10.79,-2.51 -14.26,-6.83 -3.47,-4.33 -4.8,-9.99 -3.61,-15.41l15.32 -69.51c1.85,-8.39 9.27,-14.36 17.87,-14.36l49.69 0c68.99,0 130.06,44.56 151.12,110.25l58.64 183.01c5.35,14.91 14.4,28.21 26.32,38.66 4.31,3.79 9.75,6.07 15.48,6.5l10.03 0c4.48,-0.25 8.68,-2.26 11.69,-5.58 3.33,-3.34 6.41,-6.92 9.2,-10.72l175.22 -244.04c29.63,-45.18 78.57,-74.04 132.46,-78.08l68.01 0c5.55,0 10.8,2.51 14.27,6.84 3.47,4.31 4.8,9.98 3.61,15.4l-4.78 21.68c-0.73,3.55 0.95,7.17 4.13,8.92 3.18,1.75 7.13,1.22 9.74,-1.3 29.55,-30.07 69.02,-48.39 111.06,-51.54l297.47 0c40.61,0.51 80.79,8.29 118.65,22.98 23.18,9.61 40.54,29.49 46.94,53.75 7,48.52 -6.8,97.74 -37.99,135.55 -31.2,37.81 -76.91,60.7 -125.87,63.04l-260.9 0c-5.55,0 -10.79,-2.51 -14.27,-6.83 -3.47,-4.32 -4.8,-9.99 -3.61,-15.4l15.32 -69.52c1.85,-8.38 9.28,-14.36 17.87,-14.36l250.22 0c7.02,-0.38 13.77,-2.88 19.35,-7.16 6.79,-9.03 9.81,-20.33 8.44,-31.53 -0.64,-9.34 -7.01,-17.31 -15.98,-19.99 -8.34,-2.47 -16.95,-3.95 -25.64,-4.42l-253.19 0c-32,1.73 -59.85,22.49 -70.62,52.68 -12.25,38.38 -20.8,77.84 -25.53,117.85 -0.26,10.44 1.18,20.86 4.28,30.84 3.4,13.09 13.54,23.36 26.59,26.93 7.25,2.12 14.7,3.46 22.24,4.01l514.55 0c31.94,0 61.93,-15.38 80.56,-41.33l35.75 -49.79c29.63,-45.19 78.57,-74.04 132.45,-78.09l391.44 0c7.03,-0.38 13.78,-2.88 19.36,-7.16 6.78,-9.03 9.81,-20.33 8.44,-31.53 -0.64,-9.34 -7.01,-17.31 -15.98,-19.99 -8.35,-2.47 -16.95,-3.95 -25.64,-4.42l-567.55 0c-5.55,0 -10.8,-2.52 -14.27,-6.83 -3.47,-4.33 -4.8,-9.99 -3.6,-15.41l15.31 -69.51c1.84,-8.39 9.28,-14.36 17.87,-14.36l559.71 0c40.61,0.51 80.79,8.29 118.64,22.98 23.18,9.61 40.55,29.49 46.95,53.75 7,48.52 -6.8,97.74 -38,135.55 -31.2,37.8 -76.9,60.7 -125.87,63.04l-304.49 0c-7.73,0.21 -15.03,3.59 -20.2,9.34 -2.59,2.88 -4.37,6.41 -5.14,10.2 -0.78,3.8 -0.6,7.73 0.53,11.44 0.12,0.39 0.23,0.79 0.36,1.18 3.39,13.09 13.53,23.36 26.58,26.93 7.25,2.12 14.71,3.46 22.24,4.01l374.5 0c5.54,0 10.79,2.52 14.26,6.84 3.47,4.32 4.8,9.99 3.61,15.4l-15.32 69.51c-1.85,8.4 -9.28,14.37 -17.87,14.37l-408.42 0c-53.69,-4.93 -102.07,-34.48 -130.97,-80.01 -3.08,-4.85 -8.25,-7.97 -13.98,-8.43 -5.72,-0.47 -11.33,1.79 -15.15,6.08 -3.67,3.63 -6.94,7.66 -9.75,12 -29.47,40.19 -74.75,65.8 -124.37,70.36l-581.17 0c-27.43,-2.52 -53.88,-11.52 -77.15,-26.26 -30.36,-25.74 -47.01,-62.6 -44.88,-102.36 2.93,-63.16 13.82,-125.7 32.43,-186.12 1.71,-5.55 0.68,-11.59 -2.77,-16.26 -3.45,-4.67 -8.92,-7.43 -14.73,-7.43l-9.15 0c-31.94,0 -61.92,15.39 -80.56,41.33l-162.79 226.74c-30.07,41 -81.23,66.55 -131.93,70.36l-48.5 0c-15.33,-2.06 -29.42,-9.49 -39.76,-20.98 -15.14,-17.07 -26.77,-36.97 -34.23,-58.54l-60.89 -190c-13.15,-41.06 -51.32,-68.91 -94.44,-68.91z"
   id="path186"
   fill="#D1D1D1" />
   <path
   d="M4657.64 14895.2c-1.2,5.41 0.13,11.08 3.6,15.4 3.47,4.32 8.72,6.84 14.27,6.84l84.38 0c8.59,0 16.03,-5.98 17.88,-14.36l15.31 -69.52c1.19,-5.41 -0.14,-11.08 -3.61,-15.4 -3.47,-4.32 -8.72,-6.84 -14.27,-6.84l-84.37 0c-8.6,0 -16.03,5.98 -17.88,14.36l-15.31 69.52z"
   id="path188"
   fill="#D1D1D1" />
   <path
   d="M3371.58 14917.5l84.39 0c8.59,0 16.02,-5.98 17.86,-14.36l15.32 -69.52c1.19,-5.41 -0.14,-11.08 -3.61,-15.4 -3.47,-4.32 -8.72,-6.84 -14.26,-6.84l-84.39 0c-8.59,0 -16.02,5.98 -17.86,14.36l-15.32 69.52c-1.19,5.41 0.13,11.08 3.61,15.4 3.47,4.32 8.72,6.84 14.26,6.84z"
   id="path190"
   fill="#D1D1D1" />
   <path
   d="M3452.19 15001.3c-1.19,5.42 0.14,11.08 3.61,15.41 3.47,4.31 8.72,6.83 14.27,6.83l84.38 0c8.59,0 16.03,-5.97 17.87,-14.36l15.32 -69.51c1.19,-5.42 -0.14,-11.08 -3.61,-15.4 -3.47,-4.33 -8.72,-6.84 -14.27,-6.84l-84.38 0c-8.59,0 -16.03,5.97 -17.87,14.36l-15.32 69.51z"
   id="path192"
   fill="#D1D1D1" />
   <path
   d="M3785.84 14917.5l591.29 0c40.61,0.51 80.79,8.29 118.65,22.98 23.18,9.61 40.54,29.49 46.95,53.75 6.87,47.7 -6.35,96.13 -36.52,133.72 -30.16,37.58 -74.57,60.98 -122.64,64.59l-309.2 0.28c-7.73,0.21 -15.04,3.59 -20.21,9.34 -2.59,2.88 -4.36,6.41 -5.14,10.2 -0.78,3.8 -0.59,7.73 0.53,11.44 0.12,0.39 0.24,0.79 0.36,1.18 3.4,13.09 13.54,23.36 26.59,26.93 7.25,2.12 14.7,3.46 22.23,4.01l428.07 0c11.13,-0.37 22.08,-2.86 32.27,-7.34 12.95,-5.7 22.89,-16.6 27.34,-30.03l39.78 -180.58c1.86,-8.38 9.29,-14.36 17.88,-14.36l84.38 0c5.55,0 10.79,2.52 14.27,6.84 3.47,4.32 4.8,9.99 3.6,15.4l-66.49 301.82c-1.84,8.4 -9.28,14.37 -17.87,14.37l-612.47 0c-53.69,-4.93 -102.07,-34.48 -130.96,-80.01 -3.08,-4.85 -8.26,-7.97 -13.99,-8.43 -5.72,-0.47 -11.33,1.79 -15.15,6.08 -3.34,3.92 -6.59,7.92 -9.74,12 -29.47,40.19 -74.76,65.8 -124.38,70.36l-214.24 0c-5.54,0 -10.8,-2.51 -14.27,-6.84 -3.47,-4.31 -4.8,-9.98 -3.6,-15.4l15.31 -69.51c1.85,-8.39 9.29,-14.37 17.88,-14.37l186.56 0c31.94,0 61.93,-15.38 80.56,-41.33l35.75 -49.79c29.63,-45.19 78.57,-74.04 132.46,-78.09l391.81 0c7.03,-0.38 13.77,-2.88 19.35,-7.16 6.79,-9.03 9.81,-20.33 8.44,-31.53 -0.64,-9.34 -7.01,-17.31 -15.98,-19.99 -8.34,-2.47 -16.95,-3.95 -25.64,-4.42l-599.14 0c-5.54,0 -10.78,-2.51 -14.26,-6.83 -3.48,-4.33 -4.8,-9.99 -3.61,-15.41l15.32 -69.51c1.84,-8.39 9.28,-14.36 17.87,-14.36z"
   id="path194"
   fill="#D1D1D1" />
   <path
   d="M3442.4 15045.8l-66.55 302.07c-1.85,8.39 -9.28,14.36 -17.87,14.36l-84.38 0c-5.55,0 -10.8,-2.52 -14.27,-6.83 -3.47,-4.33 -4.8,-9.99 -3.6,-15.41l66.54 -302.07c1.85,-8.38 9.28,-14.36 17.87,-14.36l84.38 0c5.55,0 10.8,2.52 14.27,6.84 3.47,4.32 4.8,9.99 3.61,15.4z"
   id="path196"
   fill="#D1D1D1" />
  </g>
  <path
   d="M4959.79 12645.7l280.42 0c8.28,0 15,6.71 15,15l0 47.64c0,8.29 -6.72,15 -15,15l-280.42 0c-8.29,0 -15,-6.71 -15,-15l0 -47.64c0,-8.29 6.71,-15 15,-15"
   id="path198"
   fill="#FF0000" />
  <path
   d="M2288.46 11029.1l147.07 113.71c3.67,2.85 5.82,7.23 5.82,11.87 0,4.65 -2.15,9.03 -5.82,11.87l-147.07 113.72c-4.53,3.5 -10.65,4.12 -15.78,1.6 -5.14,-2.52 -8.4,-7.75 -8.4,-13.47l0 -227.44c0,-5.72 3.26,-10.94 8.4,-13.46 5.13,-2.52 11.25,-1.9 15.78,1.6"
   id="path200"
   fill="#FF0000" />
  <path
   d="M2567.53 11283.9l0 -258.56c0,-8.28 -6.71,-15 -15,-15l-32.12 0c-8.28,0 -15,6.72 -15,15l0 258.56c0,8.28 6.72,15 15,15l32.12 0c8.29,0 15,-6.72 15,-15"
   id="path202"
   fill="#FF0000" />
  <path
   d="M2670.36 11283.9l0 -258.56c0,-8.28 -6.72,-15 -15,-15l-32.12 0c-8.29,0 -15,6.72 -15,15l0 258.56c0,8.28 6.71,15 15,15l32.12 0c3.98,0 7.79,-1.58 10.61,-4.39 2.81,-2.82 4.39,-6.63 4.39,-10.61"
   id="path204"
   fill="#FF0000" />
  <path
   d="M2619.79 12551.9l0 -258.56c0,-8.28 -6.71,-15 -15,-15l-258.55 0c-8.29,0 -15,6.72 -15,15l0 258.56c0,8.29 6.71,15 15,15l258.55 0c8.29,0 15,-6.71 15,-15"
   id="path206"
   fill="#FF0000" />
  <path
   d="M7868.76 11154.7c0,-79.68 -64.6,-144.28 -144.28,-144.28 -79.68,0 -144.28,64.6 -144.28,144.28 0,79.68 64.6,144.28 144.28,144.28 79.68,0 144.28,-64.6 144.28,-144.28z"
   id="path208"
   fill="#FF0000" />
  <path
   d="M4056.54 11639.3c0,-5.72 -3.26,-10.94 -8.39,-13.46 -5.14,-2.52 -11.26,-1.9 -15.79,1.6l-106.32 82.21c-4.53,3.5 -10.65,4.12 -15.78,1.6 -5.14,-2.53 -8.4,-7.75 -8.4,-13.47l0 -58.48c0,-5.72 -3.25,-10.94 -8.39,-13.46 -5.13,-2.52 -11.25,-1.9 -15.78,1.6l-152.38 117.82c-4.52,3.5 -10.64,4.12 -15.78,1.6 -5.14,-2.52 -8.39,-7.75 -8.39,-13.47l0 -109.65c0,-8.28 -6.72,-15 -15,-15l-47.65 0c-8.28,0 -15,6.72 -15,15l0 280.42c0,8.28 6.72,15 15,15l47.65 0c3.98,0 7.79,-1.58 10.61,-4.39 2.81,-2.82 4.39,-6.63 4.39,-10.61l0 -109.65c0,-5.72 3.25,-10.94 8.39,-13.47 5.14,-2.52 11.26,-1.9 15.78,1.6l152.38 117.83c4.53,3.5 10.65,4.12 15.78,1.59 5.14,-2.52 8.39,-7.74 8.39,-13.46l0 -58.48c0,-5.72 3.26,-10.94 8.4,-13.47 5.13,-2.52 11.25,-1.9 15.78,1.6l106.32 82.22c4.53,3.5 10.65,4.12 15.79,1.59 5.13,-2.52 8.39,-7.74 8.39,-13.46l0 -249.3z"
   id="path210"
   fill="#FF0000" />
  <path
   d="M4944.79 10916.6c0,3.97 1.58,7.79 4.39,10.6 2.81,2.82 6.63,4.4 10.61,4.4l86.38 0c3.98,0 7.8,1.58 10.61,4.39 2.81,2.81 4.39,6.63 4.39,10.61l0 86.38c0,8.29 6.72,15 15,15l47.65 0c8.28,0 15,-6.71 15,-15l0 -86.38c0,-3.98 1.58,-7.8 4.39,-10.61 2.82,-2.81 6.63,-4.39 10.61,-4.39l86.39 0c8.28,0 15,-6.72 15,-15l0 -47.65c0,-8.28 -6.72,-15 -15,-15l-86.39 0c-3.98,0 -7.79,-1.58 -10.61,-4.39 -2.81,-2.81 -4.39,-6.63 -4.39,-10.61l0 -86.38c0,-8.29 -6.72,-15 -15,-15l-47.65 0c-8.28,0 -15,6.71 -15,15l0 86.38c0,8.29 -6.71,15 -15,15l-86.38 0c-8.29,0 -15,6.72 -15,15l0 47.65z"
   id="path212"
   fill="#FF0000" />
  <path
   d="M6143.46 11639.3c0,-5.72 3.25,-10.94 8.39,-13.46 5.13,-2.52 11.26,-1.9 15.78,1.6l106.32 82.21c4.53,3.5 10.65,4.12 15.79,1.6 5.13,-2.53 8.39,-7.75 8.39,-13.47l0 -58.48c0,-5.72 3.25,-10.94 8.39,-13.46 5.14,-2.52 11.26,-1.9 15.78,1.6l152.38 117.82c4.53,3.5 10.65,4.12 15.78,1.6 5.14,-2.52 8.39,-7.75 8.39,-13.47l0 -109.65c0,-8.28 6.72,-15 15,-15l47.65 0c8.28,0 15,6.72 15,15l0 280.42c0,8.28 -6.72,15 -15,15l-47.65 0c-3.97,0 -7.79,-1.58 -10.6,-4.39 -2.81,-2.82 -4.4,-6.63 -4.4,-10.61l0 -109.65c0,-5.72 -3.25,-10.94 -8.39,-13.47 -5.13,-2.52 -11.25,-1.9 -15.78,1.6l-152.38 117.83c-4.52,3.5 -10.64,4.12 -15.78,1.59 -5.14,-2.52 -8.39,-7.74 -8.39,-13.46l0 -58.48c0,-5.72 -3.26,-10.94 -8.39,-13.47 -5.14,-2.52 -11.26,-1.9 -15.79,1.6l-106.32 82.22c-4.52,3.5 -10.65,4.12 -15.78,1.59 -5.14,-2.52 -8.39,-7.74 -8.39,-13.46l0 -249.3z"
   id="path214"
   fill="#FF0000" />
  <path
   d="M7664.54 12566.9l-57.42 0 -23.86 -68.69 -114.69 0 -23.33 68.69 -45.86 0 98.95 -288.55 66.13 0 100.08 288.55zm-95.68 -110.33l-43.47 -128.72 -43.47 128.72 86.94 0zm218.85 -19.26l0 39.54 -109.68 0 0 -39.54 109.68 0zm31.84 129.59l0 -288.55 116.24 0c19.69,0 35.95,1.95 48.93,5.92 12.97,3.97 24.23,12.19 33.62,24.74 9.48,12.56 14.24,27.28 14.24,44.17 0,15.94 -4.85,29.79 -14.38,41.55 -9.62,11.77 -22.9,19.27 -39.83,22.52 21.03,3.54 36.84,11.77 47.66,24.75 10.8,12.92 16.17,28.29 16.17,46.03 0,22.3 -7.53,40.98 -22.59,56.15 -15.13,15.15 -38.33,22.72 -69.65,22.72l-130.41 0zm50.93 -167.4l65.54 0c13.42,0 24.01,-3.89 31.77,-11.62 7.83,-7.79 11.71,-17.67 11.71,-29.65 0,-13.21 -4.49,-22.95 -13.36,-29.22 -8.87,-6.28 -19.31,-9.46 -31.24,-9.46l-64.42 0 0 79.95zm0 124.04l69.49 0c14.69,0 26.33,-3.68 34.83,-11.19 8.49,-7.44 12.75,-17.54 12.75,-30.23 0,-12.12 -4.33,-22.01 -12.98,-29.81 -8.65,-7.71 -20.13,-11.61 -34.38,-11.61l-69.71 0 0 82.84z"
   id="path216"
   stroke-linejoin="bevel"
   stroke-width="18"
   stroke="#FF0000"
   fill="#FF0000" />
  <path
   d="M4901.32 11933l-53.91 0 -116.87 -190.37c-1.77,-2.91 -4.7,-7.6 -8.78,-14.15 -1.77,-2.91 -4.62,-7.53 -8.31,-13.79l0 218.31 -44.74 0 0 -297.96 61.37 0 107.87 175.46c0.84,1.5 7.39,12.23 19.63,32.12l0 -207.58 43.74 0 0 297.96zm309.22 0l-59.28 0 -24.65 -70.93 -118.41 0 -24.1 70.93 -47.36 0 102.17 -297.96 68.3 0 103.33 297.96zm-98.79 -113.92l-44.88 -132.92 -44.89 132.92 89.77 0zm236.61 113.92l-56.45 0 -94.93 -297.96 58.59 0 70.61 228.29 72.23 -228.29 46.26 0 -96.31 297.96zm186.72 0l-55.52 0 0 -297.96 55.52 0 0 297.96z"
   id="path218"
   stroke-linejoin="bevel"
   stroke-width="18"
   stroke="#FFFFFF"
   fill="#FFFFFF" />
  <path
   d="M8734.57 7004.78l0 56.58 -260.85 0 260.85 85.24 0 29.1 -260.85 85.77 260.85 0 0 45.36 -297.96 0 0 -86.86 191.86 -64.52 -191.86 -63.44 0 -87.23 297.96 0zm-297.96 -279.34l191.42 0c25.92,0 45.89,3 59.83,9.08 14,6 25.99,17.63 36.12,34.8 10.14,17.25 15.2,38.26 15.2,63.06 0,25.1 -4.4,45.74 -13.11,61.9 -8.72,16.17 -20.71,27.8 -35.91,34.89 -15.19,7.08 -34.65,10.62 -58.19,10.62l-195.36 0 0 -56.67 191.42 0c26.22,0 43.42,-5.62 51.63,-17.02 8.26,-11.31 12.36,-24.56 12.36,-39.58 0,-17.31 -4.39,-31.09 -13.25,-41.5 -8.8,-10.39 -25.71,-15.54 -50.74,-15.54l-191.42 0 0 -44.04zm297.96 -252.79l0 189.49 -297.96 0 0 -58.44 249.31 0 0 -131.05 48.65 0zm0 -121.57l0 59.59 -251.91 0 0 81.85 -46.05 0 0 -223.29 46.05 0 0 81.85 251.91 0zm0 -171.17l0 55.52 -297.96 0 0 -55.52 297.96 0zm-133.81 -145.98l40.82 0 0 113.26 -40.82 0 0 -113.26zm30.32 -205.04l5.51 -51.43c29.8,3.31 54.39,15.24 73.61,35.81 19.3,20.47 28.98,47.42 28.98,80.84 0,28.1 -6.85,50.89 -20.56,68.45 -13.63,17.55 -32.19,31.02 -55.66,40.5 -23.39,9.47 -49.25,14.16 -77.48,14.16 -45.38,0 -82.33,-11.08 -110.8,-33.34 -28.45,-22.25 -42.68,-52.88 -42.68,-91.85 0,-30.49 9.16,-55.89 27.34,-76.22 18.18,-20.26 44.18,-33.03 78.09,-38.35l5.29 51.43c-45.01,9.48 -67.44,30.42 -67.44,62.75 0,20.71 9.32,36.89 28.01,48.36 18.71,11.47 45.83,17.24 81.3,17.24 36.13,0 63.33,-6.15 81.72,-18.47 18.48,-12.33 27.65,-28.65 27.65,-48.98 0,-16.23 -6.19,-30.02 -18.56,-41.5 -12.36,-11.39 -27.12,-17.86 -44.32,-19.4zm108.1 -208.89c0,40.89 -14.9,72.77 -44.55,95.55 -29.73,22.8 -66.39,34.11 -110.04,34.11 -43.36,0 -79.65,-12.08 -108.78,-36.26 -29.21,-24.25 -43.81,-56.2 -43.81,-95.86 0,-40.03 14.6,-71.61 43.81,-94.87 29.13,-23.24 65.63,-34.87 109.44,-34.87 45.98,0 83.15,12.09 111.47,36.19 28.31,24.17 42.46,56.13 42.46,96.01zm-43.28 -0.46c0,-20.02 -7.98,-36.87 -24,-50.74 -16.01,-13.85 -45,-20.79 -87.1,-20.79 -34.19,0 -61.01,5.77 -80.38,17.17 -19.45,11.4 -29.14,29.18 -29.14,53.21 0,47.58 37.04,71.29 111.1,71.29 35.91,0 63.18,-6 81.72,-18.17 18.56,-12.08 27.8,-29.41 27.8,-51.97zm38.67 -181.79l-297.96 0 0 -113.49c0,-41.96 14.38,-75.61 43.15,-101.02 28.68,-25.41 64.14,-38.12 106.39,-38.12 42.17,0 77.49,13.1 105.87,39.27 28.4,26.11 42.55,63.6 42.55,112.35l0 101.01zm-43.89 -57.06l0 -46.27c0,-24.78 -9.01,-45.81 -27.04,-63.13 -18.03,-17.33 -44.93,-25.95 -80.55,-25.95 -29.12,0 -53.72,7.54 -73.91,22.63 -20.12,15.17 -30.24,35.12 -30.24,59.91l0 52.81 211.74 0zm43.89 -447.1l0 200.11 -297.96 0 0 -198.11 44.34 0 0 142.59 80.76 0 0 -114.56 43.21 0 0 114.56 83.38 0 0 -144.59 46.27 0zm-103.49 -219.99l5.51 -51.43c29.8,3.31 54.39,15.24 73.61,35.81 19.3,20.47 28.98,47.42 28.98,80.84 0,28.1 -6.85,50.89 -20.56,68.45 -13.63,17.55 -32.19,31.02 -55.66,40.5 -23.39,9.46 -49.25,14.16 -77.48,14.16 -45.38,0 -82.33,-11.08 -110.8,-33.34 -28.45,-22.25 -42.68,-52.88 -42.68,-91.85 0,-30.49 9.16,-55.9 27.34,-76.22 18.18,-20.26 44.18,-33.04 78.09,-38.35l5.29 51.43c-45.01,9.47 -67.44,30.42 -67.44,62.75 0,20.71 9.32,36.89 28.01,48.36 18.71,11.47 45.83,17.24 81.3,17.24 36.13,0 63.33,-6.15 81.72,-18.48 18.48,-12.32 27.65,-28.64 27.65,-48.97 0,-16.24 -6.19,-30.02 -18.56,-41.5 -12.36,-11.4 -27.12,-17.86 -44.32,-19.4zm-194.47 -317.84l205.65 0c34.19,0 58.85,7.63 74.06,22.87 15.19,15.24 22.86,39.58 22.86,72.99 0,19.25 -1.56,34.19 -4.61,44.89l-43.21 0c1.19,-16.87 1.71,-28.72 1.71,-35.65 0,-18.48 -3.36,-31.1 -9.99,-37.89 -6.7,-6.77 -20.34,-10.16 -40.82,-10.16l-205.65 0 0 -57.05zm0 -276.1l191.42 0c25.92,0 45.89,3 59.83,9.08 14,6.01 25.99,17.63 36.12,34.8 10.14,17.25 15.2,38.27 15.2,63.07 0,25.09 -4.4,45.73 -13.11,61.9 -8.72,16.16 -20.71,27.8 -35.91,34.88 -15.19,7.08 -34.65,10.62 -58.19,10.62l-195.36 0 0 -56.67 191.42 0c26.22,0 43.42,-5.62 51.63,-17.01 8.26,-11.32 12.36,-24.57 12.36,-39.58 0,-17.32 -4.39,-31.1 -13.25,-41.5 -8.8,-10.39 -25.71,-15.55 -50.74,-15.55l-191.42 0 0 -44.04zm297.96 -305.37l0 62.05 -151.69 64.91 76.36 59.59 75.33 0 0 55.52 -297.96 0 0 -55.52 156.55 0c-10.66,-7.08 -18.04,-12.16 -22.06,-15.31l-134.49 -102.26 0 -56.13 97.98 73.08 199.98 -85.93zm0 -241.61l0 200.11 -297.96 0 0 -198.11 44.34 0 0 142.59 80.76 0 0 -114.56 43.21 0 0 114.56 83.38 0 0 -144.59 46.27 0zm0 -47.83l-297.96 0 0 -120.04c0,-20.32 2.01,-37.11 6.11,-50.5 4.11,-13.4 12.6,-25.02 25.56,-34.73 12.97,-9.78 28.16,-14.7 45.6,-14.7 16.47,0 30.77,5 42.91,14.86 12.15,9.93 19.9,23.64 23.25,41.11 3.65,-21.71 12.14,-38.03 25.56,-49.2 13.34,-11.16 29.2,-16.71 47.53,-16.71 23.02,0 42.32,7.78 57.97,23.33 15.64,15.63 23.47,39.58 23.47,71.92l0 134.66zm-172.86 -52.58l0 -67.68c0,-13.87 -4.03,-24.8 -11.99,-32.81 -8.05,-8.07 -18.26,-12.08 -30.62,-12.08 -13.64,0 -23.7,4.62 -30.19,13.78 -6.47,9.17 -9.75,19.95 -9.75,32.26l0 66.53 82.55 0zm128.07 0l0 -71.76c0,-15.17 -3.8,-27.19 -11.54,-35.96 -7.67,-8.78 -18.1,-13.17 -31.22,-13.17 -12.52,0 -22.72,4.47 -30.77,13.41 -7.98,8.93 -11.99,20.77 -11.99,35.48l0 72 85.52 0zm49.4 -341.56c0,40.88 -14.9,72.76 -44.55,95.54 -29.73,22.8 -66.39,34.12 -110.04,34.12 -43.36,0 -79.65,-12.09 -108.78,-36.26 -29.21,-24.26 -43.81,-56.21 -43.81,-95.87 0,-40.03 14.6,-71.6 43.81,-94.86 29.13,-23.25 65.63,-34.87 109.44,-34.87 45.98,0 83.15,12.08 111.47,36.19 28.31,24.17 42.46,56.12 42.46,96.01zm-43.28 -0.47c0,-20.02 -7.98,-36.87 -24,-50.74 -16.01,-13.85 -45,-20.79 -87.1,-20.79 -34.19,0 -61.01,5.78 -80.38,17.18 -19.45,11.4 -29.14,29.17 -29.14,53.2 0,47.59 37.04,71.3 111.1,71.3 35.91,0 63.18,-6 81.72,-18.17 18.56,-12.09 27.8,-29.42 27.8,-51.98zm38.67 -396.3l0 64.76 -117.42 68.06 117.42 72.22 0 51.67 -155.19 -97.47 -142.77 83.68 0 -64.52 99.1 -56.82 -99.1 -60.22 0 -51.89 135.98 85.7 161.98 -95.17z"
   id="path220"
   stroke-width="7.62"
   stroke="#D1D1D1"
   fill="url(#id9)" />
  <path
   d="M126.62 3667.9l0 -1707.32 -65.14 37.95c-19.48,15.43 -29.79,35.45 -30.14,49.34l0 1532.74c0.35,13.89 10.66,33.91 30.14,49.34l65.14 37.95z"
   id="path222"
   stroke-linejoin="bevel"
   stroke-width="18"
   stroke="#000000"
   fill="url(#id10)" />
 </g>
<path
   style="fill:none;fill-opacity:0.75;fill-rule:evenodd;stroke:#000000;stroke-width:35.27777907;stroke-linecap:butt;stroke-linejoin:miter;stroke-miterlimit:4;stroke-dasharray:none;stroke-opacity:1"
   d="M 8819.4997,11089.345 L 10880.252,9664.997"
   id="path1526" /><path
   style="fill:none;fill-opacity:0.75;fill-rule:evenodd;stroke:#000000;stroke-width:35.27777907;stroke-linecap:butt;stroke-linejoin:miter;stroke-miterlimit:4;stroke-dasharray:none;stroke-opacity:1"
   d="M 5063.7188,10204.423 L 10966.057,8145.4534"
   id="path1532" /><path
   style="fill:none;fill-opacity:0.75;fill-rule:evenodd;stroke:#000000;stroke-width:35.27777907;stroke-linecap:butt;stroke-linejoin:miter;stroke-miterlimit:4;stroke-dasharray:none;stroke-opacity:1"
   d="M 1469.834,11088.001 L -1005.8147,9624.1583"
   id="path1536" /><path
   style="fill:none;fill-opacity:0.75;fill-rule:evenodd;stroke:#000000;stroke-width:35.27777907;stroke-linecap:butt;stroke-linejoin:miter;stroke-miterlimit:4;stroke-dasharray:none;stroke-opacity:1"
   d="M 3703.0558,11933.211 L -771.29487,15612.694"
   id="path1540" /><path
   style="fill:none;fill-opacity:0.75;fill-rule:evenodd;stroke:#000000;stroke-width:35.27777907;stroke-linecap:butt;stroke-linejoin:miter;stroke-miterlimit:4;stroke-dasharray:none;stroke-opacity:1"
   d="M 5018.1531,11766.475 L -841.97488,8186.3793"
   id="path1542" /><text
   xml:space="preserve"
   style="font-size:790.222229px;font-style:normal;font-variant:normal;font-weight:normal;font-stretch:normal;text-align:start;line-height:100%;writing-mode:lr-tb;text-anchor:start;fill:#000000;fill-opacity:1;stroke:none;stroke-width:1px;stroke-linecap:butt;stroke-linejoin:miter;stroke-opacity:1;font-family:URW Palladio L"
   x="11220.843"
   y="8310.1738"
   id="text2417"
   sodipodi:linespacing="100%"><tspan
     sodipodi:role="line"
     id="tspan2419"
     x="11220.843"
     y="8310.1738">Up</tspan></text>
<text
   xml:space="preserve"
   style="font-size:790.222229px;font-style:normal;font-variant:normal;font-weight:normal;font-stretch:normal;text-align:start;line-height:100%;writing-mode:lr-tb;text-anchor:start;fill:#000000;fill-opacity:1;stroke:none;stroke-width:1px;stroke-linecap:butt;stroke-linejoin:miter;stroke-opacity:1;font-family:URW Palladio L"
   x="11234.812"
   y="9834.293"
   id="text2421"
   sodipodi:linespacing="100%"><tspan
     sodipodi:role="line"
     id="tspan2423"
     x="11234.812"
     y="9834.293">Rec</tspan></text>
<text
   xml:space="preserve"
   style="font-size:790.222229px;font-style:normal;font-variant:normal;font-weight:normal;font-stretch:normal;text-align:start;line-height:100%;writing-mode:lr-tb;text-anchor:start;fill:#000000;fill-opacity:1;stroke:none;stroke-width:1px;stroke-linecap:butt;stroke-linejoin:miter;stroke-opacity:1;font-family:URW Palladio L"
   x="11255.903"
   y="14601.043"
   id="text2425"
   sodipodi:linespacing="100%"><tspan
     sodipodi:role="line"
     id="tspan2427"
     x="11255.903"
     y="14601.043">Right</tspan></text>
<text
   xml:space="preserve"
   style="font-size:790.222229px;font-style:normal;font-variant:normal;font-weight:normal;font-stretch:normal;text-align:start;line-height:100%;writing-mode:lr-tb;text-anchor:start;fill:#000000;fill-opacity:1;stroke:none;stroke-width:1px;stroke-linecap:butt;stroke-linejoin:miter;stroke-opacity:1;font-family:URW Palladio L"
   x="11171.536"
   y="12512.953"
   id="text2429"
   sodipodi:linespacing="100%"><tspan
     sodipodi:role="line"
     id="tspan2431"
     x="11171.536"
     y="12512.953">A-B</tspan></text>
<text
   xml:space="preserve"
   style="font-size:790.222229px;font-style:normal;font-variant:normal;font-weight:normal;font-stretch:normal;text-align:start;line-height:100%;writing-mode:lr-tb;text-anchor:start;fill:#000000;fill-opacity:1;stroke:none;stroke-width:1px;stroke-linecap:butt;stroke-linejoin:miter;stroke-opacity:1;font-family:URW Palladio L"
   x="11192.628"
   y="17005.51"
   id="text2433"
   sodipodi:linespacing="100%"><tspan
     sodipodi:role="line"
     id="tspan2435"
     x="11192.628"
     y="17005.51">Down</tspan></text>
<text
   xml:space="preserve"
   style="font-size:790.222229px;font-style:normal;font-variant:normal;font-weight:normal;font-stretch:normal;text-align:start;line-height:100%;writing-mode:lr-tb;text-anchor:start;fill:#000000;fill-opacity:1;stroke:none;stroke-width:1px;stroke-linecap:butt;stroke-linejoin:miter;stroke-opacity:1;font-family:URW Palladio L"
   x="-3044.345"
   y="12576.229"
   id="text2437"
   sodipodi:linespacing="100%"><tspan
     sodipodi:role="line"
     id="tspan2439"
     x="-3044.345"
     y="12576.229">Stop</tspan></text>
<text
   xml:space="preserve"
   style="font-size:790.222229px;font-style:normal;font-variant:normal;font-weight:normal;font-stretch:normal;text-align:start;line-height:100%;writing-mode:lr-tb;text-anchor:start;fill:#000000;fill-opacity:1;stroke:none;stroke-width:1px;stroke-linecap:butt;stroke-linejoin:miter;stroke-opacity:1;font-family:URW Palladio L"
   x="-3023.2534"
   y="16288.388"
   id="text2441"
   sodipodi:linespacing="100%"><tspan
     sodipodi:role="line"
     id="tspan2443"
     x="-3023.2534"
     y="16288.388">Left</tspan></text>
<text
   xml:space="preserve"
   style="font-size:790.222229px;font-style:normal;font-variant:normal;font-weight:normal;font-stretch:normal;text-align:start;line-height:100%;writing-mode:lr-tb;text-anchor:start;fill:#000000;fill-opacity:1;stroke:none;stroke-width:1px;stroke-linecap:butt;stroke-linejoin:miter;stroke-opacity:1;font-family:URW Palladio L"
   x="-2981.0698"
   y="9581.1914"
   id="text2445"
   sodipodi:linespacing="100%"><tspan
     sodipodi:role="line"
     id="tspan2447"
     x="-2981.0698"
     y="9581.1914">Play</tspan></text>
<text
   xml:space="preserve"
   style="font-size:790.222229px;font-style:normal;font-variant:normal;font-weight:normal;font-stretch:normal;text-align:start;line-height:100%;writing-mode:lr-tb;text-anchor:start;fill:#000000;fill-opacity:1;stroke:none;stroke-width:1px;stroke-linecap:butt;stroke-linejoin:miter;stroke-opacity:1;font-family:URW Palladio L"
   x="-2981.0696"
   y="7978.2144"
   id="text2449"
   sodipodi:linespacing="100%"><tspan
     sodipodi:role="line"
     id="tspan2451"
     x="-2981.0696"
     y="7978.2144">Navi</tspan></text>
<text
   xml:space="preserve"
   style="font-size:790.222229px;font-style:normal;font-variant:normal;font-weight:normal;font-stretch:normal;text-align:start;line-height:100%;writing-mode:lr-tb;text-anchor:start;fill:#000000;fill-opacity:1;stroke:none;stroke-width:1px;stroke-linecap:butt;stroke-linejoin:miter;stroke-opacity:1;font-family:URW Palladio L"
   x="10900.494"
   y="2524.1631"
   id="text2453"
   sodipodi:linespacing="100%"><tspan
     sodipodi:role="line"
     id="tspan2455"
     x="10900.494"
     y="2524.1631">Hold</tspan></text>
<path
   style="fill:none;fill-opacity:0.75;fill-rule:evenodd;stroke:#000000;stroke-width:35.27777907;stroke-linecap:butt;stroke-linejoin:miter;stroke-opacity:1;stroke-miterlimit:4;stroke-dasharray:none"
   d="M 5272.9526,13330.025 L 11073.201,16683.623"
   id="path2457" /><path
   style="fill:none;fill-opacity:0.75;fill-rule:evenodd;stroke:#000000;stroke-width:35.27777907;stroke-linecap:butt;stroke-linejoin:miter;stroke-opacity:1;stroke-miterlimit:4;stroke-dasharray:none"
   d="M 1286.6002,12423.077 L -949.13177,12423.077"
   id="path2461" /><path
   style="fill:none;fill-opacity:0.75;fill-rule:evenodd;stroke:#000000;stroke-width:35.27777907;stroke-linecap:butt;stroke-linejoin:miter;stroke-opacity:1;stroke-miterlimit:4;stroke-dasharray:none"
   d="M 8753.1015,12338.71 L 10820.099,12338.71"
   id="path2463" /><path
   style="fill:none;fill-opacity:0.75;fill-rule:evenodd;stroke:#000000;stroke-width:35.27777907;stroke-linecap:butt;stroke-linejoin:miter;stroke-opacity:1;stroke-miterlimit:4;stroke-dasharray:none"
   d="M 6601.7367,11937.965 L 10946.65,14321.34"
   id="path2465" /></svg>