<?xml version="1.0" encoding="UTF-8" standalone="no"?>
<!-- Creator: CorelDRAW -->

<svg
   xmlns:dc="http://purl.org/dc/elements/1.1/"
   xmlns:cc="http://creativecommons.org/ns#"
   xmlns:rdf="http://www.w3.org/1999/02/22-rdf-syntax-ns#"
   xmlns:svg="http://www.w3.org/2000/svg"
   xmlns="http://www.w3.org/2000/svg"
   xmlns:xlink="http://www.w3.org/1999/xlink"
   xmlns:sodipodi="http://sodipodi.sourceforge.net/DTD/sodipodi-0.dtd"
   xmlns:inkscape="http://www.inkscape.org/namespaces/inkscape"
   xml:space="preserve"
   width="90mm"
   height="152mm"
   shape-rendering="geometricPrecision"
   text-rendering="geometricPrecision"
   image-rendering="optimizeQuality"
   viewBox="0 0 9000 15200"
   id="svg1555"
   sodipodi:version="0.32"
   inkscape:version="0.47 r22583"
   sodipodi:docname="ipodvideo-front.svg"
   version="1.1"
   style="fill-rule:evenodd;display:inline"><metadata
   id="metadata1656"><rdf:RDF><cc:Work
       rdf:about=""><dc:format>image/svg+xml</dc:format><dc:type
         rdf:resource="http://purl.org/dc/dcmitype/StillImage" /></cc:Work></rdf:RDF></metadata><defs
   id="defs1654"><inkscape:perspective
   sodipodi:type="inkscape:persp3d"
   inkscape:vp_x="0 : 269.29135 : 1"
   inkscape:vp_y="0 : 1000 : 0"
   inkscape:vp_z="318.89764 : 269.29135 : 1"
   inkscape:persp3d-origin="159.44882 : 179.52757 : 1"
   id="perspective80" />
  <defs
   id="defs1558">
   <linearGradient
   y2="103.51"
   x2="2622.6499"
   y1="103.51"
   x1="1090.73"
   gradientUnits="userSpaceOnUse"
   id="id0">
    <stop
   id="stop1561"
   stop-color="#000000"
   offset="0" />
    <stop
   id="stop1563"
   stop-color="#D1D1D1"
   offset="0.0784314" />
    <stop
   id="stop1565"
   stop-color="#C4C4C4"
   offset="0.101961" />
    <stop
   id="stop1567"
   stop-color="#C5C5C5"
   offset="0.901961" />
    <stop
   id="stop1569"
   stop-color="#D1D1D1"
   offset="0.921569" />
    <stop
   id="stop1571"
   stop-color="#000000"
   offset="1" />
   </linearGradient>
  </defs>
  
  
  
  
  
  
  
  
  
  
  
  
  
  
  
  
  
  
  
  
 <linearGradient
   inkscape:collect="always"
   xlink:href="#id0"
   id="linearGradient2911"
   gradientUnits="userSpaceOnUse"
   x1="1090.73"
   y1="103.51"
   x2="2622.6499"
   y2="103.51" /><inkscape:perspective
   id="perspective2910"
   inkscape:persp3d-origin="0.5 : 0.33333333 : 1"
   inkscape:vp_z="1 : 0.5 : 1"
   inkscape:vp_y="0 : 1000 : 0"
   inkscape:vp_x="0 : 0.5 : 1"
   sodipodi:type="inkscape:persp3d" /></defs><sodipodi:namedview
   inkscape:window-height="572"
   inkscape:window-width="746"
   inkscape:pageshadow="2"
   inkscape:pageopacity="0.0"
   borderopacity="1.0"
   bordercolor="#666666"
   pagecolor="#ffffff"
   id="base"
   inkscape:zoom="0.7482602"
   inkscape:cx="159.44882"
   inkscape:cy="337.72596"
   inkscape:window-x="268"
   inkscape:window-y="143"
   inkscape:current-layer="svg1555"
   showgrid="false"
   inkscape:window-maximized="0" />
 <path
   style="fill:#dedede;stroke:#000000;stroke-width:18;stroke-linejoin:bevel"
   id="path1573"
   d="m 813.97,150.01 7372.06,0 c 415.08,0 751.57,336.49 751.57,751.57 l 0,13496.8 c 0,415.08 -336.49,751.58 -751.57,751.58 l -7372.06,0 c -415.08,0 -751.57,-336.5 -751.57,-751.58 l 0,-13496.8 C 62.4,486.5 398.89,150.01 813.97,150.01" /><path
   style="fill:#f9f9f8;stroke:#ffffff;stroke-width:50;stroke-linejoin:bevel"
   id="path1575"
   d="m 813.97,317.02 7372.06,0 c 322.84,0 584.56,261.72 584.56,584.56 l 0,13496.8 c 0,322.84 -261.72,584.56 -584.56,584.56 l -7372.06,0 c -322.84,0 -584.56,-261.72 -584.56,-584.56 l 0,-13496.8 c 0,-322.84 261.72,-584.56 584.56,-584.56" /><path
   style="fill:#736d78;stroke:#ffffff;stroke-width:15;stroke-linejoin:bevel"
   id="path1577"
   d="m 922.11,835.94 7155.78,0 c 95.98,0 173.78,77.8 173.78,173.78 l 0,5364.63 c 0,95.97 -77.8,173.77 -173.78,173.77 l -7155.78,0 c -95.98,0 -173.78,-77.8 -173.78,-173.77 l 0,-5364.63 c 0,-95.98 77.8,-173.78 173.78,-173.78" /><path
   style="fill:#11161c;stroke:#000000;stroke-width:49.9998945;stroke-linejoin:bevel;color:#000000;fill-opacity:1;fill-rule:nonzero;stroke-linecap:butt;stroke-miterlimit:4;stroke-opacity:1;stroke-dasharray:none;stroke-dashoffset:0;marker:none;visibility:visible;display:inline;overflow:visible;enable-background:accumulate"
   id="path1579"
   d="m 922.11,938.04 7155.78,0 c 39.59,0 71.68,32.09 71.68,71.68 l 0,5364.63 c 0,19 -7.56,37.23 -21,50.68 -13.44,13.44 -31.67,20.99 -50.68,20.99 l -7155.78,0 c -19.01,0 -37.24,-7.55 -50.68,-20.99 -13.44,-13.45 -21,-31.68 -21,-50.68 l 0,-5364.63 c 0,-39.59 32.09,-71.68 71.68,-71.68" /><path
   style="fill:#dbdce1;stroke:#000000;stroke-width:18;stroke-linejoin:bevel"
   id="path1581"
   d="m 7256.53,10728.9 c 0,-1522.4 -1234.14,-2756.54 -2756.53,-2756.54 -1522.39,0 -2756.53,1234.14 -2756.53,2756.54 0,1522.39 1234.14,2756.53 2756.53,2756.53 1522.39,0 2756.53,-1234.14 2756.53,-2756.53 z" /><path
   style="fill:#f9f9f8;stroke:#000000;stroke-width:18;stroke-linejoin:bevel"
   id="path1583"
   d="m 5421.04,10728.9 c 0,-508.68 -412.37,-921.05 -921.04,-921.05 -508.67,0 -921.04,412.37 -921.04,921.05 0,508.67 412.37,921.04 921.04,921.04 508.67,0 921.04,-412.36 921.04,-921.04 z" /><path
   style="fill:#ffffff"
   id="path1585"
   d="m 6916.71,10574 c -8.03,0 -14.55,6.51 -14.55,14.55 l 0,88.83 c 0,5.23 -2.81,10.06 -7.35,12.65 -4.55,2.59 -10.13,2.53 -14.63,-0.14 l -173.24,-102.84 c -4.5,-2.67 -10.09,-2.72 -14.63,-0.14 -4.55,2.59 -7.35,7.42 -7.35,12.65 l 0,77.82 c 0,5.23 -2.81,10.06 -7.36,12.65 -4.54,2.59 -10.13,2.53 -14.62,-0.14 l -173.25,-102.84 c -4.5,-2.67 -10.08,-2.72 -14.63,-0.14 -4.54,2.59 -7.35,7.42 -7.35,12.65 l 0,206.77 c 0,5.23 2.81,10.05 7.35,12.64 4.55,2.59 10.13,2.54 14.63,-0.13 l 173.25,-102.85 c 4.49,-2.67 10.08,-2.72 14.62,-0.13 4.55,2.59 7.36,7.41 7.36,12.64 l 0,77.83 c 0,5.23 2.8,10.05 7.35,12.64 4.54,2.59 10.13,2.54 14.63,-0.13 l 173.24,-102.85 c 4.5,-2.67 10.08,-2.72 14.63,-0.13 4.54,2.59 7.35,7.41 7.35,12.64 l 0,88.84 c 0,8.03 6.52,14.55 14.55,14.55 l 36.97,0 c 8.03,0 14.55,-6.52 14.55,-14.55 l 0,-228.79 c 0,-8.04 -6.52,-14.55 -14.55,-14.55 l -36.97,0" /><path
   style="fill:#ffffff"
   id="path1587"
   d="m 2083.29,10574 c 8.03,0 14.55,6.51 14.55,14.55 l 0,88.83 c 0,5.23 2.81,10.06 7.35,12.65 4.55,2.59 10.13,2.53 14.63,-0.14 l 173.24,-102.84 c 4.5,-2.67 10.09,-2.72 14.63,-0.14 4.55,2.59 7.35,7.42 7.35,12.65 l 0,77.82 c 0,5.23 2.81,10.06 7.36,12.65 4.54,2.59 10.13,2.53 14.62,-0.14 l 173.25,-102.84 c 4.5,-2.67 10.08,-2.72 14.63,-0.14 4.54,2.59 7.35,7.42 7.35,12.65 l 0,206.77 c 0,5.23 -2.81,10.05 -7.35,12.64 -4.55,2.59 -10.13,2.54 -14.63,-0.13 l -173.25,-102.85 c -4.49,-2.67 -10.08,-2.72 -14.62,-0.13 -4.55,2.59 -7.36,7.41 -7.36,12.64 l 0,77.83 c 0,5.23 -2.8,10.05 -7.35,12.64 -4.54,2.59 -10.13,2.54 -14.63,-0.13 l -173.24,-102.85 c -4.5,-2.67 -10.08,-2.72 -14.63,-0.13 -4.54,2.59 -7.35,7.41 -7.35,12.64 l 0,88.84 c 0,8.03 -6.52,14.55 -14.55,14.55 l -36.97,0 c -8.03,0 -14.55,-6.52 -14.55,-14.55 l 0,-228.79 c 0,-8.04 6.52,-14.55 14.55,-14.55 l 36.97,0" /><path
   style="fill:#ffffff"
   id="path1589"
   d="m 4644.57,13171.7 c 8.04,0 14.55,-6.52 14.55,-14.56 l 0,-228.78 c 0,-8.04 -6.51,-14.55 -14.55,-14.55 l -36.97,0 c -8.03,0 -14.55,6.51 -14.55,14.55 l 0,228.78 c 0,8.04 6.52,14.56 14.55,14.56 l 36.97,0" /><path
   style="fill:#ffffff"
   id="path1591"
   d="m 4799.2,13171.7 c 8.04,0 14.55,-6.52 14.55,-14.56 l 0,-228.78 c 0,-8.04 -6.51,-14.55 -14.55,-14.55 l -36.96,0 c -8.04,0 -14.55,6.51 -14.55,14.55 l 0,228.78 c 0,8.04 6.51,14.56 14.55,14.56 l 36.96,0" /><path
   style="fill:#ffffff"
   id="path1593"
   d="m 4208.23,12926.9 201.69,102.93 c 4.87,2.49 7.93,7.49 7.93,12.96 0,5.47 -3.06,10.48 -7.93,12.96 l -201.69,102.94 c -4.5,2.67 -10.09,2.72 -14.63,0.13 -4.55,-2.59 -7.35,-7.42 -7.35,-12.65 l 0,-206.76 c 0,-5.23 2.8,-10.06 7.35,-12.65 4.54,-2.59 10.13,-2.53 14.63,0.14" /><path
   style="fill:none"
   id="path1595"
   d="m 4234.51,8334.03 0.66,0" /><path
   style="fill:#ffffff"
   id="path1597"
   d="m 4203.28,8536.97 -5.18,-114.81 c -0.16,-3.41 -2.65,-6.25 -6.01,-6.84 -3.36,-0.59 -6.68,1.23 -7.98,4.38 l -49.68,119.73 c -1.13,2.71 -3.78,4.49 -6.72,4.49 l -31.33,0 c -2.94,0 -5.59,-1.78 -6.72,-4.49 l -49.68,-119.73 c -1.3,-3.15 -4.62,-4.97 -7.98,-4.38 -3.36,0.59 -5.85,3.43 -6.01,6.84 l -5.18,114.81 c -0.17,3.88 -3.37,6.95 -7.27,6.95 l -26.48,0 c -1.98,0 -3.88,-0.82 -5.26,-2.25 -1.37,-1.44 -2.09,-3.37 -2.01,-5.36 l 10.67,-236.34 c 0.17,-3.89 3.38,-6.95 7.27,-6.95 l 29.23,0 c 2.94,0 5.6,1.77 6.72,4.49 l 71.64,172.67 c 1.13,2.72 3.78,4.49 6.72,4.49 2.95,0 5.6,-1.77 6.73,-4.49 l 71.64,-172.67 c 1.12,-2.72 3.78,-4.49 6.72,-4.49 l 29.23,0 c 3.89,0 7.1,3.06 7.27,6.95 l 10.66,236.34 c 0.09,1.99 -0.63,3.92 -2,5.36 -1.38,1.43 -3.28,2.25 -5.26,2.25 l -26.48,0 c -3.9,0 -7.1,-3.07 -7.27,-6.95" /><path
   style="fill:#ffffff"
   id="path1599"
   d="m 4460.09,8431.7 c 0,4.01 -3.25,7.27 -7.27,7.27 l -86.45,0 c -4.02,0 -7.28,3.26 -7.28,7.28 l 0,49.38 c 0,4.02 3.26,7.28 7.28,7.28 l 97.68,0 c 4.02,0 7.27,3.26 7.27,7.28 l 0,26.45 c 0,1.93 -0.76,3.78 -2.13,5.14 -1.36,1.37 -3.21,2.14 -5.14,2.14 l -138.69,0 c -4.02,0 -7.27,-3.26 -7.27,-7.28 l 0,-236.34 c 0,-4.02 3.25,-7.28 7.27,-7.28 l 138.69,0 c 1.93,0 3.78,0.77 5.14,2.13 1.37,1.37 2.13,3.22 2.13,5.15 l 0,26.45 c 0,4.02 -3.25,7.28 -7.27,7.28 l -97.68,0 c -1.93,0 -3.78,0.77 -5.15,2.13 -1.36,1.36 -2.13,3.22 -2.13,5.15 l 0,49.38 c 0,4.02 3.26,7.28 7.28,7.28 l 86.45,0 c 4.02,0 7.27,3.25 7.27,7.27 l 0,26.46" /><path
   style="fill:#ffffff"
   id="path1601"
   d="m 4742.25,8536.64 c 0,4.02 -3.25,7.28 -7.27,7.28 l -29.76,0 c -2.48,0 -4.78,-1.26 -6.12,-3.34 l -97.35,-151.07 c -1.75,-2.71 -5.07,-3.95 -8.17,-3.04 -3.1,0.91 -5.22,3.75 -5.22,6.98 l 0,143.19 c 0,1.93 -0.77,3.78 -2.13,5.14 -1.37,1.37 -3.22,2.14 -5.15,2.14 l -26.45,0 c -1.93,0 -3.78,-0.77 -5.15,-2.14 -1.36,-1.36 -2.13,-3.21 -2.13,-5.14 l 0,-236.34 c 0,-4.02 3.26,-7.28 7.28,-7.28 l 29.76,0 c 2.47,0 4.78,1.26 6.12,3.34 l 97.35,151.07 c 1.75,2.71 5.07,3.95 8.17,3.04 3.09,-0.91 5.22,-3.75 5.22,-6.98 l 0,-143.19 c 0,-4.02 3.26,-7.28 7.27,-7.28 l 26.46,0 c 1.93,0 3.78,0.77 5.14,2.13 1.37,1.37 2.13,3.22 2.13,5.15 l 0,236.34" /><path
   style="fill:#ffffff"
   id="path1603"
   d="m 4825.31,8449.53 0,-149.23 c 0,-4.02 3.26,-7.28 7.27,-7.28 l 26.46,0 c 4.02,0 7.28,3.26 7.28,7.28 l 0,149.23 c 0,31.17 25.27,56.44 56.44,56.44 31.17,0 56.45,-25.27 56.45,-56.44 l 0,-149.23 c 0,-4.02 3.25,-7.28 7.27,-7.28 l 26.46,0 c 1.93,0 3.78,0.77 5.14,2.13 1.37,1.37 2.13,3.22 2.13,5.15 l 0,149.23 c 0,53.82 -43.63,97.45 -97.45,97.45 -53.82,0 -97.45,-43.63 -97.45,-97.45" /><g
   id="g1605">
   
   
  </g><g
   id="g1611">
   
   
  </g><path
   style="fill:url(#linearGradient2911);stroke:#000000;stroke-width:18;stroke-linejoin:bevel"
   id="path1617"
   d="m 1090.74,57.01 1531.91,0 0,93 -1531.91,0 0,-93" /><g
   id="g1619">
   <defs
   id="defs1621">
    <linearGradient
   y2="3319.6001"
   x2="7296.5898"
   y1="3098.24"
   x1="7257.5498"
   gradientUnits="userSpaceOnUse"
   id="id1">
     <stop
   id="stop1624"
   stop-color="#FFC100"
   offset="0" />
     <stop
   id="stop1626"
   stop-color="#997200"
   offset="0.6" />
     <stop
   id="stop1628"
   stop-color="#332201"
   offset="1" />
    </linearGradient>
   </defs>
   <path
   style="fill:#000000"
   id="path1630"
   d="m 875.45,3825.1 7249.1,0 0,-2244.3 -7249.1,0 0,2244.3 z" />
   <path
   style="fill:#ffffff"
   id="path1632"
   d="m 1333.89,3695.16 c 0,-31.54 -25.56,-57.1 -57.09,-57.1 -31.53,0 -57.09,25.56 -57.09,57.1 0,31.52 25.56,57.09 57.09,57.09 31.53,0 57.09,-25.57 57.09,-57.09 z m 179.32,-47.8 c 22.95,-15.62 53.43,-11.19 71.41,10.35 18,21.54 18,53.62 0,75.18 -17.98,21.54 -48.46,25.95 -71.41,10.34 l 0,47.31 -30.24,0 0,-149.7 30.24,0 0,6.52 z m 345.25,47.79 c 0,-31.54 -25.56,-57.09 -57.09,-57.09 -31.52,0 -57.08,25.55 -57.08,57.09 0,31.53 25.56,57.09 57.08,57.09 16.25,0 30.93,-6.79 41.32,-17.69 l -21.85,-20.84 21.85,20.84 -21.85,-20.84 c -5.59,5.87 -13.55,8.9 -21.66,8.24 -8.09,-0.69 -15.45,-4.98 -20.01,-11.69 l 77.28,0 c 1.32,-4.82 2.01,-9.88 2.01,-15.11 z m 1896.14,0 c 0,-31.54 -25.56,-57.09 -57.1,-57.09 -31.51,0 -57.08,25.55 -57.08,57.09 0,31.53 25.57,57.09 57.08,57.09 16.26,0 30.93,-6.79 41.33,-17.69 l -21.84,-20.84 21.84,20.84 -21.84,-20.84 c -5.61,5.87 -13.57,8.9 -21.67,8.24 -8.1,-0.69 -15.46,-4.98 -20.02,-11.69 l 77.29,0 c 1.32,-4.82 2.01,-9.88 2.01,-15.11 z m 1128.28,0 c 0,-31.54 -25.56,-57.09 -57.08,-57.09 -31.53,0 -57.08,25.55 -57.08,57.09 0,31.53 25.55,57.09 57.08,57.09 16.25,0 30.92,-6.79 41.32,-17.69 l -21.85,-20.84 21.85,20.84 -21.85,-20.84 c -5.61,5.87 -13.56,8.9 -21.66,8.24 -8.08,-0.69 -15.44,-4.98 -20.01,-11.69 l 77.28,0 c 1.32,-4.82 2,-9.88 2,-15.11 z m 2883.6,0 c 0,-31.54 -25.56,-57.09 -57.08,-57.09 -31.53,0 -57.09,25.55 -57.09,57.09 0,31.53 25.56,57.09 57.09,57.09 16.24,0 30.92,-6.79 41.31,-17.69 l -21.85,-20.84 21.85,20.84 -21.85,-20.84 c -5.59,5.87 -13.55,8.9 -21.66,8.24 -8.08,-0.69 -15.44,-4.98 -20.01,-11.69 l 77.28,0 c 1.32,-4.82 2.01,-9.88 2.01,-15.11 z m -5660.49,-8.49 c 0,-18.27 -8.91,-35.01 -23.06,-43.31 -14.14,-8.29 -31.13,-6.74 -43.96,4.01 l 0,-6.52 -30.24,0 0,108.93 30.24,0 0,-63.11 c 0,-10.16 8.22,-18.38 18.38,-18.38 10.16,0 18.39,8.22 18.39,18.38 l 0,63.11 30.25,0 0,-63.11 z m 437.24,-14.09 c 0,-14.47 -10.9,-27.39 -27.31,-32.39 -16.4,-4.98 -34.82,-0.99 -46.13,10.03 -11.32,11.02 -13.14,26.71 -4.56,39.3 4.34,6.08 10.52,10.54 17.62,12.76 8.04,2.71 16.25,4.9 24.57,6.57 6.82,1.33 10.41,4.73 8.42,7.96 -1.98,3.22 -8.96,5.3 -16.32,4.84 -7.35,-0.46 -12.83,-3.3 -12.83,-6.64 l 0,-3.23 -30.21,0 0,3.23 c 0,16.03 12.23,30.29 30.43,35.5 18.2,5.21 38.37,0.22 50.18,-12.45 11.83,-12.64 12.7,-30.17 2.18,-43.59 -6.1,-7.12 -14.48,-11.87 -23.72,-13.42 -7.3,-1.36 -14.52,-3.13 -21.63,-5.27 -3.94,-1.31 -5,-3.46 -2.54,-5.2 2.46,-1.75 7.79,-2.65 12.91,-2.16 5.12,0.46 8.73,2.18 8.73,4.16 l 0,1.5 30.21,0 0,-1.5 z m 263.01,22.59 c 0,-31.54 -25.56,-57.1 -57.09,-57.1 -31.53,0 -57.09,25.56 -57.09,57.1 0,31.52 25.56,57.09 57.09,57.09 31.53,0 57.09,-25.57 57.09,-57.09 z m 149.73,8.78 0,-63.1 30.23,0 0,63.1 c 0,10.15 8.25,18.39 18.4,18.39 10.15,0 18.38,-8.24 18.38,-18.39 l 0,-63.1 30.24,0 0,108.93 -30.24,0 0,-6.54 c -12.83,10.76 -29.81,12.31 -43.96,4.01 -14.14,-8.28 -23.05,-25.01 -23.05,-43.3 z m 279.74,-56.58 0,-6.52 -30.24,0 0,108.93 30.24,0 0,-54.61 c 0,-7.14 2.84,-13.97 7.87,-19.02 5.05,-5.03 11.89,-7.86 19,-7.86 l 0,-30.12 c -9.57,0.56 -18.83,3.74 -26.87,9.2 z m 266.04,8.38 c -10.39,-10.88 -25.07,-17.68 -41.32,-17.68 -31.51,0 -57.07,25.54 -57.07,57.08 0,0 0,0 0,0.01 0,31.52 25.56,57.08 57.07,57.08 16.25,0 30.93,-6.8 41.32,-17.7 l -21.86,-20.83 c -4.88,5.11 -11.79,8.32 -19.43,8.32 -14.83,0 -26.87,-12.04 -26.88,-26.87 0,-0.01 0,-0.01 0,-0.01 0.01,-14.84 12.05,-26.86 26.88,-26.86 7.64,0 14.55,3.19 19.43,8.3 l 21.86,-20.84 z m 3499.75,39.33 -15.58,-54.23 -26.99,0 -15.58,54.23 -15.58,-54.23 -31.45,0 31.3,108.93 31.44,0 13.36,-46.5 13.37,46.5 31.43,0 31.31,-108.93 -31.44,0 -15.59,54.23 m -767.53,-89.7 -30.23,0 0,30.21 30.23,0 0,-30.21 m 0,35.47 -30.23,0 0,108.93 30.23,0 0,-108.93 m -626.55,54.51 33.66,54.42 -35.61,0 -15.84,-25.64 -15.87,25.64 -35.59,0 33.65,-54.42 -33.71,-54.51 35.6,0 15.92,25.73 15.91,-25.73 35.6,0 -33.72,54.51 m -1012.87,-54.51 -27.71,44.82 0,-80.29 -30.25,0 0,144.4 30.25,0 0,-45.43 34.06,45.43 37.76,0 -41.57,-55.46 33.07,-53.47 -35.61,0 m -460.66,-35.47 -30.24,0 0,30.21 30.24,0 0,-30.21 m 0,149.71 0,-114.24 -30.24,0 0,114.27 c 0,2.89 -2.34,5.22 -5.22,5.22 l -8.56,0 0,30.21 8.56,0 c 19.59,0 35.46,-15.89 35.46,-35.46 m 1273.22,-59.92 c 0,-31.54 -25.56,-57.1 -57.09,-57.1 -31.52,0 -57.08,25.56 -57.08,57.1 0,31.52 25.56,57.09 57.08,57.09 31.53,0 57.09,-25.57 57.09,-57.09 z m -1052.95,48.07 0,6.54 30.23,0 0,-108.93 -30.23,0 0,63.1 c 0,10.15 -8.24,18.39 -18.39,18.39 -10.16,0 -18.39,-8.24 -18.39,-18.39 l 0,-63.1 -30.24,0 0,63.1 c 0,18.29 8.89,35.02 23.04,43.3 14.16,8.3 31.14,6.75 43.98,-4.01 z m 707.46,-95.87 0,-41.99 -30.23,0 0,144.4 30.23,0 0,-6.54 c 22.95,15.61 53.43,11.2 71.42,-10.34 17.99,-21.56 17.99,-53.63 0,-75.18 -17.99,-21.54 -48.47,-25.97 -71.42,-10.35 z m 992.23,-11.78 -25.1,0 c -0.66,-0.06 -1.32,0.18 -1.81,0.67 -0.48,0.47 -0.72,1.13 -0.66,1.81 l 0,2.78 0,0 13.79,0 0,30.22 -13.79,0 0,78.71 -30.24,0 0,-78.71 -13.79,0 0,-30.22 13.79,0 c 0,-19.59 15.88,-35.47 35.46,-35.47 l 22.35,0 0,30.21 z m 390.01,2.58 0,30.12 c -7.13,0 -13.97,2.83 -19.01,7.86 -5.05,5.05 -7.87,11.88 -7.87,19.02 l 0,54.61 -30.25,0 0,-108.93 30.25,0 0,6.52 c 8.03,-5.46 17.29,-8.64 26.88,-9.2 z m 177.25,9.2 0,-6.52 -30.24,0 0,108.93 30.24,0 0,-63.11 c 0,-10.16 8.24,-18.38 18.4,-18.38 10.15,0 18.38,8.22 18.38,18.38 l 0,63.11 30.24,0 0,-63.11 c 0,-10.16 8.24,-18.38 18.4,-18.38 10.15,0 18.39,8.22 18.39,18.38 l 0,63.11 30.23,0 -0.01,-63.11 c 0,-19.18 -11.27,-36.57 -28.78,-44.38 -17.51,-7.83 -38.01,-4.63 -52.28,8.17 -14.83,-15.27 -36.89,-16.56 -52.97,-3.09 z m 646.89,0 0,-6.52 30.26,0 0,108.93 -30.26,0 0,-6.54 c -22.94,15.61 -53.41,11.2 -71.39,-10.34 -17.99,-21.56 -17.99,-53.63 0,-75.18 17.98,-21.54 48.45,-25.97 71.39,-10.35 z m 243.81,-9.2 0,30.12 c -7.12,0 -13.96,2.83 -19.01,7.86 -5.03,5.05 -7.87,11.88 -7.87,19.02 l 0,54.61 -30.23,0 0,-108.93 30.23,0 0,6.52 c 8.03,-5.46 17.31,-8.64 26.88,-9.2 z" />
   <path
   style="fill:#000000"
   id="path1634"
   d="m 1303.67,3695.16 c 0,-14.85 -12.02,-26.88 -26.87,-26.88 -14.84,0 -26.89,12.03 -26.89,26.88 0,14.84 12.05,26.88 26.89,26.88 14.85,0 26.87,-12.04 26.87,-26.88 z m 3499.91,-15.11 44.46,0 c -5,-7.37 -13.32,-11.77 -22.23,-11.77 -8.9,0 -17.23,4.4 -22.23,11.77 m -1128.28,0 44.47,0 c -5.01,-7.37 -13.33,-11.77 -22.23,-11.77 -8.91,0 -17.22,4.4 -22.24,11.77 m -899.27,15.11 c 0,-14.85 -12.03,-26.88 -26.88,-26.88 -14.84,0 -26.87,12.03 -26.87,26.88 0,14.84 12.03,26.88 26.87,26.88 14.85,0 26.88,-12.04 26.88,-26.88 z m 2600.88,0 c 0,-14.85 -12.04,-26.88 -26.89,-26.88 -14.85,0 -26.87,12.03 -26.87,26.88 0,14.84 12.02,26.88 26.87,26.88 14.85,0 26.89,-12.04 26.89,-26.88 z m -261.53,0 c 0,-14.85 -12.03,-26.88 -26.88,-26.88 -14.84,0 -26.88,12.03 -26.88,26.88 0,14.84 12.04,26.88 26.88,26.88 14.85,0 26.88,-12.04 26.88,-26.88 z m -3548.42,0.29 c 0,-14.85 -12.02,-26.88 -26.88,-26.88 -14.83,0 -26.87,12.03 -26.87,26.88 0,14.84 12.04,26.88 26.87,26.88 14.86,0 26.88,-12.04 26.88,-26.88 z m 212.21,-15.4 44.47,0 c -5.01,-7.37 -13.34,-11.77 -22.24,-11.77 -8.9,0 -17.23,4.4 -22.23,11.77 m 5908,0 44.47,0 c -5,-7.37 -13.33,-11.77 -22.23,-11.77 -8.91,0 -17.23,4.4 -22.24,11.77 M 7268,3695.16 c 0,-14.85 -12.02,-26.88 -26.86,-26.88 -14.85,0 -26.88,12.03 -26.88,26.88 0,14.84 12.03,26.88 26.88,26.88 14.84,0 26.86,-12.04 26.86,-26.88 z" />
   <path
   style="fill:#ffc000"
   id="path1636"
   d="m 918.37,1633.25 7156.1,0 0,1906.25 -7156.1,0 0,-1906.25" />
   <path
   style="fill:url(#id1)"
   id="path1638"
   d="m 6542.59,3424.95 0,0 m 1512.67,-313.2 19.21,0 0,10.92 -8.28,0 0,43.65 -10.93,0 0,-54.57 m -54.55,0 32.74,0 0,10.92 -32.74,0 0,-10.92 m 0,43.64 32.74,0 0,10.93 -32.74,0 0,-10.93 m -76.4,-43.64 0,0 0,0 0,0 0,0 m 21.83,10.92 10.91,0 0,43.65 -10.91,0 0,-43.65 m 10.91,-10.92 10.92,0 0,10.92 -10.92,0 0,-10.92 m 10.92,10.92 10.92,0 0,43.65 -10.92,0 0,-43.65 m -43.66,-10.92 21.83,0 0,10.92 -10.92,0 0,43.65 -10.91,0 0,-54.57 m -21.83,-10.92 10.92,0 0,21.84 -10.92,0 0,-21.84 m 0,32.74 10.92,0 0,21.82 -10.92,0 0,-21.82 m -87.3,-21.82 10.92,0 0,21.82 -10.92,0 0,-21.82 m -78.14,0 10.91,0 0,10.92 -10.91,0 0,-10.92 m -32.74,21.82 10.92,0 0,21.82 -10.92,0 0,-21.82 m -42,21.82 42,0 0,10.93 -42,0 0,-10.93 m -43.65,-32.72 10.91,0 0,10.9 -10.91,0 0,-10.9 m -10.91,-32.75 32.74,0 0,10.91 -32.74,0 0,-10.91 m 0,65.47 32.74,0 0,10.93 -32.74,0 0,-10.93 m -54.57,-65.47 21.83,0 0,10.91 -21.83,0 0,-10.91 m -10.91,10.91 10.91,0 0,10.92 -10.91,0 0,-10.92 m 32.74,32.74 10.91,0 0,21.82 -10.91,0 0,-21.82 m 294.75,-140.69 43.65,0 0,10.93 -43.65,0 0,-10.93 m -10.91,10.93 10.91,0 0,10.9 -10.91,0 0,-10.9 m 10.91,10.9 32.73,0 0,10.92 -32.73,0 0,-10.92 m 32.73,10.92 10.92,0 0,10.9 -10.92,0 0,-10.9 m -43.64,10.9 43.64,0 0,10.92 -43.64,0 0,-10.92 m 65.47,-43.65 10.91,0 0,43.65 -10.91,0 0,-43.65 m 10.91,65.48 32.75,0 0,10.92 -32.75,0 0,-10.92 m 54.57,-21.83 43.66,0 0,10.92 -43.66,0 0,-10.92 m 43.66,-10.9 10.91,0 0,10.9 -10.91,0 0,-10.9 m -32.74,-10.92 32.74,0 0,10.92 -32.74,0 0,-10.92 m -10.92,-10.9 10.92,0 0,10.9 -10.92,0 0,-10.9 m 10.92,-10.93 43.65,0 0,10.93 -43.65,0 0,-10.93 m -130.96,237.73 43.65,0 0,10.91 -43.65,0 0,-10.91 m -10.91,10.91 10.91,0 0,10.91 -10.91,0 0,-10.91 m 10.91,10.91 32.73,0 0,10.92 -32.73,0 0,-10.92 m 32.73,10.92 10.92,0 0,10.93 -10.92,0 0,-10.93 m -43.64,10.93 43.64,0 0,10.9 -43.64,0 0,-10.9 m -262.32,0 43.65,0 0,10.9 -43.65,0 0,-10.9 m 43.65,-10.93 10.9,0 0,10.93 -10.9,0 0,-10.93 m -32.75,-10.92 32.75,0 0,10.92 -32.75,0 0,-10.92 m -10.9,-10.91 10.9,0 0,10.91 -10.9,0 0,-10.91 m 10.9,-10.91 43.65,0 0,10.91 -43.65,0 0,-10.91 m -328.02,118.87 43.66,0 0,10.91 -43.66,0 0,-10.91 m -10.9,10.91 10.9,0 0,10.91 -10.9,0 0,-10.91 m 10.9,10.91 32.74,0 0,10.92 -32.74,0 0,-10.92 m 32.74,10.92 10.92,0 0,10.91 -10.92,0 0,-10.91 m -43.64,10.91 43.64,0 0,10.91 -43.64,0 0,-10.91 m -724.99,0 43.64,0 0,10.91 -43.64,0 0,-10.91 m 43.64,-10.91 10.91,0 0,10.91 -10.91,0 0,-10.91 m -32.74,-10.92 32.74,0 0,10.92 -32.74,0 0,-10.92 m -10.9,-10.91 10.9,0 0,10.91 -10.9,0 0,-10.91 m 10.9,-10.91 43.65,0 0,10.91 -43.65,0 0,-10.91 m 1173.46,0 21.83,0 0,10.91 -10.91,0 0,43.65 -10.92,0 0,-54.56 m 43.66,10.91 10.91,0 0,43.65 -10.91,0 0,-43.65 m -10.92,-10.91 10.92,0 0,10.91 -10.92,0 0,-10.91 m -10.91,10.91 10.91,0 0,43.65 -10.91,0 0,-43.65 m -21.83,-10.91 0,0 0,0 0,0 0,0 m -1051.63,0 0,0 0,0 0,0 0,0 m 21.83,10.91 10.92,0 0,43.65 -10.92,0 0,-43.65 m 10.92,-10.91 10.9,0 0,10.91 -10.9,0 0,-10.91 m 10.9,10.91 10.92,0 0,43.65 -10.92,0 0,-43.65 m -43.65,-10.91 21.83,0 0,10.91 -10.91,0 0,43.65 -10.92,0 0,-54.56 m 1291.73,-312.95 0,-43.65 10.92,0 0,65.48 -10.92,0 0,-10.91 -32.75,0 0,-10.92 32.75,0 m -853.76,354.96 0,-43.67 10.93,0 0,65.49 -10.93,0 0,-10.92 -32.73,0 0,-10.9 32.73,0 m -32.73,21.82 32.73,0 0,10.9 -32.73,0 0,-10.9 m -10.91,-65.49 10.91,0 0,43.67 -10.91,0 0,-43.67 m 919.22,-225.15 10.92,0 0,10.9 32.74,0 0,-10.9 10.91,0 0,21.82 -43.65,0 0,10.9 -10.92,0 0,-32.72 m -196.44,118.85 10.92,0 0,10.91 32.74,0 0,-10.91 10.9,0 0,21.83 -43.64,0 0,10.93 -10.92,0 0,-32.76 m 10.92,32.76 32.74,0 0,10.9 -32.74,0 0,-10.9 m 0,-43.67 32.74,0 0,10.91 -32.74,0 0,-10.91 m -262.33,0 32.74,0 0,10.91 -32.74,0 0,-10.91 m 0,43.67 32.74,0 0,10.9 -32.74,0 0,-10.9 m -10.91,-32.76 10.91,0 0,10.91 32.74,0 0,-10.91 10.91,0 0,21.83 -43.65,0 0,10.93 -10.91,0 0,-32.76 m 393.28,118.87 10.91,0 0,10.91 32.75,0 0,-10.91 10.92,0 0,21.83 -43.67,0 0,10.91 -10.91,0 0,-32.74 m 10.91,32.74 32.75,0 0,10.91 -32.75,0 0,-10.91 m 0,-43.65 32.75,0 0,10.91 -32.75,0 0,-10.91 m 130.97,0 8.28,0 0,10.91 -8.28,0 0,-10.91 m 0,43.65 8.28,0 0,10.91 -8.28,0 0,-10.91 m -10.93,-32.74 10.93,0 0,10.91 8.28,0 0,0 0,0 0,10.92 -8.28,0 0,10.91 -10.93,0 0,-32.74 m -1564.68,-10.91 32.74,0 0,10.91 -32.74,0 0,-10.91 m 0,43.65 32.74,0 0,10.91 -32.74,0 0,-10.91 m -10.92,-32.74 10.92,0 0,10.91 32.74,0 0,-10.91 10.91,0 0,21.83 -43.65,0 0,10.91 -10.92,0 0,-32.74 m 140.22,21.83 21.82,0 0,20.17 -21.82,0 0,-20.17 m 1315.34,-151.61 32.75,0 0,10.91 -32.75,0 0,-10.91 m -10.91,10.91 10.91,0 0,32.76 -10.91,0 0,-32.76 m 10.91,32.76 32.75,0 0,10.9 -32.75,0 0,-10.9 m 32.75,-10.93 10.92,0 0,10.93 -10.92,0 0,-10.93 m 32.74,-32.74 32.74,0 0,10.91 -32.74,0 0,-10.91 m -10.92,32.74 10.92,0 0,10.93 -10.92,0 0,-10.93 m -876.5,0 10.91,0 0,10.93 -10.91,0 0,-10.93 m -32.74,10.93 32.74,0 0,10.9 -32.74,0 0,-10.9 m -10.92,-32.76 10.92,0 0,32.76 -10.92,0 0,-32.76 m 10.92,-10.91 32.74,0 0,10.91 -32.74,0 0,-10.91 m 603.67,-21.83 10.92,0 0,10.92 -10.92,0 0,-10.92 m 65.48,43.65 10.91,0 0,10.92 -10.91,0 0,-10.92 m -327.81,-21.82 21.83,0 0,10.91 -21.83,0 0,-10.91 m 21.83,10.91 10.92,0 0,43.66 -10.92,0 0,-43.66 m -297.69,-10.91 31.09,0 0,10.91 -31.09,0 0,-10.91 m -10.91,10.91 10.91,0 0,32.76 -10.91,0 0,-32.76 m 10.91,32.76 31.09,0 0,10.9 -31.09,0 0,-10.9 m 31.09,-32.76 10.91,0 0,32.76 -10.91,0 0,-32.76 m 526.25,118.87 10.91,0 0,32.74 -10.91,0 0,-32.74 m -31.09,32.74 31.09,0 0,10.91 -31.09,0 0,-10.91 m -10.91,-32.74 10.91,0 0,32.74 -10.91,0 0,-32.74 m 10.91,-10.91 31.09,0 0,10.91 -31.09,0 0,-10.91 m -272.22,-118.87 10.92,0 0,10.91 10.91,0 0,10.91 -10.91,0 0,32.75 -10.92,0 0,-54.57 m 655.2,0 10.93,0 0,10.91 8.28,0 0,10.91 -8.28,0 0,32.75 -10.93,0 0,-54.57 m -535.15,54.57 -10.9,0 0,-10.9 -10.92,0 0,-10.93 10.92,0 0,-32.74 10.9,0 0,54.57 m -43.65,-10.9 -10.91,0 0,-43.67 10.91,0 0,43.67 m 21.83,10.9 -21.83,0 0,-10.9 21.83,0 0,10.9 m -294.66,-54.57 10.92,0 0,10.91 10.91,0 0,10.91 -10.91,0 0,32.75 -10.92,0 0,-54.57 m 43.65,10.91 10.91,0 0,43.66 -10.91,0 0,-43.66 m -21.82,-10.91 21.82,0 0,10.91 -21.82,0 0,-10.91 m 326.77,118.87 21.82,0 0,10.91 -21.82,0 0,-10.91 m 21.82,10.91 10.92,0 0,43.65 -10.92,0 0,-43.65 m -43.65,-10.91 10.93,0 0,10.91 10.9,0 0,10.91 -10.9,0 0,32.74 -10.93,0 0,-54.56 m 361.17,54.56 -21.82,0 0,-10.91 21.82,0 0,10.91 m -21.82,-10.91 -10.91,0 0,-43.65 10.91,0 0,43.65 m 43.65,10.91 -10.92,0 0,-10.91 -10.91,0 0,-10.91 10.91,0 0,-32.74 10.92,0 0,54.56 m 130.96,0 -10.91,0 0,-10.91 -10.91,0 0,-10.91 10.91,0 0,-32.74 10.91,0 0,54.56 m -43.65,-10.91 -10.92,0 0,-43.65 10.92,0 0,43.65 m 21.83,10.91 -21.83,0 0,-10.91 21.83,0 0,10.91 m 10.91,-162.52 10.91,0 0,43.66 -43.65,0 0,-10.9 32.74,0 0,-10.93 -32.74,0 0,-10.92 32.74,0 0,-10.91 m -524.87,118.87 10.91,0 0,43.65 -43.65,0 0,-10.91 32.74,0 0,-10.91 -32.74,0 0,-10.92 32.74,0 0,-10.91 m -43.66,21.83 10.92,0 0,10.91 -10.92,0 0,-10.91 m 10.92,-32.74 32.74,0 0,10.91 -32.74,0 0,-10.91 m -459.84,0 32.74,0 0,10.91 -32.74,0 0,-10.91 m -10.92,32.74 10.92,0 0,10.91 -10.92,0 0,-10.91 m 43.66,-21.83 10.91,0 0,43.65 -43.65,0 0,-10.91 32.74,0 0,-10.91 -32.74,0 0,-10.92 32.74,0 0,-10.91 m 853.74,-270.47 -43.64,0 0,76.4 43.64,0 0,-10.93 -32.73,0 0,-21.82 32.73,0 0,-10.9 -32.73,0 0,-21.84 32.73,0 0,-10.91 m -109.13,0 0,76.4 10.92,0 0,-54.57 10.91,0 0,-10.92 -10.91,0 0,-10.91 -10.92,0 m 54.56,0 0,76.4 -10.9,0 0,-54.57 -10.91,0 0,-10.92 10.91,0 0,-10.91 10.9,0 m -89.04,0 10.91,0 0,43.65 10.92,0 0,10.92 -10.92,0 0,21.83 -10.91,0 0,-21.83 -32.74,0 0,-21.82 10.91,0 0,10.9 21.83,0 0,-21.82 -10.92,0 0,-10.92 10.92,0 0,-10.91 m -96.57,0 0,10.91 31.09,0 0,10.92 10.91,0 0,-10.92 10.92,0 0,-10.91 -52.92,0 m 31.09,21.83 -10.91,0 0,10.92 -10.91,0 0,10.9 32.73,0 0,-10.9 -10.91,0 0,-10.92 m -96.56,-10.92 0,54.56 10.91,0 0,-10.9 10.91,0 0,-10.92 -10.91,0 0,-32.74 -10.91,0 m 43.65,0 0,10.92 -10.92,0 0,10.92 10.92,0 0,32.72 10.91,0 0,-54.56 -10.91,0 m -109.13,10.92 0,43.64 10.91,0 0,-21.82 32.74,0 0,-10.9 -32.74,0 0,-10.92 -10.91,0 m 10.91,43.64 32.74,0 0,10.93 -32.74,0 0,-10.93 m -702.32,194.09 -10.92,0 0,10.91 -10.9,0 0,10.91 32.73,0 0,-10.91 -10.91,0 0,-10.91 m -31.08,-21.83 0,10.91 31.08,0 0,10.92 10.91,0 0,-10.92 10.92,0 0,-10.91 -52.91,0 m 0,65.48 41.99,0 0,10.91 -41.99,0 0,-10.91 m 41.99,-21.83 10.92,0 0,21.83 -10.92,0 0,-21.83 m 877.02,-140.69 0,10.91 32.74,0 0,10.91 10.92,0 0,-10.91 10.91,0 0,-10.91 -54.57,0 m 10.92,32.74 10.91,0 0,10.93 32.74,0 0,10.9 -54.57,0 0,-10.9 10.92,0 0,-10.93 m -65.48,-32.74 21.83,0 0,43.67 10.91,0 0,10.9 -32.74,0 0,-10.9 10.91,0 0,-32.76 -10.91,0 0,-10.91 m -327.8,0 21.82,0 0,43.67 10.92,0 0,10.9 -32.74,0 0,-10.9 10.9,0 0,-32.76 -10.9,0 0,-10.91 m 10.9,-21.83 10.92,0 0,10.92 -10.92,0 0,-10.92 m -131.58,118.87 10.92,0 0,10.91 -10.92,0 0,-10.91 m -10.91,21.83 21.83,0 0,43.65 10.92,0 0,10.91 -32.75,0 0,-10.91 10.91,0 0,-32.74 -10.91,0 0,-10.91 m 98.84,-86.13 10.93,0 0,10.93 -10.93,0 0,-10.93 m -10.9,10.93 10.9,0 0,10.9 -10.9,0 0,-10.9 m -10.92,-65.5 10.92,0 0,21.83 10.9,0 0,10.91 -10.9,0 0,32.76 -10.92,0 0,-32.76 -10.91,0 0,-10.91 10.91,0 0,-21.83 m 64.86,118.87 10.9,0 0,21.83 10.93,0 0,10.91 -10.93,0 0,32.74 -10.9,0 0,-32.74 -10.93,0 0,-10.91 10.93,0 0,-21.83 m 10.9,65.48 10.93,0 0,10.91 -10.93,0 0,-10.91 m 10.93,-10.91 10.9,0 0,10.91 -10.9,0 0,-10.91 m 21.82,-32.74 10.91,0 0,10.91 10.91,0 0,10.91 -10.91,0 0,32.74 -10.91,0 0,-54.56 m 43.65,10.91 10.92,0 0,12.57 -10.92,0 0,-12.57 m -21.83,-10.91 21.83,0 0,10.91 -21.83,0 0,-10.91 m -274.31,-21.83 20.17,0 0,65.48 10.92,0 0,9.26 -31.09,0 0,-9.26 10.9,0 0,-54.57 -10.9,0 0,-10.91 m -194.79,0 20.17,0 0,65.48 10.92,0 0,9.26 -31.09,0 0,-9.26 10.91,0 0,-54.57 -10.91,0 0,-10.91 m 654.63,21.83 21.82,0 0,10.91 -21.82,0 0,-10.91 m -10.92,10.91 10.92,0 0,32.74 -10.92,0 0,-32.74 m 32.74,0 10.91,0 0,-32.74 10.92,0 0,74.74 -43.65,0 0,-9.26 32.73,0 0,-21.83 -10.91,0 0,-10.91 m 164.73,0 10.92,0 0,32.74 -10.92,0 0,-32.74 m 10.92,-10.91 21.83,0 0,10.91 -21.83,0 0,-10.91 m 21.83,10.91 10.91,0 0,-10.91 10.9,0 0,74.73 -10.9,0 0,-21.82 -32.74,0 0,-9.26 32.74,0 0,-21.83 -10.91,0 0,-10.91 m -908.31,-10.91 -21.84,0 0,10.91 21.84,0 0,-10.91 m -21.84,10.91 -10.91,0 0,-10.91 -10.91,0 0,74.73 10.91,0 0,-21.82 32.75,0 0,-9.26 -32.75,0 0,-21.83 10.91,0 0,-10.91 m 32.74,0 -10.9,0 0,32.74 10.9,0 0,-32.74 m -132.4,0 -10.93,0 0,32.74 10.93,0 0,-32.74 m -32.74,0 -10.91,0 0,-10.91 -10.93,0 0,74.73 10.93,0 0,-21.82 32.72,0 0,-9.26 -32.72,0 0,-21.83 10.91,0 0,-10.91 m 21.81,-10.91 -21.81,0 0,10.91 21.81,0 0,-10.91 m -242.77,75.47 0,0" />
   <path
   style="fill:#000000"
   id="path1640"
   d="m 2772.69,2181.06 c -98.54,-428.82 -353.71,-447.47 -413.71,-447.47 l 0,-25.08 c 133.05,0 348.1,94.96 426.25,420.85 100.11,-325.2 271.08,-412.49 391.07,-414.14 114.35,-1.58 184.87,25.07 293.24,81.53 l 0,-50.89 312.9,0 0,-42.89 25.07,0 0,42.89 53.05,0 0,25.07 -53.05,0 0,613.13 225.02,-568.78 215.58,0 18.78,-44.35 -268.62,0 0,-25.07 279.26,0 29.52,-69.67 23.08,9.79 -25.39,59.88 59.43,0 0,25.07 -70.05,0 -175.35,413.86 232.24,0 0,310.18 c 217.36,-106.98 477.4,-28.48 608.47,180.93 130.01,-200.39 383.99,-280.25 605.28,-190.31 l -8.81,-14.24 374.02,0 74.73,120.8 72.97,-117.99 c 1.08,-1.75 2.98,-2.81 5.05,-2.81 l 0,0 c 2.14,0 4.12,1.16 5.15,3.04 1.06,1.88 1.01,4.17 -0.12,6 l -76.09,123.02 9.74,15.76 89.7,-145.01 c 1.08,-1.75 2.98,-2.81 5.04,-2.81 l 0,0 c 2.15,0 4.13,1.16 5.17,3.04 1.05,1.88 0.99,4.17 -0.14,6 l -92.8,150.04 9.75,15.77 108.15,-174.85 374.01,0 -295.16,477.2 9.76,15.76 311.43,-503.52 -388.55,0 c -2.13,0 -4.12,-1.16 -5.17,-3.03 -1.04,-1.9 -0.99,-4.18 0.14,-6.01 l 0,0 c 1.09,-1.74 2.99,-2.8 5.03,-2.8 l 409.8,0 -309,499.6 289.06,467.36 c 1.14,1.84 1.19,4.13 0.15,6.01 -1.04,1.87 -3.03,3.03 -5.18,3.03 -2.05,0 -3.96,-1.06 -5.03,-2.8 l -285.98,-462.35 -9.75,15.76 277.96,449.39 -374.01,0 -71.44,-115.5 -69.72,112.7 c -1.08,1.74 -2.97,2.8 -5.04,2.8 l 0,0 c -0.96,0 -1.92,-0.24 -2.78,-0.7 -0.85,0.46 -1.81,0.7 -2.79,0.7 -2.13,0 -4.12,-1.16 -5.17,-3.03 -1.05,-1.88 -1,-4.17 0.14,-6.01 l 75.6,-122.22 -9.75,-15.77 -89.2,144.23 c -1.08,1.74 -2.99,2.8 -5.05,2.8 -2.14,0 -4.11,-1.16 -5.16,-3.03 -1.05,-1.88 -0.99,-4.17 0.13,-6.01 l 92.32,-149.25 -9.75,-15.76 -107.65,174.05 -374.02,0 10.94,-17.7 c -221.48,91.5 -476.71,12.28 -607.46,-188.54 -130.9,209.94 -391.28,286.75 -608.92,179.63 l 0,26.61 -317.8,0 0,-2.38 -52.45,0 22.91,64.68 -23.64,8.36 -25.87,-73.04 -100.74,0 0,-25.07 91.86,0 -187.19,-528.36 -11.05,26.94 0,528.87 -207.29,0 0,-1609.67 207.29,0 0,721.65 35.4,-89.48 0,-676.52 -287.82,0 0,73.28 c -124.87,-83.95 -208.53,-103.92 -318.32,-103.92 -86.93,0 -277.7,63.37 -378.54,440.77 l -25.07,0 z m 448.99,1277.73 -395.21,0.02 0,-25.08 269.89,0 c -205.67,-91.32 -295.28,-421.82 -295.28,-813.61 0,-461.94 124.51,-838.69 417.02,-838.69 134.42,0 210.79,69.05 276.52,131.98 l 0,41.04 c 0.02,0.04 0.05,0.08 0.07,0.11 l -0.02,347.84 -22.33,0 c -48.46,-88.29 -137.56,-212.3 -229.57,-212.3 -153.37,0 -229.22,237.52 -227.3,530.02 -1.92,292.5 73.93,530.02 227.3,530.02 92.01,0 181.11,-124.01 229.57,-212.32 l 22.33,0 0.02,347.85 c -0.02,0.04 -0.05,0.08 -0.07,0.12 l 0,41.04 c -65.14,62.36 -140.75,130.73 -272.94,131.96 z M 2355.94,1781.43 c 289.99,0 413.44,395.49 413.44,838.69 0,443.19 -123.45,838.69 -413.44,838.69 -289.99,0 -413.43,-376.76 -413.43,-838.69 0,-461.94 123.44,-838.69 413.43,-838.69 z m -721.95,33.85 -377.58,0 0,934.79 c 2.43,6.54 4.86,13.08 7.27,19.62 16.95,-4.64 34.54,-6.51 52.09,-5.59 34.33,1.85 65.28,21.33 81.77,51.51 14.9,27.27 21.99,58.11 20.5,89.14 -0.63,12.98 -4.05,25.67 -10.02,37.21 -14.67,28.33 -37.3,51.74 -65.12,67.36 9.41,31.95 18.41,64 26.99,96.18 16.39,61.57 24.11,125.11 22.88,188.81 -0.32,16.43 -3.88,32.64 -10.49,47.68 -6.78,15.42 -18.64,28.04 -33.62,35.76 -10.86,5.6 -23.54,6.52 -35.1,2.56 -11.56,-3.96 -21,-12.46 -26.17,-23.53 -5.99,-12.91 -8.94,-27.02 -8.57,-41.26 0.2,-7.99 4.06,-15.47 10.48,-20.25 8.11,-6.05 18.05,-9.07 28.14,-8.59 6.62,0.32 12.54,4.18 15.52,10.12 2.97,5.93 2.49,13 -1.22,18.49 -4.57,6.77 -11.3,11.81 -19.07,14.31 l 2.66,5.8 c 1.25,3.29 4.03,5.77 7.46,6.6 3.43,0.85 7.04,-0.03 9.68,-2.35 13.04,-11.1 21.16,-26.9 22.58,-43.95 1.88,-29.39 1.27,-58.89 -1.85,-88.18 -9.17,-62.54 -22.8,-124.35 -40.8,-184.95 -4.62,1.47 -9.31,2.73 -14.03,3.78 -13.87,3.07 -27.87,5.48 -41.96,7.19 l 0,391.41 252.69,0 0,52.35 25.08,0 0,-52.35 53.83,0 0,-25.07 -53.83,0 0,-564.41 24.2,0 220.54,589.48 242.19,0 21.89,55.87 23.33,-9.15 -21.75,-55.54 75.57,0 0,-25.07 -85.39,0 -260.8,-665.62 c 96,-99.03 151.07,-248.06 151.07,-437.34 0,-253.68 -68.67,-472.82 -291.04,-472.82 z m -332.61,1171.98 c -14.4,5.91 -29.53,9.9 -44.97,11.81 l 0,-142.65 c 15.55,43.24 30.49,86.7 44.82,130.36 0.05,0.16 0.1,0.31 0.15,0.48 0,0 0,0 0,0 0,0 0,0 0,0 0,0 0,0 0,0 m -23.68,-178.71 c 4.94,-1.36 9.92,-2.51 14.94,-3.44 15.76,-2.92 32.02,0.87 44.82,10.5 11.66,8.75 20.05,21.15 23.86,35.23 8.47,31.39 6.62,64.67 -5.27,94.93 -2.48,6.35 -6.6,11.93 -11.91,16.21 -4.09,3.28 -8.3,6.37 -12.67,9.27 -16.72,-54.62 -34.63,-108.88 -53.77,-162.7 m -21.29,190.52 c -3.96,0.48 -7.94,0.84 -11.92,1.05 -43.42,2.36 -83.8,-22.28 -101.56,-61.98 -31.51,-70.46 -36.08,-150.02 -12.87,-223.62 8.15,-25.84 16.57,-51.59 25.27,-77.24 2.4,-7.1 4.82,-14.19 7.29,-21.29 23.3,55.36 45.6,111.16 66.83,167.35 -30.27,16.22 -54.69,41.51 -69.84,72.31 -2.5,5.1 -1.52,11.21 2.47,15.27 3.95,4.05 10.06,5.15 15.19,2.76 4.48,-3.22 8.62,-6.87 12.39,-10.88 15.29,-16.97 33.63,-30.95 54.07,-41.22 4.26,11.61 8.49,23.22 12.68,34.84 l 0,-106.35 c -20.1,-53.81 -41.41,-107.14 -63.89,-160 -3.72,-8.75 -7.54,-17.47 -11.4,-26.14 4.67,-12.85 9.43,-25.67 14.25,-38.47 6.9,-18.25 12.17,-37.07 15.75,-56.25 4.02,-21.69 2.22,-44.08 -5.26,-64.84 -17.03,-47.33 -49.87,-87.33 -92.97,-113.24 -18.96,-11.41 -40.82,-17.04 -62.94,-16.23 -18.52,0.7 -33.48,15.36 -34.57,33.87 -0.97,16.78 2.93,33.51 11.21,48.15 7.69,13.55 15.94,26.74 24.79,39.57 27.29,39.55 50.86,81.53 70.44,125.4 3.86,8.64 7.68,17.28 11.48,25.93 -5.97,16.43 -11.82,32.89 -17.54,49.41 -26.57,76.62 -43.7,156.21 -51.02,236.98 -3.46,38.11 -0.07,76.54 10,113.47 13.84,50.66 58.87,86.54 111.34,88.68 23.48,0.96 47,0.02 70.33,-2.82 l 0,-34.47 m 343.36,-1250.81 -390.37,0 0,-60.83 -25.07,0 0,60.83 -58.38,0 0,25.06 58.38,0 0,279.28 25.07,0 0,-279.28 390.37,0 0,-25.06" />
   <path
   style="fill:#b4c3d3"
   id="path1642"
   d="m 6454.4,2508.06 -287.67,0 -128.61,207.93 -128.6,-207.93 -287.67,0 53.94,87.23 c -109.8,-93.21 -256.85,-129.78 -397.51,-98.89 -140.67,30.9 -258.85,125.75 -319.46,256.4 -54.32,-121.55 -156.59,-212.52 -280.24,-249.35 -123.67,-36.82 -256.59,-15.89 -364.28,57.41 l 0,-345.07 -244.36,0 0,1166.72 244.36,0 0,-47.06 c 107.88,73.43 241.06,94.3 364.9,57.22 123.82,-37.08 226.09,-128.46 280.16,-250.39 61.3,131.16 180.62,225.93 322.24,255.95 141.64,30.03 289.14,-8.18 398.37,-103.19 l -57.64,93.19 287.68,0 128.11,-207.14 128.12,207.14 287.67,0 -271.95,-439.68 272.44,-440.49 z" />
   <path
   style="fill:#000000"
   id="path1644"
   d="m 4748.65,2946.97 c 0,-119.95 -97.24,-217.19 -217.18,-217.19 -119.94,0 -217.17,97.24 -217.17,217.19 0,119.94 97.23,217.18 217.17,217.18 119.94,0 217.18,-97.24 217.18,-217.18 z m 1076.57,-110.08 c 18.22,74.12 17.74,151.6 -1.35,225.49 l 70.42,-113.83 -69.07,-111.66 m -230.78,110.08 c 0,-119.95 -97.23,-217.19 -217.18,-217.19 -119.95,0 -217.18,97.24 -217.18,217.19 0,119.94 97.23,217.18 217.18,217.18 119.95,0 217.18,-97.24 217.18,-217.18 z" />
   <path
   style="fill:#ffc000"
   id="path1646"
   d="m 1463.69,3399.88 45.41,0 0,-564.41 -45.41,0 0,564.41 m 93.77,-920.19 c 76.6,0 88.61,-97.11 88.53,-163.75 -0.08,-66.65 -9.75,-138.98 -76.58,-138.98 l -105.72,0 0,368.29 45.41,0 0,-65.56 48.36,0 z m 0,25.07 -23.28,0 0,40.49 1.6,0 c 170.71,0 170.71,-152.85 170.71,-205.97 l 0,-34.28 c 0,-51.48 -0.35,-193.6 -144.09,-193.6 l -98.71,0 0,40.49 93.77,0 c 48.8,0 114.23,6.94 114.23,170.52 0,163.58 -65.77,180.99 -114.23,182.35 z m -406.49,-4.47 c -19.66,-39.21 -40.9,-77.61 -63.73,-115.06 -7.25,-11.92 -13.8,-24.23 -19.64,-36.9 -3.81,-8.25 -6.07,-17.14 -6.68,-26.21 -0.13,-1.96 0.58,-3.89 1.94,-5.29 1.36,-1.41 3.25,-2.17 5.21,-2.1 9.42,0.32 18.61,3.02 26.7,7.86 34.79,20.81 59.58,54.9 68.67,94.41 2.63,11.51 2.71,23.49 0.23,35.04 -3.52,16.27 -7.75,32.37 -12.7,48.25 l 0,0 m 4220.37,627.03 11.84,0 c 98.46,-3.23 176.14,-84.81 174.52,-183.32 -1.62,-98.5 -81.92,-177.5 -180.44,-177.5 -98.51,0 -178.81,79 -180.43,177.5 -1.62,98.51 76.05,180.09 174.51,183.32 z m -845.78,0 11.84,0 c 98.45,-3.23 176.13,-84.81 174.5,-183.32 -1.61,-98.5 -81.92,-177.5 -180.43,-177.5 -98.5,0 -178.82,79 -180.43,177.5 -1.62,98.51 76.06,180.09 174.52,183.32 z m -565.76,-567.39 73.41,189.89 0,-363.14 -73.41,173.25 m 12.08,837.57 -199.5,-563.15 23.38,-56.99 230.54,620.14 -54.42,0 M 2355.93,2084.66 c 139.65,0 199.05,252.48 199.05,535.46 0,282.97 -59.4,535.45 -199.05,535.45 -139.63,0 -199.04,-240.54 -199.04,-535.45 0,-294.92 59.41,-535.46 199.04,-535.46 z" />
   <path
   style="fill:#000000"
   id="path1648"
   d="m 5371.34,3127.32 c 3.95,0.28 7.88,0.27 11.84,0 l 0,-16.58 c 89.32,-3.24 159.56,-77.44 157.93,-166.8 -1.64,-89.35 -74.58,-160.92 -163.96,-160.86 -2.14,-0.04 -3.92,1.09 -4.99,2.92 -1.09,1.86 -1.09,4.15 -0.01,5.99 1.07,1.86 2.87,2.98 5,2.94 55.04,-0.05 105.79,29.67 132.71,77.67 26.92,47.99 25.79,106.81 -2.93,153.74 -28.73,46.93 -80.61,74.68 -135.59,72.54 l 0,28.44 z m -839.87,-44.91 c -3.28,0 -5.91,-2.65 -5.91,-5.91 0,-3.28 2.63,-5.93 5.91,-5.93 68.27,0 123.61,-55.34 123.61,-123.6 0,-68.28 -55.34,-123.62 -123.61,-123.62 -3.28,0 -5.91,-2.65 -5.91,-5.91 0,-3.28 2.63,-5.93 5.91,-5.93 74.81,0 135.44,60.64 135.44,135.46 0,74.8 -60.63,135.44 -135.44,135.44 z m 845.79,0 c -3.28,0 -5.92,-2.65 -5.92,-5.91 0,-3.28 2.64,-5.93 5.92,-5.93 68.26,0 123.6,-55.34 123.6,-123.6 0,-68.28 -55.34,-123.62 -123.6,-123.62 -3.28,0 -5.92,-2.65 -5.92,-5.91 0,-3.28 2.64,-5.93 5.92,-5.93 74.81,0 135.45,60.64 135.45,135.46 0,74.8 -60.64,135.44 -135.45,135.44 z m -851.7,44.91 c 3.93,0.19 7.88,0.15 11.84,0 l 0,-16.58 c 89.31,-3.24 159.56,-77.44 157.93,-166.8 -1.65,-89.35 -74.61,-160.92 -163.97,-160.86 -2.15,-0.04 -3.91,1.09 -5,2.92 -1.08,1.86 -1.08,4.15 0,5.99 1.08,1.86 2.86,2.98 5,2.94 55.05,-0.05 105.8,29.67 132.71,77.67 26.93,47.99 25.8,106.81 -2.93,153.74 -28.73,46.93 -80.59,74.68 -135.58,72.54 l 0,28.44 z m -2169.62,-47.1 0,-61.93 -25.07,0 0,65.95 0,25.07 c 135.53,0 175.31,-230.16 176.25,-476.67 l 570.42,0 c 1.35,173.53 39.4,439.13 152.69,457.44 l 0,65.49 25.07,0 0,-522.93 99.81,0 0,-25.07 -99.81,0 0,-90.45 -25.07,0 0,90.45 -127.54,0 c 2.72,-171.99 50.77,-423.43 140.08,-427.51 l 0,-25.08 c -117.15,4.53 -162.68,272.92 -165.16,452.59 l -570.53,0 c -1.63,-245.33 -41.23,-473.61 -176.21,-473.61 l 0,24.06 0,449.55 -76.62,0 0,25.07 76.62,0 0,87.58 25.07,0 0,-87.58 126.07,0 c -1.26,157.79 -21.13,412.74 -126.07,447.58 z" />
   <path
   style="fill:#ffc000"
   id="path1650"
   d="m 3102.62,2632.64 c 1.61,164.28 43.22,409.55 127.61,431.82 l 0,-431.82 -127.61,0 z m -620.57,-25.07 -126.11,0 0,-445.5 c 104.4,34.7 125.36,287.45 126.11,445.5 z" />
  </g>
 <g
   id="Haupt_x0020_Desktop">
 </g>
<g
   inkscape:groupmode="layer"
   id="layer1"
   inkscape:label="Text"
   style="display:inline"><path
   style="fill:none;stroke:#000000;stroke-width:28.22222137;stroke-linecap:butt;stroke-linejoin:miter;stroke-miterlimit:4;stroke-opacity:1;stroke-dasharray:none"
   d="m 1573.532,10723.225 -2346.96296,0"
   id="path1503"
   inkscape:export-filename="/home/martin/src/dev/pics/pixelma/two/ipodcolor-front.png"
   inkscape:export-xdpi="72"
   inkscape:export-ydpi="72" /><path
   style="fill:none;stroke:#000000;stroke-width:28.22222137;stroke-linecap:butt;stroke-linejoin:miter;stroke-miterlimit:4;stroke-opacity:1;stroke-dasharray:none"
   d="M 2667.0033,9149.6934 -586.74073,7896.2019"
   id="path1505"
   inkscape:export-filename="/home/martin/src/dev/pics/pixelma/two/ipodcolor-front.png"
   inkscape:export-xdpi="72"
   inkscape:export-ydpi="72" /><path
   style="fill:none;stroke:#000000;stroke-width:28.22222137;stroke-linecap:butt;stroke-linejoin:miter;stroke-miterlimit:4;stroke-opacity:1;stroke-dasharray:none"
   d="M 4453.8955,7896.2019 9494.5318,5975.9595"
   id="path1507"
   inkscape:export-filename="/home/martin/src/dev/pics/pixelma/two/ipodcolor-front.png"
   inkscape:export-xdpi="72"
   inkscape:export-ydpi="72" /><path
   style="fill:none;stroke:#000000;stroke-width:28.22222137;stroke-linecap:butt;stroke-linejoin:miter;stroke-miterlimit:4;stroke-opacity:1;stroke-dasharray:none"
   d="M 6400.808,9176.3634 9654.552,8189.5722"
   id="path1509"
   inkscape:export-filename="/home/martin/src/dev/pics/pixelma/two/ipodcolor-front.png"
   inkscape:export-xdpi="72"
   inkscape:export-ydpi="72" /><path
   style="fill:none;stroke:#000000;stroke-width:28.22222137;stroke-linecap:butt;stroke-linejoin:miter;stroke-miterlimit:4;stroke-opacity:1;stroke-dasharray:none"
   d="m 7387.5992,10696.555 2186.9427,0"
   id="path1511"
   inkscape:export-filename="/home/martin/src/dev/pics/pixelma/two/ipodcolor-front.png"
   inkscape:export-xdpi="72"
   inkscape:export-ydpi="72" /><path
   style="fill:none;stroke:#000000;stroke-width:28.22222137;stroke-linecap:butt;stroke-linejoin:miter;stroke-miterlimit:4;stroke-opacity:1;stroke-dasharray:none"
   d="m 4427.2255,13550.249 c -133.3502,26.67 -5227.3265,1626.872 -5227.3265,1626.872"
   id="path2388"
   inkscape:export-filename="/home/martin/src/dev/pics/pixelma/two/ipodcolor-front.png"
   inkscape:export-xdpi="72"
   inkscape:export-ydpi="72" /><path
   style="fill:none;stroke:#000000;stroke-width:28.22222137;stroke-linecap:butt;stroke-linejoin:miter;stroke-miterlimit:4;stroke-opacity:1;stroke-dasharray:none"
   d="M 4640.5858,10989.926 9707.8921,14990.43"
   id="path2390"
   inkscape:export-filename="/home/martin/src/dev/pics/pixelma/two/ipodcolor-front.png"
   inkscape:export-xdpi="72"
   inkscape:export-ydpi="72" /><text
   xml:space="preserve"
   style="font-size:790.222229px;font-style:normal;font-variant:normal;font-weight:normal;font-stretch:normal;text-align:start;line-height:100%;writing-mode:lr-tb;text-anchor:start;fill:#000000;fill-opacity:1;stroke:none;font-family:URW Palladio L"
   x="-4560.5757"
   y="8136.2324"
   id="text2392"
   sodipodi:linespacing="100%"
   inkscape:export-filename="/home/martin/src/dev/pics/pixelma/two/ipodcolor-front.png"
   inkscape:export-xdpi="72"
   inkscape:export-ydpi="72"><tspan
     sodipodi:role="line"
     id="tspan2394"
     x="-4560.5757"
     y="8136.2324">Scroll Back</tspan></text>


<text
   xml:space="preserve"
   style="font-size:790.222229px;font-style:normal;font-variant:normal;font-weight:normal;font-stretch:normal;text-align:start;line-height:100%;writing-mode:lr-tb;text-anchor:start;fill:#000000;fill-opacity:1;stroke:none;font-family:URW Palladio L"
   x="-4653.77"
   y="10905.569"
   id="text2396"
   sodipodi:linespacing="100%"
   inkscape:export-filename="/home/martin/src/dev/pics/pixelma/two/ipodcolor-front.png"
   inkscape:export-xdpi="72"
   inkscape:export-ydpi="72"><tspan
     sodipodi:role="line"
     id="tspan2398"
     x="-4653.77"
     y="10905.569">Prev</tspan></text>


<text
   xml:space="preserve"
   style="font-size:790.222229px;font-style:normal;font-variant:normal;font-weight:normal;font-stretch:normal;text-align:start;line-height:100%;writing-mode:lr-tb;text-anchor:start;fill:#000000;fill-opacity:1;stroke:none;font-family:URW Palladio L"
   x="-4733.7808"
   y="15386.135"
   id="text2400"
   sodipodi:linespacing="100%"
   inkscape:export-filename="/home/martin/src/dev/pics/pixelma/two/ipodcolor-front.png"
   inkscape:export-xdpi="72"
   inkscape:export-ydpi="72"><tspan
     sodipodi:role="line"
     id="tspan2402"
     x="-4733.7808"
     y="15386.135">Play</tspan></text>


<text
   xml:space="preserve"
   style="font-size:790.222229px;font-style:normal;font-variant:normal;font-weight:normal;font-stretch:normal;text-align:start;line-height:100%;writing-mode:lr-tb;text-anchor:start;fill:#000000;fill-opacity:1;stroke:none;font-family:URW Palladio L"
   x="9828.0576"
   y="15252.784"
   id="text2404"
   sodipodi:linespacing="100%"
   inkscape:export-filename="/home/martin/src/dev/pics/pixelma/two/ipodcolor-front.png"
   inkscape:export-xdpi="72"
   inkscape:export-ydpi="72"><tspan
     sodipodi:role="line"
     id="tspan2406"
     x="9828.0576"
     y="15252.784">Select</tspan></text>


<text
   xml:space="preserve"
   style="font-size:790.222229px;font-style:normal;font-variant:normal;font-weight:normal;font-stretch:normal;text-align:start;line-height:100%;writing-mode:lr-tb;text-anchor:start;fill:#000000;fill-opacity:1;stroke:none;font-family:URW Palladio L"
   x="9668.0371"
   y="10932.239"
   id="text2408"
   sodipodi:linespacing="100%"
   inkscape:export-filename="/home/martin/src/dev/pics/pixelma/two/ipodcolor-front.png"
   inkscape:export-xdpi="72"
   inkscape:export-ydpi="72"><tspan
     sodipodi:role="line"
     id="tspan2410"
     x="9668.0371"
     y="10932.239">Next</tspan></text>


<text
   xml:space="preserve"
   style="font-size:790.222229px;font-style:normal;font-variant:normal;font-weight:normal;font-stretch:normal;text-align:start;line-height:100%;writing-mode:lr-tb;text-anchor:start;fill:#000000;fill-opacity:1;stroke:none;font-family:URW Palladio L"
   x="9721.3779"
   y="8398.5859"
   id="text2412"
   sodipodi:linespacing="100%"
   inkscape:export-filename="/home/martin/src/dev/pics/pixelma/two/ipodcolor-front.png"
   inkscape:export-xdpi="72"
   inkscape:export-ydpi="72"><tspan
     sodipodi:role="line"
     id="tspan2414"
     x="9721.3779"
     y="8398.5859">Scroll Fwd</tspan></text>


<text
   xml:space="preserve"
   style="font-size:790.222229px;font-style:normal;font-variant:normal;font-weight:normal;font-stretch:normal;text-align:start;line-height:100%;writing-mode:lr-tb;text-anchor:start;fill:#000000;fill-opacity:1;stroke:none;font-family:URW Palladio L"
   x="9614.6973"
   y="6184.9736"
   id="text2416"
   sodipodi:linespacing="100%"
   inkscape:export-filename="/home/martin/src/dev/pics/pixelma/two/ipodcolor-front.png"
   inkscape:export-xdpi="72"
   inkscape:export-ydpi="72"><tspan
     sodipodi:role="line"
     id="tspan2418"
     x="9614.6973"
     y="6184.9736">Menu</tspan></text>


<text
   xml:space="preserve"
   style="font-size:790.222229px;font-style:normal;font-variant:normal;font-weight:normal;font-stretch:normal;text-align:start;line-height:100%;writing-mode:lr-tb;text-anchor:start;fill:#000000;fill-opacity:1;stroke:none;font-family:URW Palladio L"
   x="1018.3622"
   y="-301.73718"
   id="text2420"
   sodipodi:linespacing="100%"
   inkscape:export-filename="/home/martin/src/dev/pics/pixelma/two/ipodcolor-front.png"
   inkscape:export-xdpi="72"
   inkscape:export-ydpi="72"><tspan
     sodipodi:role="line"
     id="tspan2422"
     x="1018.3622"
     y="-301.73718">Hold</tspan></text>


<path
   d="m 3693.16,8866.14 -49.89,22.4 -49.15,23.73 -48.4,25.01 -47.63,26.23 -46.86,27.45 -46.04,28.68 -45.18,29.86 -44.37,31.02 -43.46,32.15 -42.6,33.27 -41.65,34.36 -40.72,35.45 -39.76,36.49 -38.77,37.54 -37.79,38.54 -36.72,39.53 -35.71,40.5 -34.61,41.43 -33.53,42.36 -32.42,43.29 -31.28,44.12 -30.13,45.03 -28.96,45.84 -27.73,46.67 -26.54,47.46 -25.28,48.22 -24.02,48.97 -22.73,49.7 -21.4,50.43 -20.1,51.09 -18.73,51.78 -17.39,52.38 14.3,4.52 17.21,-52.04 18.61,-51.36 19.92,-50.75 21.3,-50.01 22.55,-49.36 23.84,-48.61 25.1,-47.88 26.3,-47.1 27.57,-46.31 28.72,-45.5 29.89,-44.67 31.06,-43.84 32.18,-42.93 33.29,-42.06 34.37,-41.15 35.43,-40.2 36.48,-39.23 37.49,-38.26 38.49,-37.24 39.46,-36.25 40.42,-35.17 41.37,-34.12 42.24,-33.03 43.18,-31.93 44.01,-30.78 44.88,-29.62 45.7,-28.44 46.5,-27.29 47.29,-26.05 48.04,-24.77 48.79,-23.55 49.49,-22.28 z"
   id="path1609"
   style="fill:#000000;fill-rule:evenodd;display:inline" /><path
   d="m 5300.92,8879.86 49.49,22.28 48.79,23.55 48.04,24.77 47.29,26.05 46.5,27.29 45.7,28.44 44.88,29.62 44.01,30.78 43.18,31.93 42.24,33.03 41.37,34.12 40.42,35.17 39.46,36.25 38.49,37.24 37.49,38.26 36.48,39.23 35.43,40.2 34.37,41.15 33.29,42.06 32.18,42.93 31.06,43.84 29.89,44.67 28.72,45.5 27.57,46.31 26.3,47.1 25.1,47.88 23.84,48.61 22.55,49.36 21.3,50.01 19.92,50.75 18.61,51.36 17.21,52.04 14.3,-4.52 -17.39,-52.38 -18.73,-51.78 -20.1,-51.09 -21.4,-50.43 -22.73,-49.7 -24.02,-48.97 -25.28,-48.22 -26.54,-47.46 -27.73,-46.67 -28.96,-45.84 -30.13,-45.03 -31.28,-44.12 -32.42,-43.29 -33.53,-42.36 -34.61,-41.43 -35.71,-40.5 -36.72,-39.53 -37.79,-38.54 -38.77,-37.54 -39.76,-36.49 -40.72,-35.45 -41.65,-34.36 -42.6,-33.27 -43.46,-32.15 -44.37,-31.02 -45.18,-29.86 -46.04,-28.68 -46.86,-27.45 -47.63,-26.23 -48.4,-25.01 -49.15,-23.73 -49.89,-22.4 z"
   id="path1615"
   style="fill:#000000;fill-rule:evenodd;display:inline" /><path
   d="m 2533.05,10238.7 -26.67,-269.5 0,0 5.38,5.09 5.45,4.89 5.51,4.69 5.57,4.5 5.64,4.29 5.69,4.1 5.77,3.89 5.82,3.7 5.88,3.5 5.95,3.3 6.02,3.11 6.07,2.9 6.14,2.71 6.2,2.5 6.26,2.31 6.33,2.11 6.39,1.91 6.45,1.71 6.51,1.52 6.58,1.31 6.64,1.12 6.7,0.92 6.77,0.72 6.82,0.52 6.9,0.32 6.95,0.12 7.02,-0.08 7.08,-0.27 7.14,-0.47 7.2,-0.67 7.27,-0.88 7.33,-1.06 -176.76,205.17 0,0 z"
   id="path1607"
   style="fill:#000000;fill-rule:evenodd;display:inline" /><path
   d="m 6466.95,10238.7 -176.76,-205.17 0,0 7.33,1.06 7.27,0.88 7.2,0.67 7.14,0.47 7.08,0.27 7.02,0.08 6.95,-0.12 6.9,-0.32 6.82,-0.52 6.77,-0.72 6.7,-0.92 6.64,-1.12 6.58,-1.31 6.51,-1.52 6.45,-1.71 6.39,-1.91 6.33,-2.11 6.26,-2.31 6.2,-2.5 6.14,-2.71 6.07,-2.9 6.02,-3.11 5.95,-3.3 5.88,-3.5 5.82,-3.7 5.77,-3.89 5.69,-4.1 5.64,-4.29 5.57,-4.5 5.51,-4.69 5.45,-4.89 5.38,-5.09 -26.67,269.5 0,0 z"
   id="path1613"
   style="fill:#000000;fill-rule:evenodd;display:inline" /></g></svg>