<?xml version="1.0" encoding="UTF-8" standalone="no"?>
<!-- Creator: CorelDRAW -->

<svg
   xmlns:dc="http://purl.org/dc/elements/1.1/"
   xmlns:cc="http://creativecommons.org/ns#"
   xmlns:rdf="http://www.w3.org/1999/02/22-rdf-syntax-ns#"
   xmlns:svg="http://www.w3.org/2000/svg"
   xmlns="http://www.w3.org/2000/svg"
   xmlns:sodipodi="http://sodipodi.sourceforge.net/DTD/sodipodi-0.dtd"
   xmlns:inkscape="http://www.inkscape.org/namespaces/inkscape"
   xml:space="preserve"
   width="90mm"
   height="152mm"
   shape-rendering="geometricPrecision"
   text-rendering="geometricPrecision"
   image-rendering="optimizeQuality"
   viewBox="0 0 9000 15200"
   id="svg1851"
   sodipodi:version="0.32"
   inkscape:version="0.47 r22583"
   sodipodi:docname="ipod4g-front.svg"
   version="1.1"
   style="fill-rule:evenodd;display:inline"><metadata
   id="metadata2039"><rdf:RDF><cc:Work
       rdf:about=""><dc:format>image/svg+xml</dc:format><dc:type
         rdf:resource="http://purl.org/dc/dcmitype/StillImage" /></cc:Work></rdf:RDF></metadata><defs
   id="defs2037"><inkscape:perspective
     sodipodi:type="inkscape:persp3d"
     inkscape:vp_x="0 : 269.29135 : 1"
     inkscape:vp_y="0 : 1000 : 0"
     inkscape:vp_z="318.89764 : 269.29135 : 1"
     inkscape:persp3d-origin="159.44882 : 179.52757 : 1"
     id="perspective3399" /></defs><sodipodi:namedview
   inkscape:window-height="572"
   inkscape:window-width="746"
   inkscape:pageshadow="2"
   inkscape:pageopacity="0.0"
   borderopacity="1.0"
   bordercolor="#666666"
   pagecolor="#ffffff"
   id="base"
   inkscape:zoom="0.7482602"
   inkscape:cx="159.44882"
   inkscape:cy="269.29135"
   inkscape:window-x="268"
   inkscape:window-y="59"
   inkscape:current-layer="layer1"
   showgrid="false"
   inkscape:window-maximized="0" />
 <g
   id="Ebene_x0020_1">
  <defs
   id="defs1854">
   <radialGradient
   id="id0"
   gradientUnits="userSpaceOnUse"
   cx="813.97998"
   cy="14398.4"
   r="751.58002"
   fx="813.97998"
   fy="14398.4">
    <stop
   offset="0"
   stop-color="#F9F9F8"
   id="stop1857" />
    <stop
   offset="0.45098"
   stop-color="#F9F9F8"
   id="stop1859" />
    <stop
   offset="0.529412"
   stop-color="#FFFFFF"
   id="stop1861" />
    <stop
   offset="0.819608"
   stop-color="#80807F"
   id="stop1863" />
    <stop
   offset="1"
   stop-color="#242423"
   id="stop1865" />
   </radialGradient>
   <radialGradient
   id="id1"
   gradientUnits="userSpaceOnUse"
   cx="8186.02"
   cy="14398.4"
   r="751.58002"
   fx="8186.02"
   fy="14398.4">
    <stop
   offset="0"
   stop-color="#F9F9F8"
   id="stop1868" />
    <stop
   offset="0.45098"
   stop-color="#F9F9F8"
   id="stop1870" />
    <stop
   offset="0.529412"
   stop-color="#FFFFFF"
   id="stop1872" />
    <stop
   offset="0.819608"
   stop-color="#80807F"
   id="stop1874" />
    <stop
   offset="1"
   stop-color="#242423"
   id="stop1876" />
   </radialGradient>
   <radialGradient
   id="id2"
   gradientUnits="userSpaceOnUse"
   cx="8186.02"
   cy="901.59003"
   r="751.58002"
   fx="8186.02"
   fy="901.59003">
    <stop
   offset="0"
   stop-color="#F9F9F8"
   id="stop1879" />
    <stop
   offset="0.45098"
   stop-color="#F9F9F8"
   id="stop1881" />
    <stop
   offset="0.529412"
   stop-color="#FFFFFF"
   id="stop1883" />
    <stop
   offset="0.819608"
   stop-color="#80807F"
   id="stop1885" />
    <stop
   offset="1"
   stop-color="#242423"
   id="stop1887" />
   </radialGradient>
   <radialGradient
   id="id3"
   gradientUnits="userSpaceOnUse"
   cx="813.97998"
   cy="901.59003"
   r="751.58002"
   fx="813.97998"
   fy="901.59003">
    <stop
   offset="0"
   stop-color="#F9F9F8"
   id="stop1890" />
    <stop
   offset="0.45098"
   stop-color="#F9F9F8"
   id="stop1892" />
    <stop
   offset="0.529412"
   stop-color="#FFFFFF"
   id="stop1894" />
    <stop
   offset="0.819608"
   stop-color="#80807F"
   id="stop1896" />
    <stop
   offset="1"
   stop-color="#242423"
   id="stop1898" />
   </radialGradient>
   <linearGradient
   id="id4"
   gradientUnits="userSpaceOnUse"
   x1="62.400002"
   y1="7650"
   x2="814"
   y2="7650">
    <stop
   offset="0"
   stop-color="#242423"
   id="stop1901" />
    <stop
   offset="0.180392"
   stop-color="#80807F"
   id="stop1903" />
    <stop
   offset="0.470588"
   stop-color="#FFFFFF"
   id="stop1905" />
    <stop
   offset="0.54902"
   stop-color="#F9F9F8"
   id="stop1907" />
    <stop
   offset="1"
   stop-color="#F9F9F8"
   id="stop1909" />
   </linearGradient>
   <linearGradient
   id="id5"
   gradientUnits="userSpaceOnUse"
   x1="8937.5996"
   y1="7650"
   x2="8186.02"
   y2="7650">
    <stop
   offset="0"
   stop-color="#242423"
   id="stop1912" />
    <stop
   offset="0.180392"
   stop-color="#80807F"
   id="stop1914" />
    <stop
   offset="0.470588"
   stop-color="#FFFFFF"
   id="stop1916" />
    <stop
   offset="0.54902"
   stop-color="#F9F9F8"
   id="stop1918" />
    <stop
   offset="1"
   stop-color="#F9F9F8"
   id="stop1920" />
   </linearGradient>
   <linearGradient
   id="id6"
   gradientUnits="userSpaceOnUse"
   x1="4500"
   y1="15150"
   x2="4500"
   y2="14398.4">
    <stop
   offset="0"
   stop-color="#242423"
   id="stop1923" />
    <stop
   offset="0.180392"
   stop-color="#80807F"
   id="stop1925" />
    <stop
   offset="0.470588"
   stop-color="#FFFFFF"
   id="stop1927" />
    <stop
   offset="0.54902"
   stop-color="#F9F9F8"
   id="stop1929" />
    <stop
   offset="1"
   stop-color="#F9F9F8"
   id="stop1931" />
   </linearGradient>
   <linearGradient
   id="id7"
   gradientUnits="userSpaceOnUse"
   x1="4500"
   y1="150.00999"
   x2="4500"
   y2="901.59003">
    <stop
   offset="0"
   stop-color="#242423"
   id="stop1934" />
    <stop
   offset="0.180392"
   stop-color="#80807F"
   id="stop1936" />
    <stop
   offset="0.470588"
   stop-color="#FFFFFF"
   id="stop1938" />
    <stop
   offset="0.54902"
   stop-color="#F9F9F8"
   id="stop1940" />
    <stop
   offset="1"
   stop-color="#F9F9F8"
   id="stop1942" />
   </linearGradient>
   <linearGradient
   id="id8"
   gradientUnits="userSpaceOnUse"
   x1="6041.5698"
   y1="103.5"
   x2="7573.5498"
   y2="103.5">
    <stop
   offset="0"
   stop-color="#000000"
   id="stop1945" />
    <stop
   offset="0.0784314"
   stop-color="#D1D1D1"
   id="stop1947" />
    <stop
   offset="0.101961"
   stop-color="#C4C4C4"
   id="stop1949" />
    <stop
   offset="0.901961"
   stop-color="#C5C5C5"
   id="stop1951" />
    <stop
   offset="0.921569"
   stop-color="#D1D1D1"
   id="stop1953" />
    <stop
   offset="1"
   stop-color="#000000"
   id="stop1955" />
   </linearGradient>
  </defs>
  <path
   d="m 1565.55,14398.4 c 0,-415.09 -336.49,-751.58 -751.58,-751.58 -415.08,0 -751.57,336.49 -751.57,751.58 0,415.08 336.49,751.57 751.57,751.57 415.09,0.01 751.58,-336.49 751.58,-751.57 z"
   id="path1957"
   style="fill:url(#id0)" />
  <path
   d="m 8937.6,14398.4 c 0,-415.09 -336.49,-751.58 -751.57,-751.58 -415.09,0 -751.58,336.49 -751.58,751.58 0,415.08 336.49,751.57 751.58,751.57 415.08,0.01 751.57,-336.49 751.57,-751.57 z"
   id="path1959"
   style="fill:url(#id1)" />
  <path
   d="m 8937.6,901.58 c 0,-415.08 -336.49,-751.57 -751.57,-751.57 -415.09,-0.01 -751.58,336.49 -751.58,751.57 0,415.09 336.49,751.58 751.58,751.58 415.08,0 751.57,-336.49 751.57,-751.58 z"
   id="path1961"
   style="fill:url(#id2)" />
  <path
   d="M 1565.55,901.58 C 1565.55,486.5 1229.06,150.01 813.97,150.01 398.89,150 62.4,486.5 62.4,901.58 c 0,415.09 336.49,751.58 751.57,751.58 415.09,0 751.58,-336.49 751.58,-751.58 z"
   id="path1963"
   style="fill:url(#id3)" />
  <path
   d="m 813.97,901.58 -751.57,0 0,13496.8 751.57,0 0,-13496.8"
   id="path1965"
   style="fill:url(#id4)" />
  <path
   d="m 8186.03,901.58 751.57,0 0,13496.8 -751.57,0 0,-13496.8"
   id="path1967"
   style="fill:url(#id5)" />
  <path
   d="m 8186.03,14398.4 -7372.06,0 0,751.58 7372.06,0 0,-751.58"
   id="path1969"
   style="fill:url(#id6)" />
  <path
   d="m 813.97,901.58 7372.06,0 0,-751.57 -7372.06,0 0,751.57"
   id="path1971"
   style="fill:url(#id7)" />
  <path
   d="m 813.97,569.58 7372.06,0 c 183.36,0 332,148.64 332,332 l 0,13496.8 c 0,183.36 -148.64,332 -332,332 l -7372.06,0 c -183.36,0 -332,-148.64 -332,-332 l 0,-13496.8 c 0,-183.36 148.64,-332 332,-332"
   id="path1973"
   style="fill:#f9f9f8" />
  <path
   d="m 813.97,150.01 7372.06,0 c 415.08,0 751.57,336.49 751.57,751.57 l 0,13496.8 c 0,415.08 -336.49,751.58 -751.57,751.58 l -7372.06,0 c -415.08,0 -751.57,-336.5 -751.57,-751.58 l 0,-13496.8 C 62.4,486.5 398.89,150.01 813.97,150.01"
   id="path1975"
   style="fill:none;stroke:#000000;stroke-width:18;stroke-linejoin:bevel" />
  <path
   d="m 7553.28,10343.6 c 0,-1686.28 -1367,-3053.28 -3053.28,-3053.28 -1686.28,0 -3053.28,1367 -3053.28,3053.28 0,1686.28 1367,3053.28 3053.28,3053.28 1686.28,0 3053.28,-1367 3053.28,-3053.28 z"
   id="path1977"
   style="fill:#dbdce1;stroke:#000000;stroke-width:18;stroke-linejoin:bevel" />
  <path
   d="m 5520.19,10343.6 c 0,-563.44 -456.76,-1020.2 -1020.19,-1020.2 -563.43,0 -1020.19,456.76 -1020.19,1020.2 0,563.44 456.76,1020.2 1020.19,1020.2 563.43,0 1020.19,-456.76 1020.19,-1020.2 z"
   id="path1979"
   style="fill:#f9f9f8;stroke:#000000;stroke-width:18;stroke-linejoin:bevel" />
  <path
   d="m 4568.79,10343.6 c 0,-37.99 -30.8,-68.79 -68.79,-68.79 -37.99,0 -68.79,30.8 -68.79,68.79 0,37.99 30.8,68.79 68.79,68.79 37.99,0 68.79,-30.8 68.79,-68.79 z"
   id="path1981"
   style="fill:#f9f9f8;stroke:#000000;stroke-width:18;stroke-linejoin:bevel" />
  <path
   d="m 7176.88,10172 c -8.9,0 -16.12,7.21 -16.12,16.11 l 0,98.4 c 0,5.79 -3.11,11.14 -8.14,14.01 -5.04,2.86 -11.22,2.81 -16.21,-0.15 l -191.89,-113.92 c -4.98,-2.96 -11.17,-3.01 -16.2,-0.15 -5.04,2.87 -8.15,8.22 -8.15,14.01 l 0,86.2 c 0,5.79 -3.11,11.14 -8.14,14.01 -5.04,2.86 -11.22,2.81 -16.2,-0.15 l -191.9,-113.92 c -4.98,-2.96 -11.17,-3.01 -16.2,-0.15 -5.04,2.87 -8.15,8.22 -8.15,14.01 l 0,229.02 c 0,5.8 3.11,11.14 8.15,14.01 5.03,2.87 11.22,2.81 16.2,-0.15 l 191.9,-113.92 c 4.98,-2.95 11.16,-3.01 16.2,-0.14 5.03,2.86 8.14,8.21 8.14,14 l 0,86.2 c 0,5.8 3.11,11.14 8.15,14.01 5.03,2.87 11.22,2.81 16.2,-0.15 l 191.89,-113.92 c 4.99,-2.95 11.17,-3.01 16.21,-0.14 5.03,2.86 8.14,8.21 8.14,14 l 0,98.4 c 0,8.9 7.22,16.12 16.12,16.12 l 40.94,0 c 8.91,0 16.12,-7.22 16.12,-16.12 l 0,-253.42 c 0,-8.9 -7.21,-16.11 -16.12,-16.11 l -40.94,0"
   id="path1983"
   style="fill:#ffffff" />
  <path
   d="m 1823.12,10172 c 8.9,0 16.12,7.21 16.12,16.11 l 0,98.4 c 0,5.79 3.11,11.14 8.14,14.01 5.04,2.86 11.22,2.81 16.21,-0.15 l 191.89,-113.92 c 4.98,-2.96 11.17,-3.01 16.2,-0.15 5.04,2.87 8.15,8.22 8.15,14.01 l 0,86.2 c 0,5.79 3.11,11.14 8.14,14.01 5.04,2.86 11.22,2.81 16.2,-0.15 l 191.9,-113.92 c 4.98,-2.96 11.17,-3.01 16.2,-0.15 5.04,2.87 8.15,8.22 8.15,14.01 l 0,229.02 c 0,5.8 -3.11,11.14 -8.15,14.01 -5.03,2.87 -11.22,2.81 -16.2,-0.15 l -191.9,-113.92 c -4.98,-2.95 -11.16,-3.01 -16.2,-0.14 -5.03,2.86 -8.14,8.21 -8.14,14 l 0,86.2 c 0,5.8 -3.11,11.14 -8.15,14.01 -5.03,2.87 -11.22,2.81 -16.2,-0.15 l -191.89,-113.92 c -4.99,-2.95 -11.17,-3.01 -16.21,-0.14 -5.03,2.86 -8.14,8.21 -8.14,14 l 0,98.4 c 0,8.9 -7.22,16.12 -16.12,16.12 l -40.94,0 c -8.91,0 -16.12,-7.22 -16.12,-16.12 l 0,-253.42 c 0,-8.9 7.21,-16.11 16.12,-16.11 l 40.94,0"
   id="path1985"
   style="fill:#ffffff" />
  <path
   d="m 4660.13,13049.4 c 8.9,0 16.12,-7.22 16.12,-16.12 l 0,-253.42 c 0,-8.9 -7.22,-16.11 -16.12,-16.11 l -40.94,0 c -8.9,0 -16.12,7.21 -16.12,16.11 l 0,253.42 c 0,8.9 7.22,16.12 16.12,16.12 l 40.94,0"
   id="path1987"
   style="fill:#ffffff" />
  <path
   d="m 4831.41,13049.4 c 8.9,0 16.12,-7.22 16.12,-16.12 l 0,-253.42 c 0,-8.9 -7.22,-16.11 -16.12,-16.11 l -40.94,0 c -8.9,0 -16.12,7.21 -16.12,16.11 l 0,253.42 c 0,8.9 7.22,16.12 16.12,16.12 l 40.94,0"
   id="path1989"
   style="fill:#ffffff" />
  <path
   d="m 4176.82,12778.2 223.4,114.02 c 5.39,2.75 8.79,8.29 8.79,14.35 0,6.06 -3.4,11.6 -8.79,14.36 l -223.4,114.01 c -4.99,2.96 -11.17,3.02 -16.21,0.15 -5.03,-2.86 -8.14,-8.21 -8.14,-14.01 l 0,-229.02 c 0,-5.79 3.11,-11.14 8.14,-14.01 5.04,-2.86 11.22,-2.81 16.21,0.15"
   id="path1991"
   style="fill:#ffffff" />
  <path
   d="m 4205.93,7690.94 0.73,0"
   id="path1993"
   style="fill:none" />
  <path
   d="m 4171.33,7915.72 -5.74,-127.16 c -0.17,-3.78 -2.93,-6.92 -6.65,-7.58 -3.72,-0.65 -7.39,1.36 -8.84,4.85 l -55.02,132.62 c -1.25,3.01 -4.19,4.97 -7.45,4.97 l -34.7,0 c -3.26,0 -6.2,-1.96 -7.45,-4.97 l -55.02,-132.62 c -1.45,-3.49 -5.12,-5.5 -8.84,-4.85 -3.72,0.66 -6.48,3.8 -6.66,7.58 l -5.73,127.16 c -0.2,4.31 -3.74,7.7 -8.05,7.7 l -29.34,0 c -2.2,0 -4.3,-0.9 -5.82,-2.49 -1.52,-1.59 -2.33,-3.73 -2.23,-5.93 l 11.82,-261.78 c 0.19,-4.3 3.74,-7.69 8.05,-7.69 l 32.38,0 c 3.26,0 6.19,1.96 7.44,4.96 l 79.36,191.26 c 1.24,3.01 4.18,4.97 7.44,4.97 3.26,0 6.2,-1.96 7.44,-4.97 l 79.36,-191.26 c 1.25,-3 4.18,-4.96 7.44,-4.96 l 32.38,0 c 4.31,0 7.86,3.39 8.05,7.69 l 11.82,261.78 c 0.1,2.2 -0.71,4.34 -2.23,5.93 -1.52,1.59 -3.62,2.49 -5.82,2.49 l -29.34,0 c -4.31,0 -7.85,-3.39 -8.05,-7.7"
   id="path1995"
   style="fill:#ffffff" />
  <path
   d="m 4455.8,7799.12 c 0,4.45 -3.61,8.06 -8.06,8.06 l -95.76,0 c -4.45,0 -8.06,3.61 -8.06,8.06 l 0,54.7 c 0,4.45 3.61,8.06 8.06,8.06 l 108.2,0 c 4.45,0 8.06,3.61 8.06,8.06 l 0,29.3 c 0,2.14 -0.85,4.19 -2.37,5.7 -1.51,1.51 -3.56,2.36 -5.69,2.36 l -153.62,0 c -4.45,0 -8.06,-3.61 -8.06,-8.06 l 0,-261.78 c 0,-4.44 3.61,-8.05 8.06,-8.05 l 153.62,0 c 2.13,0 4.18,0.85 5.69,2.36 1.52,1.51 2.37,3.55 2.37,5.69 l 0,29.3 c 0,4.45 -3.61,8.06 -8.06,8.06 l -108.2,0 c -2.14,0 -4.19,0.85 -5.7,2.36 -1.51,1.51 -2.36,3.56 -2.36,5.7 l 0,54.7 c 0,4.45 3.61,8.06 8.06,8.06 l 95.76,0 c 4.45,0 8.06,3.61 8.06,8.06 l 0,29.3"
   id="path1997"
   style="fill:#ffffff" />
  <path
   d="m 4768.33,7915.36 c 0,4.45 -3.6,8.06 -8.05,8.06 l -32.97,0 c -2.74,0 -5.29,-1.39 -6.78,-3.69 L 4612.7,7752.39 c -1.93,-3 -5.62,-4.37 -9.05,-3.36 -3.43,1 -5.78,4.15 -5.78,7.73 l 0,158.6 c 0,2.14 -0.85,4.19 -2.36,5.7 -1.51,1.51 -3.56,2.36 -5.7,2.36 l -29.3,0 c -2.14,0 -4.19,-0.85 -5.7,-2.36 -1.51,-1.51 -2.36,-3.56 -2.36,-5.7 l 0,-261.78 c 0,-4.44 3.61,-8.05 8.06,-8.05 l 32.97,0 c 2.74,0 5.29,1.39 6.77,3.69 l 107.83,167.33 c 1.94,3 5.62,4.37 9.05,3.36 3.43,-1 5.78,-4.15 5.78,-7.73 l 0,-158.6 c 0,-4.44 3.61,-8.05 8.06,-8.05 l 29.31,0 c 2.13,0 4.18,0.85 5.69,2.36 1.52,1.51 2.36,3.55 2.36,5.69 l 0,261.78"
   id="path1999"
   style="fill:#ffffff" />
  <path
   d="m 4860.33,7818.87 0,-165.29 c 0,-4.44 3.61,-8.05 8.06,-8.05 l 29.3,0 c 4.45,0 8.06,3.61 8.06,8.05 l 0,165.29 c 0,34.53 27.99,62.53 62.52,62.53 34.53,0 62.52,-28 62.52,-62.53 l 0,-165.29 c 0,-4.44 3.61,-8.05 8.06,-8.05 l 29.31,0 c 2.13,0 4.18,0.85 5.69,2.36 1.52,1.51 2.37,3.55 2.37,5.69 l 0,165.29 c 0,59.62 -48.33,107.95 -107.95,107.95 -59.61,0 -107.94,-48.33 -107.94,-107.95"
   id="path2001"
   style="fill:#ffffff" />
  <g
   id="g2003">
   
   
  </g>
  <g
   id="g2009">
   
   
  </g>
  <path
   d="m 6041.64,57 1531.91,0 0,93 -1531.91,0 0,-93"
   id="path2015"
   style="fill:url(#id8);stroke:#000000;stroke-width:18;stroke-linejoin:bevel" />
  <path
   d="m 1629.4,1030.16 5741.2,0 c 83.02,0 150.31,67.3 150.31,150.32 l 0,4640.47 c 0,83.02 -67.29,150.31 -150.31,150.31 l -5741.2,0 c -83.02,0 -150.31,-67.29 -150.31,-150.31 l 0,-4640.47 c 0,-83.02 67.29,-150.32 150.31,-150.32"
   id="path2017"
   style="fill:#161617;stroke:#ffffff;stroke-width:15;stroke-linejoin:bevel" />
  <path
   d="m 1629.4,1118.48 5741.2,0 c 34.24,0 62,27.76 62,62 l 0,4640.47 c 0,16.44 -6.54,32.21 -18.16,43.84 -11.63,11.62 -27.4,18.16 -43.84,18.16 l -5741.2,0 c -16.44,0 -32.21,-6.54 -43.84,-18.16 -11.62,-11.63 -18.16,-27.4 -18.16,-43.84 l 0,-4640.47 c 0,-34.24 27.76,-62 62,-62"
   id="path2019"
   style="fill:#e9e4ed;stroke:#918e94;stroke-width:50;stroke-linejoin:bevel" />
  <g
   id="g2021">
   <path
   d="m 3582.63,2085.42 c -88.74,-386.16 -318.53,-402.97 -372.56,-402.97 l 0,-22.57 c 119.82,0 313.48,85.5 383.85,378.99 90.15,-292.86 244.11,-371.47 352.17,-372.96 102.97,-1.42 166.48,22.58 264.08,73.43 l 0,-45.83 281.76,0 0,-38.63 22.58,0 0,38.63 47.78,0 0,22.58 -47.78,0 0,552.15 202.63,-512.22 194.14,0 16.92,-39.93 -241.92,0 0,-22.58 251.49,0 26.58,-62.75 20.79,8.82 -22.85,53.93 53.51,0 0,22.58 -63.08,0 -157.92,372.7 209.14,0 0,279.33 c 195.73,-96.33 429.91,-25.65 547.94,162.94 117.08,-180.47 345.79,-252.38 545.07,-171.39 l -7.93,-12.82 336.82,0 67.28,108.78 65.72,-106.25 c 0.97,-1.58 2.69,-2.53 4.54,-2.53 l 0,0 c 1.93,0 3.72,1.04 4.66,2.74 0.94,1.69 0.9,3.75 -0.12,5.4 l -68.52,110.78 8.77,14.2 80.78,-130.59 c 0.97,-1.58 2.68,-2.53 4.53,-2.53 l 0,0 c 1.94,0 3.72,1.04 4.66,2.74 0.94,1.69 0.89,3.75 -0.13,5.4 l -83.56,135.11 8.78,14.2 97.38,-157.45 336.81,0 -265.79,429.74 8.78,14.19 280.46,-453.45 -349.9,0 c -1.93,0 -3.71,-1.04 -4.65,-2.73 -0.95,-1.69 -0.9,-3.76 0.12,-5.41 l 0,0 c 0.97,-1.56 2.69,-2.52 4.53,-2.52 l 369.04,0 -278.28,449.92 260.32,420.89 c 1.02,1.64 1.07,3.71 0.13,5.4 -0.95,1.69 -2.73,2.74 -4.66,2.74 -1.85,0 -3.57,-0.96 -4.54,-2.53 l -257.52,-416.37 -8.78,14.2 250.31,404.7 -336.82,0 -64.33,-104.02 -62.78,101.49 c -0.97,1.57 -2.68,2.53 -4.54,2.53 l 0,0 c -0.87,0 -1.73,-0.22 -2.5,-0.63 -0.77,0.41 -1.64,0.63 -2.51,0.63 -1.93,0 -3.71,-1.05 -4.66,-2.74 -0.94,-1.69 -0.89,-3.76 0.12,-5.4 l 68.08,-110.08 -8.77,-14.19 -80.33,129.88 c -0.98,1.57 -2.69,2.53 -4.54,2.53 -1.94,0 -3.72,-1.05 -4.66,-2.74 -0.94,-1.69 -0.89,-3.76 0.12,-5.4 l 83.14,-134.41 -8.78,-14.19 -96.95,156.74 -336.82,0 9.86,-15.94 c -199.44,82.39 -429.28,11.05 -547.03,-169.79 -117.87,189.05 -352.36,258.23 -548.35,161.77 l 0,23.96 -286.18,0 0,-2.15 -47.24,0 20.63,58.24 -21.28,7.54 -23.3,-65.78 -90.73,0 0,-22.58 82.73,0 -168.56,-475.82 -9.96,24.27 0,476.28 -186.67,0 0,-1449.6 186.67,0 0,649.88 31.88,-80.58 0,-609.23 -259.19,0 0,65.99 c -112.44,-75.61 -187.78,-93.59 -286.65,-93.59 -78.28,0 -250.07,57.06 -340.88,396.93 l -22.58,0 z m 404.33,1150.66 -355.9,0.03 0,-22.59 243.05,0 c -185.22,-82.24 -265.92,-379.86 -265.92,-732.7 0,-416 112.13,-755.29 375.54,-755.29 121.04,0 189.82,62.19 249.01,118.86 l 0,36.96 c 0.02,0.04 0.04,0.07 0.07,0.1 l -0.02,313.26 -20.11,0 c -43.64,-79.53 -123.87,-191.2 -206.74,-191.2 -138.1,0 -206.42,213.9 -204.68,477.31 -1.74,263.41 66.58,477.31 204.68,477.31 82.87,0 163.1,-111.68 206.74,-191.2 l 20.11,0 0.02,313.26 c -0.03,0.03 -0.05,0.06 -0.07,0.1 l 0,36.96 c -58.66,56.16 -126.75,117.74 -245.78,118.83 z M 3207.34,1725.53 c 261.14,0 372.31,356.17 372.31,755.29 0,399.12 -111.17,755.29 -372.31,755.29 -261.14,0 -372.31,-339.29 -372.31,-755.29 0,-416 111.17,-755.29 372.31,-755.29 z m -650.14,30.49 -340.02,0 0,841.83 c 2.2,5.88 4.38,11.77 6.54,17.67 15.27,-4.18 31.11,-5.87 46.91,-5.03 30.93,1.66 58.79,19.2 73.64,46.37 13.42,24.56 19.81,52.35 18.46,80.3 -0.56,11.68 -3.64,23.1 -9.02,33.49 -13.21,25.52 -33.59,46.6 -58.64,60.67 8.47,28.76 16.57,57.63 24.3,86.61 14.77,55.44 21.71,112.67 20.61,170.04 -0.29,14.79 -3.5,29.39 -9.45,42.94 -6.1,13.88 -16.78,25.25 -30.27,32.2 -9.79,5.04 -21.2,5.87 -31.61,2.3 -10.41,-3.56 -18.92,-11.22 -23.56,-21.19 -5.41,-11.63 -8.05,-24.33 -7.73,-37.15 0.18,-7.2 3.66,-13.93 9.45,-18.25 7.29,-5.43 16.24,-8.16 25.33,-7.73 5.96,0.3 11.3,3.78 13.98,9.12 2.67,5.34 2.24,11.7 -1.1,16.65 -4.13,6.09 -10.17,10.63 -17.18,12.88 l 2.4,5.23 c 1.13,2.96 3.64,5.19 6.72,5.95 3.08,0.77 6.34,-0.03 8.73,-2.13 11.73,-9.99 19.03,-24.21 20.32,-39.57 1.7,-26.47 1.14,-53.03 -1.67,-79.4 -8.25,-56.33 -20.52,-112 -36.73,-166.57 -4.17,1.32 -8.38,2.45 -12.65,3.4 -12.48,2.78 -25.09,4.94 -37.78,6.48 l 0,352.49 227.56,0 0,47.14 22.58,0 0,-47.14 48.48,0 0,-22.58 -48.48,0 0,-508.29 21.8,0 198.6,530.87 218.1,0 19.71,50.3 21.02,-8.24 -19.6,-50.01 68.05,0 0,-22.58 -76.89,0 -234.87,-599.43 c 86.45,-89.17 136.05,-223.39 136.05,-393.83 0,-228.46 -61.84,-425.81 -262.09,-425.81 z m -299.52,1055.43 c -12.96,5.33 -26.59,8.91 -40.5,10.63 l 0,-128.45 c 14.01,38.93 27.46,78.07 40.36,117.38 0.04,0.15 0.09,0.29 0.14,0.44 0,0 0,0 0,0 0,0 0,0 0,0 0,0 0,0 0,0 m -21.31,-160.94 c 4.43,-1.22 8.92,-2.25 13.44,-3.09 14.18,-2.64 28.82,0.79 40.36,9.44 10.5,7.89 18.06,19.06 21.49,31.74 7.62,28.26 5.95,58.23 -4.75,85.48 -2.24,5.72 -5.94,10.76 -10.73,14.61 -3.67,2.95 -7.48,5.74 -11.4,8.34 -15.05,-49.19 -31.19,-98.05 -48.41,-146.52 m -19.19,171.57 c -3.57,0.44 -7.15,0.76 -10.73,0.96 -39.1,2.12 -75.47,-20.08 -91.46,-55.82 -28.38,-63.45 -32.5,-135.1 -11.59,-201.38 7.34,-23.27 14.93,-46.46 22.76,-69.57 2.16,-6.39 4.35,-12.78 6.56,-19.16 20.99,49.85 41.06,100.1 60.18,150.7 -27.25,14.6 -49.24,37.37 -62.88,65.12 -2.25,4.59 -1.37,10.1 2.2,13.75 3.58,3.64 9.07,4.64 13.7,2.48 4.03,-2.9 7.76,-6.18 11.15,-9.79 13.78,-15.29 30.29,-27.88 48.69,-37.12 3.84,10.45 7.65,20.9 11.42,31.38 l 0,-95.78 c -18.1,-48.45 -37.28,-96.49 -57.53,-144.08 -3.36,-7.89 -6.78,-15.74 -10.27,-23.55 4.21,-11.57 8.49,-23.12 12.84,-34.64 6.21,-16.44 10.95,-33.39 14.17,-50.67 3.64,-19.53 2.01,-39.69 -4.73,-58.39 -15.34,-42.61 -44.91,-78.63 -83.72,-101.98 -17.07,-10.27 -36.76,-15.34 -56.67,-14.6 -16.68,0.63 -30.16,13.82 -31.13,30.49 -0.89,15.12 2.62,30.18 10.09,43.37 6.91,12.2 14.36,24.09 22.32,35.63 24.58,35.62 45.81,73.42 63.43,112.93 3.47,7.78 6.91,15.56 10.34,23.35 -5.38,14.79 -10.65,29.63 -15.8,44.5 -23.92,69 -39.35,140.67 -45.95,213.4 -3.11,34.33 -0.05,68.94 9.02,102.19 12.45,45.63 53.01,77.94 100.26,79.87 21.14,0.86 42.32,0.02 63.33,-2.54 l 0,-31.05 m 309.21,-1126.42 -351.54,0 0,-54.78 -22.57,0 0,54.78 -52.58,0 0,22.58 52.58,0 0,251.5 22.57,0 0,-251.5 351.54,0 0,-22.58"
   id="path2023"
   style="fill:#000000" />
   <path
   d="m 6898.09,2379.92 -259.05,0 -115.81,187.24 -115.82,-187.24 -259.05,0 48.58,78.54 c -98.88,-83.94 -231.3,-116.88 -357.97,-89.05 -126.68,27.83 -233.09,113.24 -287.68,230.9 -48.92,-109.46 -141.01,-191.39 -252.36,-224.55 -111.37,-33.17 -231.06,-14.31 -328.05,51.69 l 0,-310.75 -220.05,0 0,1050.69 220.05,0 0,-42.38 c 97.16,66.12 217.09,84.93 328.6,51.53 111.52,-33.39 203.6,-115.69 252.3,-225.48 55.2,118.11 162.65,203.46 290.19,230.5 127.54,27.03 260.37,-7.39 358.74,-92.94 l -51.91,83.93 259.05,0 115.38,-186.54 115.37,186.54 259.05,0 -244.9,-395.96 245.34,-396.67 z"
   id="path2025"
   style="fill:#c0bdc7" />
   <path
   d="m 5362.03,2775.16 c 0,-108.02 -87.56,-195.59 -195.58,-195.59 -108.01,0 -195.57,87.57 -195.57,195.59 0,108.02 87.56,195.58 195.57,195.58 108.02,0 195.58,-87.56 195.58,-195.58 z m 969.47,-99.13 c 16.41,66.75 15.99,136.53 -1.21,203.08 l 63.41,-102.52 -62.2,-100.56 m -207.82,99.13 c 0,-108.02 -87.56,-195.59 -195.57,-195.59 -108.02,0 -195.58,87.57 -195.58,195.59 0,108.02 87.56,195.58 195.58,195.58 108.01,0 195.57,-87.56 195.57,-195.58 z"
   id="path2027"
   style="fill:#000000" />
   <path
   d="m 2403.84,3183.04 40.9,0 0,-508.29 -40.9,0 0,508.29 m 84.45,-828.68 c 68.98,0 79.79,-87.46 79.72,-147.47 -0.07,-60.02 -8.78,-125.15 -68.97,-125.15 l -95.2,0 0,331.67 40.9,0 0,-59.05 43.55,0 z m 0,22.58 -20.97,0 0,36.47 1.45,0 c 153.72,0 153.72,-137.66 153.72,-185.49 l 0,-30.88 c 0,-46.37 -0.32,-174.34 -129.76,-174.34 l -88.89,0 0,36.46 84.45,0 c 43.93,0 102.86,6.25 102.86,153.56 0,147.31 -59.23,162.99 -102.86,164.22 z m -366.06,-4.03 c -17.69,-35.31 -36.84,-69.89 -57.38,-103.62 -6.54,-10.73 -12.45,-21.82 -17.7,-33.22 -3.43,-7.44 -5.46,-15.45 -6.01,-23.62 -0.11,-1.76 0.52,-3.49 1.75,-4.75 1.22,-1.27 2.93,-1.96 4.69,-1.9 8.49,0.29 16.76,2.72 24.05,7.08 31.32,18.74 53.65,49.44 61.82,85.02 2.39,10.37 2.46,21.15 0.22,31.56 -3.16,14.65 -6.98,29.15 -11.44,43.45 l 0,0 m 3800.54,564.68 10.67,0 c 88.66,-2.92 158.61,-76.39 157.15,-165.1 -1.45,-88.7 -73.77,-159.85 -162.48,-159.85 -88.72,0 -161.03,71.15 -162.49,159.85 -1.46,88.71 68.49,162.18 157.15,165.1 z m -761.65,0 10.67,0 c 88.66,-2.92 158.61,-76.39 157.15,-165.1 -1.45,-88.7 -73.77,-159.85 -162.49,-159.85 -88.71,0 -161.03,71.15 -162.48,159.85 -1.46,88.71 68.49,162.18 157.15,165.1 z m -509.47,-510.97 66.11,171.01 0,-327.04 -66.11,156.03 m 10.87,754.27 -179.65,-507.15 21.06,-51.31 207.6,558.46 -49.01,0 M 3207.33,1998.62 c 125.76,0 179.25,227.37 179.25,482.2 0,254.83 -53.49,482.2 -179.25,482.2 -125.74,0 -179.24,-216.62 -179.24,-482.2 0,-265.59 53.5,-482.2 179.24,-482.2 z"
   id="path2029"
   style="fill:#e9e4ed" />
   <path
   d="m 5922.77,2937.59 c 3.56,0.25 7.11,0.24 10.67,0 l 0,-14.94 c 80.43,-2.92 143.69,-69.74 142.22,-150.21 -1.48,-80.47 -67.17,-144.92 -147.66,-144.86 -1.93,-0.04 -3.52,0.98 -4.49,2.63 -0.98,1.67 -0.98,3.73 -0.01,5.4 0.97,1.66 2.58,2.67 4.51,2.64 49.56,-0.04 95.27,26.71 119.51,69.94 24.24,43.23 23.22,96.19 -2.65,138.45 -25.87,42.27 -72.58,67.26 -122.1,65.33 l 0,25.62 z m -756.32,-40.45 c -2.94,0 -5.33,-2.39 -5.33,-5.33 0,-2.95 2.39,-5.34 5.33,-5.34 61.48,0 111.31,-49.83 111.31,-111.31 0,-61.48 -49.83,-111.31 -111.31,-111.31 -2.94,0 -5.33,-2.39 -5.33,-5.34 0,-2.94 2.39,-5.33 5.33,-5.33 67.37,0 121.98,54.61 121.98,121.98 0,67.37 -54.61,121.98 -121.98,121.98 z m 761.66,0 c -2.95,0 -5.34,-2.39 -5.34,-5.33 0,-2.95 2.39,-5.34 5.34,-5.34 61.47,0 111.31,-49.83 111.31,-111.31 0,-61.48 -49.84,-111.31 -111.31,-111.31 -2.95,0 -5.34,-2.39 -5.34,-5.34 0,-2.94 2.39,-5.33 5.34,-5.33 67.36,0 121.97,54.61 121.97,121.98 0,67.37 -54.61,121.98 -121.97,121.98 z m -766.99,40.45 c 3.55,0.17 7.11,0.13 10.67,0 l 0,-14.94 c 80.43,-2.92 143.69,-69.74 142.21,-150.21 -1.48,-80.47 -67.17,-144.92 -147.65,-144.86 -1.93,-0.04 -3.52,0.98 -4.5,2.63 -0.97,1.67 -0.97,3.73 0,5.4 0.97,1.66 2.58,2.67 4.51,2.64 49.55,-0.04 95.27,26.71 119.51,69.94 24.24,43.23 23.22,96.19 -2.65,138.45 -25.87,42.27 -72.58,67.26 -122.1,65.33 l 0,25.62 z m -1953.78,-42.42 0,-55.77 -22.58,0 0,59.39 0,22.58 c 122.05,0 157.87,-207.28 158.72,-429.26 l 513.67,0 c 1.22,156.27 35.49,395.44 137.51,411.94 l 0,58.97 22.57,0 0,-470.91 89.89,0 0,-22.58 -89.89,0 0,-81.46 -22.57,0 0,81.46 -114.86,0 c 2.45,-154.89 45.72,-381.34 126.14,-385.01 l 0,-22.58 c -105.48,4.08 -146.49,245.78 -148.72,407.59 l -513.78,0 c -1.46,-220.94 -37.13,-426.52 -158.68,-426.52 l 0,21.67 0,404.85 -69,0 0,22.58 69,0 0,78.85 22.58,0 0,-78.85 113.52,0 c -1.12,142.09 -19.03,371.69 -113.52,403.06 z"
   id="path2031"
   style="fill:#000000" />
   <path
   d="m 3879.74,2492.11 c 1.45,147.94 38.91,368.8 114.92,388.87 l 0,-388.87 -114.92,0 z m -558.84,-22.58 -113.56,0 0,-401.21 c 94.01,31.25 112.89,258.87 113.56,401.21 z"
   id="path2033"
   style="fill:#e9e4ed" />
  </g>
 </g>
 <g
   id="Haupt_x0020_Desktop">
 </g>
<g
   inkscape:groupmode="layer"
   id="layer1"
   inkscape:label="Text"
   style="display:inline"><path
   style="fill:none;stroke:#000000;stroke-width:28.22222137;stroke-linecap:butt;stroke-linejoin:miter;stroke-miterlimit:4;stroke-opacity:1;stroke-dasharray:none"
   d="m 1573.532,10346.054 -2346.96296,0"
   id="path1503"
   inkscape:export-filename="/home/martin/src/dev/pics/pixelma/two/ipodcolor-front.png"
   inkscape:export-xdpi="72"
   inkscape:export-ydpi="72" /><path
   style="fill:none;stroke:#000000;stroke-width:28.22222137;stroke-linecap:butt;stroke-linejoin:miter;stroke-miterlimit:4;stroke-opacity:1;stroke-dasharray:none"
   d="M 2667.0033,8772.5222 -586.74073,7519.0307"
   id="path1505"
   inkscape:export-filename="/home/martin/src/dev/pics/pixelma/two/ipodcolor-front.png"
   inkscape:export-xdpi="72"
   inkscape:export-ydpi="72" /><path
   style="fill:none;stroke:#000000;stroke-width:28.22222137;stroke-linecap:butt;stroke-linejoin:miter;stroke-miterlimit:4;stroke-opacity:1;stroke-dasharray:none"
   d="M 4453.8955,7519.0307 9494.5318,5598.7883"
   id="path1507"
   inkscape:export-filename="/home/martin/src/dev/pics/pixelma/two/ipodcolor-front.png"
   inkscape:export-xdpi="72"
   inkscape:export-ydpi="72" /><path
   style="fill:none;stroke:#000000;stroke-width:28.22222137;stroke-linecap:butt;stroke-linejoin:miter;stroke-miterlimit:4;stroke-opacity:1;stroke-dasharray:none"
   d="M 6400.808,8799.1922 9654.552,7812.401"
   id="path1509"
   inkscape:export-filename="/home/martin/src/dev/pics/pixelma/two/ipodcolor-front.png"
   inkscape:export-xdpi="72"
   inkscape:export-ydpi="72" /><path
   style="fill:none;stroke:#000000;stroke-width:28.22222137;stroke-linecap:butt;stroke-linejoin:miter;stroke-miterlimit:4;stroke-opacity:1;stroke-dasharray:none"
   d="m 7387.5992,10319.384 2186.9427,0"
   id="path1511"
   inkscape:export-filename="/home/martin/src/dev/pics/pixelma/two/ipodcolor-front.png"
   inkscape:export-xdpi="72"
   inkscape:export-ydpi="72" /><path
   style="fill:none;stroke:#000000;stroke-width:28.22222137;stroke-linecap:butt;stroke-linejoin:miter;stroke-miterlimit:4;stroke-opacity:1;stroke-dasharray:none"
   d="M 4427.2255,13173.078 C 4293.8753,13199.748 -800.101,14799.95 -800.101,14799.95"
   id="path2388"
   inkscape:export-filename="/home/martin/src/dev/pics/pixelma/two/ipodcolor-front.png"
   inkscape:export-xdpi="72"
   inkscape:export-ydpi="72" /><path
   style="fill:none;stroke:#000000;stroke-width:28.22222137;stroke-linecap:butt;stroke-linejoin:miter;stroke-miterlimit:4;stroke-opacity:1;stroke-dasharray:none"
   d="m 4640.5858,10612.755 5067.3063,4000.504"
   id="path2390"
   inkscape:export-filename="/home/martin/src/dev/pics/pixelma/two/ipodcolor-front.png"
   inkscape:export-xdpi="72"
   inkscape:export-ydpi="72" /><text
   xml:space="preserve"
   style="font-size:790.222229px;font-style:normal;font-variant:normal;font-weight:normal;font-stretch:normal;text-align:start;line-height:100%;writing-mode:lr-tb;text-anchor:start;fill:#000000;fill-opacity:1;stroke:none;font-family:URW Palladio L"
   x="-4560.5757"
   y="7759.061"
   id="text2392"
   sodipodi:linespacing="100%"
   inkscape:export-filename="/home/martin/src/dev/pics/pixelma/two/ipodcolor-front.png"
   inkscape:export-xdpi="72"
   inkscape:export-ydpi="72"><tspan
     sodipodi:role="line"
     id="tspan2394"
     x="-4560.5757"
     y="7759.061">Scroll Back</tspan></text>

<text
   xml:space="preserve"
   style="font-size:790.222229px;font-style:normal;font-variant:normal;font-weight:normal;font-stretch:normal;text-align:start;line-height:100%;writing-mode:lr-tb;text-anchor:start;fill:#000000;fill-opacity:1;stroke:none;font-family:URW Palladio L"
   x="-4653.77"
   y="10528.398"
   id="text2396"
   sodipodi:linespacing="100%"
   inkscape:export-filename="/home/martin/src/dev/pics/pixelma/two/ipodcolor-front.png"
   inkscape:export-xdpi="72"
   inkscape:export-ydpi="72"><tspan
     sodipodi:role="line"
     id="tspan2398"
     x="-4653.77"
     y="10528.398">Prev</tspan></text>

<text
   xml:space="preserve"
   style="font-size:790.222229px;font-style:normal;font-variant:normal;font-weight:normal;font-stretch:normal;text-align:start;line-height:100%;writing-mode:lr-tb;text-anchor:start;fill:#000000;fill-opacity:1;stroke:none;font-family:URW Palladio L"
   x="-4733.7808"
   y="15008.964"
   id="text2400"
   sodipodi:linespacing="100%"
   inkscape:export-filename="/home/martin/src/dev/pics/pixelma/two/ipodcolor-front.png"
   inkscape:export-xdpi="72"
   inkscape:export-ydpi="72"><tspan
     sodipodi:role="line"
     id="tspan2402"
     x="-4733.7808"
     y="15008.964">Play</tspan></text>

<text
   xml:space="preserve"
   style="font-size:790.222229px;font-style:normal;font-variant:normal;font-weight:normal;font-stretch:normal;text-align:start;line-height:100%;writing-mode:lr-tb;text-anchor:start;fill:#000000;fill-opacity:1;stroke:none;font-family:URW Palladio L"
   x="9828.0576"
   y="14875.613"
   id="text2404"
   sodipodi:linespacing="100%"
   inkscape:export-filename="/home/martin/src/dev/pics/pixelma/two/ipodcolor-front.png"
   inkscape:export-xdpi="72"
   inkscape:export-ydpi="72"><tspan
     sodipodi:role="line"
     id="tspan2406"
     x="9828.0576"
     y="14875.613">Select</tspan></text>

<text
   xml:space="preserve"
   style="font-size:790.222229px;font-style:normal;font-variant:normal;font-weight:normal;font-stretch:normal;text-align:start;line-height:100%;writing-mode:lr-tb;text-anchor:start;fill:#000000;fill-opacity:1;stroke:none;font-family:URW Palladio L"
   x="9668.0371"
   y="10555.068"
   id="text2408"
   sodipodi:linespacing="100%"
   inkscape:export-filename="/home/martin/src/dev/pics/pixelma/two/ipodcolor-front.png"
   inkscape:export-xdpi="72"
   inkscape:export-ydpi="72"><tspan
     sodipodi:role="line"
     id="tspan2410"
     x="9668.0371"
     y="10555.068">Next</tspan></text>

<text
   xml:space="preserve"
   style="font-size:790.222229px;font-style:normal;font-variant:normal;font-weight:normal;font-stretch:normal;text-align:start;line-height:100%;writing-mode:lr-tb;text-anchor:start;fill:#000000;fill-opacity:1;stroke:none;font-family:URW Palladio L"
   x="9721.3779"
   y="8021.415"
   id="text2412"
   sodipodi:linespacing="100%"
   inkscape:export-filename="/home/martin/src/dev/pics/pixelma/two/ipodcolor-front.png"
   inkscape:export-xdpi="72"
   inkscape:export-ydpi="72"><tspan
     sodipodi:role="line"
     id="tspan2414"
     x="9721.3779"
     y="8021.415">Scroll Fwd</tspan></text>

<text
   xml:space="preserve"
   style="font-size:790.222229px;font-style:normal;font-variant:normal;font-weight:normal;font-stretch:normal;text-align:start;line-height:100%;writing-mode:lr-tb;text-anchor:start;fill:#000000;fill-opacity:1;stroke:none;font-family:URW Palladio L"
   x="9614.6973"
   y="5807.8022"
   id="text2416"
   sodipodi:linespacing="100%"
   inkscape:export-filename="/home/martin/src/dev/pics/pixelma/two/ipodcolor-front.png"
   inkscape:export-xdpi="72"
   inkscape:export-ydpi="72"><tspan
     sodipodi:role="line"
     id="tspan2418"
     x="9614.6973"
     y="5807.8022">Menu</tspan></text>

<text
   xml:space="preserve"
   style="font-size:790.222229px;font-style:normal;font-variant:normal;font-weight:normal;font-stretch:normal;text-align:start;line-height:100%;writing-mode:lr-tb;text-anchor:start;fill:#000000;fill-opacity:1;stroke:none;font-family:URW Palladio L"
   x="5997.0225"
   y="-377.17142"
   id="text2420"
   sodipodi:linespacing="100%"
   inkscape:export-filename="/home/martin/src/dev/pics/pixelma/two/ipodcolor-front.png"
   inkscape:export-xdpi="72"
   inkscape:export-ydpi="72"><tspan
     sodipodi:role="line"
     id="tspan2422"
     x="5997.0225"
     y="-377.17142">Hold</tspan></text>

<path
   d="m 3603.84,8274.61 -55.41,24.89 -54.59,26.34 -53.76,27.79 -52.9,29.13 -52.04,30.48 -51.14,31.86 -50.19,33.17 -49.28,34.45 -48.27,35.71 -47.32,36.95 -46.26,38.17 -45.22,39.38 -44.17,40.52 -43.06,41.7 -41.96,42.8 -40.8,43.91 -39.65,44.98 -38.45,46.02 -37.24,47.05 -36.01,48.08 -34.74,49.01 -33.47,50 -32.17,50.92 -30.8,51.84 -29.48,52.71 -28.08,53.56 -26.67,54.39 -25.25,55.2 -23.77,56.02 -22.32,56.73 -20.81,57.52 -19.31,58.18 14.3,4.52 19.13,-57.84 20.69,-57.1 22.14,-56.39 23.67,-55.6 25.07,-54.86 26.49,-54.03 27.9,-53.22 29.24,-52.35 30.64,-51.48 31.93,-50.58 33.23,-49.64 34.52,-48.73 35.77,-47.72 37,-46.75 38.21,-45.74 39.37,-44.68 40.56,-43.61 41.66,-42.52 42.78,-41.4 43.87,-40.28 44.92,-39.1 45.98,-37.93 46.96,-36.71 47.99,-35.49 48.92,-34.21 49.89,-32.93 50.8,-31.62 51.68,-30.32 52.56,-28.95 53.4,-27.55 54.23,-26.16 55.01,-24.77 z"
   id="path2007"
   style="fill:#000000;fill-rule:evenodd;display:inline" /><path
   d="m 5390.24,8288.33 55.01,24.77 54.23,26.16 53.4,27.55 52.56,28.95 51.68,30.32 50.8,31.62 49.89,32.93 48.92,34.21 47.99,35.49 46.96,36.71 45.98,37.93 44.92,39.1 43.87,40.28 42.78,41.4 41.66,42.52 40.56,43.61 39.37,44.68 38.21,45.74 37,46.75 35.77,47.72 34.52,48.73 33.23,49.64 31.93,50.58 30.64,51.48 29.24,52.35 27.9,53.22 26.49,54.03 25.07,54.86 23.67,55.6 22.14,56.39 20.69,57.1 19.13,57.84 14.3,-4.52 -19.31,-58.18 -20.81,-57.52 -22.32,-56.73 -23.77,-56.02 -25.25,-55.2 -26.67,-54.39 -28.08,-53.56 -29.48,-52.71 -30.8,-51.84 -32.17,-50.92 -33.47,-50 -34.74,-49.01 -36.01,-48.08 -37.24,-47.05 -38.45,-46.02 -39.65,-44.98 -40.8,-43.91 -41.96,-42.8 -43.06,-41.7 -44.17,-40.52 -45.22,-39.38 -46.26,-38.17 -47.32,-36.95 -48.27,-35.71 -49.28,-34.45 -50.19,-33.17 -51.14,-31.86 -52.04,-30.48 -52.9,-29.13 -53.76,-27.79 -54.59,-26.34 -55.41,-24.89 z"
   id="path2013"
   style="fill:#000000;fill-rule:evenodd;display:inline" /><path
   d="m 2318.69,9785.61 -26.67,-269.5 0,0 5.38,5.09 5.45,4.89 5.51,4.69 5.57,4.5 5.64,4.29 5.69,4.1 5.76,3.89 5.83,3.7 5.88,3.5 5.95,3.3 6.01,3.11 6.08,2.9 6.14,2.71 6.2,2.5 6.26,2.31 6.33,2.11 6.38,1.91 6.46,1.71 6.51,1.52 6.58,1.31 6.64,1.12 6.7,0.92 6.77,0.72 6.82,0.52 6.89,0.32 6.96,0.12 7.02,-0.08 7.08,-0.27 7.14,-0.47 7.2,-0.68 7.27,-0.87 7.33,-1.07 -176.76,205.18 0,0 z"
   id="path2005"
   style="fill:#000000;fill-rule:evenodd;display:inline" /><path
   d="m 6681.31,9785.61 -176.76,-205.18 0,0 7.33,1.07 7.27,0.87 7.2,0.68 7.14,0.47 7.08,0.27 7.02,0.08 6.95,-0.12 6.9,-0.32 6.82,-0.52 6.77,-0.72 6.7,-0.92 6.64,-1.12 6.58,-1.31 6.51,-1.52 6.46,-1.71 6.38,-1.91 6.33,-2.11 6.26,-2.31 6.2,-2.5 6.14,-2.71 6.08,-2.9 6.01,-3.11 5.95,-3.3 5.88,-3.5 5.83,-3.7 5.76,-3.89 5.69,-4.1 5.64,-4.29 5.57,-4.5 5.51,-4.69 5.45,-4.89 5.38,-5.09 -26.67,269.5 0,0 z"
   id="path2011"
   style="fill:#000000;fill-rule:evenodd;display:inline" /></g></svg>