<?xml version="1.0" encoding="UTF-8" standalone="no"?>
<!-- Creator: CorelDRAW -->

<svg
   xmlns:dc="http://purl.org/dc/elements/1.1/"
   xmlns:cc="http://creativecommons.org/ns#"
   xmlns:rdf="http://www.w3.org/1999/02/22-rdf-syntax-ns#"
   xmlns:svg="http://www.w3.org/2000/svg"
   xmlns="http://www.w3.org/2000/svg"
   xmlns:sodipodi="http://sodipodi.sourceforge.net/DTD/sodipodi-0.dtd"
   xmlns:inkscape="http://www.inkscape.org/namespaces/inkscape"
   xml:space="preserve"
   width="90mm"
   height="152mm"
   shape-rendering="geometricPrecision"
   text-rendering="geometricPrecision"
   image-rendering="optimizeQuality"
   viewBox="0 0 9000 15200"
   id="svg1656"
   sodipodi:version="0.32"
   inkscape:version="0.47 r22583"
   sodipodi:docname="ipod3g-front.svg"
   version="1.1"
   style="fill-rule:evenodd;display:inline"><metadata
   id="metadata1864"><rdf:RDF><cc:Work
       rdf:about=""><dc:format>image/svg+xml</dc:format><dc:type
         rdf:resource="http://purl.org/dc/dcmitype/StillImage" /></cc:Work></rdf:RDF></metadata><defs
   id="defs1862"><inkscape:perspective
     sodipodi:type="inkscape:persp3d"
     inkscape:vp_x="0 : 269.29135 : 1"
     inkscape:vp_y="0 : 1000 : 0"
     inkscape:vp_z="318.89764 : 269.29135 : 1"
     inkscape:persp3d-origin="159.44882 : 179.52757 : 1"
     id="perspective3536" /></defs><sodipodi:namedview
   inkscape:window-height="572"
   inkscape:window-width="746"
   inkscape:pageshadow="2"
   inkscape:pageopacity="0.0"
   borderopacity="1.0"
   bordercolor="#666666"
   pagecolor="#ffffff"
   id="base"
   inkscape:zoom="0.7482602"
   inkscape:cx="159.44882"
   inkscape:cy="269.29135"
   inkscape:window-x="242"
   inkscape:window-y="33"
   inkscape:current-layer="layer1"
   showgrid="false"
   inkscape:window-maximized="0" />
 <g
   id="Ebene_x0020_1">
  <defs
   id="defs1659">
   <radialGradient
   id="id0"
   gradientUnits="userSpaceOnUse"
   cx="813.96997"
   cy="14398.4"
   r="751.57001"
   fx="813.96997"
   fy="14398.4">
    <stop
   offset="0"
   stop-color="#F9F9F8"
   id="stop1662" />
    <stop
   offset="0.45098"
   stop-color="#F9F9F8"
   id="stop1664" />
    <stop
   offset="0.529412"
   stop-color="#FFFFFF"
   id="stop1666" />
    <stop
   offset="0.819608"
   stop-color="#80807F"
   id="stop1668" />
    <stop
   offset="1"
   stop-color="#242423"
   id="stop1670" />
   </radialGradient>
   <radialGradient
   id="id1"
   gradientUnits="userSpaceOnUse"
   cx="8186.0298"
   cy="14398.4"
   r="751.57001"
   fx="8186.0298"
   fy="14398.4">
    <stop
   offset="0"
   stop-color="#F9F9F8"
   id="stop1673" />
    <stop
   offset="0.45098"
   stop-color="#F9F9F8"
   id="stop1675" />
    <stop
   offset="0.529412"
   stop-color="#FFFFFF"
   id="stop1677" />
    <stop
   offset="0.819608"
   stop-color="#80807F"
   id="stop1679" />
    <stop
   offset="1"
   stop-color="#242423"
   id="stop1681" />
   </radialGradient>
   <radialGradient
   id="id2"
   gradientUnits="userSpaceOnUse"
   cx="8186.0298"
   cy="901.58002"
   r="751.57001"
   fx="8186.0298"
   fy="901.58002">
    <stop
   offset="0"
   stop-color="#F9F9F8"
   id="stop1684" />
    <stop
   offset="0.45098"
   stop-color="#F9F9F8"
   id="stop1686" />
    <stop
   offset="0.529412"
   stop-color="#FFFFFF"
   id="stop1688" />
    <stop
   offset="0.819608"
   stop-color="#80807F"
   id="stop1690" />
    <stop
   offset="1"
   stop-color="#242423"
   id="stop1692" />
   </radialGradient>
   <radialGradient
   id="id3"
   gradientUnits="userSpaceOnUse"
   cx="813.96997"
   cy="901.58002"
   r="751.57001"
   fx="813.96997"
   fy="901.58002">
    <stop
   offset="0"
   stop-color="#F9F9F8"
   id="stop1695" />
    <stop
   offset="0.45098"
   stop-color="#F9F9F8"
   id="stop1697" />
    <stop
   offset="0.529412"
   stop-color="#FFFFFF"
   id="stop1699" />
    <stop
   offset="0.819608"
   stop-color="#80807F"
   id="stop1701" />
    <stop
   offset="1"
   stop-color="#242423"
   id="stop1703" />
   </radialGradient>
   <linearGradient
   id="id4"
   gradientUnits="userSpaceOnUse"
   x1="62.400002"
   y1="7650"
   x2="813.97998"
   y2="7650">
    <stop
   offset="0"
   stop-color="#242423"
   id="stop1706" />
    <stop
   offset="0.180392"
   stop-color="#80807F"
   id="stop1708" />
    <stop
   offset="0.470588"
   stop-color="#FFFFFF"
   id="stop1710" />
    <stop
   offset="0.54902"
   stop-color="#F9F9F8"
   id="stop1712" />
    <stop
   offset="1"
   stop-color="#F9F9F8"
   id="stop1714" />
   </linearGradient>
   <linearGradient
   id="id5"
   gradientUnits="userSpaceOnUse"
   x1="4500"
   y1="15150"
   x2="4500"
   y2="14398.4">
    <stop
   offset="0"
   stop-color="#242423"
   id="stop1717" />
    <stop
   offset="0.180392"
   stop-color="#80807F"
   id="stop1719" />
    <stop
   offset="0.470588"
   stop-color="#FFFFFF"
   id="stop1721" />
    <stop
   offset="0.54902"
   stop-color="#F9F9F8"
   id="stop1723" />
    <stop
   offset="1"
   stop-color="#F9F9F8"
   id="stop1725" />
   </linearGradient>
   <linearGradient
   id="id6"
   gradientUnits="userSpaceOnUse"
   x1="8937.5996"
   y1="7650"
   x2="8186.02"
   y2="7650">
    <stop
   offset="0"
   stop-color="#242423"
   id="stop1728" />
    <stop
   offset="0.180392"
   stop-color="#80807F"
   id="stop1730" />
    <stop
   offset="0.470588"
   stop-color="#FFFFFF"
   id="stop1732" />
    <stop
   offset="0.54902"
   stop-color="#F9F9F8"
   id="stop1734" />
    <stop
   offset="1"
   stop-color="#F9F9F8"
   id="stop1736" />
   </linearGradient>
   <linearGradient
   id="id7"
   gradientUnits="userSpaceOnUse"
   x1="4500"
   y1="150.00999"
   x2="4500"
   y2="901.59003">
    <stop
   offset="0"
   stop-color="#242423"
   id="stop1739" />
    <stop
   offset="0.180392"
   stop-color="#80807F"
   id="stop1741" />
    <stop
   offset="0.470588"
   stop-color="#FFFFFF"
   id="stop1743" />
    <stop
   offset="0.54902"
   stop-color="#F9F9F8"
   id="stop1745" />
    <stop
   offset="1"
   stop-color="#F9F9F8"
   id="stop1747" />
   </linearGradient>
   <linearGradient
   id="id8"
   gradientUnits="userSpaceOnUse"
   x1="6041.5698"
   y1="103.5"
   x2="7573.5498"
   y2="103.5">
    <stop
   offset="0"
   stop-color="#000000"
   id="stop1750" />
    <stop
   offset="0.0784314"
   stop-color="#D1D1D1"
   id="stop1752" />
    <stop
   offset="0.101961"
   stop-color="#C4C4C4"
   id="stop1754" />
    <stop
   offset="0.901961"
   stop-color="#C5C5C5"
   id="stop1756" />
    <stop
   offset="0.921569"
   stop-color="#D1D1D1"
   id="stop1758" />
    <stop
   offset="1"
   stop-color="#000000"
   id="stop1760" />
   </linearGradient>
  </defs>
  <path
   d="m 813.97,13646.9 c 415.08,-0.01 751.57,336.49 751.57,751.57 0,415.08 -336.49,751.58 -751.57,751.57 -415.08,0.01 -751.57,-336.49 -751.57,-751.57 0,-415.08 336.49,-751.58 751.57,-751.57 z"
   id="path1762"
   style="fill:url(#id0)" />
  <path
   d="m 8186.03,13646.9 c -415.08,-0.01 -751.57,336.49 -751.57,751.57 0,415.08 336.49,751.58 751.57,751.57 415.08,0.01 751.57,-336.49 751.57,-751.57 0,-415.08 -336.49,-751.58 -751.57,-751.57 z"
   id="path1764"
   style="fill:url(#id1)" />
  <path
   d="m 8186.03,1653.15 c -415.08,0.01 -751.57,-336.49 -751.57,-751.57 0,-415.08 336.49,-751.58 751.57,-751.57 415.08,-0.01 751.57,336.49 751.57,751.57 0,415.08 -336.49,751.58 -751.57,751.57 z"
   id="path1766"
   style="fill:url(#id2)" />
  <path
   d="m 813.97,1653.15 c 415.08,0.01 751.57,-336.49 751.57,-751.57 C 1565.54,486.5 1229.05,150 813.97,150.01 398.89,150 62.4,486.5 62.4,901.58 c 0,415.08 336.49,751.58 751.57,751.57 z"
   id="path1768"
   style="fill:url(#id3)" />
  <path
   d="m 62.4,901.58 0,13496.8 751.57,0 0,-13496.8 -751.57,0 z"
   id="path1770"
   style="fill:url(#id4)" />
  <path
   d="m 8186.03,15150 -7372.06,0 0,-751.57 7372.06,0 0,751.57 z"
   id="path1772"
   style="fill:url(#id5)" />
  <path
   d="m 8937.6,14398.4 0,-13496.8 -751.57,0 0,13496.8 751.57,0 z"
   id="path1774"
   style="fill:url(#id6)" />
  <path
   d="m 813.97,150.01 7372.06,0 0,751.57 -7372.06,0 0,-751.57 z"
   id="path1776"
   style="fill:url(#id7)" />
  <path
   d="m 813.97,150.01 7372.06,0 c 415.08,0 751.57,336.49 751.57,751.57 l 0,13496.8 c 0,415.08 -336.49,751.58 -751.57,751.58 l -7372.06,-0.01 c -415.08,0 -751.57,-336.49 -751.57,-751.57 l 0,-13496.8 C 62.4,486.5 398.89,150.01 813.97,150.01"
   id="path1778"
   style="fill:none;stroke:#000000;stroke-width:18;stroke-linejoin:bevel" />
  <path
   d="m 813.97,569.58 7372.06,0 c 183.36,0 332,148.64 332,332 l 0,13496.8 c 0,183.36 -148.64,332 -332,332 l -7372.06,0 c -183.36,0 -332,-148.64 -332,-332 l 0,-13496.8 c 0,-183.36 148.64,-332 332,-332"
   id="path1780"
   style="fill:#f9f9f8" />
  <path
   d="M 7379.14,11399.7 C 7379.14,9809.6 6090.1,8520.56 4500,8520.56 c -1590.1,0 -2879.14,1289.04 -2879.14,2879.14 0,1590.11 1289.04,2879.15 2879.14,2879.15 1590.1,0 2879.14,-1289.04 2879.14,-2879.15 z"
   id="path1782"
   style="fill:#f9f9f8;stroke:#000000;stroke-width:15;stroke-linejoin:bevel" />
  <path
   d="m 8253.63,7400.79 c 0,-461.61 -374.2,-835.81 -835.81,-835.81 -461.6,0 -835.8,374.2 -835.8,835.81 0,461.59 374.2,835.79 835.8,835.79 461.61,0 835.81,-374.2 835.81,-835.79 z"
   id="path1784"
   style="fill:#f9f9f8;stroke:#000000;stroke-width:15;stroke-linejoin:bevel" />
  <path
   d="m 6308.41,7400.79 c 0,-461.61 -374.2,-835.81 -835.81,-835.81 -461.6,0 -835.8,374.2 -835.8,835.81 0,461.59 374.2,835.79 835.8,835.79 461.61,0 835.81,-374.2 835.81,-835.79 z"
   id="path1786"
   style="fill:#f9f9f8;stroke:#000000;stroke-width:15;stroke-linejoin:bevel" />
  <path
   d="m 4363.2,7400.79 c 0,-461.61 -374.2,-835.81 -835.8,-835.81 -461.61,0 -835.81,374.2 -835.81,835.81 0,461.59 374.2,835.79 835.81,835.79 461.6,0 835.8,-374.2 835.8,-835.79 z"
   id="path1788"
   style="fill:#f9f9f8;stroke:#000000;stroke-width:15;stroke-linejoin:bevel" />
  <path
   d="m 2417.98,7400.79 c 0,-461.61 -374.2,-835.81 -835.8,-835.81 -461.61,0 -835.81,374.2 -835.81,835.81 0,461.59 374.2,835.79 835.81,835.79 461.6,0 835.8,-374.2 835.8,-835.79 z"
   id="path1790"
   style="fill:#f9f9f8;stroke:#000000;stroke-width:15;stroke-linejoin:bevel" />
  <path
   d="m 7337.38,11399.7 c 0,-1567.04 -1270.34,-2837.38 -2837.38,-2837.38 -1567.04,0 -2837.38,1270.34 -2837.38,2837.38 0,1567.05 1270.34,2837.39 2837.38,2837.39 1567.04,0 2837.38,-1270.34 2837.38,-2837.39 z"
   id="path1792"
   style="fill:#f9f9f8;stroke:#000000;stroke-width:15;stroke-linejoin:bevel" />
  <path
   d="m 8211.87,7400.79 c 0,-438.55 -355.5,-794.05 -794.05,-794.05 -438.54,0 -794.05,355.5 -794.05,794.05 0,438.53 355.51,794.04 794.05,794.04 438.55,0 794.05,-355.51 794.05,-794.04 z"
   id="path1794"
   style="fill:#f9f9f8;stroke:#000000;stroke-width:15;stroke-linejoin:bevel" />
  <path
   d="m 6266.66,7400.79 c 0,-438.55 -355.51,-794.05 -794.06,-794.05 -438.54,0 -794.05,355.5 -794.05,794.05 0,438.53 355.51,794.04 794.05,794.04 438.55,0 794.06,-355.51 794.06,-794.04 z"
   id="path1796"
   style="fill:#f9f9f8;stroke:#000000;stroke-width:15;stroke-linejoin:bevel" />
  <path
   d="m 4321.45,7400.79 c 0,-438.55 -355.51,-794.05 -794.05,-794.05 -438.55,0 -794.06,355.5 -794.06,794.05 0,438.53 355.51,794.04 794.06,794.04 438.54,0 794.05,-355.51 794.05,-794.04 z"
   id="path1798"
   style="fill:#f9f9f8;stroke:#000000;stroke-width:15;stroke-linejoin:bevel" />
  <path
   d="m 2376.23,7400.79 c 0,-438.55 -355.51,-794.05 -794.05,-794.05 -438.55,0 -794.05,355.5 -794.05,794.05 0,438.53 355.5,794.04 794.05,794.04 438.54,0 794.05,-355.51 794.05,-794.04 z"
   id="path1800"
   style="fill:#f9f9f8;stroke:#000000;stroke-width:15;stroke-linejoin:bevel" />
  <path
   d="m 5519.5,11399.7 c 0,-563.05 -456.45,-1019.5 -1019.5,-1019.5 -563.05,0 -1019.5,456.45 -1019.5,1019.5 0,563.06 456.45,1019.51 1019.5,1019.51 563.05,0 1019.5,-456.45 1019.5,-1019.51 z"
   id="path1802"
   style="fill:#f9f9f8;stroke:#000000;stroke-width:15;stroke-linejoin:bevel" />
  <path
   d="m 5477.75,11399.7 c 0,-539.99 -437.76,-977.75 -977.75,-977.75 -539.99,0 -977.75,437.76 -977.75,977.75 0,540 437.76,977.76 977.75,977.76 539.99,0 977.75,-437.76 977.75,-977.76 z"
   id="path1804"
   style="fill:#f9f9f8;stroke:#000000;stroke-width:15;stroke-linejoin:bevel" />
  <path
   d="m 1629.4,1030.16 5741.2,0 c 83.02,0 150.31,67.3 150.31,150.32 l 0,4640.47 c 0,83.02 -67.29,150.31 -150.31,150.31 l -5741.2,0 c -83.02,0 -150.31,-67.29 -150.31,-150.31 l 0,-4640.47 c 0,-83.02 67.29,-150.32 150.31,-150.32"
   id="path1806"
   style="fill:#161617;stroke:#ffffff;stroke-width:15;stroke-linejoin:bevel" />
  <path
   d="m 1629.4,1118.48 5741.2,0 c 34.24,0 62,27.76 62,62 l 0,4640.47 c 0,16.44 -6.54,32.21 -18.16,43.84 -11.63,11.62 -27.4,18.16 -43.84,18.16 l -5741.2,0 c -16.44,0 -32.21,-6.54 -43.84,-18.16 -11.62,-11.63 -18.16,-27.4 -18.16,-43.84 l 0,-4640.47 c 0,-34.24 27.76,-62 62,-62"
   id="path1808"
   style="fill:#e9e4ed;stroke:#918e94;stroke-width:50;stroke-linejoin:bevel" />
  <path
   d="m 7580.41,7295.29 c -6.58,0 -11.91,5.33 -11.91,11.91 l 0,72.67 c 0,4.28 -2.29,8.23 -6.01,10.35 -3.72,2.12 -8.29,2.08 -11.97,-0.11 l -141.74,-84.14 c -3.68,-2.19 -8.25,-2.23 -11.97,-0.11 -3.72,2.11 -6.01,6.06 -6.01,10.34 l 0,63.67 c 0,4.28 -2.3,8.23 -6.02,10.35 -3.72,2.12 -8.29,2.08 -11.97,-0.11 l -141.74,-84.14 c -3.68,-2.19 -8.25,-2.23 -11.96,-0.11 -3.72,2.11 -6.02,6.06 -6.02,10.34 l 0,169.17 c 0,4.28 2.3,8.23 6.02,10.35 3.71,2.11 8.28,2.07 11.96,-0.11 l 141.74,-84.15 c 3.68,-2.18 8.25,-2.22 11.97,-0.11 3.72,2.12 6.02,6.07 6.02,10.35 l 0,63.67 c 0,4.28 2.29,8.23 6.01,10.35 3.72,2.11 8.29,2.07 11.97,-0.11 l 141.74,-84.15 c 3.68,-2.18 8.25,-2.22 11.97,-0.11 3.72,2.12 6.01,6.07 6.01,10.35 l 0,72.68 c 0,6.57 5.33,11.9 11.91,11.9 l 30.24,0 c 6.58,0 11.91,-5.33 11.91,-11.9 l 0,-187.18 c 0,-6.58 -5.33,-11.91 -11.91,-11.91 l -30.24,0"
   id="path1810"
   style="fill:#fa733a;stroke:#f5b687;stroke-width:15" />
  <path
   d="m 5590.89,7506.28 c 6.57,0 11.9,-5.33 11.9,-11.9 l 0,-187.18 c 0,-6.58 -5.33,-11.91 -11.9,-11.91 l -30.25,0 c -6.57,0 -11.9,5.33 -11.9,11.91 l 0,187.18 c 0,6.57 5.33,11.9 11.9,11.9 l 30.25,0"
   id="path1812"
   style="fill:#fa733a;stroke:#f5b687;stroke-width:15" />
  <path
   d="m 5233.89,7305.97 165.01,84.21 c 3.98,2.04 6.49,6.13 6.49,10.61 0,4.47 -2.51,8.57 -6.49,10.6 l -165.01,84.22 c -3.68,2.18 -8.25,2.22 -11.97,0.11 -3.72,-2.12 -6.02,-6.07 -6.02,-10.35 l 0,-169.17 c 0,-4.28 2.3,-8.23 6.02,-10.34 3.72,-2.12 8.29,-2.08 11.97,0.11"
   id="path1814"
   style="fill:#fa733a;stroke:#f5b687;stroke-width:15" />
  <path
   d="m 3793.55,7426.2 0,-122.09 c 0,-3.29 2.66,-5.96 5.95,-5.96 l 21.64,0 c 3.29,0 5.96,2.67 5.96,5.96 l 0,122.09 c 0,25.5 20.67,46.18 46.18,46.18 25.5,0 46.18,-20.68 46.18,-46.18 l 0,-122.09 c 0,-3.29 2.66,-5.96 5.95,-5.96 l 21.65,0 c 1.57,0 3.09,0.63 4.2,1.75 1.12,1.11 1.75,2.63 1.75,4.21 l 0,122.09 c 0,44.03 -35.7,79.73 -79.73,79.73 -44.04,0 -79.73,-35.7 -79.73,-79.73"
   id="path1816"
   style="fill:#fa733a;stroke:#f5b687;stroke-width:15" />
  <path
   d="m 3725.6,7497.47 c 0,3.28 -2.67,5.95 -5.96,5.95 l -24.35,0 c -2.02,0 -3.9,-1.03 -5,-2.73 l -79.65,-123.6 c -1.43,-2.22 -4.15,-3.23 -6.68,-2.48 -2.53,0.74 -4.27,3.07 -4.27,5.71 l 0,117.15 c 0,1.58 -0.63,3.09 -1.75,4.21 -1.11,1.11 -2.63,1.74 -4.21,1.74 l -21.64,0 c -1.58,0 -3.09,-0.63 -4.21,-1.74 -1.12,-1.12 -1.74,-2.63 -1.74,-4.21 l 0,-193.36 c 0,-3.29 2.66,-5.96 5.95,-5.96 l 24.35,0 c 2.02,0 3.91,1.03 5,2.73 l 79.65,123.6 c 1.43,2.22 4.15,3.23 6.69,2.49 2.53,-0.75 4.27,-3.07 4.27,-5.71 l 0,-117.15 c 0,-3.29 2.66,-5.96 5.95,-5.96 l 21.64,0 c 1.58,0 3.1,0.63 4.21,1.75 1.12,1.11 1.75,2.63 1.75,4.21 l 0,193.36"
   id="path1818"
   style="fill:#fa733a;stroke:#f5b687;stroke-width:15" />
  <path
   d="m 3494.74,7411.61 c 0,3.29 -2.67,5.95 -5.95,5.95 l -70.73,0 c -3.29,0 -5.96,2.67 -5.96,5.95 l 0,40.41 c 0,3.29 2.67,5.95 5.96,5.95 l 79.91,0 c 3.29,0 5.96,2.67 5.96,5.95 l 0,21.65 c 0,1.58 -0.63,3.09 -1.75,4.21 -1.11,1.11 -2.63,1.74 -4.21,1.74 l -113.46,0 c -3.29,0 -5.95,-2.67 -5.95,-5.95 l 0,-193.36 c 0,-3.29 2.66,-5.96 5.95,-5.96 l 113.46,0 c 1.58,0 3.1,0.63 4.21,1.75 1.12,1.11 1.75,2.63 1.75,4.21 l 0,21.64 c 0,3.29 -2.67,5.95 -5.96,5.95 l -79.91,0 c -1.58,0 -3.1,0.63 -4.21,1.75 -1.12,1.11 -1.75,2.63 -1.75,4.2 l 0,40.41 c 0,3.29 2.67,5.95 5.96,5.95 l 70.73,0 c 3.28,0 5.95,2.67 5.95,5.95 l 0,21.65"
   id="path1820"
   style="fill:#fa733a;stroke:#f5b687;stroke-width:15" />
  <path
   d="m 3284.62,7497.74 -4.23,-93.94 c -0.13,-2.78 -2.17,-5.11 -4.92,-5.59 -2.75,-0.48 -5.46,1 -6.53,3.58 l -40.64,97.96 c -0.92,2.22 -3.09,3.67 -5.5,3.67 l -25.63,0 c -2.41,0 -4.58,-1.45 -5.5,-3.67 l -40.65,-97.96 c -1.06,-2.58 -3.78,-4.06 -6.52,-3.58 -2.75,0.48 -4.79,2.81 -4.92,5.59 l -4.24,93.94 c -0.14,3.18 -2.76,5.68 -5.95,5.68 l -21.66,0 c -1.63,0 -3.18,-0.66 -4.3,-1.84 -1.13,-1.17 -1.72,-2.76 -1.65,-4.38 l 8.73,-193.36 c 0.14,-3.18 2.76,-5.69 5.94,-5.69 l 23.92,0 c 2.41,0 4.58,1.45 5.5,3.67 l 58.61,141.28 c 0.93,2.22 3.1,3.67 5.5,3.67 2.41,0 4.58,-1.45 5.5,-3.67 l 58.62,-141.28 c 0.92,-2.22 3.09,-3.67 5.49,-3.67 l 23.92,0 c 3.18,0 5.8,2.51 5.95,5.69 l 8.72,193.36 c 0.08,1.62 -0.52,3.21 -1.64,4.38 -1.12,1.18 -2.68,1.84 -4.3,1.84 l -21.67,0 c -3.18,0 -5.8,-2.5 -5.95,-5.68"
   id="path1822"
   style="fill:#fa733a;stroke:#f5b687;stroke-width:15" />
  <path
   d="m 5717.4,7506.28 c 6.58,0 11.91,-5.33 11.91,-11.9 l 0,-187.18 c 0,-6.58 -5.33,-11.91 -11.91,-11.91 l -30.24,0 c -6.58,0 -11.91,5.33 -11.91,11.91 l 0,187.18 c 0,6.57 5.33,11.9 11.91,11.9 l 30.24,0"
   id="path1824"
   style="fill:#fa733a;stroke:#f5b687;stroke-width:15" />
  <path
   d="m 1419.59,7295.29 c 6.58,0 11.91,5.33 11.91,11.91 l 0,72.67 c 0,4.28 2.29,8.23 6.01,10.35 3.72,2.12 8.29,2.08 11.97,-0.11 l 141.74,-84.14 c 3.68,-2.19 8.25,-2.23 11.97,-0.11 3.72,2.11 6.01,6.06 6.01,10.34 l 0,63.67 c 0,4.28 2.3,8.23 6.02,10.35 3.72,2.12 8.29,2.08 11.97,-0.11 l 141.74,-84.14 c 3.68,-2.19 8.25,-2.23 11.96,-0.11 3.72,2.11 6.02,6.06 6.02,10.34 l 0,169.17 c 0,4.28 -2.3,8.23 -6.02,10.35 -3.71,2.11 -8.28,2.07 -11.96,-0.11 l -141.74,-84.15 c -3.68,-2.18 -8.25,-2.22 -11.97,-0.11 -3.72,2.12 -6.02,6.07 -6.02,10.35 l 0,63.67 c 0,4.28 -2.29,8.23 -6.01,10.35 -3.72,2.11 -8.29,2.07 -11.97,-0.11 l -141.74,-84.15 c -3.68,-2.18 -8.25,-2.22 -11.97,-0.11 -3.72,2.12 -6.01,6.07 -6.01,10.35 l 0,72.68 c 0,6.57 -5.33,11.9 -11.91,11.9 l -30.24,0 c -6.58,0 -11.91,-5.33 -11.91,-11.9 l 0,-187.18 c 0,-6.58 5.33,-11.91 11.91,-11.91 l 30.24,0"
   id="path1826"
   style="fill:#fa733a;stroke:#f5b687;stroke-width:15" />
  <path
   d="m 6909.19,11554.1 c -8.01,0 -14.51,-6.49 -14.51,-14.5 l 0,-88.56 c 0,-5.21 -2.8,-10.02 -7.32,-12.6 -4.54,-2.58 -10.1,-2.53 -14.59,0.13 l -172.7,102.53 c -4.48,2.66 -10.06,2.71 -14.58,0.13 -4.54,-2.58 -7.34,-7.39 -7.34,-12.61 l 0,-77.58 c 0,-5.21 -2.8,-10.02 -7.32,-12.6 -4.54,-2.58 -10.1,-2.53 -14.58,0.13 l -172.71,102.53 c -4.49,2.66 -10.06,2.71 -14.58,0.13 -4.54,-2.58 -7.34,-7.39 -7.34,-12.61 l 0,-206.11 c 0,-5.22 2.8,-10.03 7.34,-12.61 4.52,-2.58 10.09,-2.53 14.58,0.13 l 172.71,102.53 c 4.48,2.66 10.04,2.71 14.58,0.13 4.52,-2.58 7.32,-7.39 7.32,-12.6 l 0,-77.58 c 0,-5.22 2.8,-10.03 7.34,-12.61 4.52,-2.58 10.1,-2.53 14.58,0.13 l 172.7,102.53 c 4.49,2.66 10.05,2.71 14.59,0.13 4.52,-2.58 7.32,-7.39 7.32,-12.6 l 0,-88.56 c 0,-8.01 6.5,-14.51 14.51,-14.51 l 36.85,0 c 8.02,0 14.51,6.5 14.51,14.51 l 0,228.07 c 0,8.01 -6.49,14.5 -14.51,14.5 l -36.85,0"
   id="path1828"
   style="fill:#ffffff" />
  <path
   d="m 2090.81,11554.1 c 8.01,0 14.51,-6.49 14.51,-14.5 l 0,-88.56 c 0,-5.21 2.8,-10.02 7.32,-12.6 4.54,-2.58 10.1,-2.53 14.59,0.13 l 172.7,102.53 c 4.48,2.66 10.06,2.71 14.58,0.13 4.54,-2.58 7.34,-7.39 7.34,-12.61 l 0,-77.58 c 0,-5.21 2.8,-10.02 7.32,-12.6 4.54,-2.58 10.1,-2.53 14.58,0.13 l 172.71,102.53 c 4.49,2.66 10.06,2.71 14.58,0.13 4.54,-2.58 7.34,-7.39 7.34,-12.61 l 0,-206.11 c 0,-5.22 -2.8,-10.03 -7.34,-12.61 -4.52,-2.58 -10.09,-2.53 -14.58,0.13 l -172.71,102.53 c -4.48,2.66 -10.04,2.71 -14.58,0.13 -4.52,-2.58 -7.32,-7.39 -7.32,-12.6 l 0,-77.58 c 0,-5.22 -2.8,-10.03 -7.34,-12.61 -4.52,-2.58 -10.1,-2.53 -14.58,0.13 l -172.7,102.53 c -4.49,2.66 -10.05,2.71 -14.59,0.13 -4.52,-2.58 -7.32,-7.39 -7.32,-12.6 l 0,-88.56 c 0,-8.01 -6.5,-14.51 -14.51,-14.51 l -36.85,0 c -8.02,0 -14.51,6.5 -14.51,14.51 l 0,228.07 c 0,8.01 6.49,14.5 14.51,14.5 l 36.85,0"
   id="path1830"
   style="fill:#ffffff" />
  <g
   id="g1832">
   
   
  </g>
  <g
   id="g1838">
   
   
  </g>
  <path
   d="m 6041.64,57 1531.91,0 0,93 -1531.91,0 0,-93"
   id="path1844"
   style="fill:url(#id8);stroke:#000000;stroke-width:18;stroke-linejoin:bevel" />
  <g
   id="g1846">
   <path
   d="m 3582.63,2085.43 c -88.74,-386.17 -318.53,-402.97 -372.56,-402.97 l 0,-22.59 c 119.83,0 313.47,85.51 383.85,378.99 90.15,-292.85 244.11,-371.47 352.17,-372.95 102.97,-1.42 166.48,22.58 264.08,73.43 l 0,-45.83 281.76,0 0,-38.64 22.58,0 0,38.64 47.78,0 0,22.58 -47.78,0 0,552.15 202.64,-512.22 194.13,0 16.92,-39.93 -241.92,0 0,-22.58 251.49,0 26.58,-62.75 20.8,8.81 -22.86,53.94 53.51,0 0,22.58 -63.08,0 -157.92,372.7 209.15,0 0,279.34 c 195.73,-96.34 429.9,-25.66 547.94,162.93 117.07,-180.46 345.79,-252.39 545.06,-171.39 l -7.93,-12.82 336.82,0 67.28,108.79 65.72,-106.26 c 0.97,-1.58 2.69,-2.53 4.53,-2.53 l 0,0 c 1.94,0 3.72,1.05 4.67,2.74 0.94,1.68 0.9,3.75 -0.12,5.4 l -68.52,110.78 8.78,14.2 80.77,-130.59 c 0.97,-1.58 2.69,-2.53 4.53,-2.53 l 0,0 c 1.94,0 3.72,1.05 4.66,2.74 0.94,1.68 0.89,3.75 -0.13,5.4 l -83.56,135.11 8.78,14.2 97.38,-157.45 336.82,0 -265.81,429.74 8.79,14.19 280.45,-453.44 -349.89,0 c -1.93,0 -3.71,-1.06 -4.66,-2.74 -0.94,-1.69 -0.89,-3.75 0.13,-5.41 l 0,0 c 0.98,-1.56 2.68,-2.52 4.53,-2.52 l 369.04,0 -278.28,449.92 260.32,420.89 c 1.02,1.64 1.06,3.71 0.13,5.4 -0.94,1.68 -2.73,2.74 -4.66,2.74 -1.85,0 -3.56,-0.96 -4.54,-2.53 l -257.52,-416.37 -8.78,14.2 250.31,404.7 -336.81,0 -64.35,-104.02 -62.77,101.49 c -0.97,1.57 -2.69,2.53 -4.54,2.53 l 0,0 c -0.86,0 -1.73,-0.21 -2.5,-0.63 -0.77,0.42 -1.63,0.63 -2.51,0.63 -1.94,0 -3.72,-1.06 -4.66,-2.74 -0.94,-1.69 -0.89,-3.76 0.13,-5.4 l 68.07,-110.08 -8.77,-14.19 -80.33,129.88 c -0.98,1.57 -2.69,2.53 -4.54,2.53 -1.93,0 -3.72,-1.06 -4.66,-2.74 -0.94,-1.69 -0.9,-3.76 0.12,-5.4 l 83.13,-134.41 -8.77,-14.19 -96.95,156.74 -336.82,0 9.86,-15.94 c -199.45,82.38 -429.28,11.05 -547.03,-169.79 -117.87,189.05 -352.35,258.22 -548.34,161.77 l 0,23.96 -286.19,0 0,-2.15 -47.24,0 20.64,58.25 -21.29,7.53 -23.3,-65.78 -90.73,0 0,-22.58 82.73,0 -168.56,-475.82 -9.96,24.27 0,476.28 -186.66,0 0,-1449.6 186.66,0 0,649.88 31.88,-80.58 0,-609.23 -259.19,0 0,65.99 c -112.44,-75.61 -187.78,-93.59 -286.65,-93.59 -78.28,0 -250.07,57.06 -340.88,396.94 l -22.58,0 z m 404.33,1150.65 -355.9,0.02 0,-22.58 243.04,0 c -185.2,-82.25 -265.91,-379.86 -265.91,-732.7 0,-416 112.13,-755.28 375.54,-755.28 121.04,0 189.82,62.19 249.01,118.85 l 0,36.96 c 0.02,0.04 0.04,0.07 0.06,0.1 l -0.01,313.25 -20.11,0 c -43.64,-79.51 -123.87,-191.19 -206.74,-191.19 -138.1,0 -206.42,213.9 -204.68,477.31 -1.74,263.41 66.58,477.31 204.68,477.31 82.87,0 163.1,-111.67 206.74,-191.2 l 20.11,0 0.01,313.26 c -0.02,0.03 -0.04,0.06 -0.06,0.1 l 0,36.96 c -58.66,56.16 -126.75,117.74 -245.78,118.83 z M 3207.34,1725.54 c 261.14,0 372.31,356.17 372.31,755.28 0,399.12 -111.17,755.28 -372.31,755.28 -261.14,0 -372.31,-339.28 -372.31,-755.28 0,-416 111.17,-755.28 372.31,-755.28 z m -650.14,30.48 -340.02,0 0,841.83 c 2.2,5.89 4.38,11.77 6.54,17.67 15.27,-4.18 31.11,-5.87 46.92,-5.03 30.91,1.65 58.78,19.2 73.63,46.37 13.42,24.56 19.81,52.34 18.46,80.3 -0.56,11.68 -3.64,23.1 -9.01,33.49 -13.22,25.52 -33.61,46.6 -58.65,60.66 8.47,28.77 16.57,57.65 24.29,86.63 14.79,55.43 21.72,112.66 20.62,170.02 -0.29,14.8 -3.5,29.4 -9.45,42.95 -6.1,13.88 -16.78,25.25 -30.27,32.2 -9.78,5.04 -21.2,5.87 -31.61,2.3 -10.41,-3.56 -18.92,-11.22 -23.57,-21.2 -5.4,-11.61 -8.05,-24.32 -7.72,-37.13 0.18,-7.21 3.66,-13.94 9.44,-18.25 7.29,-5.44 16.25,-8.17 25.34,-7.74 5.96,0.3 11.31,3.78 13.97,9.12 2.67,5.34 2.25,11.7 -1.09,16.65 -4.12,6.09 -10.18,10.62 -17.18,12.88 l 2.4,5.23 c 1.12,2.96 3.64,5.19 6.72,5.95 3.08,0.76 6.34,-0.03 8.73,-2.12 11.73,-10 19.04,-24.22 20.32,-39.59 1.7,-26.47 1.14,-53.02 -1.68,-79.39 -8.24,-56.33 -20.52,-112 -36.73,-166.58 -4.15,1.32 -8.37,2.46 -12.64,3.42 -12.48,2.77 -25.08,4.92 -37.78,6.48 l 0,352.48 227.56,0 0,47.14 22.57,0 0,-47.14 48.49,0 0,-22.58 -48.49,0 0,-508.29 21.82,0 198.59,530.87 218.09,0 19.72,50.31 21.01,-8.24 -19.59,-50.02 68.05,0 0,-22.57 -76.9,0 -234.85,-599.45 c 86.45,-89.16 136.04,-223.38 136.04,-393.82 0,-228.46 -61.84,-425.81 -262.09,-425.81 z m -299.52,1055.43 c -12.96,5.33 -26.59,8.92 -40.5,10.63 l 0,-128.45 c 14.01,38.94 27.47,78.07 40.36,117.38 0.04,0.15 0.1,0.29 0.14,0.44 0,0 0,0 0,0 0,0 0,0 0,0 0,0 0,0 0,0 m -21.32,-160.94 c 4.44,-1.22 8.93,-2.25 13.45,-3.1 14.18,-2.63 28.83,0.79 40.36,9.45 10.51,7.88 18.06,19.06 21.49,31.74 7.62,28.27 5.95,58.24 -4.74,85.49 -2.25,5.71 -5.95,10.75 -10.73,14.6 -3.68,2.95 -7.49,5.74 -11.41,8.34 -15.05,-49.19 -31.2,-98.05 -48.42,-146.52 m -19.18,171.57 c -3.57,0.44 -7.15,0.76 -10.73,0.95 -39.11,2.13 -75.47,-20.07 -91.46,-55.82 -28.38,-63.45 -32.5,-135.09 -11.59,-201.38 7.34,-23.26 14.92,-46.46 22.76,-69.56 2.16,-6.4 4.35,-12.78 6.56,-19.17 20.99,49.87 41.06,100.11 60.19,150.71 -27.26,14.6 -49.25,37.37 -62.89,65.12 -2.25,4.58 -1.37,10.09 2.21,13.74 3.57,3.66 9.06,4.66 13.69,2.49 4.03,-2.9 7.76,-6.18 11.15,-9.79 13.78,-15.29 30.29,-27.88 48.69,-37.11 3.84,10.43 7.65,20.89 11.42,31.37 l 0,-95.78 c -18.11,-48.45 -37.28,-96.49 -57.53,-144.08 -3.36,-7.88 -6.79,-15.74 -10.27,-23.55 4.21,-11.57 8.48,-23.11 12.84,-34.64 6.21,-16.43 10.95,-33.39 14.17,-50.67 3.64,-19.53 2.01,-39.69 -4.72,-58.39 -15.35,-42.61 -44.92,-78.63 -83.73,-101.97 -17.08,-10.28 -36.76,-15.34 -56.67,-14.61 -16.69,0.63 -30.16,13.83 -31.13,30.49 -0.89,15.13 2.62,30.18 10.09,43.37 6.92,12.19 14.36,24.09 22.32,35.63 24.58,35.62 45.8,73.43 63.43,112.94 3.47,7.77 6.92,15.55 10.34,23.34 -5.38,14.79 -10.65,29.62 -15.8,44.5 -23.93,69 -39.35,140.66 -45.95,213.4 -3.1,34.33 -0.05,68.93 9.02,102.19 12.45,45.63 53.01,77.94 100.26,79.87 21.14,0.86 42.32,0.02 63.33,-2.53 l 0,-31.06 m 309.21,-1126.43 -351.54,0 0,-54.76 -22.57,0 0,54.76 -52.58,0 0,22.59 52.58,0 0,251.5 22.57,0 0,-251.5 351.54,0 0,-22.59"
   id="path1848"
   style="fill:#000000" />
   <path
   d="m 6898.09,2379.92 -259.05,0 -115.81,187.24 -115.81,-187.24 -259.07,0 48.59,78.54 c -98.88,-83.94 -231.29,-116.87 -357.97,-89.05 -126.68,27.83 -233.1,113.24 -287.68,230.9 -48.93,-109.46 -141.01,-191.39 -252.36,-224.56 -111.37,-33.15 -231.07,-14.3 -328.06,51.7 l 0,-310.75 -220.04,0 0,1050.7 220.04,0 0,-42.39 c 97.17,66.13 217.1,84.93 328.61,51.53 111.52,-33.39 203.6,-115.69 252.29,-225.48 55.21,118.11 162.66,203.46 290.2,230.49 127.54,27.03 260.36,-7.37 358.74,-92.93 l -51.92,83.92 259.06,0 115.38,-186.53 115.37,186.53 259.06,0 -244.91,-395.95 245.34,-396.67 z"
   id="path1850"
   style="fill:#c0bdc7" />
   <path
   d="m 5362.03,2775.16 c 0,-108.02 -87.56,-195.59 -195.57,-195.59 -108.01,0 -195.57,87.57 -195.57,195.59 0,108.02 87.56,195.59 195.57,195.59 108.01,0 195.57,-87.57 195.57,-195.59 z m 969.47,-99.12 c 16.41,66.74 15.99,136.52 -1.21,203.06 l 63.41,-102.51 -62.2,-100.55 m -207.82,99.12 c 0,-108.02 -87.57,-195.59 -195.58,-195.59 -108.01,0 -195.57,87.57 -195.57,195.59 0,108.02 87.56,195.59 195.57,195.59 108.01,0 195.58,-87.57 195.58,-195.59 z"
   id="path1852"
   style="fill:#000000" />
   <path
   d="m 2403.84,3183.04 40.9,0 0,-508.29 -40.9,0 0,508.29 m 84.45,-828.68 c 68.98,0 79.78,-87.46 79.72,-147.48 -0.07,-60.01 -8.78,-125.14 -68.97,-125.14 l -95.2,0 0,331.67 40.9,0 0,-59.05 43.55,0 z m 0,22.58 -20.98,0 0,36.47 1.45,0 c 153.73,0 153.73,-137.67 153.73,-185.5 l 0,-30.87 c 0,-46.37 -0.31,-174.34 -129.76,-174.34 l -88.89,0 0,36.47 84.45,0 c 43.94,0 102.87,6.24 102.87,153.55 0,147.31 -59.24,162.99 -102.87,164.22 z m -366.06,-4.03 c -17.7,-35.31 -36.83,-69.89 -57.39,-103.62 -6.53,-10.73 -12.43,-21.82 -17.68,-33.22 -3.44,-7.44 -5.47,-15.45 -6.02,-23.62 -0.12,-1.76 0.52,-3.49 1.75,-4.76 1.21,-1.27 2.93,-1.95 4.69,-1.89 8.49,0.29 16.76,2.73 24.05,7.08 31.32,18.74 53.65,49.45 61.83,85.02 2.37,10.37 2.45,21.14 0.21,31.56 -3.16,14.65 -6.97,29.15 -11.44,43.45 l 0,0 m 3800.54,564.67 10.67,0 c 88.66,-2.9 158.61,-76.38 157.15,-165.09 -1.45,-88.7 -73.77,-159.85 -162.49,-159.85 -88.7,0 -161.03,71.15 -162.48,159.85 -1.45,88.71 68.49,162.19 157.15,165.09 z m -761.65,0 10.66,0 c 88.67,-2.9 158.62,-76.38 157.16,-165.09 -1.45,-88.7 -73.77,-159.85 -162.48,-159.85 -88.72,0 -161.03,71.15 -162.49,159.85 -1.46,88.71 68.49,162.19 157.15,165.09 z m -509.46,-510.95 66.1,171 0,-327.04 -66.1,156.04 m 10.86,754.26 -179.64,-507.15 21.05,-51.31 207.6,558.46 -49.01,0 M 3207.33,1998.62 c 125.75,0 179.25,227.36 179.25,482.2 0,254.83 -53.5,482.21 -179.25,482.21 -125.75,0 -179.24,-216.62 -179.24,-482.21 0,-265.58 53.49,-482.2 179.24,-482.2 z"
   id="path1854"
   style="fill:#e9e4ed" />
   <path
   d="m 5922.77,2937.58 c 3.56,0.26 7.1,0.25 10.67,0 l 0,-14.94 c 80.43,-2.9 143.68,-69.73 142.22,-150.2 -1.48,-80.47 -67.17,-144.92 -147.66,-144.86 -1.93,-0.04 -3.52,0.98 -4.49,2.63 -0.98,1.67 -0.98,3.73 -0.01,5.4 0.97,1.66 2.58,2.67 4.51,2.64 49.55,-0.04 95.27,26.71 119.51,69.94 24.24,43.23 23.22,96.2 -2.65,138.46 -25.87,42.27 -72.58,67.25 -122.1,65.32 l 0,25.61 z m -756.31,-40.44 c -2.95,0 -5.34,-2.39 -5.34,-5.33 0,-2.95 2.39,-5.34 5.34,-5.34 61.47,0 111.3,-49.83 111.3,-111.31 0,-61.48 -49.83,-111.31 -111.3,-111.31 -2.95,0 -5.34,-2.4 -5.34,-5.33 0,-2.95 2.39,-5.35 5.34,-5.35 67.36,0 121.97,54.62 121.97,121.99 0,67.37 -54.61,121.98 -121.97,121.98 z m 761.64,0 c -2.94,0 -5.33,-2.39 -5.33,-5.33 0,-2.95 2.39,-5.34 5.33,-5.34 61.48,0 111.32,-49.83 111.32,-111.31 0,-61.48 -49.84,-111.31 -111.32,-111.31 -2.94,0 -5.33,-2.4 -5.33,-5.33 0,-2.95 2.39,-5.35 5.33,-5.35 67.37,0 121.98,54.62 121.98,121.99 0,67.37 -54.61,121.98 -121.98,121.98 z m -766.98,40.44 c 3.56,0.18 7.11,0.14 10.66,0 l 0,-14.94 c 80.44,-2.9 143.7,-69.73 142.22,-150.2 -1.48,-80.47 -67.17,-144.92 -147.65,-144.86 -1.93,-0.04 -3.53,0.98 -4.5,2.63 -0.96,1.67 -0.98,3.73 0,5.4 0.97,1.66 2.58,2.67 4.5,2.64 49.57,-0.04 95.27,26.71 119.51,69.94 24.25,43.23 23.23,96.2 -2.64,138.46 -25.87,42.27 -72.58,67.25 -122.1,65.32 l 0,25.61 z m -1953.78,-42.41 0,-55.77 -22.58,0 0,59.39 0,22.57 c 122.05,0 157.88,-207.27 158.72,-429.26 l 513.67,0 c 1.21,156.28 35.5,395.45 137.51,411.95 l 0,58.98 22.57,0 0,-470.93 89.88,0 0,-22.57 -89.88,0 0,-81.47 -22.57,0 0,81.47 -114.86,0 c 2.45,-154.89 45.72,-381.33 126.14,-385.01 l 0,-22.58 c -105.48,4.08 -146.48,245.78 -148.72,407.59 l -513.78,0 c -1.46,-220.94 -37.14,-426.52 -158.68,-426.52 l 0,21.67 0,404.85 -69,0 0,22.57 69,0 0,78.87 22.58,0 0,-78.87 113.52,0 c -1.12,142.09 -19.03,371.7 -113.52,403.07 z"
   id="path1856"
   style="fill:#000000" />
   <path
   d="m 3879.74,2492.1 c 1.46,147.95 38.92,368.82 114.92,388.88 l 0,-388.88 -114.92,0 z m -558.83,-22.57 -113.57,0 0,-401.21 c 94.01,31.25 112.89,258.87 113.57,401.21 z"
   id="path1858"
   style="fill:#e9e4ed" />
  </g>
 </g>
 <g
   id="Haupt_x0020_Desktop">
 </g>
<g
   inkscape:groupmode="layer"
   id="layer1"
   inkscape:label="Text"
   style="display:inline"><path
   style="fill:none;stroke:#000000;stroke-width:35.27777863;stroke-linecap:butt;stroke-linejoin:miter;stroke-miterlimit:4;stroke-opacity:1;stroke-dasharray:none;display:inline"
   d="m 1225.6736,7399.0155 -2380.0962,0"
   id="path1503" /><path
   style="fill:none;stroke:#000000;stroke-width:35.27777863;stroke-linecap:butt;stroke-linejoin:miter;stroke-miterlimit:4;stroke-opacity:1;stroke-dasharray:none;display:inline"
   d="M 3547.0082,7105.9184 -1113.5639,4906.9895"
   id="path1505" /><path
   style="fill:none;stroke:#000000;stroke-width:35.27777863;stroke-linecap:butt;stroke-linejoin:miter;stroke-miterlimit:4;stroke-opacity:1;stroke-dasharray:none;display:inline"
   d="M 5478.3757,7161.9859 9680.5324,4810.1319"
   id="path1507" /><path
   style="fill:none;stroke:#000000;stroke-width:35.27777863;stroke-linecap:butt;stroke-linejoin:miter;stroke-miterlimit:4;stroke-opacity:1;stroke-dasharray:none;display:inline"
   d="m 7770.0596,7425.6855 2077.0076,0"
   id="path1509" /><path
   style="fill:none;stroke:#000000;stroke-width:35.27777863;stroke-linecap:butt;stroke-linejoin:miter;stroke-miterlimit:4;stroke-opacity:1;stroke-dasharray:none;display:inline"
   d="m 6064.6618,9959.3387 3836.5489,0"
   id="path1511" /><path
   style="fill:none;stroke:#000000;stroke-width:35.27777863;stroke-linecap:butt;stroke-linejoin:miter;stroke-miterlimit:4;stroke-opacity:1;stroke-dasharray:none;display:inline"
   d="m 2882.4039,9972.6737 -3992.4282,0"
   id="path1513" /><path
   style="fill:none;stroke:#000000;stroke-width:35.27777863;stroke-linecap:butt;stroke-linejoin:miter;stroke-miterlimit:4;stroke-opacity:1;stroke-dasharray:none;display:inline"
   d="m 4467.6189,11293.228 5604.1141,2000.491"
   id="path1515" /><text
   xml:space="preserve"
   style="font-size:790.222229px;font-style:normal;font-variant:normal;font-weight:normal;font-stretch:normal;text-align:start;line-height:100%;writing-mode:lr-tb;text-anchor:start;fill:#000000;fill-opacity:1;stroke:none;display:inline;font-family:URW Palladio L"
   x="-5148.3872"
   y="4280.8936"
   id="text4136"
   sodipodi:linespacing="100%"><tspan
     sodipodi:role="line"
     id="tspan4138"
     x="-5148.3872"
     y="4280.8936">Menu</tspan></text>

<text
   xml:space="preserve"
   style="font-size:790.222229px;font-style:normal;font-variant:normal;font-weight:normal;font-stretch:normal;text-align:start;line-height:100%;writing-mode:lr-tb;text-anchor:start;fill:#000000;fill-opacity:1;stroke:none;display:inline;font-family:URW Palladio L"
   x="-5103.3418"
   y="7531.5923"
   id="text4140"
   sodipodi:linespacing="100%"><tspan
     sodipodi:role="line"
     id="tspan4142"
     x="-5103.3418"
     y="7531.5923">Prev</tspan></text>

<text
   xml:space="preserve"
   style="font-size:790.222229px;font-style:normal;font-variant:normal;font-weight:normal;font-stretch:normal;text-align:start;line-height:100%;writing-mode:lr-tb;text-anchor:start;fill:#000000;fill-opacity:1;stroke:none;display:inline;font-family:URW Palladio L"
   x="-5122.2002"
   y="10115.215"
   id="text4144"
   sodipodi:linespacing="100%"><tspan
     sodipodi:role="line"
     id="tspan4146"
     x="-5122.2002"
     y="10115.215">Scroll Back</tspan></text>

<text
   xml:space="preserve"
   style="font-size:790.222229px;font-style:normal;font-variant:normal;font-weight:normal;font-stretch:normal;text-align:start;line-height:100%;writing-mode:lr-tb;text-anchor:start;fill:#000000;fill-opacity:1;stroke:none;display:inline;font-family:URW Palladio L"
   x="10002.365"
   y="4966.8276"
   id="text4148"
   sodipodi:linespacing="100%"><tspan
     sodipodi:role="line"
     id="tspan4150"
     x="10002.365"
     y="4966.8276">Play</tspan></text>

<text
   xml:space="preserve"
   style="font-size:790.222229px;font-style:normal;font-variant:normal;font-weight:normal;font-stretch:normal;text-align:start;line-height:100%;writing-mode:lr-tb;text-anchor:start;fill:#000000;fill-opacity:1;stroke:none;display:inline;font-family:URW Palladio L"
   x="9983.5078"
   y="7663.6021"
   id="text4152"
   sodipodi:linespacing="100%"><tspan
     sodipodi:role="line"
     id="tspan4154"
     x="9983.5078"
     y="7663.6021">Next</tspan></text>

<text
   xml:space="preserve"
   style="font-size:790.222229px;font-style:normal;font-variant:normal;font-weight:normal;font-stretch:normal;text-align:start;line-height:100%;writing-mode:lr-tb;text-anchor:start;fill:#000000;fill-opacity:1;stroke:none;display:inline;font-family:URW Palladio L"
   x="10077.8"
   y="10152.933"
   id="text4156"
   sodipodi:linespacing="100%"><tspan
     sodipodi:role="line"
     id="tspan4158"
     x="10077.8"
     y="10152.933">Scroll Fwd</tspan></text>

<text
   xml:space="preserve"
   style="font-size:790.222229px;font-style:normal;font-variant:normal;font-weight:normal;font-stretch:normal;text-align:start;line-height:100%;writing-mode:lr-tb;text-anchor:start;fill:#000000;fill-opacity:1;stroke:none;display:inline;font-family:URW Palladio L"
   x="10153.234"
   y="13528.614"
   id="text4160"
   sodipodi:linespacing="100%"><tspan
     sodipodi:role="line"
     id="tspan4162"
     x="10153.234"
     y="13528.614">Select</tspan></text>

<text
   xml:space="preserve"
   style="font-size:790.222229px;font-style:normal;font-variant:normal;font-weight:normal;font-stretch:normal;text-align:start;line-height:100%;writing-mode:lr-tb;text-anchor:start;fill:#000000;fill-opacity:1;stroke:none;display:inline;font-family:URW Palladio L"
   x="6079.7856"
   y="-332.4281"
   id="text2717"
   sodipodi:linespacing="100%"><tspan
     sodipodi:role="line"
     id="tspan2719"
     x="6079.7856"
     y="-332.4281">Hold</tspan></text>

<path
   d="m 3693.16,9536.93 -49.89,22.4 -49.15,23.73 -48.4,25.01 -47.63,26.23 -46.86,27.45 -46.04,28.68 -45.18,29.86 -44.37,31.02 -43.46,32.15 -42.6,33.27 -41.65,34.36 -40.72,35.45 -39.76,36.49 -38.77,37.54 -37.79,38.54 -36.72,39.53 -35.71,40.5 -34.61,41.43 -33.53,42.36 -32.42,43.29 -31.28,44.12 -30.13,45.03 -28.96,45.84 -27.73,46.67 -26.54,47.46 -25.28,48.22 -24.02,48.97 -22.73,49.7 -21.4,50.43 -20.1,51.09 -18.73,51.78 -17.39,52.38 14.3,4.52 17.21,-52.04 18.61,-51.36 19.92,-50.75 21.3,-50.01 22.55,-49.36 23.84,-48.61 25.1,-47.88 26.3,-47.1 27.57,-46.31 28.72,-45.5 29.89,-44.67 31.06,-43.84 32.18,-42.93 33.29,-42.06 34.37,-41.15 35.43,-40.2 36.48,-39.23 37.49,-38.26 38.49,-37.24 39.46,-36.25 40.42,-35.17 41.37,-34.12 42.24,-33.03 43.18,-31.93 44.01,-30.78 44.88,-29.62 45.7,-28.44 46.5,-27.29 47.29,-26.05 48.04,-24.77 48.79,-23.55 49.49,-22.28 z"
   id="path1836"
   style="fill:#000000" /><path
   d="m 5300.92,9550.65 49.49,22.28 48.79,23.55 48.04,24.77 47.29,26.05 46.5,27.29 45.7,28.44 44.88,29.62 44.01,30.78 43.18,31.93 42.24,33.03 41.37,34.12 40.42,35.17 39.46,36.25 38.49,37.24 37.49,38.26 36.48,39.23 35.43,40.2 34.37,41.15 33.29,42.06 32.18,42.93 31.06,43.84 29.89,44.67 28.72,45.5 27.57,46.31 26.3,47.1 25.1,47.88 23.84,48.61 22.55,49.36 21.3,50.01 19.92,50.75 18.61,51.36 17.21,52.04 14.3,-4.52 -17.39,-52.38 -18.73,-51.78 -20.1,-51.09 -21.4,-50.43 -22.73,-49.7 -24.02,-48.97 -25.28,-48.22 -26.54,-47.46 -27.73,-46.67 -28.96,-45.84 -30.13,-45.03 -31.28,-44.12 -32.42,-43.29 -33.53,-42.36 -34.61,-41.43 -35.71,-40.5 -36.72,-39.53 -37.79,-38.54 -38.77,-37.54 -39.76,-36.49 -40.72,-35.45 -41.65,-34.36 -42.6,-33.27 -43.46,-32.15 -44.37,-31.02 -45.18,-29.86 -46.04,-28.68 -46.86,-27.45 -47.63,-26.23 -48.4,-25.01 -49.15,-23.73 -49.89,-22.4 z"
   id="path1842"
   style="fill:#000000" /><path
   d="m 6466.95,10909.4 -176.76,-205.17 0,0 7.33,1.06 7.27,0.88 7.2,0.67 7.14,0.47 7.08,0.27 7.02,0.08 6.95,-0.12 6.9,-0.32 6.82,-0.52 6.77,-0.72 6.7,-0.92 6.64,-1.12 6.58,-1.31 6.51,-1.52 6.45,-1.71 6.39,-1.91 6.33,-2.11 6.26,-2.31 6.2,-2.5 6.14,-2.71 6.07,-2.9 6.02,-3.11 5.95,-3.3 5.88,-3.5 5.82,-3.7 5.77,-3.89 5.69,-4.1 5.64,-4.29 5.57,-4.5 5.51,-4.69 5.45,-4.89 5.38,-5.09 -26.67,269.5 0,0 z"
   id="path1840"
   style="fill:#000000;fill-rule:evenodd;display:inline" /><path
   d="m 2533.05,10909.4 -26.67,-269.5 0,0 5.38,5.09 5.45,4.89 5.51,4.69 5.57,4.5 5.64,4.29 5.69,4.1 5.77,3.89 5.82,3.7 5.88,3.5 5.95,3.3 6.02,3.11 6.07,2.9 6.14,2.71 6.2,2.5 6.26,2.31 6.33,2.11 6.39,1.91 6.45,1.71 6.51,1.52 6.58,1.31 6.64,1.12 6.7,0.92 6.77,0.72 6.82,0.52 6.9,0.32 6.95,0.12 7.02,-0.08 7.08,-0.27 7.14,-0.47 7.2,-0.67 7.27,-0.88 7.33,-1.06 -176.76,205.17 0,0 z"
   id="path1834"
   style="fill:#000000;fill-rule:evenodd;display:inline" /></g></svg>