<?xml version="1.0" encoding="UTF-8" standalone="no"?>
<!-- Creator: CorelDRAW -->
<svg
   xmlns:dc="http://purl.org/dc/elements/1.1/"
   xmlns:cc="http://web.resource.org/cc/"
   xmlns:rdf="http://www.w3.org/1999/02/22-rdf-syntax-ns#"
   xmlns:svg="http://www.w3.org/2000/svg"
   xmlns="http://www.w3.org/2000/svg"
   xmlns:xlink="http://www.w3.org/1999/xlink"
   xmlns:sodipodi="http://sodipodi.sourceforge.net/DTD/sodipodi-0.dtd"
   xmlns:inkscape="http://www.inkscape.org/namespaces/inkscape"
   xml:space="preserve"
   width="336.77853"
   height="559.78033"
   shape-rendering="geometricPrecision"
   text-rendering="geometricPrecision"
   image-rendering="optimizeQuality"
   fill-rule="evenodd"
   viewBox="0 0 9400 15875.6"
   id="svg2"
   sodipodi:version="0.32"
   inkscape:version="0.44"
   sodipodi:docname="Ipod2g_2.svg"
   sodipodi:docbase="C:\Dokumente und Einstellungen\Marianne\Eigene Dateien\Rockbox\Graphics\Vektor\Apple\Ipod2g"
   version="1.0"><metadata
   id="metadata119"><rdf:RDF><cc:Work
       rdf:about=""><dc:format>image/svg+xml</dc:format><dc:type
         rdf:resource="http://purl.org/dc/dcmitype/StillImage" /></cc:Work></rdf:RDF></metadata><defs
   id="defs117">
  <defs
   id="defs5">
   <radialGradient
   fy="10803"
   fx="4699.9902"
   r="3968.8899"
   cy="10803"
   cx="4699.9902"
   gradientUnits="userSpaceOnUse"
   id="id0"
   gradientTransform="translate(7.923989,4.008866)">
    <stop
   id="stop8"
   stop-color="#606563"
   offset="0" />
    <stop
   id="stop10"
   stop-color="#8C908F"
   offset="0.780392" />
    <stop
   id="stop12"
   stop-color="#F9F9F9"
   offset="0.82967025" />
    <stop
   id="stop14"
   stop-color="#F9F9F9"
   offset="0.95366079" />
    <stop
   id="stop16"
   stop-color="#8E8E8E"
   offset="1" />
    <stop
   id="stop18"
   stop-color="#8E8E8E"
   offset="1" />
   </radialGradient>
   <linearGradient
   y2="106.45"
   x2="3359.72"
   y1="106.45"
   x1="3173.28"
   gradientUnits="userSpaceOnUse"
   id="id1"
   gradientTransform="translate(7.923989,4.008866)">
    <stop
   id="stop21"
   stop-color="#ABABAB"
   offset="0" />
    <stop
   id="stop23"
   stop-color="#F5F5F5"
   offset="0.0313725" />
    <stop
   id="stop25"
   stop-color="#F5F5F5"
   offset="0.94902" />
    <stop
   id="stop27"
   stop-color="#ABABAB"
   offset="1" />
   </linearGradient>
   <linearGradient
   y2="109.688"
   x2="8169.8701"
   y1="109.688"
   x1="6200.5498"
   gradientUnits="userSpaceOnUse"
   id="id2"
   gradientTransform="translate(7.923989,4.008866)">
    <stop
   id="stop30"
   stop-color="#ABABAB"
   offset="0" />
    <stop
   id="stop32"
   stop-color="#F5F5F5"
   offset="0.0313725" />
    <stop
   id="stop34"
   stop-color="#F5F5F5"
   offset="0.94902" />
    <stop
   id="stop36"
   stop-color="#ABABAB"
   offset="1" />
   </linearGradient>
   <radialGradient
   fy="10803"
   fx="4699.9902"
   r="1065.54"
   cy="10803"
   cx="4699.9902"
   gradientUnits="userSpaceOnUse"
   id="id3"
   gradientTransform="translate(7.923989,4.008866)">
    <stop
   id="stop39"
   stop-color="#FFFFFF"
   offset="0" />
    <stop
   id="stop41"
   stop-color="#F4F4F4"
   offset="0.831373" />
    <stop
   id="stop43"
   stop-color="#F9F9F9"
   offset="0.85098" />
    <stop
   id="stop45"
   stop-color="#969686"
   offset="1" />
    <stop
   id="stop47"
   stop-color="#969686"
   offset="1" />
   </radialGradient>
  </defs>
  
  
  
  
  
  
  
  
  
  
  
  
  
  
  
  
  
  
  
  
 <radialGradient
   inkscape:collect="always"
   xlink:href="#id0"
   id="radialGradient2341"
   gradientUnits="userSpaceOnUse"
   gradientTransform="translate(7.923989,4.008866)"
   cx="4699.9902"
   cy="10803"
   fx="4699.9902"
   fy="10803"
   r="3968.8899" /><linearGradient
   inkscape:collect="always"
   xlink:href="#id1"
   id="linearGradient2343"
   gradientUnits="userSpaceOnUse"
   gradientTransform="translate(7.923989,4.008866)"
   x1="3173.28"
   y1="106.45"
   x2="3359.72"
   y2="106.45" /><linearGradient
   inkscape:collect="always"
   xlink:href="#id2"
   id="linearGradient2345"
   gradientUnits="userSpaceOnUse"
   gradientTransform="translate(7.923989,4.008866)"
   x1="6200.5498"
   y1="109.688"
   x2="8169.8701"
   y2="109.688" /><radialGradient
   inkscape:collect="always"
   xlink:href="#id3"
   id="radialGradient2347"
   gradientUnits="userSpaceOnUse"
   gradientTransform="translate(7.923989,4.008866)"
   cx="4699.9902"
   cy="10803"
   fx="4699.9902"
   fy="10803"
   r="1065.54" />







<radialGradient
   inkscape:collect="always"
   xlink:href="#id0"
   id="radialGradient1981"
   gradientUnits="userSpaceOnUse"
   gradientTransform="translate(7.923989,4.008866)"
   cx="4699.9902"
   cy="10803"
   fx="4699.9902"
   fy="10803"
   r="3968.8899" /><linearGradient
   inkscape:collect="always"
   xlink:href="#id1"
   id="linearGradient1983"
   gradientUnits="userSpaceOnUse"
   gradientTransform="translate(7.923989,4.008866)"
   x1="3173.28"
   y1="106.45"
   x2="3359.72"
   y2="106.45" /><linearGradient
   inkscape:collect="always"
   xlink:href="#id2"
   id="linearGradient1985"
   gradientUnits="userSpaceOnUse"
   gradientTransform="translate(7.923989,4.008866)"
   x1="6200.5498"
   y1="109.688"
   x2="8169.8701"
   y2="109.688" /><radialGradient
   inkscape:collect="always"
   xlink:href="#id3"
   id="radialGradient1987"
   gradientUnits="userSpaceOnUse"
   gradientTransform="translate(7.923989,4.008866)"
   cx="4699.9902"
   cy="10803"
   fx="4699.9902"
   fy="10803"
   r="1065.54" /><radialGradient
   inkscape:collect="always"
   xlink:href="#id3"
   id="radialGradient1991"
   gradientUnits="userSpaceOnUse"
   gradientTransform="translate(7.923989,4.008866)"
   cx="4699.9902"
   cy="10803"
   fx="4699.9902"
   fy="10803"
   r="1065.54" /><linearGradient
   inkscape:collect="always"
   xlink:href="#id2"
   id="linearGradient1994"
   gradientUnits="userSpaceOnUse"
   gradientTransform="translate(7.923989,4.008866)"
   x1="6200.5498"
   y1="109.688"
   x2="8169.8701"
   y2="109.688" /><linearGradient
   inkscape:collect="always"
   xlink:href="#id1"
   id="linearGradient1997"
   gradientUnits="userSpaceOnUse"
   gradientTransform="translate(7.923989,4.008866)"
   x1="3173.28"
   y1="106.45"
   x2="3359.72"
   y2="106.45" /><radialGradient
   inkscape:collect="always"
   xlink:href="#id0"
   id="radialGradient2027"
   gradientUnits="userSpaceOnUse"
   gradientTransform="translate(7.923989,4.008866)"
   cx="4699.9902"
   cy="10803"
   fx="4699.9902"
   fy="10803"
   r="3968.8899" /></defs><sodipodi:namedview
   inkscape:window-height="968"
   inkscape:window-width="1280"
   inkscape:pageshadow="2"
   inkscape:pageopacity="0.0"
   guidetolerance="10.0"
   gridtolerance="10.0"
   objecttolerance="10.0"
   borderopacity="1.0"
   bordercolor="#666666"
   pagecolor="#ffffff"
   id="base"
   inkscape:zoom="0.94780155"
   inkscape:cx="355.39184"
   inkscape:cy="261.0374"
   inkscape:window-x="-4"
   inkscape:window-y="-4"
   inkscape:current-layer="layer1"
   showguides="true" />
 
 <g
   id="g2037"><path
     d="M -31.336711,1079.3089 L -31.336711,14917.109 C -31.336711,15420.019 376.36229,15827.718 879.27229,15827.718 L 8536.5823,15827.718 C 9039.5033,15827.718 9447.1913,15420.019 9447.1913,14917.109 L 9447.1913,1079.3089 C 9447.1913,576.38787 9039.5033,168.69987 8536.5823,168.69987 L 879.27229,168.69987 C 376.36229,168.69987 -31.336711,576.38787 -31.336711,1079.3089 L -31.336711,1079.3089"
     id="path49"
     style="fill:#d4d5db;stroke:#3b3e40;stroke-width:26.11109924;stroke-linejoin:bevel" /><path
     d="M 180.01699,1079.3089 L 180.01699,14917.109 C 180.01699,15303.292 493.08899,15616.354 879.27299,15616.354 L 8536.583,15616.354 C 8922.777,15616.354 9235.839,15303.292 9235.839,14917.109 L 9235.839,1079.3089 C 9235.839,693.11487 8922.777,380.05287 8536.583,380.05287 L 879.27299,380.05287 C 493.08999,380.05287 180.01699,693.11487 180.01699,1079.3089"
     id="path51"
     style="fill:#f9f9f8;stroke:#476386;stroke-width:7.95867014" /><path
     d="M 8676.804,10807.009 C 8676.804,8615.0689 6899.874,6838.1389 4707.914,6838.1389 C 2515.964,6838.1389 739.02399,8615.0589 739.02399,10807.009 C 739.02399,12998.959 2515.954,14775.889 4707.914,14775.889 C 6899.864,14775.889 8676.804,12998.969 8676.804,10807.009 z "
     id="path53"
     style="fill:url(#radialGradient2027);stroke:black;stroke-width:17.63019943;stroke-linejoin:bevel" /><path
     d="M 7815.144,10807.309 C 7815.144,9091.2389 6423.994,7700.0889 4707.924,7700.0889 C 2991.854,7700.0889 1600.704,9091.2389 1600.704,10807.309 C 1600.704,12523.379 2991.854,13914.529 4707.924,13914.529 C 6423.994,13914.529 7815.144,12523.379 7815.144,10807.309 L 7815.144,10807.309 z "
     id="path55"
     style="fill:#f9f9f8;stroke:black;stroke-width:18.79999924;stroke-linejoin:bevel" /><path
     d="M 1631.254,886.30287 L 7784.594,886.30287 C 7873.5807,886.30287 7945.7,958.43217 7945.7,1047.4189 L 7945.7,6021.0489 C 7945.7,6110.0356 7873.5811,6182.1549 7784.594,6182.1549 L 1631.254,6182.1549 C 1542.2673,6182.1549 1470.148,6110.036 1470.148,6021.0489 L 1470.148,1047.4189 C 1470.148,958.43217 1542.2669,886.30287 1631.254,886.30287"
     id="path57"
     style="fill:#161617;stroke:white;stroke-width:15.66670036;stroke-linejoin:bevel" /><path
     d="M 1631.254,980.96087 L 7784.594,980.96087 C 7821.2958,980.96087 7851.052,1010.7171 7851.052,1047.4189 L 7851.052,6021.0489 C 7851.052,6038.6687 7844.0438,6055.5782 7831.5836,6068.0385 C 7819.1234,6080.4987 7802.2243,6087.5069 7784.594,6087.5069 L 1631.254,6087.5069 C 1613.6238,6087.5069 1596.7247,6080.4987 1584.2644,6068.0385 C 1571.8042,6055.5783 1564.796,6038.6687 1564.796,6021.0489 L 1564.796,1047.4189 C 1564.796,1010.7171 1594.5522,980.96087 1631.254,980.96087"
     id="path59"
     style="fill:#e9e4ed;stroke:#918e94;stroke-width:52.22219849;stroke-linejoin:bevel" /><g
     transform="translate(7.923989,4.008866)"
     id="g61">
   <path
   d="M 3716.77,2013.32 C 3621.6629,1599.428 3375.383,1581.421 3317.468,1581.421 L 3317.468,1557.2212 C 3445.893,1557.2212 3653.445,1648.8608 3728.875,1963.4162 C 3825.4966,1649.5292 3990.508,1565.2842 4106.327,1563.6862 C 4216.693,1562.1613 4284.76,1587.886 4389.361,1642.3851 L 4389.361,1593.2649 L 4691.352,1593.2649 L 4691.352,1551.8631 L 4715.5518,1551.8631 L 4715.5518,1593.2649 L 4766.7609,1593.2649 L 4766.7609,1617.4647 L 4715.5518,1617.4647 L 4715.5518,2209.2677 L 4932.7338,1660.2657 L 5140.8078,1660.2657 L 5158.9394,1617.4644 L 4899.6564,1617.4644 L 4899.6564,1593.2646 L 5169.1964,1593.2646 L 5197.6888,1526.0128 L 5219.9668,1535.465 L 5195.4746,1593.2646 L 5252.825,1593.2646 L 5252.825,1617.4644 L 5185.2181,1617.4644 L 5015.9661,2016.9224 L 5240.1251,2016.9224 L 5240.1251,2316.3124 C 5449.9021,2213.0584 5700.8921,2288.8122 5827.3951,2490.9544 C 5952.8751,2297.5234 6198.0161,2220.4434 6411.5951,2307.2574 L 6403.0933,2293.5125 L 6764.0953,2293.5125 L 6836.2142,2410.1035 L 6906.6411,2296.2275 C 6907.6856,2294.5355 6909.5342,2293.512 6911.5082,2293.512 L 6911.5082,2293.512 C 6913.5762,2293.512 6915.4876,2294.6295 6916.5007,2296.4468 C 6917.5138,2298.2537 6917.4616,2300.468 6916.3753,2302.2331 L 6842.93,2420.9761 L 6852.3405,2436.1937 L 6938.9145,2296.2277 C 6939.9485,2294.5357 6941.7867,2293.5121 6943.7711,2293.5121 L 6943.7711,2293.5121 C 6945.8496,2293.5121 6947.7609,2294.6297 6948.7636,2296.447 C 6949.7767,2298.2539 6949.7245,2300.4681 6948.6278,2302.2332 L 6859.0667,2447.0562 L 6868.4771,2462.2738 L 6972.8481,2293.5128 L 7333.8391,2293.5128 L 7048.9671,2754.1128 L 7058.3776,2769.3199 L 7358.9686,2283.3189 L 6983.9506,2283.3189 C 6981.8826,2283.3189 6979.9713,2282.1909 6978.9581,2280.384 C 6977.9555,2278.5667 6978.0077,2276.3525 6979.0939,2274.5874 L 6979.0939,2274.5874 C 6980.1384,2272.9162 6981.9766,2271.8822 6983.9506,2271.8822 L 7379.4816,2271.8822 L 7081.2296,2754.1122 L 7360.2316,3205.2182 C 7361.3283,3206.9729 7361.3805,3209.1976 7360.3674,3211.0045 C 7359.3647,3212.8114 7357.4534,3213.9394 7355.3749,3213.9394 C 7353.3905,3213.9394 7351.5523,3212.9158 7350.5183,3211.2238 L 7074.5033,2764.9748 L 7065.0928,2780.1924 L 7333.3688,3213.9394 L 6972.3778,3213.9394 L 6903.4236,3102.4454 L 6836.1405,3211.2244 C 6835.0961,3212.9164 6833.2683,3213.94 6831.2839,3213.94 L 6831.2839,3213.94 C 6830.3439,3213.94 6829.4247,3213.7102 6828.5996,3213.2715 C 6827.7641,3213.7102 6826.845,3213.94 6825.905,3213.94 C 6823.837,3213.94 6821.9256,3212.812 6820.9125,3211.0051 C 6819.8994,3209.1982 6819.9516,3206.9735 6821.0483,3205.2188 L 6894.0132,3087.2388 L 6884.6028,3072.0212 L 6798.5092,3211.2252 C 6797.4647,3212.9172 6795.6265,3213.9408 6793.6421,3213.9408 C 6791.5741,3213.9408 6789.6627,3212.8128 6788.6496,3211.0059 C 6787.6469,3209.199 6787.6887,3206.9744 6788.7749,3205.2197 L 6877.8765,3061.1597 L 6868.4765,3045.9421 L 6764.5645,3213.9411 L 6403.5625,3213.9411 L 6414.1323,3196.854 C 6200.3763,3285.1618 5954.0443,3208.698 5827.8333,3014.88 C 5701.4973,3217.502 5450.1833,3291.647 5240.1243,3188.258 L 5240.1243,3213.9409 L 4933.3923,3213.9409 L 4933.3923,3211.6431 L 4882.7576,3211.6431 L 4904.8789,3274.0695 L 4882.0682,3282.1431 L 4857.0955,3211.6431 L 4759.8577,3211.6431 L 4759.8577,3187.4433 L 4848.5206,3187.4433 L 4667.8626,2677.4513 L 4657.1779,2703.4684 L 4657.1779,3213.9404 L 4457.1149,3213.9404 L 4457.1149,1660.2704 L 4657.1779,1660.2704 L 4657.1779,2356.8104 L 4691.3521,2270.4348 L 4691.3521,1617.4688 L 4413.5611,1617.4688 L 4413.5611,1688.1986 C 4293.0431,1607.1602 4212.2971,1587.8906 4106.3271,1587.8906 C 4022.4269,1587.8906 3838.3121,1649.0533 3740.9701,2013.3246 L 3716.7703,2013.3246 L 3716.77,2013.32 z M 4150.131,3246.59 L 3768.679,3246.6213 L 3768.679,3222.4111 L 4029.174,3222.4111 C 3830.667,3134.26 3744.166,2815.2761 3744.166,2437.1041 C 3744.166,1991.2411 3864.35,1627.5971 4146.664,1627.5971 C 4276.405,1627.5971 4350.111,1694.2431 4413.561,1754.9771 L 4413.561,1794.5929 C 4413.5819,1794.6347 4413.6028,1794.666 4413.6237,1794.6974 L 4413.6028,2130.4444 L 4392.0559,2130.4444 C 4345.2857,2045.2177 4259.2859,1925.5244 4170.4769,1925.5244 C 4022.4579,1925.5244 3949.2319,2154.7804 3951.1019,2437.1034 C 3949.2323,2719.4274 4022.4583,2948.6824 4170.4769,2948.6824 C 4259.286,2948.6824 4345.2859,2828.9894 4392.0559,2743.7624 L 4413.6028,2743.7624 L 4413.6237,3079.5094 C 4413.6028,3079.5407 4413.5819,3079.572 4413.561,3079.6138 L 4413.561,3119.2296 C 4350.6854,3179.4209 4277.71,3245.4196 4150.131,3246.5896 L 4150.131,3246.59 z M 3314.544,1627.6 C 3594.434,1627.6 3713.574,2009.334 3713.574,2437.107 C 3713.574,2864.88 3594.434,3246.625 3314.544,3246.625 C 3034.654,3246.625 2915.504,2882.97 2915.504,2437.107 C 2915.504,1991.244 3034.654,1627.6 3314.544,1627.6 L 3314.544,1627.6 z M 2617.732,1660.2702 L 2253.294,1660.2702 L 2253.294,2562.5342 C 2255.6544,2568.8426 2257.994,2575.1511 2260.3127,2581.4804 C 2276.6791,2576.9997 2293.6514,2575.1824 2310.5923,2576.0911 C 2343.7325,2577.8666 2373.5932,2596.6667 2389.5105,2625.7858 C 2403.8925,2652.1162 2410.7441,2681.8934 2409.3027,2711.848 C 2408.6969,2724.3709 2405.3965,2736.6118 2399.6311,2747.7456 C 2385.4789,2775.0892 2363.6291,2797.7014 2336.7764,2812.7727 C 2345.8631,2843.6047 2354.5424,2874.5411 2362.8144,2905.6029 C 2378.6586,2965.0213 2386.0951,3026.3619 2384.9148,3087.8479 C 2384.6015,3103.7026 2381.1653,3119.3483 2374.7837,3133.8661 C 2368.2455,3148.7494 2356.7984,3160.9381 2342.3433,3168.385 C 2331.8571,3173.7847 2319.6162,3174.6725 2308.4615,3170.8499 C 2297.3068,3167.0272 2288.1784,3158.8283 2283.2068,3148.1332 C 2277.4101,3135.673 2274.5797,3122.0534 2274.9244,3108.3294 C 2275.1228,3100.6005 2278.8515,3093.3834 2285.0555,3088.767 C 2292.8679,3082.939 2302.4664,3080.0145 2312.2006,3080.4741 C 2318.5926,3080.7874 2324.3162,3084.5265 2327.1779,3090.2501 C 2330.0397,3095.9736 2329.5905,3102.7939 2326.0081,3108.0997 C 2321.5797,3114.617 2315.1041,3119.4841 2307.5945,3121.8968 L 2310.1638,3127.5054 C 2311.3754,3130.6805 2314.07,3133.0619 2317.3705,3133.887 C 2320.6709,3134.7017 2324.1698,3133.8557 2326.7183,3131.5997 C 2339.2934,3120.8941 2347.1267,3105.6453 2348.5054,3089.1848 C 2350.3227,3060.8177 2349.7274,3032.3461 2346.7089,3004.0835 C 2337.8729,2943.7146 2324.7129,2884.0455 2307.3438,2825.5565 C 2302.8841,2826.9665 2298.3616,2828.1885 2293.7869,2829.2016 C 2280.418,2832.1782 2266.9029,2834.4969 2253.2938,2836.1471 L 2253.2938,3213.9431 L 2497.1928,3213.9431 L 2497.1928,3264.4733 L 2521.3926,3264.4733 L 2521.3926,3213.9431 L 2573.3537,3213.9431 L 2573.3537,3189.7433 L 2521.3926,3189.7433 L 2521.3926,2644.9613 L 2544.7568,2644.9613 L 2757.6148,3213.9433 L 2991.3718,3213.9433 L 3012.5009,3267.8575 L 3035.0296,3259.032 L 3014.0258,3205.4311 L 3086.9594,3205.4311 L 3086.9594,3181.2313 L 3004.5423,3181.2313 L 2752.8203,2538.7513 C 2845.473,2443.1846 2898.6353,2299.3333 2898.6353,2116.6493 C 2898.6353,1871.7893 2832.3444,1660.2693 2617.7323,1660.2693 L 2617.732,1660.2702 z M 2296.701,2791.4802 C 2282.8099,2797.1933 2268.2086,2801.0369 2253.2939,2802.8751 L 2253.2939,2665.1961 C 2268.313,2706.9321 2282.7263,2748.8665 2296.5548,2791.0101 C 2296.607,2791.1668 2296.6488,2791.313 2296.701,2791.4801 C 2296.701,2791.4801 2296.701,2791.4801 2296.701,2791.4801 C 2296.701,2791.4801 2296.701,2791.4801 2296.701,2791.4801 C 2296.701,2791.4801 2296.701,2791.4801 2296.701,2791.4801 M 2273.859,2618.9801 C 2278.6112,2617.6745 2283.4261,2616.5674 2288.2723,2615.6692 C 2303.469,2612.8388 2319.167,2616.5152 2331.5332,2625.7899 C 2342.7819,2634.2395 2350.8868,2646.2192 2354.5528,2659.8075 C 2362.7204,2690.1068 2360.9448,2722.2235 2349.4768,2751.4366 C 2347.0746,2757.557 2343.1057,2762.9568 2337.967,2767.0824 C 2334.0295,2770.2471 2329.9561,2773.2342 2325.747,2776.0333 C 2309.6208,2723.2993 2292.3143,2670.9313 2273.859,2618.9803 M 2253.2939,2802.8753 C 2249.4713,2803.3453 2245.6381,2803.69 2241.7946,2803.8989 C 2199.8915,2806.1757 2160.9128,2782.3833 2143.7735,2744.0731 C 2113.3593,2676.0693 2108.9413,2599.2711 2131.3446,2528.2281 C 2139.2197,2503.2972 2147.3455,2478.4394 2155.7428,2453.6757 C 2158.0615,2446.8241 2160.4115,2439.9726 2162.7719,2433.1315 C 2185.2692,2486.5653 2206.7743,2540.4165 2227.2768,2594.6545 C 2198.0637,2610.3003 2174.501,2634.7089 2159.8788,2664.4547 C 2157.4662,2669.3636 2158.4166,2675.2751 2162.2393,2679.1814 C 2166.0724,2683.098 2171.9631,2684.1634 2176.9242,2681.8447 C 2181.2377,2678.7427 2185.238,2675.2229 2188.8726,2671.3585 C 2203.641,2654.9712 2221.3444,2641.4769 2241.053,2631.5652 C 2245.1785,2642.7616 2249.2519,2653.9685 2253.2939,2665.1963 L 2253.2939,2562.5383 C 2233.8986,2510.619 2213.3439,2459.1283 2191.6299,2408.1173 C 2188.037,2399.6677 2184.371,2391.2495 2180.6215,2382.8731 C 2185.1439,2370.4755 2189.729,2358.0989 2194.3873,2345.7535 C 2201.0508,2328.1337 2206.1269,2309.9708 2209.584,2291.4528 C 2213.4798,2270.5117 2211.7355,2248.9021 2204.5184,2228.8592 C 2188.0684,2183.1856 2156.38,2144.583 2114.7797,2119.5682 C 2096.481,2108.5493 2075.3728,2103.1182 2054.0348,2103.912 C 2036.1644,2104.5804 2021.7197,2118.7327 2020.6752,2136.5927 C 2019.7248,2152.8025 2023.4848,2168.9391 2031.4852,2183.0705 C 2038.9008,2196.1469 2046.8803,2208.8996 2055.4134,2221.2658 C 2081.7543,2259.4402 2104.5127,2299.9542 2123.4067,2342.3068 C 2127.1145,2350.6415 2130.8118,2358.9761 2134.4778,2367.3317 C 2128.7125,2383.1864 2123.062,2399.0828 2117.5369,2415.021 C 2091.9062,2488.9781 2075.3622,2565.787 2068.3018,2643.744 C 2064.97,2680.5398 2068.2391,2717.628 2077.9629,2753.275 C 2091.3109,2802.1759 2134.7807,2836.7992 2185.4259,2838.8777 C 2208.0799,2839.7968 2230.7757,2838.8881 2253.2939,2836.1517 L 2253.2939,2802.8757 M 2584.6959,1595.5857 L 2207.9339,1595.5857 L 2207.9339,1536.8775 L 2183.7341,1536.8775 L 2183.7341,1595.5857 L 2127.3759,1595.5857 L 2127.3759,1619.7855 L 2183.7341,1619.7855 L 2183.7341,1889.3355 L 2207.9339,1889.3355 L 2207.9339,1619.7855 L 2584.6959,1619.7855 L 2584.6959,1595.5857"
   id="path63"
   style="fill:black" />
   <path
   d="M 7270.24,2328.96 L 6992.595,2328.96 L 6868.473,2529.64 L 6744.341,2328.96 L 6466.686,2328.96 L 6518.762,2413.1422 C 6412.782,2323.1633 6270.863,2287.8712 6135.096,2317.6904 C 5999.318,2347.5197 5885.265,2439.0654 5826.755,2565.1714 C 5774.3239,2447.8494 5675.634,2360.0424 5556.286,2324.5004 C 5436.916,2288.9475 5308.638,2309.1575 5204.674,2379.8977 L 5204.674,2046.8347 L 4968.838,2046.8347 L 4968.838,3172.9747 L 5204.674,3172.9747 L 5204.674,3127.5518 C 5308.816,3198.4174 5437.355,3218.5647 5556.871,3182.7716 C 5676.397,3146.9889 5775.087,3058.7756 5827.278,2941.0976 C 5886.4458,3067.6946 6001.606,3159.1676 6138.303,3188.1506 C 6275,3217.1235 6417.368,3180.2337 6522.794,3088.5315 L 6467.1564,3178.4895 L 6744.8114,3178.4895 L 6868.4734,2978.5615 L 6992.1254,3178.4895 L 7269.7704,3178.4895 L 7007.3014,2754.1105 L 7270.2404,2328.9585 L 7270.24,2328.96 z "
   id="path65"
   style="fill:#c0bdc7" />
   <path
   d="M 5623.92,2752.58 C 5623.92,2636.803 5530.0662,2542.95 5414.3,2542.95 C 5298.534,2542.95 5204.69,2636.8038 5204.69,2752.58 C 5204.69,2868.357 5298.5333,2962.21 5414.3,2962.21 C 5530.066,2962.21 5623.92,2868.3562 5623.92,2752.58 z M 6662.99,2646.329 C 6680.5784,2717.8734 6680.1293,2792.666 6661.6949,2863.991 L 6729.6569,2754.115 L 6662.99,2646.328 M 6440.252,2752.579 C 6440.252,2636.802 6346.3982,2542.949 6230.642,2542.949 C 6114.865,2542.949 6021.022,2636.8028 6021.022,2752.579 C 6021.022,2868.356 6114.8653,2962.209 6230.642,2962.209 C 6346.398,2962.209 6440.252,2868.3552 6440.252,2752.579 z "
   id="path67"
   style="fill:black" />
   <path
   d="M 2453.36,3189.74 L 2497.1953,3189.74 L 2497.1953,2644.958 L 2453.36,2644.958 L 2453.36,3189.74 M 2543.882,2301.565 C 2617.8078,2301.565 2629.3907,2207.8261 2629.3176,2143.499 C 2629.2445,2079.1717 2619.9072,2009.371 2555.3918,2009.371 L 2453.3598,2009.371 L 2453.3598,2364.848 L 2497.1951,2364.848 L 2497.1951,2301.5651 L 2543.8818,2301.5651 L 2543.882,2301.565 z M 2543.882,2325.7648 L 2521.3951,2325.7648 L 2521.3951,2364.8479 L 2522.9513,2364.8479 C 2687.7023,2364.8479 2687.7023,2217.3099 2687.7023,2166.0379 L 2687.7023,2132.9499 C 2687.7023,2083.2552 2687.3681,1946.0879 2548.6343,1946.0879 L 2453.3601,1946.0879 L 2453.3601,1985.171 L 2543.8821,1985.171 C 2590.9657,1985.171 2654.1231,1991.8659 2654.1231,2149.755 C 2654.1231,2307.644 2590.6418,2324.449 2543.8821,2325.765 L 2543.882,2325.7648 z M 2151.536,2321.4512 C 2132.5689,2283.6005 2112.056,2246.5332 2090.0287,2210.3852 C 2083.0309,2198.8859 2076.6911,2187.0001 2071.0616,2174.7801 C 2067.3852,2166.8006 2065.2127,2158.2257 2064.6174,2149.4732 C 2064.5025,2147.5828 2065.1814,2145.7237 2066.4974,2144.3659 C 2067.8029,2143.0081 2069.6412,2142.2666 2071.5212,2142.3397 C 2080.6183,2142.6426 2089.4856,2145.2537 2097.2981,2149.9328 C 2130.877,2170.0175 2154.8052,2202.9175 2163.5681,2241.0501 C 2166.1165,2252.1734 2166.2001,2263.7145 2163.7874,2274.8692 C 2160.4138,2290.5776 2156.3196,2306.119 2151.5361,2321.4514 L 2151.5361,2321.4514 M 6224.9161,2926.6654 L 6236.3528,2926.6654 C 6331.3764,2923.5425 6406.3468,2844.7914 6404.7798,2749.7154 C 6403.2236,2654.6501 6325.7154,2578.3954 6230.6398,2578.3954 C 6135.5536,2578.3954 6058.0458,2654.6503 6056.4888,2749.7154 C 6054.9221,2844.7912 6129.8924,2923.5424 6224.9158,2926.6654 L 6224.9161,2926.6654 z M 5408.5891,2926.6654 L 5420.0153,2926.6654 C 5515.0493,2923.5425 5590.0193,2844.7914 5588.4533,2749.7154 C 5586.8971,2654.6501 5509.3889,2578.3954 5414.3023,2578.3954 C 5319.2265,2578.3954 5241.7183,2654.6503 5240.1623,2749.7154 C 5238.5956,2844.7912 5313.5659,2923.5424 5408.5893,2926.6654 L 5408.5891,2926.6654 z M 4862.5431,2379.0114 L 4933.3982,2562.3014 L 4933.3982,2211.7754 L 4862.5431,2379.0114 M 4874.1991,3187.4424 L 4681.6451,2643.8824 L 4704.226,2588.882 L 4926.724,3187.443 L 4874.1989,3187.443 M 3314.5389,1920.283 C 3449.3249,1920.283 3506.6539,2163.973 3506.6539,2437.105 C 3506.6539,2710.238 3449.3243,2953.927 3314.5389,2953.927 C 3179.7639,2953.927 3122.4339,2721.757 3122.4339,2437.105 C 3122.4339,2152.452 3179.7635,1920.283 3314.5389,1920.283 L 3314.5389,1920.283 z "
   id="path69"
   style="fill:#e9e4ed" />
   <path
   d="M 6224.91,2926.67 C 6228.7222,2926.9416 6232.524,2926.9311 6236.3467,2926.67 L 6236.3467,2910.6587 C 6322.5447,2907.5358 6390.3497,2835.9183 6388.7727,2749.6677 C 6387.1851,2663.4175 6316.7791,2594.3377 6230.5187,2594.4007 C 6228.4507,2594.3589 6226.7378,2595.4451 6225.7038,2597.2311 C 6224.6594,2599.0171 6224.6489,2601.2314 6225.6934,2603.0069 C 6226.7378,2604.7929 6228.4507,2605.8687 6230.5187,2605.8374 C 6283.6391,2605.7956 6332.6337,2634.4656 6358.6097,2680.8076 C 6384.5955,2727.1392 6383.5093,2783.9046 6355.7793,2829.1916 C 6328.0493,2874.4996 6277.9891,2901.2792 6224.9103,2899.2112 L 6224.9103,2926.6696 L 6224.91,2926.67 z M 5414.296,2883.3151 C 5411.1418,2883.3151 5408.5829,2880.7562 5408.5829,2877.602 C 5408.5829,2874.4478 5411.1418,2871.8889 5414.296,2871.8889 C 5480.1796,2871.8889 5533.603,2818.476 5533.603,2752.5819 C 5533.603,2686.6879 5480.1797,2633.2749 5414.296,2633.2749 C 5411.1418,2633.2749 5408.5829,2630.716 5408.5829,2627.5618 C 5408.5829,2624.3971 5411.1418,2621.8382 5414.296,2621.8382 C 5486.4984,2621.8382 5545.029,2680.3689 5545.029,2752.5822 C 5545.029,2824.7846 5486.4983,2883.3152 5414.296,2883.3152 L 5414.296,2883.3151 z M 6230.634,2883.3151 C 6227.4693,2883.3151 6224.9104,2880.7562 6224.9104,2877.602 C 6224.9104,2874.4478 6227.4693,2871.8889 6230.634,2871.8889 C 6296.5176,2871.8889 6349.93,2818.476 6349.93,2752.5819 C 6349.93,2686.6879 6296.5171,2633.2749 6230.634,2633.2749 C 6227.4693,2633.2749 6224.9104,2630.716 6224.9104,2627.5618 C 6224.9104,2624.3971 6227.4693,2621.8382 6230.634,2621.8382 C 6302.826,2621.8382 6361.357,2680.3689 6361.357,2752.5822 C 6361.357,2824.7846 6302.8263,2883.3152 6230.634,2883.3152 L 6230.634,2883.3151 z M 5408.583,2926.67 C 5412.3848,2926.858 5416.197,2926.8058 5420.0092,2926.67 L 5420.0092,2910.6587 C 5506.2176,2907.5358 5574.0232,2835.9183 5572.4462,2749.6677 C 5570.8586,2663.4175 5500.4526,2594.3377 5414.1922,2594.4007 C 5412.1242,2594.3589 5410.4113,2595.4451 5409.3669,2597.2311 C 5408.3224,2599.0171 5408.3224,2601.2314 5409.3669,2603.0069 C 5410.4009,2604.7929 5412.1242,2605.8687 5414.1922,2605.8374 C 5467.3126,2605.7956 5516.3072,2634.4656 5542.2832,2680.8076 C 5568.269,2727.1392 5567.1723,2783.9046 5539.4528,2829.1916 C 5511.7228,2874.4996 5461.6626,2901.2792 5408.5838,2899.2112 L 5408.5838,2926.6696 L 5408.583,2926.67 z M 3314.543,2881.2053 L 3314.543,2821.4317 L 3290.3328,2821.4317 L 3290.3328,2885.0801 L 3290.3328,2909.2799 C 3421.1498,2909.2799 3459.5428,2687.1269 3460.4518,2449.2019 L 4010.9998,2449.2019 C 4012.3054,2616.6999 4049.0385,2873.0479 4158.3818,2890.7299 L 4158.3818,2953.9292 L 4182.5711,2953.9292 L 4182.5711,2449.2012 L 4278.9107,2449.2012 L 4278.9107,2425.0014 L 4182.5711,2425.0014 L 4182.5711,2337.6963 L 4158.3818,2337.6963 L 4158.3818,2425.0014 L 4035.2838,2425.0014 C 4037.9054,2258.9974 4084.2787,2016.2894 4170.4768,2012.3514 L 4170.4768,1988.1516 C 4057.4158,1992.5278 4013.4658,2251.5816 4011.0738,2425.0006 L 3460.4118,2425.0006 C 3458.8451,2188.1936 3420.608,1967.8576 3290.3348,1967.8576 L 3290.3348,1991.086 L 3290.3348,2425 L 3216.3881,2425 L 3216.3881,2449.1998 L 3290.3348,2449.1998 L 3290.3348,2533.7162 L 3314.545,2533.7162 L 3314.545,2449.1998 L 3436.212,2449.1998 C 3435.0109,2601.4898 3415.814,2847.5818 3314.545,2881.2028 L 3314.543,2881.2053 z "
   id="path71"
   style="fill:black" />
   <path
   d="M 4035.21,2449.2 C 4036.7662,2607.768 4076.9147,2844.491 4158.381,2865.996 L 4158.381,2449.2 L 4035.21,2449.2 L 4035.21,2449.2 z M 3436.252,2425.0002 L 3314.543,2425.0002 L 3314.543,1994.9922 C 3415.301,2028.4875 3435.531,2272.4382 3436.252,2425.0002 z "
   id="path73"
   style="fill:#e9e4ed" />
  </g><path
     d="M 8429.864,10657.909 C 8422.4276,10657.909 8416.3907,10663.935 8416.3907,10671.372 L 8416.3907,10753.591 C 8416.3907,10758.426 8413.79,10762.897 8409.5914,10765.299 C 8405.3823,10767.691 8400.2123,10767.649 8396.045,10765.173 L 8235.712,10669.983 C 8231.5446,10667.518 8226.3746,10667.476 8222.176,10669.857 C 8217.9669,10672.26 8215.3662,10676.73 8215.3662,10681.566 L 8215.3662,10753.591 C 8215.3662,10758.426 8212.7655,10762.897 8208.5669,10765.299 C 8204.3473,10767.691 8199.1878,10767.649 8195.0309,10765.173 L 8034.6879,10669.983 C 8030.5205,10667.518 8025.3505,10667.476 8021.1519,10669.857 C 8016.9323,10672.26 8014.3421,10676.73 8014.3421,10681.566 L 8014.3421,10872.929 C 8014.3421,10877.775 8016.9323,10882.235 8021.1519,10884.637 C 8025.3505,10887.029 8030.5205,10886.976 8034.6879,10884.511 L 8195.0309,10789.321 C 8199.1878,10786.856 8204.3473,10786.804 8208.5669,10789.206 C 8212.7655,10791.598 8215.3662,10796.068 8215.3662,10800.904 L 8215.3662,10872.929 C 8215.3662,10877.775 8217.9669,10882.235 8222.176,10884.637 C 8226.3746,10887.029 8231.5446,10886.976 8235.712,10884.511 L 8396.045,10789.321 C 8400.2123,10786.856 8405.3823,10786.804 8409.5914,10789.206 C 8413.79,10791.598 8416.3907,10796.068 8416.3907,10800.904 L 8416.3907,10883.122 C 8416.3907,10890.559 8422.4276,10896.585 8429.864,10896.585 L 8464.0696,10896.585 C 8471.5165,10896.585 8477.5325,10890.559 8477.5325,10883.122 L 8477.5325,10671.371 C 8477.5325,10663.935 8471.5165,10657.908 8464.0696,10657.908 L 8429.864,10657.908"
     id="path75"
     style="fill:#acb4bb" /><path
     d="M 985.98399,10657.909 C 993.42043,10657.909 999.45729,10663.935 999.45729,10671.372 L 999.45729,10753.591 C 999.45729,10758.426 1002.058,10762.897 1006.2566,10765.299 C 1010.4657,10767.691 1015.6357,10767.649 1019.803,10765.173 L 1180.136,10669.983 C 1184.3034,10667.518 1189.4734,10667.476 1193.672,10669.857 C 1197.8811,10672.26 1200.4818,10676.73 1200.4818,10681.566 L 1200.4818,10753.591 C 1200.4818,10758.426 1203.0825,10762.897 1207.2811,10765.299 C 1211.5007,10767.691 1216.6603,10767.649 1220.8171,10765.173 L 1381.1601,10669.983 C 1385.3275,10667.518 1390.4975,10667.476 1394.6961,10669.857 C 1398.9157,10672.26 1401.5059,10676.73 1401.5059,10681.566 L 1401.5059,10872.929 C 1401.5059,10877.775 1398.9157,10882.235 1394.6961,10884.637 C 1390.4975,10887.029 1385.3275,10886.976 1381.1601,10884.511 L 1220.8171,10789.321 C 1216.6603,10786.856 1211.5007,10786.804 1207.2811,10789.206 C 1203.0825,10791.598 1200.4818,10796.068 1200.4818,10800.904 L 1200.4818,10872.929 C 1200.4818,10877.775 1197.8811,10882.235 1193.672,10884.637 C 1189.4734,10887.029 1184.3034,10886.976 1180.136,10884.511 L 1019.803,10789.321 C 1015.6357,10786.856 1010.4657,10786.804 1006.2566,10789.206 C 1002.0579,10791.598 999.45729,10796.068 999.45729,10800.904 L 999.45729,10883.122 C 999.45729,10890.559 993.4204,10896.585 985.98399,10896.585 L 951.77839,10896.585 C 944.3315,10896.585 938.31549,10890.559 938.31549,10883.122 L 938.31549,10671.371 C 938.31549,10663.935 944.33149,10657.908 951.77839,10657.908 L 985.98399,10657.908"
     id="path77"
     style="fill:#acb4bb" /><g
     transform="translate(7.923989,4.008866)"
     id="g79">
   <path
   d="M 4833.79,14455.5 C 4841.2264,14455.5 4847.2633,14449.474 4847.2633,14442.037 L 4847.2633,14230.286 C 4847.2633,14222.85 4841.2264,14216.823 4833.79,14216.823 L 4799.5844,14216.823 C 4792.148,14216.823 4786.1215,14222.85 4786.1215,14230.286 L 4786.1215,14442.037 C 4786.1215,14449.474 4792.1479,14455.5 4799.5844,14455.5 L 4833.79,14455.5"
   id="path81"
   style="fill:#acb4bb" />
   <path
   d="M 4976.91,14455.5 C 4984.3464,14455.5 4990.3729,14449.474 4990.3729,14442.037 L 4990.3729,14230.286 C 4990.3729,14222.85 4984.3465,14216.823 4976.91,14216.823 L 4942.7044,14216.823 C 4935.268,14216.823 4929.2311,14222.85 4929.2311,14230.286 L 4929.2311,14442.037 C 4929.2311,14449.474 4935.268,14455.5 4942.7044,14455.5 L 4976.91,14455.5"
   id="path83"
   style="fill:#acb4bb" />
   <path
   d="M 4429.97,14228.9 L 4616.633,14324.174 C 4621.1346,14326.472 4623.9754,14331.099 4623.9754,14336.164 C 4623.9754,14341.23 4621.1345,14345.857 4616.633,14348.165 L 4429.97,14443.429 C 4425.7922,14445.894 4420.6327,14445.946 4416.4236,14443.554 C 4412.2145,14441.162 4409.6243,14436.692 4409.6243,14431.846 L 4409.6243,14240.483 C 4409.6243,14235.647 4412.2145,14231.177 4416.4236,14228.775 C 4420.6327,14226.394 4425.7923,14226.435 4429.97,14228.9"
   id="path85"
   style="fill:#acb4bb" />
  </g><path
     d="M 6905.064,8610.1889 L 7514.362,8000.8909"
     id="path99"
     style="fill:none;stroke:black;stroke-width:18.79999924;stroke-linejoin:bevel" /><path
     d="M 1901.494,13613.709 L 2510.781,13004.422"
     id="path101"
     style="fill:none;stroke:black;stroke-width:18.79999924;stroke-linejoin:bevel" /><path
     d="M 2510.784,8610.1889 L 1901.486,8000.8909"
     id="path103"
     style="fill:none;stroke:black;stroke-width:18.79999924;stroke-linejoin:bevel" /><path
     d="M 7514.354,13613.709 L 6905.067,13004.422"
     id="path105"
     style="fill:none;stroke:black;stroke-width:18.79999924;stroke-linejoin:bevel" /><path
     d="M 4491.294,7413.2389 L 4450.4562,7418.9416 L 4426.9875,7288.3966 C 4423.9482,7271.4975 4419.1019,7259.9042 4412.4697,7253.6479 C 4405.8061,7247.2768 4396.051,7245.0521 4383.0581,7246.859 C 4363.3912,7249.6059 4346.0325,7263.1314 4330.9403,7287.3208 L 4356.947,7431.9868 L 4316.0988,7437.6894 L 4292.6301,7307.1444 C 4289.6325,7290.4437 4284.8072,7278.8504 4278.0288,7272.5106 C 4271.2295,7266.1604 4261.3386,7263.8418 4248.3561,7265.6591 C 4228.4594,7268.4373 4211.2052,7281.942 4196.5934,7306.0791 L 4222.5896,7450.7351 L 4181.7518,7456.4378 L 4145.4365,7254.3378 L 4186.2743,7248.6351 L 4190.943,7274.6209 C 4206.0457,7251.9042 4225.535,7238.8173 4249.2857,7235.5065 C 4282.875,7230.8169 4306.4586,7239.9036 4320.1721,7262.7247 C 4326.5536,7253.5858 4332.4234,7246.212 4338.0008,7240.4676 C 4343.5677,7234.7231 4348.7481,7230.1903 4353.8032,7226.9525 C 4358.8478,7223.7043 4363.7045,7221.3334 4368.4985,7219.9338 C 4373.282,7218.5238 4378.3685,7217.4898 4383.6325,7216.7587 C 4430.6847,7210.1891 4458.6341,7231.5585 4467.5223,7280.9503 L 4491.2939,7413.2393 L 4491.294,7413.2389 z M 4646.488,7423.9967 C 4629.6724,7424.5189 4614.1729,7422.5971 4600.0102,7418.2209 C 4585.9624,7413.8447 4573.8573,7407.3273 4563.5382,7398.554 C 4553.2504,7389.7807 4545.1038,7378.8558 4539.1295,7365.7793 C 4533.1553,7352.6924 4529.8235,7337.6524 4529.1446,7320.5444 C 4528.4866,7303.7393 4530.5024,7288.7411 4535.2964,7275.3304 C 4540.1113,7261.9093 4547.13,7250.4204 4556.3524,7241.0413 C 4565.5853,7231.5578 4576.7922,7224.2257 4589.7537,7219.0244 C 4602.6944,7213.8126 4617.1704,7210.9613 4633.1608,7210.4704 C 4649.851,7209.9586 4664.985,7211.9013 4678.5524,7216.288 C 4692.1406,7220.6747 4703.8802,7227.2024 4713.7188,7235.9967 C 4723.5575,7244.7805 4731.3386,7255.7158 4736.9577,7268.8131 C 4742.5768,7281.9 4745.6579,7296.846 4746.3368,7313.7555 L 4746.6815,7322.6228 L 4572.1335,7327.9913 C 4573.5539,7339.9606 4576.3426,7350.3215 4580.7084,7358.9591 C 4584.9592,7367.5966 4590.3381,7374.7511 4596.8451,7380.2971 C 4603.2371,7385.7491 4610.6109,7389.6866 4619.0187,7392.1411 C 4627.2907,7394.5015 4636.0954,7395.5877 4645.3491,7395.3057 C 4652.3259,7395.0968 4659.1671,7394.1464 4665.7367,7392.3813 C 4672.4315,7390.6057 4678.3849,7388.12 4683.5654,7384.7255 C 4688.7771,7381.4355 4692.8922,7377.4457 4696.1405,7372.6413 C 4699.2738,7367.8473 4700.9553,7362.364 4701.1851,7356.1913 L 4743.4538,7354.8962 C 4742.2214,7365.7898 4738.9209,7375.3986 4733.448,7383.8169 C 4727.9856,7392.2456 4721.0296,7399.3582 4712.4756,7405.1549 C 4703.8276,7410.9516 4693.9263,7415.4322 4682.5418,7418.6073 C 4671.2931,7421.772 4659.2611,7423.6102 4646.4876,7423.9966 L 4646.488,7423.9967 z M 4702.1987,7295.2587 C 4697.9791,7275.5396 4689.9474,7261.0636 4678.0616,7251.7054 C 4666.1967,7242.3681 4651.5536,7238.0127 4634.2576,7238.5454 C 4626.09,7238.7961 4618.57,7240.1747 4611.5514,7242.7963 C 4604.6581,7245.303 4598.4123,7249.0525 4592.9185,7254.0136 C 4587.4143,7258.9956 4582.9232,7265.2936 4579.1841,7272.8345 C 4575.5703,7280.4589 4573.2099,7289.2009 4571.9461,7299.2694 L 4702.1991,7295.2587 L 4702.1987,7295.2587 z M 4855.7947,7238.4305 C 4878.104,7219.7141 4902.0218,7211.2854 4927.6316,7213.2594 C 4979.9269,7217.291 5003.6567,7244.1645 4998.7165,7293.9845 L 4985.4625,7427.4125 L 4943.9249,7424.2061 L 4957.0013,7292.5431 C 4958.6515,7275.9155 4956.5209,7263.6955 4950.5257,7255.7995 C 4944.5306,7247.9975 4933.919,7243.5064 4918.4613,7242.3157 C 4897.4471,7240.6968 4875.5764,7250.0132 4852.6404,7270.1501 L 4838.154,7416.0591 L 4796.9611,7412.8839 L 4817.2129,7209.0399 L 4858.3953,7212.2151 L 4855.7947,7238.4307 L 4855.7947,7238.4305 z M 5195.6047,7428.1955 C 5171.5929,7445.6691 5147.0694,7452.6146 5121.9087,7449.0948 C 5070.0625,7441.8672 5048.5469,7413.3852 5057.4978,7363.5861 L 5081.2798,7231.2971 L 5122.1176,7236.9893 L 5098.5967,7367.8373 C 5095.6096,7384.4335 5096.7585,7396.758 5102.1583,7404.8106 C 5107.5476,7412.8424 5117.7832,7417.9706 5133.1261,7420.1117 C 5155.707,7423.2659 5178.4759,7415.349 5201.3074,7396.4446 L 5227.3245,7251.6746 L 5267.8281,7257.3251 L 5231.4919,7459.4251 L 5191.0092,7453.7746 L 5195.6047,7428.1962 L 5195.6047,7428.1955 z "
     id="path107"
     style="fill:#acb4bb;stroke:#acb4bb;stroke-width:7.95867014" /><path
     d="M 3367.644,51.927966 L 3181.211,51.927966 L 3181.211,167.92397 L 3367.644,168.97886 L 3367.644,51.927856 L 3367.644,51.927966 z "
     id="path109"
     style="fill:url(#linearGradient1997);stroke:black;stroke-width:18.79999924;stroke-linejoin:bevel" /><path
     d="M 7286.364,59.468866 L 7286.364,117.21617 L 8177.797,113.68595 L 8177.797,167.92395 L 6208.477,167.92395 L 6208.477,113.68595 L 7099.921,117.21617 L 7099.921,59.468866 L 7286.365,59.468866 L 7286.364,59.468866 z "
     id="path111"
     style="fill:url(#linearGradient1994);stroke:black;stroke-width:17.63019943;stroke-linejoin:bevel" /><path
     d="M 5773.444,10807.009 C 5773.444,10218.538 5296.394,9741.4789 4707.914,9741.4789 C 4119.432,9741.4789 3642.384,10218.539 3642.384,10807.009 C 3642.384,11395.491 4119.434,11872.549 4707.914,11872.549 C 5296.396,11872.549 5773.444,11395.489 5773.444,10807.009 z "
     id="path113"
     style="fill:url(#radialGradient1991);stroke:black;stroke-width:17.63019943;stroke-linejoin:bevel" /></g><g
   id="Haupt_x0020_Desktop"
   transform="translate(52.31615,-38.51899)">
 </g>
<g
   style="fill-rule:evenodd"
   id="g2315"
   transform="translate(16086.23,495.3455)">
 </g>







<g
   inkscape:groupmode="layer"
   id="layer1"
   inkscape:label="Text"
   style="opacity:1;display:inline"><path
     transform="translate(5.844972e-6,0)"
     inkscape:export-ydpi="72"
     inkscape:export-xdpi="72"
     inkscape:export-filename="/home/martin/src/dev/pics/pixelma/two/ipodcolor-front.png"
     id="path1503"
     d="M 1083.9927,11168.798 L -827.71728,11168.798"
     style="fill:none;fill-opacity:0.75;fill-rule:evenodd;stroke:black;stroke-width:25.81987572;stroke-linecap:butt;stroke-linejoin:miter;stroke-miterlimit:4;stroke-dasharray:none;stroke-opacity:1" /><path
     transform="translate(5.844972e-6,0)"
     inkscape:export-ydpi="72"
     inkscape:export-xdpi="72"
     inkscape:export-filename="/home/martin/src/dev/pics/pixelma/two/ipodcolor-front.png"
     id="path1505"
     d="M 2801.7884,9211.5626 L -627.61224,7923.5161"
     style="fill:none;fill-opacity:0.75;fill-rule:evenodd;stroke:black;stroke-width:29.37065887;stroke-linecap:butt;stroke-linejoin:miter;stroke-miterlimit:4;stroke-dasharray:none;stroke-opacity:1" /><path
     transform="translate(5.844972e-6,0)"
     inkscape:export-ydpi="72"
     inkscape:export-xdpi="72"
     inkscape:export-filename="/home/martin/src/dev/pics/pixelma/two/ipodcolor-front.png"
     id="path1507"
     d="M 5891.169,7584.9838 L 9997.9079,5950.3384"
     style="fill:none;fill-opacity:0.75;fill-rule:evenodd;stroke:black;stroke-width:29.37065887;stroke-linecap:butt;stroke-linejoin:miter;stroke-miterlimit:4;stroke-dasharray:none;stroke-opacity:1"
     sodipodi:nodetypes="cc" /><path
     transform="translate(5.844972e-6,0)"
     inkscape:export-ydpi="72"
     inkscape:export-xdpi="72"
     inkscape:export-filename="/home/martin/src/dev/pics/pixelma/two/ipodcolor-front.png"
     id="path1509"
     d="M 6737.1663,9238.9678 L 10166.567,8224.9738"
     style="fill:none;fill-opacity:0.75;fill-rule:evenodd;stroke:black;stroke-width:29.37065887;stroke-linecap:butt;stroke-linejoin:miter;stroke-miterlimit:4;stroke-dasharray:none;stroke-opacity:1" /><path
     transform="translate(5.844972e-6,0)"
     inkscape:export-ydpi="72"
     inkscape:export-xdpi="72"
     inkscape:export-filename="/home/martin/src/dev/pics/pixelma/two/ipodcolor-front.png"
     id="path1511"
     d="M 8177.1078,11141.393 L 10084.367,11141.393"
     style="fill:none;fill-opacity:0.75;fill-rule:evenodd;stroke:black;stroke-width:27.15761185;stroke-linecap:butt;stroke-linejoin:miter;stroke-miterlimit:4;stroke-dasharray:none;stroke-opacity:1"
     sodipodi:nodetypes="cc" /><path
     transform="translate(5.844972e-6,0)"
     inkscape:export-ydpi="72"
     inkscape:export-xdpi="72"
     inkscape:export-filename="/home/martin/src/dev/pics/pixelma/two/ipodcolor-front.png"
     id="path2388"
     d="M 3133.6428,14029.645 C 2993.0935,14057.05 -852.49098,15405.149 -852.49098,15405.149"
     style="fill:none;fill-opacity:0.75;fill-rule:evenodd;stroke:black;stroke-width:29.37065887;stroke-linecap:butt;stroke-linejoin:miter;stroke-miterlimit:4;stroke-dasharray:none;stroke-opacity:1"
     sodipodi:nodetypes="cc" /><path
     transform="translate(5.844972e-6,0)"
     inkscape:export-ydpi="72"
     inkscape:export-xdpi="72"
     inkscape:export-filename="/home/martin/src/dev/pics/pixelma/two/ipodcolor-front.png"
     id="path2390"
     d="M 5008.8663,10975.575 L 10222.787,15213.311"
     style="fill:none;fill-opacity:0.75;fill-rule:evenodd;stroke:black;stroke-width:29.37065887;stroke-linecap:butt;stroke-linejoin:miter;stroke-miterlimit:4;stroke-dasharray:none;stroke-opacity:1"
     sodipodi:nodetypes="cc" /><text
     inkscape:export-ydpi="72"
     inkscape:export-xdpi="72"
     inkscape:export-filename="/home/martin/src/dev/pics/pixelma/two/ipodcolor-front.png"
     sodipodi:linespacing="100%"
     id="text2392"
     y="8274.5488"
     x="-4711.4819"
     style="font-size:822.45373535px;font-style:normal;font-variant:normal;font-weight:normal;font-stretch:normal;text-indent:0;text-align:start;text-decoration:none;line-height:100%;letter-spacing:normal;word-spacing:normal;text-transform:none;direction:ltr;block-progression:tb;writing-mode:lr-tb;text-anchor:start;opacity:1;color:black;fill:black;fill-opacity:1;fill-rule:evenodd;stroke:none;stroke-width:1.00000012px;stroke-linecap:butt;stroke-linejoin:miter;marker:none;marker-start:none;marker-mid:none;marker-end:none;stroke-miterlimit:4;stroke-dasharray:none;stroke-dashoffset:0;stroke-opacity:1;visibility:visible;display:inline;overflow:visible;font-family:Palatino Linotype"
     xml:space="preserve"
     transform="scale(1.012774,0.987388)"><tspan
       y="8274.5488"
       x="-4711.4819"
       id="tspan2394"
       sodipodi:role="line">Scroll Back</tspan></text>
<text
     inkscape:export-ydpi="72"
     inkscape:export-xdpi="72"
     inkscape:export-filename="/home/martin/src/dev/pics/pixelma/two/ipodcolor-front.png"
     sodipodi:linespacing="100%"
     id="text2396"
     y="11501.291"
     x="-4711.4819"
     style="font-size:822.45410156px;font-style:normal;font-variant:normal;font-weight:normal;font-stretch:normal;text-indent:0;text-align:start;text-decoration:none;line-height:100%;letter-spacing:normal;word-spacing:normal;text-transform:none;direction:ltr;block-progression:tb;writing-mode:lr-tb;text-anchor:start;opacity:1;color:black;fill:black;fill-opacity:1;fill-rule:evenodd;stroke:none;stroke-width:1.00000012px;stroke-linecap:butt;stroke-linejoin:miter;marker:none;marker-start:none;marker-mid:none;marker-end:none;stroke-miterlimit:4;stroke-dasharray:none;stroke-dashoffset:0;stroke-opacity:1;visibility:visible;display:inline;overflow:visible;font-family:Palatino Linotype"
     xml:space="preserve"
     transform="scale(1.012774,0.987388)"><tspan
       y="11501.291"
       x="-4711.4819"
       id="tspan2398"
       sodipodi:role="line">Prev</tspan></text>
<text
     inkscape:export-ydpi="72"
     inkscape:export-xdpi="72"
     inkscape:export-filename="/home/martin/src/dev/pics/pixelma/two/ipodcolor-front.png"
     sodipodi:linespacing="100%"
     id="text2400"
     y="15819.46"
     x="-4711.4741"
     style="font-size:822.45227051px;font-style:normal;font-variant:normal;font-weight:normal;font-stretch:normal;text-indent:0;text-align:start;text-decoration:none;line-height:100%;letter-spacing:normal;word-spacing:normal;text-transform:none;direction:ltr;block-progression:tb;writing-mode:lr-tb;text-anchor:start;opacity:1;color:black;fill:black;fill-opacity:1;fill-rule:evenodd;stroke:none;stroke-width:1.00000012px;stroke-linecap:butt;stroke-linejoin:miter;marker:none;marker-start:none;marker-mid:none;marker-end:none;stroke-miterlimit:4;stroke-dasharray:none;stroke-dashoffset:0;stroke-opacity:1;visibility:visible;display:inline;overflow:visible;font-family:Palatino Linotype"
     xml:space="preserve"
     transform="scale(1.012774,0.987388)"><tspan
       y="15819.46"
       x="-4711.4741"
       id="tspan2402"
       sodipodi:role="line">Play</tspan></text>
<text
     inkscape:export-ydpi="72"
     inkscape:export-xdpi="72"
     inkscape:export-filename="/home/martin/src/dev/pics/pixelma/two/ipodcolor-front.png"
     sodipodi:linespacing="100%"
     id="text2404"
     y="15680.696"
     x="10164.899"
     style="font-size:822.45300293px;font-style:normal;font-variant:normal;font-weight:normal;font-stretch:normal;text-align:start;line-height:100%;writing-mode:lr-tb;text-anchor:start;fill:black;fill-opacity:1;fill-rule:evenodd;stroke:none;stroke-width:1px;stroke-linecap:butt;stroke-linejoin:miter;stroke-opacity:1;font-family:Palatino Linotype"
     xml:space="preserve"
     transform="scale(1.012774,0.987388)"><tspan
       y="15680.696"
       x="10164.899"
       id="tspan2406"
       sodipodi:role="line">Select</tspan></text>
<text
     inkscape:export-ydpi="72"
     inkscape:export-xdpi="72"
     inkscape:export-filename="/home/martin/src/dev/pics/pixelma/two/ipodcolor-front.png"
     sodipodi:linespacing="100%"
     id="text2408"
     y="11529.036"
     x="10164.899"
     style="font-size:822.45336914px;font-style:normal;font-variant:normal;font-weight:normal;font-stretch:normal;text-indent:0;text-align:start;text-decoration:none;line-height:100%;letter-spacing:normal;word-spacing:normal;text-transform:none;direction:ltr;block-progression:tb;writing-mode:lr-tb;text-anchor:start;opacity:1;color:black;fill:black;fill-opacity:1;fill-rule:evenodd;stroke:none;stroke-width:1.00000012px;stroke-linecap:butt;stroke-linejoin:miter;marker:none;marker-start:none;marker-mid:none;marker-end:none;stroke-miterlimit:4;stroke-dasharray:none;stroke-dashoffset:0;stroke-opacity:1;visibility:visible;display:inline;overflow:visible;font-family:Palatino Linotype"
     xml:space="preserve"
     transform="scale(1.012774,0.987388)"><tspan
       y="11529.036"
       x="10164.899"
       id="tspan2410"
       sodipodi:role="line">Next</tspan></text>
<text
     inkscape:export-ydpi="72"
     inkscape:export-xdpi="72"
     inkscape:export-filename="/home/martin/src/dev/pics/pixelma/two/ipodcolor-front.png"
     sodipodi:linespacing="100%"
     id="text2412"
     y="8547.5752"
     x="10164.899"
     style="font-size:822.45336914px;font-style:normal;font-variant:normal;font-weight:normal;font-stretch:normal;text-indent:0;text-align:start;text-decoration:none;line-height:100%;letter-spacing:normal;word-spacing:normal;text-transform:none;direction:ltr;block-progression:tb;writing-mode:lr-tb;text-anchor:start;opacity:1;color:black;fill:black;fill-opacity:1;fill-rule:evenodd;stroke:none;stroke-width:1.00000012px;stroke-linecap:butt;stroke-linejoin:miter;marker:none;marker-start:none;marker-mid:none;marker-end:none;stroke-miterlimit:4;stroke-dasharray:none;stroke-dashoffset:0;stroke-opacity:1;visibility:visible;display:inline;overflow:visible;font-family:Palatino Linotype"
     xml:space="preserve"
     transform="scale(1.012774,0.987388)"><tspan
       y="8547.5752"
       x="10164.899"
       id="tspan2414"
       sodipodi:role="line">Scroll Fwd</tspan></text>
<text
     inkscape:export-ydpi="72"
     inkscape:export-xdpi="72"
     inkscape:export-filename="/home/martin/src/dev/pics/pixelma/two/ipodcolor-front.png"
     sodipodi:linespacing="100%"
     id="text2416"
     y="6243.8765"
     x="10164.899"
     style="font-size:822.45300293px;font-style:normal;font-variant:normal;font-weight:normal;font-stretch:normal;text-indent:0;text-align:start;text-decoration:none;line-height:100%;letter-spacing:normal;word-spacing:normal;text-transform:none;direction:ltr;block-progression:tb;writing-mode:lr-tb;text-anchor:start;opacity:1;color:black;fill:black;fill-opacity:1;fill-rule:evenodd;stroke:none;stroke-width:1.00000012px;stroke-linecap:butt;stroke-linejoin:miter;marker:none;marker-start:none;marker-mid:none;marker-end:none;stroke-miterlimit:4;stroke-dasharray:none;stroke-dashoffset:0;stroke-opacity:1;visibility:visible;display:inline;overflow:visible;font-family:Palatino Linotype"
     xml:space="preserve"
     transform="scale(1.012774,0.987388)"><tspan
       y="6243.8765"
       x="10164.899"
       id="tspan2418"
       sodipodi:role="line">Menu</tspan></text>
<text
     inkscape:export-ydpi="72"
     inkscape:export-xdpi="72"
     inkscape:export-filename="/home/martin/src/dev/pics/pixelma/two/ipodcolor-front.png"
     sodipodi:linespacing="100%"
     id="text2420"
     y="-135.347"
     x="6287.9888"
     style="font-size:822.45153821px;font-style:normal;font-variant:normal;font-weight:normal;font-stretch:normal;text-align:start;line-height:100%;writing-mode:lr-tb;text-anchor:start;fill:black;fill-opacity:1;fill-rule:evenodd;stroke:none;stroke-width:1.0000001px;stroke-linecap:butt;stroke-linejoin:miter;stroke-opacity:1;font-family:Palatino Linotype;text-indent:0;text-decoration:none;letter-spacing:normal;word-spacing:normal;text-transform:none;direction:ltr;block-progression:tb;opacity:1;color:black;marker:none;marker-start:none;marker-mid:none;marker-end:none;stroke-miterlimit:4;stroke-dasharray:none;stroke-dashoffset:0;visibility:visible;display:inline;overflow:visible"
     xml:space="preserve"
     transform="matrix(1.012774,0,0,0.987388,5.844972e-6,0)"><tspan
       y="-135.347"
       x="6287.9888"
       id="tspan2422"
       sodipodi:role="line">Hold</tspan></text>
<g
     id="g87"
     transform="translate(7.92399,4.008857)">
   <path
   style="fill:black"
   id="path89"
   d="M 2421.74,10220.5 L 2393.8847,9939.022 L 2393.8847,9939.022 L 2399.5038,9944.3382 L 2405.196,9949.4456 L 2410.9509,9954.344 L 2416.7685,9959.044 L 2422.6591,9963.5247 L 2428.602,9967.8069 L 2434.618,9971.8698 L 2440.7071,9975.7342 L 2446.8485,9979.3898 L 2453.0629,9982.8364 L 2459.34,9986.0847 L 2465.6902,9989.1136 L 2472.1031,9991.944 L 2478.5787,9994.5551 L 2485.1169,9996.9678 L 2491.7282,9999.1715 L 2498.3918,10001.166 L 2505.1389,10002.952 L 2511.9382,10004.54 L 2518.8107,10005.908 L 2525.7458,10007.078 L 2532.7436,10008.039 L 2539.8145,10008.791 L 2546.9376,10009.334 L 2554.1338,10009.668 L 2561.4031,10009.794 L 2568.7351,10009.71 L 2576.1298,10009.428 L 2583.5871,10008.937 L 2591.1071,10008.227 L 2598.7002,10007.318 L 2606.356,10006.201 L 2421.74,10220.5 L 2421.74,10220.5 L 2421.74,10220.5 z " />
   <path
   style="fill:black"
   id="path91"
   d="M 3764.01,8642.37 L 3706.1373,8668.3662 L 3649.1211,8695.8769 L 3592.9718,8724.902 L 3537.7207,8755.3267 L 3483.3678,8787.1614 L 3429.9549,8820.4374 L 3377.5342,8855.0816 L 3326.064,8891.0627 L 3275.6487,8928.3598 L 3226.2256,8966.952 L 3177.9096,9006.8184 L 3130.6798,9047.9486 L 3084.5467,9090.2695 L 3039.5729,9133.8228 L 2995.748,9178.525 L 2953.1347,9224.3866 L 2911.7225,9271.3657 L 2871.5636,9319.431 L 2832.6685,9368.5721 L 2795.0581,9418.789 L 2758.7741,9469.9772 L 2723.8165,9522.1994 L 2690.2167,9575.3825 L 2658.0478,9629.5265 L 2627.2576,9684.5792 L 2597.9296,9740.5196 L 2570.0743,9797.3269 L 2543.7021,9854.9802 L 2518.8757,9913.49 L 2495.5637,9972.7413 L 2473.8288,10032.818 L 2453.6606,10093.584 L 2468.5962,10098.304 L 2488.5764,10037.894 L 2510.186,9978.2559 L 2533.31,9919.3597 L 2558.032,9861.2886 L 2584.2162,9803.9904 L 2611.8835,9747.5591 L 2641.0235,9691.9738 L 2671.5631,9637.2971 L 2703.5649,9583.5291 L 2736.914,9530.7011 L 2771.6209,9478.8549 L 2807.6751,9427.9591 L 2845.0349,9378.1182 L 2883.6793,9329.2904 L 2923.5875,9281.5175 L 2964.7073,9234.8517 L 3007.07,9189.3035 L 3050.5816,9144.8937 L 3095.2629,9101.6537 L 3141.0827,9059.5835 L 3187.9991,9018.7457 L 3236.0227,8979.1299 L 3285.0698,8940.7883 L 3335.1927,8903.721 L 3386.2869,8867.9906 L 3438.3942,8833.597 L 3491.452,8800.5717 L 3545.4289,8768.9041 L 3600.3249,8738.6674 L 3656.0982,8709.893 L 3712.7384,8682.5703 L 3770.1933,8656.6994 L 3764.01,8642.37 z " />
  </g><g
     id="g93"
     transform="translate(7.92399,4.008857)">
   <path
   style="fill:black"
   id="path95"
   d="M 6978.26,10220.5 L 6793.644,10006.201 L 6793.644,10006.201 L 6801.2998,10007.319 L 6808.8929,10008.227 L 6816.4129,10008.937 L 6823.8702,10009.428 L 6831.2649,10009.71 L 6838.5969,10009.794 L 6845.8558,10009.669 L 6853.0625,10009.334 L 6860.1856,10008.791 L 6867.2565,10008.039 L 6874.2542,10007.078 L 6881.1893,10005.909 L 6888.0618,10004.54 L 6894.8611,10002.953 L 6901.6082,10001.167 L 6908.2718,9999.1719 L 6914.8831,9996.9681 L 6921.4213,9994.5554 L 6927.8969,9991.9443 L 6934.3098,9989.1139 L 6940.66,9986.085 L 6946.9371,9982.8368 L 6953.1516,9979.3901 L 6959.2929,9975.7345 L 6965.382,9971.8701 L 6971.398,9967.8072 L 6977.3409,9963.525 L 6983.2316,9959.0443 L 6989.0491,9954.3443 L 6994.804,9949.4459 L 7000.4962,9944.3386 L 7006.1153,9939.0223 L 6978.26,10220.5 L 6978.26,10220.5 L 6978.26,10220.5 z " />
   <path
   style="fill:black"
   id="path97"
   d="M 5629.81,8656.7 L 5687.2649,8682.5709 L 5743.9051,8709.8936 L 5799.6784,8738.668 L 5854.5744,8768.9047 L 5908.5513,8800.5723 L 5961.6091,8833.5976 L 6013.7164,8867.9912 L 6064.8106,8903.7216 L 6114.9335,8940.7889 L 6163.9806,8979.1305 L 6212.0042,9018.7463 L 6258.9206,9059.5841 L 6304.7404,9101.6543 L 6349.4217,9144.8943 L 6392.9333,9189.3041 L 6435.296,9234.8523 L 6476.4158,9281.5181 L 6516.324,9329.291 L 6554.9684,9378.1188 L 6592.3282,9427.9597 L 6628.3824,9478.8555 L 6663.0893,9530.7017 L 6696.4384,9583.5297 L 6728.4402,9637.2977 L 6758.9798,9691.9744 L 6788.1198,9747.5597 L 6815.7871,9803.991 L 6841.9713,9861.2892 L 6866.6933,9919.3603 L 6889.8173,9978.2565 L 6911.4269,10037.894 L 6931.4071,10098.305 L 6946.3427,10093.584 L 6926.1745,10032.818 L 6904.4396,9972.7419 L 6881.1276,9913.4906 L 6856.3012,9854.9808 L 6829.929,9797.3275 L 6802.0737,9740.5202 L 6772.7457,9684.5798 L 6741.9555,9629.5271 L 6709.7866,9575.3831 L 6676.1868,9522.2 L 6641.2292,9469.9778 L 6604.9452,9418.7896 L 6567.3348,9368.5727 L 6528.4397,9319.4316 L 6488.2808,9271.3663 L 6446.8686,9224.3872 L 6404.2553,9178.5256 L 6360.4304,9133.8234 L 6315.4566,9090.2701 L 6269.3235,9047.9492 L 6222.0937,9006.819 L 6173.7777,8966.9526 L 6124.3546,8928.3604 L 6073.9393,8891.0633 L 6022.4691,8855.0822 L 5970.0484,8820.438 L 5916.6355,8787.162 L 5862.2826,8755.3273 L 5807.0315,8724.9026 L 5750.8822,8695.8775 L 5693.866,8668.3668 L 5635.9933,8642.3706 L 5629.81,8656.7 z " />
  </g></g></svg>
