<?xml version="1.0" encoding="UTF-8" standalone="no"?>
<!-- Creator: CorelDRAW -->
<svg
   xmlns:dc="http://purl.org/dc/elements/1.1/"
   xmlns:cc="http://web.resource.org/cc/"
   xmlns:rdf="http://www.w3.org/1999/02/22-rdf-syntax-ns#"
   xmlns:svg="http://www.w3.org/2000/svg"
   xmlns="http://www.w3.org/2000/svg"
   xmlns:sodipodi="http://inkscape.sourceforge.net/DTD/sodipodi-0.dtd"
   xmlns:inkscape="http://www.inkscape.org/namespaces/inkscape"
   xml:space="preserve"
   width="90mm"
   height="152mm"
   shape-rendering="geometricPrecision"
   text-rendering="geometricPrecision"
   image-rendering="optimizeQuality"
   fill-rule="evenodd"
   viewBox="0 0 9000 15200"
   id="svg1753"
   sodipodi:version="0.32"
   inkscape:version="0.43"
   sodipodi:docname="ipodcolor-front.svg"
   sodipodi:docbase="/home/martin/src/dev/pics/pixelma/two"><metadata
   id="metadata1960"><rdf:RDF><cc:Work
       rdf:about=""><dc:format>image/svg+xml</dc:format><dc:type
         rdf:resource="http://purl.org/dc/dcmitype/StillImage" /></cc:Work></rdf:RDF></metadata><defs
   id="defs1958" /><sodipodi:namedview
   inkscape:window-height="572"
   inkscape:window-width="746"
   inkscape:pageshadow="2"
   inkscape:pageopacity="0.0"
   borderopacity="1.0"
   bordercolor="#666666"
   pagecolor="#ffffff"
   id="base"
   inkscape:zoom="0.7482602"
   inkscape:cx="159.44882"
   inkscape:cy="429.66337"
   inkscape:window-x="305"
   inkscape:window-y="94"
   inkscape:current-layer="layer1" />
 <g
   id="Ebene_x0020_1">
  <defs
   id="defs1756">
   <radialGradient
   id="id0"
   gradientUnits="userSpaceOnUse"
   cx="813.98"
   cy="14398.4"
   r="751.58"
   fx="813.98"
   fy="14398.4">
    <stop
   offset="0"
   stop-color="#F9F9F8"
   id="stop1759" />
    <stop
   offset="0.45098"
   stop-color="#F9F9F8"
   id="stop1761" />
    <stop
   offset="0.529412"
   stop-color="#FFFFFF"
   id="stop1763" />
    <stop
   offset="0.819608"
   stop-color="#80807F"
   id="stop1765" />
    <stop
   offset="1"
   stop-color="#242423"
   id="stop1767" />
   </radialGradient>
   <radialGradient
   id="id1"
   gradientUnits="userSpaceOnUse"
   cx="8186.02"
   cy="14398.4"
   r="751.58"
   fx="8186.02"
   fy="14398.4">
    <stop
   offset="0"
   stop-color="#F9F9F8"
   id="stop1770" />
    <stop
   offset="0.45098"
   stop-color="#F9F9F8"
   id="stop1772" />
    <stop
   offset="0.529412"
   stop-color="#FFFFFF"
   id="stop1774" />
    <stop
   offset="0.819608"
   stop-color="#80807F"
   id="stop1776" />
    <stop
   offset="1"
   stop-color="#242423"
   id="stop1778" />
   </radialGradient>
   <radialGradient
   id="id2"
   gradientUnits="userSpaceOnUse"
   cx="8186.02"
   cy="901.59"
   r="751.58"
   fx="8186.02"
   fy="901.59">
    <stop
   offset="0"
   stop-color="#F9F9F8"
   id="stop1781" />
    <stop
   offset="0.45098"
   stop-color="#F9F9F8"
   id="stop1783" />
    <stop
   offset="0.529412"
   stop-color="#FFFFFF"
   id="stop1785" />
    <stop
   offset="0.819608"
   stop-color="#80807F"
   id="stop1787" />
    <stop
   offset="1"
   stop-color="#242423"
   id="stop1789" />
   </radialGradient>
   <radialGradient
   id="id3"
   gradientUnits="userSpaceOnUse"
   cx="813.98"
   cy="901.59"
   r="751.58"
   fx="813.98"
   fy="901.59">
    <stop
   offset="0"
   stop-color="#F9F9F8"
   id="stop1792" />
    <stop
   offset="0.45098"
   stop-color="#F9F9F8"
   id="stop1794" />
    <stop
   offset="0.529412"
   stop-color="#FFFFFF"
   id="stop1796" />
    <stop
   offset="0.819608"
   stop-color="#80807F"
   id="stop1798" />
    <stop
   offset="1"
   stop-color="#242423"
   id="stop1800" />
   </radialGradient>
   <linearGradient
   id="id4"
   gradientUnits="userSpaceOnUse"
   x1="62.4"
   y1="7650"
   x2="814"
   y2="7650">
    <stop
   offset="0"
   stop-color="#242423"
   id="stop1803" />
    <stop
   offset="0.180392"
   stop-color="#80807F"
   id="stop1805" />
    <stop
   offset="0.470588"
   stop-color="#FFFFFF"
   id="stop1807" />
    <stop
   offset="0.54902"
   stop-color="#F9F9F8"
   id="stop1809" />
    <stop
   offset="1"
   stop-color="#F9F9F8"
   id="stop1811" />
   </linearGradient>
   <linearGradient
   id="id5"
   gradientUnits="userSpaceOnUse"
   x1="8937.6"
   y1="7650"
   x2="8186.02"
   y2="7650">
    <stop
   offset="0"
   stop-color="#242423"
   id="stop1814" />
    <stop
   offset="0.180392"
   stop-color="#80807F"
   id="stop1816" />
    <stop
   offset="0.470588"
   stop-color="#FFFFFF"
   id="stop1818" />
    <stop
   offset="0.54902"
   stop-color="#F9F9F8"
   id="stop1820" />
    <stop
   offset="1"
   stop-color="#F9F9F8"
   id="stop1822" />
   </linearGradient>
   <linearGradient
   id="id6"
   gradientUnits="userSpaceOnUse"
   x1="4500"
   y1="15150"
   x2="4500"
   y2="14398.4">
    <stop
   offset="0"
   stop-color="#242423"
   id="stop1825" />
    <stop
   offset="0.180392"
   stop-color="#80807F"
   id="stop1827" />
    <stop
   offset="0.470588"
   stop-color="#FFFFFF"
   id="stop1829" />
    <stop
   offset="0.54902"
   stop-color="#F9F9F8"
   id="stop1831" />
    <stop
   offset="1"
   stop-color="#F9F9F8"
   id="stop1833" />
   </linearGradient>
   <linearGradient
   id="id7"
   gradientUnits="userSpaceOnUse"
   x1="4500"
   y1="150.01"
   x2="4500"
   y2="901.59">
    <stop
   offset="0"
   stop-color="#242423"
   id="stop1836" />
    <stop
   offset="0.180392"
   stop-color="#80807F"
   id="stop1838" />
    <stop
   offset="0.470588"
   stop-color="#FFFFFF"
   id="stop1840" />
    <stop
   offset="0.54902"
   stop-color="#F9F9F8"
   id="stop1842" />
    <stop
   offset="1"
   stop-color="#F9F9F8"
   id="stop1844" />
   </linearGradient>
   <linearGradient
   id="id8"
   gradientUnits="userSpaceOnUse"
   x1="6041.57"
   y1="103.5"
   x2="7573.55"
   y2="103.5">
    <stop
   offset="0"
   stop-color="#000000"
   id="stop1847" />
    <stop
   offset="0.0784314"
   stop-color="#D1D1D1"
   id="stop1849" />
    <stop
   offset="0.101961"
   stop-color="#C4C4C4"
   id="stop1851" />
    <stop
   offset="0.901961"
   stop-color="#C5C5C5"
   id="stop1853" />
    <stop
   offset="0.921569"
   stop-color="#D1D1D1"
   id="stop1855" />
    <stop
   offset="1"
   stop-color="#000000"
   id="stop1857" />
   </linearGradient>
  </defs>
  <path
   fill="url(#id0)"
   d="M1565.55 14398.4c0,-415.09 -336.49,-751.58 -751.58,-751.58 -415.08,0 -751.57,336.49 -751.57,751.58 0,415.08 336.49,751.57 751.57,751.57 415.09,0.01 751.58,-336.49 751.58,-751.57z"
   id="path1859" />
  <path
   fill="url(#id1)"
   d="M8937.6 14398.4c0,-415.09 -336.49,-751.58 -751.57,-751.58 -415.09,0 -751.58,336.49 -751.58,751.58 0,415.08 336.49,751.57 751.58,751.57 415.08,0.01 751.57,-336.49 751.57,-751.57z"
   id="path1861" />
  <path
   fill="url(#id2)"
   d="M8937.6 901.58c0,-415.08 -336.49,-751.57 -751.57,-751.57 -415.09,-0.01 -751.58,336.49 -751.58,751.57 0,415.09 336.49,751.58 751.58,751.58 415.08,0 751.57,-336.49 751.57,-751.58z"
   id="path1863" />
  <path
   fill="url(#id3)"
   d="M1565.55 901.58c0,-415.08 -336.49,-751.57 -751.58,-751.57 -415.08,-0.01 -751.57,336.49 -751.57,751.57 0,415.09 336.49,751.58 751.57,751.58 415.09,0 751.58,-336.49 751.58,-751.58z"
   id="path1865" />
  <path
   fill="url(#id4)"
   d="M813.97 901.58l-751.57 0 0 13496.8 751.57 0 0 -13496.8"
   id="path1867" />
  <path
   fill="url(#id5)"
   d="M8186.03 901.58l751.57 0 0 13496.8 -751.57 0 0 -13496.8"
   id="path1869" />
  <path
   fill="url(#id6)"
   d="M8186.03 14398.4l-7372.06 0 0 751.58 7372.06 0 0 -751.58"
   id="path1871" />
  <path
   fill="url(#id7)"
   d="M813.97 901.58l7372.06 0 0 -751.57 -7372.06 0 0 751.57"
   id="path1873" />
  <path
   fill="#F9F9F8"
   d="M813.97 569.58l7372.06 0c183.36,0 332,148.64 332,332l0 13496.8c0,183.36 -148.64,332 -332,332l-7372.06 0c-183.36,0 -332,-148.64 -332,-332l0 -13496.8c0,-183.36 148.64,-332 332,-332"
   id="path1875" />
  <path
   fill="none"
   stroke="#000000"
   stroke-width="18"
   stroke-linejoin="bevel"
   d="M813.97 150.01l7372.06 0c415.08,0 751.57,336.49 751.57,751.57l0 13496.8c0,415.08 -336.49,751.58 -751.57,751.58l-7372.06 0c-415.08,0 -751.57,-336.5 -751.57,-751.58l0 -13496.8c0,-415.08 336.49,-751.57 751.57,-751.57"
   id="path1877" />
  <path
   fill="#736D78"
   stroke="#FFFFFF"
   stroke-width="15"
   stroke-linejoin="bevel"
   d="M1629.4 1030.16l5741.2 0c83.02,0 150.31,67.3 150.31,150.32l0 4640.47c0,83.02 -67.29,150.31 -150.31,150.31l-5741.2 0c-83.02,0 -150.31,-67.29 -150.31,-150.31l0 -4640.47c0,-83.02 67.29,-150.32 150.31,-150.32"
   id="path1879" />
  <path
   fill="#D6DEE8"
   stroke="#3E3940"
   stroke-width="50"
   stroke-linejoin="bevel"
   d="M1629.4 1118.48l5741.2 0c34.24,0 62,27.76 62,62l0 4640.47c0,16.44 -6.54,32.21 -18.16,43.84 -11.63,11.62 -27.4,18.16 -43.84,18.16l-5741.2 0c-16.44,0 -32.21,-6.54 -43.84,-18.16 -11.62,-11.63 -18.16,-27.4 -18.16,-43.84l0 -4640.47c0,-34.24 27.76,-62 62,-62"
   id="path1881" />
  <path
   fill="#DBDCE1"
   stroke="#000000"
   stroke-width="18"
   stroke-linejoin="bevel"
   d="M7553.28 10343.6c0,-1686.28 -1367,-3053.28 -3053.28,-3053.28 -1686.28,0 -3053.28,1367 -3053.28,3053.28 0,1686.28 1367,3053.28 3053.28,3053.28 1686.28,0 3053.28,-1367 3053.28,-3053.28z"
   id="path1883" />
  <path
   fill="#F9F9F8"
   stroke="#000000"
   stroke-width="18"
   stroke-linejoin="bevel"
   d="M5520.19 10343.6c0,-563.44 -456.76,-1020.2 -1020.19,-1020.2 -563.43,0 -1020.19,456.76 -1020.19,1020.2 0,563.44 456.76,1020.2 1020.19,1020.2 563.43,0 1020.19,-456.76 1020.19,-1020.2z"
   id="path1885" />
  <path
   fill="#F9F9F8"
   stroke="#000000"
   stroke-width="18"
   stroke-linejoin="bevel"
   d="M4568.79 10343.6c0,-37.99 -30.8,-68.79 -68.79,-68.79 -37.99,0 -68.79,30.8 -68.79,68.79 0,37.99 30.8,68.79 68.79,68.79 37.99,0 68.79,-30.8 68.79,-68.79z"
   id="path1887" />
  <path
   fill="#FFFFFF"
   d="M7176.88 10172c-8.9,0 -16.12,7.21 -16.12,16.11l0 98.4c0,5.79 -3.11,11.14 -8.14,14.01 -5.04,2.86 -11.22,2.81 -16.21,-0.15l-191.89 -113.92c-4.98,-2.96 -11.17,-3.01 -16.2,-0.15 -5.04,2.87 -8.15,8.22 -8.15,14.01l0 86.2c0,5.79 -3.11,11.14 -8.14,14.01 -5.04,2.86 -11.22,2.81 -16.2,-0.15l-191.9 -113.92c-4.98,-2.96 -11.17,-3.01 -16.2,-0.15 -5.04,2.87 -8.15,8.22 -8.15,14.01l0 229.02c0,5.8 3.11,11.14 8.15,14.01 5.03,2.87 11.22,2.81 16.2,-0.15l191.9 -113.92c4.98,-2.95 11.16,-3.01 16.2,-0.14 5.03,2.86 8.14,8.21 8.14,14l0 86.2c0,5.8 3.11,11.14 8.15,14.01 5.03,2.87 11.22,2.81 16.2,-0.15l191.89 -113.92c4.99,-2.95 11.17,-3.01 16.21,-0.14 5.03,2.86 8.14,8.21 8.14,14l0 98.4c0,8.9 7.22,16.12 16.12,16.12l40.94 0c8.91,0 16.12,-7.22 16.12,-16.12l0 -253.42c0,-8.9 -7.21,-16.11 -16.12,-16.11l-40.94 0"
   id="path1889" />
  <path
   fill="#FFFFFF"
   d="M1823.12 10172c8.9,0 16.12,7.21 16.12,16.11l0 98.4c0,5.79 3.11,11.14 8.14,14.01 5.04,2.86 11.22,2.81 16.21,-0.15l191.89 -113.92c4.98,-2.96 11.17,-3.01 16.2,-0.15 5.04,2.87 8.15,8.22 8.15,14.01l0 86.2c0,5.79 3.11,11.14 8.14,14.01 5.04,2.86 11.22,2.81 16.2,-0.15l191.9 -113.92c4.98,-2.96 11.17,-3.01 16.2,-0.15 5.04,2.87 8.15,8.22 8.15,14.01l0 229.02c0,5.8 -3.11,11.14 -8.15,14.01 -5.03,2.87 -11.22,2.81 -16.2,-0.15l-191.9 -113.92c-4.98,-2.95 -11.16,-3.01 -16.2,-0.14 -5.03,2.86 -8.14,8.21 -8.14,14l0 86.2c0,5.8 -3.11,11.14 -8.15,14.01 -5.03,2.87 -11.22,2.81 -16.2,-0.15l-191.89 -113.92c-4.99,-2.95 -11.17,-3.01 -16.21,-0.14 -5.03,2.86 -8.14,8.21 -8.14,14l0 98.4c0,8.9 -7.22,16.12 -16.12,16.12l-40.94 0c-8.91,0 -16.12,-7.22 -16.12,-16.12l0 -253.42c0,-8.9 7.21,-16.11 16.12,-16.11l40.94 0"
   id="path1891" />
  <path
   fill="#FFFFFF"
   d="M4660.13 13049.4c8.9,0 16.12,-7.22 16.12,-16.12l0 -253.42c0,-8.9 -7.22,-16.11 -16.12,-16.11l-40.94 0c-8.9,0 -16.12,7.21 -16.12,16.11l0 253.42c0,8.9 7.22,16.12 16.12,16.12l40.94 0"
   id="path1893" />
  <path
   fill="#FFFFFF"
   d="M4831.41 13049.4c8.9,0 16.12,-7.22 16.12,-16.12l0 -253.42c0,-8.9 -7.22,-16.11 -16.12,-16.11l-40.94 0c-8.9,0 -16.12,7.21 -16.12,16.11l0 253.42c0,8.9 7.22,16.12 16.12,16.12l40.94 0"
   id="path1895" />
  <path
   fill="#FFFFFF"
   d="M4176.82 12778.2l223.4 114.02c5.39,2.75 8.79,8.29 8.79,14.35 0,6.06 -3.4,11.6 -8.79,14.36l-223.4 114.01c-4.99,2.96 -11.17,3.02 -16.21,0.15 -5.03,-2.86 -8.14,-8.21 -8.14,-14.01l0 -229.02c0,-5.79 3.11,-11.14 8.14,-14.01 5.04,-2.86 11.22,-2.81 16.21,0.15"
   id="path1897" />
  <path
   fill="none"
   d="M4205.93 7690.94l0.73 0"
   id="path1899" />
  <path
   fill="#FFFFFF"
   d="M4171.33 7915.72l-5.74 -127.16c-0.17,-3.78 -2.93,-6.92 -6.65,-7.58 -3.72,-0.65 -7.39,1.36 -8.84,4.85l-55.02 132.62c-1.25,3.01 -4.19,4.97 -7.45,4.97l-34.7 0c-3.26,0 -6.2,-1.96 -7.45,-4.97l-55.02 -132.62c-1.45,-3.49 -5.12,-5.5 -8.84,-4.85 -3.72,0.66 -6.48,3.8 -6.66,7.58l-5.73 127.16c-0.2,4.31 -3.74,7.7 -8.05,7.7l-29.34 0c-2.2,0 -4.3,-0.9 -5.82,-2.49 -1.52,-1.59 -2.33,-3.73 -2.23,-5.93l11.82 -261.78c0.19,-4.3 3.74,-7.69 8.05,-7.69l32.38 0c3.26,0 6.19,1.96 7.44,4.96l79.36 191.26c1.24,3.01 4.18,4.97 7.44,4.97 3.26,0 6.2,-1.96 7.44,-4.97l79.36 -191.26c1.25,-3 4.18,-4.96 7.44,-4.96l32.38 0c4.31,0 7.86,3.39 8.05,7.69l11.82 261.78c0.1,2.2 -0.71,4.34 -2.23,5.93 -1.52,1.59 -3.62,2.49 -5.82,2.49l-29.34 0c-4.31,0 -7.85,-3.39 -8.05,-7.7"
   id="path1901" />
  <path
   fill="#FFFFFF"
   d="M4455.8 7799.12c0,4.45 -3.61,8.06 -8.06,8.06l-95.76 0c-4.45,0 -8.06,3.61 -8.06,8.06l0 54.7c0,4.45 3.61,8.06 8.06,8.06l108.2 0c4.45,0 8.06,3.61 8.06,8.06l0 29.3c0,2.14 -0.85,4.19 -2.37,5.7 -1.51,1.51 -3.56,2.36 -5.69,2.36l-153.62 0c-4.45,0 -8.06,-3.61 -8.06,-8.06l0 -261.78c0,-4.44 3.61,-8.05 8.06,-8.05l153.62 0c2.13,0 4.18,0.85 5.69,2.36 1.52,1.51 2.37,3.55 2.37,5.69l0 29.3c0,4.45 -3.61,8.06 -8.06,8.06l-108.2 0c-2.14,0 -4.19,0.85 -5.7,2.36 -1.51,1.51 -2.36,3.56 -2.36,5.7l0 54.7c0,4.45 3.61,8.06 8.06,8.06l95.76 0c4.45,0 8.06,3.61 8.06,8.06l0 29.3"
   id="path1903" />
  <path
   fill="#FFFFFF"
   d="M4768.33 7915.36c0,4.45 -3.6,8.06 -8.05,8.06l-32.97 0c-2.74,0 -5.29,-1.39 -6.78,-3.69l-107.83 -167.34c-1.93,-3 -5.62,-4.37 -9.05,-3.36 -3.43,1 -5.78,4.15 -5.78,7.73l0 158.6c0,2.14 -0.85,4.19 -2.36,5.7 -1.51,1.51 -3.56,2.36 -5.7,2.36l-29.3 0c-2.14,0 -4.19,-0.85 -5.7,-2.36 -1.51,-1.51 -2.36,-3.56 -2.36,-5.7l0 -261.78c0,-4.44 3.61,-8.05 8.06,-8.05l32.97 0c2.74,0 5.29,1.39 6.77,3.69l107.83 167.33c1.94,3 5.62,4.37 9.05,3.36 3.43,-1 5.78,-4.15 5.78,-7.73l0 -158.6c0,-4.44 3.61,-8.05 8.06,-8.05l29.31 0c2.13,0 4.18,0.85 5.69,2.36 1.52,1.51 2.36,3.55 2.36,5.69l0 261.78"
   id="path1905" />
  <path
   fill="#FFFFFF"
   d="M4860.33 7818.87l0 -165.29c0,-4.44 3.61,-8.05 8.06,-8.05l29.3 0c4.45,0 8.06,3.61 8.06,8.05l0 165.29c0,34.53 27.99,62.53 62.52,62.53 34.53,0 62.52,-28 62.52,-62.53l0 -165.29c0,-4.44 3.61,-8.05 8.06,-8.05l29.31 0c2.13,0 4.18,0.85 5.69,2.36 1.52,1.51 2.37,3.55 2.37,5.69l0 165.29c0,59.62 -48.33,107.95 -107.95,107.95 -59.61,0 -107.94,-48.33 -107.94,-107.95"
   id="path1907" />
  <g
   id="g1909">
   <path
   fill="#000000"
   d="M2318.69 9785.61l-26.67 -269.5 0 0 5.38 5.09 5.45 4.89 5.51 4.69 5.57 4.5 5.64 4.29 5.69 4.1 5.76 3.89 5.83 3.7 5.88 3.5 5.95 3.3 6.01 3.11 6.08 2.9 6.14 2.71 6.2 2.5 6.26 2.31 6.33 2.11 6.38 1.91 6.46 1.71 6.51 1.52 6.58 1.31 6.64 1.12 6.7 0.92 6.77 0.72 6.82 0.52 6.89 0.32 6.96 0.12 7.02 -0.08 7.08 -0.27 7.14 -0.47 7.2 -0.68 7.27 -0.87 7.33 -1.07 -176.76 205.18 0 0z"
   id="path1911" />
   <path
   fill="#000000"
   d="M3603.84 8274.61l-55.41 24.89 -54.59 26.34 -53.76 27.79 -52.9 29.13 -52.04 30.48 -51.14 31.86 -50.19 33.17 -49.28 34.45 -48.27 35.71 -47.32 36.95 -46.26 38.17 -45.22 39.38 -44.17 40.52 -43.06 41.7 -41.96 42.8 -40.8 43.91 -39.65 44.98 -38.45 46.02 -37.24 47.05 -36.01 48.08 -34.74 49.01 -33.47 50 -32.17 50.92 -30.8 51.84 -29.48 52.71 -28.08 53.56 -26.67 54.39 -25.25 55.2 -23.77 56.02 -22.32 56.73 -20.81 57.52 -19.31 58.18 14.3 4.52 19.13 -57.84 20.69 -57.1 22.14 -56.39 23.67 -55.6 25.07 -54.86 26.49 -54.03 27.9 -53.22 29.24 -52.35 30.64 -51.48 31.93 -50.58 33.23 -49.64 34.52 -48.73 35.77 -47.72 37 -46.75 38.21 -45.74 39.37 -44.68 40.56 -43.61 41.66 -42.52 42.78 -41.4 43.87 -40.28 44.92 -39.1 45.98 -37.93 46.96 -36.71 47.99 -35.49 48.92 -34.21 49.89 -32.93 50.8 -31.62 51.68 -30.32 52.56 -28.95 53.4 -27.55 54.23 -26.16 55.01 -24.77z"
   id="path1913" />
  </g>
  <g
   id="g1915">
   <path
   fill="#000000"
   d="M6681.31 9785.61l-176.76 -205.18 0 0 7.33 1.07 7.27 0.87 7.2 0.68 7.14 0.47 7.08 0.27 7.02 0.08 6.95 -0.12 6.9 -0.32 6.82 -0.52 6.77 -0.72 6.7 -0.92 6.64 -1.12 6.58 -1.31 6.51 -1.52 6.46 -1.71 6.38 -1.91 6.33 -2.11 6.26 -2.31 6.2 -2.5 6.14 -2.71 6.08 -2.9 6.01 -3.11 5.95 -3.3 5.88 -3.5 5.83 -3.7 5.76 -3.89 5.69 -4.1 5.64 -4.29 5.57 -4.5 5.51 -4.69 5.45 -4.89 5.38 -5.09 -26.67 269.5 0 0z"
   id="path1917" />
   <path
   fill="#000000"
   d="M5390.24 8288.33l55.01 24.77 54.23 26.16 53.4 27.55 52.56 28.95 51.68 30.32 50.8 31.62 49.89 32.93 48.92 34.21 47.99 35.49 46.96 36.71 45.98 37.93 44.92 39.1 43.87 40.28 42.78 41.4 41.66 42.52 40.56 43.61 39.37 44.68 38.21 45.74 37 46.75 35.77 47.72 34.52 48.73 33.23 49.64 31.93 50.58 30.64 51.48 29.24 52.35 27.9 53.22 26.49 54.03 25.07 54.86 23.67 55.6 22.14 56.39 20.69 57.1 19.13 57.84 14.3 -4.52 -19.31 -58.18 -20.81 -57.52 -22.32 -56.73 -23.77 -56.02 -25.25 -55.2 -26.67 -54.39 -28.08 -53.56 -29.48 -52.71 -30.8 -51.84 -32.17 -50.92 -33.47 -50 -34.74 -49.01 -36.01 -48.08 -37.24 -47.05 -38.45 -46.02 -39.65 -44.98 -40.8 -43.91 -41.96 -42.8 -43.06 -41.7 -44.17 -40.52 -45.22 -39.38 -46.26 -38.17 -47.32 -36.95 -48.27 -35.71 -49.28 -34.45 -50.19 -33.17 -51.14 -31.86 -52.04 -30.48 -52.9 -29.13 -53.76 -27.79 -54.59 -26.34 -55.41 -24.89z"
   id="path1919" />
  </g>
  <path
   fill="url(#id8)"
   stroke="#000000"
   stroke-width="18"
   stroke-linejoin="bevel"
   d="M6041.64 57l1531.91 0 0 93 -1531.91 0 0 -93"
   id="path1921" />
  <g
   id="g1923">
   <defs
   id="defs1925">
    <linearGradient
   id="id9"
   gradientUnits="userSpaceOnUse"
   x1="6712.09"
   y1="2867.3"
   x2="6743.41"
   y2="3044.88">
     <stop
   offset="0"
   stop-color="#FFC100"
   id="stop1928" />
     <stop
   offset="0.6"
   stop-color="#997200"
   id="stop1930" />
     <stop
   offset="1"
   stop-color="#332201"
   id="stop1932" />
    </linearGradient>
   </defs>
   <path
   fill="#000000"
   d="M1592.4 3450.4l5815.2 0 0 -1800.4 -5815.2 0 0 1800.4z"
   id="path1934" />
   <path
   fill="#FFFFFF"
   d="M1960.16 3346.15c0,-25.29 -20.51,-45.8 -45.8,-45.8 -25.29,0 -45.8,20.51 -45.8,45.8 0,25.3 20.51,45.8 45.8,45.8 25.29,0 45.8,-20.5 45.8,-45.8zm143.85 -38.33c18.41,-12.53 42.86,-8.98 57.28,8.31 14.43,17.27 14.43,43.01 0,60.29 -14.42,17.29 -38.87,20.83 -57.28,8.3l0 37.96 -24.26 0 0 -120.1 24.26 0 0 5.24zm276.96 38.33c0,-25.29 -20.51,-45.8 -45.8,-45.8 -25.29,0 -45.79,20.51 -45.79,45.8 0,25.3 20.5,45.8 45.79,45.8 13.04,0 24.8,-5.45 33.15,-14.19l-17.52 -16.73 17.52 16.73 -17.52 -16.73c-4.5,4.73 -10.89,7.15 -17.39,6.61 -6.49,-0.53 -12.38,-3.97 -16.05,-9.37l61.99 0c1.06,-3.86 1.62,-7.92 1.62,-12.12zm1521.07 0c0,-25.29 -20.5,-45.8 -45.79,-45.8 -25.3,0 -45.79,20.51 -45.79,45.8 0,25.3 20.49,45.8 45.79,45.8 13.03,0 24.8,-5.45 33.14,-14.19l-17.53 -16.73 17.53 16.73 -17.53 -16.73c-4.49,4.73 -10.87,7.15 -17.37,6.61 -6.49,-0.53 -12.4,-3.97 -16.05,-9.37l61.98 0c1.07,-3.86 1.62,-7.92 1.62,-12.12zm905.11 0c0,-25.29 -20.5,-45.8 -45.79,-45.8 -25.3,0 -45.79,20.51 -45.79,45.8 0,25.3 20.49,45.8 45.79,45.8 13.03,0 24.8,-5.45 33.14,-14.19l-17.53 -16.73 17.53 16.73 -17.53 -16.73c-4.49,4.73 -10.87,7.15 -17.37,6.61 -6.49,-0.53 -12.4,-3.97 -16.05,-9.37l61.98 0c1.07,-3.86 1.62,-7.92 1.62,-12.12zm2313.21 0c0,-25.29 -20.51,-45.8 -45.8,-45.8 -25.28,0 -45.79,20.51 -45.79,45.8 0,25.3 20.51,45.8 45.79,45.8 13.04,0 24.81,-5.45 33.15,-14.19l-17.52 -16.73 17.52 16.73 -17.52 -16.73c-4.5,4.73 -10.89,7.15 -17.38,6.61 -6.5,-0.53 -12.39,-3.97 -16.06,-9.37l62 0c1.05,-3.86 1.61,-7.92 1.61,-12.12zm-4540.83 -6.8c0,-14.67 -7.14,-28.09 -18.49,-34.75 -11.35,-6.65 -24.98,-5.41 -35.27,3.22l0 -5.24 -24.26 0 0 87.38 24.26 0 0 -50.61c0,-8.15 6.6,-14.75 14.75,-14.75 8.15,0 14.76,6.6 14.76,14.75l0 50.61 24.25 0 0 -50.61zm350.76 -11.31c0,-11.61 -8.75,-21.98 -21.9,-25.98 -13.16,-4.01 -27.94,-0.8 -37.02,8.04 -9.09,8.84 -10.55,21.43 -3.65,31.54 3.47,4.86 8.43,8.44 14.13,10.23 6.45,2.16 13.04,3.92 19.71,5.27 5.47,1.06 8.35,3.79 6.75,6.38 -1.59,2.59 -7.18,4.24 -13.08,3.88 -5.9,-0.37 -10.3,-2.64 -10.3,-5.33l0 -2.58 -24.23 0 0 2.58c0,12.87 9.81,24.31 24.41,28.49 14.6,4.17 30.78,0.16 40.26,-9.98 9.47,-10.15 10.18,-24.22 1.73,-34.98 -4.88,-5.71 -11.61,-9.52 -19.01,-10.77 -5.86,-1.1 -11.66,-2.51 -17.36,-4.22 -3.17,-1.05 -4.01,-2.77 -2.04,-4.18 1.98,-1.4 6.25,-2.11 10.36,-1.74 4.11,0.38 7,1.76 7,3.35l0 1.2 24.24 0 0 -1.2zm210.98 18.11c0,-25.29 -20.5,-45.8 -45.8,-45.8 -25.29,0 -45.79,20.51 -45.79,45.8 0,25.3 20.5,45.8 45.79,45.8 25.3,0 45.8,-20.5 45.8,-45.8zm120.11 7.05l0 -50.62 24.26 0 0 50.62c0,8.15 6.61,14.76 14.75,14.76 8.15,0 14.75,-6.61 14.75,-14.76l0 -50.62 24.27 0 0 87.38 -24.27 0 0 -5.24c-10.29,8.63 -23.92,9.88 -35.26,3.23 -11.36,-6.65 -18.5,-20.08 -18.5,-34.75zm224.42 -45.38l0 -5.24 -24.26 0 0 87.38 24.26 0 0 -43.81c0,-5.72 2.27,-11.2 6.31,-15.24 4.05,-4.05 9.53,-6.31 15.24,-6.31l0 -24.17c-7.67,0.45 -15.11,3.01 -21.55,7.39zm213.41 6.72c-8.34,-8.74 -20.11,-14.19 -33.15,-14.19 -25.28,0 -45.78,20.5 -45.79,45.79 0,0 0,0 0,0.01 0.01,25.29 20.51,45.79 45.79,45.79 13.04,0 24.81,-5.45 33.15,-14.19l-17.53 -16.72c-3.92,4.1 -9.47,6.67 -15.59,6.67 -11.9,0 -21.56,-9.65 -21.56,-21.55 0,-0.01 0,-0.01 0,-0.01 0,-11.9 9.66,-21.55 21.56,-21.55 6.12,0 11.67,2.57 15.59,6.67l17.53 -16.72zm2807.49 31.55l-12.5 -43.51 -21.66 0 -12.5 43.51 -12.5 -43.51 -25.22 0 25.12 87.38 25.21 0 10.72 -37.29 10.72 37.29 25.21 0 25.12 -87.38 -25.22 0 -12.5 43.51m-615.71 -71.96l-24.26 0 0 24.24 24.26 0 0 -24.24m0 28.45l-24.26 0 0 87.38 24.26 0 0 -87.38m-502.62 43.73l27 43.65 -28.56 0 -12.72 -20.56 -12.72 20.56 -28.55 0 26.99 -43.65 -27.05 -43.73 28.57 0 12.76 20.65 12.77 -20.65 28.56 0 -27.05 43.73m-812.51 -43.73l-22.24 35.96 0 -64.41 -24.26 0 0 115.83 24.26 0 0 -36.43 27.32 36.43 30.29 0 -33.35 -44.47 26.53 -42.91 -28.55 0m-369.55 -28.45l-24.26 0 0 24.24 24.26 0 0 -24.24m0 120.1l0 -91.65 -24.26 0 0 91.67c0,2.31 -1.88,4.19 -4.19,4.19l-6.87 0 0 24.24 6.87 0c15.72,0 28.45,-12.74 28.45,-28.45m1021.37 -48.08c0,-25.29 -20.5,-45.8 -45.79,-45.8 -25.3,0 -45.8,20.51 -45.8,45.8 0,25.3 20.5,45.8 45.8,45.8 25.29,0 45.79,-20.5 45.79,-45.8zm-844.67 38.57l0 5.24 24.25 0 0 -87.38 -24.25 0 0 50.62c0,8.15 -6.61,14.76 -14.75,14.76 -8.15,0 -14.76,-6.61 -14.76,-14.76l0 -50.62 -24.26 0 0 50.62c0,14.67 7.14,28.1 18.5,34.75 11.34,6.65 24.97,5.4 35.27,-3.23zm567.53 -76.9l0 -33.69 -24.27 0 0 115.83 24.27 0 0 -5.24c18.4,12.53 42.85,8.99 57.27,-8.3 14.44,-17.28 14.44,-43.01 0,-60.29 -14.42,-17.29 -38.87,-20.84 -57.27,-8.31zm795.95 -9.45l-20.13 0c-0.54,-0.04 -1.07,0.14 -1.45,0.53 -0.39,0.38 -0.58,0.92 -0.53,1.45l0 2.23 0 0 11.06 0 0 24.24 -11.06 0 0 63.14 -24.26 0 0 -63.14 -11.06 0 0 -24.24 11.06 0c0,-15.71 12.73,-28.45 28.44,-28.45l17.93 0 0 24.24zm312.86 2.06l0 24.17c-5.72,0 -11.2,2.26 -15.24,6.31 -4.05,4.04 -6.32,9.52 -6.32,15.24l0 43.81 -24.26 0 0 -87.38 24.26 0 0 5.24c6.45,-4.38 13.87,-6.94 21.56,-7.39zm142.2 7.39l0 -5.24 -24.26 0 0 87.38 24.26 0 0 -50.61c0,-8.15 6.61,-14.75 14.75,-14.75 8.15,0 14.75,6.6 14.75,14.75l0 50.61 24.27 0 0 -50.61c0,-8.15 6.6,-14.75 14.75,-14.75 8.14,0 14.74,6.6 14.74,14.75l0 50.61 24.26 0 0 -50.61c0,-15.39 -9.05,-29.34 -23.1,-35.62 -14.05,-6.27 -30.48,-3.7 -41.93,6.56 -11.89,-12.25 -29.59,-13.28 -42.49,-2.47zm518.94 0l0 -5.24 24.26 0 0 87.38 -24.26 0 0 -5.24c-18.41,12.53 -42.86,8.99 -57.29,-8.3 -14.43,-17.28 -14.43,-43.01 0,-60.29 14.43,-17.29 38.88,-20.84 57.29,-8.31zm195.57 -7.39l0 24.17c-5.71,0 -11.2,2.26 -15.24,6.31 -4.04,4.04 -6.32,9.52 -6.32,15.24l0 43.81 -24.25 0 0 -87.38 24.25 0 0 5.24c6.45,-4.38 13.89,-6.94 21.56,-7.39z"
   id="path1936" />
   <path
   fill="#000000"
   d="M1935.92 3346.15c0,-11.9 -9.65,-21.55 -21.56,-21.55 -11.91,0 -21.56,9.65 -21.56,21.55 0,11.92 9.65,21.57 21.56,21.57 11.91,0 21.56,-9.65 21.56,-21.57zm2807.61 -12.11l35.67 0c-4.01,-5.91 -10.69,-9.44 -17.84,-9.44 -7.14,0 -13.82,3.53 -17.83,9.44m-905.09 0l35.66 0c-4.01,-5.91 -10.69,-9.44 -17.83,-9.44 -7.15,0 -13.82,3.53 -17.83,9.44m-721.4 12.11c0,-11.9 -9.65,-21.55 -21.57,-21.55 -11.9,0 -21.55,9.65 -21.55,21.55 0,11.92 9.65,21.57 21.55,21.57 11.92,0 21.57,-9.65 21.57,-21.57zm2086.41 0c0,-11.9 -9.65,-21.55 -21.56,-21.55 -11.91,0 -21.57,9.65 -21.57,21.55 0,11.92 9.66,21.57 21.57,21.57 11.91,0 21.56,-9.65 21.56,-21.57zm-209.79 0c0,-11.9 -9.65,-21.55 -21.57,-21.55 -11.9,0 -21.55,9.65 -21.55,21.55 0,11.92 9.65,21.57 21.55,21.57 11.92,0 21.57,-9.65 21.57,-21.57zm-2846.53 0.24c0,-11.9 -9.65,-21.56 -21.56,-21.56 -11.9,0 -21.56,9.66 -21.56,21.56 0,11.91 9.66,21.57 21.56,21.57 11.91,0 21.56,-9.66 21.56,-21.57zm170.23 -12.35l35.67 0c-4.01,-5.91 -10.7,-9.44 -17.84,-9.44 -7.14,0 -13.82,3.53 -17.83,9.44m4739.38 0l35.67 0c-4.02,-5.91 -10.69,-9.44 -17.83,-9.44 -7.15,0 -13.83,3.53 -17.84,9.44m-336.25 12.11c0,-11.9 -9.65,-21.55 -21.56,-21.55 -11.91,0 -21.57,9.65 -21.57,21.55 0,11.92 9.66,21.57 21.57,21.57 11.91,0 21.56,-9.65 21.56,-21.57z"
   id="path1938" />
   <path
   fill="#FFC000"
   d="M1626.82 1692.08l5740.61 0 0 1529.21 -5740.61 0 0 -1529.21"
   id="path1940" />
   <path
   fill="url(#id9)"
   d="M6138.57 3129.4l0 0m1213.45 -251.26l15.41 0 0 8.76 -6.65 0 0 35.02 -8.76 0 0 -43.78m-43.76 0l26.26 0 0 8.76 -26.26 0 0 -8.76m0 35.02l26.26 0 0 8.76 -26.26 0 0 -8.76m-61.29 -35.02l0 0 0 0 0 0 0 0m17.51 8.76l8.75 0 0 35.02 -8.75 0 0 -35.02m8.75 -8.76l8.75 0 0 8.76 -8.75 0 0 -8.76m8.75 8.76l8.76 0 0 35.02 -8.76 0 0 -35.02m-35.01 -8.76l17.51 0 0 8.76 -8.76 0 0 35.02 -8.75 0 0 -43.78m-17.51 -8.76l8.76 0 0 17.52 -8.76 0 0 -17.52m0 26.28l8.76 0 0 17.5 -8.76 0 0 -17.5m-70.04 -17.52l8.76 0 0 17.52 -8.76 0 0 -17.52m-62.68 0l8.75 0 0 8.76 -8.75 0 0 -8.76m-26.26 17.52l8.76 0 0 17.5 -8.76 0 0 -17.5m-33.7 17.5l33.7 0 0 8.76 -33.7 0 0 -8.76m-35.01 -26.26l8.75 0 0 8.76 -8.75 0 0 -8.76m-8.75 -26.27l26.25 0 0 8.75 -26.25 0 0 -8.75m0 52.53l26.25 0 0 8.76 -26.25 0 0 -8.76m-43.78 -52.53l17.51 0 0 8.75 -17.51 0 0 -8.75m-8.75 8.75l8.75 0 0 8.76 -8.75 0 0 -8.76m26.26 26.28l8.76 0 0 17.5 -8.76 0 0 -17.5m236.45 -112.87l35.02 0 0 8.75 -35.02 0 0 -8.75m-8.75 8.75l8.75 0 0 8.76 -8.75 0 0 -8.76m8.75 8.76l26.26 0 0 8.75 -26.26 0 0 -8.75m26.26 8.75l8.76 0 0 8.76 -8.76 0 0 -8.76m-35.01 8.76l35.01 0 0 8.75 -35.01 0 0 -8.75m52.52 -35.02l8.75 0 0 35.02 -8.75 0 0 -35.02m8.75 52.52l26.26 0 0 8.76 -26.26 0 0 -8.76m43.78 -17.5l35.02 0 0 8.75 -35.02 0 0 -8.75m35.02 -8.76l8.75 0 0 8.76 -8.75 0 0 -8.76m-26.26 -8.75l26.26 0 0 8.75 -26.26 0 0 -8.75m-8.76 -8.76l8.76 0 0 8.76 -8.76 0 0 -8.76m8.76 -8.75l35.01 0 0 8.75 -35.01 0 0 -8.75m-105.06 190.7l35.02 0 0 8.76 -35.02 0 0 -8.76m-8.75 8.76l8.75 0 0 8.76 -8.75 0 0 -8.76m8.75 8.76l26.26 0 0 8.75 -26.26 0 0 -8.75m26.26 8.75l8.76 0 0 8.76 -8.76 0 0 -8.76m-35.01 8.76l35.01 0 0 8.75 -35.01 0 0 -8.75m-210.44 0l35.01 0 0 8.75 -35.01 0 0 -8.75m35.01 -8.76l8.76 0 0 8.76 -8.76 0 0 -8.76m-26.26 -8.75l26.26 0 0 8.75 -26.26 0 0 -8.75m-8.75 -8.76l8.75 0 0 8.76 -8.75 0 0 -8.76m8.75 -8.76l35.02 0 0 8.76 -35.02 0 0 -8.76m-263.14 95.36l35.02 0 0 8.75 -35.02 0 0 -8.75m-8.75 8.75l8.75 0 0 8.76 -8.75 0 0 -8.76m8.75 8.76l26.27 0 0 8.75 -26.27 0 0 -8.75m26.27 8.75l8.75 0 0 8.76 -8.75 0 0 -8.76m-35.02 8.76l35.02 0 0 8.75 -35.02 0 0 -8.75m-581.58 0l35.01 0 0 8.75 -35.01 0 0 -8.75m35.01 -8.76l8.76 0 0 8.76 -8.76 0 0 -8.76m-26.26 -8.75l26.26 0 0 8.75 -26.26 0 0 -8.75m-8.75 -8.76l8.75 0 0 8.76 -8.75 0 0 -8.76m8.75 -8.75l35.02 0 0 8.75 -35.02 0 0 -8.75m941.35 0l17.51 0 0 8.75 -8.76 0 0 35.02 -8.75 0 0 -43.77m35.02 8.75l8.75 0 0 35.02 -8.75 0 0 -35.02m-8.76 -8.75l8.76 0 0 8.75 -8.76 0 0 -8.75m-8.75 8.75l8.75 0 0 35.02 -8.75 0 0 -35.02m-17.51 -8.75l0 0 0 0 0 0 0 0m-843.62 0l0 0 0 0 0 0 0 0m17.51 8.75l8.76 0 0 35.02 -8.76 0 0 -35.02m8.76 -8.75l8.75 0 0 8.75 -8.75 0 0 -8.75m8.75 8.75l8.76 0 0 35.02 -8.76 0 0 -35.02m-35.02 -8.75l17.51 0 0 8.75 -8.75 0 0 35.02 -8.76 0 0 -43.77m1036.21 -251.04l0 -35.02 8.76 0 0 52.52 -8.76 0 0 -8.75 -26.26 0 0 -8.75 26.26 0m-684.86 284.74l0 -35.03 8.75 0 0 52.54 -8.75 0 0 -8.76 -26.27 0 0 -8.75 26.27 0m-26.27 17.51l26.27 0 0 8.75 -26.27 0 0 -8.75m-8.75 -52.54l8.75 0 0 35.03 -8.75 0 0 -35.03m737.4 -180.62l8.76 0 0 8.76 26.26 0 0 -8.76 8.75 0 0 17.51 -35.01 0 0 8.75 -8.76 0 0 -26.26m-157.59 95.35l8.76 0 0 8.76 26.27 0 0 -8.76 8.75 0 0 17.51 -35.02 0 0 8.76 -8.76 0 0 -26.27m8.76 26.27l26.27 0 0 8.75 -26.27 0 0 -8.75m0 -35.03l26.27 0 0 8.76 -26.27 0 0 -8.76m-210.44 0l26.27 0 0 8.76 -26.27 0 0 -8.76m0 35.03l26.27 0 0 8.75 -26.27 0 0 -8.75m-8.75 -26.27l8.75 0 0 8.76 26.27 0 0 -8.76 8.75 0 0 17.51 -35.02 0 0 8.76 -8.75 0 0 -26.27m315.49 95.35l8.75 0 0 8.76 26.26 0 0 -8.76 8.76 0 0 17.51 -35.02 0 0 8.76 -8.75 0 0 -26.27m8.75 26.27l26.26 0 0 8.75 -26.26 0 0 -8.75m0 -35.02l26.26 0 0 8.75 -26.26 0 0 -8.75m105.06 0l6.65 0 0 8.75 -6.65 0 0 -8.75m0 35.02l6.65 0 0 8.75 -6.65 0 0 -8.75m-8.76 -26.27l8.76 0 0 8.76 6.65 0 0 0 0 0 0 8.75 -6.65 0 0 8.76 -8.76 0 0 -26.27m-1255.18 -8.75l26.26 0 0 8.75 -26.26 0 0 -8.75m0 35.02l26.26 0 0 8.75 -26.26 0 0 -8.75m-8.76 -26.27l8.76 0 0 8.76 26.26 0 0 -8.76 8.75 0 0 17.51 -35.01 0 0 8.76 -8.76 0 0 -26.27m112.49 17.51l17.5 0 0 16.19 -17.5 0 0 -16.19m1055.15 -121.62l26.26 0 0 8.76 -26.26 0 0 -8.76m-8.75 8.76l8.75 0 0 26.27 -8.75 0 0 -26.27m8.75 26.27l26.26 0 0 8.75 -26.26 0 0 -8.75m26.26 -8.76l8.76 0 0 8.76 -8.76 0 0 -8.76m26.28 -26.27l26.26 0 0 8.76 -26.26 0 0 -8.76m-8.76 26.27l8.76 0 0 8.76 -8.76 0 0 -8.76m-703.13 0l8.75 0 0 8.76 -8.75 0 0 -8.76m-26.26 8.76l26.26 0 0 8.75 -26.26 0 0 -8.75m-8.76 -26.27l8.76 0 0 26.27 -8.76 0 0 -26.27m8.76 -8.76l26.26 0 0 8.76 -26.26 0 0 -8.76m484.26 -17.51l8.76 0 0 8.76 -8.76 0 0 -8.76m52.53 35.03l8.75 0 0 8.75 -8.75 0 0 -8.75m-262.97 -17.52l17.52 0 0 8.76 -17.52 0 0 -8.76m17.52 8.76l8.75 0 0 35.02 -8.75 0 0 -35.02m-238.81 -8.76l24.94 0 0 8.76 -24.94 0 0 -8.76m-8.76 8.76l8.76 0 0 26.27 -8.76 0 0 -26.27m8.76 26.27l24.94 0 0 8.75 -24.94 0 0 -8.75m24.94 -26.27l8.75 0 0 26.27 -8.75 0 0 -26.27m422.14 95.35l8.76 0 0 26.27 -8.76 0 0 -26.27m-24.93 26.27l24.93 0 0 8.75 -24.93 0 0 -8.75m-8.75 -26.27l8.75 0 0 26.27 -8.75 0 0 -26.27m8.75 -8.75l24.93 0 0 8.75 -24.93 0 0 -8.75m-218.37 -95.36l8.76 0 0 8.76 8.75 0 0 8.76 -8.75 0 0 26.26 -8.76 0 0 -43.78m525.6 0l8.76 0 0 8.76 6.65 0 0 8.76 -6.65 0 0 26.26 -8.76 0 0 -43.78m-429.3 43.78l-8.75 0 0 -8.75 -8.75 0 0 -8.76 8.75 0 0 -26.27 8.75 0 0 43.78m-35.02 -8.75l-8.75 0 0 -35.03 8.75 0 0 35.03m17.52 8.75l-17.52 0 0 -8.75 17.52 0 0 8.75m-236.38 -43.78l8.76 0 0 8.76 8.75 0 0 8.76 -8.75 0 0 26.26 -8.76 0 0 -43.78m35.02 8.76l8.76 0 0 35.02 -8.76 0 0 -35.02m-17.51 -8.76l17.51 0 0 8.76 -17.51 0 0 -8.76m262.14 95.36l17.51 0 0 8.75 -17.51 0 0 -8.75m17.51 8.75l8.75 0 0 35.02 -8.75 0 0 -35.02m-35.02 -8.75l8.76 0 0 8.75 8.75 0 0 8.76 -8.75 0 0 26.26 -8.76 0 0 -43.77m289.72 43.77l-17.5 0 0 -8.75 17.5 0 0 8.75m-17.5 -8.75l-8.75 0 0 -35.02 8.75 0 0 35.02m35.02 8.75l-8.76 0 0 -8.75 -8.76 0 0 -8.76 8.76 0 0 -26.26 8.76 0 0 43.77m105.05 0l-8.75 0 0 -8.75 -8.76 0 0 -8.76 8.76 0 0 -26.26 8.75 0 0 43.77m-35.01 -8.75l-8.76 0 0 -35.02 8.76 0 0 35.02m17.5 8.75l-17.5 0 0 -8.75 17.5 0 0 8.75m8.76 -130.37l8.75 0 0 35.02 -35.01 0 0 -8.75 26.26 0 0 -8.76 -26.26 0 0 -8.75 26.26 0 0 -8.76m-421.05 95.35l8.75 0 0 35.02 -35.01 0 0 -8.75 26.26 0 0 -8.76 -26.26 0 0 -8.75 26.26 0 0 -8.76m-35.02 17.51l8.76 0 0 8.76 -8.76 0 0 -8.76m8.76 -26.26l26.26 0 0 8.75 -26.26 0 0 -8.75m-368.88 0l26.26 0 0 8.75 -26.26 0 0 -8.75m-8.76 26.26l8.76 0 0 8.76 -8.76 0 0 -8.76m35.02 -17.51l8.75 0 0 35.02 -35.01 0 0 -8.75 26.26 0 0 -8.76 -26.26 0 0 -8.75 26.26 0 0 -8.76m684.87 -216.97l-35.01 0 0 61.29 35.01 0 0 -8.76 -26.26 0 0 -17.5 26.26 0 0 -8.76 -26.26 0 0 -17.52 26.26 0 0 -8.75m-87.55 0l0 61.29 8.76 0 0 -43.78 8.75 0 0 -8.76 -8.75 0 0 -8.75 -8.76 0m43.78 0l0 61.29 -8.75 0 0 -43.78 -8.76 0 0 -8.76 8.76 0 0 -8.75 8.75 0m-71.44 0l8.76 0 0 35.03 8.75 0 0 8.75 -8.75 0 0 17.51 -8.76 0 0 -17.51 -26.26 0 0 -17.51 8.75 0 0 8.76 17.51 0 0 -17.52 -8.76 0 0 -8.76 8.76 0 0 -8.75m-77.47 0l0 8.75 24.95 0 0 8.76 8.75 0 0 -8.76 8.76 0 0 -8.75 -42.46 0m24.95 17.51l-8.76 0 0 8.76 -8.76 0 0 8.76 26.27 0 0 -8.76 -8.75 0 0 -8.76m-77.47 -8.76l0 43.78 8.76 0 0 -8.75 8.75 0 0 -8.75 -8.75 0 0 -26.28 -8.76 0m35.01 0l0 8.76 -8.75 0 0 8.76 8.75 0 0 26.26 8.76 0 0 -43.78 -8.76 0m-87.54 8.76l0 35.02 8.76 0 0 -17.5 26.26 0 0 -8.76 -26.26 0 0 -8.76 -8.76 0m8.76 35.02l26.26 0 0 8.76 -26.26 0 0 -8.76m-563.4 155.69l-8.75 0 0 8.75 -8.76 0 0 8.76 26.26 0 0 -8.76 -8.75 0 0 -8.75m-24.94 -17.51l0 8.75 24.94 0 0 8.76 8.75 0 0 -8.76 8.76 0 0 -8.75 -42.45 0m0 52.53l33.69 0 0 8.75 -33.69 0 0 -8.75m33.69 -17.51l8.76 0 0 17.51 -8.76 0 0 -17.51m703.55 -112.87l0 8.76 26.26 0 0 8.76 8.76 0 0 -8.76 8.75 0 0 -8.76 -43.77 0m8.75 26.27l8.76 0 0 8.76 26.26 0 0 8.75 -43.77 0 0 -8.75 8.75 0 0 -8.76m-52.52 -26.27l17.51 0 0 35.03 8.75 0 0 8.75 -26.26 0 0 -8.75 8.75 0 0 -26.27 -8.75 0 0 -8.76m-262.97 0l17.51 0 0 35.03 8.75 0 0 8.75 -26.26 0 0 -8.75 8.76 0 0 -26.27 -8.76 0 0 -8.76m8.76 -17.51l8.75 0 0 8.76 -8.75 0 0 -8.76m-105.55 95.36l8.75 0 0 8.75 -8.75 0 0 -8.75m-8.76 17.51l17.51 0 0 35.02 8.75 0 0 8.75 -26.26 0 0 -8.75 8.76 0 0 -26.27 -8.76 0 0 -8.75m79.29 -69.09l8.76 0 0 8.76 -8.76 0 0 -8.76m-8.76 8.76l8.76 0 0 8.75 -8.76 0 0 -8.75m-8.75 -52.54l8.75 0 0 17.51 8.76 0 0 8.76 -8.76 0 0 26.27 -8.75 0 0 -26.27 -8.76 0 0 -8.76 8.76 0 0 -17.51m52.03 95.36l8.75 0 0 17.51 8.76 0 0 8.75 -8.76 0 0 26.27 -8.75 0 0 -26.27 -8.76 0 0 -8.75 8.76 0 0 -17.51m8.75 52.53l8.76 0 0 8.75 -8.76 0 0 -8.75m8.76 -8.76l8.75 0 0 8.76 -8.75 0 0 -8.76m17.51 -26.26l8.75 0 0 8.75 8.75 0 0 8.76 -8.75 0 0 26.26 -8.75 0 0 -43.77m35.01 8.75l8.76 0 0 10.09 -8.76 0 0 -10.09m-17.51 -8.75l17.51 0 0 8.75 -17.51 0 0 -8.75m-220.05 -17.51l16.18 0 0 52.53 8.76 0 0 7.43 -24.94 0 0 -7.43 8.75 0 0 -43.78 -8.75 0 0 -8.75m-156.26 0l16.19 0 0 52.53 8.75 0 0 7.43 -24.94 0 0 -7.43 8.75 0 0 -43.78 -8.75 0 0 -8.75m525.14 17.51l17.51 0 0 8.75 -17.51 0 0 -8.75m-8.76 8.75l8.76 0 0 26.27 -8.76 0 0 -26.27m26.27 0l8.75 0 0 -26.26 8.76 0 0 59.96 -35.02 0 0 -7.43 26.26 0 0 -17.51 -8.75 0 0 -8.76m132.14 0l8.76 0 0 26.27 -8.76 0 0 -26.27m8.76 -8.75l17.51 0 0 8.75 -17.51 0 0 -8.75m17.51 8.75l8.76 0 0 -8.75 8.75 0 0 59.96 -8.75 0 0 -17.51 -26.27 0 0 -7.43 26.27 0 0 -17.51 -8.76 0 0 -8.76m-728.65 -8.75l-17.5 0 0 8.75 17.5 0 0 -8.75m-17.5 8.75l-8.76 0 0 -8.75 -8.76 0 0 59.96 8.76 0 0 -17.51 26.26 0 0 -7.43 -26.26 0 0 -17.51 8.76 0 0 -8.76m26.26 0l-8.76 0 0 26.27 8.76 0 0 -26.27m-106.22 0l-8.75 0 0 26.27 8.75 0 0 -26.27m-26.26 0l-8.76 0 0 -8.75 -8.75 0 0 59.96 8.75 0 0 -17.51 26.27 0 0 -7.43 -26.27 0 0 -17.51 8.76 0 0 -8.76m17.51 -8.75l-17.51 0 0 8.75 17.51 0 0 -8.75m-194.75 60.55l0 0"
   id="path1942" />
   <path
   fill="#000000"
   d="M3114.36 2131.53c-79.06,-343.99 -283.75,-358.96 -331.88,-358.96l0 -20.11c106.73,0 279.25,76.17 341.94,337.6 80.31,-260.88 217.46,-330.9 313.71,-332.23 91.73,-1.26 148.3,20.11 235.25,65.42l0 -40.83 251 0 0 -34.41 20.11 0 0 34.41 42.56 0 0 20.11 -42.56 0 0 491.85 180.51 -456.28 172.93 0 15.08 -35.57 -215.5 0 0 -20.11 224.02 0 23.69 -55.9 18.51 7.86 -20.36 48.04 47.68 0 0 20.11 -56.2 0 -140.67 332 186.3 0 0 248.83c174.36,-85.82 382.97,-22.85 488.11,145.15 104.29,-160.76 308.04,-224.83 485.56,-152.68l-7.07 -11.42 300.04 0 59.94 96.91 58.54 -94.66c0.87,-1.4 2.4,-2.25 4.04,-2.25l0 0c1.73,0 3.32,0.93 4.15,2.44 0.84,1.51 0.8,3.34 -0.1,4.81l-61.04 98.69 7.82 12.64 71.95 -116.33c0.86,-1.4 2.39,-2.25 4.04,-2.25l0 0c1.73,0 3.31,0.93 4.15,2.44 0.83,1.51 0.79,3.34 -0.11,4.81l-74.45 120.36 7.82 12.65 86.75 -140.26 300.04 0 -236.77 382.81 7.82 12.65 249.84 -403.93 -311.69 0c-1.73,0 -3.32,-0.93 -4.15,-2.44 -0.84,-1.51 -0.8,-3.35 0.11,-4.82l0 0c0.87,-1.39 2.39,-2.25 4.04,-2.25l328.74 0 -247.89 400.79 231.89 374.93c0.91,1.46 0.95,3.31 0.11,4.81 -0.84,1.51 -2.43,2.44 -4.14,2.44 -1.66,0 -3.18,-0.85 -4.05,-2.25l-229.4 -370.9 -7.82 12.65 222.98 360.5 -300.04 0 -57.32 -92.66 -55.92 90.41c-0.87,1.4 -2.39,2.25 -4.03,2.25l0 0c-0.78,0 -1.55,-0.19 -2.23,-0.56 -0.69,0.37 -1.46,0.56 -2.24,0.56 -1.73,0 -3.32,-0.93 -4.16,-2.44 -0.83,-1.5 -0.79,-3.35 0.11,-4.81l60.65 -98.05 -7.82 -12.65 -71.56 115.7c-0.86,1.4 -2.4,2.25 -4.04,2.25 -1.73,0 -3.31,-0.93 -4.15,-2.44 -0.84,-1.5 -0.79,-3.35 0.11,-4.81l74.06 -119.74 -7.83 -12.64 -86.36 139.63 -300.04 0 8.79 -14.2c-177.67,73.39 -382.41,9.85 -487.31,-151.24 -105,168.4 -313.88,230.02 -488.47,144.1l0 21.34 -254.93 0 0 -1.91 -42.09 0 18.39 51.88 -18.97 6.72 -20.75 -58.6 -80.82 0 0 -20.12 73.7 0 -150.16 -423.86 -8.88 21.62 0 424.27 -166.28 0 0 -1291.3 166.28 0 0 578.91 28.41 -71.78 0 -542.7 -230.89 0 0 58.79c-100.16,-67.36 -167.28,-83.38 -255.36,-83.38 -69.72,0 -222.76,50.83 -303.66,353.59l-20.11 0zm360.18 1025.01l-317.04 0.02 0 -20.12 216.51 0c-164.99,-73.26 -236.88,-338.38 -236.88,-652.69 0,-370.57 99.88,-672.8 334.53,-672.8 107.83,0 169.1,55.39 221.83,105.87l0 32.93c0.01,0.03 0.03,0.06 0.05,0.08l-0.01 279.05 -17.91 0c-38.88,-70.83 -110.35,-170.31 -184.17,-170.31 -123.02,0 -183.88,190.54 -182.33,425.18 -1.55,234.65 59.31,425.19 182.33,425.19 73.82,0 145.29,-99.48 184.17,-170.32l17.91 0 0.01 279.04c-0.02,0.04 -0.04,0.06 -0.05,0.1l0 32.92c-52.26,50.03 -112.91,104.88 -218.95,105.86zm-694.5 -1345.59c232.63,0 331.66,317.27 331.66,672.8 0,355.53 -99.03,672.81 -331.66,672.81 -232.63,0 -331.65,-302.24 -331.65,-672.81 0,-370.57 99.02,-672.8 331.65,-672.8zm-579.14 27.15l-302.9 0 0 749.9c1.96,5.25 3.9,10.49 5.83,15.74 13.6,-3.72 27.71,-5.23 41.78,-4.48 27.55,1.48 52.37,17.11 65.6,41.31 11.96,21.88 17.65,46.62 16.45,71.52 -0.5,10.42 -3.24,20.59 -8.03,29.84 -11.77,22.73 -29.93,41.51 -52.24,54.04 7.55,25.63 14.76,51.34 21.64,77.16 13.16,49.38 19.35,100.36 18.36,151.46 -0.25,13.19 -3.11,26.19 -8.41,38.25 -5.43,12.37 -14.96,22.51 -26.97,28.69 -8.71,4.49 -18.89,5.23 -28.16,2.05 -9.27,-3.17 -16.85,-9.99 -20.99,-18.88 -4.82,-10.35 -7.17,-21.67 -6.88,-33.08 0.15,-6.43 3.26,-12.42 8.42,-16.26 6.49,-4.84 14.47,-7.27 22.56,-6.89 5.31,0.26 10.07,3.37 12.45,8.12 2.38,4.76 2,10.43 -0.98,14.84 -3.67,5.42 -9.06,9.46 -15.3,11.47l2.14 4.66c1,2.64 3.24,4.62 5.98,5.3 2.75,0.68 5.65,-0.02 7.78,-1.89 10.45,-8.91 16.96,-21.58 18.1,-35.26 1.52,-23.58 1.02,-47.23 -1.49,-70.73 -7.35,-50.18 -18.28,-99.76 -32.72,-148.38 -3.71,1.17 -7.46,2.18 -11.26,3.03 -11.11,2.48 -22.35,4.4 -33.66,5.77l0 314 202.72 0 0 41.99 20.11 0 0 -41.99 43.18 0 0 -20.12 -43.18 0 0 -452.78 19.42 0 176.91 472.9 194.28 0 17.56 44.82 18.73 -7.35 -17.46 -44.55 60.62 0 0 -20.11 -68.5 0 -209.21 -533.98c77,-79.42 121.19,-198.98 121.19,-350.83 0,-203.5 -55.1,-379.3 -233.47,-379.3zm-266.82 940.17c-11.55,4.76 -23.68,7.95 -36.08,9.48l0 -114.43c12.48,34.68 24.46,69.55 35.95,104.56 0.05,0.14 0.09,0.26 0.13,0.39 0,0 0,0 0,0 0,0 0,0 0,0 0,0 0,0 0,0m-18.99 -143.36c3.96,-1.09 7.95,-2 11.98,-2.76 12.63,-2.35 25.68,0.71 35.95,8.42 9.36,7.02 16.09,16.97 19.14,28.27 6.79,25.18 5.31,51.88 -4.22,76.15 -2,5.1 -5.3,9.58 -9.56,13.01 -3.27,2.63 -6.66,5.11 -10.16,7.43 -13.41,-43.82 -27.79,-87.34 -43.13,-130.52m-17.09 152.84c-3.17,0.39 -6.36,0.67 -9.56,0.84 -34.83,1.9 -67.22,-17.88 -81.47,-49.72 -25.28,-56.51 -28.95,-120.34 -10.33,-179.39 6.55,-20.73 13.3,-41.38 20.28,-61.96 1.92,-5.7 3.87,-11.39 5.85,-17.07 18.69,44.41 36.57,89.16 53.61,134.24 -24.29,13 -43.87,33.29 -56.02,58.01 -2.01,4.08 -1.22,8.99 1.97,12.24 3.18,3.26 8.07,4.15 12.2,2.22 3.58,-2.58 6.9,-5.5 9.93,-8.72 12.27,-13.62 26.98,-24.84 43.36,-33.07 3.43,9.3 6.82,18.62 10.18,27.95l0 -85.32c-16.13,-43.16 -33.21,-85.96 -51.25,-128.35 -2.99,-7.02 -6.04,-14.02 -9.15,-20.97 3.75,-10.31 7.57,-20.6 11.44,-30.86 5.53,-14.64 9.76,-29.74 12.63,-45.14 3.24,-17.4 1.78,-35.35 -4.22,-52.01 -13.66,-37.96 -40,-70.04 -74.58,-90.84 -15.21,-9.15 -32.74,-13.67 -50.48,-13.01 -14.86,0.56 -26.86,12.32 -27.73,27.16 -0.79,13.47 2.33,26.89 8.98,38.63 6.16,10.87 12.8,21.47 19.89,31.74 21.89,31.73 40.81,65.41 56.51,100.6 3.09,6.93 6.16,13.86 9.21,20.8 -4.79,13.18 -9.49,26.39 -14.08,39.64 -21.31,61.47 -35.06,125.31 -40.93,190.1 -2.77,30.58 -0.05,61.41 8.04,91.03 11.08,40.64 47.21,69.43 89.31,71.14 18.83,0.77 37.7,0.02 56.41,-2.26l0 -27.65m275.45 -1003.42l-313.16 0 0 -48.79 -20.11 0 0 48.79 -46.84 0 0 20.11 46.84 0 0 224.04 20.11 0 0 -224.04 313.16 0 0 -20.11"
   id="path1944" />
   <path
   fill="#B4C3D3"
   d="M6067.8 2393.87l-230.76 0 -103.17 166.8 -103.17 -166.8 -230.76 0 43.27 69.96c-88.08,-74.77 -206.04,-104.11 -318.88,-79.32 -112.84,24.78 -207.64,100.87 -256.27,205.68 -43.58,-97.5 -125.6,-170.49 -224.8,-200.03 -99.21,-29.54 -205.83,-12.75 -292.24,46.05l0 -276.82 -196.01 0 0 935.96 196.01 0 0 -37.75c86.56,58.9 193.4,75.65 292.73,45.9 99.34,-29.75 181.36,-103.06 224.75,-200.87 49.17,105.22 144.89,181.25 258.5,205.34 113.61,24.07 231.94,-6.58 319.57,-82.8l-46.24 74.77 230.77 0 102.77 -166.16 102.78 166.16 230.77 0 -218.16 -352.72 218.54 -353.35z"
   id="path1946" />
   <path
   fill="#000000"
   d="M4699.47 2745.95c0,-96.23 -78.01,-174.23 -174.22,-174.23 -96.22,0 -174.22,78 -174.22,174.23 0,96.22 78,174.23 174.22,174.23 96.21,0 174.22,-78.01 174.22,-174.23zm863.62 -88.3c14.6,59.46 14.24,121.61 -1.09,180.9l56.49 -91.33 -55.4 -89.57m-185.13 88.3c0,-96.23 -78.01,-174.23 -174.23,-174.23 -96.22,0 -174.22,78 -174.22,174.23 0,96.22 78,174.23 174.22,174.23 96.22,0 174.23,-78.01 174.23,-174.23z"
   id="path1948" />
   <path
   fill="#FFC000"
   d="M2064.28 3109.28l36.44 0 0 -452.78 -36.44 0 0 452.78m75.23 -738.18c61.44,0 71.08,-77.9 71.01,-131.37 -0.05,-53.46 -7.82,-111.48 -61.44,-111.48l-84.8 0 0 295.45 36.44 0 0 -52.6 38.79 0zm0 20.11l-18.68 0 0 32.49 1.28 0c136.95,0 136.95,-122.63 136.95,-165.23l0 -27.51c0,-41.31 -0.28,-155.3 -115.59,-155.3l-79.19 0 0 32.47 75.23 0c39.13,0 91.63,5.57 91.63,136.8 0,131.22 -52.76,145.19 -91.63,146.28zm-326.09 -3.59c-15.76,-31.45 -32.82,-62.26 -51.11,-92.3 -5.83,-9.56 -11.09,-19.44 -15.77,-29.59 -3.05,-6.63 -4.87,-13.76 -5.36,-21.04 -0.1,-1.57 0.47,-3.11 1.56,-4.24 1.09,-1.13 2.61,-1.74 4.18,-1.68 7.56,0.25 14.93,2.42 21.42,6.3 27.91,16.7 47.79,44.04 55.08,75.74 2.12,9.24 2.19,18.83 0.19,28.11 -2.82,13.05 -6.21,25.97 -10.19,38.7l0 0m3385.57 503.02l9.49 0c78.99,-2.6 141.29,-68.05 139.99,-147.07 -1.29,-79.01 -65.71,-142.39 -144.74,-142.39 -79.02,0 -143.44,63.38 -144.74,142.39 -1.3,79.02 61.01,144.47 140,147.07zm-678.49 0l9.49 0c78.99,-2.6 141.3,-68.05 140,-147.07 -1.3,-79.01 -65.72,-142.39 -144.74,-142.39 -79.03,0 -143.45,63.38 -144.75,142.39 -1.29,79.02 61.01,144.47 140,147.07zm-453.84 -455.17l58.89 152.34 0 -291.33 -58.89 138.99m9.68 671.9l-160.03 -451.77 18.76 -45.7 184.93 497.47 -43.66 0m-1296.3 -1053.17c112.02,0 159.68,202.54 159.68,429.55 0,227 -47.66,429.55 -159.68,429.55 -112.02,0 -159.67,-192.97 -159.67,-429.55 0,-236.58 47.65,-429.55 159.67,-429.55z"
   id="path1950" />
   <path
   fill="#000000"
   d="M5198.99 2890.64c3.16,0.23 6.32,0.21 9.49,0l0 -13.31c71.66,-2.6 128.01,-62.12 126.69,-133.8 -1.31,-71.68 -59.83,-129.1 -131.53,-129.05 -1.72,-0.03 -3.14,0.88 -4,2.35 -0.87,1.49 -0.87,3.32 0,4.81 0.86,1.47 2.29,2.37 4.01,2.35 44.14,-0.03 84.87,23.79 106.46,62.3 21.59,38.51 20.68,85.69 -2.35,123.34 -23.05,37.65 -64.66,59.91 -108.77,58.19l0 22.82zm-673.74 -36.03c-2.63,0 -4.75,-2.13 -4.75,-4.75 0,-2.63 2.12,-4.75 4.75,-4.75 54.76,0 99.15,-44.4 99.15,-99.16 0,-54.77 -44.39,-99.16 -99.15,-99.16 -2.63,0 -4.75,-2.13 -4.75,-4.75 0,-2.63 2.12,-4.75 4.75,-4.75 60.01,0 108.65,48.64 108.65,108.66 0,60.01 -48.64,108.66 -108.65,108.66zm678.48 0c-2.62,0 -4.74,-2.13 -4.74,-4.75 0,-2.63 2.12,-4.75 4.74,-4.75 54.76,0 99.16,-44.4 99.16,-99.16 0,-54.77 -44.4,-99.16 -99.16,-99.16 -2.62,0 -4.74,-2.13 -4.74,-4.75 0,-2.63 2.12,-4.75 4.74,-4.75 60.02,0 108.66,48.64 108.66,108.66 0,60.01 -48.64,108.66 -108.66,108.66zm-683.23 36.03c3.16,0.15 6.33,0.11 9.49,0l0 -13.31c71.66,-2.6 128.01,-62.12 126.69,-133.8 -1.31,-71.68 -59.83,-129.1 -131.52,-129.05 -1.73,-0.03 -3.15,0.88 -4.01,2.35 -0.86,1.49 -0.87,3.32 0,4.81 0.86,1.47 2.29,2.37 4.01,2.35 44.15,-0.03 84.87,23.79 106.46,62.3 21.6,38.51 20.69,85.69 -2.35,123.34 -23.05,37.65 -64.66,59.91 -108.77,58.19l0 22.82zm-1740.46 -37.79l0 -49.68 -20.11 0 0 52.9 0 20.12c108.72,0 140.64,-184.64 141.39,-382.39l457.59 0c1.08,139.21 31.61,352.27 122.49,366.97l0 52.53 20.11 0 0 -419.5 80.06 0 0 -20.11 -80.06 0 0 -72.56 -20.11 0 0 72.56 -102.32 0c2.19,-137.97 40.73,-339.69 112.37,-342.97l0 -20.11c-93.96,3.65 -130.5,218.94 -132.49,363.08l-457.67 0c-1.3,-196.81 -33.09,-379.94 -141.36,-379.94l0 19.3 0 360.64 -61.46 0 0 20.11 61.46 0 0 70.25 20.11 0 0 -70.25 101.14 0c-1.01,126.58 -16.95,331.11 -101.14,359.05z"
   id="path1952" />
   <path
   fill="#FFC000"
   d="M3379.03 2493.8c1.3,131.79 34.66,328.54 102.37,346.41l0 -346.41 -102.37 0zm-497.82 -20.11l-101.17 0 0 -357.39c83.75,27.84 100.57,230.6 101.17,357.39z"
   id="path1954" />
  </g>
 </g>
 <g
   id="Haupt_x0020_Desktop">
 </g>
<g
   inkscape:groupmode="layer"
   id="layer1"
   inkscape:label="Text"><path
     style="fill:none;fill-opacity:0.75;fill-rule:evenodd;stroke:#000000;stroke-width:28.22222167;stroke-linecap:butt;stroke-linejoin:miter;stroke-opacity:1;stroke-miterlimit:4;stroke-dasharray:none"
     d="M 1573.532,10346.054 L -773.43096,10346.054"
     id="path1503"
     inkscape:export-filename="/home/martin/src/dev/pics/pixelma/two/ipodcolor-front.png"
     inkscape:export-xdpi="72"
     inkscape:export-ydpi="72" /><path
     style="fill:none;fill-opacity:0.75;fill-rule:evenodd;stroke:#000000;stroke-width:28.22222167;stroke-linecap:butt;stroke-linejoin:miter;stroke-opacity:1;stroke-miterlimit:4;stroke-dasharray:none"
     d="M 2667.0033,8772.5222 L -586.74073,7519.0307"
     id="path1505"
     inkscape:export-filename="/home/martin/src/dev/pics/pixelma/two/ipodcolor-front.png"
     inkscape:export-xdpi="72"
     inkscape:export-ydpi="72" /><path
     style="fill:none;fill-opacity:0.75;fill-rule:evenodd;stroke:#000000;stroke-width:28.22222167;stroke-linecap:butt;stroke-linejoin:miter;stroke-opacity:1;stroke-miterlimit:4;stroke-dasharray:none"
     d="M 4453.8955,7519.0307 L 9494.5318,5598.7883"
     id="path1507"
     inkscape:export-filename="/home/martin/src/dev/pics/pixelma/two/ipodcolor-front.png"
     inkscape:export-xdpi="72"
     inkscape:export-ydpi="72" /><path
     style="fill:none;fill-opacity:0.75;fill-rule:evenodd;stroke:#000000;stroke-width:28.22222167;stroke-linecap:butt;stroke-linejoin:miter;stroke-opacity:1;stroke-miterlimit:4;stroke-dasharray:none"
     d="M 6400.808,8799.1922 L 9654.552,7812.401"
     id="path1509"
     inkscape:export-filename="/home/martin/src/dev/pics/pixelma/two/ipodcolor-front.png"
     inkscape:export-xdpi="72"
     inkscape:export-ydpi="72" /><path
     style="fill:none;fill-opacity:0.75;fill-rule:evenodd;stroke:#000000;stroke-width:28.22222167;stroke-linecap:butt;stroke-linejoin:miter;stroke-opacity:1;stroke-miterlimit:4;stroke-dasharray:none"
     d="M 7387.5992,10319.384 L 9574.5419,10319.384"
     id="path1511"
     inkscape:export-filename="/home/martin/src/dev/pics/pixelma/two/ipodcolor-front.png"
     inkscape:export-xdpi="72"
     inkscape:export-ydpi="72" /><path
     style="fill:none;fill-opacity:0.75;fill-rule:evenodd;stroke:#000000;stroke-width:28.22222167;stroke-linecap:butt;stroke-linejoin:miter;stroke-opacity:1;stroke-miterlimit:4;stroke-dasharray:none"
     d="M 4427.2255,13173.078 C 4293.8753,13199.748 -800.101,14799.95 -800.101,14799.95"
     id="path2388"
     inkscape:export-filename="/home/martin/src/dev/pics/pixelma/two/ipodcolor-front.png"
     inkscape:export-xdpi="72"
     inkscape:export-ydpi="72" /><path
     style="fill:none;fill-opacity:0.75;fill-rule:evenodd;stroke:#000000;stroke-width:28.22222167;stroke-linecap:butt;stroke-linejoin:miter;stroke-opacity:1;stroke-miterlimit:4;stroke-dasharray:none"
     d="M 4640.5858,10612.755 L 9707.8921,14613.259"
     id="path2390"
     inkscape:export-filename="/home/martin/src/dev/pics/pixelma/two/ipodcolor-front.png"
     inkscape:export-xdpi="72"
     inkscape:export-ydpi="72" /><text
     xml:space="preserve"
     style="font-size:790.222229px;font-style:normal;font-variant:normal;font-weight:normal;font-stretch:normal;text-align:start;line-height:100%;writing-mode:lr-tb;text-anchor:start;fill:#000000;fill-opacity:1;stroke:none;stroke-width:1px;stroke-linecap:butt;stroke-linejoin:miter;stroke-opacity:1;font-family:URW Palladio L"
     x="-4560.5757"
     y="7759.061"
     id="text2392"
     sodipodi:linespacing="100%"
     inkscape:export-filename="/home/martin/src/dev/pics/pixelma/two/ipodcolor-front.png"
     inkscape:export-xdpi="72"
     inkscape:export-ydpi="72"><tspan
       sodipodi:role="line"
       id="tspan2394"
       x="-4560.5757"
       y="7759.061">Scroll Back</tspan></text>
<text
     xml:space="preserve"
     style="font-size:790.222229px;font-style:normal;font-variant:normal;font-weight:normal;font-stretch:normal;text-align:start;line-height:100%;writing-mode:lr-tb;text-anchor:start;fill:#000000;fill-opacity:1;stroke:none;stroke-width:1px;stroke-linecap:butt;stroke-linejoin:miter;stroke-opacity:1;font-family:URW Palladio L"
     x="-4653.77"
     y="10528.398"
     id="text2396"
     sodipodi:linespacing="100%"
     inkscape:export-filename="/home/martin/src/dev/pics/pixelma/two/ipodcolor-front.png"
     inkscape:export-xdpi="72"
     inkscape:export-ydpi="72"><tspan
       sodipodi:role="line"
       id="tspan2398"
       x="-4653.77"
       y="10528.398">Prev</tspan></text>
<text
     xml:space="preserve"
     style="font-size:790.222229px;font-style:normal;font-variant:normal;font-weight:normal;font-stretch:normal;text-align:start;line-height:100%;writing-mode:lr-tb;text-anchor:start;fill:#000000;fill-opacity:1;stroke:none;stroke-width:1px;stroke-linecap:butt;stroke-linejoin:miter;stroke-opacity:1;font-family:URW Palladio L"
     x="-4733.7808"
     y="15008.964"
     id="text2400"
     sodipodi:linespacing="100%"
     inkscape:export-filename="/home/martin/src/dev/pics/pixelma/two/ipodcolor-front.png"
     inkscape:export-xdpi="72"
     inkscape:export-ydpi="72"><tspan
       sodipodi:role="line"
       id="tspan2402"
       x="-4733.7808"
       y="15008.964">Play</tspan></text>
<text
     xml:space="preserve"
     style="font-size:790.222229px;font-style:normal;font-variant:normal;font-weight:normal;font-stretch:normal;text-align:start;line-height:100%;writing-mode:lr-tb;text-anchor:start;fill:#000000;fill-opacity:1;stroke:none;stroke-width:1px;stroke-linecap:butt;stroke-linejoin:miter;stroke-opacity:1;font-family:URW Palladio L"
     x="9828.0576"
     y="14875.613"
     id="text2404"
     sodipodi:linespacing="100%"
     inkscape:export-filename="/home/martin/src/dev/pics/pixelma/two/ipodcolor-front.png"
     inkscape:export-xdpi="72"
     inkscape:export-ydpi="72"><tspan
       sodipodi:role="line"
       id="tspan2406"
       x="9828.0576"
       y="14875.613">Select</tspan></text>
<text
     xml:space="preserve"
     style="font-size:790.222229px;font-style:normal;font-variant:normal;font-weight:normal;font-stretch:normal;text-align:start;line-height:100%;writing-mode:lr-tb;text-anchor:start;fill:#000000;fill-opacity:1;stroke:none;stroke-width:1px;stroke-linecap:butt;stroke-linejoin:miter;stroke-opacity:1;font-family:URW Palladio L"
     x="9668.0371"
     y="10555.068"
     id="text2408"
     sodipodi:linespacing="100%"
     inkscape:export-filename="/home/martin/src/dev/pics/pixelma/two/ipodcolor-front.png"
     inkscape:export-xdpi="72"
     inkscape:export-ydpi="72"><tspan
       sodipodi:role="line"
       id="tspan2410"
       x="9668.0371"
       y="10555.068">Next</tspan></text>
<text
     xml:space="preserve"
     style="font-size:790.222229px;font-style:normal;font-variant:normal;font-weight:normal;font-stretch:normal;text-align:start;line-height:100%;writing-mode:lr-tb;text-anchor:start;fill:#000000;fill-opacity:1;stroke:none;stroke-width:1px;stroke-linecap:butt;stroke-linejoin:miter;stroke-opacity:1;font-family:URW Palladio L"
     x="9721.3779"
     y="8021.415"
     id="text2412"
     sodipodi:linespacing="100%"
     inkscape:export-filename="/home/martin/src/dev/pics/pixelma/two/ipodcolor-front.png"
     inkscape:export-xdpi="72"
     inkscape:export-ydpi="72"><tspan
       sodipodi:role="line"
       id="tspan2414"
       x="9721.3779"
       y="8021.415">Scroll Fwd</tspan></text>
<text
     xml:space="preserve"
     style="font-size:790.222229px;font-style:normal;font-variant:normal;font-weight:normal;font-stretch:normal;text-align:start;line-height:100%;writing-mode:lr-tb;text-anchor:start;fill:#000000;fill-opacity:1;stroke:none;stroke-width:1px;stroke-linecap:butt;stroke-linejoin:miter;stroke-opacity:1;font-family:URW Palladio L"
     x="9614.6973"
     y="5807.8022"
     id="text2416"
     sodipodi:linespacing="100%"
     inkscape:export-filename="/home/martin/src/dev/pics/pixelma/two/ipodcolor-front.png"
     inkscape:export-xdpi="72"
     inkscape:export-ydpi="72"><tspan
       sodipodi:role="line"
       id="tspan2418"
       x="9614.6973"
       y="5807.8022">Menu</tspan></text>
<text
     xml:space="preserve"
     style="font-size:790.222229px;font-style:normal;font-variant:normal;font-weight:normal;font-stretch:normal;text-align:start;line-height:100%;writing-mode:lr-tb;text-anchor:start;fill:#000000;fill-opacity:1;stroke:none;stroke-width:1px;stroke-linecap:butt;stroke-linejoin:miter;stroke-opacity:1;font-family:URW Palladio L"
     x="5997.0225"
     y="-377.17142"
     id="text2420"
     sodipodi:linespacing="100%"
     inkscape:export-filename="/home/martin/src/dev/pics/pixelma/two/ipodcolor-front.png"
     inkscape:export-xdpi="72"
     inkscape:export-ydpi="72"><tspan
       sodipodi:role="line"
       id="tspan2422"
       x="5997.0225"
       y="-377.17142">Hold</tspan></text>
</g></svg>