<?xml version="1.0" encoding="UTF-8" standalone="no"?>
<!-- Creator: CorelDRAW -->

<svg
   xmlns:dc="http://purl.org/dc/elements/1.1/"
   xmlns:cc="http://creativecommons.org/ns#"
   xmlns:rdf="http://www.w3.org/1999/02/22-rdf-syntax-ns#"
   xmlns:svg="http://www.w3.org/2000/svg"
   xmlns="http://www.w3.org/2000/svg"
   xmlns:xlink="http://www.w3.org/1999/xlink"
   xmlns:sodipodi="http://sodipodi.sourceforge.net/DTD/sodipodi-0.dtd"
   xmlns:inkscape="http://www.inkscape.org/namespaces/inkscape"
   xml:space="preserve"
   width="8.26772in"
   height="11.6929in"
   style="shape-rendering:geometricPrecision; text-rendering:geometricPrecision; image-rendering:optimizeQuality; fill-rule:evenodd"
   viewBox="0 0 8267.72 11692.9"
   id="svg2962"
   sodipodi:version="0.32"
   inkscape:version="0.47 r22583"
   sodipodi:docname="ipodnano2g-front.svg"
   inkscape:output_extension="org.inkscape.output.svg.inkscape"
   version="1.1"><metadata
   id="metadata3079"><rdf:RDF><cc:Work
       rdf:about=""><dc:format>image/svg+xml</dc:format><dc:type
         rdf:resource="http://purl.org/dc/dcmitype/StillImage" /></cc:Work></rdf:RDF></metadata><sodipodi:namedview
   inkscape:window-height="689"
   inkscape:window-width="1014"
   inkscape:pageshadow="2"
   inkscape:pageopacity="0.0"
   guidetolerance="10.0"
   gridtolerance="10.0"
   objecttolerance="10.0"
   borderopacity="1.0"
   bordercolor="#666666"
   pagecolor="#ffffff"
   id="base"
   showgrid="false"
   inkscape:zoom="0.85367969"
   inkscape:cx="391.64693"
   inkscape:cy="551.51325"
   inkscape:window-x="0"
   inkscape:window-y="26"
   inkscape:current-layer="layer1"
   showguides="true"
   inkscape:guide-bbox="true"
   inkscape:window-maximized="0" />
 <defs
   id="defs2964"><linearGradient
   id="linearGradient4003"><stop
     style="stop-color:#0080b0;stop-opacity:1;"
     offset="0"
     id="stop4005" /><stop
     id="stop4019"
     offset="0.48383141"
     style="stop-color:#0087ba;stop-opacity:1;" /><stop
     id="stop4015"
     offset="0.92595321"
     style="stop-color:#04a0d3;stop-opacity:1;" /><stop
     id="stop4013"
     offset="0.92595321"
     style="stop-color:#0ab0dc;stop-opacity:1;" /><stop
     style="stop-color:#0aace1;stop-opacity:1;"
     offset="0.92792791"
     id="stop4017" /><stop
     style="stop-color:#123b51;stop-opacity:1;"
     offset="1"
     id="stop4007" /></linearGradient><inkscape:perspective
   sodipodi:type="inkscape:persp3d"
   inkscape:vp_x="0 : 526.18048 : 1"
   inkscape:vp_y="0 : 1000 : 0"
   inkscape:vp_z="744.09485 : 526.18048 : 1"
   inkscape:persp3d-origin="372.04742 : 350.78699 : 1"
   id="perspective3081" />
  <style
   type="text/css"
   id="style2966">
   
    .str1 {stroke:#125775;stroke-width:5.90551;stroke-linejoin:bevel}
    .str0 {stroke:#131516;stroke-width:7.08661;stroke-linejoin:bevel}
    .str2 {stroke:#43424B;stroke-width:19.685;stroke-linejoin:bevel}
    .fil3 {fill:#FFFFFF}
    .fil4 {fill:#00A3DC}
    .fil6 {fill:#131516}
    .fil1 {fill:#73717F}
    .fil11 {fill:#A9BECD}
    .fil5 {fill:#BAC2C9}
    .fil2 {fill:#C7D1DC}
    .fil9 {fill:#EFAF04}
    .fil8 {fill:#FFFFFF}
    .fil7 {fill:url(#id0)}
    .fil0 {fill:url(#id1)}
    .fil10 {fill:url(#id2)}
   
  </style>
  <linearGradient
   id="id0"
   gradientUnits="userSpaceOnUse"
   x1="3184.64"
   y1="2893.7"
   x2="3593.49"
   y2="2893.7">
   <stop
   offset="0"
   style="stop-color:#485053;stop-opacity:1;"
   id="stop2969" />
   <stop
   offset="0.09932351"
   style="stop-color:#ffffff;stop-opacity:1;"
   id="stop2971" />
   
   
   <stop
   offset="0.90262955"
   style="stop-color:#ffffff;stop-opacity:1;"
   id="stop2977" />
   
   <stop
   offset="1"
   style="stop-color:#484f53;stop-opacity:1;"
   id="stop2981" />
  </linearGradient>
  <linearGradient
   id="id1"
   gradientUnits="userSpaceOnUse"
   x1="2839.09"
   y1="5864.76"
   x2="5428.62"
   y2="5864.76">
   <stop
   offset="0"
   style="stop-color:#123b51;stop-opacity:1;"
   id="stop2984" />
   <stop
   offset="0.0588235"
   style="stop-color:#0ab0e8;stop-opacity:1;"
   id="stop2986" />
   <stop
   offset="0.0901961"
   style="stop-color:#009BD5"
   id="stop2988" /><stop
   id="stop3999"
   style="stop-color:#009bd5;stop-opacity:1;"
   offset="0.91000003" />
   <stop
   offset="0.94297421"
   style="stop-color:#0ab1e8;stop-opacity:1;"
   id="stop2990" />
   
   
   <stop
   offset="1"
   style="stop-color:#123b51;stop-opacity:1;"
   id="stop2996" />
  </linearGradient>
  <linearGradient
   id="id2"
   gradientUnits="userSpaceOnUse"
   x1="4877.33"
   y1="3743.74"
   x2="4910.75"
   y2="3934.38">
   <stop
   offset="0"
   style="stop-color:#EFB000"
   id="stop2999" />
   <stop
   offset="0.6"
   style="stop-color:#A5732B"
   id="stop3001" />
   <stop
   offset="1"
   style="stop-color:#492A28"
   id="stop3003" />
   <stop
   offset="1"
   style="stop-color:#492A28"
   id="stop3005" />
  </linearGradient>
 
  
 
   
   
   
   
   
   
   
   
   
   
  <linearGradient
   inkscape:collect="always"
   xlink:href="#id0"
   id="linearGradient3974"
   gradientUnits="userSpaceOnUse"
   x1="3184.64"
   y1="2893.7"
   x2="3593.49"
   y2="2893.7"
   gradientTransform="matrix(1.2960302,0,0,0.6504903,-1085.6918,1015.9771)" /><linearGradient
   inkscape:collect="always"
   xlink:href="#id1"
   id="linearGradient3997"
   gradientUnits="userSpaceOnUse"
   x1="2839.09"
   y1="5864.76"
   x2="5428.62"
   y2="5864.76" /><radialGradient
   inkscape:collect="always"
   xlink:href="#linearGradient4003"
   id="radialGradient4009"
   cx="4133.864"
   cy="6734.082"
   fx="4133.864"
   fy="6734.082"
   r="419.55875"
   gradientTransform="matrix(1,0,0,1.0000048,0,-3.2100782e-2)"
   gradientUnits="userSpaceOnUse" /><inkscape:perspective
   id="perspective3244"
   inkscape:persp3d-origin="372.04724 : 350.78739 : 1"
   inkscape:vp_z="744.09448 : 526.18109 : 1"
   inkscape:vp_y="0 : 1000 : 0"
   inkscape:vp_x="0 : 526.18109 : 1"
   sodipodi:type="inkscape:persp3d" /><inkscape:perspective
   id="perspective3254"
   inkscape:persp3d-origin="372.04724 : 350.78739 : 1"
   inkscape:vp_z="744.09448 : 526.18109 : 1"
   inkscape:vp_y="0 : 1000 : 0"
   inkscape:vp_x="0 : 526.18109 : 1"
   sodipodi:type="inkscape:persp3d" /><inkscape:perspective
   id="perspective3264"
   inkscape:persp3d-origin="372.04724 : 350.78739 : 1"
   inkscape:vp_z="744.09448 : 526.18109 : 1"
   inkscape:vp_y="0 : 1000 : 0"
   inkscape:vp_x="0 : 526.18109 : 1"
   sodipodi:type="inkscape:persp3d" /><inkscape:perspective
   id="perspective3294"
   inkscape:persp3d-origin="372.04724 : 350.78739 : 1"
   inkscape:vp_z="744.09448 : 526.18109 : 1"
   inkscape:vp_y="0 : 1000 : 0"
   inkscape:vp_x="0 : 526.18109 : 1"
   sodipodi:type="inkscape:persp3d" /><inkscape:perspective
   id="perspective3311"
   inkscape:persp3d-origin="372.04724 : 350.78739 : 1"
   inkscape:vp_z="744.09448 : 526.18109 : 1"
   inkscape:vp_y="0 : 1000 : 0"
   inkscape:vp_x="0 : 526.18109 : 1"
   sodipodi:type="inkscape:persp3d" /></defs>
 <rect
   class="fil0 str0"
   x="2839.0901"
   y="2912.01"
   width="2589.53"
   height="5905.5098"
   id="rect3010"
   style="fill:url(#linearGradient3997);stroke:#131516;stroke-width:7.08660984;stroke-linejoin:bevel"
   inkscape:export-filename="D:\Dokumente und Einstellungen\Marianne\Eigene Dateien\Rockbox\Temp\Nano2G\ipodnano2g-small.png"
   inkscape:export-xdpi="13.447149"
   inkscape:export-ydpi="13.447149" /><path
   class="fil1 str1"
   d="M 3156.29,3194.35 L 5111.44,3194.35 C 5144.1565,3194.35 5170.6762,3220.8736 5170.6762,3253.5862 L 5170.6762,4711.5362 C 5170.6762,4744.2527 5144.1565,4770.7724 5111.44,4770.7724 L 3156.29,4770.7724 C 3123.5735,4770.7724 3097.0498,4744.2527 3097.0498,4711.5362 L 3097.0498,3253.5862 C 3097.0498,3220.8736 3123.5734,3194.35 3156.29,3194.35 L 3156.29,3194.35 z"
   id="path3012"
   style="fill:#35343b;stroke:#08425a;stroke-width:5.90550994999999990;stroke-linejoin:bevel;stroke-opacity:1;fill-opacity:1"
   inkscape:export-filename="D:\Dokumente und Einstellungen\Marianne\Eigene Dateien\Rockbox\Temp\Nano2G\ipodnano2g-small.png"
   inkscape:export-xdpi="13.447149"
   inkscape:export-ydpi="13.447149" /><path
   class="fil2 str2"
   d="M 3156.29,3229.16 L 5111.44,3229.16 C 5124.9321,3229.16 5135.8691,3240.097 5135.8691,3253.5891 L 5135.8691,4711.5391 C 5135.8691,4718.0194 5133.2982,4724.232 5128.7156,4728.8147 C 5124.1329,4733.3974 5117.9203,4735.9722 5111.44,4735.9722 L 3156.29,4735.9722 C 3149.8097,4735.9722 3143.5931,4733.3974 3139.0144,4728.8147 C 3134.4317,4724.232 3131.8569,4718.0194 3131.8569,4711.5391 L 3131.8569,3253.5891 C 3131.8569,3240.097 3142.7939,3229.16 3156.29,3229.16 L 3156.29,3229.16 z"
   id="path3014"
   style="fill:#11161c;stroke:#000000;stroke-width:19.68499947000000100;stroke-linejoin:bevel;fill-opacity:1;stroke-opacity:1"
   inkscape:export-filename="D:\Dokumente und Einstellungen\Marianne\Eigene Dateien\Rockbox\Temp\Nano2G\ipodnano2g-small.png"
   inkscape:export-xdpi="13.447149"
   inkscape:export-ydpi="13.447149" /><path
   class="fil3 str0"
   d="M 5127.28,6734.08 C 5127.28,6185.434 4682.512,5740.671 4133.867,5740.671 C 3585.217,5740.671 3140.45,6185.435 3140.45,6734.08 C 3140.45,7282.73 3585.218,7727.497 4133.867,7727.497 C 4682.513,7727.497 5127.28,7282.729 5127.28,6734.084 L 5127.28,6734.0801 L 5127.28,6734.08 z"
   id="path3016"
   style="fill:#ffffff;stroke:#125e80;stroke-width:5.90550998999999970;stroke-linejoin:bevel;opacity:1;color:#000000;fill-opacity:1;fill-rule:nonzero;stroke-linecap:butt;marker:none;marker-start:none;marker-mid:none;marker-end:none;stroke-miterlimit:4;stroke-dasharray:none;stroke-dashoffset:0;stroke-opacity:1;visibility:visible;display:inline;overflow:visible;enable-background:accumulate"
   inkscape:export-filename="D:\Dokumente und Einstellungen\Marianne\Eigene Dateien\Rockbox\Temp\Nano2G\ipodnano2g-small.png"
   inkscape:export-xdpi="13.447149"
   inkscape:export-ydpi="13.447149" /><path
   class="fil4 str0"
   d="M 4550.47,6734.08 C 4550.47,6503.997 4363.95,6317.474 4133.864,6317.474 C 3903.781,6317.474 3717.258,6503.998 3717.258,6734.08 C 3717.258,6964.167 3903.782,7150.69 4133.864,7150.69 C 4363.951,7150.69 4550.47,6964.166 4550.47,6734.084 L 4550.47,6734.0801 L 4550.47,6734.08 z"
   id="path3018"
   style="fill:url(#radialGradient4009);stroke:#125d7f;stroke-width:5.90550998999999970;stroke-linejoin:bevel;opacity:1;color:#000000;fill-opacity:1;fill-rule:nonzero;stroke-linecap:butt;marker:none;marker-start:none;marker-mid:none;marker-end:none;stroke-miterlimit:4;stroke-dasharray:none;stroke-dashoffset:0;stroke-opacity:1;visibility:visible;display:inline;overflow:visible;enable-background:accumulate"
   inkscape:export-filename="D:\Dokumente und Einstellungen\Marianne\Eigene Dateien\Rockbox\Temp\Nano2G\ipodnano2g-small.png"
   inkscape:export-xdpi="13.447149"
   inkscape:export-ydpi="13.447149" /><g
   id="g3020"
   inkscape:export-filename="D:\Dokumente und Einstellungen\Marianne\Eigene Dateien\Rockbox\Temp\Nano2G\ipodnano2g-small.png"
   inkscape:export-xdpi="13.447149"
   inkscape:export-ydpi="13.447149">
    <path
   class="fil5"
   d="M 4984.52,6664.02 C 4980.8861,6664.02 4977.9413,6666.9688 4977.9413,6670.6027 L 4977.9413,6710.7838 C 4977.9413,6713.1499 4976.6696,6715.335 4974.6145,6716.5043 C 4972.5594,6717.6735 4970.0318,6717.6499 4967.9964,6716.4452 L 4889.6342,6669.9255 C 4887.6027,6668.7168 4885.0751,6668.6932 4883.02,6669.8625 C 4880.961,6671.0357 4879.6932,6673.2168 4879.6932,6675.583 L 4879.6932,6710.7838 C 4879.6932,6713.1499 4878.4216,6715.335 4876.3665,6716.5042 C 4874.3114,6717.6735 4871.7838,6717.6499 4869.7523,6716.4452 L 4791.3901,6669.9255 C 4789.3547,6668.7168 4786.8271,6668.6932 4784.772,6669.8625 C 4782.7169,6671.0357 4781.4452,6673.2168 4781.4452,6675.583 L 4781.4452,6769.1066 C 4781.4452,6771.4727 4782.7169,6773.6577 4784.772,6774.827 C 4786.8271,6776.0003 4789.3547,6775.9766 4791.3901,6774.768 L 4869.7523,6728.2483 C 4871.7838,6727.0396 4874.3114,6727.016 4876.3665,6728.1892 C 4878.4216,6729.3585 4879.6932,6731.5436 4879.6932,6733.9058 L 4879.6932,6769.1066 C 4879.6932,6771.4727 4880.961,6773.6577 4883.02,6774.827 C 4885.0751,6776.0003 4887.6027,6775.9766 4889.6342,6774.768 L 4967.9964,6728.2483 C 4970.0318,6727.0396 4972.5594,6727.016 4974.6145,6728.1892 C 4976.6696,6729.3585 4977.9413,6731.5436 4977.9413,6733.9058 L 4977.9413,6774.0869 C 4977.9413,6777.7247 4980.8861,6780.6695 4984.52,6780.6695 L 5001.2405,6780.6695 C 5004.8783,6780.6695 5007.8232,6777.7247 5007.8232,6774.0869 L 5007.8232,6670.6029 C 5007.8232,6666.969 5004.8783,6664.0202 5001.2405,6664.0202 L 4984.52,6664.0202 L 4984.52,6664.02 z"
   id="path3022"
   style="fill:#bac2c9" />
    <path
   class="fil5"
   d="M 3283.2,6664.02 C 3286.8339,6664.02 3289.7827,6666.9688 3289.7827,6670.6027 L 3289.7827,6710.7838 C 3289.7827,6713.1499 3291.0504,6715.335 3293.1094,6716.5043 C 3295.1646,6717.6735 3297.6882,6717.6499 3299.7236,6716.4452 L 3378.0858,6669.9255 C 3380.1212,6668.7168 3382.6488,6668.6932 3384.7039,6669.8625 C 3386.759,6671.0357 3388.0307,6673.2168 3388.0307,6675.583 L 3388.0307,6710.7838 C 3388.0307,6713.1499 3389.2984,6715.335 3391.3535,6716.5042 C 3393.4086,6717.6735 3395.9362,6717.6499 3397.9716,6716.4452 L 3476.3338,6669.9255 C 3478.3693,6668.7168 3480.8929,6668.6932 3482.948,6669.8625 C 3485.0071,6671.0357 3486.2748,6673.2168 3486.2748,6675.583 L 3486.2748,6769.1066 C 3486.2748,6771.4727 3485.0071,6773.6577 3482.948,6774.827 C 3480.8929,6776.0003 3478.3693,6775.9766 3476.3338,6774.768 L 3397.9716,6728.2483 C 3395.9362,6727.0396 3393.4086,6727.016 3391.3535,6728.1892 C 3389.2984,6729.3585 3388.0307,6731.5436 3388.0307,6733.9058 L 3388.0307,6769.1066 C 3388.0307,6771.4727 3386.759,6773.6577 3384.7039,6774.827 C 3382.6488,6776.0003 3380.1212,6775.9766 3378.0858,6774.768 L 3299.7236,6728.2483 C 3297.6882,6727.0396 3295.1646,6727.016 3293.1094,6728.1892 C 3291.0504,6729.3585 3289.7827,6731.5436 3289.7827,6733.9058 L 3289.7827,6774.0869 C 3289.7827,6777.7247 3286.8339,6780.6695 3283.2,6780.6695 L 3266.4795,6780.6695 C 3262.8456,6780.6695 3259.8968,6777.7247 3259.8968,6774.0869 L 3259.8968,6670.6029 C 3259.8968,6666.969 3262.8456,6664.0202 3266.4795,6664.0202 L 3283.2,6664.0202 L 3283.2,6664.02 z"
   id="path3024"
   style="fill:#bac2c9" />
    <path
   class="fil5"
   d="M 4199.26,7596.57 C 4202.8978,7596.57 4205.8427,7593.6212 4205.8427,7589.9873 L 4205.8427,7486.5033 C 4205.8427,7482.8695 4202.8978,7479.9206 4199.26,7479.9206 L 4182.5395,7479.9206 C 4178.9056,7479.9206 4175.9568,7482.8695 4175.9568,7486.5033 L 4175.9568,7589.9873 C 4175.9568,7593.6212 4178.9056,7596.57 4182.5395,7596.57 L 4199.26,7596.57 z"
   id="path3026"
   style="fill:#bac2c9" />
    <path
   class="fil5"
   d="M 4269.2,7596.57 C 4272.8339,7596.57 4275.7827,7593.6212 4275.7827,7589.9873 L 4275.7827,7486.5033 C 4275.7827,7482.8695 4272.8339,7479.9206 4269.2,7479.9206 L 4252.4795,7479.9206 C 4248.8456,7479.9206 4245.8968,7482.8695 4245.8968,7486.5033 L 4245.8968,7589.9873 C 4245.8968,7593.6212 4248.8456,7596.57 4252.4795,7596.57 L 4269.2,7596.57 z"
   id="path3028"
   style="fill:#bac2c9" />
    <path
   class="fil5"
   d="M 4001.89,7485.83 L 4093.1183,7532.3891 C 4095.323,7533.5151 4096.7088,7535.7789 4096.7088,7538.2552 C 4096.7088,7540.7277 4095.323,7542.9915 4093.1183,7544.1174 L 4001.89,7590.6765 C 3999.8546,7591.8813 3997.3309,7591.9049 3995.2719,7590.7356 C 3993.2168,7589.5663 3991.9491,7587.3813 3991.9491,7585.0151 L 3991.9491,7491.4915 C 3991.9491,7489.1254 3993.2168,7486.9403 3995.2719,7485.7711 C 3997.331,7484.6018 3999.8546,7484.6254 4001.89,7485.8301 L 4001.89,7485.83 z"
   id="path3030"
   style="fill:#bac2c9" />
    <path
   class="fil5"
   d="M 3999.65,5985.11 L 3997.3075,5933.1769 C 3997.2406,5931.6375 3996.1106,5930.3501 3994.5909,5930.0824 C 3993.0712,5929.8186 3991.5712,5930.6415 3990.9807,5932.0627 L 3968.5122,5986.2202 C 3968.0004,5987.4486 3966.8035,5988.2517 3965.4728,5988.2517 L 3951.2996,5988.2517 C 3949.9689,5988.2517 3948.7681,5987.4486 3948.2603,5986.2202 L 3925.7918,5932.0627 C 3925.2012,5930.6415 3923.6973,5929.8186 3922.1815,5930.0824 C 3920.6618,5930.3501 3919.5319,5931.6375 3919.461,5933.1769 L 3917.1185,5985.11 C 3917.0398,5986.8659 3915.591,5988.2517 3913.8311,5988.2517 L 3901.8547,5988.2517 C 3900.9571,5988.2517 3900.0949,5987.8817 3899.4768,5987.232 C 3898.8547,5986.5824 3898.524,5985.7084 3898.5673,5984.8108 L 3903.3902,5877.9088 C 3903.4689,5876.1529 3904.9177,5874.767 3906.6776,5874.767 L 3919.902,5874.767 C 3921.2327,5874.767 3922.4295,5875.5663 3922.9413,5876.7985 L 3955.3468,5954.9009 C 3955.8547,5956.1293 3957.0555,5956.9285 3958.3862,5956.9285 C 3959.7169,5956.9285 3960.9138,5956.1293 3961.4256,5954.9009 L 3993.8311,5876.7985 C 3994.3389,5875.5663 3995.5397,5874.767 3996.8704,5874.767 L 4010.0948,5874.767 C 4011.8547,5874.767 4013.3035,5876.1529 4013.3822,5877.9088 L 4018.2051,5984.8108 C 4018.2444,5985.7084 4017.9177,5986.5824 4017.2956,5987.232 C 4016.6736,5987.8816 4015.8153,5988.2517 4014.9177,5988.2517 L 4002.9374,5988.2517 C 4001.1775,5988.2517 3999.7327,5986.8659 3999.65,5985.11 L 3999.65,5985.11 z"
   id="path3032"
   style="fill:#bac2c9" />
    <path
   class="fil5"
   d="M 4115.81,5937.49 C 4115.81,5939.3089 4114.3376,5940.7813 4112.5187,5940.7813 L 4073.4163,5940.7813 C 4071.5974,5940.7813 4070.1249,5942.2538 4070.1249,5944.0727 L 4070.1249,5966.4113 C 4070.1249,5968.2262 4071.5974,5969.7026 4073.4163,5969.7026 L 4117.5974,5969.7026 C 4119.4163,5969.7026 4120.8887,5971.1751 4120.8887,5972.994 L 4120.8887,5984.9586 C 4120.8887,5985.8326 4120.5422,5986.6672 4119.9241,5987.2853 C 4119.306,5987.9034 4118.4714,5988.2499 4117.5974,5988.2499 L 4054.8691,5988.2499 C 4053.0502,5988.2499 4051.5777,5986.7735 4051.5777,5984.9586 L 4051.5777,5878.0566 C 4051.5777,5876.2377 4053.0502,5874.7652 4054.8691,5874.7652 L 4117.5974,5874.7652 C 4118.4714,5874.7652 4119.306,5875.1117 4119.9241,5875.7298 C 4120.5422,5876.3479 4120.8887,5877.1825 4120.8887,5878.0566 L 4120.8887,5890.0212 C 4120.8887,5891.8401 4119.4163,5893.3125 4117.5974,5893.3125 L 4073.4163,5893.3125 C 4072.5422,5893.3125 4071.7037,5893.659 4071.0895,5894.2771 C 4070.4714,5894.8952 4070.1249,5895.7298 4070.1249,5896.6038 L 4070.1249,5918.9424 C 4070.1249,5920.7613 4071.5974,5922.2338 4073.4163,5922.2338 L 4112.5187,5922.2338 C 4114.3376,5922.2338 4115.81,5923.7062 4115.81,5925.5251 L 4115.81,5937.4897 L 4115.81,5937.49 z"
   id="path3034"
   style="fill:#bac2c9" />
    <path
   class="fil5"
   d="M 4243.44,5984.96 C 4243.44,5986.775 4241.9676,5988.2513 4240.1487,5988.2513 L 4226.6881,5988.2513 C 4225.5699,5988.2513 4224.5266,5987.6805 4223.9203,5986.7435 L 4179.8888,5918.4089 C 4179.0975,5917.1805 4177.5936,5916.6215 4176.192,5917.0348 C 4174.7904,5917.4482 4173.8298,5918.7317 4173.8298,5920.1923 L 4173.8298,5984.96 C 4173.8298,5985.834 4173.4833,5986.6687 4172.8652,5987.2868 C 4172.251,5987.9049 4171.4125,5988.2514 4170.5385,5988.2514 L 4158.5739,5988.2514 C 4157.6998,5988.2514 4156.8652,5987.9049 4156.2471,5987.2868 C 4155.629,5986.6687 4155.2825,5985.834 4155.2825,5984.96 L 4155.2825,5878.058 C 4155.2825,5876.2391 4156.755,5874.7667 4158.5739,5874.7667 L 4172.0345,5874.7667 C 4173.1565,5874.7667 4174.1959,5875.3336 4174.8022,5876.2746 L 4218.8376,5944.6092 C 4219.625,5945.8336 4221.1329,5946.3926 4222.5305,5945.9832 C 4223.9321,5945.5698 4224.8927,5944.2863 4224.8927,5942.8257 L 4224.8927,5878.058 C 4224.8927,5876.2391 4226.3651,5874.7667 4228.184,5874.7667 L 4240.1486,5874.7667 C 4241.0226,5874.7667 4241.8612,5875.1131 4242.4754,5875.7312 C 4243.0935,5876.3493 4243.44,5877.184 4243.44,5878.058 L 4243.44,5984.96 L 4243.44,5984.96 z"
   id="path3036"
   style="fill:#bac2c9" />
    <path
   class="fil5"
   d="M 4281.01,5945.56 L 4281.01,5878.06 C 4281.01,5876.2411 4282.4864,5874.7687 4284.3013,5874.7687 L 4296.2698,5874.7687 C 4298.0848,5874.7687 4299.5612,5876.2411 4299.5612,5878.06 L 4299.5612,5945.56 C 4299.5612,5959.6584 4310.9903,5971.0915 4325.0888,5971.0915 C 4339.1912,5971.0915 4350.6203,5959.6584 4350.6203,5945.56 L 4350.6203,5878.06 C 4350.6203,5876.2411 4352.0967,5874.7687 4353.9116,5874.7687 L 4365.8801,5874.7687 C 4366.7502,5874.7687 4367.5888,5875.1151 4368.2069,5875.7332 C 4368.825,5876.3513 4369.1715,5877.186 4369.1715,5878.06 L 4369.1715,5945.56 C 4369.1715,5969.9025 4349.4353,5989.6387 4325.0888,5989.6387 C 4300.7463,5989.6387 4281.0101,5969.9025 4281.0101,5945.56 L 4281.01,5945.56 z"
   id="path3038"
   style="fill:#bac2c9" />
   </g><path
   class="fil7 str0"
   d="M 3041.6977,2886.3902 L 3571.5742,2886.3902 L 3571.5742,2910.2073 L 3041.6977,2910.2073 L 3041.6977,2886.3902 z"
   id="path3052"
   style="fill:url(#linearGradient3974);stroke:#131516;stroke-width:6.50678539;stroke-linejoin:bevel"
   inkscape:export-filename="D:\Dokumente und Einstellungen\Marianne\Eigene Dateien\Rockbox\Temp\Nano2G\ipodnano2g-small.png"
   inkscape:export-xdpi="13.447149"
   inkscape:export-ydpi="13.447149" /><g
   id="g3054"
   inkscape:export-filename="D:\Dokumente und Einstellungen\Marianne\Eigene Dateien\Rockbox\Temp\Nano2G\ipodnano2g-small.png"
   inkscape:export-xdpi="13.447149"
   inkscape:export-ydpi="13.447149">
    <path
   class="fil6"
   d="M 3141.69,4007.74 L 5126.02,4007.74 L 5126.02,3393.37 L 3141.69,3393.37 L 3141.69,4007.74 L 3141.69,4007.74 z"
   id="path3056"
   style="fill:#131516" />
    <path
   class="fil8"
   d="M 3267.19,3972.16 C 3267.19,3963.5301 3260.19,3956.534 3251.5601,3956.534 C 3242.9302,3956.534 3235.9341,3963.5301 3235.9341,3972.16 C 3235.9341,3980.7939 3242.9302,3987.7899 3251.5601,3987.7899 C 3260.19,3987.7899 3267.19,3980.7938 3267.19,3972.16 z M 3316.2766,3959.0813 C 3322.5561,3954.8057 3330.9026,3956.0183 3335.8238,3961.912 C 3340.749,3967.8097 3340.749,3976.5931 3335.8238,3982.4907 C 3330.9025,3988.3884 3322.5561,3989.597 3316.2766,3985.3254 L 3316.2766,3998.2742 L 3307.9971,3998.2742 L 3307.9971,3957.2939 L 3316.2766,3957.2939 L 3316.2766,3959.0813 L 3316.2766,3959.0813 z M 3410.7845,3972.16 C 3410.7845,3963.5301 3403.7845,3956.5301 3395.1546,3956.5301 C 3386.5247,3956.5301 3379.5286,3963.5301 3379.5286,3972.16 C 3379.5286,3980.7939 3386.5247,3987.7899 3395.1546,3987.7899 C 3399.5995,3987.7899 3403.6192,3985.9316 3406.4656,3982.9474 L 3400.4853,3977.2427 L 3406.4656,3982.9474 L 3400.4853,3977.2427 C 3398.9538,3978.849 3396.7727,3979.6797 3394.5522,3979.4986 C 3392.3396,3979.3135 3390.3278,3978.1364 3389.0758,3976.2978 L 3410.2293,3976.2978 C 3410.5915,3974.9789 3410.7845,3973.5931 3410.7845,3972.16 L 3410.7845,3972.16 z M 3929.8195,3972.16 C 3929.8195,3963.5301 3922.8234,3956.5301 3914.1935,3956.5301 C 3905.5636,3956.5301 3898.5675,3963.5301 3898.5675,3972.16 C 3898.5675,3980.7939 3905.5636,3987.7899 3914.1935,3987.7899 C 3918.6423,3987.7899 3922.6581,3985.9316 3925.5045,3982.9474 L 3919.5242,3977.2427 L 3925.5045,3982.9474 L 3919.5242,3977.2427 C 3917.9888,3978.849 3915.8116,3979.6797 3913.5951,3979.4986 C 3911.3785,3979.3135 3909.3667,3978.1364 3908.1148,3976.2978 L 3929.2722,3976.2978 C 3929.6305,3974.9789 3929.8195,3973.5931 3929.8195,3972.16 L 3929.8195,3972.16 z M 4238.6735,3972.16 C 4238.6735,3963.5301 4231.6774,3956.5301 4223.0436,3956.5301 C 4214.4176,3956.5301 4207.4176,3963.5301 4207.4176,3972.16 C 4207.4176,3980.7939 4214.4176,3987.7899 4223.0436,3987.7899 C 4227.4924,3987.7899 4231.5082,3985.9316 4234.3546,3982.9474 L 4228.3782,3977.2427 L 4234.3546,3982.9474 L 4228.3782,3977.2427 C 4226.8428,3978.849 4224.6656,3979.6797 4222.4451,3979.4986 C 4220.2325,3979.3135 4218.2168,3978.1364 4216.9648,3976.2978 L 4238.1223,3976.2978 C 4238.4845,3974.9789 4238.6735,3973.5931 4238.6735,3972.16 L 4238.6735,3972.16 z M 5028.0125,3972.16 C 5028.0125,3963.5301 5021.0164,3956.5301 5012.3826,3956.5301 C 5003.7566,3956.5301 4996.7606,3963.5301 4996.7606,3972.16 C 4996.7606,3980.7939 5003.7567,3987.7899 5012.3826,3987.7899 C 5016.8354,3987.7899 5020.8511,3985.9316 5023.6976,3982.9474 L 5017.7173,3977.2427 L 5023.6976,3982.9474 L 5017.7173,3977.2427 C 5016.1819,3978.849 5014.0007,3979.6797 5011.7882,3979.4986 C 5009.5716,3979.3135 5007.5598,3978.1364 5006.3078,3976.2978 L 5027.4613,3976.2978 C 5027.8236,3974.9789 5028.0125,3973.5931 5028.0125,3972.16 L 5028.0125,3972.16 z M 3478.5325,3969.8411 C 3478.5325,3964.8332 3476.0994,3960.2505 3472.2254,3957.9828 C 3468.3514,3955.7111 3463.7057,3956.1363 3460.19,3959.0812 L 3460.19,3957.2938 L 3451.9105,3957.2938 L 3451.9105,3987.1127 L 3460.19,3987.1127 L 3460.19,3969.841 C 3460.19,3967.0576 3462.442,3964.8017 3465.2215,3964.8017 C 3468.005,3964.8017 3470.2569,3967.0576 3470.2569,3969.841 L 3470.2569,3987.1127 L 3478.5325,3987.1127 L 3478.5325,3969.841 L 3478.5325,3969.8411 z M 3598.2255,3965.9789 C 3598.2255,3962.0183 3595.2373,3958.4789 3590.7491,3957.1167 C 3586.2609,3955.7506 3581.2176,3956.8411 3578.1192,3959.8569 C 3575.0169,3962.8765 3574.5208,3967.1718 3576.8712,3970.6167 C 3578.0562,3972.2781 3579.7491,3973.5064 3581.694,3974.1127 C 3583.8948,3974.8489 3586.1468,3975.4513 3588.4224,3975.9119 C 3590.2885,3976.2741 3591.2688,3977.2033 3590.7255,3978.0891 C 3590.1822,3978.971 3588.2728,3979.5379 3586.2609,3979.4119 C 3584.2491,3979.2899 3582.7452,3978.5104 3582.7452,3977.593 L 3582.7452,3976.7111 L 3574.4775,3976.7111 L 3574.4775,3977.593 C 3574.4775,3981.9828 3577.8239,3985.8883 3582.8082,3987.3135 C 3587.7885,3988.7387 3593.3121,3987.3686 3596.5444,3983.904 C 3599.7806,3980.4474 3600.0208,3975.6481 3597.1349,3971.9709 C 3595.4696,3970.0261 3593.1743,3968.7229 3590.6507,3968.2977 C 3588.6507,3967.9237 3586.6743,3967.4395 3584.7255,3966.8568 C 3583.6468,3966.4985 3583.3554,3965.9119 3584.0286,3965.4316 C 3584.7058,3964.9552 3586.1625,3964.7111 3587.5641,3964.8371 C 3588.9656,3964.967 3589.9538,3965.4395 3589.9538,3965.9788 L 3589.9538,3966.3883 L 3598.2255,3966.3883 L 3598.2255,3965.9788 L 3598.2255,3965.9789 z M 3670.2176,3972.16 C 3670.2176,3963.5301 3663.2215,3956.534 3654.5916,3956.534 C 3645.9577,3956.534 3638.9656,3963.5301 3638.9656,3972.16 C 3638.9656,3980.7939 3645.9577,3987.7899 3654.5916,3987.7899 C 3663.2215,3987.7899 3670.2176,3980.7938 3670.2176,3972.16 z M 3711.2019,3974.5655 L 3711.2019,3957.2938 L 3719.4814,3957.2938 L 3719.4814,3974.5655 C 3719.4814,3977.349 3721.7373,3979.6009 3724.5129,3979.6009 C 3727.2964,3979.6009 3729.5484,3977.349 3729.5484,3974.5655 L 3729.5484,3957.2938 L 3737.8239,3957.2938 L 3737.8239,3987.1127 L 3729.5484,3987.1127 L 3729.5484,3985.3253 C 3726.0365,3988.2702 3721.3869,3988.6954 3717.513,3986.4237 C 3713.6429,3984.1521 3711.2019,3979.5733 3711.2019,3974.5654 L 3711.2019,3974.5655 z M 3787.7806,3959.0812 L 3787.7806,3957.2938 L 3779.505,3957.2938 L 3779.505,3987.1127 L 3787.7806,3987.1127 L 3787.7806,3972.1599 C 3787.7806,3970.2111 3788.5562,3968.3371 3789.9341,3966.9591 C 3791.3121,3965.5772 3793.1861,3964.8016 3795.1389,3964.8016 L 3795.1389,3956.5575 C 3792.5168,3956.715 3789.9814,3957.5812 3787.7806,3959.0812 L 3787.7806,3959.0812 z M 3860.6034,3961.3725 C 3857.7569,3958.3922 3853.7412,3956.53 3849.2924,3956.53 C 3840.6664,3956.53 3833.6704,3963.5261 3833.6664,3972.156 C 3833.6664,3972.16 3833.6664,3972.16 3833.6664,3972.16 C 3833.6703,3980.7899 3840.6664,3987.786 3849.2924,3987.786 C 3853.7412,3987.786 3857.757,3985.9277 3860.6034,3982.9434 L 3854.6231,3977.2387 C 3853.2845,3978.6403 3851.3947,3979.5143 3849.3042,3979.5143 C 3845.2412,3979.5143 3841.9459,3976.223 3841.9459,3972.16 C 3841.9459,3972.16 3841.9459,3972.16 3841.9459,3972.156 C 3841.9459,3968.097 3845.2412,3964.8017 3849.3042,3964.8017 C 3851.3947,3964.8017 3853.2845,3965.6797 3854.6231,3967.0812 L 3860.6034,3961.3726 L 3860.6034,3961.3725 z M 4818.6074,3972.1402 L 4814.3397,3957.2937 L 4806.9538,3957.2937 L 4802.6861,3972.1402 L 4798.4223,3957.2937 L 4789.816,3957.2937 L 4798.383,3987.1126 L 4806.9893,3987.1126 L 4810.6468,3974.3803 L 4814.3042,3987.1126 L 4822.9105,3987.1126 L 4831.4814,3957.2937 L 4822.8751,3957.2937 L 4818.6074,3972.1402 M 4608.5094,3947.5851 L 4600.2338,3947.5851 L 4600.2338,3955.8568 L 4608.5094,3955.8568 L 4608.5094,3947.5851 M 4608.5094,3957.2938 L 4600.2338,3957.2938 L 4600.2338,3987.1127 L 4608.5094,3987.1127 L 4608.5094,3957.2938 M 4437.0014,3972.2151 L 4446.214,3987.1127 L 4436.466,3987.1127 L 4432.1274,3980.093 L 4427.7849,3987.1127 L 4418.0408,3987.1127 L 4427.2534,3972.2151 L 4418.025,3957.2938 L 4427.7691,3957.2938 L 4432.1274,3964.341 L 4436.4856,3957.2938 L 4446.2297,3957.2938 L 4437.0014,3972.2151 M 4159.7414,3957.2938 L 4152.1548,3969.5655 L 4152.1548,3947.5852 L 4143.8792,3947.5852 L 4143.8792,3987.1128 L 4152.1548,3987.1128 L 4152.1548,3974.6758 L 4161.4776,3987.1128 L 4171.8162,3987.1128 L 4160.4343,3971.9317 L 4169.4894,3957.2939 L 4159.7414,3957.2939 M 4033.6434,3947.5852 L 4025.3639,3947.5852 L 4025.3639,3955.8569 L 4033.6434,3955.8569 L 4033.6434,3947.5852 M 4033.6434,3988.5655 L 4033.6434,3957.2938 L 4025.3639,3957.2938 L 4025.3639,3988.5733 C 4025.3639,3989.3608 4024.7221,3990.0025 4023.9347,3990.0025 L 4021.5922,3990.0025 L 4021.5922,3998.2741 L 4023.9347,3998.2741 C 4029.3009,3998.2741 4033.6434,3993.9277 4033.6434,3988.5655 M 4382.1674,3972.16 C 4382.1674,3963.5301 4375.1713,3956.534 4366.5414,3956.534 C 4357.9115,3956.534 4350.9154,3963.53 4350.9154,3972.16 C 4350.9154,3980.7938 4357.9115,3987.7899 4366.5414,3987.7899 C 4375.1713,3987.7899 4382.1674,3980.7938 4382.1674,3972.16 z M 4093.9394,3985.3254 L 4093.9394,3987.1128 L 4102.215,3987.1128 L 4102.215,3957.2939 L 4093.9394,3957.2939 L 4093.9394,3974.5656 C 4093.9394,3977.349 4091.6835,3979.601 4088.904,3979.601 C 4086.1244,3979.601 4083.8685,3977.349 4083.8685,3974.5656 L 4083.8685,3957.2939 L 4075.5929,3957.2939 L 4075.5929,3974.5656 C 4075.5929,3979.5734 4078.03,3984.1522 4081.9,3986.4239 C 4085.7741,3988.6955 4090.4237,3988.2703 4093.9394,3985.3254 L 4093.9394,3985.3254 z M 4287.5964,3959.0813 L 4287.5964,3947.5852 L 4279.3169,3947.5852 L 4279.3169,3987.1128 L 4287.5964,3987.1128 L 4287.5964,3985.3254 C 4293.8759,3989.597 4302.2224,3988.3884 4307.1436,3982.4907 C 4312.0688,3976.5931 4312.0688,3967.8096 4307.1436,3961.912 C 4302.2223,3956.0183 4293.8759,3954.8057 4287.5964,3959.0813 L 4287.5964,3959.0813 z M 4559.2064,3955.8569 L 4552.3324,3955.8569 C 4552.1473,3955.8372 4551.9662,3955.9041 4551.8363,3956.038 C 4551.7064,3956.1679 4551.6395,3956.349 4551.6592,3956.534 L 4551.6592,3957.2939 L 4551.6592,3957.2939 L 4555.4308,3957.2939 L 4555.4308,3965.5655 L 4551.6592,3965.5655 L 4551.6592,3987.1127 L 4543.3796,3987.1127 L 4543.3796,3965.5655 L 4539.604,3965.5655 L 4539.604,3957.2939 L 4543.3796,3957.2939 C 4543.3796,3951.9317 4547.7221,3947.5852 4553.0843,3947.5852 L 4559.2064,3947.5852 L 4559.2064,3955.8569 L 4559.2064,3955.8569 z M 4665.9584,3956.5576 L 4665.9584,3964.8017 C 4664.0096,3964.8017 4662.1395,3965.5773 4660.7576,3966.9592 C 4659.3757,3968.3372 4658.6041,3970.2112 4658.6041,3972.16 L 4658.6041,3987.1128 L 4650.3245,3987.1128 L 4650.3245,3957.2939 L 4658.6041,3957.2939 L 4658.6041,3959.0813 C 4660.8049,3957.5813 4663.3403,3956.7152 4665.9584,3956.5577 L 4665.9584,3956.5576 z M 4714.482,3959.0813 L 4714.482,3957.2939 L 4706.2064,3957.2939 L 4706.2064,3987.1128 L 4714.482,3987.1128 L 4714.482,3969.8411 C 4714.482,3967.0576 4716.734,3964.8017 4719.5174,3964.8017 C 4722.297,3964.8017 4724.5489,3967.0576 4724.5489,3969.8411 L 4724.5489,3987.1128 L 4732.8285,3987.1128 L 4732.8285,3969.8411 C 4732.8285,3967.0576 4735.0844,3964.8017 4737.8639,3964.8017 C 4740.6434,3964.8017 4742.8954,3967.0576 4742.8954,3969.8411 L 4742.8954,3987.1128 L 4751.171,3987.1128 L 4751.171,3969.8411 C 4751.171,3964.5891 4748.0844,3959.8293 4743.2891,3957.6836 C 4738.4938,3955.5458 4732.8915,3956.4237 4728.982,3959.9237 C 4724.9229,3955.7426 4718.8836,3955.3922 4714.482,3959.0812 L 4714.482,3959.0813 z M 4891.561,3959.0813 L 4891.561,3957.2939 L 4899.8405,3957.2939 L 4899.8405,3987.1128 L 4891.561,3987.1128 L 4891.561,3985.3254 C 4885.2815,3989.597 4876.935,3988.3884 4872.0138,3982.4907 C 4867.0886,3976.5931 4867.0886,3967.8096 4872.0138,3961.912 C 4876.9351,3956.0183 4885.2815,3954.8057 4891.561,3959.0813 L 4891.561,3959.0813 z M 4958.3012,3956.5576 L 4958.3012,3964.8017 C 4956.3484,3964.8017 4954.4744,3965.5773 4953.0965,3966.9592 C 4951.7146,3968.3372 4950.939,3970.2112 4950.939,3972.16 L 4950.939,3987.1128 L 4942.6634,3987.1128 L 4942.6634,3957.2939 L 4950.939,3957.2939 L 4950.939,3959.0813 C 4953.1398,3957.5813 4955.6752,3956.7152 4958.3012,3956.5577 L 4958.3012,3956.5576 z"
   id="path3058"
   style="fill:#ffffff" />
    <path
   class="fil6"
   d="M 3258.91,3972.16 C 3258.91,3968.1009 3255.6147,3964.8017 3251.5517,3964.8017 C 3247.4887,3964.8017 3244.1974,3968.1009 3244.1974,3972.16 C 3244.1974,3976.223 3247.4887,3979.5222 3251.5517,3979.5222 C 3255.6147,3979.5222 3258.91,3976.223 3258.91,3972.16 z M 4216.953,3968.0261 L 4229.1262,3968.0261 C 4227.7561,3966.0104 4225.4805,3964.8017 4223.0396,3964.8017 C 4220.6026,3964.8017 4218.323,3966.0104 4216.953,3968.0261 M 3908.107,3968.0261 L 3920.2763,3968.0261 C 3918.9101,3966.0104 3916.6306,3964.8017 3914.1936,3964.8017 C 3911.7566,3964.8017 3909.4771,3966.0104 3908.107,3968.0261 M 3661.946,3972.16 C 3661.946,3968.1009 3658.6507,3964.8017 3654.5877,3964.8017 C 3650.5247,3964.8017 3647.2334,3968.1009 3647.2334,3972.16 C 3647.2334,3976.223 3650.5247,3979.5222 3654.5877,3979.5222 C 3658.6507,3979.5222 3661.946,3976.223 3661.946,3972.16 z M 4373.895,3972.16 C 4373.895,3968.1009 4370.5997,3964.8017 4366.5367,3964.8017 C 4362.4737,3964.8017 4359.1784,3968.1009 4359.1784,3972.16 C 4359.1784,3976.223 4362.4737,3979.5222 4366.5367,3979.5222 C 4370.5997,3979.5222 4373.895,3976.223 4373.895,3972.16 z M 4302.3084,3972.16 C 4302.3084,3968.1009 4299.0131,3964.8017 4294.9462,3964.8017 C 4290.8871,3964.8017 4287.5919,3968.1009 4287.5919,3972.16 C 4287.5919,3976.223 4290.8871,3979.5222 4294.9462,3979.5222 C 4299.0131,3979.5222 4302.3084,3976.223 4302.3084,3972.16 z M 3330.9814,3972.2427 C 3330.9814,3968.1797 3327.69,3964.8844 3323.6231,3964.8844 C 3319.5641,3964.8844 3316.2688,3968.1797 3316.2688,3972.2427 C 3316.2688,3976.3057 3319.5641,3979.6009 3323.6231,3979.6009 C 3327.69,3979.6009 3330.9814,3976.3057 3330.9814,3972.2427 z M 3389.068,3968.0261 L 3401.2412,3968.0261 C 3399.8711,3966.0104 3397.5916,3964.8017 3395.1546,3964.8017 C 3392.7176,3964.8017 3390.438,3966.0104 3389.068,3968.0261 M 5006.298,3968.0261 L 5018.4712,3968.0261 C 5017.0971,3966.0104 5014.8216,3964.8017 5012.3806,3964.8017 C 5009.9436,3964.8017 5007.668,3966.0104 5006.2979,3968.0261 M 4891.5579,3972.16 C 4891.5579,3968.1009 4888.2666,3964.8017 4884.2036,3964.8017 C 4880.1367,3964.8017 4876.8414,3968.1009 4876.8414,3972.16 C 4876.8414,3976.223 4880.1367,3979.5222 4884.2036,3979.5222 C 4888.2666,3979.5222 4891.5579,3976.223 4891.5579,3972.16 z"
   id="path3060"
   style="fill:#131516" />
    <path
   class="fil9"
   d="M 3153.44,3407.72 L 5112.32,3407.72 L 5112.32,3929.551 L 3153.44,3929.551 L 3153.44,3407.72 L 3153.44,3407.72 z"
   id="path3062"
   style="fill:#efaf04" />
    <path
   class="fil10"
   d="M 4692.99,3898.2 L 4692.99,3898.2 M 5107.061,3812.4598 L 5112.3208,3812.4598 L 5112.3208,3815.4519 L 5110.0492,3815.4519 L 5110.0492,3827.4007 L 5107.061,3827.4007 L 5107.061,3812.4598 M 5092.124,3812.4598 L 5101.0886,3812.4598 L 5101.0886,3815.452 L 5092.124,3815.452 L 5092.124,3812.4598 M 5092.124,3824.4126 L 5101.0886,3824.4126 L 5101.0886,3827.4008 L 5092.124,3827.4008 L 5092.124,3824.4126 M 5071.2146,3812.4598 L 5071.2146,3812.4598 L 5071.2146,3812.4598 L 5071.2146,3812.4598 L 5071.2146,3812.4598 M 5077.187,3815.452 L 5080.1752,3815.452 L 5080.1752,3827.4008 L 5077.187,3827.4008 L 5077.187,3815.452 M 5080.1752,3812.4598 L 5083.1634,3812.4598 L 5083.1634,3815.452 L 5080.1752,3815.452 L 5080.1752,3812.4598 M 5083.1634,3815.452 L 5086.1516,3815.452 L 5086.1516,3827.4008 L 5083.1634,3827.4008 L 5083.1634,3815.452 M 5071.2146,3812.4598 L 5077.1871,3812.4598 L 5077.1871,3815.452 L 5074.1989,3815.452 L 5074.1989,3827.4008 L 5071.2146,3827.4008 L 5071.2146,3812.4599 M 5065.2382,3809.4717 L 5068.2264,3809.4717 L 5068.2264,3815.452 L 5065.2382,3815.452 L 5065.2382,3809.4717 M 5065.2382,3818.4362 L 5068.2264,3818.4362 L 5068.2264,3824.4126 L 5065.2382,3824.4126 L 5065.2382,3818.4362 M 5041.3406,3812.4599 L 5044.3288,3812.4599 L 5044.3288,3818.4362 L 5041.3406,3818.4362 L 5041.3406,3812.4599 M 5019.9508,3812.4599 L 5022.939,3812.4599 L 5022.939,3815.452 L 5019.9508,3815.452 L 5019.9508,3812.4599 M 5010.9902,3818.4362 L 5013.9745,3818.4362 L 5013.9745,3824.4126 L 5010.9902,3824.4126 L 5010.9902,3818.4362 M 4999.4941,3824.4126 L 5010.9902,3824.4126 L 5010.9902,3827.4008 L 4999.4941,3827.4008 L 4999.4941,3824.4126 M 4987.5453,3815.452 L 4990.5296,3815.452 L 4990.5296,3818.4362 L 4987.5453,3818.4362 L 4987.5453,3815.452 M 4984.5532,3806.4874 L 4993.5177,3806.4874 L 4993.5177,3809.4717 L 4984.5532,3809.4717 L 4984.5532,3806.4874 M 4984.5532,3824.4126 L 4993.5177,3824.4126 L 4993.5177,3827.4008 L 4984.5532,3827.4008 L 4984.5532,3824.4126 M 4969.6201,3806.4874 L 4975.5925,3806.4874 L 4975.5925,3809.4717 L 4969.6201,3809.4717 L 4969.6201,3806.4874 M 4966.6319,3809.4717 L 4969.6201,3809.4717 L 4969.6201,3812.4599 L 4966.6319,3812.4599 L 4966.6319,3809.4717 M 4975.5925,3818.4362 L 4978.5846,3818.4362 L 4978.5846,3824.4126 L 4975.5925,3824.4126 L 4975.5925,3818.4362 M 5056.2775,3779.9244 L 5068.2263,3779.9244 L 5068.2263,3782.9087 L 5056.2775,3782.9087 L 5056.2775,3779.9244 M 5053.2893,3782.9087 L 5056.2775,3782.9087 L 5056.2775,3785.8969 L 5053.2893,3785.8969 L 5053.2893,3782.9087 M 5056.2775,3785.8969 L 5065.2381,3785.8969 L 5065.2381,3788.8851 L 5056.2775,3788.8851 L 5056.2775,3785.8969 M 5065.2381,3788.8851 L 5068.2263,3788.8851 L 5068.2263,3791.8733 L 5065.2381,3791.8733 L 5065.2381,3788.8851 M 5053.2893,3791.8733 L 5065.2381,3791.8733 L 5065.2381,3794.8614 L 5053.2893,3794.8614 L 5053.2893,3791.8733 M 5071.2145,3779.9245 L 5074.1988,3779.9245 L 5074.1988,3791.8733 L 5071.2145,3791.8733 L 5071.2145,3779.9245 M 5074.1988,3797.8497 L 5083.1634,3797.8497 L 5083.1634,3800.8339 L 5074.1988,3800.8339 L 5074.1988,3797.8497 M 5089.1397,3791.8733 L 5101.0885,3791.8733 L 5101.0885,3794.8615 L 5089.1397,3794.8615 L 5089.1397,3791.8733 M 5101.0885,3788.8851 L 5104.0727,3788.8851 L 5104.0727,3791.8733 L 5101.0885,3791.8733 L 5101.0885,3788.8851 M 5092.1239,3785.8969 L 5101.0885,3785.8969 L 5101.0885,3788.8851 L 5092.1239,3788.8851 L 5092.1239,3785.8969 M 5089.1397,3782.9087 L 5092.1239,3782.9087 L 5092.1239,3785.8969 L 5089.1397,3785.8969 L 5089.1397,3782.9087 M 5092.1239,3779.9245 L 5104.0727,3779.9245 L 5104.0727,3782.9087 L 5092.1239,3782.9087 L 5092.1239,3779.9245 M 5056.2774,3844.9993 L 5068.2262,3844.9993 L 5068.2262,3847.9874 L 5056.2774,3847.9874 L 5056.2774,3844.9993 M 5053.2892,3847.9874 L 5056.2774,3847.9874 L 5056.2774,3850.9717 L 5053.2892,3850.9717 L 5053.2892,3847.9874 M 5056.2774,3850.9717 L 5065.2381,3850.9717 L 5065.2381,3853.9638 L 5056.2774,3853.9638 L 5056.2774,3850.9717 M 5065.2381,3853.9638 L 5068.2262,3853.9638 L 5068.2262,3856.952 L 5065.2381,3856.952 L 5065.2381,3853.9638 M 5053.2893,3856.952 L 5065.2381,3856.952 L 5065.2381,3859.9363 L 5053.2893,3859.9363 L 5053.2893,3856.952 M 4981.4822,3856.952 L 4993.435,3856.952 L 4993.435,3859.9363 L 4981.4822,3859.9363 L 4981.4822,3856.952 M 4993.435,3853.9638 L 4996.4192,3853.9638 L 4996.4192,3856.952 L 4993.435,3856.952 L 4993.435,3853.9638 M 4984.4704,3850.9717 L 4993.435,3850.9717 L 4993.435,3853.9638 L 4984.4704,3853.9638 L 4984.4704,3850.9717 M 4981.4822,3847.9874 L 4984.4704,3847.9874 L 4984.4704,3850.9717 L 4981.4822,3850.9717 L 4981.4822,3847.9874 M 4984.4704,3844.9993 L 4996.4192,3844.9993 L 4996.4192,3847.9874 L 4984.4704,3847.9874 L 4984.4704,3844.9993 M 4894.6791,3877.5387 L 4906.6279,3877.5387 L 4906.6279,3880.5229 L 4894.6791,3880.5229 L 4894.6791,3877.5387 M 4891.6909,3880.5229 L 4894.6791,3880.5229 L 4894.6791,3883.515 L 4891.6909,3883.515 L 4891.6909,3880.5229 M 4894.6791,3883.515 L 4903.6397,3883.515 L 4903.6397,3886.4993 L 4894.6791,3886.4993 L 4894.6791,3883.515 M 4903.6397,3886.4993 L 4906.6279,3886.4993 L 4906.6279,3889.4875 L 4903.6397,3889.4875 L 4903.6397,3886.4993 M 4891.6909,3889.4875 L 4903.6397,3889.4875 L 4903.6397,3892.4757 L 4891.6909,3892.4757 L 4891.6909,3889.4875 M 4693.2339,3889.4875 L 4705.1827,3889.4875 L 4705.1827,3892.4757 L 4693.2339,3892.4757 L 4693.2339,3889.4875 M 4705.1827,3886.4993 L 4708.1748,3886.4993 L 4708.1748,3889.4875 L 4705.1827,3889.4875 L 4705.1827,3886.4993 M 4696.2221,3883.515 L 4705.1827,3883.515 L 4705.1827,3886.4993 L 4696.2221,3886.4993 L 4696.2221,3883.515 M 4693.2339,3880.5229 L 4696.2221,3880.5229 L 4696.2221,3883.515 L 4693.2339,3883.515 L 4693.2339,3880.5229 M 4696.2221,3877.5387 L 4708.1749,3877.5387 L 4708.1749,3880.5229 L 4696.2221,3880.5229 L 4696.2221,3877.5387 M 5017.4421,3877.5387 L 5023.4145,3877.5387 L 5023.4145,3880.5229 L 5020.4263,3880.5229 L 5020.4263,3892.4757 L 5017.4421,3892.4757 L 5017.4421,3877.5387 M 5029.3909,3880.523 L 5032.3751,3880.523 L 5032.3751,3892.4758 L 5029.3909,3892.4758 L 5029.3909,3880.523 M 5026.4027,3877.5387 L 5029.3909,3877.5387 L 5029.3909,3880.523 L 5026.4027,3880.523 L 5026.4027,3877.5387 M 5023.4145,3880.523 L 5026.4027,3880.523 L 5026.4027,3892.4758 L 5023.4145,3892.4758 L 5023.4145,3880.523 M 5017.4421,3877.5387 L 5017.4421,3877.5387 L 5017.4421,3877.5387 L 5017.4421,3877.5387 L 5017.4421,3877.5387 M 4729.5721,3877.5387 L 4729.5721,3877.5387 L 4729.5721,3877.5387 L 4729.5721,3877.5387 L 4729.5721,3877.5387 M 4735.5484,3880.523 L 4738.5366,3880.523 L 4738.5366,3892.4758 L 4735.5484,3892.4758 L 4735.5484,3880.523 M 4738.5366,3877.5387 L 4741.5209,3877.5387 L 4741.5209,3880.523 L 4738.5366,3880.523 L 4738.5366,3877.5387 M 4741.5209,3880.523 L 4744.5091,3880.523 L 4744.5091,3892.4758 L 4741.5209,3892.4758 L 4741.5209,3880.523 M 4729.5721,3877.5387 L 4735.5485,3877.5387 L 4735.5485,3880.523 L 4732.5603,3880.523 L 4732.5603,3892.4758 L 4729.5721,3892.4758 L 4729.5721,3877.5388 M 5083.1631,3791.8734 L 5083.1631,3779.9246 L 5086.1513,3779.9246 L 5086.1513,3797.8498 L 5083.1631,3797.8498 L 5083.1631,3794.8616 L 5074.1985,3794.8616 L 5074.1985,3791.8734 L 5083.1631,3791.8734 M 4849.4621,3889.0388 L 4849.4621,3877.086 L 4852.4503,3877.086 L 4852.4503,3895.0112 L 4849.4621,3895.0112 L 4849.4621,3892.023 L 4840.4975,3892.023 L 4840.4975,3889.0387 L 4849.4621,3889.0387 M 4840.4975,3895.0112 L 4849.4621,3895.0112 L 4849.4621,3897.9994 L 4840.4975,3897.9994 L 4840.4975,3895.0112 M 4837.5133,3877.086 L 4840.4975,3877.086 L 4840.4975,3889.0388 L 4837.5133,3889.0388 L 4837.5133,3877.086 M 5089.1393,3815.4521 L 5092.1235,3815.4521 L 5092.1235,3818.4363 L 5101.0881,3818.4363 L 5101.0881,3815.4521 L 5104.0723,3815.4521 L 5104.0723,3821.4245 L 5092.1235,3821.4245 L 5092.1235,3824.4127 L 5089.1393,3824.4127 L 5089.1393,3815.4521 M 5035.3637,3847.9875 L 5038.3519,3847.9875 L 5038.3519,3850.9717 L 5047.3164,3850.9717 L 5047.3164,3847.9875 L 5050.3007,3847.9875 L 5050.3007,3853.9639 L 5038.3519,3853.9639 L 5038.3519,3856.9521 L 5035.3637,3856.9521 L 5035.3637,3847.9875 M 5038.3519,3856.9521 L 5047.3165,3856.9521 L 5047.3165,3859.9363 L 5038.3519,3859.9363 L 5038.3519,3856.9521 M 5038.3519,3844.9993 L 5047.3165,3844.9993 L 5047.3165,3847.9874 L 5038.3519,3847.9874 L 5038.3519,3844.9993 M 4966.5448,3844.9993 L 4975.5094,3844.9993 L 4975.5094,3847.9874 L 4966.5448,3847.9874 L 4966.5448,3844.9993 M 4966.5448,3856.9521 L 4975.5094,3856.9521 L 4975.5094,3859.9363 L 4966.5448,3859.9363 L 4966.5448,3856.9521 M 4963.5566,3847.9875 L 4966.5448,3847.9875 L 4966.5448,3850.9717 L 4975.5094,3850.9717 L 4975.5094,3847.9875 L 4978.4936,3847.9875 L 4978.4936,3853.9639 L 4966.5448,3853.9639 L 4966.5448,3856.9521 L 4963.5566,3856.9521 L 4963.5566,3847.9875 M 5071.2136,3880.5229 L 5074.1979,3880.5229 L 5074.1979,3883.515 L 5083.1624,3883.515 L 5083.1624,3880.5229 L 5086.1506,3880.5229 L 5086.1506,3886.4993 L 5074.1978,3886.4993 L 5074.1978,3889.4875 L 5071.2136,3889.4875 L 5071.2136,3880.5229 M 5074.1978,3889.4875 L 5083.1624,3889.4875 L 5083.1624,3892.4756 L 5074.1978,3892.4756 L 5074.1978,3889.4875 M 5074.1978,3877.5387 L 5083.1624,3877.5387 L 5083.1624,3880.5229 L 5074.1978,3880.5229 L 5074.1978,3877.5387 M 5110.0482,3877.5387 L 5112.3199,3877.5387 L 5112.3199,3880.5229 L 5110.0482,3880.5229 L 5110.0482,3877.5387 M 5110.0482,3889.4875 L 5112.3199,3889.4875 L 5112.3199,3892.4756 L 5110.0482,3892.4756 L 5110.0482,3889.4875 M 5107.0601,3880.5229 L 5110.0482,3880.5229 L 5110.0482,3883.515 L 5112.3199,3883.515 L 5112.3199,3883.515 L 5112.3199,3883.515 L 5112.3199,3886.4993 L 5110.0482,3886.4993 L 5110.0482,3889.4875 L 5107.0601,3889.4875 L 5107.0601,3880.5229 M 4678.7531,3877.5386 L 4687.7137,3877.5386 L 4687.7137,3880.5229 L 4678.7531,3880.5229 L 4678.7531,3877.5386 M 4678.7531,3889.4874 L 4687.7137,3889.4874 L 4687.7137,3892.4756 L 4678.7531,3892.4756 L 4678.7531,3889.4874 M 4675.7609,3880.5229 L 4678.7531,3880.5229 L 4678.7531,3883.515 L 4687.7137,3883.515 L 4687.7137,3880.5229 L 4690.6979,3880.5229 L 4690.6979,3886.4992 L 4678.753,3886.4992 L 4678.753,3889.4874 L 4675.7609,3889.4874 L 4675.7609,3880.5229 M 4714.1428,3886.4992 L 4720.1192,3886.4992 L 4720.1192,3892.0229 L 4714.1428,3892.0229 L 4714.1428,3886.4992 M 5074.1978,3844.9992 L 5083.1624,3844.9992 L 5083.1624,3847.9874 L 5074.1978,3847.9874 L 5074.1978,3844.9992 M 5071.2136,3847.9874 L 5074.1978,3847.9874 L 5074.1978,3856.952 L 5071.2136,3856.952 L 5071.2136,3847.9874 M 5074.1978,3856.952 L 5083.1624,3856.952 L 5083.1624,3859.9363 L 5074.1978,3859.9363 L 5074.1978,3856.952 M 5083.1624,3853.9638 L 5086.1506,3853.9638 L 5086.1506,3856.952 L 5083.1624,3856.952 L 5083.1624,3853.9638 M 5092.123,3844.9992 L 5101.0876,3844.9992 L 5101.0876,3847.9874 L 5092.123,3847.9874 L 5092.123,3844.9992 M 5089.1388,3853.9638 L 5092.123,3853.9638 L 5092.123,3856.952 L 5089.1388,3856.952 L 5089.1388,3853.9638 M 4849.2058,3853.9638 L 4852.1939,3853.9638 L 4852.1939,3856.952 L 4849.2058,3856.952 L 4849.2058,3853.9638 M 4840.2451,3856.952 L 4849.2058,3856.952 L 4849.2058,3859.9363 L 4840.2451,3859.9363 L 4840.2451,3856.952 M 4837.2569,3847.9874 L 4840.2451,3847.9874 L 4840.2451,3856.952 L 4837.2569,3856.952 L 4837.2569,3847.9874 M 4840.2451,3844.9992 L 4849.2058,3844.9992 L 4849.2058,3847.9874 L 4840.2451,3847.9874 L 4840.2451,3844.9992 M 5005.4931,3839.0268 L 5008.4813,3839.0268 L 5008.4813,3842.0111 L 5005.4931,3842.0111 L 5005.4931,3839.0268 M 5023.4144,3850.9717 L 5026.4026,3850.9717 L 5026.4026,3853.9638 L 5023.4144,3853.9638 L 5023.4144,3850.9717 M 4933.6821,3844.9993 L 4939.6624,3844.9993 L 4939.6624,3847.9875 L 4933.6821,3847.9875 L 4933.6821,3844.9993 M 4939.6624,3847.9875 L 4942.6467,3847.9875 L 4942.6467,3859.9363 L 4939.6624,3859.9363 L 4939.6624,3847.9875 M 4858.1663,3844.9993 L 4866.6781,3844.9993 L 4866.6781,3847.9875 L 4858.1663,3847.9875 L 4858.1663,3844.9993 M 4855.1821,3847.9875 L 4858.1663,3847.9875 L 4858.1663,3856.952 L 4855.1821,3856.952 L 4855.1821,3847.9875 M 4858.1663,3856.952 L 4866.6781,3856.952 L 4866.6781,3859.9363 L 4858.1663,3859.9363 L 4858.1663,3856.952 M 4866.6781,3847.9875 L 4869.6663,3847.9875 L 4869.6663,3856.952 L 4866.6781,3856.952 L 4866.6781,3847.9875 M 5010.7331,3880.5229 L 5013.7174,3880.5229 L 5013.7174,3889.4874 L 5010.7331,3889.4874 L 5010.7331,3880.5229 M 5002.2213,3889.4874 L 5010.7331,3889.4874 L 5010.7331,3892.4756 L 5002.2213,3892.4756 L 5002.2213,3889.4874 M 4999.2371,3880.5229 L 5002.2213,3880.5229 L 5002.2213,3889.4874 L 4999.2371,3889.4874 L 4999.2371,3880.5229 M 5002.2213,3877.5386 L 5010.7331,3877.5386 L 5010.7331,3880.5229 L 5002.2213,3880.5229 L 5002.2213,3877.5386 M 4927.7056,3844.9992 L 4930.6978,3844.9992 L 4930.6978,3847.9874 L 4933.682,3847.9874 L 4933.682,3850.9716 L 4930.6978,3850.9716 L 4930.6978,3859.9362 L 4927.7056,3859.9362 L 4927.7056,3844.9992 M 5107.0596,3844.9992 L 5110.0478,3844.9992 L 5110.0478,3847.9874 L 5112.3195,3847.9874 L 5112.3195,3850.9717 L 5110.0478,3850.9717 L 5110.0478,3859.9362 L 5107.0596,3859.9362 L 5107.0596,3844.9992 M 4960.5676,3859.9362 L 4957.5834,3859.9362 L 4957.5834,3856.952 L 4954.5952,3856.952 L 4954.5952,3853.9638 L 4957.5834,3853.9638 L 4957.5834,3844.9992 L 4960.5676,3844.9992 L 4960.5676,3859.9362 M 4948.6227,3856.952 L 4945.6306,3856.952 L 4945.6306,3844.9992 L 4948.6227,3844.9992 L 4948.6227,3856.952 M 4954.5952,3859.9362 L 4948.6227,3859.9362 L 4948.6227,3856.952 L 4954.5952,3856.952 L 4954.5952,3859.9362 M 4873.9377,3844.9992 L 4876.9259,3844.9992 L 4876.9259,3847.9874 L 4879.9101,3847.9874 L 4879.9101,3850.9717 L 4876.9259,3850.9717 L 4876.9259,3859.9362 L 4873.9377,3859.9362 L 4873.9377,3844.9992 M 4885.8865,3847.9874 L 4888.8707,3847.9874 L 4888.8707,3859.9362 L 4885.8865,3859.9362 L 4885.8865,3847.9874 M 4879.9101,3844.9992 L 4885.8865,3844.9992 L 4885.8865,3847.9874 L 4879.9101,3847.9874 L 4879.9101,3844.9992 M 4969.3629,3877.5386 L 4975.3353,3877.5386 L 4975.3353,3880.5229 L 4969.3629,3880.5229 L 4969.3629,3877.5386 M 4975.3353,3880.5229 L 4978.3235,3880.5229 L 4978.3235,3892.4757 L 4975.3353,3892.4757 L 4975.3353,3880.5229 M 4963.3865,3877.5386 L 4966.3708,3877.5386 L 4966.3708,3880.5229 L 4969.3629,3880.5229 L 4969.3629,3883.515 L 4966.3708,3883.515 L 4966.3708,3892.4756 L 4963.3865,3892.4756 L 4963.3865,3877.5386 M 5062.2526,3892.4756 L 5056.2762,3892.4756 L 5056.2762,3889.4874 L 5062.2526,3889.4874 L 5062.2526,3892.4756 M 5056.2762,3889.4874 L 5053.2881,3889.4874 L 5053.2881,3877.5386 L 5056.2762,3877.5386 L 5056.2762,3889.4874 M 5068.225,3892.4756 L 5065.2369,3892.4756 L 5065.2369,3889.4874 L 5062.2526,3889.4874 L 5062.2526,3886.4993 L 5065.2369,3886.4993 L 5065.2369,3877.5386 L 5068.225,3877.5386 L 5068.225,3892.4756 M 5104.0715,3892.4756 L 5101.0873,3892.4756 L 5101.0873,3889.4874 L 5098.0991,3889.4874 L 5098.0991,3886.4992 L 5101.0873,3886.4992 L 5101.0873,3877.5386 L 5104.0715,3877.5386 L 5104.0715,3892.4756 M 5092.1227,3889.4874 L 5089.1385,3889.4874 L 5089.1385,3877.5386 L 5092.1227,3877.5386 L 5092.1227,3889.4874 M 5098.0991,3892.4756 L 5092.1227,3892.4756 L 5092.1227,3889.4874 L 5098.0991,3889.4874 L 5098.0991,3892.4756 M 5101.0873,3847.9874 L 5104.0716,3847.9874 L 5104.0716,3859.9362 L 5092.1228,3859.9362 L 5092.1228,3856.952 L 5101.0873,3856.952 L 5101.0873,3853.9638 L 5092.1228,3853.9638 L 5092.1228,3850.9716 L 5101.0873,3850.9716 L 5101.0873,3847.9874 M 4957.4103,3880.5228 L 4960.4025,3880.5228 L 4960.4025,3892.4756 L 4948.4458,3892.4756 L 4948.4458,3889.4874 L 4957.4103,3889.4874 L 4957.4103,3886.4992 L 4948.4458,3886.4992 L 4948.4458,3883.515 L 4957.4103,3883.515 L 4957.4103,3880.5228 M 4945.4615,3886.4992 L 4948.4458,3886.4992 L 4948.4458,3889.4874 L 4945.4615,3889.4874 L 4945.4615,3886.4992 M 4948.4458,3877.5386 L 4957.4104,3877.5386 L 4957.4104,3880.5228 L 4948.4458,3880.5228 L 4948.4458,3877.5386 M 4822.5758,3877.5386 L 4831.5364,3877.5386 L 4831.5364,3880.5228 L 4822.5758,3880.5228 L 4822.5758,3877.5386 M 4819.5876,3886.4992 L 4822.5758,3886.4992 L 4822.5758,3889.4874 L 4819.5876,3889.4874 L 4819.5876,3886.4992 M 4831.5364,3880.5228 L 4834.5246,3880.5228 L 4834.5246,3892.4756 L 4822.5758,3892.4756 L 4822.5758,3889.4874 L 4831.5364,3889.4874 L 4831.5364,3886.4993 L 4822.5758,3886.4993 L 4822.5758,3883.515 L 4831.5364,3883.515 L 4831.5364,3880.5229 M 5065.2374,3806.4875 L 5053.2886,3806.4875 L 5053.2886,3827.4009 L 5065.2374,3827.4009 L 5065.2374,3824.4127 L 5056.2768,3824.4127 L 5056.2768,3818.4363 L 5065.2374,3818.4363 L 5065.2374,3815.4521 L 5056.2768,3815.4521 L 5056.2768,3809.4717 L 5065.2374,3809.4717 L 5065.2374,3806.4875 M 5035.3634,3806.4875 L 5035.3634,3827.4009 L 5038.3516,3827.4009 L 5038.3516,3812.46 L 5041.3398,3812.46 L 5041.3398,3809.4718 L 5038.3516,3809.4718 L 5038.3516,3806.4876 L 5035.3634,3806.4876 M 5050.3004,3806.4876 L 5050.3004,3827.401 L 5047.3162,3827.401 L 5047.3162,3812.4601 L 5044.328,3812.4601 L 5044.328,3809.4719 L 5047.3162,3809.4719 L 5047.3162,3806.4876 L 5050.3004,3806.4876 M 5025.9264,3806.4876 L 5028.9146,3806.4876 L 5028.9146,3818.4364 L 5031.8989,3818.4364 L 5031.8989,3821.4246 L 5028.9146,3821.4246 L 5028.9146,3827.401 L 5025.9264,3827.401 L 5025.9264,3821.4246 L 5016.9618,3821.4246 L 5016.9618,3815.4522 L 5019.95,3815.4522 L 5019.95,3818.4364 L 5025.9264,3818.4364 L 5025.9264,3812.46 L 5022.9382,3812.46 L 5022.9382,3809.4718 L 5025.9264,3809.4718 L 5025.9264,3806.4876 M 4999.4933,3806.4876 L 4999.4933,3809.4718 L 5008.0012,3809.4718 L 5008.0012,3812.46 L 5010.9894,3812.46 L 5010.9894,3809.4718 L 5013.9736,3809.4718 L 5013.9736,3806.4876 L 4999.4933,3806.4876 M 5008.0012,3812.46 L 5005.013,3812.46 L 5005.013,3815.4522 L 5002.0288,3815.4522 L 5002.0288,3818.4364 L 5010.9894,3818.4364 L 5010.9894,3815.4522 L 5008.0012,3815.4522 L 5008.0012,3812.46 M 4981.5681,3809.4718 L 4981.5681,3824.4127 L 4984.5523,3824.4127 L 4984.5523,3821.4246 L 4987.5445,3821.4246 L 4987.5445,3818.4364 L 4984.5523,3818.4364 L 4984.5523,3809.4718 L 4981.5681,3809.4718 M 4993.5169,3809.4718 L 4993.5169,3812.46 L 4990.5287,3812.46 L 4990.5287,3815.4521 L 4993.5169,3815.4521 L 4993.5169,3824.4127 L 4996.5051,3824.4127 L 4996.5051,3809.4718 L 4993.5169,3809.4718 M 4963.6429,3812.46 L 4963.6429,3824.4128 L 4966.6311,3824.4128 L 4966.6311,3818.4365 L 4975.5917,3818.4365 L 4975.5917,3815.4522 L 4966.6311,3815.4522 L 4966.6311,3812.4601 L 4963.6429,3812.4601 M 4966.6311,3824.4129 L 4975.5917,3824.4129 L 4975.5917,3827.4011 L 4966.6311,3827.4011 L 4966.6311,3824.4129 M 4774.3831,3877.5389 L 4771.3949,3877.5389 L 4771.3949,3880.5231 L 4768.4067,3880.5231 L 4768.4067,3883.5153 L 4777.3713,3883.5153 L 4777.3713,3880.5231 L 4774.3831,3880.5231 L 4774.3831,3877.5389 M 4765.8713,3871.5625 L 4765.8713,3874.5507 L 4774.3831,3874.5507 L 4774.3831,3877.5389 L 4777.3713,3877.5389 L 4777.3713,3874.5507 L 4780.3555,3874.5507 L 4780.3555,3871.5625 L 4765.8712,3871.5625 M 4765.8712,3889.4877 L 4777.3712,3889.4877 L 4777.3712,3892.4759 L 4765.8712,3892.4759 L 4765.8712,3889.4877 M 4777.3712,3883.5153 L 4780.3555,3883.5153 L 4780.3555,3889.4877 L 4777.3712,3889.4877 L 4777.3712,3883.5153 M 5017.4422,3844.9996 L 5017.4422,3847.9877 L 5026.4029,3847.9877 L 5026.4029,3850.972 L 5029.3911,3850.972 L 5029.3911,3847.9877 L 5032.3753,3847.9877 L 5032.3753,3844.9996 L 5017.4422,3844.9996 M 5020.4265,3853.9641 L 5023.4146,3853.9641 L 5023.4146,3856.9523 L 5032.3753,3856.9523 L 5032.3753,3859.9366 L 5017.4422,3859.9366 L 5017.4422,3856.9523 L 5020.4264,3856.9523 L 5020.4264,3853.9641 M 5002.5051,3844.9996 L 5008.4815,3844.9996 L 5008.4815,3856.9524 L 5011.4658,3856.9524 L 5011.4658,3859.9366 L 5002.5051,3859.9366 L 5002.5051,3856.9524 L 5005.4933,3856.9524 L 5005.4933,3847.9878 L 5002.5051,3847.9878 L 5002.5051,3844.9996 M 4912.7728,3844.9996 L 4918.7453,3844.9996 L 4918.7453,3856.9524 L 4921.7374,3856.9524 L 4921.7374,3859.9366 L 4912.7728,3859.9366 L 4912.7728,3856.9524 L 4915.761,3856.9524 L 4915.761,3847.9878 L 4912.7728,3847.9878 L 4912.7728,3844.9996 M 4915.761,3839.0272 L 4918.7453,3839.0272 L 4918.7453,3842.0114 L 4915.761,3842.0114 L 4915.761,3839.0272 M 4879.7413,3871.5626 L 4882.7295,3871.5626 L 4882.7295,3874.5508 L 4879.7413,3874.5508 L 4879.7413,3871.5626 M 4876.7531,3877.539 L 4882.7295,3877.539 L 4882.7295,3889.4878 L 4885.7177,3889.4878 L 4885.7177,3892.476 L 4876.7531,3892.476 L 4876.7531,3889.4878 L 4879.7413,3889.4878 L 4879.7413,3880.5232 L 4876.7531,3880.5232 L 4876.7531,3877.539 M 4903.8122,3853.9642 L 4906.7965,3853.9642 L 4906.7965,3856.9523 L 4903.8122,3856.9523 L 4903.8122,3853.9642 M 4900.824,3856.9523 L 4903.8122,3856.9523 L 4903.8122,3859.9366 L 4900.824,3859.9366 L 4900.824,3856.9523 M 4897.8358,3839.0271 L 4900.824,3839.0271 L 4900.824,3844.9996 L 4903.8122,3844.9996 L 4903.8122,3847.9878 L 4900.824,3847.9878 L 4900.824,3856.9523 L 4897.8358,3856.9523 L 4897.8358,3847.9878 L 4894.8477,3847.9878 L 4894.8477,3844.9996 L 4897.8358,3844.9996 L 4897.8358,3839.0271 M 4915.5917,3871.5625 L 4918.576,3871.5625 L 4918.576,3877.5389 L 4921.5642,3877.5389 L 4921.5642,3880.5232 L 4918.576,3880.5232 L 4918.576,3889.4877 L 4915.5917,3889.4877 L 4915.5917,3880.5232 L 4912.5996,3880.5232 L 4912.5996,3877.5389 L 4915.5917,3877.5389 L 4915.5917,3871.5625 M 4918.576,3889.4877 L 4921.5642,3889.4877 L 4921.5642,3892.4759 L 4918.576,3892.4759 L 4918.576,3889.4877 M 4921.5642,3886.4996 L 4924.5524,3886.4996 L 4924.5524,3889.4877 L 4921.5642,3889.4877 L 4921.5642,3886.4996 M 4927.5406,3877.5389 L 4930.5248,3877.5389 L 4930.5248,3880.5232 L 4933.513,3880.5232 L 4933.513,3883.5153 L 4930.5248,3883.5153 L 4930.5248,3892.4759 L 4927.5406,3892.4759 L 4927.5406,3877.5389 M 4939.4855,3880.5232 L 4942.4776,3880.5232 L 4942.4776,3883.9681 L 4939.4855,3883.9681 L 4939.4855,3880.5232 M 4933.513,3877.5389 L 4939.4855,3877.5389 L 4939.4855,3880.5232 L 4933.513,3880.5232 L 4933.513,3877.5389 M 4858.4224,3871.5626 L 4863.946,3871.5626 L 4863.946,3889.4878 L 4866.9342,3889.4878 L 4866.9342,3892.0232 L 4858.4224,3892.0232 L 4858.4224,3889.4878 L 4861.4106,3889.4878 L 4861.4106,3874.5508 L 4858.4224,3874.5508 L 4858.4224,3871.5626 M 4805.1035,3871.5626 L 4810.6271,3871.5626 L 4810.6271,3889.4878 L 4813.6153,3889.4878 L 4813.6153,3892.0232 L 4805.1035,3892.0232 L 4805.1035,3889.4878 L 4808.0878,3889.4878 L 4808.0878,3874.5508 L 4805.1035,3874.5508 L 4805.1035,3871.5626 M 4984.2965,3877.539 L 4990.2729,3877.539 L 4990.2729,3880.5232 L 4984.2965,3880.5232 L 4984.2965,3877.539 M 4981.3123,3880.5232 L 4984.2965,3880.5232 L 4984.2965,3889.4878 L 4981.3123,3889.4878 L 4981.3123,3880.5232 M 4990.2729,3880.5232 L 4993.2572,3880.5232 L 4993.2572,3871.5626 L 4996.2493,3871.5626 L 4996.2493,3892.0232 L 4984.2965,3892.0232 L 4984.2965,3889.4877 L 4993.2571,3889.4877 L 4993.2571,3883.5153 L 4990.2729,3883.5153 L 4990.2729,3880.5232 M 5035.3635,3880.5232 L 5038.3517,3880.5232 L 5038.3517,3889.4877 L 5035.3635,3889.4877 L 5035.3635,3880.5232 M 5038.3517,3877.5389 L 5044.328,3877.5389 L 5044.328,3880.5232 L 5038.3517,3880.5232 L 5038.3517,3877.5389 M 5044.328,3880.5232 L 5047.3162,3880.5232 L 5047.3162,3877.5389 L 5050.3005,3877.5389 L 5050.3005,3897.9995 L 5047.3162,3897.9995 L 5047.3162,3892.0231 L 5038.3517,3892.0231 L 5038.3517,3889.4877 L 5047.3162,3889.4877 L 5047.3162,3883.5153 L 5044.328,3883.5153 L 5044.328,3880.5231 M 4795.69,3877.5389 L 4789.7176,3877.5389 L 4789.7176,3880.5231 L 4795.69,3880.5231 L 4795.69,3877.5389 M 4789.7176,3880.5231 L 4786.7294,3880.5231 L 4786.7294,3877.5389 L 4783.7373,3877.5389 L 4783.7373,3897.9995 L 4786.7294,3897.9995 L 4786.7294,3892.0231 L 4795.69,3892.0231 L 4795.69,3889.4877 L 4786.7294,3889.4877 L 4786.7294,3883.5152 L 4789.7176,3883.5152 L 4789.7176,3880.5231 M 4798.6782,3880.5231 L 4795.69,3880.5231 L 4795.69,3889.4877 L 4798.6782,3889.4877 L 4798.6782,3880.5231 M 4762.4302,3880.5231 L 4759.446,3880.5231 L 4759.446,3889.4877 L 4762.4302,3889.4877 L 4762.4302,3880.5231 M 4753.4696,3880.5231 L 4750.4814,3880.5231 L 4750.4814,3877.5389 L 4747.4972,3877.5389 L 4747.4972,3897.9995 L 4750.4814,3897.9995 L 4750.4814,3892.0231 L 4759.446,3892.0231 L 4759.446,3889.4877 L 4750.4814,3889.4877 L 4750.4814,3883.5152 L 4753.4696,3883.5152 L 4753.4696,3880.5231 M 4759.446,3877.5388 L 4753.4696,3877.5388 L 4753.4696,3880.5231 L 4759.446,3880.5231 L 4759.446,3877.5388 M 4692.9893,3898.2002 L 4692.9893,3898.2002 z"
   id="path3064"
   style="fill:url(#id2)" />
    <path
   class="fil6"
   d="M 3661.04,3557.69 C 3634.0636,3440.304 3564.2132,3435.198 3547.792,3435.198 L 3547.792,3428.3358 C 3584.2133,3428.3358 3643.0794,3454.3279 3664.473,3543.5368 C 3691.8746,3454.5132 3738.6738,3430.6198 3771.52,3430.1668 C 3802.8192,3429.7337 3822.1263,3437.0329 3851.7917,3452.4896 L 3851.7917,3438.5605 L 3937.4413,3438.5605 L 3937.4413,3426.8125 L 3944.3035,3426.8125 L 3944.3035,3438.5605 L 3958.8271,3438.5605 L 3958.8271,3445.4227 L 3944.3035,3445.4227 L 3944.3035,3613.2657 L 4005.898,3457.5607 L 4064.9137,3457.5607 L 4070.0515,3445.4229 L 3996.52,3445.4229 L 3996.52,3438.5607 L 4072.9609,3438.5607 L 4081.0436,3419.482 L 4087.3625,3422.1631 L 4080.4137,3438.5607 L 4096.6814,3438.5607 L 4096.6814,3445.4229 L 4077.5082,3445.4229 L 4029.5082,3558.7139 L 4093.0791,3558.7139 L 4093.0791,3643.6233 C 4152.5752,3614.3398 4223.7601,3635.828 4259.6381,3693.1548 C 4295.2247,3638.2926 4364.7481,3616.4343 4425.3231,3641.0524 L 4422.9136,3637.1587 L 4525.2956,3637.1587 L 4545.7484,3670.2217 L 4565.7248,3637.9264 C 4566.024,3637.4461 4566.5437,3637.1587 4567.1028,3637.1587 L 4567.1028,3637.1587 C 4567.6933,3637.1587 4568.2327,3637.4736 4568.5201,3637.9894 C 4568.8075,3638.5012 4568.7917,3639.1311 4568.4807,3639.6311 L 4547.6579,3673.3083 L 4550.3272,3677.6233 L 4574.8784,3637.9264 C 4575.1697,3637.4461 4575.6934,3637.1587 4576.2563,3637.1587 L 4576.2563,3637.1587 C 4576.843,3637.1587 4577.3863,3637.4736 4577.6737,3637.9894 C 4577.9571,3638.5012 4577.9414,3639.1311 4577.6343,3639.6311 L 4552.2288,3680.702 L 4554.902,3685.0209 L 4584.5044,3637.1587 L 4686.8824,3637.1587 L 4606.0911,3767.7887 L 4608.7565,3772.0997 L 4694.0124,3634.2647 L 4587.6544,3634.2647 C 4587.0638,3634.2647 4586.5245,3633.9458 4586.2371,3633.434 C 4585.9497,3632.9183 4585.9654,3632.2923 4586.2764,3631.7883 L 4586.2764,3631.7883 C 4586.5678,3631.3159 4587.0914,3631.0206 4587.6544,3631.0206 L 4699.8274,3631.0206 L 4615.2408,3767.7886 L 4694.3707,3895.7296 C 4694.6817,3896.2257 4694.6935,3896.8595 4694.4061,3897.3714 C 4694.1226,3897.8832 4693.5833,3898.2021 4692.9927,3898.2021 C 4692.4297,3898.2021 4691.91,3897.9147 4691.6148,3897.4343 L 4613.3353,3770.8673 L 4610.666,3775.1862 L 4686.7487,3898.2022 L 4584.3707,3898.2022 L 4564.8116,3866.5841 L 4545.7289,3897.4345 C 4545.4375,3897.9149 4544.9139,3898.2023 4544.3509,3898.2023 L 4544.3509,3898.2023 C 4544.0832,3898.2023 4543.8273,3898.1393 4543.5911,3898.0133 C 4543.3549,3898.1393 4543.0911,3898.2023 4542.8273,3898.2023 C 4542.2368,3898.2023 4541.7013,3897.8834 4541.41,3897.3716 C 4541.1226,3896.8597 4541.1383,3896.2259 4541.4454,3895.7298 L 4562.1423,3862.2692 L 4559.473,3857.9543 L 4535.0557,3897.4346 C 4534.7605,3897.9149 4534.2408,3898.2023 4533.6778,3898.2023 C 4533.0912,3898.2023 4532.5479,3897.8834 4532.2605,3897.3716 C 4531.9731,3896.8598 4531.9888,3896.2259 4532.2998,3895.7298 L 4557.5675,3854.8715 L 4554.9022,3850.5566 L 4525.4298,3898.2023 L 4423.0478,3898.2023 L 4426.0438,3893.3558 C 4365.4178,3918.403 4295.5558,3896.718 4259.7608,3841.7456 C 4223.9301,3899.2141 4152.6548,3920.2417 4093.0798,3890.9188 L 4093.0798,3898.2023 L 4006.0877,3898.2023 L 4006.0877,3897.5527 L 3991.7255,3897.5527 L 3997.9972,3915.2535 L 3991.5326,3917.5488 L 3984.4499,3897.5527 L 3956.8712,3897.5527 L 3956.8712,3890.6865 L 3982.0169,3890.6865 L 3930.7807,3746.0485 L 3927.7492,3753.4265 L 3927.7492,3898.2025 L 3871.009,3898.2025 L 3871.009,3457.5605 L 3927.7492,3457.5605 L 3927.7492,3655.1075 L 3937.4422,3630.6114 L 3937.4422,3445.4224 L 3858.6548,3445.4224 L 3858.6548,3465.4815 C 3824.4776,3442.4972 3801.5761,3437.0327 3771.5209,3437.0327 C 3747.7256,3437.0327 3695.5052,3454.3752 3667.9029,3557.6897 L 3661.0407,3557.6897 L 3661.04,3557.69 z M 3783.942,3907.466 L 3675.761,3907.4699 L 3675.761,3900.6038 L 3749.639,3900.6038 C 3693.3398,3875.6077 3668.8083,3785.1348 3668.8083,3677.8798 C 3668.8083,3551.4268 3702.8949,3448.2928 3782.9623,3448.2928 C 3819.7576,3448.2928 3840.6631,3467.1944 3858.6552,3484.4227 L 3858.6552,3495.6589 C 3858.6631,3495.6668 3858.667,3495.6786 3858.6749,3495.6865 L 3858.6709,3590.9109 L 3852.5607,3590.9109 C 3839.293,3566.7337 3814.9032,3532.7889 3789.7142,3532.7889 C 3747.7378,3532.7889 3726.9701,3597.8125 3727.4977,3677.8799 C 3726.9701,3757.9547 3747.7379,3822.9739 3789.7142,3822.9739 C 3814.9032,3822.9739 3839.2929,3789.0251 3852.5607,3764.8519 L 3858.6709,3764.8519 L 3858.6749,3860.0763 C 3858.667,3860.0881 3858.6631,3860.092 3858.6552,3860.1078 L 3858.6552,3871.3401 C 3840.8245,3888.4149 3820.1276,3907.1314 3783.9426,3907.4661 L 3783.942,3907.466 z M 3546.962,3448.293 C 3626.3439,3448.293 3660.135,3556.561 3660.135,3677.88 C 3660.135,3799.203 3626.3437,3907.471 3546.962,3907.471 C 3467.5801,3907.471 3433.789,3804.337 3433.789,3677.88 C 3433.789,3551.427 3467.5803,3448.293 3546.962,3448.293 L 3546.962,3448.293 z M 3349.336,3457.5607 L 3245.978,3457.5607 L 3245.978,3713.4547 C 3246.6473,3715.2421 3247.3087,3717.0374 3247.9701,3718.8287 C 3252.6079,3717.5571 3257.4229,3717.0413 3262.2299,3717.2972 C 3271.6276,3717.8051 3280.096,3723.1319 3284.6079,3731.3956 C 3288.6906,3738.8602 3290.6315,3747.309 3290.2221,3755.805 C 3290.0528,3759.3523 3289.1158,3762.8247 3287.4819,3765.9822 C 3283.4662,3773.7381 3277.2693,3780.1515 3269.6551,3784.4231 C 3272.2339,3793.1712 3274.6945,3801.9467 3277.041,3810.7538 C 3281.5331,3827.6042 3283.6433,3845.0018 3283.3048,3862.4428 C 3283.2181,3866.9389 3282.2457,3871.3759 3280.4347,3875.494 C 3278.5803,3879.7145 3275.3323,3883.1673 3271.2339,3885.2814 C 3268.2575,3886.8129 3264.789,3887.0649 3261.6236,3885.9822 C 3258.4622,3884.8995 3255.8756,3882.5728 3254.4622,3879.5373 C 3252.8205,3876.0058 3252.0134,3872.1436 3252.1158,3868.2499 C 3252.1669,3866.057 3253.226,3864.0098 3254.9858,3862.7027 C 3257.2024,3861.0492 3259.9268,3860.2185 3262.6866,3860.3484 C 3264.4977,3860.4389 3266.1236,3861.498 3266.9347,3863.12 C 3267.7457,3864.746 3267.6158,3866.6791 3266.6,3868.183 C 3265.348,3870.0334 3263.5095,3871.4114 3261.3795,3872.1003 L 3262.1079,3873.6909 C 3262.4504,3874.5885 3263.2142,3875.2657 3264.1512,3875.498 C 3265.0882,3875.7303 3266.0803,3875.4862 3266.8047,3874.8523 C 3270.3717,3871.8129 3272.5921,3867.4901 3272.9819,3862.8208 C 3273.4977,3854.7736 3273.3284,3846.6988 3272.474,3838.683 C 3269.9622,3821.561 3266.2339,3804.6397 3261.3086,3788.0531 C 3260.0449,3788.4547 3258.7614,3788.7972 3257.4661,3789.0846 C 3253.6708,3789.9311 3249.8401,3790.5885 3245.9779,3791.0531 L 3245.9779,3898.2031 L 3315.1551,3898.2031 L 3315.1551,3912.5338 L 3322.0173,3912.5338 L 3322.0173,3898.2031 L 3336.7535,3898.2031 L 3336.7535,3891.3409 L 3322.0173,3891.3409 L 3322.0173,3736.8329 L 3328.6433,3736.8329 L 3389.0094,3898.2029 L 3455.3086,3898.2029 L 3461.3007,3913.4942 L 3467.6866,3910.9903 L 3461.7299,3895.7895 L 3482.4149,3895.7895 L 3482.4149,3888.9273 L 3459.0409,3888.9273 L 3387.6511,3706.7103 C 3413.9306,3679.604 3429.0054,3638.8048 3429.0054,3586.9933 C 3429.0054,3517.5484 3410.2062,3457.5603 3349.3361,3457.5603 L 3349.336,3457.5607 z M 3258.2888,3778.3837 C 3254.3479,3780.0097 3250.2101,3781.0963 3245.9778,3781.6199 L 3245.9778,3742.5687 C 3250.2376,3754.4033 3254.3282,3766.301 3258.2455,3778.2537 C 3258.2612,3778.297 3258.277,3778.3404 3258.2888,3778.3837 C 3258.2888,3778.3837 3258.2888,3778.3837 3258.2888,3778.3837 C 3258.2888,3778.3837 3258.2888,3778.3837 3258.2888,3778.3837 C 3258.2888,3778.3837 3258.2888,3778.3837 3258.2888,3778.3837 M 3251.8085,3729.4624 C 3253.1589,3729.0923 3254.525,3728.7773 3255.899,3728.5214 C 3260.2061,3727.7183 3264.6628,3728.7655 3268.1667,3731.3954 C 3271.3597,3733.7891 3273.6549,3737.1868 3274.6982,3741.0411 C 3277.0132,3749.6356 3276.5093,3758.7458 3273.2573,3767.0254 C 3272.5762,3768.7695 3271.4463,3770.2971 3269.9935,3771.4663 C 3268.8794,3772.364 3267.7219,3773.2104 3266.529,3774.0018 C 3261.9502,3759.049 3257.0447,3744.1987 3251.8085,3729.4624 M 3245.9777,3781.6199 C 3244.8951,3781.7498 3243.8085,3781.8482 3242.7179,3781.9073 C 3230.8321,3782.5529 3219.777,3775.8049 3214.9148,3764.9388 C 3206.2888,3745.6514 3205.0369,3723.8758 3211.3912,3703.7223 C 3213.6274,3696.6514 3215.9306,3689.6042 3218.3124,3682.5806 C 3218.966,3680.6357 3219.6353,3678.6947 3220.3085,3676.7538 C 3226.6865,3691.9113 3232.7849,3707.179 3238.5998,3722.5648 C 3230.3163,3726.9979 3223.6313,3733.9231 3219.4856,3742.3601 C 3218.8006,3743.7499 3219.0683,3745.427 3220.1549,3746.5373 C 3221.2415,3747.6436 3222.9108,3747.9467 3224.3163,3747.2932 C 3225.5407,3746.4113 3226.6746,3745.4152 3227.71,3744.3168 C 3231.8951,3739.6711 3236.9147,3735.8404 3242.5092,3733.0333 C 3243.6746,3736.2065 3244.832,3739.3876 3245.9777,3742.5687 L 3245.9777,3713.4545 C 3240.4777,3698.7262 3234.647,3684.1277 3228.4895,3669.6592 C 3227.4698,3667.2616 3226.4305,3664.8758 3225.3675,3662.4978 C 3226.647,3658.9821 3227.9501,3655.4703 3229.273,3651.9702 C 3231.1588,3646.9742 3232.6037,3641.8206 3233.5801,3636.5726 C 3234.6864,3630.6317 3234.1903,3624.5057 3232.147,3618.8206 C 3227.4816,3605.8678 3218.4935,3594.919 3206.6942,3587.8206 C 3201.5052,3584.6986 3195.517,3583.1553 3189.4659,3583.3797 C 3184.395,3583.5726 3180.2966,3587.5805 3180.0053,3592.6513 C 3179.7336,3597.2458 3180.8045,3601.8246 3183.0722,3605.8324 C 3185.1746,3609.5411 3187.4383,3613.1553 3189.8557,3616.667 C 3197.3242,3627.4898 3203.7809,3638.982 3209.1392,3650.9938 C 3210.1943,3653.356 3211.2415,3655.7222 3212.2809,3658.0883 C 3210.6431,3662.5883 3209.0447,3667.0962 3207.4777,3671.6159 C 3200.2061,3692.5923 3195.5171,3714.3757 3193.5092,3736.486 C 3192.5644,3746.923 3193.4935,3757.4427 3196.2533,3767.549 C 3200.0368,3781.4191 3212.3675,3791.238 3226.7297,3791.8285 C 3233.1549,3792.0923 3239.5958,3791.8325 3245.9777,3791.0529 L 3245.9777,3781.6199 M 3339.9698,3439.2109 L 3233.1158,3439.2109 L 3233.1158,3422.5613 L 3226.2536,3422.5613 L 3226.2536,3439.2109 L 3210.2693,3439.2109 L 3210.2693,3446.0731 L 3226.2536,3446.0731 L 3226.2536,3522.5259 L 3233.1158,3522.5259 L 3233.1158,3446.0731 L 3339.9698,3446.0731 L 3339.9698,3439.2109 z"
   id="path3066"
   style="fill:#131516" />
    <path
   class="fil11"
   d="M 4668.85,3647.2 L 4590.102,3647.2 L 4554.9012,3704.1173 L 4519.6965,3647.2 L 4440.9485,3647.2 L 4455.7162,3671.074 C 4425.6611,3645.5583 4385.4091,3635.5464 4346.9012,3644.0071 C 4308.3973,3652.4638 4276.0508,3678.4284 4259.4563,3714.1921 C 4244.5862,3680.9204 4216.5941,3656.0149 4182.7476,3645.9362 C 4148.8933,3635.8535 4112.5114,3641.5858 4083.0232,3661.6488 L 4083.0232,3567.1842 L 4016.1413,3567.1842 L 4016.1413,3886.5742 L 4083.0232,3886.5742 L 4083.0232,3873.6923 C 4112.5626,3893.7907 4149.0153,3899.5073 4182.913,3889.3537 C 4216.8106,3879.2041 4244.8028,3854.1883 4259.6059,3820.8143 C 4276.3854,3856.7159 4309.0468,3882.6608 4347.8146,3890.8812 C 4386.5823,3899.0977 4426.9603,3888.6332 4456.8616,3862.6253 L 4441.0821,3888.141 L 4519.8301,3888.141 L 4554.901,3831.4363 L 4589.9679,3888.141 L 4668.7159,3888.141 L 4594.271,3767.779 L 4668.8497,3647.2 L 4668.85,3647.2 z"
   id="path3068"
   style="fill:#a9becd" />
    <path
   class="fil6"
   d="M 4201.93,3767.35 C 4201.93,3734.5114 4175.308,3707.8933 4142.4772,3707.8933 C 4109.6465,3707.8933 4083.0284,3734.5114 4083.0284,3767.35 C 4083.0284,3800.1846 4109.6465,3826.8028 4142.4772,3826.8028 C 4175.3079,3826.8028 4201.93,3800.1847 4201.93,3767.35 z M 4496.623,3737.2161 C 4501.6073,3757.5074 4501.4813,3778.7161 4496.2529,3798.9444 L 4515.5285,3767.783 L 4496.623,3737.2161 M 4433.4458,3767.35 C 4433.4458,3734.5114 4406.8316,3707.8933 4374.0009,3707.8933 C 4341.1663,3707.8933 4314.5481,3734.5114 4314.5481,3767.35 C 4314.5481,3800.1846 4341.1662,3826.8028 4374.0009,3826.8028 C 4406.8316,3826.8028 4433.4458,3800.1847 4433.4458,3767.35 z"
   id="path3070"
   style="fill:#131516" />
    <path
   class="fil9"
   d="M 3302.71,3891.33 L 3315.147,3891.33 L 3315.147,3736.822 L 3302.71,3736.822 L 3302.71,3891.33 M 3328.3832,3639.428 C 3349.3517,3639.428 3352.6352,3612.8453 3352.6155,3594.6012 C 3352.5919,3576.3571 3349.9423,3556.5579 3331.647,3556.5579 L 3302.71,3556.5579 L 3302.71,3657.3809 L 3315.147,3657.3809 L 3315.147,3639.4281 L 3328.3832,3639.4281 L 3328.3832,3639.428 z M 3328.3832,3646.2941 L 3322.0092,3646.2941 L 3322.0092,3657.3807 L 3322.4462,3657.3807 C 3369.1745,3657.3807 3369.1745,3615.5342 3369.1745,3600.9949 L 3369.1745,3591.6091 C 3369.1745,3577.5146 3369.08,3538.613 3329.7336,3538.613 L 3302.71,3538.613 L 3302.71,3549.6957 L 3328.3832,3549.6957 C 3341.7375,3549.6957 3359.647,3551.5934 3359.647,3596.3768 C 3359.647,3641.1524 3341.647,3645.9201 3328.3832,3646.2941 L 3328.3832,3646.2941 z M 3217.1072,3645.0697 C 3211.7293,3634.3335 3205.9143,3623.8256 3199.6663,3613.5697 C 3197.6781,3610.3099 3195.8828,3606.9398 3194.2884,3603.4713 C 3193.245,3601.2115 3192.6269,3598.7784 3192.4576,3596.2942 C 3192.4261,3595.7587 3192.6191,3595.2312 3192.9891,3594.8453 C 3193.3632,3594.4595 3193.8828,3594.2548 3194.4183,3594.2705 C 3196.997,3594.3572 3199.5128,3595.1012 3201.7254,3596.4241 C 3211.249,3602.1209 3218.0325,3611.4556 3220.5207,3622.2666 C 3221.2451,3625.4201 3221.2687,3628.6996 3220.5876,3631.8611 C 3219.627,3636.3138 3218.4655,3640.7193 3217.1073,3645.0698 L 3217.1073,3645.0698 M 4372.3673,3816.7198 L 4375.6074,3816.7198 C 4402.5602,3815.83 4423.8239,3793.4954 4423.3791,3766.5308 C 4422.9382,3739.5702 4400.9539,3717.9442 4373.9893,3717.9442 C 4347.0208,3717.9442 4325.0405,3739.5702 4324.5956,3766.5308 C 4324.1547,3793.4954 4345.4145,3815.83 4372.3673,3816.7198 L 4372.3673,3816.7198 z M 4140.8473,3816.7198 L 4144.0874,3816.7198 C 4171.0402,3815.83 4192.3,3793.4954 4191.8591,3766.5308 C 4191.4182,3739.5702 4169.43,3717.9442 4142.4654,3717.9442 C 4115.5008,3717.9442 4093.5166,3739.5702 4093.0756,3766.5308 C 4092.6347,3793.4954 4113.8945,3815.83 4140.8473,3816.7198 L 4140.8473,3816.7198 z M 3985.9813,3661.3968 L 4006.0758,3713.3811 L 4006.0758,3613.9677 L 3985.9813,3661.3968 M 3989.2844,3890.6768 L 3934.6742,3736.5158 L 3941.0797,3720.9213 L 4004.1821,3890.6773 L 3989.2845,3890.6773 M 3546.9455,3531.2913 C 3585.1699,3531.2913 3601.4337,3600.4094 3601.4337,3677.8703 C 3601.4337,3755.3349 3585.1699,3824.4533 3546.9455,3824.4533 C 3508.725,3824.4533 3492.4612,3758.6029 3492.4612,3677.8703 C 3492.4612,3597.142 3508.725,3531.2913 3546.9455,3531.2913 z"
   id="path3072"
   style="fill:#efaf04" />
    <path
   class="fil6"
   d="M 4372.37,3816.72 C 4373.4487,3816.7987 4374.5275,3816.7909 4375.6102,3816.72 L 4375.6102,3812.1767 C 4400.059,3811.2948 4419.2913,3790.9798 4418.8425,3766.5192 C 4418.3936,3742.0546 4398.4252,3722.4641 4373.9567,3722.4798 C 4373.37,3722.4719 4372.8858,3722.779 4372.5945,3723.2829 C 4372.2952,3723.7908 4372.2952,3724.4168 4372.5905,3724.9247 C 4372.8858,3725.4286 4373.374,3725.7318 4373.9606,3725.7278 C 4389.0236,3725.7121 4402.9212,3733.8459 4410.2913,3746.9876 C 4417.6574,3760.1254 4417.3504,3776.2278 4409.4842,3789.0742 C 4401.622,3801.9207 4387.4251,3809.5191 4372.37,3808.9325 L 4372.37,3816.7199 L 4372.37,3816.72 z M 4142.468,3804.4247 C 4141.5743,3804.4247 4140.8499,3803.6964 4140.8499,3802.8026 C 4140.8499,3801.905 4141.5743,3801.1806 4142.468,3801.1806 C 4161.157,3801.1806 4176.3026,3786.031 4176.3026,3767.346 C 4176.3026,3748.6531 4161.1569,3733.5074 4142.468,3733.5074 C 4141.5743,3733.5074 4140.8499,3732.7791 4140.8499,3731.8853 C 4140.8499,3730.9877 4141.5743,3730.2672 4142.468,3730.2672 C 4162.9483,3730.2672 4179.5428,3746.8617 4179.5428,3767.3459 C 4179.5428,3787.8223 4162.9483,3804.4246 4142.468,3804.4246 L 4142.468,3804.4247 z M 4373.992,3804.4247 C 4373.0944,3804.4247 4372.37,3803.6964 4372.37,3802.8026 C 4372.37,3801.905 4373.0944,3801.1806 4373.992,3801.1806 C 4392.677,3801.1806 4407.8266,3786.031 4407.8266,3767.346 C 4407.8266,3748.6531 4392.677,3733.5074 4373.992,3733.5074 C 4373.0944,3733.5074 4372.37,3732.7791 4372.37,3731.8853 C 4372.37,3730.9877 4373.0944,3730.2672 4373.992,3730.2672 C 4394.4684,3730.2672 4411.0668,3746.8617 4411.0668,3767.3459 C 4411.0668,3787.8223 4394.4684,3804.4246 4373.992,3804.4246 L 4373.992,3804.4247 z M 4140.85,3816.72 C 4141.9287,3816.7712 4143.0075,3816.7554 4144.0902,3816.72 L 4144.0902,3812.1767 C 4168.539,3811.2948 4187.7674,3790.9798 4187.3225,3766.5192 C 4186.8697,3742.0546 4166.9012,3722.4641 4142.4367,3722.4798 C 4141.854,3722.4719 4141.3697,3722.779 4141.0705,3723.2829 C 4140.7752,3723.7908 4140.7752,3724.4168 4141.0705,3724.9247 C 4141.3658,3725.4286 4141.854,3725.7318 4142.4406,3725.7278 C 4157.5036,3725.7121 4171.4012,3733.8459 4178.7674,3746.9876 C 4186.1375,3760.1254 4185.8265,3776.2278 4177.9603,3789.0742 C 4170.0981,3801.9207 4155.9012,3809.5191 4140.8501,3808.9325 L 4140.8501,3816.7199 L 4140.85,3816.72 z M 3546.952,3803.8224 L 3546.952,3786.8696 L 3540.0859,3786.8696 L 3540.0859,3804.9247 L 3540.0859,3811.7869 C 3577.1883,3811.7869 3588.078,3748.783 3588.3339,3681.3029 L 3744.4759,3681.3029 C 3744.8459,3728.8068 3755.2633,3801.5119 3786.2751,3806.5269 L 3786.2751,3824.4521 L 3793.1373,3824.4521 L 3793.1373,3681.3021 L 3820.4601,3681.3021 L 3820.4601,3674.436 L 3793.1373,3674.436 L 3793.1373,3649.6762 L 3786.2751,3649.6762 L 3786.2751,3674.436 L 3751.3657,3674.436 C 3752.1058,3627.3573 3765.2594,3558.523 3789.7043,3557.405 L 3789.7043,3550.5388 C 3757.6374,3551.7829 3745.1767,3625.2514 3744.4956,3674.4368 L 3588.3226,3674.4368 C 3587.8777,3607.2793 3577.0352,3544.7868 3540.0864,3544.7868 L 3540.0864,3551.3734 L 3540.0864,3674.4364 L 3519.114,3674.4364 L 3519.114,3681.3026 L 3540.0864,3681.3026 L 3540.0864,3705.2711 L 3546.9525,3705.2711 L 3546.9525,3681.3026 L 3581.4604,3681.3026 C 3581.1179,3724.4955 3575.673,3794.2906 3546.9525,3803.8226 L 3546.952,3803.8224 z"
   id="path3074"
   style="fill:#131516" />
    <path
   class="fil9"
   d="M 3751.34,3681.31 C 3751.7849,3726.2785 3763.1707,3793.42 3786.277,3799.519 L 3786.277,3681.31 L 3751.34,3681.31 z M 3581.474,3674.4439 L 3546.9543,3674.4439 L 3546.9543,3552.4909 C 3575.5291,3561.9869 3581.2693,3631.1799 3581.474,3674.4439 z"
   id="path3076"
   style="fill:#efaf04" />
   </g>
<g
   inkscape:groupmode="layer"
   id="layer1"
   inkscape:label="Text"
   style="display:inline"><g
   style="fill-rule:evenodd"
   id="g3040">
    <path
   class="fil6"
   d="m 3415.74,6558.83 -10.5,-106.102 0,0 2.1181,2.0039 2.1457,1.9252 2.1693,1.8465 2.1929,1.7716 2.2165,1.689 2.2441,1.6142 2.2677,1.5315 2.2953,1.4567 2.315,1.3779 2.3425,1.2992 2.3661,1.2245 2.3937,1.1417 2.4134,1.0669 2.441,0.9843 2.4685,0.9094 2.4881,0.8307 2.5158,0.752 2.5394,0.6732 2.5669,0.5985 2.5905,0.5157 2.6142,0.4409 2.6378,0.3622 2.6614,0.2796 2.689,0.2047 2.7126,0.1299 2.7402,0.047 2.7598,-0.032 2.7874,-0.1063 2.815,-0.189 2.8346,-0.2638 2.8622,-0.3425 2.8859,-0.4213 -69.5906,80.7795 0,0 0,-3e-4 z"
   id="path3042"
   style="fill:#131516" />
    <path
   class="fil6"
   d="m 3839.65,6054.82 -18.1929,8.1693 -17.9213,8.6496 -17.6496,9.122 -17.3701,9.567 -17.0827,10.0039 -16.7874,10.4606 -16.4803,10.8898 -16.1772,11.311 -15.8465,11.7205 -15.5354,12.1339 -15.185,12.5276 -14.8504,12.9291 -14.5,13.3031 -14.1378,13.689 -13.7756,14.0551 -13.3937,14.4134 -13.0197,14.7677 -12.622,15.1063 -12.2244,15.4488 -11.8228,15.7835 -11.4055,16.0906 -10.9882,16.4173 -10.5591,16.7165 -10.1102,17.0157 -9.6811,17.3071 -9.2165,17.5827 -8.7599,17.8583 -8.2874,18.122 -7.7992,18.3898 -7.3346,18.626 -6.8268,18.8858 -6.3425,19.0984 5.6299,1.7795 6.2716,-18.9646 6.7796,-18.7205 7.2637,-18.4921 7.7599,-18.2244 8.2165,-17.9882 8.689,-17.7165 9.1457,-17.4488 9.5866,-17.1654 10.0472,-16.874 10.4646,-16.5827 10.8937,-16.2756 11.3189,-15.9803 11.7283,-15.6417 12.1299,-15.3307 12.5276,-14.9961 12.9094,-14.6496 13.2992,-14.2953 13.6575,-13.9449 14.0276,-13.5709 14.3819,-13.2087 14.7323,-12.8189 15.0748,-12.4331 15.3937,-12.0394 15.7362,-11.6339 16.0354,-11.2165 16.3622,-10.7953 16.6535,-10.3661 16.9409,-9.9409 17.2362,-9.4961 17.5079,-9.0276 17.7795,-8.5787 18.0354,-8.122 -2.3307,-5.4016 2e-4,2e-4 z"
   id="path3044"
   style="fill:#131516" />
   </g><g
   style="fill-rule:evenodd"
   id="g3046">
    <path
   class="fil6"
   d="m 4851.99,6558.83 -69.5906,-80.7795 0,0 2.8858,0.4213 2.8622,0.3425 2.8347,0.2638 2.8149,0.1889 2.7874,0.1063 2.7599,0.032 2.7401,-0.047 2.7126,-0.1299 2.689,-0.2048 2.6614,-0.2795 2.6378,-0.3622 2.6142,-0.4409 2.5906,-0.5158 2.5669,-0.5984 2.5394,-0.6732 2.5157,-0.752 2.4882,-0.8307 2.4685,-0.9095 2.4409,-0.9842 2.4134,-1.0669 2.3937,-1.1418 2.3662,-1.2244 2.3425,-1.2992 2.3149,-1.3779 2.2953,-1.4567 2.2677,-1.5315 2.2441,-1.6142 2.2166,-1.689 2.1929,-1.7716 2.1693,-1.8465 2.1456,-1.9252 2.1182,-2.0039 -10.5,106.102 0,0 0,3e-4 z"
   id="path3048"
   style="fill:#131516" />
    <path
   class="fil6"
   d="m 4425.74,6060.22 18.0354,8.1221 17.7795,8.5787 17.5079,9.0276 17.2362,9.496 16.9409,9.941 16.6535,10.3661 16.3622,10.7953 16.0354,11.2165 15.7362,11.6339 15.3937,12.0394 15.0748,12.4331 14.7323,12.8189 14.3819,13.2087 14.0276,13.5709 13.6575,13.9449 13.2992,14.2953 12.9094,14.6496 12.5276,14.9961 12.1299,15.3307 11.7283,15.6417 11.3189,15.9803 10.8937,16.2756 10.4646,16.5827 10.0472,16.874 9.5866,17.1654 9.1457,17.4488 8.689,17.7165 8.2165,17.9882 7.7598,18.2244 7.2638,18.4921 6.7795,18.7205 6.2717,18.9646 5.6299,-1.7796 -6.3425,-19.0984 -6.8268,-18.8858 -7.3346,-18.626 -7.7992,-18.3898 -8.2874,-18.122 -8.7599,-17.8583 -9.2165,-17.5827 -9.6811,-17.3071 -10.1102,-17.0157 -10.5591,-16.7165 -10.9882,-16.4173 -11.4055,-16.0906 -11.8228,-15.7835 -12.2244,-15.4488 -12.622,-15.1063 -13.0197,-14.7677 -13.3937,-14.4134 -13.7756,-14.0551 -14.1378,-13.689 -14.5,-13.3031 -14.8504,-12.9291 -15.185,-12.5276 -15.5354,-12.1339 -15.8465,-11.7205 -16.1772,-11.311 -16.4803,-10.8898 -16.7874,-10.4606 -17.0827,-10.0039 -17.3701,-9.5669 -17.6496,-9.1221 -17.9213,-8.6496 -18.1929,-8.1693 -2.3307,5.4016 2e-4,-2e-4 z"
   id="path3050"
   style="fill:#131516" />
   </g><path
   style="fill:none;stroke:#000000;stroke-width:11.11111069;stroke-linecap:butt;stroke-linejoin:miter;stroke-miterlimit:4;stroke-opacity:1;stroke-dasharray:none;display:inline"
   d="m 3070.7253,6728.7814 -924.0012,0"
   id="path1503"
   inkscape:export-filename="/home/martin/src/dev/pics/pixelma/two/ipodcolor-front.png"
   inkscape:export-xdpi="72"
   inkscape:export-ydpi="72" /><path
   style="fill:none;stroke:#000000;stroke-width:11.11111069;stroke-linecap:butt;stroke-linejoin:miter;stroke-miterlimit:4;stroke-opacity:1;stroke-dasharray:none;display:inline"
   d="M 3501.2259,6109.2807 2220.2242,5615.7801"
   id="path1505"
   inkscape:export-filename="/home/martin/src/dev/pics/pixelma/two/ipodcolor-front.png"
   inkscape:export-xdpi="72"
   inkscape:export-ydpi="72" /><path
   style="fill:none;stroke:#000000;stroke-width:11.11111069;stroke-linecap:butt;stroke-linejoin:miter;stroke-miterlimit:4;stroke-opacity:1;stroke-dasharray:none;display:inline"
   d="m 4085.9326,5719.7249 1984.5026,-756.001"
   id="path1507"
   inkscape:export-filename="/home/martin/src/dev/pics/pixelma/two/ipodcolor-front.png"
   inkscape:export-xdpi="72"
   inkscape:export-ydpi="72" /><path
   style="fill:none;stroke:#000000;stroke-width:11.11111069;stroke-linecap:butt;stroke-linejoin:miter;stroke-miterlimit:4;stroke-opacity:1;stroke-dasharray:none;display:inline"
   d="M 4674.2425,6149.4792 5955.2441,5760.9787"
   id="path1509"
   inkscape:export-filename="/home/martin/src/dev/pics/pixelma/two/ipodcolor-front.png"
   inkscape:export-xdpi="72"
   inkscape:export-ydpi="72" /><path
   style="fill:none;stroke:#000000;stroke-width:11.11111069;stroke-linecap:butt;stroke-linejoin:miter;stroke-miterlimit:4;stroke-opacity:1;stroke-dasharray:none;display:inline"
   d="m 5166.6878,6718.2814 861.0011,0"
   id="path1511"
   inkscape:export-filename="/home/martin/src/dev/pics/pixelma/two/ipodcolor-front.png"
   inkscape:export-xdpi="72"
   inkscape:export-ydpi="72" /><path
   style="fill:none;stroke:#000000;stroke-width:11.11111069;stroke-linecap:butt;stroke-linejoin:miter;stroke-miterlimit:4;stroke-opacity:1;stroke-dasharray:none;display:inline"
   d="m 4090.2819,7737.838 c -52.5001,10.5 -2058.0026,640.5008 -2058.0026,640.5008"
   id="path2388"
   inkscape:export-filename="/home/martin/src/dev/pics/pixelma/two/ipodcolor-front.png"
   inkscape:export-xdpi="72"
   inkscape:export-ydpi="72" /><path
   style="fill:none;stroke:#000000;stroke-width:11.11111069;stroke-linecap:butt;stroke-linejoin:miter;stroke-miterlimit:4;stroke-opacity:1;stroke-dasharray:none;display:inline"
   d="M 4159.4328,6878.3293 6116.4713,8390.0577"
   id="path2390"
   inkscape:export-filename="/home/martin/src/dev/pics/pixelma/two/ipodcolor-front.png"
   inkscape:export-xdpi="72"
   inkscape:export-ydpi="72"
   sodipodi:nodetypes="cc" /><text
   xml:space="preserve"
   style="font-size:311.1111145px;font-style:normal;font-variant:normal;font-weight:normal;font-stretch:normal;text-align:start;line-height:100%;writing-mode:lr-tb;text-anchor:start;fill:#000000;fill-opacity:1;fill-rule:evenodd;stroke:none;display:inline;font-family:URW Palladio L"
   x="619.77954"
   y="5710.2798"
   id="text2392"
   sodipodi:linespacing="100%"
   inkscape:export-filename="/home/martin/src/dev/pics/pixelma/two/ipodcolor-front.png"
   inkscape:export-xdpi="72"
   inkscape:export-ydpi="72"><tspan
     sodipodi:role="line"
     id="tspan2394"
     x="619.77954"
     y="5710.2798">Scroll Back</tspan></text>


<text
   xml:space="preserve"
   style="font-size:311.1111145px;font-style:normal;font-variant:normal;font-weight:normal;font-stretch:normal;text-align:start;line-height:100%;writing-mode:lr-tb;text-anchor:start;fill:#000000;fill-opacity:1;fill-rule:evenodd;stroke:none;display:inline;font-family:URW Palladio L"
   x="609.75348"
   y="6800.5708"
   id="text2396"
   sodipodi:linespacing="100%"
   inkscape:export-filename="/home/martin/src/dev/pics/pixelma/two/ipodcolor-front.png"
   inkscape:export-xdpi="72"
   inkscape:export-ydpi="72"><tspan
     sodipodi:role="line"
     id="tspan2398"
     x="609.75348"
     y="6800.5708">Prev</tspan></text>


<text
   xml:space="preserve"
   style="font-size:311.1111145px;font-style:normal;font-variant:normal;font-weight:normal;font-stretch:normal;text-align:start;line-height:100%;writing-mode:lr-tb;text-anchor:start;fill:#000000;fill-opacity:1;fill-rule:evenodd;stroke:none;display:inline;font-family:URW Palladio L"
   x="609.75348"
   y="8445.7793"
   id="text2400"
   sodipodi:linespacing="100%"
   inkscape:export-filename="/home/martin/src/dev/pics/pixelma/two/ipodcolor-front.png"
   inkscape:export-xdpi="72"
   inkscape:export-ydpi="72"><tspan
     sodipodi:role="line"
     id="tspan2402"
     x="609.75348"
     y="8445.7793">Play</tspan></text>


<text
   xml:space="preserve"
   style="font-size:311.1111145px;font-style:normal;font-variant:normal;font-weight:normal;font-stretch:normal;text-align:start;line-height:100%;writing-mode:lr-tb;text-anchor:start;fill:#000000;fill-opacity:1;fill-rule:evenodd;stroke:none;display:inline;font-family:URW Palladio L"
   x="6159.6416"
   y="8556.6201"
   id="text2404"
   sodipodi:linespacing="100%"
   inkscape:export-filename="/home/martin/src/dev/pics/pixelma/two/ipodcolor-front.png"
   inkscape:export-xdpi="72"
   inkscape:export-ydpi="72"><tspan
     sodipodi:role="line"
     id="tspan2406"
     x="6159.6416"
     y="8556.6201">Select</tspan></text>


<text
   xml:space="preserve"
   style="font-size:311.1111145px;font-style:normal;font-variant:normal;font-weight:normal;font-stretch:normal;text-align:start;line-height:100%;writing-mode:lr-tb;text-anchor:start;fill:#000000;fill-opacity:1;fill-rule:evenodd;stroke:none;display:inline;font-family:URW Palladio L"
   x="6149.9194"
   y="6811.0708"
   id="text2408"
   sodipodi:linespacing="100%"
   inkscape:export-filename="/home/martin/src/dev/pics/pixelma/two/ipodcolor-front.png"
   inkscape:export-xdpi="72"
   inkscape:export-ydpi="72"><tspan
     sodipodi:role="line"
     id="tspan2410"
     x="6149.9194"
     y="6811.0708">Next</tspan></text>


<text
   xml:space="preserve"
   style="font-size:311.1111145px;font-style:normal;font-variant:normal;font-weight:normal;font-stretch:normal;text-align:start;line-height:100%;writing-mode:lr-tb;text-anchor:start;fill:#000000;fill-opacity:1;fill-rule:evenodd;stroke:none;display:inline;font-family:URW Palladio L"
   x="6159.6416"
   y="5858.1167"
   id="text2412"
   sodipodi:linespacing="100%"
   inkscape:export-filename="/home/martin/src/dev/pics/pixelma/two/ipodcolor-front.png"
   inkscape:export-xdpi="72"
   inkscape:export-ydpi="72"><tspan
     sodipodi:role="line"
     id="tspan2414"
     x="6159.6416"
     y="5858.1167">Scroll Fwd</tspan></text>


<text
   xml:space="preserve"
   style="font-size:311.1111145px;font-style:normal;font-variant:normal;font-weight:normal;font-stretch:normal;text-align:start;line-height:100%;writing-mode:lr-tb;text-anchor:start;fill:#000000;fill-opacity:1;fill-rule:evenodd;stroke:none;display:inline;font-family:URW Palladio L"
   x="6150.5269"
   y="5046.0127"
   id="text2416"
   sodipodi:linespacing="100%"
   inkscape:export-filename="/home/martin/src/dev/pics/pixelma/two/ipodcolor-front.png"
   inkscape:export-xdpi="72"
   inkscape:export-ydpi="72"><tspan
     sodipodi:role="line"
     id="tspan2418"
     x="6150.5269"
     y="5046.0127">Menu</tspan></text>


<text
   xml:space="preserve"
   style="font-size:311.1111145px;font-style:normal;font-variant:normal;font-weight:normal;font-stretch:normal;text-align:start;line-height:100%;writing-mode:lr-tb;text-anchor:start;fill:#000000;fill-opacity:1;fill-rule:evenodd;stroke:none;display:inline;font-family:URW Palladio L"
   x="3015.4963"
   y="2759.4763"
   id="text2420"
   sodipodi:linespacing="100%"
   inkscape:export-filename="/home/martin/src/dev/pics/pixelma/two/ipodcolor-front.png"
   inkscape:export-xdpi="72"
   inkscape:export-ydpi="72"><tspan
     sodipodi:role="line"
     id="tspan2422"
     x="3015.4963"
     y="2759.4763">Hold</tspan></text>


</g>







</svg>