<?xml version="1.0" encoding="UTF-8" standalone="no"?>
<!-- Creator: CorelDRAW -->

<svg
   xmlns:dc="http://purl.org/dc/elements/1.1/"
   xmlns:cc="http://creativecommons.org/ns#"
   xmlns:rdf="http://www.w3.org/1999/02/22-rdf-syntax-ns#"
   xmlns:svg="http://www.w3.org/2000/svg"
   xmlns="http://www.w3.org/2000/svg"
   xmlns:xlink="http://www.w3.org/1999/xlink"
   xmlns:sodipodi="http://sodipodi.sourceforge.net/DTD/sodipodi-0.dtd"
   xmlns:inkscape="http://www.inkscape.org/namespaces/inkscape"
   xml:space="preserve"
   width="90mm"
   height="152mm"
   shape-rendering="geometricPrecision"
   text-rendering="geometricPrecision"
   image-rendering="optimizeQuality"
   viewBox="0 0 9000 15200"
   id="svg2093"
   sodipodi:version="0.32"
   inkscape:version="0.47 r22583"
   sodipodi:docname="ipodnano1g-front.svg"
   version="1.1"
   style="fill-rule:evenodd;display:inline"><metadata
   id="metadata2194"><rdf:RDF><cc:Work
       rdf:about=""><dc:format>image/svg+xml</dc:format><dc:type
         rdf:resource="http://purl.org/dc/dcmitype/StillImage" /></cc:Work></rdf:RDF></metadata><defs
   id="defs2192"><inkscape:perspective
   sodipodi:type="inkscape:persp3d"
   inkscape:vp_x="0 : 269.29135 : 1"
   inkscape:vp_y="0 : 1000 : 0"
   inkscape:vp_z="318.89764 : 269.29135 : 1"
   inkscape:persp3d-origin="159.44882 : 179.52757 : 1"
   id="perspective3060" />
  <defs
   id="defs2096">
   <linearGradient
   y2="100"
   x2="3127.46"
   y1="100"
   x1="2088.98"
   gradientUnits="userSpaceOnUse"
   id="id0">
    <stop
   id="stop2099"
   stop-color="#000000"
   offset="0" />
    <stop
   id="stop2101"
   stop-color="#D1D1D1"
   offset="0.0784314" />
    <stop
   id="stop2103"
   stop-color="#C4C4C4"
   offset="0.101961" />
    <stop
   id="stop2105"
   stop-color="#C5C5C5"
   offset="0.901961" />
    <stop
   id="stop2107"
   stop-color="#D1D1D1"
   offset="0.921569" />
    <stop
   id="stop2109"
   stop-color="#000000"
   offset="1" />
   </linearGradient>
  </defs>
  
  
  
  
  
  
  
  
  
  
  
  
  
  
  
  
  
  
  
  
 <linearGradient
   inkscape:collect="always"
   xlink:href="#id0"
   id="linearGradient2919"
   gradientUnits="userSpaceOnUse"
   x1="2088.98"
   y1="100"
   x2="3127.46"
   y2="100" /><inkscape:perspective
   id="perspective2910"
   inkscape:persp3d-origin="0.5 : 0.33333333 : 1"
   inkscape:vp_z="1 : 0.5 : 1"
   inkscape:vp_y="0 : 1000 : 0"
   inkscape:vp_x="0 : 0.5 : 1"
   sodipodi:type="inkscape:persp3d" /></defs><sodipodi:namedview
   inkscape:window-height="572"
   inkscape:window-width="746"
   inkscape:pageshadow="2"
   inkscape:pageopacity="0.0"
   borderopacity="1.0"
   bordercolor="#666666"
   pagecolor="#ffffff"
   id="base"
   inkscape:zoom="0.7482602"
   inkscape:cx="159.44882"
   inkscape:cy="322.74869"
   inkscape:window-x="268"
   inkscape:window-y="56"
   inkscape:current-layer="svg2093"
   showgrid="false"
   inkscape:window-maximized="0" />
 <path
   style="fill:#dedede;stroke:#000000;stroke-width:18;stroke-linejoin:bevel"
   id="path2111"
   d="m 1880.02,146.5 5239.97,0 c 369.33,0 668.73,299.4 668.73,668.73 l 0,13662.5 c 0,369.33 -299.4,668.74 -668.73,668.74 l -5239.97,0 c -369.33,0 -668.73,-299.41 -668.73,-668.74 l 0,-13662.5 c 0,-369.33 299.4,-668.73 668.73,-668.73" /><path
   style="fill:#f9f9f8;stroke:#ffffff;stroke-width:50;stroke-linejoin:bevel"
   id="path2113"
   d="m 1880.02,313.89 5239.97,0 c 132.96,0 260.48,52.82 354.5,146.84 94.02,94.02 146.84,221.53 146.84,354.5 l 0,13662.5 c 0,132.97 -52.82,260.48 -146.84,354.5 -94.02,94.02 -221.54,146.84 -354.5,146.84 l -5239.97,0 c -276.88,0 -501.34,-224.45 -501.34,-501.34 l 0,-13662.5 c 0,-276.89 224.46,-501.34 501.34,-501.34" /><path
   style="fill:#736d78;stroke:#ffffff;stroke-width:15;stroke-linejoin:bevel"
   id="path2115"
   d="m 2016.97,863.65 4966.08,0 c 83.1,0 150.46,67.37 150.46,150.46 l 0,3703.19 c 0,83.1 -67.36,150.46 -150.46,150.46 l -4966.08,0 c -83.1,0 -150.47,-67.36 -150.47,-150.46 l 0,-3703.19 c 0,-83.09 67.37,-150.46 150.47,-150.46" /><path
   style="fill:#11161c;stroke:#000000;stroke-width:49.9998945;stroke-linejoin:bevel;color:#000000;fill-opacity:1;fill-rule:nonzero;stroke-linecap:butt;stroke-miterlimit:4;stroke-opacity:1;stroke-dasharray:none;stroke-dashoffset:0;marker:none;visibility:visible;display:inline;overflow:visible;enable-background:accumulate"
   id="path2117"
   d="m 2016.97,952.06 4966.08,0 c 34.27,0 62.05,27.78 62.05,62.05 l 0,3703.19 c 0,16.46 -6.53,32.24 -18.17,43.88 -11.64,11.64 -27.42,18.18 -43.88,18.18 l -4966.08,0 c -16.46,0 -32.25,-6.54 -43.88,-18.18 -11.64,-11.64 -18.18,-27.42 -18.18,-43.88 l 0,-3703.19 c 0,-34.27 27.78,-62.05 62.06,-62.05" /><path
   style="fill:#dbdce1;stroke:#000000;stroke-width:18;stroke-linejoin:bevel"
   id="path2119"
   d="m 7023.28,9854.57 c 0,-1393.56 -1129.71,-2523.26 -2523.27,-2523.26 -1393.57,0 -2523.28,1129.7 -2523.28,2523.26 0,1393.57 1129.71,2523.28 2523.28,2523.28 1393.56,0 2523.27,-1129.71 2523.27,-2523.27 z" /><path
   style="fill:#f9f9f8;stroke:#000000;stroke-width:18;stroke-linejoin:bevel"
   id="path2121"
   d="m 5558.19,9854.57 c 0,-584.41 -473.76,-1058.18 -1058.18,-1058.18 -584.41,0 -1058.18,473.77 -1058.18,1058.18 0,584.42 473.77,1058.19 1058.18,1058.19 584.42,0 1058.18,-473.77 1058.18,-1058.18 z" /><path
   style="fill:#ffffff"
   id="path2123"
   d="m 6660.68,9676.61 c -9.23,0 -16.71,7.49 -16.71,16.72 l 0,102.06 c 0,6.01 -3.23,11.56 -8.45,14.53 -5.22,2.97 -11.64,2.91 -16.81,-0.15 l -199.04,-118.16 c -5.16,-3.07 -11.58,-3.13 -16.8,-0.16 -5.23,2.98 -8.45,8.52 -8.45,14.53 l 0,89.41 c 0,6.01 -3.23,11.56 -8.45,14.53 -5.22,2.97 -11.64,2.91 -16.8,-0.15 l -199.04,-118.16 c -5.17,-3.07 -11.59,-3.13 -16.81,-0.16 -5.22,2.98 -8.45,8.52 -8.45,14.53 l 0,237.55 c 0,6.01 3.23,11.56 8.45,14.53 5.22,2.98 11.64,2.92 16.81,-0.15 l 199.04,-118.16 c 5.16,-3.07 11.58,-3.13 16.8,-0.15 5.22,2.97 8.45,8.52 8.45,14.52 l 0,89.41 c 0,6.01 3.22,11.56 8.45,14.53 5.22,2.98 11.64,2.92 16.8,-0.15 l 199.04,-118.16 c 5.17,-3.07 11.59,-3.13 16.81,-0.15 5.22,2.97 8.45,8.52 8.45,14.52 l 0,102.06 c 0,9.24 7.48,16.72 16.71,16.72 l 42.47,0 c 9.24,0 16.72,-7.48 16.72,-16.72 l 0,-262.85 c 0,-9.23 -7.48,-16.72 -16.72,-16.72 l -42.47,0" /><path
   style="fill:#ffffff"
   id="path2125"
   d="m 2339.33,9676.61 c 9.23,0 16.72,7.49 16.72,16.72 l 0,102.06 c 0,6.01 3.22,11.56 8.45,14.53 5.22,2.97 11.63,2.91 16.8,-0.15 l 199.04,-118.16 c 5.17,-3.07 11.59,-3.13 16.81,-0.16 5.22,2.98 8.45,8.52 8.45,14.53 l 0,89.41 c 0,6.01 3.22,11.56 8.44,14.53 5.22,2.97 11.64,2.91 16.81,-0.15 l 199.04,-118.16 c 5.17,-3.07 11.58,-3.13 16.8,-0.16 5.23,2.98 8.45,8.52 8.45,14.53 l 0,237.55 c 0,6.01 -3.22,11.56 -8.45,14.53 -5.22,2.98 -11.63,2.92 -16.8,-0.15 l -199.04,-118.16 c -5.17,-3.07 -11.59,-3.13 -16.81,-0.15 -5.22,2.97 -8.44,8.52 -8.44,14.52 l 0,89.41 c 0,6.01 -3.23,11.56 -8.45,14.53 -5.22,2.98 -11.64,2.92 -16.81,-0.15 L 2381.3,9839.75 c -5.17,-3.07 -11.58,-3.13 -16.8,-0.15 -5.23,2.97 -8.45,8.52 -8.45,14.52 l 0,102.06 c 0,9.24 -7.49,16.72 -16.72,16.72 l -42.47,0 c -9.23,0 -16.72,-7.48 -16.72,-16.72 l 0,-262.85 c 0,-9.23 7.49,-16.72 16.72,-16.72 l 42.47,0" /><path
   style="fill:#ffffff"
   id="path2127"
   d="m 4666.11,12045.3 c 9.24,0 16.72,-7.49 16.72,-16.72 l 0,-262.85 c 0,-9.23 -7.48,-16.72 -16.72,-16.72 l -42.47,0 c -9.23,0 -16.72,7.49 -16.72,16.72 l 0,262.85 c 0,9.23 7.49,16.72 16.72,16.72 l 42.47,0" /><path
   style="fill:#ffffff"
   id="path2129"
   d="m 4843.77,12045.3 c 9.23,0 16.72,-7.49 16.72,-16.72 l 0,-262.85 c 0,-9.23 -7.49,-16.72 -16.72,-16.72 l -42.47,0 c -9.23,0 -16.72,7.49 -16.72,16.72 l 0,262.85 c 0,9.23 7.49,16.72 16.72,16.72 l 42.47,0" /><path
   style="fill:#ffffff"
   id="path2131"
   d="m 4164.79,11764 231.72,118.26 c 5.6,2.86 9.12,8.61 9.12,14.9 0,6.28 -3.52,12.03 -9.12,14.89 l -231.72,118.26 c -5.17,3.06 -11.58,3.12 -16.81,0.15 -5.22,-2.97 -8.44,-8.52 -8.44,-14.53 l 0,-237.55 c 0,-6.01 3.22,-11.56 8.44,-14.53 5.23,-2.97 11.64,-2.91 16.81,0.15" /><path
   style="fill:none"
   id="path2133"
   d="m 4194.99,7719.02 0.75,0" /><path
   style="fill:#ffffff"
   id="path2135"
   d="m 4159.1,7952.18 -5.95,-131.91 c -0.17,-3.91 -3.04,-7.18 -6.9,-7.86 -3.86,-0.67 -7.67,1.42 -9.17,5.03 L 4080.01,7955 c -1.3,3.12 -4.34,5.16 -7.72,5.16 l -36,0 c -3.38,0 -6.43,-2.04 -7.72,-5.16 l -57.07,-137.56 c -1.5,-3.61 -5.32,-5.7 -9.17,-5.03 -3.86,0.68 -6.73,3.95 -6.91,7.86 l -5.95,131.91 c -0.2,4.46 -3.88,7.98 -8.35,7.98 l -30.42,0 c -2.28,0 -4.47,-0.94 -6.04,-2.59 -1.58,-1.65 -2.42,-3.87 -2.31,-6.15 l 12.25,-271.53 c 0.2,-4.46 3.88,-7.98 8.35,-7.98 l 33.59,0 c 3.38,0 6.42,2.03 7.72,5.16 l 82.31,198.38 c 1.29,3.12 4.34,5.15 7.72,5.15 3.38,0 6.42,-2.03 7.72,-5.15 l 82.31,-198.38 c 1.29,-3.13 4.34,-5.16 7.72,-5.16 l 33.59,0 c 4.47,0 8.15,3.52 8.35,7.98 l 12.25,271.53 c 0.1,2.28 -0.73,4.5 -2.31,6.15 -1.58,1.65 -3.76,2.59 -6.04,2.59 l -30.43,0 c -4.47,0 -8.14,-3.52 -8.35,-7.98" /><path
   style="fill:#ffffff"
   id="path2137"
   d="m 4454.16,7831.23 c 0,4.62 -3.74,8.36 -8.36,8.36 l -99.32,0 c -4.62,0 -8.36,3.74 -8.36,8.36 l 0,56.74 c 0,4.61 3.74,8.36 8.36,8.36 l 112.22,0 c 4.62,0 8.36,3.74 8.36,8.36 l 0,30.39 c 0,2.22 -0.88,4.34 -2.45,5.91 -1.57,1.57 -3.69,2.45 -5.91,2.45 l -159.33,0 c -4.62,0 -8.36,-3.75 -8.36,-8.36 l 0,-271.53 c 0,-4.62 3.74,-8.36 8.36,-8.36 l 159.33,0 c 2.22,0 4.34,0.88 5.91,2.45 1.57,1.57 2.45,3.69 2.45,5.91 l 0,30.39 c 0,4.62 -3.74,8.36 -8.36,8.36 l -112.22,0 c -2.22,0 -4.35,0.88 -5.91,2.45 -1.57,1.57 -2.45,3.69 -2.45,5.91 l 0,56.74 c 0,4.62 3.74,8.36 8.36,8.36 l 99.32,0 c 4.62,0 8.36,3.74 8.36,8.36 l 0,30.39" /><path
   style="fill:#ffffff"
   id="path2139"
   d="m 4778.34,7951.8 c 0,4.61 -3.74,8.36 -8.36,8.36 l -34.19,0 c -2.84,0 -5.49,-1.45 -7.03,-3.83 l -111.84,-173.57 c -2.01,-3.12 -5.83,-4.54 -9.39,-3.49 -3.56,1.05 -6,4.31 -6,8.02 l 0,164.51 c 0,2.22 -0.88,4.34 -2.45,5.91 -1.56,1.57 -3.69,2.45 -5.91,2.45 l -30.39,0 c -2.22,0 -4.34,-0.88 -5.91,-2.45 -1.57,-1.57 -2.45,-3.69 -2.45,-5.91 l 0,-271.53 c 0,-4.62 3.74,-8.36 8.36,-8.36 l 34.19,0 c 2.85,0 5.49,1.44 7.03,3.83 l 111.85,173.57 c 2,3.11 5.83,4.53 9.38,3.49 3.56,-1.05 6,-4.31 6,-8.02 l 0,-164.51 c 0,-4.62 3.74,-8.36 8.36,-8.36 l 30.39,0 c 2.22,0 4.35,0.88 5.91,2.45 1.57,1.57 2.45,3.69 2.45,5.91 l 0,271.53" /><path
   style="fill:#ffffff"
   id="path2141"
   d="m 4873.76,7851.72 0,-171.45 c 0,-4.62 3.75,-8.36 8.36,-8.36 l 30.4,0 c 4.61,0 8.36,3.74 8.36,8.36 l 0,171.45 c 0,35.81 29.03,64.85 64.84,64.85 35.82,0 64.85,-29.04 64.85,-64.85 l 0,-171.45 c 0,-4.62 3.75,-8.36 8.36,-8.36 l 30.4,0 c 2.21,0 4.34,0.88 5.91,2.45 1.57,1.57 2.45,3.69 2.45,5.91 l 0,171.45 c 0,61.83 -50.13,111.96 -111.97,111.96 -61.83,0 -111.96,-50.13 -111.96,-111.96" /><g
   id="g2143">
   
   
  </g><g
   id="g2149">
   
   
  </g><path
   style="fill:url(#linearGradient2919);stroke:#000000;stroke-width:18;stroke-linejoin:bevel"
   id="path2155"
   d="m 2088.99,53.5 1038.47,0 0,93 -1038.47,0 0,-93" /><g
   id="g2157">
   <defs
   id="defs2159">
    <linearGradient
   y2="2578.1699"
   x2="6444.4302"
   y1="2424.25"
   x1="6417.29"
   gradientUnits="userSpaceOnUse"
   id="id1">
     <stop
   id="stop2162"
   stop-color="#FFC100"
   offset="0" />
     <stop
   id="stop2164"
   stop-color="#997200"
   offset="0.6" />
     <stop
   id="stop2166"
   stop-color="#332201"
   offset="1" />
    </linearGradient>
   </defs>
   <path
   style="fill:#000000"
   id="path2168"
   d="m 1979.9,2929.65 5040.2,0 0,-1560.5 -5040.2,0 0,1560.5 z" />
   <path
   style="fill:#ffffff"
   id="path2170"
   d="m 2298.65,2839.29 c 0,-21.92 -17.78,-39.69 -39.7,-39.69 -21.92,0 -39.69,17.77 -39.69,39.69 0,21.93 17.77,39.7 39.69,39.7 21.92,0 39.7,-17.77 39.7,-39.7 z m 124.68,-33.22 c 15.95,-10.86 37.15,-7.78 49.65,7.19 12.51,14.98 12.51,37.29 0,52.27 -12.5,14.98 -33.7,18.05 -49.65,7.2 l 0,32.89 -21.03,0 0,-104.09 21.03,0 0,4.54 z m 240.05,33.22 c 0,-21.92 -17.78,-39.7 -39.7,-39.7 -21.92,0 -39.69,17.78 -39.69,39.7 0,21.93 17.77,39.7 39.69,39.7 11.29,0 21.5,-4.72 28.73,-12.3 l -15.19,-14.49 15.19,14.49 -15.19,-14.49 c -3.89,4.08 -9.43,6.19 -15.07,5.73 -5.62,-0.47 -10.73,-3.46 -13.91,-8.13 l 53.73,0 c 0.92,-3.35 1.41,-6.87 1.41,-10.51 z m 1318.35,0 c 0,-21.92 -17.77,-39.7 -39.69,-39.7 -21.92,0 -39.69,17.78 -39.69,39.7 0,21.93 17.77,39.7 39.69,39.7 11.3,0 21.5,-4.72 28.73,-12.3 l -15.19,-14.49 15.19,14.49 -15.19,-14.49 c -3.9,4.08 -9.43,6.19 -15.06,5.73 -5.63,-0.47 -10.74,-3.46 -13.92,-8.13 l 53.74,0 c 0.91,-3.35 1.39,-6.87 1.39,-10.51 z m 784.49,0 c 0,-21.92 -17.77,-39.7 -39.7,-39.7 -21.91,0 -39.69,17.78 -39.69,39.7 0,21.93 17.78,39.7 39.69,39.7 11.3,0 21.5,-4.72 28.73,-12.3 l -15.18,-14.49 15.18,14.49 -15.18,-14.49 c -3.9,4.08 -9.43,6.19 -15.07,5.73 -5.62,-0.47 -10.74,-3.46 -13.92,-8.13 l 53.74,0 c 0.92,-3.35 1.4,-6.87 1.4,-10.51 z m 2004.92,0 c 0,-21.92 -17.77,-39.7 -39.7,-39.7 -21.91,0 -39.68,17.78 -39.68,39.7 0,21.93 17.77,39.7 39.68,39.7 11.31,0 21.51,-4.72 28.74,-12.3 l -15.19,-14.49 15.19,14.49 -15.19,-14.49 c -3.9,4.08 -9.44,6.19 -15.06,5.73 -5.63,-0.47 -10.74,-3.46 -13.92,-8.13 l 53.73,0 c 0.92,-3.35 1.4,-6.87 1.4,-10.51 z m -3935.67,-5.89 c 0,-12.72 -6.18,-24.36 -16.02,-30.12 -9.84,-5.77 -21.64,-4.69 -30.57,2.79 l 0,-4.54 -21.03,0 0,75.74 21.03,0 0,-43.87 c 0,-7.07 5.72,-12.8 12.78,-12.8 7.07,0 12.79,5.73 12.79,12.8 l 0,43.87 21.02,0 0,-43.87 z m 304.02,-9.81 c 0,-10.06 -7.59,-19.05 -18.99,-22.51 -11.4,-3.47 -24.21,-0.7 -32.08,6.96 -7.88,7.67 -9.14,18.58 -3.17,27.33 3.01,4.22 7.31,7.34 12.25,8.88 5.59,1.87 11.31,3.4 17.09,4.57 4.74,0.92 7.23,3.28 5.85,5.53 -1.38,2.24 -6.23,3.68 -11.34,3.36 -5.11,-0.31 -8.93,-2.29 -8.93,-4.62 l 0,-2.24 -21,0 0,2.24 c 0,11.15 8.5,21.07 21.16,24.69 12.65,3.62 26.68,0.14 34.89,-8.66 8.22,-8.78 8.83,-20.97 1.5,-30.31 -4.23,-4.94 -10.06,-8.25 -16.47,-9.33 -5.08,-0.95 -10.1,-2.18 -15.05,-3.66 -2.74,-0.91 -3.48,-2.4 -1.77,-3.62 1.72,-1.21 5.42,-1.83 8.98,-1.51 3.56,0.33 6.07,1.53 6.07,2.9 l 0,1.04 21.01,0 0,-1.04 z m 182.86,15.7 c 0,-21.92 -17.77,-39.69 -39.69,-39.69 -21.93,0 -39.69,17.77 -39.69,39.69 0,21.93 17.76,39.7 39.69,39.7 21.92,0 39.69,-17.77 39.69,-39.7 z m 104.1,6.11 0,-43.87 21.03,0 0,43.87 c 0,7.07 5.73,12.79 12.78,12.79 7.07,0 12.79,-5.72 12.79,-12.79 l 0,-43.87 21.02,0 0,75.74 -21.02,0 0,-4.54 c -8.92,7.48 -20.73,8.56 -30.57,2.79 -9.83,-5.77 -16.03,-17.4 -16.03,-30.12 z m 194.51,-39.33 0,-4.54 -21.02,0 0,75.74 21.02,0 0,-37.98 c 0,-4.95 1.97,-9.71 5.47,-13.21 3.5,-3.51 8.26,-5.48 13.22,-5.48 l 0,-20.94 c -6.66,0.4 -13.1,2.6 -18.69,6.41 z m 184.97,5.82 c -7.23,-7.57 -17.43,-12.3 -28.73,-12.3 -21.91,0 -39.68,17.77 -39.69,39.69 0,0.01 0,0.01 0,0.01 0.01,21.92 17.78,39.69 39.69,39.69 11.3,0 21.5,-4.72 28.73,-12.3 l -15.19,-14.49 c -3.4,3.56 -8.2,5.78 -13.51,5.78 -10.32,0 -18.69,-8.36 -18.69,-18.68 0,0 0,0 0,-0.01 0,-10.31 8.37,-18.68 18.69,-18.68 5.31,0 10.11,2.23 13.51,5.79 l 15.19,-14.5 z m 2433.33,27.35 -10.84,-37.71 -18.76,0 -10.84,37.71 -10.83,-37.71 -21.86,0 21.76,75.74 21.86,0 9.29,-32.34 9.29,32.34 21.86,0 21.77,-75.74 -21.86,0 -10.84,37.71 m -533.65,-62.37 -21.02,0 0,21.01 21.02,0 0,-21.01 m 0,24.66 -21.02,0 0,75.74 21.02,0 0,-75.74 m -435.63,37.9 23.4,37.84 -24.76,0 -11.02,-17.83 -11.03,17.83 -24.75,0 23.4,-37.84 -23.44,-37.9 24.75,0 11.07,17.9 11.07,-17.9 24.75,0 -23.44,37.9 m -704.24,-37.9 -19.27,31.17 0,-55.83 -21.02,0 0,100.4 21.02,0 0,-31.59 23.68,31.59 26.26,0 -28.91,-38.56 23,-37.18 -24.76,0 m -320.29,-24.66 -21.03,0 0,21.01 21.03,0 0,-21.01 m 0,104.09 0,-79.43 -21.03,0 0,79.45 c 0,2 -1.63,3.63 -3.63,3.63 l -5.95,0 0,21.01 5.95,0 c 13.63,0 24.66,-11.04 24.66,-24.66 m 885.25,-41.67 c 0,-21.92 -17.77,-39.69 -39.69,-39.69 -21.92,0 -39.69,17.77 -39.69,39.69 0,21.93 17.77,39.7 39.69,39.7 21.92,0 39.69,-17.77 39.69,-39.7 z m -732.1,33.44 0,4.54 21.02,0 0,-75.74 -21.02,0 0,43.87 c 0,7.07 -5.73,12.79 -12.79,12.79 -7.06,0 -12.79,-5.72 -12.79,-12.79 l 0,-43.87 -21.02,0 0,43.87 c 0,12.72 6.19,24.35 16.02,30.12 9.84,5.77 21.65,4.69 30.58,-2.79 z m 491.89,-66.66 0,-29.2 -21.03,0 0,100.4 21.03,0 0,-4.54 c 15.95,10.85 37.15,7.78 49.65,-7.2 12.51,-14.98 12.51,-37.29 0,-52.27 -12.5,-14.97 -33.7,-18.05 -49.65,-7.19 z m 689.89,-8.19 -17.46,0 c -0.47,-0.05 -0.93,0.12 -1.26,0.46 -0.33,0.33 -0.5,0.79 -0.45,1.26 l 0,1.93 0,0 9.58,0 0,21.01 -9.58,0 0,54.73 -21.03,0 0,-54.73 -9.59,0 0,-21.01 9.59,0 c 0,-13.62 11.03,-24.66 24.65,-24.66 l 15.55,0 0,21.01 z m 271.15,1.78 0,20.94 c -4.95,0 -9.7,1.97 -13.21,5.48 -3.51,3.5 -5.47,8.26 -5.47,13.21 l 0,37.98 -21.03,0 0,-75.74 21.03,0 0,4.54 c 5.59,-3.81 12.03,-6.01 18.68,-6.41 z m 123.25,6.41 0,-4.54 -21.02,0 0,75.74 21.02,0 0,-43.87 c 0,-7.07 5.72,-12.8 12.79,-12.8 7.06,0 12.78,5.73 12.78,12.8 l 0,43.87 21.03,0 0,-43.87 c 0,-7.07 5.73,-12.8 12.79,-12.8 7.06,0 12.78,5.73 12.78,12.8 l 0,43.87 21.02,0 0,-43.87 c 0,-13.34 -7.84,-25.43 -20.02,-30.88 -12.18,-5.43 -26.41,-3.2 -36.34,5.69 -10.31,-10.62 -25.65,-11.51 -36.83,-2.14 z m 449.78,0 0,-4.54 21.03,0 0,75.74 -21.03,0 0,-4.54 c -15.95,10.85 -37.15,7.78 -49.65,-7.2 -12.51,-14.98 -12.51,-37.29 0,-52.27 12.5,-14.97 33.7,-18.05 49.65,-7.19 z m 169.52,-6.41 0,20.94 c -4.96,0 -9.72,1.97 -13.22,5.48 -3.51,3.5 -5.48,8.26 -5.48,13.21 l 0,37.98 -21.02,0 0,-75.74 21.02,0 0,4.54 c 5.59,-3.81 12.03,-6.01 18.7,-6.41 z" />
   <path
   style="fill:#000000"
   id="path2172"
   d="m 2277.64,2839.29 c 0,-10.31 -8.37,-18.69 -18.69,-18.69 -10.32,0 -18.68,8.38 -18.68,18.69 0,10.32 8.36,18.7 18.68,18.7 10.32,0 18.69,-8.38 18.69,-18.7 z m 2433.43,-10.5 30.92,0 c -3.48,-5.12 -9.26,-8.19 -15.46,-8.19 -6.19,0 -11.98,3.07 -15.46,8.19 m -784.47,0 30.91,0 c -3.47,-5.12 -9.26,-8.19 -15.45,-8.19 -6.19,0 -11.98,3.07 -15.46,8.19 m -625.25,10.5 c 0,-10.31 -8.37,-18.69 -18.69,-18.69 -10.32,0 -18.68,8.38 -18.68,18.69 0,10.32 8.36,18.7 18.68,18.7 10.32,0 18.69,-8.38 18.69,-18.7 z m 1808.35,0 c 0,-10.31 -8.37,-18.69 -18.69,-18.69 -10.32,0 -18.69,8.38 -18.69,18.69 0,10.32 8.37,18.7 18.69,18.7 10.32,0 18.69,-8.38 18.69,-18.7 z m -181.83,0 c 0,-10.31 -8.37,-18.69 -18.7,-18.69 -10.31,0 -18.68,8.38 -18.68,18.69 0,10.32 8.37,18.7 18.68,18.7 10.33,0 18.7,-8.38 18.7,-18.7 z m -2467.17,0.21 c 0,-10.32 -8.36,-18.69 -18.69,-18.69 -10.31,0 -18.68,8.37 -18.68,18.69 0,10.32 8.37,18.69 18.68,18.69 10.33,0 18.69,-8.37 18.69,-18.69 z m 147.54,-10.71 30.92,0 c -3.48,-5.12 -9.27,-8.19 -15.46,-8.19 -6.19,0 -11.98,3.07 -15.46,8.19 m 4107.76,0 30.92,0 c -3.49,-5.12 -9.27,-8.19 -15.47,-8.19 -6.19,0 -11.97,3.07 -15.45,8.19 m -291.44,10.5 c 0,-10.31 -8.36,-18.69 -18.68,-18.69 -10.33,0 -18.7,8.38 -18.7,18.69 0,10.32 8.37,18.7 18.7,18.7 10.32,0 18.68,-8.38 18.68,-18.7 z" />
   <path
   style="fill:#ffc000"
   id="path2174"
   d="m 2009.74,1405.62 4975.55,0 0,1325.45 -4975.55,0 0,-1325.45" />
   <path
   style="fill:url(#id1)"
   id="path2176"
   d="m 5920.19,2651.42 0,0 m 1051.74,-217.78 13.36,0 0,7.6 -5.77,0 0,30.35 -7.59,0 0,-37.95 m -37.94,0 22.77,0 0,7.6 -22.77,0 0,-7.6 m 0,30.36 22.77,0 0,7.59 -22.77,0 0,-7.59 m -53.11,-30.36 0,0 0,0 0,0 0,0 m 15.17,7.6 7.59,0 0,30.35 -7.59,0 0,-30.35 m 7.59,-7.6 7.59,0 0,7.6 -7.59,0 0,-7.6 m 7.59,7.6 7.59,0 0,30.35 -7.59,0 0,-30.35 m -30.35,-7.6 15.17,0 0,7.6 -7.59,0 0,30.35 -7.58,0 0,-37.95 m -15.18,-7.59 7.59,0 0,15.19 -7.59,0 0,-15.19 m 0,22.77 7.59,0 0,15.18 -7.59,0 0,-15.18 m -60.7,-15.18 7.59,0 0,15.18 -7.59,0 0,-15.18 m -54.33,0 7.59,0 0,7.6 -7.59,0 0,-7.6 m -22.76,15.18 7.58,0 0,15.18 -7.58,0 0,-15.18 m -29.2,15.18 29.2,0 0,7.59 -29.2,0 0,-7.59 m -30.35,-22.76 7.58,0 0,7.58 -7.58,0 0,-7.58 m -7.6,-22.77 22.77,0 0,7.58 -22.77,0 0,-7.58 m 0,45.53 22.77,0 0,7.59 -22.77,0 0,-7.59 m -37.93,-45.53 15.17,0 0,7.58 -15.17,0 0,-7.58 m -7.59,7.58 7.59,0 0,7.59 -7.59,0 0,-7.59 m 22.76,22.77 7.6,0 0,15.18 -7.6,0 0,-15.18 m 204.94,-97.82 30.35,0 0,7.58 -30.35,0 0,-7.58 m -7.59,7.58 7.59,0 0,7.59 -7.59,0 0,-7.59 m 7.59,7.59 22.76,0 0,7.59 -22.76,0 0,-7.59 m 22.76,7.59 7.59,0 0,7.59 -7.59,0 0,-7.59 m -30.35,7.59 30.35,0 0,7.59 -30.35,0 0,-7.59 m 45.53,-30.35 7.58,0 0,30.35 -7.58,0 0,-30.35 m 7.58,45.53 22.77,0 0,7.58 -22.77,0 0,-7.58 m 37.95,-15.18 30.35,0 0,7.59 -30.35,0 0,-7.59 m 30.35,-7.59 7.58,0 0,7.59 -7.58,0 0,-7.59 m -22.77,-7.59 22.77,0 0,7.59 -22.77,0 0,-7.59 m -7.58,-7.59 7.58,0 0,7.59 -7.58,0 0,-7.59 m 7.58,-7.58 30.35,0 0,7.58 -30.35,0 0,-7.58 m -91.05,165.29 30.35,0 0,7.59 -30.35,0 0,-7.59 m -7.59,7.59 7.59,0 0,7.58 -7.59,0 0,-7.58 m 7.59,7.58 22.76,0 0,7.6 -22.76,0 0,-7.6 m 22.76,7.6 7.59,0 0,7.59 -7.59,0 0,-7.59 m -30.35,7.59 30.35,0 0,7.58 -30.35,0 0,-7.58 m -182.39,0 30.36,0 0,7.58 -30.36,0 0,-7.58 m 30.36,-7.59 7.58,0 0,7.59 -7.58,0 0,-7.59 m -22.77,-7.6 22.77,0 0,7.6 -22.77,0 0,-7.6 m -7.59,-7.58 7.59,0 0,7.58 -7.59,0 0,-7.58 m 7.59,-7.59 30.35,0 0,7.59 -30.35,0 0,-7.59 m -228.07,82.65 30.35,0 0,7.58 -30.35,0 0,-7.58 m -7.59,7.58 7.59,0 0,7.6 -7.59,0 0,-7.6 m 7.59,7.6 22.76,0 0,7.58 -22.76,0 0,-7.58 m 22.76,7.58 7.59,0 0,7.59 -7.59,0 0,-7.59 m -30.35,7.59 30.35,0 0,7.59 -30.35,0 0,-7.59 m -504.08,0 30.35,0 0,7.59 -30.35,0 0,-7.59 m 30.35,-7.59 7.6,0 0,7.59 -7.6,0 0,-7.59 m -22.76,-7.58 22.76,0 0,7.58 -22.76,0 0,-7.58 m -7.59,-7.6 7.59,0 0,7.6 -7.59,0 0,-7.6 m 7.59,-7.58 30.36,0 0,7.58 -30.36,0 0,-7.58 m 815.9,0 15.17,0 0,7.58 -7.59,0 0,30.36 -7.58,0 0,-37.94 m 30.35,7.58 7.58,0 0,30.36 -7.58,0 0,-30.36 m -7.59,-7.58 7.59,0 0,7.58 -7.59,0 0,-7.58 m -7.59,7.58 7.59,0 0,30.36 -7.59,0 0,-30.36 m -15.17,-7.58 0,0 0,0 0,0 0,0 m -731.19,0 0,0 0,0 0,0 0,0 m 15.18,7.58 7.59,0 0,30.36 -7.59,0 0,-30.36 m 7.59,-7.58 7.58,0 0,7.58 -7.58,0 0,-7.58 m 7.58,7.58 7.59,0 0,30.36 -7.59,0 0,-30.36 m -30.35,-7.58 15.18,0 0,7.58 -7.59,0 0,30.36 -7.59,0 0,-37.94 m 898.12,-217.59 0,-30.35 7.59,0 0,45.53 -7.59,0 0,-7.59 -22.77,0 0,-7.59 22.77,0 m -593.6,246.8 0,-30.36 7.59,0 0,45.53 -7.59,0 0,-7.59 -22.77,0 0,-7.58 22.77,0 m -22.77,15.17 22.77,0 0,7.59 -22.77,0 0,-7.59 m -7.58,-45.53 7.58,0 0,30.36 -7.58,0 0,-30.36 m 639.13,-156.55 7.58,0 0,7.58 22.77,0 0,-7.58 7.58,0 0,15.17 -30.35,0 0,7.59 -7.58,0 0,-22.76 m -136.59,82.64 7.59,0 0,7.58 22.77,0 0,-7.58 7.58,0 0,15.18 -30.35,0 0,7.59 -7.59,0 0,-22.77 m 7.59,22.77 22.77,0 0,7.58 -22.77,0 0,-7.58 m 0,-30.36 22.77,0 0,7.59 -22.77,0 0,-7.59 m -182.39,0 22.77,0 0,7.59 -22.77,0 0,-7.59 m 0,30.36 22.77,0 0,7.58 -22.77,0 0,-7.58 m -7.59,-22.77 7.59,0 0,7.58 22.77,0 0,-7.58 7.58,0 0,15.18 -30.35,0 0,7.59 -7.59,0 0,-22.77 m 273.45,82.64 7.58,0 0,7.6 22.77,0 0,-7.6 7.59,0 0,15.18 -30.36,0 0,7.59 -7.58,0 0,-22.77 m 7.58,22.77 22.77,0 0,7.59 -22.77,0 0,-7.59 m 0,-30.35 22.77,0 0,7.58 -22.77,0 0,-7.58 m 91.06,0 5.77,0 0,7.58 -5.77,0 0,-7.58 m 0,30.35 5.77,0 0,7.59 -5.77,0 0,-7.59 m -7.59,-22.77 7.59,0 0,7.6 5.77,0 0,0 0,0 0,7.58 -5.77,0 0,7.59 -7.59,0 0,-22.77 m -1087.9,-7.58 22.76,0 0,7.58 -22.76,0 0,-7.58 m 0,30.35 22.76,0 0,7.59 -22.76,0 0,-7.59 m -7.6,-22.77 7.6,0 0,7.6 22.76,0 0,-7.6 7.58,0 0,15.18 -30.34,0 0,7.59 -7.6,0 0,-22.77 m 97.49,15.18 15.18,0 0,14.03 -15.18,0 0,-14.03 m 914.54,-105.41 22.77,0 0,7.59 -22.77,0 0,-7.59 m -7.58,7.59 7.58,0 0,22.77 -7.58,0 0,-22.77 m 7.58,22.77 22.77,0 0,7.58 -22.77,0 0,-7.58 m 22.77,-7.59 7.59,0 0,7.59 -7.59,0 0,-7.59 m 22.76,-22.77 22.77,0 0,7.59 -22.77,0 0,-7.59 m -7.58,22.77 7.58,0 0,7.59 -7.58,0 0,-7.59 m -609.43,0 7.59,0 0,7.59 -7.59,0 0,-7.59 m -22.76,7.59 22.76,0 0,7.58 -22.76,0 0,-7.58 m -7.59,-22.77 7.59,0 0,22.77 -7.59,0 0,-22.77 m 7.59,-7.59 22.76,0 0,7.59 -22.76,0 0,-7.59 m 419.73,-15.17 7.59,0 0,7.58 -7.59,0 0,-7.58 m 45.52,30.34 7.59,0 0,7.6 -7.59,0 0,-7.6 m -227.92,-15.17 15.19,0 0,7.59 -15.19,0 0,-7.59 m 15.19,7.59 7.58,0 0,30.35 -7.58,0 0,-30.35 m -207,-7.59 21.62,0 0,7.59 -21.62,0 0,-7.59 m -7.58,7.59 7.58,0 0,22.77 -7.58,0 0,-22.77 m 7.58,22.77 21.62,0 0,7.58 -21.62,0 0,-7.58 m 21.62,-22.77 7.59,0 0,22.77 -7.59,0 0,-22.77 m 365.9,82.64 7.58,0 0,22.77 -7.58,0 0,-22.77 m -21.62,22.77 21.62,0 0,7.59 -21.62,0 0,-7.59 m -7.58,-22.77 7.58,0 0,22.77 -7.58,0 0,-22.77 m 7.58,-7.58 21.62,0 0,7.58 -21.62,0 0,-7.58 m -189.27,-82.65 7.6,0 0,7.59 7.58,0 0,7.58 -7.58,0 0,22.77 -7.6,0 0,-37.94 m 455.56,0 7.59,0 0,7.59 5.77,0 0,7.58 -5.77,0 0,22.77 -7.59,0 0,-37.94 m -372.09,37.94 -7.58,0 0,-7.58 -7.59,0 0,-7.59 7.59,0 0,-22.77 7.58,0 0,37.94 m -30.34,-7.58 -7.6,0 0,-30.36 7.6,0 0,30.36 m 15.17,7.58 -15.17,0 0,-7.58 15.17,0 0,7.58 m -204.87,-37.94 7.59,0 0,7.59 7.58,0 0,7.58 -7.58,0 0,22.77 -7.59,0 0,-37.94 m 30.35,7.59 7.58,0 0,30.35 -7.58,0 0,-30.35 m -15.18,-7.59 15.18,0 0,7.59 -15.18,0 0,-7.59 m 227.21,82.65 15.17,0 0,7.58 -15.17,0 0,-7.58 m 15.17,7.58 7.59,0 0,30.36 -7.59,0 0,-30.36 m -30.35,-7.58 7.58,0 0,7.58 7.6,0 0,7.6 -7.6,0 0,22.76 -7.58,0 0,-37.94 m 251.12,37.94 -15.18,0 0,-7.59 15.18,0 0,7.59 m -15.18,-7.59 -7.59,0 0,-30.35 7.59,0 0,30.35 m 30.35,7.59 -7.59,0 0,-7.59 -7.58,0 0,-7.59 7.58,0 0,-22.76 7.59,0 0,37.94 m 91.05,0 -7.58,0 0,-7.59 -7.59,0 0,-7.59 7.59,0 0,-22.76 7.58,0 0,37.94 m -30.35,-7.59 -7.58,0 0,-30.35 7.58,0 0,30.35 m 15.18,7.59 -15.18,0 0,-7.59 15.18,0 0,7.59 m 7.59,-113 7.58,0 0,30.35 -30.35,0 0,-7.58 22.77,0 0,-7.59 -22.77,0 0,-7.6 22.77,0 0,-7.58 m -364.94,82.64 7.6,0 0,30.36 -30.37,0 0,-7.59 22.77,0 0,-7.59 -22.77,0 0,-7.58 22.77,0 0,-7.6 m -30.35,15.18 7.58,0 0,7.59 -7.58,0 0,-7.59 m 7.58,-22.76 22.77,0 0,7.58 -22.77,0 0,-7.58 m -319.71,0 22.76,0 0,7.58 -22.76,0 0,-7.58 m -7.59,22.76 7.59,0 0,7.59 -7.59,0 0,-7.59 m 30.35,-15.18 7.59,0 0,30.36 -30.35,0 0,-7.59 22.76,0 0,-7.59 -22.76,0 0,-7.58 22.76,0 0,-7.6 m 593.6,-188.05 -30.35,0 0,53.12 30.35,0 0,-7.59 -22.76,0 0,-15.18 22.76,0 0,-7.58 -22.76,0 0,-15.19 22.76,0 0,-7.58 m -75.88,0 0,53.12 7.59,0 0,-37.95 7.59,0 0,-7.59 -7.59,0 0,-7.58 -7.59,0 m 37.94,0 0,53.12 -7.58,0 0,-37.95 -7.59,0 0,-7.59 7.59,0 0,-7.58 7.58,0 m -61.91,0 7.59,0 0,30.35 7.58,0 0,7.59 -7.58,0 0,15.18 -7.59,0 0,-15.18 -22.77,0 0,-15.17 7.59,0 0,7.58 15.18,0 0,-15.18 -7.59,0 0,-7.59 7.59,0 0,-7.58 m -67.14,0 0,7.58 21.61,0 0,7.59 7.59,0 0,-7.59 7.58,0 0,-7.58 -36.78,0 m 21.61,15.17 -7.59,0 0,7.6 -7.58,0 0,7.58 22.76,0 0,-7.58 -7.59,0 0,-7.6 m -67.14,-7.59 0,37.95 7.58,0 0,-7.59 7.6,0 0,-7.59 -7.6,0 0,-22.77 -7.58,0 m 30.35,0 0,7.59 -7.59,0 0,7.6 7.59,0 0,22.76 7.59,0 0,-37.95 -7.59,0 m -75.88,7.59 0,30.36 7.59,0 0,-15.18 22.76,0 0,-7.58 -22.76,0 0,-7.6 -7.59,0 m 7.59,30.36 22.76,0 0,7.59 -22.76,0 0,-7.59 m -488.31,134.94 -7.59,0 0,7.58 -7.59,0 0,7.6 22.77,0 0,-7.6 -7.59,0 0,-7.58 m -21.62,-15.18 0,7.59 21.62,0 0,7.59 7.59,0 0,-7.59 7.58,0 0,-7.59 -36.79,0 m 0,45.53 29.21,0 0,7.59 -29.21,0 0,-7.59 m 29.21,-15.17 7.58,0 0,15.17 -7.58,0 0,-15.17 m 609.78,-97.83 0,7.59 22.76,0 0,7.58 7.59,0 0,-7.58 7.58,0 0,-7.59 -37.93,0 m 7.58,22.77 7.59,0 0,7.59 22.76,0 0,7.58 -37.93,0 0,-7.58 7.58,0 0,-7.59 m -45.52,-22.77 15.18,0 0,30.36 7.58,0 0,7.58 -22.76,0 0,-7.58 7.59,0 0,-22.77 -7.59,0 0,-7.59 m -227.92,0 15.17,0 0,30.36 7.6,0 0,7.58 -22.77,0 0,-7.58 7.59,0 0,-22.77 -7.59,0 0,-7.59 m 7.59,-15.17 7.58,0 0,7.58 -7.58,0 0,-7.58 m -91.49,82.64 7.59,0 0,7.59 -7.59,0 0,-7.59 m -7.59,15.18 15.18,0 0,30.35 7.59,0 0,7.59 -22.77,0 0,-7.59 7.59,0 0,-22.77 -7.59,0 0,-7.58 m 68.73,-59.88 7.58,0 0,7.59 -7.58,0 0,-7.59 m -7.59,7.59 7.59,0 0,7.58 -7.59,0 0,-7.58 m -7.59,-45.53 7.59,0 0,15.17 7.59,0 0,7.59 -7.59,0 0,22.77 -7.59,0 0,-22.77 -7.59,0 0,-7.59 7.59,0 0,-15.17 m 45.1,82.64 7.58,0 0,15.18 7.59,0 0,7.58 -7.59,0 0,22.77 -7.58,0 0,-22.77 -7.6,0 0,-7.58 7.6,0 0,-15.18 m 7.58,45.53 7.59,0 0,7.59 -7.59,0 0,-7.59 m 7.59,-7.59 7.59,0 0,7.59 -7.59,0 0,-7.59 m 15.18,-22.76 7.58,0 0,7.58 7.59,0 0,7.6 -7.59,0 0,22.76 -7.58,0 0,-37.94 m 30.34,7.58 7.6,0 0,8.75 -7.6,0 0,-8.75 m -15.17,-7.58 15.17,0 0,7.58 -15.17,0 0,-7.58 m -190.73,-15.18 14.03,0 0,45.53 7.59,0 0,6.44 -21.62,0 0,-6.44 7.59,0 0,-37.94 -7.59,0 0,-7.59 m -135.43,0 14.03,0 0,45.53 7.59,0 0,6.44 -21.62,0 0,-6.44 7.58,0 0,-37.94 -7.58,0 0,-7.59 m 455.15,15.18 15.18,0 0,7.58 -15.18,0 0,-7.58 m -7.58,7.58 7.58,0 0,22.77 -7.58,0 0,-22.77 m 22.76,0 7.58,0 0,-22.76 7.6,0 0,51.97 -30.36,0 0,-6.44 22.76,0 0,-15.17 -7.58,0 0,-7.6 m 114.53,0 7.59,0 0,22.77 -7.59,0 0,-22.77 m 7.59,-7.58 15.18,0 0,7.58 -15.18,0 0,-7.58 m 15.18,7.58 7.59,0 0,-7.58 7.58,0 0,51.97 -7.58,0 0,-15.18 -22.77,0 0,-6.44 22.77,0 0,-15.17 -7.59,0 0,-7.6 m -631.54,-7.58 -15.17,0 0,7.58 15.17,0 0,-7.58 m -15.17,7.58 -7.59,0 0,-7.58 -7.6,0 0,51.97 7.6,0 0,-15.18 22.76,0 0,-6.44 -22.76,0 0,-15.17 7.59,0 0,-7.6 m 22.76,0 -7.59,0 0,22.77 7.59,0 0,-22.77 m -92.07,0 -7.58,0 0,22.77 7.58,0 0,-22.77 m -22.76,0 -7.59,0 0,-7.58 -7.58,0 0,51.97 7.58,0 0,-15.18 22.77,0 0,-6.44 -22.77,0 0,-15.17 7.59,0 0,-7.6 m 15.18,-7.58 -15.18,0 0,7.58 15.18,0 0,-7.58 m -168.8,52.48 0,0" />
   <path
   style="fill:#000000"
   id="path2178"
   d="m 3299.03,1786.52 c -68.52,-298.16 -245.94,-311.13 -287.65,-311.13 l 0,-17.43 c 92.51,0 242.03,66.02 296.37,292.61 69.6,-226.12 188.47,-286.81 271.9,-287.96 79.5,-1.1 128.54,17.44 203.89,56.7 l 0,-35.38 217.55,0 0,-29.84 17.43,0 0,29.84 36.89,0 0,17.43 -36.89,0 0,426.32 156.45,-395.49 149.9,0 13.05,-30.83 -186.77,0 0,-17.43 194.16,0 20.53,-48.46 16.05,6.81 -17.65,41.65 41.32,0 0,17.43 -48.7,0 -121.92,287.76 161.47,0 0,215.67 c 151.12,-74.38 331.93,-19.8 423.06,125.81 90.39,-139.35 266.98,-194.87 420.84,-132.34 l -6.12,-9.89 260.05,0 51.95,83.98 50.74,-82.03 c 0.76,-1.22 2.08,-1.95 3.5,-1.95 l 0,0 c 1.5,0 2.87,0.8 3.6,2.11 0.73,1.3 0.69,2.9 -0.1,4.17 l -52.89,85.54 6.78,10.96 62.36,-100.83 c 0.74,-1.22 2.07,-1.95 3.5,-1.95 l 0,0 c 1.49,0 2.87,0.8 3.6,2.11 0.72,1.3 0.68,2.9 -0.1,4.17 l -64.53,104.32 6.79,10.97 75.19,-121.57 260.04,0 -205.21,331.8 6.77,10.95 216.55,-350.1 -270.15,0 c -1.5,0 -2.87,-0.81 -3.6,-2.11 -0.73,-1.31 -0.69,-2.9 0.1,-4.18 l 0,0 c 0.74,-1.2 2.07,-1.95 3.5,-1.95 l 284.92,0 -214.85,347.39 200.99,324.97 c 0.79,1.26 0.82,2.87 0.09,4.17 -0.72,1.3 -2.09,2.11 -3.59,2.11 -1.43,0 -2.75,-0.73 -3.5,-1.95 l -198.83,-321.48 -6.78,10.97 193.25,312.46 -260.04,0 -49.68,-80.31 -48.47,78.36 c -0.74,1.22 -2.07,1.95 -3.5,1.95 l 0,0 c -0.68,0 -1.33,-0.16 -1.93,-0.48 -0.6,0.32 -1.27,0.48 -1.94,0.48 -1.5,0 -2.86,-0.81 -3.6,-2.11 -0.73,-1.3 -0.69,-2.91 0.09,-4.17 l 52.57,-84.99 -6.78,-10.96 -62.02,100.28 c -0.75,1.22 -2.07,1.95 -3.5,1.95 -1.49,0 -2.87,-0.81 -3.6,-2.11 -0.73,-1.3 -0.69,-2.91 0.1,-4.17 l 64.18,-103.78 -6.77,-10.96 -74.86,121.02 -260.05,0 7.61,-12.31 c -153.99,63.62 -331.44,8.54 -422.36,-131.09 -91.01,145.97 -272.05,199.38 -423.37,124.9 l 0,18.5 -220.96,0 0,-1.65 -36.48,0 15.93,44.96 -16.42,5.83 -17.99,-50.79 -70.05,0 0,-17.44 63.87,0 -130.14,-367.38 -7.7,18.74 0,367.73 -144.12,0 0,-1119.23 144.12,0 0,501.77 24.62,-62.22 0,-470.38 -200.12,0 0,50.95 c -86.81,-58.38 -144.98,-72.26 -221.32,-72.26 -60.44,0 -193.08,44.05 -263.19,306.47 l -17.43,0 z m 312.17,888.43 -274.78,0.01 0,-17.44 187.65,0 c -143,-63.49 -205.31,-293.29 -205.31,-565.72 0,-321.19 86.58,-583.15 289.95,-583.15 93.46,0 146.56,48.01 192.26,91.77 l 0,28.54 c 0.02,0.02 0.03,0.05 0.05,0.07 l -0.01,241.87 -15.52,0 c -33.7,-61.41 -95.65,-147.63 -159.63,-147.63 -106.62,0 -159.37,165.16 -158.03,368.53 -1.34,203.39 51.41,368.54 158.03,368.54 63.98,0 125.93,-86.23 159.63,-147.63 l 15.52,0 0.01,241.87 c -0.02,0.03 -0.03,0.04 -0.05,0.08 l 0,28.53 c -45.29,43.37 -97.86,90.91 -189.77,91.76 z m -601.93,-1166.3 c 201.63,0 287.46,275 287.46,583.15 0,308.16 -85.83,583.16 -287.46,583.16 -201.63,0 -287.46,-261.96 -287.46,-583.16 0,-321.19 85.83,-583.15 287.46,-583.15 z m -501.97,23.54 -262.53,0 0,649.97 c 1.7,4.54 3.38,9.1 5.06,13.65 11.78,-3.23 24.01,-4.54 36.22,-3.89 23.87,1.29 45.38,14.82 56.84,35.81 10.37,18.96 15.3,40.42 14.26,62 -0.43,9.01 -2.81,17.83 -6.96,25.85 -10.2,19.7 -25.94,35.99 -45.28,46.84 6.55,22.22 12.8,44.51 18.76,66.88 11.41,42.8 16.77,86.99 15.91,131.29 -0.22,11.42 -2.69,22.69 -7.29,33.15 -4.71,10.72 -12.96,19.49 -23.37,24.86 -7.56,3.89 -16.37,4.53 -24.41,1.78 -8.03,-2.75 -14.6,-8.66 -18.19,-16.37 -4.17,-8.97 -6.22,-18.78 -5.96,-28.67 0.13,-5.57 2.82,-10.77 7.29,-14.09 5.63,-4.2 12.55,-6.31 19.56,-5.98 4.6,0.23 8.73,2.92 10.79,7.04 2.06,4.13 1.73,9.04 -0.85,12.86 -3.18,4.7 -7.85,8.2 -13.26,9.95 l 1.85,4.04 c 0.87,2.28 2.81,4 5.19,4.59 2.38,0.59 4.9,-0.03 6.74,-1.64 9.06,-7.72 14.7,-18.7 15.69,-30.56 1.31,-20.44 0.88,-40.95 -1.29,-61.31 -6.38,-43.49 -15.85,-86.47 -28.36,-128.6 -3.21,1.02 -6.47,1.89 -9.76,2.62 -9.64,2.15 -19.37,3.82 -29.18,5 l 0,272.16 175.71,0 0,36.4 17.43,0 0,-36.4 37.43,0 0,-17.43 -37.43,0 0,-392.45 16.83,0 153.33,409.88 168.4,0 15.22,38.84 16.22,-6.36 -15.13,-38.61 52.54,0 0,-17.43 -59.37,0 -181.33,-462.83 c 66.75,-68.85 105.04,-172.48 105.04,-304.08 0,-176.39 -47.75,-328.76 -202.36,-328.76 z m -231.26,814.89 c -10.01,4.13 -20.52,6.89 -31.27,8.22 l 0,-99.19 c 10.82,30.06 21.21,60.28 31.16,90.64 0.04,0.11 0.08,0.22 0.11,0.33 0,0 0,0 0,0 0,0 0,0 0,0 0,0 0,0 0,0 m -16.46,-124.26 c 3.43,-0.94 6.9,-1.74 10.39,-2.39 10.94,-2.04 22.26,0.62 31.16,7.3 8.11,6.08 13.94,14.71 16.59,24.5 5.88,21.83 4.6,44.97 -3.66,66 -1.73,4.43 -4.6,8.31 -8.29,11.28 -2.83,2.28 -5.77,4.43 -8.8,6.44 -11.63,-37.98 -24.09,-75.7 -37.39,-113.13 m -14.81,132.48 c -2.75,0.33 -5.51,0.58 -8.28,0.73 -30.19,1.64 -58.27,-15.5 -70.62,-43.1 -21.91,-48.99 -25.09,-104.3 -8.95,-155.49 5.68,-17.96 11.53,-35.86 17.58,-53.7 1.66,-4.94 3.36,-9.87 5.07,-14.8 16.2,38.5 31.69,77.28 46.46,116.36 -21.04,11.26 -38.02,28.85 -48.55,50.28 -1.74,3.53 -1.06,7.79 1.7,10.61 2.76,2.81 7,3.58 10.57,1.92 3.11,-2.24 5.99,-4.77 8.62,-7.56 10.63,-11.8 23.38,-21.53 37.59,-28.66 2.96,8.06 5.9,16.14 8.81,24.22 l 0,-73.95 c -13.97,-37.41 -28.78,-74.49 -44.42,-111.24 -2.59,-6.09 -5.23,-12.15 -7.93,-18.19 3.25,-8.93 6.56,-17.85 9.92,-26.74 4.79,-12.69 8.46,-25.78 10.94,-39.11 2.81,-15.09 1.55,-30.65 -3.64,-45.09 -11.85,-32.9 -34.68,-60.71 -64.65,-78.74 -13.18,-7.93 -28.39,-11.85 -43.76,-11.28 -12.88,0.49 -23.29,10.67 -24.03,23.55 -0.69,11.67 2.03,23.3 7.79,33.48 5.34,9.42 11.09,18.6 17.23,27.52 18.97,27.49 35.37,56.68 48.98,87.19 2.68,6 5.34,12.01 7.98,18.02 -4.16,11.43 -8.22,22.88 -12.2,34.36 -18.47,53.28 -30.38,108.61 -35.48,164.77 -2.4,26.51 -0.04,53.23 6.97,78.9 9.61,35.23 40.93,60.17 77.41,61.67 16.32,0.67 32.68,0.01 48.89,-1.97 l 0,-23.96 m 238.74,-869.72 -271.41,0 0,-42.29 -17.43,0 0,42.29 -40.6,0 0,17.43 40.6,0 0,194.19 17.43,0 0,-194.19 271.41,0 0,-17.43" />
   <path
   style="fill:#b4c3d3"
   id="path2180"
   d="m 5858.87,2013.9 -200.02,0 -89.41,144.57 -89.42,-144.57 -200.02,0 37.51,60.64 c -76.34,-64.81 -178.58,-90.24 -276.39,-68.75 -97.8,21.48 -179.96,87.43 -222.11,178.27 -37.77,-84.51 -108.87,-147.77 -194.84,-173.37 -85.99,-25.61 -178.4,-11.05 -253.3,39.91 l 0,-239.94 -169.88,0 0,811.25 169.88,0 0,-32.72 c 75.03,51.05 167.62,65.57 253.72,39.78 86.1,-25.78 157.2,-89.32 194.8,-174.09 42.62,91.19 125.58,157.09 224.05,177.97 98.47,20.87 201.03,-5.71 276.98,-71.77 l -40.08,64.81 200.02,0 89.08,-144.03 89.07,144.03 200.02,0 -189.09,-305.72 189.43,-306.27 z" />
   <path
   style="fill:#000000"
   id="path2182"
   d="m 4672.89,2319.07 c 0,-83.41 -67.62,-151.02 -151.01,-151.02 -83.39,0 -151,67.61 -151,151.02 0,83.4 67.61,151.01 151,151.01 83.39,0 151.01,-67.61 151.01,-151.01 z m 748.52,-76.54 c 12.66,51.54 12.34,105.41 -0.94,156.79 l 48.96,-79.15 -48.02,-77.64 m -160.47,76.54 c 0,-83.41 -67.6,-151.02 -150.99,-151.02 -83.4,0 -151.01,67.61 -151.01,151.02 0,83.4 67.61,151.01 151.01,151.01 83.39,0 150.99,-67.61 150.99,-151.01 z" />
   <path
   style="fill:#ffc000"
   id="path2184"
   d="m 2388.89,2633.99 31.59,0 0,-392.45 -31.59,0 0,392.45 m 65.21,-639.83 c 53.26,0 61.6,-67.52 61.55,-113.86 -0.06,-46.34 -6.79,-96.63 -53.26,-96.63 l -73.5,0 0,256.09 31.59,0 0,-45.6 33.62,0 z m 0,17.44 -16.19,0 0,28.16 1.11,0 c 118.69,0 118.69,-106.29 118.69,-143.22 l 0,-23.84 c 0,-35.8 -0.24,-134.61 -100.18,-134.61 l -68.64,0 0,28.15 65.21,0 c 33.92,0 79.41,4.82 79.41,118.57 0,113.73 -45.72,125.84 -79.41,126.79 z m -282.64,-3.11 c -13.66,-27.27 -28.43,-53.96 -44.3,-80.01 -5.05,-8.28 -9.61,-16.84 -13.66,-25.65 -2.65,-5.74 -4.22,-11.92 -4.65,-18.23 -0.08,-1.36 0.41,-2.7 1.35,-3.68 0.95,-0.98 2.27,-1.5 3.63,-1.46 6.55,0.22 12.94,2.11 18.56,5.47 24.19,14.47 41.42,38.18 47.74,65.64 1.84,8.01 1.9,16.34 0.17,24.37 -2.44,11.31 -5.39,22.5 -8.84,33.55 l 0,0 m 2934.37,435.99 8.23,0 c 68.46,-2.26 122.47,-58.99 121.34,-127.48 -1.12,-68.48 -56.96,-123.41 -125.45,-123.41 -68.5,0 -124.33,54.93 -125.46,123.41 -1.12,68.49 52.88,125.22 121.34,127.48 z m -588.06,0 8.23,0 c 68.46,-2.26 122.46,-58.99 121.34,-127.48 -1.12,-68.48 -56.97,-123.41 -125.46,-123.41 -68.49,0 -124.33,54.93 -125.45,123.41 -1.12,68.49 52.88,125.22 121.34,127.48 z m -393.36,-394.52 51.04,132.04 0,-252.51 -51.04,120.47 m 8.39,582.37 -138.71,-391.57 16.27,-39.61 160.28,431.18 -37.84,0 M 3009.26,1719.49 c 97.09,0 138.4,175.56 138.4,372.31 0,196.76 -41.31,372.32 -138.4,372.32 -97.08,0 -138.39,-167.26 -138.39,-372.32 0,-205.05 41.31,-372.31 138.39,-372.31 z" />
   <path
   style="fill:#000000"
   id="path2186"
   d="m 5105.83,2444.48 c 2.74,0.2 5.48,0.18 8.23,0 l 0,-11.54 c 62.1,-2.24 110.95,-53.84 109.81,-115.97 -1.14,-62.14 -51.86,-111.9 -114.01,-111.86 -1.49,-0.02 -2.72,0.76 -3.46,2.04 -0.76,1.29 -0.76,2.88 -0.01,4.17 0.75,1.28 1.99,2.05 3.48,2.04 38.26,-0.04 73.56,20.62 92.28,54 18.71,33.37 17.93,74.27 -2.05,106.9 -19.97,32.63 -56.03,51.93 -94.27,50.44 l 0,19.78 z m -583.95,-31.23 c -2.27,0 -4.11,-1.85 -4.11,-4.12 0,-2.28 1.84,-4.12 4.11,-4.12 47.47,0 85.94,-38.48 85.94,-85.94 0,-47.48 -38.47,-85.95 -85.94,-85.95 -2.27,0 -4.11,-1.85 -4.11,-4.12 0,-2.28 1.84,-4.11 4.11,-4.11 52.02,0 94.17,42.15 94.17,94.18 0,52.01 -42.15,94.18 -94.17,94.18 z m 588.07,0 c -2.28,0 -4.12,-1.85 -4.12,-4.12 0,-2.28 1.84,-4.12 4.12,-4.12 47.46,0 85.94,-38.48 85.94,-85.94 0,-47.48 -38.48,-85.95 -85.94,-85.95 -2.28,0 -4.12,-1.85 -4.12,-4.12 0,-2.28 1.84,-4.11 4.12,-4.11 52.01,0 94.17,42.15 94.17,94.18 0,52.01 -42.16,94.18 -94.17,94.18 z m -592.18,31.23 c 2.74,0.13 5.48,0.09 8.23,0 l 0,-11.54 c 62.1,-2.24 110.94,-53.84 109.81,-115.97 -1.15,-62.14 -51.87,-111.9 -114.01,-111.86 -1.48,-0.02 -2.71,0.76 -3.47,2.04 -0.75,1.29 -0.75,2.88 0,4.17 0.75,1.28 1.99,2.05 3.48,2.04 38.26,-0.04 73.56,20.62 92.27,54 18.72,33.37 17.93,74.27 -2.05,106.9 -19.97,32.63 -56.03,51.93 -94.26,50.44 l 0,19.78 z m -1508.5,-32.76 0,-43.06 -17.44,0 0,45.86 0,17.43 c 94.24,0 121.9,-160.03 122.55,-331.43 l 396.6,0 c 0.94,120.66 27.4,305.33 106.17,318.07 l 0,45.53 17.43,0 0,-363.6 69.4,0 0,-17.44 -69.4,0 0,-62.89 -17.43,0 0,62.89 -88.67,0 c 1.88,-119.58 35.29,-294.42 97.38,-297.26 l 0,-17.44 c -81.45,3.16 -113.1,189.77 -114.83,314.7 l -396.68,0 c -1.13,-170.58 -28.67,-329.31 -122.52,-329.31 l 0,16.73 0,312.58 -53.27,0 0,17.44 53.27,0 0,60.88 17.44,0 0,-60.88 87.65,0 c -0.87,109.71 -14.7,286.99 -87.65,311.2 z" />
   <path
   style="fill:#ffc000"
   id="path2188"
   d="m 3528.41,2100.52 c 1.13,114.22 30.05,284.76 88.74,300.25 l 0,-300.25 -88.74,0 z m -431.46,-17.44 -87.68,0 0,-309.76 c 72.58,24.12 87.16,199.87 87.68,309.76 z" />
  </g>
 <g
   id="Haupt_x0020_Desktop">
 </g>
<g
   inkscape:groupmode="layer"
   id="layer3"
   inkscape:label="Text"
   style="display:inline"><path
   style="fill:none;stroke:#000000;stroke-width:28.22222137;stroke-linecap:butt;stroke-linejoin:miter;stroke-miterlimit:4;stroke-opacity:1;stroke-dasharray:none"
   d="m 1912.9861,9818.0143 -2346.96295,0"
   id="path1503"
   inkscape:export-filename="/home/martin/src/dev/pics/pixelma/two/ipodcolor-front.png"
   inkscape:export-xdpi="72"
   inkscape:export-ydpi="72" /><path
   style="fill:none;stroke:#000000;stroke-width:28.22222137;stroke-linecap:butt;stroke-linejoin:miter;stroke-miterlimit:4;stroke-opacity:1;stroke-dasharray:none"
   d="M 3006.4574,8244.4825 -247.28662,6990.991"
   id="path1505"
   inkscape:export-filename="/home/martin/src/dev/pics/pixelma/two/ipodcolor-front.png"
   inkscape:export-xdpi="72"
   inkscape:export-ydpi="72" /><path
   style="fill:none;stroke:#000000;stroke-width:28.22222137;stroke-linecap:butt;stroke-linejoin:miter;stroke-miterlimit:4;stroke-opacity:1;stroke-dasharray:none"
   d="M 4491.6126,7255.0108 9532.2489,5334.7684"
   id="path1507"
   inkscape:export-filename="/home/martin/src/dev/pics/pixelma/two/ipodcolor-front.png"
   inkscape:export-xdpi="72"
   inkscape:export-ydpi="72" /><path
   style="fill:none;stroke:#000000;stroke-width:28.22222137;stroke-linecap:butt;stroke-linejoin:miter;stroke-miterlimit:4;stroke-opacity:1;stroke-dasharray:none"
   d="m 5985.9196,8346.5867 3253.744,-986.7912"
   id="path1509"
   inkscape:export-filename="/home/martin/src/dev/pics/pixelma/two/ipodcolor-front.png"
   inkscape:export-xdpi="72"
   inkscape:export-ydpi="72" /><path
   style="fill:none;stroke:#000000;stroke-width:28.22222137;stroke-linecap:butt;stroke-linejoin:miter;stroke-miterlimit:4;stroke-opacity:1;stroke-dasharray:none"
   d="m 7236.7307,9791.3442 2186.9427,0"
   id="path1511"
   inkscape:export-filename="/home/martin/src/dev/pics/pixelma/two/ipodcolor-front.png"
   inkscape:export-xdpi="72"
   inkscape:export-ydpi="72" /><path
   style="fill:none;stroke:#000000;stroke-width:28.22222137;stroke-linecap:butt;stroke-linejoin:miter;stroke-miterlimit:4;stroke-opacity:1;stroke-dasharray:none"
   d="m 4502.6597,12381.018 c -133.3502,26.67 -5227.32645,1626.872 -5227.32645,1626.872"
   id="path2388"
   inkscape:export-filename="/home/martin/src/dev/pics/pixelma/two/ipodcolor-front.png"
   inkscape:export-xdpi="72"
   inkscape:export-ydpi="72" /><path
   style="fill:none;stroke:#000000;stroke-width:28.22222137;stroke-linecap:butt;stroke-linejoin:miter;stroke-miterlimit:4;stroke-opacity:1;stroke-dasharray:none"
   d="M 4678.3029,10197.866 9745.6092,14198.37"
   id="path2390"
   inkscape:export-filename="/home/martin/src/dev/pics/pixelma/two/ipodcolor-front.png"
   inkscape:export-xdpi="72"
   inkscape:export-ydpi="72" /><text
   xml:space="preserve"
   style="font-size:790.222229px;font-style:normal;font-variant:normal;font-weight:normal;font-stretch:normal;text-align:start;line-height:100%;writing-mode:lr-tb;text-anchor:start;fill:#000000;fill-opacity:1;stroke:none;font-family:URW Palladio L"
   x="-4221.1216"
   y="7231.021"
   id="text2392"
   sodipodi:linespacing="100%"
   inkscape:export-filename="/home/martin/src/dev/pics/pixelma/two/ipodcolor-front.png"
   inkscape:export-xdpi="72"
   inkscape:export-ydpi="72"><tspan
     sodipodi:role="line"
     id="tspan2394"
     x="-4221.1216"
     y="7231.021">Scroll Back</tspan></text>



<text
   xml:space="preserve"
   style="font-size:790.222229px;font-style:normal;font-variant:normal;font-weight:normal;font-stretch:normal;text-align:start;line-height:100%;writing-mode:lr-tb;text-anchor:start;fill:#000000;fill-opacity:1;stroke:none;font-family:URW Palladio L"
   x="-4314.3159"
   y="10000.359"
   id="text2396"
   sodipodi:linespacing="100%"
   inkscape:export-filename="/home/martin/src/dev/pics/pixelma/two/ipodcolor-front.png"
   inkscape:export-xdpi="72"
   inkscape:export-ydpi="72"><tspan
     sodipodi:role="line"
     id="tspan2398"
     x="-4314.3159"
     y="10000.359">Prev</tspan></text>



<text
   xml:space="preserve"
   style="font-size:790.222229px;font-style:normal;font-variant:normal;font-weight:normal;font-stretch:normal;text-align:start;line-height:100%;writing-mode:lr-tb;text-anchor:start;fill:#000000;fill-opacity:1;stroke:none;font-family:URW Palladio L"
   x="-4394.3267"
   y="14179.188"
   id="text2400"
   sodipodi:linespacing="100%"
   inkscape:export-filename="/home/martin/src/dev/pics/pixelma/two/ipodcolor-front.png"
   inkscape:export-xdpi="72"
   inkscape:export-ydpi="72"><tspan
     sodipodi:role="line"
     id="tspan2402"
     x="-4394.3267"
     y="14179.188">Play</tspan></text>



<text
   xml:space="preserve"
   style="font-size:790.222229px;font-style:normal;font-variant:normal;font-weight:normal;font-stretch:normal;text-align:start;line-height:100%;writing-mode:lr-tb;text-anchor:start;fill:#000000;fill-opacity:1;stroke:none;font-family:URW Palladio L"
   x="9903.4922"
   y="14460.726"
   id="text2404"
   sodipodi:linespacing="100%"
   inkscape:export-filename="/home/martin/src/dev/pics/pixelma/two/ipodcolor-front.png"
   inkscape:export-xdpi="72"
   inkscape:export-ydpi="72"><tspan
     sodipodi:role="line"
     id="tspan2406"
     x="9903.4922"
     y="14460.726">Select</tspan></text>



<text
   xml:space="preserve"
   style="font-size:790.222229px;font-style:normal;font-variant:normal;font-weight:normal;font-stretch:normal;text-align:start;line-height:100%;writing-mode:lr-tb;text-anchor:start;fill:#000000;fill-opacity:1;stroke:none;font-family:URW Palladio L"
   x="9705.7549"
   y="10027.029"
   id="text2408"
   sodipodi:linespacing="100%"
   inkscape:export-filename="/home/martin/src/dev/pics/pixelma/two/ipodcolor-front.png"
   inkscape:export-xdpi="72"
   inkscape:export-ydpi="72"><tspan
     sodipodi:role="line"
     id="tspan2410"
     x="9705.7549"
     y="10027.029">Next</tspan></text>



<text
   xml:space="preserve"
   style="font-size:790.222229px;font-style:normal;font-variant:normal;font-weight:normal;font-stretch:normal;text-align:start;line-height:100%;writing-mode:lr-tb;text-anchor:start;fill:#000000;fill-opacity:1;stroke:none;font-family:URW Palladio L"
   x="9645.9443"
   y="7606.5264"
   id="text2412"
   sodipodi:linespacing="100%"
   inkscape:export-filename="/home/martin/src/dev/pics/pixelma/two/ipodcolor-front.png"
   inkscape:export-xdpi="72"
   inkscape:export-ydpi="72"><tspan
     sodipodi:role="line"
     id="tspan2414"
     x="9645.9443"
     y="7606.5264">Scroll Fwd</tspan></text>



<text
   xml:space="preserve"
   style="font-size:790.222229px;font-style:normal;font-variant:normal;font-weight:normal;font-stretch:normal;text-align:start;line-height:100%;writing-mode:lr-tb;text-anchor:start;fill:#000000;fill-opacity:1;stroke:none;font-family:URW Palladio L"
   x="9652.415"
   y="5543.7822"
   id="text2416"
   sodipodi:linespacing="100%"
   inkscape:export-filename="/home/martin/src/dev/pics/pixelma/two/ipodcolor-front.png"
   inkscape:export-xdpi="72"
   inkscape:export-ydpi="72"><tspan
     sodipodi:role="line"
     id="tspan2418"
     x="9652.415"
     y="5543.7822">Menu</tspan></text>



<text
   xml:space="preserve"
   style="font-size:790.222229px;font-style:normal;font-variant:normal;font-weight:normal;font-stretch:normal;text-align:start;line-height:100%;writing-mode:lr-tb;text-anchor:start;fill:#000000;fill-opacity:1;stroke:none;font-family:URW Palladio L"
   x="1772.7046"
   y="-264.02005"
   id="text2420"
   sodipodi:linespacing="100%"
   inkscape:export-filename="/home/martin/src/dev/pics/pixelma/two/ipodcolor-front.png"
   inkscape:export-xdpi="72"
   inkscape:export-ydpi="72"><tspan
     sodipodi:role="line"
     id="tspan2422"
     x="1772.7046"
     y="-264.02005">Hold</tspan></text>



<path
   d="m 3752.72,8129.25 -46.21,20.75 -45.52,21.97 -44.83,23.17 -44.12,24.3 -43.39,25.41 -42.64,26.57 -41.86,27.66 -41.09,28.73 -40.25,29.77 -39.46,30.82 -38.57,31.82 -37.72,32.84 -36.83,33.79 -35.91,34.77 -34.99,35.7 -34.02,36.61 -33.07,37.51 -32.06,38.37 -31.05,39.24 -30.03,40.09 -28.97,40.87 -27.91,41.7 -26.82,42.46 -25.68,43.22 -24.59,43.96 -23.41,44.66 -22.25,45.36 -21.05,46.03 -19.81,46.71 -18.63,47.31 -17.34,47.97 -16.11,48.51 14.3,4.52 15.93,-48.17 17.22,-47.55 18.45,-46.97 19.71,-46.29 20.87,-45.69 22.07,-45 23.23,-44.32 24.35,-43.6 25.52,-42.86 26.58,-42.12 27.67,-41.34 28.75,-40.59 29.79,-39.73 30.81,-38.94 31.82,-38.09 32.79,-37.21 33.78,-36.31 34.69,-35.42 35.63,-34.47 36.53,-33.55 37.42,-32.56 38.29,-31.58 39.1,-30.58 39.97,-29.55 40.73,-28.49 41.56,-27.42 42.3,-26.33 43.03,-25.25 43.78,-24.12 44.47,-22.93 45.16,-21.79 45.81,-20.63 z"
   id="path2147"
   style="fill:#000000;fill-rule:evenodd;display:inline" /><path
   d="m 5241.38,8142.97 45.81,20.63 45.16,21.79 44.47,22.93 43.78,24.12 43.03,25.25 42.3,26.33 41.56,27.42 40.73,28.49 39.97,29.55 39.1,30.58 38.29,31.58 37.42,32.56 36.53,33.55 35.63,34.47 34.69,35.42 33.78,36.31 32.79,37.21 31.82,38.09 30.81,38.94 29.79,39.73 28.75,40.59 27.67,41.34 26.58,42.12 25.52,42.86 24.35,43.6 23.23,44.32 22.07,45 20.87,45.69 19.71,46.29 18.45,46.97 17.22,47.55 15.93,48.17 14.3,-4.52 -16.11,-48.51 -17.34,-47.97 -18.63,-47.31 -19.81,-46.71 -21.05,-46.03 -22.25,-45.36 -23.41,-44.66 -24.59,-43.96 -25.68,-43.22 -26.82,-42.46 -27.91,-41.7 -28.97,-40.87 -30.03,-40.09 -31.05,-39.24 -32.06,-38.37 -33.07,-37.51 -34.02,-36.61 -34.99,-35.7 -35.91,-34.77 -36.83,-33.79 -37.72,-32.84 -38.57,-31.82 -39.46,-30.82 -40.25,-29.77 -41.09,-28.73 -41.86,-27.66 -42.64,-26.57 -43.39,-25.41 -44.12,-24.3 -44.83,-23.17 -45.52,-21.97 -46.21,-20.75 z"
   id="path2153"
   style="fill:#000000;fill-rule:evenodd;display:inline" /><path
   d="m 2675.97,9409.44 -26.67,-269.5 0,0 5.38,5.09 5.45,4.89 5.51,4.69 5.57,4.5 5.63,4.29 5.7,4.1 5.76,3.89 5.83,3.7 5.88,3.5 5.95,3.3 6.01,3.11 6.08,2.9 6.13,2.71 6.2,2.5 6.27,2.31 6.32,2.11 6.39,1.91 6.45,1.71 6.52,1.52 6.58,1.31 6.64,1.12 6.7,0.92 6.76,0.71 6.83,0.52 6.89,0.33 6.96,0.12 7.01,-0.08 7.08,-0.27 7.15,-0.48 7.2,-0.67 7.27,-0.87 7.33,-1.07 -176.76,205.18 0,0 z"
   id="path2145"
   style="fill:#000000;fill-rule:evenodd;display:inline" /><path
   d="m 6324.05,9409.44 -176.76,-205.18 0,0 7.33,1.07 7.27,0.87 7.2,0.67 7.15,0.48 7.08,0.27 7.01,0.08 6.96,-0.12 6.89,-0.33 6.83,-0.52 6.76,-0.71 6.7,-0.92 6.64,-1.12 6.58,-1.31 6.52,-1.52 6.45,-1.71 6.39,-1.91 6.32,-2.11 6.27,-2.31 6.2,-2.5 6.13,-2.71 6.08,-2.9 6.01,-3.11 5.95,-3.3 5.88,-3.5 5.83,-3.7 5.76,-3.89 5.7,-4.1 5.63,-4.29 5.57,-4.5 5.51,-4.69 5.45,-4.89 5.38,-5.09 -26.67,269.5 0,0 z"
   id="path2151"
   style="fill:#000000;fill-rule:evenodd;display:inline" /></g></svg>