<?xml version="1.0" encoding="UTF-8" standalone="no"?>
<!-- Creator: CorelDRAW -->
<svg
   xmlns:dc="http://purl.org/dc/elements/1.1/"
   xmlns:cc="http://web.resource.org/cc/"
   xmlns:rdf="http://www.w3.org/1999/02/22-rdf-syntax-ns#"
   xmlns:svg="http://www.w3.org/2000/svg"
   xmlns="http://www.w3.org/2000/svg"
   xmlns:sodipodi="http://inkscape.sourceforge.net/DTD/sodipodi-0.dtd"
   xmlns:inkscape="http://www.inkscape.org/namespaces/inkscape"
   xml:space="preserve"
   width="90mm"
   height="152mm"
   shape-rendering="geometricPrecision"
   text-rendering="geometricPrecision"
   image-rendering="optimizeQuality"
   fill-rule="evenodd"
   viewBox="0 0 9000 15200"
   id="svg1832"
   sodipodi:version="0.32"
   inkscape:version="0.43"
   sodipodi:docname="ipodmini-front.svg"
   sodipodi:docbase="/home/martin/src/dev/pics/pixelma/two"><metadata
   id="metadata1923"><rdf:RDF><cc:Work
       rdf:about=""><dc:format>image/svg+xml</dc:format><dc:type
         rdf:resource="http://purl.org/dc/dcmitype/StillImage" /></cc:Work></rdf:RDF></metadata><defs
   id="defs1921" /><sodipodi:namedview
   inkscape:window-height="572"
   inkscape:window-width="746"
   inkscape:pageshadow="2"
   inkscape:pageopacity="0.0"
   borderopacity="1.0"
   bordercolor="#666666"
   pagecolor="#ffffff"
   id="base"
   inkscape:zoom="0.7482602"
   inkscape:cx="159.44882"
   inkscape:cy="483.12071"
   inkscape:window-x="395"
   inkscape:window-y="101"
   inkscape:current-layer="layer2" />
 <g
   id="Ebene_x0020_1">
  <defs
   id="defs1835">
   <linearGradient
   id="id0"
   gradientUnits="userSpaceOnUse"
   x1="1446.92"
   y1="145.15"
   x2="3167.54"
   y2="145.15">
    <stop
   offset="0"
   stop-color="#000000"
   id="stop1838" />
    <stop
   offset="0.0784314"
   stop-color="#FFFFFF"
   id="stop1840" />
    <stop
   offset="0.101961"
   stop-color="#F0F0F0"
   id="stop1842" />
    <stop
   offset="0.901961"
   stop-color="#F0F0F0"
   id="stop1844" />
    <stop
   offset="0.921569"
   stop-color="#FFFFFF"
   id="stop1846" />
    <stop
   offset="1"
   stop-color="#000000"
   id="stop1848" />
   </linearGradient>
   <linearGradient
   id="id1"
   gradientUnits="userSpaceOnUse"
   x1="377.44"
   y1="7645.14"
   x2="8622.56"
   y2="7645.14">
    <stop
   offset="0"
   stop-color="#000000"
   id="stop1851" />
    <stop
   offset="0.0784314"
   stop-color="#DEDEDE"
   id="stop1853" />
    <stop
   offset="0.101961"
   stop-color="#D4D4D4"
   id="stop1855" />
    <stop
   offset="0.901961"
   stop-color="#D4D4D4"
   id="stop1857" />
    <stop
   offset="0.921569"
   stop-color="#DEDEDE"
   id="stop1859" />
    <stop
   offset="1"
   stop-color="#000000"
   id="stop1861" />
   </linearGradient>
  </defs>
  <path
   fill="url(#id0)"
   stroke="#000000"
   stroke-width="18"
   stroke-linejoin="bevel"
   d="M1446.92 100.01l1720.62 0 0 90.27 -1720.62 0 0 -90.27"
   id="path1863" />
  <path
   fill="url(#id1)"
   stroke="#000000"
   stroke-width="18"
   stroke-linejoin="bevel"
   d="M377.44 190.28l8245.12 0 0 14909.7 -8245.12 0 0 -14909.7"
   id="path1865" />
  <path
   fill="#FFFFFF"
   stroke="#000000"
   stroke-width="18"
   stroke-linejoin="bevel"
   d="M7574.46 10434.7c0,-1697.98 -1376.49,-3074.45 -3074.46,-3074.45 -1697.97,0 -3074.46,1376.47 -3074.46,3074.45 0,1697.98 1376.49,3074.46 3074.46,3074.46 1697.97,0 3074.46,-1376.48 3074.46,-3074.46z"
   id="path1867" />
  <path
   fill="#FFFFFF"
   stroke="#000000"
   stroke-width="18"
   stroke-linejoin="bevel"
   d="M5527.27 10434.7c0,-567.35 -459.93,-1027.27 -1027.27,-1027.27 -567.34,0 -1027.27,459.92 -1027.27,1027.27 0,567.35 459.93,1027.27 1027.27,1027.27 567.34,0 1027.27,-459.92 1027.27,-1027.27z"
   id="path1869" />
  <path
   fill="#878787"
   d="M4862.83 7892.46l0 -166.44c0,-4.49 3.63,-8.12 8.11,-8.12l29.51 0c4.48,0 8.11,3.63 8.11,8.12l0 166.44c0,34.77 28.19,62.95 62.96,62.95 34.77,0 62.96,-28.18 62.96,-62.95l0 -166.44c0,-4.49 3.63,-8.12 8.11,-8.12l29.51 0c2.15,0 4.21,0.86 5.73,2.38 1.53,1.52 2.38,3.58 2.38,5.74l0 166.44c0,60.02 -48.66,108.69 -108.69,108.69 -60.03,0 -108.69,-48.67 -108.69,-108.69"
   id="path1871" />
  <path
   fill="#878787"
   d="M4770.2 7989.61c0,4.49 -3.64,8.12 -8.12,8.12l-33.19 0c-2.76,0 -5.33,-1.4 -6.83,-3.72l-108.57 -168.5c-1.95,-3.02 -5.66,-4.4 -9.12,-3.39 -3.45,1.02 -5.82,4.19 -5.82,7.79l0 159.7c0,2.16 -0.86,4.22 -2.38,5.74 -1.52,1.52 -3.58,2.38 -5.74,2.38l-29.5 0c-2.15,0 -4.22,-0.86 -5.74,-2.38 -1.52,-1.52 -2.38,-3.58 -2.38,-5.74l0 -263.59c0,-4.49 3.64,-8.12 8.12,-8.12l33.19 0c2.76,0 5.33,1.4 6.83,3.72l108.57 168.5c1.95,3.02 5.66,4.4 9.12,3.39 3.45,-1.02 5.82,-4.19 5.82,-7.79l0 -159.7c0,-4.49 3.63,-8.12 8.12,-8.12l29.5 0c2.15,0 4.22,0.86 5.74,2.38 1.52,1.52 2.38,3.58 2.38,5.74l0 263.59"
   id="path1873" />
  <path
   fill="#878787"
   d="M4455.49 7872.57c0,4.48 -3.63,8.11 -8.11,8.11l-96.43 0c-4.48,0 -8.11,3.64 -8.11,8.12l0 55.08c0,4.48 3.63,8.11 8.11,8.11l108.95 0c4.48,0 8.11,3.64 8.11,8.12l0 29.5c0,2.16 -0.85,4.22 -2.37,5.74 -1.52,1.52 -3.59,2.38 -5.74,2.38l-154.68 0c-4.48,0 -8.12,-3.63 -8.12,-8.12l0 -263.59c0,-4.49 3.64,-8.12 8.12,-8.12l154.68 0c2.15,0 4.22,0.86 5.74,2.38 1.52,1.52 2.37,3.58 2.37,5.74l0 29.5c0,4.48 -3.63,8.12 -8.11,8.12l-108.95 0c-2.15,0 -4.21,0.85 -5.73,2.37 -1.53,1.52 -2.38,3.59 -2.38,5.74l0 55.08c0,4.48 3.63,8.12 8.11,8.12l96.43 0c4.48,0 8.11,3.63 8.11,8.11l0 29.51"
   id="path1875" />
  <path
   fill="#878787"
   d="M4169.05 7989.98l-5.77 -128.05c-0.18,-3.8 -2.96,-6.97 -6.71,-7.63 -3.74,-0.66 -7.44,1.37 -8.9,4.88l-55.4 133.54c-1.26,3.03 -4.22,5.01 -7.5,5.01l-34.94 0c-3.28,0 -6.24,-1.98 -7.5,-5.01l-55.4 -133.54c-1.46,-3.51 -5.16,-5.54 -8.91,-4.88 -3.74,0.66 -6.53,3.83 -6.7,7.63l-5.77 128.05c-0.2,4.33 -3.77,7.75 -8.11,7.75l-29.54 0c-2.21,0 -4.33,-0.91 -5.86,-2.51 -1.53,-1.6 -2.34,-3.76 -2.24,-5.97l11.89 -263.6c0.2,-4.34 3.77,-7.75 8.11,-7.75l32.6 0c3.28,0 6.24,1.98 7.5,5.01l79.9 192.58c1.26,3.03 4.22,5.01 7.5,5.01 3.28,0 6.24,-1.98 7.5,-5.01l79.9 -192.58c1.26,-3.03 4.22,-5.01 7.5,-5.01l32.6 0c4.34,0 7.91,3.41 8.11,7.75l11.89 263.6c0.1,2.21 -0.71,4.37 -2.24,5.97 -1.53,1.6 -3.65,2.51 -5.86,2.51l-29.54 0c-4.34,0 -7.91,-3.42 -8.11,-7.75"
   id="path1877" />
  <path
   fill="#878787"
   d="M4174.57 12886.2l224.96 114.8c5.43,2.78 8.85,8.36 8.85,14.46 0,6.1 -3.42,11.68 -8.85,14.46l-224.96 114.8c-5.01,2.98 -11.24,3.04 -16.31,0.15 -5.07,-2.88 -8.2,-8.27 -8.2,-14.1l0 -230.62c0,-5.83 3.13,-11.21 8.2,-14.1 5.07,-2.89 11.3,-2.83 16.31,0.15"
   id="path1879" />
  <path
   fill="#878787"
   d="M4833.71 13159.3c8.96,0 16.23,-7.27 16.23,-16.23l0 -255.18c0,-8.96 -7.27,-16.23 -16.23,-16.23l-41.23 0c-8.96,0 -16.23,7.27 -16.23,16.23l0 255.18c0,8.96 7.27,16.23 16.23,16.23l41.23 0"
   id="path1881" />
  <path
   fill="#878787"
   d="M4661.24 13159.3c8.97,0 16.23,-7.27 16.23,-16.23l0 -255.18c0,-8.96 -7.26,-16.23 -16.23,-16.23l-41.23 0c-8.96,0 -16.23,7.27 -16.23,16.23l0 255.18c0,8.96 7.27,16.23 16.23,16.23l41.23 0"
   id="path1883" />
  <path
   fill="#878787"
   d="M1804.56 10261.9c8.96,0 16.23,7.27 16.23,16.23l0 99.08c0,5.83 3.13,11.21 8.2,14.1 5.07,2.89 11.29,2.83 16.31,-0.15l193.23 -114.71c5.01,-2.98 11.24,-3.03 16.31,-0.15 5.07,2.89 8.2,8.27 8.2,14.11l0 86.8c0,5.83 3.13,11.21 8.2,14.1 5.07,2.89 11.3,2.83 16.32,-0.15l193.22 -114.71c5.02,-2.98 11.25,-3.03 16.32,-0.15 5.07,2.89 8.2,8.27 8.2,14.11l0 230.61c0,5.84 -3.13,11.22 -8.2,14.11 -5.07,2.88 -11.3,2.83 -16.32,-0.15l-193.22 -114.71c-5.02,-2.98 -11.25,-3.04 -16.32,-0.15 -5.07,2.89 -8.2,8.27 -8.2,14.1l0 86.8c0,5.84 -3.13,11.22 -8.2,14.11 -5.07,2.88 -11.3,2.83 -16.31,-0.15l-193.23 -114.71c-5.02,-2.98 -11.24,-3.04 -16.31,-0.15 -5.07,2.89 -8.2,8.27 -8.2,14.1l0 99.08c0,8.96 -7.27,16.23 -16.23,16.23l-41.23 0c-8.97,0 -16.23,-7.27 -16.23,-16.23l0 -255.17c0,-8.96 7.26,-16.23 16.23,-16.23l41.23 0"
   id="path1885" />
  <path
   fill="#878787"
   d="M7195.44 10261.9c-8.96,0 -16.23,7.27 -16.23,16.23l0 99.08c0,5.83 -3.13,11.21 -8.2,14.1 -5.07,2.89 -11.29,2.83 -16.31,-0.15l-193.23 -114.71c-5.01,-2.98 -11.24,-3.03 -16.31,-0.15 -5.07,2.89 -8.2,8.27 -8.2,14.11l0 86.8c0,5.83 -3.13,11.21 -8.2,14.1 -5.07,2.89 -11.3,2.83 -16.32,-0.15l-193.22 -114.71c-5.02,-2.98 -11.25,-3.03 -16.32,-0.15 -5.07,2.89 -8.2,8.27 -8.2,14.11l0 230.61c0,5.84 3.13,11.22 8.2,14.11 5.07,2.88 11.3,2.83 16.32,-0.15l193.22 -114.71c5.02,-2.98 11.25,-3.04 16.32,-0.15 5.07,2.89 8.2,8.27 8.2,14.1l0 86.8c0,5.84 3.13,11.22 8.2,14.11 5.07,2.88 11.3,2.83 16.31,-0.15l193.23 -114.71c5.02,-2.98 11.24,-3.04 16.31,-0.15 5.07,2.89 8.2,8.27 8.2,14.1l0 99.08c0,8.96 7.27,16.23 16.23,16.23l41.23 0c8.97,0 16.23,-7.27 16.23,-16.23l0 -255.17c0,-8.96 -7.26,-16.23 -16.23,-16.23l-41.23 0"
   id="path1887" />
  <g
   id="g1889">
   <path
   fill="#000000"
   d="M6692.84 9871.96l-176.76 -205.18 0 0 7.33 1.07 7.27 0.87 7.21 0.67 7.14 0.48 7.08 0.27 7.01 0.08 6.96 -0.13 6.89 -0.32 6.83 -0.52 6.76 -0.72 6.71 -0.91 6.64 -1.12 6.57 -1.31 6.52 -1.52 6.45 -1.71 6.39 -1.91 6.32 -2.11 6.27 -2.31 6.2 -2.5 6.13 -2.71 6.08 -2.9 6.01 -3.11 5.95 -3.3 5.89 -3.5 5.82 -3.7 5.76 -3.89 5.7 -4.1 5.63 -4.29 5.58 -4.5 5.5 -4.69 5.45 -4.89 5.38 -5.09 -26.67 269.5 0 0z"
   id="path1891" />
   <path
   fill="#000000"
   d="M5179.8 8286.73l64.94 21.61 64.04 23.52 63.09 25.43 62.15 27.21 61.15 29.04 60.12 30.8 59.09 32.52 57.96 34.23 56.86 35.89 55.66 37.53 54.49 39.11 53.26 40.71 52 42.2 50.68 43.73 49.39 45.17 47.99 46.62 46.62 47.99 45.18 49.39 43.72 50.69 42.21 51.99 40.7 53.26 39.11 54.5 37.53 55.65 35.89 56.87 34.23 57.95 32.52 59.09 30.8 60.12 29.04 61.16 27.21 62.15 25.42 63.09 23.52 64.04 21.61 64.95 14.3 -4.52 -21.79 -65.35 -23.7 -64.46 -25.54 -63.55 -27.43 -62.57 -29.22 -61.56 -30.98 -60.54 -32.76 -59.43 -34.45 -58.37 -36.13 -57.21 -37.77 -56.07 -39.39 -54.84 -40.94 -53.62 -42.51 -52.33 -44 -51.05 -45.48 -49.69 -46.92 -48.33 -48.33 -46.92 -49.69 -45.47 -51.04 -44.01 -52.34 -42.5 -53.62 -40.95 -54.83 -39.39 -56.08 -37.77 -57.2 -36.13 -58.38 -34.45 -59.43 -32.76 -60.54 -30.98 -61.55 -29.22 -62.57 -27.43 -63.55 -25.55 -64.46 -23.7 -65.34 -21.79z"
   id="path1893" />
  </g>
  <g
   id="g1895">
   <path
   fill="#000000"
   d="M2307.16 9871.96l-26.67 -269.5 0 0 5.38 5.09 5.45 4.89 5.5 4.69 5.58 4.5 5.63 4.29 5.7 4.1 5.76 3.89 5.82 3.7 5.89 3.5 5.95 3.3 6.01 3.11 6.07 2.9 6.14 2.71 6.2 2.5 6.27 2.31 6.32 2.11 6.39 1.91 6.45 1.71 6.52 1.52 6.57 1.31 6.64 1.12 6.71 0.91 6.76 0.72 6.83 0.52 6.89 0.32 6.96 0.13 7.01 -0.08 7.08 -0.27 7.14 -0.48 7.21 -0.67 7.27 -0.87 7.33 -1.07 -176.76 205.18 0 0z"
   id="path1897" />
   <path
   fill="#000000"
   d="M3815.68 8272.43l-65.34 21.79 -64.46 23.7 -63.55 25.55 -62.57 27.43 -61.55 29.22 -60.54 30.98 -59.43 32.76 -58.38 34.45 -57.2 36.13 -56.08 37.77 -54.83 39.39 -53.62 40.95 -52.34 42.5 -51.04 44.01 -49.69 45.47 -48.33 46.92 -46.92 48.33 -45.48 49.69 -44 51.05 -42.51 52.33 -40.94 53.62 -39.39 54.84 -37.77 56.07 -36.13 57.21 -34.45 58.37 -32.76 59.43 -30.98 60.54 -29.22 61.56 -27.43 62.57 -25.54 63.55 -23.7 64.46 -21.79 65.35 14.3 4.52 21.61 -64.95 23.52 -64.04 25.42 -63.09 27.21 -62.15 29.04 -61.16 30.8 -60.12 32.52 -59.09 34.23 -57.95 35.89 -56.87 37.53 -55.65 39.11 -54.5 40.7 -53.26 42.21 -51.99 43.72 -50.69 45.18 -49.39 46.62 -47.99 47.99 -46.62 49.39 -45.17 50.68 -43.73 52 -42.2 53.26 -40.71 54.49 -39.11 55.66 -37.53 56.86 -35.89 57.96 -34.23 59.09 -32.52 60.12 -30.8 61.15 -29.04 62.15 -27.21 63.09 -25.43 64.04 -23.52 64.94 -21.61z"
   id="path1899" />
  </g>
  <path
   fill="#736D78"
   stroke="#FFFFFF"
   stroke-width="15"
   stroke-linejoin="bevel"
   d="M1885.48 1196.89l5229.04 0c80.67,0 146.07,65.4 146.07,146.07l0 3980.77c0,80.67 -65.4,146.07 -146.07,146.07l-5229.04 0c-80.67,0 -146.07,-65.4 -146.07,-146.07l0 -3980.77c0,-80.67 65.4,-146.07 146.07,-146.07"
   id="path1901" />
  <path
   fill="#E9E4ED"
   stroke="#B3ADB8"
   stroke-width="50"
   stroke-linejoin="bevel"
   d="M1885.48 1282.72l5229.04 0c33.27,0 60.25,26.97 60.25,60.24l0 3980.76c0,15.98 -6.35,31.3 -17.65,42.6 -11.3,11.3 -26.62,17.64 -42.6,17.64l-5229.04 0c-15.98,0 -31.3,-6.34 -42.6,-17.64 -11.3,-11.3 -17.65,-26.62 -17.65,-42.6l0 -3980.76c0,-33.27 26.98,-60.24 60.25,-60.24"
   id="path1903" />
  <g
   id="g1905">
   <path
   fill="#000000"
   d="M3619.33 2136.49c-85.2,-370.72 -305.8,-386.85 -357.66,-386.85l0 -21.69c115.03,0 300.94,82.1 368.49,363.85 86.55,-281.15 234.36,-356.62 338.09,-358.05 98.84,-1.37 159.82,21.68 253.51,70.5l0 -44 270.49 0 0 -37.08 21.68 0 0 37.08 45.87 0 0 21.66 -45.87 0 0 530.1 194.53 -491.75 186.38 0 16.23 -38.35 -232.23 0 0 -21.66 241.42 0 25.51 -60.23 19.97 8.45 -21.94 51.78 51.36 0 0 21.66 -60.55 0 -151.6 357.82 200.77 0 0 268.16c187.91,-92.48 412.72,-24.63 526.02,156.44 112.39,-173.25 331.97,-242.3 523.27,-164.55l-7.61 -12.3 323.34 0 64.6 104.43 63.08 -102.01c0.94,-1.51 2.59,-2.42 4.37,-2.42l0 0c1.85,0 3.57,0.99 4.46,2.62 0.91,1.62 0.88,3.6 -0.11,5.18l-65.77 106.37 8.42 13.62 77.55 -125.37c0.92,-1.51 2.56,-2.42 4.35,-2.42l0 0c1.85,0 3.56,0.99 4.46,2.62 0.9,1.62 0.85,3.6 -0.12,5.18l-80.21 129.72 8.42 13.64 93.48 -151.16 323.34 0 -255.15 412.55 8.43 13.63 269.24 -435.33 -335.91 0c-1.85,0 -3.57,-0.99 -4.46,-2.61 -0.91,-1.63 -0.87,-3.61 0.11,-5.19l0 0c0.95,-1.52 2.59,-2.42 4.35,-2.42l354.27 0 -267.14 431.92 249.91 404.07c0.98,1.58 1.03,3.56 0.11,5.19 -0.9,1.61 -2.61,2.62 -4.46,2.62 -1.77,0 -3.42,-0.92 -4.35,-2.43l-247.23 -399.72 -8.42 13.64 240.29 388.51 -323.34 0 -61.77 -99.86 -60.26 97.43c-0.94,1.51 -2.58,2.43 -4.35,2.43l0 0c-0.84,0 -1.67,-0.2 -2.41,-0.6 -0.74,0.4 -1.57,0.6 -2.41,0.6 -1.85,0 -3.57,-1.01 -4.47,-2.62 -0.92,-1.63 -0.87,-3.61 0.12,-5.19l65.35 -105.68 -8.42 -13.63 -77.13 124.69c-0.92,1.51 -2.56,2.43 -4.35,2.43 -1.86,0 -3.56,-1.01 -4.48,-2.62 -0.88,-1.63 -0.85,-3.61 0.14,-5.19l79.79 -129.04 -8.42 -13.63 -93.08 150.48 -323.34 0 9.46 -15.29c-191.46,79.09 -412.1,10.6 -525.15,-163.02 -113.14,181.5 -338.26,247.91 -526.41,155.31l0 23 -274.73 0 0 -2.06 -45.35 0 19.81 55.93 -20.43 7.23 -22.37 -63.16 -87.09 0 0 -21.68 79.41 0 -161.81 -456.79 -9.57 23.3 0 457.23 -179.21 0 0 -1391.65 179.21 0 0 623.9 30.6 -77.36 0 -584.89 -248.81 0 0 63.38c-107.94,-72.59 -180.28,-89.86 -275.19,-89.86 -75.15,0 -240.06,54.78 -327.25,381.06l-21.67 0zm388.14 1104.68l-341.65 0.01 0 -21.68 233.33 0c-177.81,-78.96 -255.29,-364.68 -255.29,-703.41 0,-399.38 107.66,-725.09 360.52,-725.09 116.21,0 182.22,59.7 239.06,114.11l0 35.47c0.02,0.03 0.03,0.07 0.06,0.09l-0.02 300.74 -19.3 0c-41.89,-76.34 -118.92,-183.56 -198.48,-183.56 -132.57,0 -198.15,205.36 -196.48,458.24 -1.67,252.87 63.91,458.23 196.48,458.23 79.56,0 156.59,-107.22 198.48,-183.56l19.3 0 0.02 300.74c-0.03,0.03 -0.04,0.06 -0.06,0.1l0 35.48c-56.33,53.91 -121.68,113.03 -235.97,114.09zm-748.42 -1450.17c250.69,0 357.42,341.93 357.42,725.09 0,383.16 -106.73,725.09 -357.42,725.09 -250.71,0 -357.42,-325.73 -357.42,-725.09 0,-399.38 106.71,-725.09 357.42,-725.09zm-624.13 29.26l-326.43 0 0 808.17c2.11,5.67 4.2,11.31 6.28,16.97 14.66,-4.01 29.87,-5.64 45.03,-4.83 29.69,1.59 56.44,18.44 70.69,44.52 12.89,23.58 19.02,50.25 17.73,77.09 -0.53,11.21 -3.5,22.18 -8.66,32.15 -12.68,24.5 -32.25,44.74 -56.29,58.24 8.12,27.61 15.91,55.35 23.32,83.15 14.19,53.22 20.85,108.17 19.78,163.24 -0.28,14.21 -3.35,28.22 -9.06,41.23 -5.86,13.32 -16.12,24.24 -29.06,30.91 -9.4,4.84 -20.35,5.64 -30.35,2.21 -9.99,-3.42 -18.16,-10.76 -22.61,-20.36 -5.2,-11.14 -7.72,-23.34 -7.42,-35.63 0.16,-6.93 3.51,-13.39 9.07,-17.52 6.99,-5.23 15.59,-7.86 24.32,-7.43 5.71,0.28 10.85,3.62 13.41,8.75 2.57,5.12 2.15,11.22 -1.06,15.98 -3.95,5.85 -9.75,10.21 -16.49,12.38l2.3 5.01c1.09,2.84 3.5,4.98 6.46,5.71 2.97,0.73 6.09,-0.02 8.38,-2.04 11.26,-9.6 18.28,-23.25 19.51,-38 1.63,-25.41 1.1,-50.9 -1.6,-76.22 -7.92,-54.09 -19.71,-107.52 -35.26,-159.92 -4,1.28 -8.05,2.36 -12.15,3.29 -11.98,2.66 -24.09,4.73 -36.27,6.21l0 338.39 218.46 0 0 45.26 21.67 0 0 -45.26 46.55 0 0 -21.68 -46.55 0 0 -487.96 20.94 0 190.65 509.64 209.37 0 18.92 48.29 20.18 -7.91 -18.81 -48 65.32 0 0 -21.68 -73.82 0 -225.46 -575.47c82.99,-85.61 130.61,-214.46 130.61,-378.09 0,-219.33 -59.36,-408.79 -251.6,-408.79zm-287.55 1013.23c-12.45,5.13 -25.52,8.57 -38.88,10.23l0 -123.33c13.45,37.39 26.37,74.95 38.74,112.7 0.05,0.13 0.11,0.27 0.14,0.4 0,0 0,0 0,0 0,0 0,0 0,0 0,0 0,0 0,0m-20.46 -154.5c4.25,-1.17 8.57,-2.17 12.91,-2.97 13.62,-2.53 27.66,0.76 38.74,9.07 10.09,7.56 17.34,18.3 20.64,30.47 7.3,27.14 5.71,55.9 -4.56,82.07 -2.16,5.49 -5.71,10.33 -10.3,14.02 -3.54,2.84 -7.18,5.51 -10.95,8 -14.44,-47.22 -29.96,-94.12 -46.48,-140.66m-18.42 164.73c-3.42,0.41 -6.85,0.71 -10.3,0.9 -37.54,2.04 -72.45,-19.28 -87.8,-53.59 -27.25,-60.91 -31.2,-129.7 -11.13,-193.32 7.05,-22.34 14.34,-44.6 21.85,-66.78 2.08,-6.14 4.18,-12.27 6.3,-18.41 20.15,47.86 39.41,96.09 57.78,144.68 -26.17,14.02 -47.28,35.88 -60.37,62.52 -2.17,4.4 -1.31,9.69 2.11,13.19 3.43,3.52 8.71,4.47 13.16,2.4 3.86,-2.79 7.43,-5.94 10.69,-9.4 13.23,-14.69 29.08,-26.76 46.74,-35.64 3.7,10.02 7.34,20.06 10.97,30.12l0 -91.96c-17.38,-46.49 -35.79,-92.63 -55.23,-138.31 -3.22,-7.57 -6.51,-15.11 -9.86,-22.61 4.05,-11.12 8.16,-22.19 12.33,-33.26 5.96,-15.78 10.5,-32.05 13.6,-48.63 3.49,-18.76 1.93,-38.11 -4.53,-56.06 -14.73,-40.92 -43.12,-75.49 -80.37,-97.9 -16.39,-9.86 -35.3,-14.74 -54.42,-14.02 -16.01,0.6 -28.95,13.27 -29.87,29.27 -0.85,14.52 2.5,28.97 9.68,41.63 6.64,11.71 13.79,23.13 21.42,34.2 23.6,34.19 43.98,70.49 60.91,108.42 3.33,7.47 6.64,14.95 9.92,22.41 -5.17,14.22 -10.23,28.46 -15.18,42.73 -22.95,66.24 -37.76,135.05 -44.1,204.88 -2.98,32.96 -0.06,66.18 8.66,98.1 11.95,43.8 50.89,74.81 96.25,76.67 20.28,0.83 40.62,0.02 60.79,-2.43l0 -29.8m296.84 -1081.41l-337.48 0 0 -52.58 -21.67 0 0 52.58 -50.47 0 0 21.67 50.47 0 0 241.45 21.67 0 0 -241.45 337.48 0 0 -21.67"
   id="path1907" />
   <path
   fill="#C0BDC7"
   d="M6802.16 2419.22l-248.68 0 -111.18 179.76 -111.18 -179.76 -248.7 0 46.65 75.4c-94.93,-80.59 -222.06,-112.2 -343.65,-85.49 -121.62,26.72 -223.78,108.72 -276.19,221.67 -46.96,-105.09 -135.35,-183.74 -242.26,-215.58 -106.92,-31.83 -221.81,-13.74 -314.93,49.64l0 -298.35 -211.25 0 0 1008.71 211.25 0 0 -40.69c93.28,63.47 208.4,81.53 315.47,49.47 107.05,-32.07 195.45,-111.06 242.2,-216.47 52.99,113.38 156.15,195.32 278.58,221.28 122.43,25.96 249.96,-7.07 344.39,-89.23l-49.83 80.59 248.69 0 110.76 -179.09 110.75 179.09 248.69 0 -235.1 -380.14 235.52 -380.81z"
   id="path1909" />
   <path
   fill="#000000"
   d="M5327.55 2798.67c0,-103.72 -84.06,-187.78 -187.75,-187.78 -103.7,0 -187.76,84.06 -187.76,187.78 0,103.7 84.06,187.76 187.76,187.76 103.69,0 187.75,-84.06 187.75,-187.76zm930.7 -95.17c15.74,64.08 15.34,131.06 -1.17,194.94l60.87 -98.41 -59.7 -96.53m-199.51 95.17c0,-103.72 -84.07,-187.78 -187.75,-187.78 -103.7,0 -187.77,84.06 -187.77,187.78 0,103.7 84.07,187.76 187.77,187.76 103.68,0 187.75,-84.06 187.75,-187.76z"
   id="path1911" />
   <path
   fill="#E9E4ED"
   d="M2487.69 3190.23l39.26 0 0 -487.96 -39.26 0 0 487.96m81.07 -795.54c66.22,0 76.6,-83.97 76.53,-141.58 -0.07,-57.62 -8.43,-120.16 -66.22,-120.16l-91.38 0 0 318.41 39.26 0 0 -56.67 41.81 0zm0 21.68l-20.14 0 0 34.99 1.39 0c147.58,0 147.58,-132.14 147.58,-178.07l0 -29.64c0,-44.51 -0.3,-167.37 -124.56,-167.37l-85.34 0 0 35.01 81.07 0c42.18,0 98.74,6 98.74,147.42 0,141.41 -56.87,156.47 -98.74,157.66zm-351.42 -3.88c-16.99,-33.9 -35.37,-67.09 -55.08,-99.47 -6.29,-10.3 -11.95,-20.95 -16.99,-31.9 -3.29,-7.13 -5.25,-14.82 -5.77,-22.67 -0.11,-1.69 0.48,-3.36 1.66,-4.56 1.18,-1.22 2.82,-1.89 4.51,-1.83 8.15,0.27 16.1,2.61 23.08,6.8 30.08,18 51.52,47.46 59.36,81.61 2.29,9.97 2.36,20.31 0.21,30.31 -3.03,14.06 -6.7,27.97 -10.98,41.71l0 0m3648.53 542.12l10.22 0c85.13,-2.81 152.29,-73.36 150.87,-158.52 -1.38,-85.15 -70.81,-153.45 -155.97,-153.45 -85.18,0 -154.6,68.3 -155.98,153.45 -1.41,85.16 65.73,155.71 150.86,158.52zm-731.19 0l10.24 0c85.11,-2.81 152.25,-73.36 150.86,-158.52 -1.4,-85.15 -70.82,-153.45 -155.98,-153.45 -85.17,0 -154.6,68.3 -155.98,153.45 -1.41,85.16 65.74,155.71 150.86,158.52zm-489.09 -490.56l63.46 164.19 0 -313.97 -63.46 149.78m10.42 724.12l-172.46 -486.87 20.23 -49.26 199.29 536.13 -47.06 0m-1396.97 -1135.01c120.73,0 172.08,218.29 172.08,462.93 0,244.64 -51.35,462.93 -172.08,462.93 -120.72,0 -172.08,-207.96 -172.08,-462.93 0,-254.97 51.36,-462.93 172.08,-462.93z"
   id="path1913" />
   <path
   fill="#000000"
   d="M5865.87 2954.61c3.41,0.23 6.82,0.22 10.22,0l0 -14.36c77.21,-2.8 137.96,-66.94 136.54,-144.2 -1.41,-77.25 -64.48,-139.13 -141.74,-139.07 -1.86,-0.04 -3.38,0.94 -4.32,2.53 -0.93,1.6 -0.95,3.57 -0.01,5.18 0.94,1.59 2.47,2.56 4.33,2.53 47.58,-0.03 91.46,25.64 114.72,67.15 23.27,41.49 22.31,92.35 -2.54,132.92 -24.83,40.58 -69.67,64.57 -117.2,62.72l0 24.6zm-726.07 -38.84c-2.82,0 -5.12,-2.3 -5.12,-5.12 0,-2.84 2.3,-5.13 5.12,-5.13 59.02,0 106.85,-47.84 106.85,-106.85 0,-59.02 -47.83,-106.87 -106.85,-106.87 -2.82,0 -5.12,-2.29 -5.12,-5.13 0,-2.82 2.3,-5.12 5.12,-5.12 64.66,0 117.09,52.43 117.09,117.12 0,64.67 -52.43,117.1 -117.09,117.1zm731.19 0c-2.84,0 -5.12,-2.3 -5.12,-5.12 0,-2.84 2.28,-5.13 5.12,-5.13 59,0 106.85,-47.84 106.85,-106.85 0,-59.02 -47.85,-106.87 -106.85,-106.87 -2.84,0 -5.12,-2.29 -5.12,-5.13 0,-2.82 2.28,-5.12 5.12,-5.12 64.66,0 117.09,52.43 117.09,117.12 0,64.67 -52.43,117.1 -117.09,117.1zm-736.31 38.84c3.41,0.15 6.82,0.12 10.24,0l0 -14.36c77.21,-2.8 137.93,-66.94 136.52,-144.2 -1.42,-77.25 -64.48,-139.13 -141.75,-139.07 -1.85,-0.04 -3.38,0.94 -4.31,2.53 -0.93,1.6 -0.93,3.57 0,5.18 0.93,1.59 2.47,2.56 4.33,2.53 47.57,-0.03 91.45,25.64 114.72,67.15 23.28,41.49 22.29,92.35 -2.54,132.92 -24.84,40.58 -69.67,64.57 -117.21,62.72l0 24.6zm-1875.63 -40.75l0 -53.53 -21.69 0 0 57.02 0 21.67c117.18,0 151.56,-198.99 152.38,-412.09l493.12 0c1.17,150.03 34.07,379.62 132.02,395.47l0 56.62 21.67 0 0 -452.09 86.29 0 0 -21.68 -86.29 0 0 -78.21 -21.67 0 0 78.21 -110.28 0c2.36,-148.69 43.9,-366.09 121.1,-369.62l0 -21.68c-101.26,3.93 -140.62,235.96 -142.78,391.3l-493.21 0c-1.41,-212.11 -35.65,-409.48 -152.35,-409.48l0 20.81 0 388.67 -66.23 0 0 21.68 66.23 0 0 75.7 21.69 0 0 -75.7 108.98 0c-1.09,136.41 -18.28,356.83 -108.98,386.93z"
   id="path1915" />
   <path
   fill="#E9E4ED"
   d="M3904.54 2526.93c1.4,142.01 37.37,354.07 110.34,373.33l0 -373.33 -110.34 0zm-536.48 -21.68l-109.01 0 0 -385.16c90.24,29.98 108.37,248.52 109.01,385.16z"
   id="path1917" />
  </g>
 </g>
 <g
   id="Haupt_x0020_Desktop">
 </g>
<g
   inkscape:groupmode="layer"
   id="layer2"
   inkscape:label="Text"><path
     style="fill:none;fill-opacity:0.75;fill-rule:evenodd;stroke:#000000;stroke-width:28.22222137;stroke-linecap:butt;stroke-linejoin:miter;stroke-miterlimit:4;stroke-dasharray:none;stroke-opacity:1"
     d="M 1611.2491,10383.771 L -735.71384,10383.771"
     id="path1503"
     inkscape:export-filename="/home/martin/src/dev/pics/pixelma/two/ipodcolor-front.png"
     inkscape:export-xdpi="72"
     inkscape:export-ydpi="72" /><path
     style="fill:none;fill-opacity:0.75;fill-rule:evenodd;stroke:#000000;stroke-width:28.22222137;stroke-linecap:butt;stroke-linejoin:miter;stroke-miterlimit:4;stroke-dasharray:none;stroke-opacity:1"
     d="M 2704.7204,8810.2393 L -549.02361,7556.7478"
     id="path1505"
     inkscape:export-filename="/home/martin/src/dev/pics/pixelma/two/ipodcolor-front.png"
     inkscape:export-xdpi="72"
     inkscape:export-ydpi="72" /><path
     style="fill:none;fill-opacity:0.75;fill-rule:evenodd;stroke:#000000;stroke-width:28.22222137;stroke-linecap:butt;stroke-linejoin:miter;stroke-miterlimit:4;stroke-dasharray:none;stroke-opacity:1"
     d="M 4491.6126,7556.7478 L 9532.2489,5636.5054"
     id="path1507"
     inkscape:export-filename="/home/martin/src/dev/pics/pixelma/two/ipodcolor-front.png"
     inkscape:export-xdpi="72"
     inkscape:export-ydpi="72" /><path
     style="fill:none;fill-opacity:0.75;fill-rule:evenodd;stroke:#000000;stroke-width:28.22222137;stroke-linecap:butt;stroke-linejoin:miter;stroke-miterlimit:4;stroke-dasharray:none;stroke-opacity:1"
     d="M 6438.5251,8836.9093 L 9692.2691,7850.1181"
     id="path1509"
     inkscape:export-filename="/home/martin/src/dev/pics/pixelma/two/ipodcolor-front.png"
     inkscape:export-xdpi="72"
     inkscape:export-ydpi="72" /><path
     style="fill:none;fill-opacity:0.75;fill-rule:evenodd;stroke:#000000;stroke-width:28.22222137;stroke-linecap:butt;stroke-linejoin:miter;stroke-miterlimit:4;stroke-dasharray:none;stroke-opacity:1"
     d="M 7425.3163,10357.101 L 9612.259,10357.101"
     id="path1511"
     inkscape:export-filename="/home/martin/src/dev/pics/pixelma/two/ipodcolor-front.png"
     inkscape:export-xdpi="72"
     inkscape:export-ydpi="72" /><path
     style="fill:none;fill-opacity:0.75;fill-rule:evenodd;stroke:#000000;stroke-width:28.22222137;stroke-linecap:butt;stroke-linejoin:miter;stroke-miterlimit:4;stroke-dasharray:none;stroke-opacity:1"
     d="M 4464.9426,13210.795 C 4331.5924,13237.465 -762.38388,14837.667 -762.38388,14837.667"
     id="path2388"
     inkscape:export-filename="/home/martin/src/dev/pics/pixelma/two/ipodcolor-front.png"
     inkscape:export-xdpi="72"
     inkscape:export-ydpi="72" /><path
     style="fill:none;fill-opacity:0.75;fill-rule:evenodd;stroke:#000000;stroke-width:28.22222137;stroke-linecap:butt;stroke-linejoin:miter;stroke-miterlimit:4;stroke-dasharray:none;stroke-opacity:1"
     d="M 4678.3029,10650.472 L 9745.6092,14650.976"
     id="path2390"
     inkscape:export-filename="/home/martin/src/dev/pics/pixelma/two/ipodcolor-front.png"
     inkscape:export-xdpi="72"
     inkscape:export-ydpi="72" /><text
     xml:space="preserve"
     style="font-size:790.222229px;font-style:normal;font-variant:normal;font-weight:normal;font-stretch:normal;text-align:start;line-height:100%;writing-mode:lr-tb;text-anchor:start;fill:#000000;fill-opacity:1;stroke:none;stroke-width:1px;stroke-linecap:butt;stroke-linejoin:miter;stroke-opacity:1;font-family:URW Palladio L"
     x="-4522.8584"
     y="7796.7783"
     id="text2392"
     sodipodi:linespacing="100%"
     inkscape:export-filename="/home/martin/src/dev/pics/pixelma/two/ipodcolor-front.png"
     inkscape:export-xdpi="72"
     inkscape:export-ydpi="72"><tspan
       sodipodi:role="line"
       id="tspan2394"
       x="-4522.8584"
       y="7796.7783">Scroll Back</tspan></text>
<text
     xml:space="preserve"
     style="font-size:790.222229px;font-style:normal;font-variant:normal;font-weight:normal;font-stretch:normal;text-align:start;line-height:100%;writing-mode:lr-tb;text-anchor:start;fill:#000000;fill-opacity:1;stroke:none;stroke-width:1px;stroke-linecap:butt;stroke-linejoin:miter;stroke-opacity:1;font-family:URW Palladio L"
     x="-4616.0527"
     y="10566.115"
     id="text2396"
     sodipodi:linespacing="100%"
     inkscape:export-filename="/home/martin/src/dev/pics/pixelma/two/ipodcolor-front.png"
     inkscape:export-xdpi="72"
     inkscape:export-ydpi="72"><tspan
       sodipodi:role="line"
       id="tspan2398"
       x="-4616.0527"
       y="10566.115">Prev</tspan></text>
<text
     xml:space="preserve"
     style="font-size:790.222229px;font-style:normal;font-variant:normal;font-weight:normal;font-stretch:normal;text-align:start;line-height:100%;writing-mode:lr-tb;text-anchor:start;fill:#000000;fill-opacity:1;stroke:none;stroke-width:1px;stroke-linecap:butt;stroke-linejoin:miter;stroke-opacity:1;font-family:URW Palladio L"
     x="-4696.0635"
     y="15046.681"
     id="text2400"
     sodipodi:linespacing="100%"
     inkscape:export-filename="/home/martin/src/dev/pics/pixelma/two/ipodcolor-front.png"
     inkscape:export-xdpi="72"
     inkscape:export-ydpi="72"><tspan
       sodipodi:role="line"
       id="tspan2402"
       x="-4696.0635"
       y="15046.681">Play</tspan></text>
<text
     xml:space="preserve"
     style="font-size:790.222229px;font-style:normal;font-variant:normal;font-weight:normal;font-stretch:normal;text-align:start;line-height:100%;writing-mode:lr-tb;text-anchor:start;fill:#000000;fill-opacity:1;stroke:none;stroke-width:1px;stroke-linecap:butt;stroke-linejoin:miter;stroke-opacity:1;font-family:URW Palladio L"
     x="9865.7744"
     y="14913.33"
     id="text2404"
     sodipodi:linespacing="100%"
     inkscape:export-filename="/home/martin/src/dev/pics/pixelma/two/ipodcolor-front.png"
     inkscape:export-xdpi="72"
     inkscape:export-ydpi="72"><tspan
       sodipodi:role="line"
       id="tspan2406"
       x="9865.7744"
       y="14913.33">Select</tspan></text>
<text
     xml:space="preserve"
     style="font-size:790.222229px;font-style:normal;font-variant:normal;font-weight:normal;font-stretch:normal;text-align:start;line-height:100%;writing-mode:lr-tb;text-anchor:start;fill:#000000;fill-opacity:1;stroke:none;stroke-width:1px;stroke-linecap:butt;stroke-linejoin:miter;stroke-opacity:1;font-family:URW Palladio L"
     x="9705.7539"
     y="10592.785"
     id="text2408"
     sodipodi:linespacing="100%"
     inkscape:export-filename="/home/martin/src/dev/pics/pixelma/two/ipodcolor-front.png"
     inkscape:export-xdpi="72"
     inkscape:export-ydpi="72"><tspan
       sodipodi:role="line"
       id="tspan2410"
       x="9705.7539"
       y="10592.785">Next</tspan></text>
<text
     xml:space="preserve"
     style="font-size:790.222229px;font-style:normal;font-variant:normal;font-weight:normal;font-stretch:normal;text-align:start;line-height:100%;writing-mode:lr-tb;text-anchor:start;fill:#000000;fill-opacity:1;stroke:none;stroke-width:1px;stroke-linecap:butt;stroke-linejoin:miter;stroke-opacity:1;font-family:URW Palladio L"
     x="9759.0947"
     y="8059.1323"
     id="text2412"
     sodipodi:linespacing="100%"
     inkscape:export-filename="/home/martin/src/dev/pics/pixelma/two/ipodcolor-front.png"
     inkscape:export-xdpi="72"
     inkscape:export-ydpi="72"><tspan
       sodipodi:role="line"
       id="tspan2414"
       x="9759.0947"
       y="8059.1323">Scroll Fwd</tspan></text>
<text
     xml:space="preserve"
     style="font-size:790.222229px;font-style:normal;font-variant:normal;font-weight:normal;font-stretch:normal;text-align:start;line-height:100%;writing-mode:lr-tb;text-anchor:start;fill:#000000;fill-opacity:1;stroke:none;stroke-width:1px;stroke-linecap:butt;stroke-linejoin:miter;stroke-opacity:1;font-family:URW Palladio L"
     x="9652.4141"
     y="5845.5195"
     id="text2416"
     sodipodi:linespacing="100%"
     inkscape:export-filename="/home/martin/src/dev/pics/pixelma/two/ipodcolor-front.png"
     inkscape:export-xdpi="72"
     inkscape:export-ydpi="72"><tspan
       sodipodi:role="line"
       id="tspan2418"
       x="9652.4141"
       y="5845.5195">Menu</tspan></text>
<text
     xml:space="preserve"
     style="font-size:790.222229px;font-style:normal;font-variant:normal;font-weight:normal;font-stretch:normal;text-align:start;line-height:100%;writing-mode:lr-tb;text-anchor:start;fill:#000000;fill-opacity:1;stroke:none;stroke-width:1px;stroke-linecap:butt;stroke-linejoin:miter;stroke-opacity:1;font-family:URW Palladio L"
     x="1395.5337"
     y="-339.45428"
     id="text2420"
     sodipodi:linespacing="100%"
     inkscape:export-filename="/home/martin/src/dev/pics/pixelma/two/ipodcolor-front.png"
     inkscape:export-xdpi="72"
     inkscape:export-ydpi="72"><tspan
       sodipodi:role="line"
       id="tspan2422"
       x="1395.5337"
       y="-339.45428">Hold</tspan></text>
</g></svg>