<?xml version="1.0" encoding="UTF-8" standalone="no"?>
<!-- Creator: CorelDRAW -->
<svg
   xmlns:dc="http://purl.org/dc/elements/1.1/"
   xmlns:cc="http://web.resource.org/cc/"
   xmlns:rdf="http://www.w3.org/1999/02/22-rdf-syntax-ns#"
   xmlns:svg="http://www.w3.org/2000/svg"
   xmlns="http://www.w3.org/2000/svg"
   xmlns:xlink="http://www.w3.org/1999/xlink"
   xmlns:sodipodi="http://sodipodi.sourceforge.net/DTD/sodipodi-0.dtd"
   xmlns:inkscape="http://www.inkscape.org/namespaces/inkscape"
   xml:space="preserve"
   width="558.88831"
   height="532.13245"
   shape-rendering="geometricPrecision"
   text-rendering="geometricPrecision"
   image-rendering="optimizeQuality"
   fill-rule="evenodd"
   viewBox="0 0 9000 15200"
   id="svg2"
   sodipodi:version="0.32"
   inkscape:version="0.44"
   sodipodi:docname="iaudioM5_labelled.svg"
   sodipodi:docbase="C:\Dokumente und Einstellungen\Marianne\Eigene Dateien\Rockbox\Graphics\Vektor\Cowon"
   version="1.0"><metadata
   id="metadata261"><rdf:RDF><cc:Work
       rdf:about=""><dc:format>image/svg+xml</dc:format><dc:type
         rdf:resource="http://purl.org/dc/dcmitype/StillImage" /></cc:Work></rdf:RDF></metadata><defs
   id="defs259">
  <defs
   id="defs5">
   <linearGradient
   y2="5508.73"
   x2="8754.9404"
   y1="6612.9302"
   x1="8754.9404"
   gradientUnits="userSpaceOnUse"
   id="id0">
    <stop
   id="stop8"
   stop-color="#000000"
   offset="0" />
    <stop
   id="stop10"
   stop-color="#E8E8E8"
   offset="0.121569" />
    <stop
   id="stop12"
   stop-color="#D6D6D6"
   offset="0.2" />
    <stop
   id="stop14"
   stop-color="#D6D6D6"
   offset="0.8" />
    <stop
   id="stop16"
   stop-color="#E8E8E8"
   offset="0.878431" />
    <stop
   id="stop18"
   stop-color="#000000"
   offset="1" />
    <stop
   id="stop20"
   stop-color="#000000"
   offset="1" />
   </linearGradient>
   <linearGradient
   y2="3695.5601"
   x2="8754.9404"
   y1="4799.7598"
   x1="8754.9404"
   gradientUnits="userSpaceOnUse"
   id="id1">
    <stop
   id="stop23"
   stop-color="#000000"
   offset="0" />
    <stop
   id="stop25"
   stop-color="#E8E8E8"
   offset="0.121569" />
    <stop
   id="stop27"
   stop-color="#D6D6D6"
   offset="0.2" />
    <stop
   id="stop29"
   stop-color="#D6D6D6"
   offset="0.8" />
    <stop
   id="stop31"
   stop-color="#E8E8E8"
   offset="0.878431" />
    <stop
   id="stop33"
   stop-color="#000000"
   offset="1" />
    <stop
   id="stop35"
   stop-color="#000000"
   offset="1" />
   </linearGradient>
   <linearGradient
   y2="1334.45"
   x2="8754.9404"
   y1="2750.8501"
   x1="8754.9404"
   gradientUnits="userSpaceOnUse"
   id="id2">
    <stop
   id="stop38"
   stop-color="#000000"
   offset="0" />
    <stop
   id="stop40"
   stop-color="#E8E8E8"
   offset="0.121569" />
    <stop
   id="stop42"
   stop-color="#D6D6D6"
   offset="0.2" />
    <stop
   id="stop44"
   stop-color="#D6D6D6"
   offset="0.8" />
    <stop
   id="stop46"
   stop-color="#E8E8E8"
   offset="0.878431" />
    <stop
   id="stop48"
   stop-color="#000000"
   offset="1" />
    <stop
   id="stop50"
   stop-color="#000000"
   offset="1" />
   </linearGradient>
   <linearGradient
   y2="1931.96"
   x2="8851.2803"
   y1="2153.3401"
   x1="8851.2803"
   gradientUnits="userSpaceOnUse"
   id="id3">
    <stop
   id="stop53"
   stop-color="#333333"
   offset="0" />
    <stop
   id="stop55"
   stop-color="#E8E8E8"
   offset="0.501961" />
    <stop
   id="stop57"
   stop-color="#333333"
   offset="1" />
    <stop
   id="stop59"
   stop-color="#333333"
   offset="1" />
   </linearGradient>
   <linearGradient
   y2="334.16"
   x2="4403.6602"
   y1="100.02"
   x1="4403.6602"
   gradientUnits="userSpaceOnUse"
   id="id4">
    <stop
   id="stop62"
   stop-color="#1D1D1D"
   offset="0"
   style="stop-color:black;stop-opacity:1;" />
    <stop
   id="stop64"
   stop-color="#C9C9C9"
   offset="0.38039199"
   style="stop-color:#5e5e5e;stop-opacity:1;" />
    <stop
   id="stop66"
   stop-color="#C1C1C1"
   offset="1"
   style="stop-color:#505050;stop-opacity:1;" />
    <stop
   id="stop68"
   stop-color="#C1C1C1"
   offset="1" />
   </linearGradient>
   <radialGradient
   fy="8098.9321"
   fx="6822.7549"
   r="1686.5"
   cy="8098.9321"
   cx="6822.7549"
   gradientUnits="userSpaceOnUse"
   id="id5">
    <stop
   id="stop71"
   stop-color="#FFFFFF"
   offset="0"
   style="stop-color:black;stop-opacity:1;" />
    <stop
   id="stop73"
   stop-color="#474747"
   offset="0.62090588"
   style="stop-color:#ececec;stop-opacity:1;" />
    <stop
   id="stop75"
   stop-color="#1C1C1C"
   offset="0.65071398"
   style="stop-color:#e0e0e4;stop-opacity:1;" />
    <stop
   id="stop77"
   stop-color="#000000"
   offset="0.67790729"
   style="stop-color:#c5c5c6;stop-opacity:1;" /><stop
   style="stop-color:#a4a4a9;stop-opacity:1;"
   offset="0.78133154"
   stop-color="#000000"
   id="stop8458" />
    <stop
   id="stop79"
   stop-color="#171717"
   offset="1"
   style="stop-color:#d5d5d5;stop-opacity:1;" />
    <stop
   id="stop81"
   stop-color="#171717"
   offset="1"
   style="stop-color:#dadada;stop-opacity:1;" />
   </radialGradient>
   <linearGradient
   y2="215.97"
   x2="4403.6499"
   y1="7309.4902"
   x1="4403.6499"
   gradientUnits="userSpaceOnUse"
   id="id6"
   gradientTransform="matrix(1,0,0,0.991702,0,1.792085)">
    <stop
   id="stop84"
   stop-color="#333333"
   offset="0"
   style="stop-color:#edeff1;stop-opacity:1;" />
    <stop
   id="stop86"
   stop-color="#333333"
   offset="0.89019603"
   style="stop-color:#edeef1;stop-opacity:1;" />
    <stop
   id="stop88"
   stop-color="#3D3D3D"
   offset="0.92156899"
   style="stop-color:#f9f9f9;stop-opacity:1;" />
    <stop
   id="stop90"
   stop-color="#000000"
   offset="1"
   style="stop-color:#696969;stop-opacity:1;" />
    <stop
   id="stop92"
   stop-color="#000000"
   offset="1" />
   </linearGradient>
   <linearGradient
   y2="10255.4"
   x2="4403.6499"
   y1="7309.48"
   x1="4403.6499"
   gradientUnits="userSpaceOnUse"
   id="id7"
   gradientTransform="matrix(1,0,0,1.022848,0,-234.3214)"
   xlink:href="#id8"
   spreadMethod="reflect">
    <stop
   id="stop95"
   stop-color="#333333"
   offset="0"
   style="stop-color:#edeff1;stop-opacity:1;" />
    <stop
   id="stop97"
   stop-color="#171717"
   offset="0.46979991"
   style="stop-color:#a8a8a8;stop-opacity:1;" />
    <stop
   id="stop99"
   stop-color="#000000"
   offset="0.55661076"
   style="stop-color:#a5a5a5;stop-opacity:1;" />
    <stop
   id="stop101"
   stop-color="#171717"
   offset="0.93898314"
   style="stop-color:#e1e2e5;stop-opacity:1;" />
    <stop
   id="stop103"
   stop-color="#171717"
   offset="1"
   style="stop-color:#e1e2e5;stop-opacity:1;" />
   </linearGradient>
   <linearGradient
   y2="10255.5"
   x2="8254.4199"
   y1="215.97"
   x1="8254.4199"
   gradientUnits="userSpaceOnUse"
   id="id8">
    <stop
   id="stop106"
   stop-color="#1F1F1F"
   offset="0" />
    <stop
   id="stop108"
   stop-color="#545454"
   offset="0.0509804" />
    <stop
   id="stop110"
   stop-color="#525252"
   offset="0.109804" />
    <stop
   id="stop112"
   stop-color="#525252"
   offset="0.709804" />
    <stop
   id="stop114"
   stop-color="#1F1F1F"
   offset="0.870588" />
    <stop
   id="stop116"
   stop-color="#171717"
   offset="1" />
    <stop
   id="stop118"
   stop-color="#171717"
   offset="1" />
   </linearGradient>
   <linearGradient
   y2="10255.5"
   x2="552.88"
   y1="215.97"
   x1="552.88"
   gradientUnits="userSpaceOnUse"
   id="id9">
    <stop
   id="stop121"
   stop-color="#1F1F1F"
   offset="0"
   style="stop-color:#a8a8a8;stop-opacity:1;" />
    <stop
   id="stop123"
   stop-color="#545454"
   offset="0.0509804"
   style="stop-color:#efefef;stop-opacity:1;" />
    <stop
   id="stop125"
   stop-color="#525252"
   offset="0.109804"
   style="stop-color:#f6f8fb;stop-opacity:1;" />
    <stop
   id="stop127"
   stop-color="#525252"
   offset="0.709804"
   style="stop-color:#f6f7fb;stop-opacity:1;" />
    <stop
   id="stop129"
   stop-color="#1F1F1F"
   offset="0.870588"
   style="stop-color:#dbdce3;stop-opacity:1;" />
    <stop
   id="stop131"
   stop-color="#171717"
   offset="1"
   style="stop-color:#e1e2e5;stop-opacity:1;" />
    <stop
   id="stop133"
   stop-color="#171717"
   offset="1"
   style="stop-color:#e1e2e5;stop-opacity:1;" />
   </linearGradient>
   <radialGradient
   fy="8094.8198"
   fx="6822.75"
   r="517.62"
   cy="8094.8198"
   cx="6822.75"
   gradientUnits="userSpaceOnUse"
   id="id10">
    <stop
   id="stop136"
   stop-color="#9B9B9B"
   offset="0" />
    <stop
   id="stop138"
   stop-color="#999999"
   offset="0.678431" />
    <stop
   id="stop140"
   stop-color="#292929"
   offset="1" />
    <stop
   id="stop142"
   stop-color="#292929"
   offset="1" />
   </radialGradient>
   <linearGradient
   y2="2267.0801"
   x2="1884.64"
   y1="5720.0601"
   x1="1582.64"
   gradientUnits="userSpaceOnUse"
   id="id11">
    <stop
   id="stop145"
   stop-color="#8091AD"
   offset="0"
   style="stop-color:#8192ae;stop-opacity:1;" />
    <stop
   id="stop147"
   stop-color="#B4E9ED"
   offset="0.239216" />
    <stop
   id="stop149"
   stop-color="#D4D4D4"
   offset="0.411765" />
    <stop
   id="stop151"
   stop-color="#DEDEDE"
   offset="0.541176" />
    <stop
   id="stop153"
   stop-color="#F0D1EA"
   offset="0.65098" />
    <stop
   id="stop155"
   stop-color="#F59F8E"
   offset="0.8" />
    <stop
   id="stop157"
   stop-color="#F6F7D2"
   offset="1" />
    
   </linearGradient>
  </defs>
  
  
  
  
  
  
  
  
  
  
  
  
  
  
  
  
  
  
  
  
  
  
  
  
  
  
  
  
  
  
  
  
  
  
  
  
  
  
  
  
  
  
 <linearGradient
   inkscape:collect="always"
   xlink:href="#id9"
   id="linearGradient7571"
   gradientUnits="userSpaceOnUse"
   x1="8254.4199"
   y1="215.97"
   x2="8254.4199"
   y2="10255.5" />
  <defs
   id="defs5585">
   <linearGradient
   y2="2330.49"
   x2="1944.9"
   y1="5662.77"
   x1="1653.4399"
   gradientUnits="userSpaceOnUse"
   id="linearGradient5618">
    <stop
   id="stop5588"
   stop-color="#8091AD"
   offset="0" />
    <stop
   id="stop5590"
   stop-color="#B4E9ED"
   offset="0.239216" />
    <stop
   id="stop5592"
   stop-color="#D4D4D4"
   offset="0.411765" />
    <stop
   id="stop5594"
   stop-color="#DEDEDE"
   offset="0.541176" />
    <stop
   id="stop5596"
   stop-color="#F0D1EA"
   offset="0.65098" />
    <stop
   id="stop5598"
   stop-color="#F59F8E"
   offset="0.8" />
    <stop
   id="stop5600"
   stop-color="#F6F7D2"
   offset="1" />
    <stop
   id="stop5602"
   stop-color="#F6F7D2"
   offset="1" />
   </linearGradient>
  </defs>
  
  
 <linearGradient
   inkscape:collect="always"
   xlink:href="#id11"
   id="linearGradient9070"
   gradientUnits="userSpaceOnUse"
   gradientTransform="translate(-68.24013,-24.9308)"
   x1="1582.64"
   y1="5720.0601"
   x2="1884.64"
   y2="2267.0801" /><linearGradient
   inkscape:collect="always"
   xlink:href="#id0"
   id="linearGradient10683"
   gradientUnits="userSpaceOnUse"
   x1="8754.9404"
   y1="6612.9302"
   x2="8754.9404"
   y2="5508.73" /><linearGradient
   inkscape:collect="always"
   xlink:href="#id1"
   id="linearGradient10685"
   gradientUnits="userSpaceOnUse"
   x1="8754.9404"
   y1="4799.7598"
   x2="8754.9404"
   y2="3695.5601" /><linearGradient
   inkscape:collect="always"
   xlink:href="#id2"
   id="linearGradient10687"
   gradientUnits="userSpaceOnUse"
   x1="8754.9404"
   y1="2750.8501"
   x2="8754.9404"
   y2="1334.45" /><linearGradient
   inkscape:collect="always"
   xlink:href="#id3"
   id="linearGradient10689"
   gradientUnits="userSpaceOnUse"
   x1="8851.2803"
   y1="2153.3401"
   x2="8851.2803"
   y2="1931.96" /><linearGradient
   inkscape:collect="always"
   xlink:href="#id0"
   id="linearGradient2045"
   gradientUnits="userSpaceOnUse"
   x1="8754.9404"
   y1="6612.9302"
   x2="8754.9404"
   y2="5508.73" /><linearGradient
   inkscape:collect="always"
   xlink:href="#id1"
   id="linearGradient2047"
   gradientUnits="userSpaceOnUse"
   x1="8754.9404"
   y1="4799.7598"
   x2="8754.9404"
   y2="3695.5601" /><linearGradient
   inkscape:collect="always"
   xlink:href="#id2"
   id="linearGradient2049"
   gradientUnits="userSpaceOnUse"
   x1="8754.9404"
   y1="2750.8501"
   x2="8754.9404"
   y2="1334.45" /><linearGradient
   inkscape:collect="always"
   xlink:href="#id3"
   id="linearGradient2051"
   gradientUnits="userSpaceOnUse"
   x1="8851.2803"
   y1="2153.3401"
   x2="8851.2803"
   y2="1931.96" /><linearGradient
   inkscape:collect="always"
   xlink:href="#id9"
   id="linearGradient2053"
   gradientUnits="userSpaceOnUse"
   x1="552.88"
   y1="215.97"
   x2="552.88"
   y2="10255.5" /></defs><sodipodi:namedview
   inkscape:window-height="808"
   inkscape:window-width="1152"
   inkscape:pageshadow="2"
   inkscape:pageopacity="0.0"
   guidetolerance="10.0"
   gridtolerance="10.0"
   objecttolerance="10.0"
   borderopacity="1.0"
   bordercolor="#666666"
   pagecolor="#ffffff"
   id="base"
   inkscape:zoom="1.1363157"
   inkscape:cx="159.44882"
   inkscape:cy="269.29135"
   inkscape:window-x="-4"
   inkscape:window-y="-4"
   inkscape:current-layer="svg2" />
 <path
   style="fill:none"
   id="path203"
   d="M 7189.7457,250.63808 L 7189.7457,9205.1981" /><path
   style="fill:none"
   id="path205"
   d="M -511.79468,250.63808 L -511.79468,9205.1981" />
 <g
   id="Haupt_x0020_Desktop"
   transform="translate(-1064.674,34.66808)">
 </g>
<g
   style="fill-rule:evenodd"
   id="g5630"
   transform="translate(7853.784,-322.3394)">
 </g><g
   id="g10691"
   transform="translate(-1064.674,34.66808)"><path
     d="M 8798.19,5645.8 C 8784.62,5592.09 8754.33,5544.09 8711.69,5508.73 L 8711.69,6612.93 C 8754.33,6577.57 8784.62,6529.57 8798.19,6475.86 L 8798.19,5645.8 L 8798.19,5645.8 L 8798.19,5645.8 L 8798.19,5645.8 L 8798.19,5645.8 L 8798.19,5645.8 L 8798.19,5645.8 L 8798.19,5645.8 z "
     id="path161"
     style="fill:url(#linearGradient2045);stroke:black;stroke-width:18;stroke-linejoin:bevel" /><path
     d="M 8798.19,3832.63 C 8784.62,3778.93 8754.33,3730.92 8711.69,3695.56 L 8711.69,4799.76 C 8754.33,4764.4 8784.62,4716.4 8798.19,4662.69 L 8798.19,3832.63 L 8798.19,3832.63 L 8798.19,3832.63 L 8798.19,3832.63 L 8798.19,3832.63 L 8798.19,3832.63 L 8798.19,3832.63 L 8798.19,3832.63 z "
     id="path163"
     style="fill:url(#linearGradient2047);stroke:black;stroke-width:18;stroke-linejoin:bevel" /><path
     d="M 8798.19,1471.52 C 8784.62,1417.81 8754.33,1369.81 8711.69,1334.45 L 8711.69,2750.85 C 8754.33,2715.49 8784.62,2667.49 8798.19,2613.78 L 8798.19,1471.52 L 8798.19,1471.52 L 8798.19,1471.52 L 8798.19,1471.52 L 8798.19,1471.52 L 8798.19,1471.52 L 8798.19,1471.52 L 8798.19,1471.52 z "
     id="path165"
     style="fill:url(#linearGradient2049);stroke:black;stroke-width:18;stroke-linejoin:bevel" /><path
     d="M 8798.19,1931.96 L 8889.92,1931.96 C 8893.75,1931.96 8897.43,1933.48 8900.15,1936.19 C 8902.86,1938.91 8904.38,1942.59 8904.38,1946.42 L 8904.38,2138.88 C 8904.38,2146.86 8897.91,2153.34 8889.92,2153.34 L 8798.19,2153.34 L 8798.19,1931.96 z "
     id="path167"
     style="fill:url(#linearGradient2051);stroke:black;stroke-width:0;stroke-linejoin:bevel" /><path
     d="M 5414.37,173.07 C 5466.17,142.26 5523.8,122.53 5583.61,115.13 C 5661.48,106.45 5739.7,101.4 5818.04,100.02 L 2989.27,100.02 C 3067.6,101.4 3145.83,106.45 3223.69,115.13 C 3283.51,122.53 3341.13,142.26 3392.93,173.07 C 3433.92,195.56 3474.11,219.49 3513.42,244.79 C 3551.41,266.63 3591.19,285.16 3632.34,300.2 C 3689.74,318.27 3749.04,329.67 3809.05,334.16 L 4998.26,334.16 C 5058.27,329.67 5117.56,318.27 5174.96,300.2 C 5216.11,285.16 5255.9,266.63 5293.88,244.79 C 5333.2,219.49 5373.38,195.56 5414.37,173.07 z "
     id="path169"
     style="fill:url(#id4);stroke:black;stroke-width:0;stroke-linejoin:bevel" /><path
     d="M 5150.17,100.02 L 3657.13,100.02 L 3740.12,163.02 C 3775.14,183.56 3814.87,194.7 3855.46,195.35 L 4951.84,195.35 C 4992.43,194.7 5032.17,183.56 5067.18,163.02 L 5150.17,100.02 L 5150.17,100.02 L 5150.17,100.02 L 5150.17,100.02 L 5150.17,100.02 L 5150.17,100.02 L 5150.17,100.02 L 5150.17,100.02 z "
     id="path171"
     style="fill:#eb7373;stroke:black;stroke-width:18;stroke-linejoin:bevel" /><path
     d="M 8711.69,534.02 C 8711.69,294.33 8517.38,100.02 8277.69,100.02 L 5818.04,100.02 C 5739.7,101.4 5661.48,106.45 5583.61,115.13 C 5523.8,122.53 5466.17,142.26 5414.37,173.07 C 5373.38,195.56 5333.2,219.49 5293.88,244.79 C 5255.9,266.63 5216.11,285.16 5174.96,300.2 C 5117.56,318.27 5058.27,329.67 4998.26,334.16 L 3809.05,334.16 C 3749.04,329.67 3689.74,318.27 3632.34,300.2 C 3591.19,285.16 3551.41,266.63 3513.42,244.79 C 3474.11,219.49 3433.92,195.56 3392.93,173.07 C 3341.13,142.26 3283.51,122.53 3223.69,115.13 C 3145.83,106.45 3067.6,101.4 2989.27,100.02 L 529.62,100.02 C 289.92,100.02 95.62,294.33 95.62,534.02 L 95.62,14412.82 C 95.62,14792.33 403.27,15099.98 782.78,15099.98 L 8024.52,15099.98 C 8404.03,15099.98 8711.69,14792.33 8711.69,14412.82 L 8711.69,534.02 L 8711.69,534.02 L 8711.69,534.02 L 8711.69,534.02 L 8711.69,534.02 L 8711.69,534.02 L 8711.69,534.02 L 8711.69,534.02 z "
     id="path173"
     style="fill:#383838;stroke:black;stroke-width:18;stroke-linejoin:bevel" /><path
     d="M 8595.74,534.02 C 8595.74,449.66 8562.23,368.77 8502.59,309.12 C 8442.94,249.47 8362.04,215.97 8277.69,215.97 L 5750.35,215.97 C 5620.5,215.99 5492.85,249.48 5379.72,313.21 C 5359.83,324.41 5341.22,337.76 5324.23,353 C 5276.63,395.71 5219.04,425.75 5156.77,440.33 C 5076.33,462.84 4993.12,473.86 4909.59,473.07 L 3897.71,473.07 C 3814.19,473.86 3730.97,462.84 3650.53,440.33 C 3588.27,425.75 3530.68,395.71 3483.08,353 C 3466.09,337.76 3447.48,324.41 3427.59,313.21 C 3314.45,249.48 3186.8,215.99 3056.95,215.97 L 529.62,215.97 C 445.26,215.97 364.37,249.47 304.72,309.12 C 245.07,368.77 211.56,449.66 211.56,534.02 L 211.56,14412.82 C 211.56,14728.29 467.31,14984.03 782.78,14984.03 L 8024.52,14984.03 C 8176.02,14984.03 8321.31,14923.85 8428.43,14816.73 C 8535.56,14709.6 8595.74,14564.31 8595.74,14412.82 L 8595.74,534.02 L 8595.74,534.02 L 8595.74,534.02 L 8595.74,534.02 L 8595.74,534.02 L 8595.74,534.02 L 8595.74,534.02 L 8595.74,534.02 z "
     id="path175"
     style="fill:#9c9fa1;stroke:#afb2b3;stroke-width:15;stroke-linejoin:bevel" /><path
     d="M 8358.96,226.52 C 8332.44,219.51 8305.12,215.97 8277.69,215.97 L 5750.35,215.97 C 5620.5,215.99 5492.85,249.48 5379.72,313.21 C 5359.83,324.41 5341.22,337.76 5324.23,353 C 5276.63,395.71 5219.04,425.75 5156.77,440.33 C 5076.33,462.84 4993.12,473.86 4909.59,473.07 L 3897.71,473.07 C 3814.19,473.86 3730.97,462.84 3650.53,440.33 C 3588.27,425.75 3530.68,395.71 3483.08,353 C 3466.09,337.76 3447.48,324.41 3427.59,313.21 C 3314.45,249.48 3186.8,215.99 3056.95,215.97 L 529.62,215.97 C 502.18,215.97 474.87,219.51 448.35,226.52 L 448.35,14412.82 C 448.35,14597.52 598.08,14747.25 782.78,14747.25 L 8024.52,14747.25 C 8113.22,14747.25 8198.29,14712.01 8261,14649.3 C 8323.72,14586.58 8358.96,14501.51 8358.96,14412.82 L 8358.96,226.52 L 8358.96,226.52 L 8358.96,226.52 L 8358.96,226.52 L 8358.96,226.52 L 8358.96,226.52 L 8358.96,226.52 L 8358.96,226.52 z "
     id="path177"
     style="fill:#e1e2e5;stroke:#ebebeb;stroke-width:15;stroke-linejoin:bevel" /><path
     d="M 5132.88,11940.5 C 5132.88,12045.1 5248.42,12129.9 5390.95,12129.9 C 5533.48,12129.9 5649.02,12045.1 5649.02,11940.5 C 5649.02,11835.89 5533.48,11751.09 5390.95,11751.09 C 5248.42,11751.09 5132.88,11835.89 5132.88,11940.5 z "
     id="path179"
     style="fill:#bcc4d1;stroke:#e8eef7;stroke-width:15;stroke-linejoin:bevel" /><path
     d="M 4970.26,12108.1 L 4970.26,11772.93 C 4970.26,11769.09 4971.78,11765.41 4974.5,11762.7 C 4977.21,11759.99 4980.89,11758.46 4984.73,11758.46 L 5070.58,11758.46 C 5078.57,11758.46 5085.05,11764.94 5085.05,11772.93 L 5085.05,12108.1 C 5085.05,12116.09 5078.57,12122.57 5070.58,12122.57 L 4984.73,12122.57 C 4980.89,12122.57 4977.21,12121.05 4974.5,12118.33 C 4971.78,12115.62 4970.26,12111.94 4970.26,12108.1 z "
     id="path181"
     style="fill:#bcc4d1;stroke:#e8eef7;stroke-width:15;stroke-linejoin:bevel" /><path
     d="M 4702.14,12122.6 L 4489.95,12122.6 C 4481.96,12122.6 4475.49,12116.12 4475.49,12108.13 L 4475.49,11772.96 C 4475.49,11764.97 4481.96,11758.49 4489.95,11758.49 L 4702.14,11758.49 C 4823.8,11758.49 4922.43,11840 4922.43,11940.55 C 4922.43,12041.09 4823.8,12122.6 4702.14,12122.6 z "
     id="path183"
     style="fill:#bcc4d1;stroke:#e8eef7;stroke-width:15;stroke-linejoin:bevel" /><path
     d="M 4312.88,11772.9 L 4312.88,11970.86 C 4312.88,12009.34 4264.22,12040.52 4204.2,12040.52 C 4144.17,12040.52 4095.51,12009.34 4095.51,11970.86 L 4095.51,11772.9 C 4095.51,11764.91 4089.03,11758.43 4081.04,11758.43 L 3995.19,11758.43 C 3987.2,11758.43 3980.72,11764.91 3980.72,11772.9 L 3980.72,11970.86 C 3980.72,12058.69 4080.78,12129.89 4204.2,12129.89 C 4327.61,12129.89 4427.67,12058.69 4427.67,11970.86 L 4427.67,11772.9 C 4427.67,11764.91 4421.19,11758.43 4413.2,11758.43 L 4327.35,11758.43 C 4319.36,11758.43 4312.88,11764.91 4312.88,11772.9 L 4312.88,11772.9 L 4312.88,11772.9 L 4312.88,11772.9 L 4312.88,11772.9 L 4312.88,11772.9 L 4312.88,11772.9 L 4312.88,11772.9 z "
     id="path185"
     style="fill:#bcc4d1;stroke:#e8eef7;stroke-width:15;stroke-linejoin:bevel" /><path
     d="M 3804.18,11766.2 L 3980.64,12101.37 C 3983.01,12105.86 3982.85,12111.25 3980.23,12115.59 C 3977.61,12119.93 3972.91,12122.58 3967.84,12122.58 L 3870.82,12122.58 C 3865.45,12122.58 3860.52,12119.61 3858.02,12114.85 L 3748.05,11905.98 C 3745.55,11901.23 3740.62,11898.25 3735.25,11898.25 C 3729.88,11898.25 3724.95,11901.23 3722.45,11905.98 L 3612.48,12114.85 C 3609.97,12119.61 3605.04,12122.58 3599.67,12122.58 L 3502.65,12122.58 C 3497.58,12122.58 3492.88,12119.93 3490.26,12115.59 C 3487.65,12111.25 3487.49,12105.86 3489.85,12101.37 L 3666.32,11766.2 C 3668.82,11761.45 3673.75,11758.47 3679.12,11758.47 L 3791.38,11758.47 L 3791.38,11758.47 C 3796.75,11758.47 3801.67,11761.45 3804.18,11766.2 L 3804.18,11766.2 L 3804.18,11766.2 L 3804.18,11766.2 L 3804.18,11766.2 L 3804.18,11766.2 L 3804.18,11766.2 L 3804.18,11766.2 z "
     id="path187"
     style="fill:#bcc4d1;stroke:#e8eef7;stroke-width:15;stroke-linejoin:bevel" /><path
     d="M 3224.63,11711.8 L 3354.86,11711.8 C 3362.85,11711.8 3369.32,11718.28 3369.32,11726.27 L 3369.32,12108.13 C 3369.32,12111.97 3367.8,12115.65 3365.09,12118.36 C 3362.37,12121.08 3358.69,12122.6 3354.86,12122.6 L 3224.63,12122.6 C 3216.64,12122.6 3210.17,12116.12 3210.17,12108.13 L 3210.17,11726.27 C 3210.17,11718.28 3216.64,11711.8 3224.63,11711.8 z "
     id="path189"
     style="fill:#bcc4d1;stroke:#e8eef7;stroke-width:15;stroke-linejoin:bevel" /><path
     d="M 3421.2,11449 C 3421.2,11376.39 3362.35,11317.54 3289.74,11317.54 C 3217.14,11317.54 3158.29,11376.39 3158.29,11449 C 3158.29,11521.6 3217.14,11580.45 3289.74,11580.45 C 3362.35,11580.45 3421.2,11521.6 3421.2,11449 z "
     id="path191"
     style="fill:#bcc4d1;stroke:#e8eef7;stroke-width:15;stroke-linejoin:bevel" /><path
     d="M 5247.66,11940.5 C 5247.66,11994.84 5311.81,12038.9 5390.95,12038.9 C 5470.08,12038.9 5534.23,11994.84 5534.23,11940.5 C 5534.23,11886.15 5470.08,11842.09 5390.95,11842.09 C 5311.81,11842.09 5247.66,11886.15 5247.66,11940.5 z "
     id="path193"
     style="fill:#e1e2e5;stroke:#e8eef7;stroke-width:15;stroke-linejoin:bevel" /><path
     d="M 4590.27,12024.5 C 4590.27,12032.49 4596.75,12038.96 4604.74,12038.96 L 4702.14,12038.96 C 4760.41,12038.96 4807.64,11994.9 4807.64,11940.56 C 4807.64,11886.21 4760.41,11842.15 4702.14,11842.15 L 4604.74,11842.15 C 4600.9,11842.15 4597.21,11843.68 4594.51,11846.39 C 4591.81,11849.09 4590.27,11852.78 4590.27,11856.61 L 4590.27,12024.5 L 4590.27,12024.5 L 4590.27,12024.5 L 4590.27,12024.5 L 4590.27,12024.5 L 4590.27,12024.5 L 4590.27,12024.5 L 4590.27,12024.5 L 4590.27,12024.5 z "
     id="path195"
     style="fill:#e1e2e5;stroke:#e8eef7;stroke-width:15;stroke-linejoin:bevel" /><path
     d="M 8029.32,6413.83 L 5616.19,6413.83 L 5616.19,10002.13 L 8029.32,10002.13 L 8029.32,6413.83 L 8029.32,6413.83 L 8029.32,6413.83 z "
     id="path197"
     style="fill:url(#id5);stroke:black;stroke-width:0;stroke-linejoin:bevel" /><path
     d="M 8254.42,215.97 L 5750.35,215.97 C 5620.5,215.98983 5492.85,249.20193 5379.72,312.40311 C 5359.83,323.51017 5341.22,336.7494 5324.23,351.86294 C 5276.63,394.21853 5219.04,424.00927 5156.77,438.46829 C 5076.33,460.7915 4993.12,471.72006 4909.59,470.93661 L 3897.71,470.93661 C 3814.19,471.72006 3730.97,460.7915 3650.53,438.46829 C 3588.27,424.00927 3530.68,394.21853 3483.08,351.86294 C 3466.09,336.7494 3447.48,323.51017 3427.59,312.40311 C 3314.45,249.20193 3186.8,215.98983 3056.95,215.97 L 552.88,215.97 L 552.88,7250.619 L 6083.43,7250.619 C 6518.14,6914.7989 7127.35,6914.7989 7562.07,7250.619 L 8254.42,7250.619 L 8254.42,215.97 L 8254.42,215.97 L 8254.42,215.97 L 8254.42,215.97 L 8254.42,215.97 L 8254.42,215.97 L 8254.42,215.97 L 8254.42,215.97 z "
     id="path199"
     style="fill:url(#id6)" /><path
     d="M 8254.42,7242.1692 L 8254.42,10255.44 L 552.88,10255.44 L 552.88,7242.1692 L 6083.43,7242.1692 C 6061.57,7259.5986 6040.29,7277.7848 6019.66,7296.7178 C 5813.27,7485.9754 5677.54,7742.6592 5635.64,8022.9197 C 5537.86,8677.0825 5812.93,9331.0816 6344.5,9708.2979 C 6632.11,9912.3971 7013.38,9912.3971 7301,9708.2979 C 7832.57,9331.0816 8107.64,8677.0825 8009.85,8022.9197 C 7967.96,7742.6592 7832.23,7485.9754 7625.84,7296.7178 C 7605.21,7277.7848 7583.93,7259.5986 7562.07,7242.1692 L 8254.42,7242.1692 L 8254.42,7242.1692 L 8254.42,7242.1692 L 8254.42,7242.1692 L 8254.42,7242.1692 L 8254.42,7242.1692 L 8254.42,7242.1692 L 8254.42,7242.1692 z "
     id="path201"
     style="fill:url(#id7);fill-opacity:1" /><path
     d="M 8279.42,215.97 L 8279.42,10255.47 L 8229.42,10255.47 L 8229.42,215.97 L 8279.42,215.97 L 8279.42,215.97 L 8279.42,215.97 L 8279.42,215.97 L 8279.42,215.97 L 8279.42,215.97 L 8279.42,215.97 L 8279.42,215.97 L 8279.42,215.97 z "
     id="path207"
     style="fill:url(#linearGradient7571);fill-opacity:1" /><path
     d="M 577.88,215.97 L 577.88,10255.47 L 527.88,10255.47 L 527.88,215.97 L 577.88,215.97 L 577.88,215.97 L 577.88,215.97 L 577.88,215.97 L 577.88,215.97 L 577.88,215.97 L 577.88,215.97 L 577.88,215.97 L 577.88,215.97 z "
     id="path209"
     style="fill:url(#linearGradient2053)" /><path
     d="M 7800.11,8094.81 C 7800.11,7555.04 7362.53,7117.46 6822.75,7117.46 C 6282.97,7117.46 5845.39,7555.04 5845.39,8094.81 C 5845.39,8634.6 6282.97,9072.18 6822.75,9072.18 C 7362.53,9072.18 7800.11,8634.6 7800.11,8094.81 L 7800.11,8094.81 z "
     id="path211"
     style="fill:#e8e8e8;stroke:#1d1e20;stroke-width:15;stroke-linejoin:bevel;stroke-opacity:1" /><path
     d="M 6107.83,8126.03 L 6204.37,8181.77 C 6206.61,8183.06 6209.37,8183.06 6211.6,8181.77 C 6213.84,8180.48 6215.22,8178.09 6215.22,8175.51 L 6215.22,8014.1 C 6215.22,8011.52 6213.84,8009.13 6211.6,8007.84 C 6209.37,8006.55 6206.61,8006.55 6204.37,8007.84 L 6107.83,8063.58 C 6105.59,8064.87 6102.83,8064.87 6100.59,8063.58 C 6098.36,8062.29 6096.98,8059.9 6096.98,8057.31 L 6096.98,8014.1 C 6096.98,8011.52 6095.6,8009.13 6093.36,8007.84 C 6091.12,8006.55 6088.37,8006.55 6086.13,8007.84 L 5946.35,8088.54 C 5944.11,8089.83 5942.73,8092.22 5942.73,8094.81 C 5942.73,8097.39 5944.11,8099.78 5946.35,8101.07 L 6086.13,8181.77 C 6088.37,8183.06 6091.12,8183.06 6093.36,8181.77 C 6095.6,8180.48 6096.98,8178.09 6096.98,8175.51 L 6096.98,8132.3 C 6096.98,8129.71 6098.36,8127.33 6100.59,8126.03 C 6102.83,8124.74 6105.59,8124.74 6107.83,8126.03 L 6107.83,8126.03 L 6107.83,8126.03 L 6107.83,8126.03 L 6107.83,8126.03 L 6107.83,8126.03 L 6107.83,8126.03 L 6107.83,8126.03 z "
     id="path213"
     style="fill:#787878;stroke:black;stroke-width:18;stroke-linejoin:bevel" /><path
     d="M 6686.41,8832.16 L 6686.41,8852.45 C 6686.41,8854.37 6687.17,8856.21 6688.53,8857.57 C 6689.88,8858.92 6691.72,8859.68 6693.64,8859.68 L 6951.86,8859.68 C 6955.85,8859.68 6959.09,8856.45 6959.09,8852.45 L 6959.09,8832.16 C 6959.09,8828.17 6955.85,8824.93 6951.86,8824.93 L 6693.64,8824.93 C 6689.65,8824.93 6686.41,8828.17 6686.41,8832.16 L 6686.41,8832.16 L 6686.41,8832.16 L 6686.41,8832.16 L 6686.41,8832.16 L 6686.41,8832.16 L 6686.41,8832.16 L 6686.41,8832.16 z "
     id="path215"
     style="fill:#787878;stroke:black;stroke-width:18;stroke-linejoin:bevel" /><path
     d="M 7537.77,8063.59 L 7441.23,8007.85 C 7438.99,8006.56 7436.23,8006.56 7434,8007.85 C 7431.76,8009.14 7430.38,8011.53 7430.38,8014.11 L 7430.38,8175.52 C 7430.38,8178.1 7431.76,8180.49 7434,8181.78 C 7436.23,8183.07 7438.99,8183.07 7441.23,8181.78 L 7537.77,8126.04 C 7540.01,8124.75 7542.77,8124.75 7545.01,8126.04 C 7547.24,8127.33 7548.62,8129.72 7548.62,8132.31 L 7548.62,8175.52 C 7548.62,8178.1 7550,8180.49 7552.24,8181.78 C 7554.48,8183.07 7557.23,8183.07 7559.47,8181.78 L 7699.25,8101.08 C 7701.49,8099.79 7702.87,8097.4 7702.87,8094.81 C 7702.87,8092.23 7701.49,8089.84 7699.25,8088.55 L 7559.47,8007.85 C 7557.23,8006.56 7554.48,8006.56 7552.24,8007.85 C 7550,8009.14 7548.62,8011.53 7548.62,8014.11 L 7548.62,8057.32 C 7548.62,8059.91 7547.24,8062.29 7545.01,8063.59 C 7542.77,8064.88 7540.01,8064.88 7537.77,8063.59 L 7537.77,8063.59 L 7537.77,8063.59 L 7537.77,8063.59 L 7537.77,8063.59 L 7537.77,8063.59 L 7537.77,8063.59 L 7537.77,8063.59 z "
     id="path217"
     style="fill:#787878;stroke:black;stroke-width:18;stroke-linejoin:bevel" /><path
     d="M 6847.36,7364.71 C 6845.44,7364.71 6843.6,7365.47 6842.25,7366.83 C 6840.89,7368.18 6840.13,7370.02 6840.13,7371.94 L 6840.13,7476.44 C 6840.13,7480.44 6836.89,7483.67 6832.89,7483.67 L 6812.61,7483.67 C 6808.61,7483.67 6805.37,7480.44 6805.37,7476.44 L 6805.37,7371.94 C 6805.37,7370.02 6804.61,7368.18 6803.25,7366.83 C 6801.9,7365.47 6800.06,7364.71 6798.14,7364.71 L 6693.64,7364.71 C 6691.72,7364.71 6689.88,7363.95 6688.53,7362.59 C 6687.17,7361.23 6686.41,7359.39 6686.41,7357.48 L 6686.41,7337.19 C 6686.41,7333.19 6689.65,7329.95 6693.64,7329.95 L 6798.14,7329.95 C 6800.06,7329.95 6801.9,7329.19 6803.25,7327.84 C 6804.61,7326.48 6805.37,7324.64 6805.37,7322.72 L 6805.37,7218.22 C 6805.37,7214.23 6808.61,7210.99 6812.61,7210.99 L 6832.89,7210.99 C 6836.89,7210.99 6840.13,7214.23 6840.13,7218.22 L 6840.13,7322.72 C 6840.13,7326.72 6843.37,7329.95 6847.36,7329.95 L 6951.86,7329.95 C 6955.85,7329.95 6959.09,7333.19 6959.09,7337.19 L 6959.09,7357.48 C 6959.09,7361.47 6955.85,7364.71 6951.86,7364.71 L 6847.36,7364.71 z "
     id="path219"
     style="fill:#787878;stroke:black;stroke-width:18;stroke-linejoin:bevel" /><path
     d="M 6212.48,7341.14 L 6822.78,8094.8 L 6824.75,8097.23 L 6822.78,8094.8 L 6069.14,7484.52 C 6111.82,7431.91 6159.86,7383.81 6212.48,7341.14 z M 6822.78,8094.8 L 6824.75,8097.23 L 7433.1,8848.48 C 7485.72,8805.81 7533.79,8757.73 7576.46,8705.11 L 6825.79,8097.23 L 6822.78,8094.8 L 6822.78,8094.8 z "
     id="path221"
     style="fill:#efefef" /><path
     d="M 6822.8,8094.82 L 6825.23,8092.85 L 7576.48,7484.5 C 7533.81,7431.88 7485.73,7383.81 7433.11,7341.14 L 6825.23,8091.81 L 6822.8,8094.82 z M 6068.74,8709.49 L 6822.4,8099.19 L 6824.83,8097.21 L 6822.4,8099.19 L 6212.12,8852.83 C 6159.51,8810.15 6111.41,8762.11 6068.74,8709.49 z "
     id="path223"
     style="fill:#dfdfdf" /><path
     d="M 7340.37,8094.81 C 7340.37,7808.94 7108.63,7577.2 6822.75,7577.2 C 6536.87,7577.2 6305.13,7808.94 6305.13,8094.81 C 6305.13,8380.69 6536.87,8612.44 6822.75,8612.44 C 7108.63,8612.44 7340.37,8380.69 7340.37,8094.81 z "
     id="path225"
     style="fill:url(#id10);stroke:white;stroke-width:15;stroke-linejoin:bevel" /><path
     d="M 7103.64,8094.81 C 7103.64,7939.68 6977.88,7813.92 6822.75,7813.92 C 6667.62,7813.92 6541.86,7939.68 6541.86,8094.81 C 6541.86,8249.95 6667.62,8375.71 6822.75,8375.71 C 6977.88,8375.71 7103.64,8249.95 7103.64,8094.81 L 7103.64,8094.81 L 7103.64,8094.81 L 7103.64,8094.81 L 7103.64,8094.81 L 7103.64,8094.81 L 7103.64,8094.81 L 7103.64,8094.81 L 7103.64,8094.81 z "
     id="path227"
     style="fill:#e8e8e8;stroke:#5c5c5c;stroke-width:15;stroke-linejoin:bevel" /><path
     d="M 2148.55,12747.2 L 2193.95,12530.29 L 2222.84,12530.29 L 2204.05,12620.39 L 2316.47,12620.39 L 2335.26,12530.29 L 2364.25,12530.29 L 2319,12747.2 L 2290.01,12747.2 L 2311.32,12644.98 L 2199,12644.98 L 2177.54,12747.2 L 2148.55,12747.2 z M 2368.13,12747.2 L 2413.39,12530.29 L 2478.79,12530.29 C 2494.49,12530.29 2506.46,12531.45 2514.75,12533.67 C 2526.56,12536.75 2536.66,12542.21 2545.1,12550.03 C 2553.48,12557.86 2559.79,12567.66 2564.04,12579.43 C 2568.23,12591.14 2570.35,12604.33 2570.35,12618.92 C 2570.35,12636.4 2567.72,12652.3 2562.47,12666.65 C 2557.17,12680.99 2550.3,12693.62 2541.76,12704.52 C 2533.23,12715.43 2524.29,12723.97 2514.95,12730.13 C 2505.65,12736.29 2494.59,12740.84 2481.92,12743.82 C 2472.22,12746.09 2460.35,12747.2 2446.21,12747.2 L 2368.13,12747.2 z M 2402.27,12722.66 L 2436.62,12722.66 C 2452.12,12722.66 2465.86,12721.19 2477.88,12718.36 C 2485.4,12716.59 2491.82,12713.97 2497.12,12710.48 C 2504.14,12706.09 2510.5,12700.18 2516.21,12692.91 C 2523.74,12683.21 2529.69,12672.2 2534.19,12659.83 C 2538.68,12647.46 2540.91,12633.37 2540.91,12617.61 C 2540.91,12600.03 2537.88,12586.55 2531.77,12577.1 C 2525.65,12567.71 2517.83,12561.45 2508.38,12558.42 C 2501.36,12556.15 2490.45,12554.98 2475.66,12554.98 L 2437.37,12554.98 L 2402.27,12722.66 L 2402.27,12722.66 L 2402.27,12722.66 L 2402.27,12722.66 L 2402.27,12722.66 L 2402.27,12722.66 L 2402.27,12722.66 L 2402.27,12722.66 L 2402.27,12722.66 z M 2586.96,12747.2 L 2632.22,12530.29 L 2697.62,12530.29 C 2713.32,12530.29 2725.29,12531.45 2733.58,12533.67 C 2745.39,12536.75 2755.49,12542.21 2763.93,12550.03 C 2772.31,12557.86 2778.62,12567.66 2782.87,12579.43 C 2787.06,12591.14 2789.18,12604.33 2789.18,12618.92 C 2789.18,12636.4 2786.55,12652.3 2781.3,12666.65 C 2776,12680.99 2769.13,12693.62 2760.59,12704.52 C 2752.06,12715.43 2743.12,12723.97 2733.78,12730.13 C 2724.48,12736.29 2713.42,12740.84 2700.75,12743.82 C 2691.05,12746.09 2679.18,12747.2 2665.04,12747.2 L 2586.96,12747.2 z M 2621.1,12722.66 L 2655.45,12722.66 C 2670.95,12722.66 2684.69,12721.19 2696.71,12718.36 C 2704.23,12716.59 2710.65,12713.97 2715.95,12710.48 C 2722.97,12706.09 2729.33,12700.18 2735.04,12692.91 C 2742.57,12683.21 2748.52,12672.2 2753.02,12659.83 C 2757.51,12647.46 2759.74,12633.37 2759.74,12617.61 C 2759.74,12600.03 2756.71,12586.55 2750.6,12577.1 C 2744.48,12567.71 2736.66,12561.45 2727.21,12558.42 C 2720.19,12556.15 2709.28,12554.98 2694.49,12554.98 L 2656.2,12554.98 L 2621.1,12722.66 L 2621.1,12722.66 L 2621.1,12722.66 L 2621.1,12722.66 L 2621.1,12722.66 L 2621.1,12722.66 L 2621.1,12722.66 L 2621.1,12722.66 L 2621.1,12722.66 z M 2889.98,12747.2 L 2935.24,12530.29 L 3000.64,12530.29 C 3016.34,12530.29 3028.31,12531.45 3036.6,12533.67 C 3048.41,12536.75 3058.51,12542.21 3066.95,12550.03 C 3075.33,12557.86 3081.64,12567.66 3085.89,12579.43 C 3090.08,12591.14 3092.2,12604.33 3092.2,12618.92 C 3092.2,12636.4 3089.57,12652.3 3084.32,12666.65 C 3079.02,12680.99 3072.15,12693.62 3063.61,12704.52 C 3055.08,12715.43 3046.14,12723.97 3036.8,12730.13 C 3027.5,12736.29 3016.44,12740.84 3003.77,12743.82 C 2994.07,12746.09 2982.2,12747.2 2968.06,12747.2 L 2889.98,12747.2 z M 2924.12,12722.66 L 2958.47,12722.66 C 2973.97,12722.66 2987.71,12721.19 2999.73,12718.36 C 3007.25,12716.59 3013.67,12713.97 3018.97,12710.48 C 3025.99,12706.09 3032.35,12700.18 3038.06,12692.91 C 3045.59,12683.21 3051.54,12672.2 3056.04,12659.83 C 3060.53,12647.46 3062.76,12633.37 3062.76,12617.61 C 3062.76,12600.03 3059.73,12586.55 3053.62,12577.1 C 3047.5,12567.71 3039.68,12561.45 3030.23,12558.42 C 3023.21,12556.15 3012.3,12554.98 2997.51,12554.98 L 2959.22,12554.98 L 2924.12,12722.66 L 2924.12,12722.66 L 2924.12,12722.66 L 2924.12,12722.66 L 2924.12,12722.66 L 2924.12,12722.66 L 2924.12,12722.66 L 2924.12,12722.66 L 2924.12,12722.66 z M 3143.41,12560.7 L 3149.77,12530.35 L 3176.39,12530.35 L 3170.07,12560.7 L 3143.41,12560.7 z M 3104.37,12747.26 L 3137.2,12590.14 L 3163.96,12590.14 L 3131.14,12747.26 L 3104.37,12747.26 z M 3171.24,12761.4 L 3198.31,12763.93 C 3198.1,12770.04 3198.86,12774.63 3200.53,12777.71 C 3202.19,12780.74 3204.87,12783.12 3208.51,12784.78 C 3213.36,12786.96 3219.62,12788.07 3227.29,12788.07 C 3243.51,12788.07 3255.12,12783.88 3262.24,12775.49 C 3266.84,12769.84 3271.13,12757.61 3275.12,12738.78 L 3277.75,12726.05 C 3263.86,12740.14 3249.06,12747.21 3233.35,12747.21 C 3217.5,12747.21 3204.21,12741.35 3193.51,12729.69 C 3182.8,12717.97 3177.45,12701.45 3177.45,12680.04 C 3177.45,12662.36 3181.64,12646.15 3190.07,12631.36 C 3198.51,12616.56 3208.56,12605.4 3220.22,12597.82 C 3231.84,12590.3 3243.81,12586.51 3256.18,12586.51 C 3276.79,12586.51 3292.65,12596.31 3303.81,12615.8 L 3309.11,12590.09 L 3333.7,12590.09 L 3302.04,12741.76 C 3298.55,12758.42 3294.06,12771.4 3288.4,12780.74 C 3282.8,12790.04 3274.97,12797.26 3264.97,12802.41 C 3254.97,12807.51 3243.4,12810.09 3230.27,12810.09 C 3217.65,12810.09 3206.79,12808.47 3197.65,12805.19 C 3188.51,12801.96 3181.69,12797.21 3177.25,12790.95 C 3172.75,12784.68 3170.48,12777.51 3170.48,12769.38 C 3170.48,12766.96 3170.73,12764.28 3171.24,12761.4 L 3171.24,12761.4 L 3171.24,12761.4 L 3171.24,12761.4 L 3171.24,12761.4 L 3171.24,12761.4 L 3171.24,12761.4 L 3171.24,12761.4 L 3171.24,12761.4 z M 3204.67,12677.67 C 3204.67,12688.42 3205.73,12696.5 3207.8,12701.96 C 3210.73,12709.53 3214.97,12715.34 3220.43,12719.33 C 3225.88,12723.32 3231.99,12725.29 3238.71,12725.29 C 3247.5,12725.29 3256.23,12722.21 3264.87,12716.05 C 3273.56,12709.89 3280.58,12700.34 3285.98,12687.41 C 3291.33,12674.54 3294.06,12662.16 3294.06,12650.45 C 3294.06,12637.52 3290.47,12627.26 3283.3,12619.59 C 3276.18,12611.96 3267.29,12608.12 3256.74,12608.12 C 3250.22,12608.12 3243.91,12609.89 3237.8,12613.38 C 3231.69,12616.86 3225.98,12622.21 3220.73,12629.34 C 3215.43,12636.51 3211.44,12645.09 3208.76,12655.04 C 3206.03,12664.99 3204.67,12672.52 3204.67,12677.67 L 3204.67,12677.67 L 3204.67,12677.67 L 3204.67,12677.67 L 3204.67,12677.67 L 3204.67,12677.67 L 3204.67,12677.67 L 3204.67,12677.67 L 3204.67,12677.67 z M 3379.26,12560.7 L 3385.62,12530.35 L 3412.24,12530.35 L 3405.92,12560.7 L 3379.26,12560.7 z M 3340.22,12747.26 L 3373.05,12590.14 L 3399.81,12590.14 L 3366.99,12747.26 L 3340.22,12747.26 z M 3471.12,12725.4 L 3466.73,12747.32 C 3460.32,12748.99 3454.1,12749.85 3448.04,12749.85 C 3437.44,12749.85 3428.95,12747.22 3422.64,12741.97 C 3417.89,12738.03 3415.52,12732.68 3415.52,12725.86 C 3415.52,12722.42 3416.78,12714.49 3419.36,12702.02 L 3438.45,12610.76 L 3417.29,12610.76 L 3421.58,12590.05 L 3442.74,12590.05 L 3450.87,12551.42 L 3481.53,12532.93 L 3469.51,12590.05 L 3495.87,12590.05 L 3491.43,12610.76 L 3465.21,12610.76 L 3447.03,12697.63 C 3444.76,12708.64 3443.65,12715.25 3443.65,12717.42 C 3443.65,12720.61 3444.56,12722.98 3446.38,12724.7 C 3448.2,12726.36 3451.17,12727.17 3455.32,12727.17 C 3461.23,12727.17 3466.53,12726.62 3471.12,12725.4 L 3471.12,12725.4 L 3471.12,12725.4 L 3471.12,12725.4 L 3471.12,12725.4 L 3471.12,12725.4 L 3471.12,12725.4 L 3471.12,12725.4 L 3471.12,12725.4 z M 3594.41,12727.7 C 3585.11,12735.67 3576.22,12741.53 3567.64,12745.22 C 3559.05,12748.96 3549.86,12750.78 3540.12,12750.78 C 3525.62,12750.78 3513.9,12746.53 3505.02,12738 C 3496.18,12729.46 3491.73,12718.55 3491.73,12705.22 C 3491.73,12696.43 3493.7,12688.66 3497.69,12681.94 C 3501.68,12675.17 3506.98,12669.72 3513.6,12665.63 C 3520.22,12661.54 3528.3,12658.61 3537.89,12656.84 C 3543.9,12655.68 3555.32,12654.72 3572.13,12654.01 C 3588.95,12653.35 3601.02,12651.54 3608.29,12648.71 C 3610.37,12641.39 3611.43,12635.32 3611.43,12630.48 C 3611.43,12624.26 3609.15,12619.42 3604.61,12615.83 C 3598.4,12610.93 3589.31,12608.46 3577.39,12608.46 C 3566.12,12608.46 3556.93,12610.93 3549.81,12615.93 C 3542.64,12620.93 3537.44,12628 3534.21,12637.14 L 3507.09,12634.77 C 3512.64,12619.21 3521.38,12607.3 3533.35,12598.96 C 3545.37,12590.68 3560.47,12586.54 3578.7,12586.54 C 3598.14,12586.54 3613.55,12591.18 3624.86,12600.48 C 3633.55,12607.35 3637.89,12616.34 3637.89,12627.4 C 3637.89,12635.78 3636.68,12645.48 3634.2,12656.54 L 3625.47,12695.63 C 3622.69,12708.05 3621.32,12718.15 3621.32,12725.93 C 3621.32,12730.88 3622.44,12737.95 3624.61,12747.24 L 3597.49,12747.24 C 3596.02,12742.09 3595.01,12735.62 3594.41,12727.7 L 3594.41,12727.7 L 3594.41,12727.7 L 3594.41,12727.7 L 3594.41,12727.7 L 3594.41,12727.7 L 3594.41,12727.7 L 3594.41,12727.7 L 3594.41,12727.7 z M 3604.3,12667.65 C 3600.57,12669.11 3596.53,12670.27 3592.23,12671.03 C 3587.94,12671.84 3580.77,12672.65 3570.72,12673.56 C 3555.17,12674.92 3544.16,12676.69 3537.74,12678.81 C 3531.33,12680.93 3526.48,12684.31 3523.25,12688.96 C 3519.96,12693.55 3518.35,12698.71 3518.35,12704.31 C 3518.35,12711.84 3520.92,12718 3526.13,12722.85 C 3531.28,12727.64 3538.65,12730.07 3548.25,12730.07 C 3557.13,12730.07 3565.67,12727.75 3573.85,12723.05 C 3582.03,12718.35 3588.5,12711.84 3593.19,12703.45 C 3597.94,12695.07 3601.63,12683.1 3604.3,12667.65 z M 3654.91,12747.2 L 3700.21,12530.29 L 3726.98,12530.29 L 3681.68,12747.2 L 3654.91,12747.2 z M 3781.12,12747.2 L 3904.04,12530.29 L 3938.24,12530.29 L 3974.04,12747.2 L 3945.96,12747.2 L 3935.46,12684.78 L 3847.68,12684.78 L 3812.94,12747.2 L 3781.12,12747.2 z M 3860.11,12662.4 L 3931.87,12662.4 L 3923.44,12607.96 C 3920.21,12586.35 3918.19,12568.37 3917.38,12553.97 C 3912.43,12566.4 3905.26,12581.15 3895.76,12598.22 L 3860.11,12662.4 L 3860.11,12662.4 L 3860.11,12662.4 L 3860.11,12662.4 L 3860.11,12662.4 L 3860.11,12662.4 L 3860.11,12662.4 L 3860.11,12662.4 L 3860.11,12662.4 z M 4106.61,12718.8 C 4087.77,12740.11 4068.48,12750.77 4048.78,12750.77 C 4036.66,12750.77 4026.86,12747.28 4019.39,12740.36 C 4011.97,12733.39 4008.23,12724.91 4008.23,12714.81 C 4008.23,12708.24 4009.9,12696.88 4013.28,12680.82 L 4032.22,12590.11 L 4058.98,12590.11 L 4037.98,12690.57 C 4036.21,12698.95 4035.3,12705.46 4035.3,12710.11 C 4035.3,12716.02 4037.12,12720.61 4040.7,12723.95 C 4044.29,12727.23 4049.59,12728.9 4056.61,12728.9 C 4064.09,12728.9 4071.41,12727.08 4078.58,12723.39 C 4085.75,12719.76 4091.91,12714.81 4097.06,12708.59 C 4102.27,12702.38 4106.46,12695.06 4109.74,12686.58 C 4111.91,12681.12 4114.44,12671.63 4117.27,12657.99 L 4131.46,12590.11 L 4158.27,12590.11 L 4125.4,12747.23 L 4100.7,12747.23 L 4106.61,12718.8 L 4106.61,12718.8 L 4106.61,12718.8 L 4106.61,12718.8 L 4106.61,12718.8 L 4106.61,12718.8 L 4106.61,12718.8 L 4106.61,12718.8 L 4106.61,12718.8 z M 4273.83,12724.4 C 4258.52,12741.93 4242.56,12750.72 4225.9,12750.72 C 4211,12750.72 4198.58,12745.21 4188.68,12734.25 C 4178.78,12723.24 4173.78,12707.28 4173.78,12686.37 C 4173.78,12667.23 4177.72,12649.76 4185.55,12633.9 C 4193.42,12618.09 4203.22,12606.23 4214.99,12598.35 C 4226.81,12590.42 4238.63,12586.48 4250.44,12586.48 C 4269.99,12586.48 4284.73,12595.92 4294.68,12614.76 L 4312.46,12530.27 L 4339.08,12530.27 L 4293.77,12747.18 L 4269.08,12747.18 L 4273.83,12724.4 L 4273.83,12724.4 L 4273.83,12724.4 L 4273.83,12724.4 L 4273.83,12724.4 L 4273.83,12724.4 L 4273.83,12724.4 L 4273.83,12724.4 L 4273.83,12724.4 z M 4200.44,12681.32 C 4200.44,12692.28 4201.51,12700.92 4203.68,12707.23 C 4205.85,12713.54 4209.54,12718.8 4214.79,12722.99 C 4219.99,12727.18 4226.25,12729.25 4233.57,12729.25 C 4245.7,12729.25 4256.71,12722.94 4266.55,12710.31 C 4279.79,12693.55 4286.4,12672.84 4286.4,12648.19 C 4286.4,12635.77 4283.12,12626.07 4276.65,12619.05 C 4270.14,12612.03 4261.96,12608.55 4252.06,12608.55 C 4245.65,12608.55 4239.84,12609.96 4234.53,12612.84 C 4229.28,12615.67 4224.03,12620.57 4218.88,12627.39 C 4213.68,12634.25 4209.33,12642.99 4205.75,12653.55 C 4202.21,12664.05 4200.44,12673.34 4200.44,12681.32 L 4200.44,12681.32 L 4200.44,12681.32 L 4200.44,12681.32 L 4200.44,12681.32 L 4200.44,12681.32 L 4200.44,12681.32 L 4200.44,12681.32 L 4200.44,12681.32 z M 4374.43,12560.7 L 4380.79,12530.35 L 4407.41,12530.35 L 4401.09,12560.7 L 4374.43,12560.7 z M 4335.39,12747.26 L 4368.22,12590.14 L 4394.98,12590.14 L 4362.16,12747.26 L 4335.39,12747.26 z M 4408.47,12687.6 C 4408.47,12656.94 4417.51,12631.54 4435.54,12611.44 C 4450.44,12594.82 4469.98,12586.54 4494.12,12586.54 C 4513.06,12586.54 4528.36,12592.5 4539.93,12604.32 C 4551.49,12616.13 4557.3,12632.14 4557.3,12652.24 C 4557.3,12670.32 4553.66,12687.09 4546.34,12702.65 C 4539.07,12718.15 4528.67,12730.07 4515.23,12738.35 C 4501.75,12746.63 4487.56,12750.78 4472.66,12750.78 C 4460.44,12750.78 4449.32,12748.2 4439.33,12742.95 C 4429.33,12737.75 4421.65,12730.32 4416.4,12720.78 C 4411.09,12711.18 4408.47,12700.12 4408.47,12687.6 L 4408.47,12687.6 L 4408.47,12687.6 L 4408.47,12687.6 L 4408.47,12687.6 L 4408.47,12687.6 L 4408.47,12687.6 L 4408.47,12687.6 L 4408.47,12687.6 z M 4435.23,12684.97 C 4435.23,12699.77 4438.82,12710.98 4445.89,12718.6 C 4453.01,12726.23 4462.05,12730.07 4472.96,12730.07 C 4478.72,12730.07 4484.37,12728.91 4489.98,12726.58 C 4495.64,12724.26 4500.84,12720.78 4505.69,12716.03 C 4510.48,12711.28 4514.63,12705.88 4518.01,12699.82 C 4521.44,12693.76 4524.17,12687.24 4526.24,12680.22 C 4529.32,12670.42 4530.84,12661.08 4530.84,12652.09 C 4530.84,12637.9 4527.25,12626.89 4520.08,12619.01 C 4512.96,12611.18 4503.97,12607.3 4493.11,12607.3 C 4484.73,12607.3 4477.05,12609.26 4470.18,12613.25 C 4463.26,12617.24 4457,12623.1 4451.45,12630.78 C 4445.89,12638.51 4441.8,12647.45 4439.17,12657.65 C 4436.55,12667.85 4435.23,12676.94 4435.23,12684.97 L 4435.23,12684.97 L 4435.23,12684.97 L 4435.23,12684.97 L 4435.23,12684.97 L 4435.23,12684.97 L 4435.23,12684.97 L 4435.23,12684.97 L 4435.23,12684.97 z M 4796.74,12726.1 C 4784.37,12736.15 4773.81,12743.02 4765.07,12746.6 C 4756.29,12750.19 4746.54,12752.01 4735.88,12752.01 C 4716.19,12752.01 4700.28,12746.2 4688.26,12734.63 C 4676.24,12723.02 4670.23,12708.42 4670.23,12690.9 C 4670.23,12679.43 4672.45,12669.33 4676.94,12660.55 C 4681.44,12651.76 4688.11,12643.83 4696.99,12636.76 C 4703.81,12631.41 4713.86,12625.75 4727.2,12619.74 C 4722.04,12608.38 4718.96,12600.8 4717.85,12596.91 C 4716.49,12591.41 4715.78,12585.5 4715.78,12579.18 C 4715.78,12570.9 4718.1,12562.47 4722.75,12553.93 C 4727.4,12545.4 4733.91,12538.73 4742.4,12533.88 C 4750.88,12529.09 4760.12,12526.66 4770.07,12526.66 C 4784.01,12526.66 4795.22,12530.7 4803.76,12538.78 C 4812.29,12546.86 4816.54,12556.71 4816.54,12568.23 C 4816.54,12577.97 4812.9,12587.67 4805.58,12597.32 C 4798.3,12606.91 4783.96,12617.11 4762.55,12627.87 C 4775.48,12651.25 4787.9,12670.44 4799.82,12685.39 C 4807.04,12676.66 4813.86,12666.3 4820.37,12654.49 L 4843.76,12666.45 C 4837.24,12680.19 4828.25,12693.57 4816.69,12706.71 C 4823.1,12714.89 4831.43,12724.79 4841.69,12736.3 L 4821.59,12752.46 C 4811.54,12743.88 4803.2,12735.09 4796.74,12726.1 L 4796.74,12726.1 L 4796.74,12726.1 L 4796.74,12726.1 L 4796.74,12726.1 L 4796.74,12726.1 L 4796.74,12726.1 L 4796.74,12726.1 L 4796.74,12726.1 z M 4752.75,12607.87 C 4767.29,12600.5 4777.65,12592.87 4783.86,12585.09 C 4788.2,12579.79 4790.38,12574.34 4790.38,12568.83 C 4790.38,12563.02 4788.35,12558.07 4784.37,12554.08 C 4780.38,12550.09 4775.53,12548.13 4769.77,12548.13 C 4762.9,12548.13 4756.79,12550.9 4751.54,12556.46 C 4746.24,12562.06 4743.61,12568.68 4743.61,12576.36 C 4743.61,12585.75 4746.64,12596.26 4752.75,12607.87 L 4752.75,12607.87 L 4752.75,12607.87 L 4752.75,12607.87 L 4752.75,12607.87 L 4752.75,12607.87 L 4752.75,12607.87 L 4752.75,12607.87 L 4752.75,12607.87 z M 4781.18,12705.54 C 4762.75,12681.35 4748.41,12659.74 4738.1,12640.6 C 4724.72,12646.91 4715.13,12653.02 4709.42,12658.93 C 4701.44,12667.21 4697.45,12676.81 4697.45,12687.77 C 4697.45,12699.03 4701.24,12708.52 4708.91,12716.25 C 4716.54,12724.03 4725.88,12727.87 4736.94,12727.87 C 4751.84,12727.87 4766.59,12720.44 4781.18,12705.54 L 4781.18,12705.54 L 4781.18,12705.54 L 4781.18,12705.54 L 4781.18,12705.54 L 4781.18,12705.54 L 4781.18,12705.54 L 4781.18,12705.54 L 4781.18,12705.54 z M 5011.98,12747.2 L 4970.26,12530.29 L 4998.24,12530.29 L 5023.39,12659.63 C 5028.04,12683.06 5031.02,12702 5032.43,12716.44 C 5041.47,12697.86 5048.95,12683.16 5054.76,12672.35 L 5132.13,12530.29 L 5162.03,12530.29 L 5043.09,12747.2 L 5011.98,12747.2 L 5011.98,12747.2 L 5011.98,12747.2 L 5011.98,12747.2 L 5011.98,12747.2 L 5011.98,12747.2 L 5011.98,12747.2 L 5011.98,12747.2 L 5011.98,12747.2 z M 5177.43,12560.7 L 5183.79,12530.35 L 5210.41,12530.35 L 5204.09,12560.7 L 5177.43,12560.7 z M 5138.39,12747.26 L 5171.22,12590.14 L 5197.98,12590.14 L 5165.16,12747.26 L 5138.39,12747.26 z M 5312.68,12724.4 C 5297.37,12741.93 5281.41,12750.72 5264.75,12750.72 C 5249.85,12750.72 5237.43,12745.21 5227.53,12734.25 C 5217.63,12723.24 5212.63,12707.28 5212.63,12686.37 C 5212.63,12667.23 5216.57,12649.76 5224.4,12633.9 C 5232.27,12618.09 5242.07,12606.23 5253.84,12598.35 C 5265.66,12590.42 5277.48,12586.48 5289.29,12586.48 C 5308.84,12586.48 5323.58,12595.92 5333.53,12614.76 L 5351.31,12530.27 L 5377.93,12530.27 L 5332.62,12747.18 L 5307.93,12747.18 L 5312.68,12724.4 L 5312.68,12724.4 L 5312.68,12724.4 L 5312.68,12724.4 L 5312.68,12724.4 L 5312.68,12724.4 L 5312.68,12724.4 L 5312.68,12724.4 L 5312.68,12724.4 z M 5239.29,12681.32 C 5239.29,12692.28 5240.36,12700.92 5242.53,12707.23 C 5244.7,12713.54 5248.39,12718.8 5253.64,12722.99 C 5258.84,12727.18 5265.1,12729.25 5272.42,12729.25 C 5284.55,12729.25 5295.56,12722.94 5305.4,12710.31 C 5318.64,12693.55 5325.25,12672.84 5325.25,12648.19 C 5325.25,12635.77 5321.97,12626.07 5315.5,12619.05 C 5308.99,12612.03 5300.81,12608.55 5290.91,12608.55 C 5284.5,12608.55 5278.69,12609.96 5273.38,12612.84 C 5268.13,12615.67 5262.88,12620.57 5257.73,12627.39 C 5252.53,12634.25 5248.18,12642.99 5244.6,12653.55 C 5241.06,12664.05 5239.29,12673.34 5239.29,12681.32 L 5239.29,12681.32 L 5239.29,12681.32 L 5239.29,12681.32 L 5239.29,12681.32 L 5239.29,12681.32 L 5239.29,12681.32 L 5239.29,12681.32 L 5239.29,12681.32 z M 5490.65,12693.8 L 5516.71,12696.47 C 5512.97,12709.4 5504.34,12721.68 5490.9,12733.34 C 5477.42,12744.96 5461.36,12750.77 5442.72,12750.77 C 5431.11,12750.77 5420.4,12748.09 5410.7,12742.74 C 5401.01,12737.33 5393.58,12729.5 5388.48,12719.25 C 5383.43,12709 5380.91,12697.33 5380.91,12684.2 C 5380.91,12667.03 5384.85,12650.42 5392.77,12634.25 C 5400.75,12618.14 5411.01,12606.17 5423.63,12598.3 C 5436.26,12590.47 5449.94,12586.53 5464.64,12586.53 C 5483.38,12586.53 5498.33,12592.39 5509.54,12604 C 5520.75,12615.67 5526.31,12631.53 5526.31,12651.63 C 5526.31,12659.35 5525.65,12667.23 5524.23,12675.31 L 5408.53,12675.31 C 5408.18,12678.39 5407.98,12681.12 5407.98,12683.6 C 5407.98,12698.29 5411.36,12709.5 5418.08,12717.28 C 5424.84,12725.01 5433.13,12728.9 5442.87,12728.9 C 5452.07,12728.9 5461.06,12725.87 5469.94,12719.86 C 5478.83,12713.85 5485.75,12705.16 5490.65,12693.8 L 5490.65,12693.8 L 5490.65,12693.8 L 5490.65,12693.8 L 5490.65,12693.8 L 5490.65,12693.8 L 5490.65,12693.8 L 5490.65,12693.8 L 5490.65,12693.8 z M 5412.82,12654.91 L 5501,12654.91 C 5501.1,12652.13 5501.15,12650.16 5501.15,12649 C 5501.15,12635.57 5497.82,12625.26 5491.1,12618.14 C 5484.39,12610.97 5475.75,12607.39 5465.2,12607.39 C 5453.78,12607.39 5443.33,12611.38 5433.94,12619.25 C 5424.49,12627.13 5417.47,12639 5412.82,12654.91 z M 5548.53,12687.6 C 5548.53,12656.94 5557.57,12631.54 5575.6,12611.44 C 5590.5,12594.82 5610.04,12586.54 5634.18,12586.54 C 5653.12,12586.54 5668.42,12592.5 5679.99,12604.32 C 5691.55,12616.13 5697.36,12632.14 5697.36,12652.24 C 5697.36,12670.32 5693.72,12687.09 5686.4,12702.65 C 5679.13,12718.15 5668.73,12730.07 5655.29,12738.35 C 5641.81,12746.63 5627.62,12750.78 5612.72,12750.78 C 5600.5,12750.78 5589.38,12748.2 5579.39,12742.95 C 5569.39,12737.75 5561.71,12730.32 5556.46,12720.78 C 5551.15,12711.18 5548.53,12700.12 5548.53,12687.6 L 5548.53,12687.6 L 5548.53,12687.6 L 5548.53,12687.6 L 5548.53,12687.6 L 5548.53,12687.6 L 5548.53,12687.6 L 5548.53,12687.6 L 5548.53,12687.6 z M 5575.29,12684.97 C 5575.29,12699.77 5578.88,12710.98 5585.95,12718.6 C 5593.07,12726.23 5602.11,12730.07 5613.02,12730.07 C 5618.78,12730.07 5624.43,12728.91 5630.04,12726.58 C 5635.7,12724.26 5640.9,12720.78 5645.75,12716.03 C 5650.54,12711.28 5654.69,12705.88 5658.07,12699.82 C 5661.5,12693.76 5664.23,12687.24 5666.3,12680.22 C 5669.38,12670.42 5670.9,12661.08 5670.9,12652.09 C 5670.9,12637.9 5667.31,12626.89 5660.14,12619.01 C 5653.02,12611.18 5644.03,12607.3 5633.17,12607.3 C 5624.79,12607.3 5617.11,12609.26 5610.24,12613.25 C 5603.32,12617.24 5597.06,12623.1 5591.51,12630.78 C 5585.95,12638.51 5581.86,12647.45 5579.23,12657.65 C 5576.61,12667.85 5575.29,12676.94 5575.29,12684.97 L 5575.29,12684.97 L 5575.29,12684.97 L 5575.29,12684.97 L 5575.29,12684.97 L 5575.29,12684.97 L 5575.29,12684.97 L 5575.29,12684.97 L 5575.29,12684.97 z M 5799.48,12747.2 L 5844.88,12530.29 L 5935.43,12530.29 C 5951.14,12530.29 5962.91,12532.11 5970.74,12535.69 C 5978.56,12539.28 5985.08,12545.44 5990.18,12554.18 C 5995.33,12562.91 5997.91,12572.71 5997.91,12583.57 C 5997.91,12592.51 5996.04,12601.65 5992.4,12610.94 C 5988.77,12620.18 5984.17,12627.86 5978.56,12633.87 C 5973.01,12639.88 5967.35,12644.43 5961.65,12647.46 C 5955.89,12650.54 5949.78,12652.81 5943.26,12654.27 C 5929.37,12657.56 5915.33,12659.17 5901.14,12659.17 L 5846.8,12659.17 L 5828.47,12747.2 L 5799.48,12747.2 L 5799.48,12747.2 L 5799.48,12747.2 L 5799.48,12747.2 L 5799.48,12747.2 L 5799.48,12747.2 L 5799.48,12747.2 L 5799.48,12747.2 L 5799.48,12747.2 z M 5852,12634.58 L 5899.78,12634.58 C 5918.31,12634.58 5931.95,12632.61 5940.64,12628.62 C 5949.32,12624.63 5956.24,12618.52 5961.49,12610.34 C 5966.7,12602.15 5969.32,12593.47 5969.32,12584.28 C 5969.32,12577.21 5967.96,12571.4 5965.18,12566.9 C 5962.4,12562.41 5958.51,12559.13 5953.52,12557 C 5948.46,12554.88 5938.82,12553.82 5924.48,12553.82 L 5868.87,12553.82 L 5852,12634.58 L 5852,12634.58 L 5852,12634.58 L 5852,12634.58 L 5852,12634.58 L 5852,12634.58 L 5852,12634.58 L 5852,12634.58 L 5852,12634.58 z M 5996.54,12747.2 L 6041.84,12530.29 L 6068.61,12530.29 L 6023.31,12747.2 L 5996.54,12747.2 z M 6171.89,12727.7 C 6162.59,12735.67 6153.7,12741.53 6145.12,12745.22 C 6136.53,12748.96 6127.34,12750.78 6117.6,12750.78 C 6103.1,12750.78 6091.38,12746.53 6082.5,12738 C 6073.66,12729.46 6069.21,12718.55 6069.21,12705.22 C 6069.21,12696.43 6071.18,12688.66 6075.17,12681.94 C 6079.16,12675.17 6084.46,12669.72 6091.08,12665.63 C 6097.7,12661.54 6105.78,12658.61 6115.37,12656.84 C 6121.38,12655.68 6132.8,12654.72 6149.61,12654.01 C 6166.43,12653.35 6178.5,12651.54 6185.77,12648.71 C 6187.85,12641.39 6188.91,12635.32 6188.91,12630.48 C 6188.91,12624.26 6186.63,12619.42 6182.09,12615.83 C 6175.88,12610.93 6166.79,12608.46 6154.87,12608.46 C 6143.6,12608.46 6134.41,12610.93 6127.29,12615.93 C 6120.12,12620.93 6114.92,12628 6111.69,12637.14 L 6084.57,12634.77 C 6090.12,12619.21 6098.86,12607.3 6110.83,12598.96 C 6122.85,12590.68 6137.95,12586.54 6156.18,12586.54 C 6175.62,12586.54 6191.03,12591.18 6202.34,12600.48 C 6211.03,12607.35 6215.37,12616.34 6215.37,12627.4 C 6215.37,12635.78 6214.16,12645.48 6211.68,12656.54 L 6202.95,12695.63 C 6200.17,12708.05 6198.8,12718.15 6198.8,12725.93 C 6198.8,12730.88 6199.92,12737.95 6202.09,12747.24 L 6174.97,12747.24 C 6173.5,12742.09 6172.49,12735.62 6171.89,12727.7 L 6171.89,12727.7 L 6171.89,12727.7 L 6171.89,12727.7 L 6171.89,12727.7 L 6171.89,12727.7 L 6171.89,12727.7 L 6171.89,12727.7 L 6171.89,12727.7 z M 6181.78,12667.65 C 6178.05,12669.11 6174.01,12670.27 6169.71,12671.03 C 6165.42,12671.84 6158.25,12672.65 6148.2,12673.56 C 6132.65,12674.92 6121.64,12676.69 6115.22,12678.81 C 6108.81,12680.93 6103.96,12684.31 6100.73,12688.96 C 6097.44,12693.55 6095.83,12698.71 6095.83,12704.31 C 6095.83,12711.84 6098.4,12718 6103.61,12722.85 C 6108.76,12727.64 6116.13,12730.07 6125.73,12730.07 C 6134.61,12730.07 6143.15,12727.75 6151.33,12723.05 C 6159.51,12718.35 6165.98,12711.84 6170.67,12703.45 C 6175.42,12695.07 6179.11,12683.1 6181.78,12667.65 L 6181.78,12667.65 L 6181.78,12667.65 L 6181.78,12667.65 L 6181.78,12667.65 L 6181.78,12667.65 L 6181.78,12667.65 L 6181.78,12667.65 L 6181.78,12667.65 z M 6224.41,12807.9 L 6226.03,12782.75 C 6231.58,12784.32 6236.93,12785.13 6242.19,12785.13 C 6247.59,12785.13 6251.98,12783.92 6255.32,12781.44 C 6259.66,12778.16 6264.41,12772.05 6269.56,12763.06 L 6278.1,12747.7 L 6251.93,12590.13 L 6278.25,12590.13 L 6290.11,12669.58 C 6292.49,12685.23 6294.51,12700.94 6296.18,12716.64 L 6366.48,12590.13 L 6394.4,12590.13 L 6294.26,12768.11 C 6284.56,12785.48 6275.97,12796.95 6268.5,12802.6 C 6261.02,12808.21 6252.39,12811.04 6242.59,12811.04 C 6236.38,12811.04 6230.32,12809.98 6224.41,12807.9 L 6224.41,12807.9 L 6224.41,12807.9 L 6224.41,12807.9 L 6224.41,12807.9 L 6224.41,12807.9 L 6224.41,12807.9 L 6224.41,12807.9 L 6224.41,12807.9 z M 6501.37,12693.8 L 6527.43,12696.47 C 6523.69,12709.4 6515.06,12721.68 6501.62,12733.34 C 6488.14,12744.96 6472.08,12750.77 6453.44,12750.77 C 6441.83,12750.77 6431.12,12748.09 6421.42,12742.74 C 6411.73,12737.33 6404.3,12729.5 6399.2,12719.25 C 6394.15,12709 6391.63,12697.33 6391.63,12684.2 C 6391.63,12667.03 6395.57,12650.42 6403.49,12634.25 C 6411.47,12618.14 6421.73,12606.17 6434.35,12598.3 C 6446.98,12590.47 6460.66,12586.53 6475.36,12586.53 C 6494.1,12586.53 6509.05,12592.39 6520.26,12604 C 6531.47,12615.67 6537.03,12631.53 6537.03,12651.63 C 6537.03,12659.35 6536.37,12667.23 6534.95,12675.31 L 6419.25,12675.31 C 6418.9,12678.39 6418.7,12681.12 6418.7,12683.6 C 6418.7,12698.29 6422.08,12709.5 6428.8,12717.28 C 6435.56,12725.01 6443.85,12728.9 6453.59,12728.9 C 6462.79,12728.9 6471.78,12725.87 6480.66,12719.86 C 6489.55,12713.85 6496.47,12705.16 6501.37,12693.8 L 6501.37,12693.8 L 6501.37,12693.8 L 6501.37,12693.8 L 6501.37,12693.8 L 6501.37,12693.8 L 6501.37,12693.8 L 6501.37,12693.8 L 6501.37,12693.8 z M 6423.54,12654.91 L 6511.72,12654.91 C 6511.82,12652.13 6511.87,12650.16 6511.87,12649 C 6511.87,12635.57 6508.54,12625.26 6501.82,12618.14 C 6495.11,12610.97 6486.47,12607.39 6475.92,12607.39 C 6464.5,12607.39 6454.05,12611.38 6444.66,12619.25 C 6435.21,12627.13 6428.19,12639 6423.54,12654.91 z M 6554.5,12747.2 L 6587.38,12590.08 L 6611.01,12590.08 L 6604.4,12622.15 C 6612.48,12610.03 6620.36,12601.04 6628.13,12595.24 C 6635.86,12589.43 6643.79,12586.5 6651.87,12586.5 C 6657.17,12586.5 6663.74,12588.42 6671.57,12592.31 L 6660.61,12617.15 C 6655.96,12613.77 6650.86,12612.1 6645.36,12612.1 C 6636.01,12612.1 6626.37,12617.36 6616.52,12627.81 C 6606.62,12638.26 6598.89,12657.05 6593.29,12684.17 L 6579.95,12747.2 L 6554.5,12747.2 z "
     id="path229"
     style="fill:#7a7a7a" /><path
     d="M 6650.71,7882.35 L 6822.76,8094.81 L 6823.32,8095.5 L 6822.76,8094.81 L 6610.3,7922.77 C 6622.33,7907.94 6635.87,7894.38 6650.71,7882.35 z M 6822.76,8094.81 L 6823.32,8095.5 L 6994.81,8307.28 C 7009.65,8295.25 7023.2,8281.7 7035.23,8266.86 L 6823.61,8095.5 L 6822.76,8094.81 L 6822.76,8094.81 z "
     id="path231"
     style="fill:#efefef" /><path
     d="M 6822.76,8094.82 L 6823.45,8094.26 L 7035.23,7922.77 C 7023.21,7907.93 7009.65,7894.38 6994.82,7882.35 L 6823.45,8093.97 L 6822.76,8094.82 z M 6610.19,8268.1 L 6822.65,8096.05 L 6823.34,8095.49 L 6822.65,8096.05 L 6650.61,8308.51 C 6635.78,8296.47 6622.22,8282.93 6610.19,8268.1 z "
     id="path233"
     style="fill:#dfdfdf" /><path
     d="M 1242.94,1537.3 L 7564.36,1537.3 C 7704.18,1537.3 7817.53,1650.65 7817.53,1790.47 L 7817.53,6161.72 C 7817.53,6301.53 7704.18,6414.88 7564.36,6414.88 L 1242.94,6414.88 C 1103.12,6414.88 989.78,6301.53 989.78,6161.72 L 989.78,1790.47 C 989.78,1650.65 1103.12,1537.3 1242.94,1537.3 L 1242.94,1537.3 L 1242.94,1537.3 L 1242.94,1537.3 L 1242.94,1537.3 L 1242.94,1537.3 L 1242.94,1537.3 L 1242.94,1537.3 z "
     id="path235"
     style="fill:#cecece;fill-opacity:1;stroke:#262626;stroke-width:20.82799911;stroke-linejoin:bevel;stroke-miterlimit:4;stroke-dasharray:none;stroke-opacity:1" /><path
     d="M 1481.69,5999.55 L 7344.86,5999.55 C 7409.18,5999.55 7461.31,5947.41 7461.31,5883.09 L 7461.31,2045.31 C 7461.31,1980.99 7409.18,1928.85 7344.86,1928.85 L 1481.69,1928.85 L 1481.69,1928.85 L 1481.69,1928.85 L 1481.69,1928.85 L 1481.69,1928.85 L 1481.69,1928.85 L 1481.69,1928.85 C 1417.37,1928.85 1365.23,1980.99 1365.23,2045.31 L 1365.23,5883.09 C 1365.23,5947.41 1417.37,5999.55 1481.69,5999.55 L 1481.69,5999.55 z "
     id="path237"
     style="fill:black;stroke:#9e9e9e;stroke-width:15;stroke-linejoin:bevel" /><path
     d="M 2222.68,2257.96 L 7010.92,2257.96 L 7010.92,5758.36 L 2222.68,5758.36 L 2222.68,2257.96 L 2222.68,2257.96 L 2222.68,2257.96 L 2222.68,2257.96 L 2222.68,2257.96 L 2222.68,2257.96 L 2222.68,2257.96 L 2222.68,2257.96 z "
     id="path239"
     style="fill:#dfe5eb;stroke:#918e94;stroke-width:50;stroke-linejoin:bevel" /><g
     id="g243">
   <path
   d="M 3820.14,3013.86 C 3745.09,2687.2 3550.74,2673 3505.07,2673 L 3505.07,2653.9 C 3606.42,2653.9 3770.2,2726.2 3829.7,2974.41 C 3905.94,2726.72 4036.24,2660.33 4127.57,2659.09 C 4214.67,2657.75 4268.42,2678.18 4350.98,2721.11 L 4350.98,2682.34 L 4589.29,2682.34 L 4589.29,2649.75 L 4608.38,2649.75 L 4608.38,2682.34 L 4648.78,2682.34 L 4648.78,2701.49 L 4608.38,2701.49 L 4608.38,3168.53 L 4779.7,2735.28 L 4943.97,2735.28 L 4958.31,2701.49 L 4753.67,2701.49 L 4753.67,2682.34 L 4966.44,2682.34 L 4988.87,2629.33 L 5006.37,2636.7 L 4987.18,2682.34 L 5032.37,2682.34 L 5032.37,2701.49 L 4979.07,2701.49 L 4845.46,3016.67 L 5022.25,3016.67 L 5022.25,3252.89 C 5187.97,3171.58 5386.01,3231.24 5485.82,3390.88 C 5584.95,3238.11 5778.29,3177.4 5946.88,3245.85 L 5940.13,3235 L 6225.07,3235 L 6281.92,3327.05 L 6337.54,3237.1 C 6338.4,3235.79 6339.82,3235 6341.41,3235 L 6341.41,3235 C 6343.01,3235 6344.53,3235.85 6345.33,3237.27 C 6346.15,3238.72 6346.12,3240.46 6345.31,3241.94 L 6287.23,3335.6 L 6294.75,3347.6 L 6363.02,3237.1 C 6363.89,3235.79 6365.35,3235 6366.86,3235 L 6366.86,3235 C 6368.52,3235 6370.05,3235.85 6370.85,3237.27 C 6371.63,3238.72 6371.57,3240.46 6370.66,3241.94 L 6300.07,3356.17 L 6307.42,3368.17 L 6389.88,3235 L 6674.68,3235 L 6449.85,3598.51 L 6457.33,3610.47 L 6694.57,3226.9 L 6398.58,3226.9 C 6396.92,3226.9 6395.39,3226.06 6394.65,3224.54 C 6393.86,3223.18 6393.89,3221.5 6394.69,3220.09 L 6394.69,3220.09 C 6395.53,3218.67 6396.98,3217.87 6398.58,3217.87 L 6710.73,3217.87 L 6475.38,3598.51 L 6695.5,3954.46 C 6696.43,3955.89 6696.46,3957.64 6695.58,3959.1 C 6694.86,3960.49 6693.39,3961.31 6691.7,3961.31 C 6690.14,3961.31 6688.63,3960.59 6687.89,3959.25 L 6470.04,3607.11 L 6462.61,3619.02 L 6674.29,3961.31 L 6389.48,3961.31 L 6335.08,3873.46 L 6281.89,3959.25 C 6281.15,3960.59 6279.63,3961.31 6278.06,3961.31 L 6278.06,3961.31 C 6277.36,3961.31 6276.61,3961.19 6275.98,3960.81 C 6275.35,3961.19 6274.65,3961.31 6273.79,3961.31 C 6272.23,3961.31 6270.7,3960.49 6269.88,3959.1 C 6269.03,3957.64 6269.03,3955.89 6270.07,3954.46 L 6327.6,3861.42 L 6320.22,3849.34 L 6252.24,3959.25 C 6251.4,3960.59 6249.92,3961.31 6248.33,3961.31 C 6246.81,3961.31 6245.23,3960.49 6244.47,3959.1 C 6243.7,3957.64 6243.7,3955.89 6244.53,3954.46 L 6314.92,3840.77 L 6307.42,3828.78 L 6225.42,3961.31 L 5940.57,3961.31 L 5948.86,3947.89 C 5780.13,4017.63 5585.8,3957.17 5486.19,3804.3 C 5386.46,3964.17 5188.15,4022.67 5022.25,3941.16 L 5022.25,3961.31 L 4780.31,3961.31 L 4780.31,3959.57 L 4740.35,3959.57 L 4757.75,4008.87 L 4739.8,4015.2 L 4720.12,3959.57 L 4643.39,3959.57 L 4643.39,3940.43 L 4713.32,3940.43 L 4570.7,3537.99 L 4562.3,3558.45 L 4562.3,3961.31 L 4404.39,3961.31 L 4404.39,2735.28 L 4562.3,2735.28 L 4562.3,3284.89 L 4589.29,3216.8 L 4589.29,2701.49 L 4370.02,2701.49 L 4370.02,2757.3 C 4274.91,2693.37 4211.16,2678.18 4127.57,2678.18 C 4061.4,2678.18 3916.09,2726.37 3839.24,3013.86 L 3820.14,3013.86 L 3820.14,3013.86 z M 4162.17,3987.18 L 3861.07,3987.18 L 3861.07,3968.17 L 4066.61,3968.17 C 3910.03,3898.55 3841.81,3646.78 3841.81,3348.29 C 3841.81,2996.5 3936.64,2709.52 4159.39,2709.52 C 4261.84,2709.52 4320,2761.98 4370.02,2810 L 4370.02,2841.2 C 4370.02,2841.34 4370.02,2841.34 4370.1,2841.34 L 4370.02,3106.3 L 4353.05,3106.3 C 4316.15,3039 4248.3,2944.61 4178.23,2944.61 C 4061.4,2944.61 4003.66,3125.5 4005.04,3348.29 C 4003.66,3571.15 4061.4,3752.06 4178.23,3752.06 C 4248.3,3752.06 4316.15,3657.66 4353.05,3590.29 L 4370.02,3590.29 L 4370.1,3855.26 C 4370.02,3855.26 4370.02,3855.26 4370.02,3855.34 L 4370.02,3886.6 C 4320.4,3934.12 4262.79,3986.2 4162.17,3987.18 L 4162.17,3987.18 z M 3502.7,2709.52 C 3723.57,2709.52 3817.64,3010.68 3817.64,3348.29 C 3817.64,3685.97 3723.57,3987.18 3502.7,3987.18 C 3281.74,3987.18 3187.79,3700.18 3187.79,3348.29 C 3187.79,2996.5 3281.74,2709.52 3502.7,2709.52 z M 2952.77,2735.28 L 2665.21,2735.28 L 2665.21,3447.24 C 2667,3452.21 2668.88,3457.24 2670.72,3462.25 C 2683.59,3458.69 2697.13,3457.24 2710.43,3457.97 C 2736.58,3459.43 2760.07,3474.23 2772.69,3497.23 C 2784.02,3518.06 2789.46,3541.55 2788.29,3565.13 C 2787.82,3574.99 2785.23,3584.62 2780.62,3593.5 C 2769.55,3614.97 2752.31,3632.84 2731.03,3644.8 C 2738.26,3668.99 2745.11,3693.5 2751.67,3718.07 C 2764.11,3764.98 2770,3813.32 2769.09,3861.89 C 2768.75,3874.38 2766.17,3886.68 2761.08,3898.19 C 2755.87,3909.96 2746.84,3919.61 2735.45,3925.38 C 2727.22,3929.78 2717.48,3930.46 2708.7,3927.25 C 2700,3924.36 2692.81,3917.85 2688.83,3909.42 C 2684.24,3899.53 2681.93,3888.8 2682.25,3878 C 2682.47,3871.91 2685.33,3866.25 2690.24,3862.58 C 2696.39,3858.07 2704,3855.74 2711.67,3856.03 C 2716.71,3856.26 2721.21,3859.15 2723.49,3863.8 C 2725.71,3868.29 2725.39,3873.67 2722.63,3877.84 C 2719.01,3882.91 2714.06,3886.87 2708.04,3888.67 L 2710.1,3893.15 C 2711.05,3895.68 2713.17,3897.61 2715.77,3898.2 C 2718.31,3898.81 2721.11,3898.19 2723.13,3896.31 C 2733.05,3888.04 2739.33,3875.96 2740.32,3862.91 C 2741.82,3840.51 2741.34,3818.1 2738.94,3795.73 C 2731.89,3748.14 2721.6,3701.02 2707.82,3654.89 C 2704.33,3655.96 2700.74,3656.94 2697.16,3657.73 C 2686.57,3660.11 2675.95,3662.03 2665.21,3663.24 L 2665.21,3961.31 L 2857.64,3961.31 L 2857.64,4001.32 L 2876.81,4001.32 L 2876.81,3961.31 L 2917.78,3961.31 L 2917.78,3942.35 L 2876.81,3942.35 L 2876.81,3512.3 L 2895.17,3512.3 L 3063.28,3961.31 L 3247.71,3961.31 L 3264.36,4003.87 L 3282.1,3997.07 L 3265.6,3954.69 L 3323.06,3954.69 L 3323.06,3935.56 L 3258.1,3935.56 L 3059.41,3428.53 C 3132.58,3353.09 3174.45,3239.52 3174.45,3095.33 C 3174.45,2902.2 3122.26,2735.28 2952.77,2735.28 z M 2699.43,3628.01 C 2688.53,3632.49 2677,3635.52 2665.21,3636.91 L 2665.21,3528.28 C 2677.03,3561.14 2688.42,3594.41 2699.3,3627.61 C 2699.41,3627.75 2699.43,3627.8 2699.43,3628.01 C 2699.43,3628.01 2699.43,3628.01 2699.43,3628.01 C 2699.43,3628.01 2699.43,3628.01 2699.43,3628.01 C 2699.43,3628.01 2699.43,3628.01 2699.43,3628.01 M 2681.36,3491.87 C 2685.09,3490.81 2688.98,3490.04 2692.81,3489.23 C 2704.8,3486.93 2717.2,3489.9 2726.98,3497.23 C 2735.79,3503.99 2742.21,3513.33 2745.11,3524.12 C 2751.51,3547.88 2750.18,3573.37 2741.09,3596.31 C 2739.15,3601.19 2736.07,3605.46 2732.02,3608.74 C 2728.95,3611.25 2725.69,3613.56 2722.36,3615.78 C 2709.68,3574.19 2695.97,3532.77 2681.36,3491.87 M 2665.21,3636.91 C 2662.2,3637.31 2659.14,3637.62 2656.13,3637.69 C 2623.04,3639.46 2592.22,3620.79 2578.78,3590.53 C 2554.73,3536.82 2551.32,3476.31 2568.91,3420.27 C 2575.22,3400.54 2581.48,3380.86 2588.18,3361.33 C 2589.95,3355.96 2591.87,3350.56 2593.81,3345.19 C 2611.5,3387.28 2628.5,3429.81 2644.71,3472.7 C 2621.66,3484.99 2602.97,3504.21 2591.5,3527.66 C 2589.55,3531.57 2590.25,3536.22 2593.32,3539.34 C 2596.34,3542.45 2600.99,3543.35 2604.93,3541.55 C 2608.36,3539.03 2611.46,3536.19 2614.33,3533.18 C 2625.9,3520.22 2640.02,3509.59 2655.45,3501.75 C 2658.8,3510.66 2662,3519.46 2665.21,3528.28 L 2665.21,3447.24 C 2649.84,3406.33 2633.62,3365.75 2616.52,3325.36 C 2613.65,3318.77 2610.8,3312.08 2607.8,3305.52 C 2611.42,3295.69 2615.06,3285.92 2618.69,3276.25 C 2623.96,3262.34 2628,3248.04 2630.72,3233.38 C 2633.77,3216.85 2632.4,3199.66 2626.7,3183.95 C 2613.65,3147.9 2588.7,3117.35 2555.85,3097.68 C 2541.38,3089.03 2524.74,3084.74 2507.98,3085.44 C 2493.85,3085.86 2482.38,3097.04 2481.59,3111.09 C 2480.96,3123.88 2483.79,3136.74 2490.17,3147.83 C 2496.02,3158.16 2502.26,3168.23 2509.03,3177.95 C 2529.77,3208.11 2547.82,3239.98 2562.69,3273.45 C 2565.6,3280.04 2568.54,3286.6 2571.43,3293.23 C 2566.91,3305.84 2562.49,3318.36 2558.02,3330.93 C 2537.79,3389.26 2524.74,3449.93 2519.17,3511.34 C 2516.53,3540.44 2519.12,3569.7 2526.79,3597.79 C 2537.37,3636.5 2571.66,3663.68 2611.62,3665.47 C 2629.52,3666.07 2647.46,3665.47 2665.21,3663.24 L 2665.21,3636.91 M 2926.72,2684.14 L 2629.45,2684.14 L 2629.45,2637.86 L 2610.28,2637.86 L 2610.28,2684.14 L 2565.83,2684.14 L 2565.83,2703.28 L 2610.28,2703.28 L 2610.28,2916.03 L 2629.45,2916.03 L 2629.45,2703.28 L 2926.72,2703.28 L 2926.72,2684.14"
   id="path245"
   style="fill:black" />
   <path
   d="M 6624.47,3262.93 L 6405.4,3262.93 L 6307.42,3421.36 L 6209.51,3262.93 L 5990.39,3262.93 L 6031.52,3329.42 C 5947.84,3258.43 5835.83,3230.56 5728.68,3254.01 C 5621.55,3277.65 5531.45,3349.81 5485.31,3449.36 C 5443.99,3356.8 5366.12,3287.52 5271.87,3259.49 C 5177.68,3231.32 5076.4,3247.29 4994.41,3303.07 L 4994.41,3040.37 L 4808.3,3040.37 L 4808.3,3929.05 L 4994.41,3929.05 L 4994.41,3893.15 C 5076.56,3949.12 5178.06,3965 5272.38,3936.74 C 5366.71,3908.63 5444.55,3838.93 5485.82,3746.02 C 5532.39,3846 5623.31,3918.13 5731.26,3940.99 C 5839.07,3963.85 5951.46,3934.74 6034.63,3862.44 L 5990.74,3933.48 L 6209.84,3933.48 L 6307.42,3775.58 L 6405,3933.48 L 6624.09,3933.48 L 6417.04,3598.51 L 6624.47,3262.93 L 6624.47,3262.93 z "
   id="path247"
   style="fill:#bac3cc" />
   <path
   d="M 5325.24,3597.29 C 5325.24,3505.93 5251.23,3431.79 5159.86,3431.79 C 5068.47,3431.79 4994.41,3505.93 4994.41,3597.29 C 4994.41,3688.59 5068.47,3762.66 5159.86,3762.66 C 5251.23,3762.66 5325.24,3688.59 5325.24,3597.29 z M 6145.27,3513.35 C 6159.18,3569.89 6158.81,3628.97 6144.2,3685.15 L 6197.87,3598.51 L 6145.27,3513.35 M 5969.49,3597.29 C 5969.49,3505.93 5895.42,3431.79 5804.13,3431.79 C 5712.75,3431.79 5638.67,3505.93 5638.67,3597.29 C 5638.67,3688.59 5712.75,3762.66 5804.13,3762.66 C 5895.42,3762.66 5969.49,3688.59 5969.49,3597.29 z "
   id="path249"
   style="fill:black" />
   <path
   d="M 2823.07,3942.35 L 2857.64,3942.35 L 2857.64,3512.3 L 2823.07,3512.3 L 2823.07,3942.35 M 2894.43,3241.44 C 2952.88,3241.44 2962.02,3167.3 2961.91,3116.57 C 2961.88,3065.79 2954.56,3010.75 2903.65,3010.75 L 2823.07,3010.75 L 2823.07,3291.22 L 2857.64,3291.22 L 2857.64,3241.44 L 2894.43,3241.44 z M 2894.43,3260.43 L 2876.81,3260.43 L 2876.81,3291.22 L 2878,3291.22 C 3007.97,3291.22 3007.97,3174.82 3007.97,3134.46 L 3007.97,3108.17 C 3007.97,3069.03 3007.74,2960.81 2898.26,2960.81 L 2823.07,2960.81 L 2823.07,2991.65 L 2894.43,2991.65 C 2931.66,2991.65 2981.6,2996.97 2981.6,3121.49 C 2981.6,3246.17 2931.37,3259.49 2894.43,3260.43 L 2894.43,3260.43 z M 2584.86,3257.07 C 2569.96,3227.21 2553.7,3197.77 2536.4,3169.43 C 2530.82,3160.39 2525.81,3150.92 2521.42,3141.35 C 2518.46,3135.03 2516.78,3128.26 2516.34,3121.28 C 2516.25,3119.82 2516.76,3118.39 2517.83,3117.33 C 2518.82,3116.23 2520.26,3115.67 2521.67,3115.67 C 2528.97,3115.96 2535.85,3117.92 2542,3121.66 C 2568.58,3137.53 2587.45,3163.53 2594.4,3193.56 C 2596.37,3202.36 2596.42,3211.47 2594.61,3220.25 C 2591.87,3232.61 2588.7,3244.94 2584.86,3257.07 L 2584.86,3257.07 M 5799.57,3734.73 L 5808.53,3734.73 C 5883.55,3732.16 5942.73,3670.05 5941.49,3594.93 C 5940.32,3519.98 5879.09,3459.81 5804.13,3459.81 C 5729.02,3459.81 5667.9,3519.98 5666.62,3594.93 C 5665.45,3670.05 5724.5,3732.16 5799.57,3734.73 z M 5155.27,3734.73 L 5164.26,3734.73 C 5239.35,3732.16 5298.54,3670.05 5297.24,3594.93 C 5296.05,3519.98 5234.8,3459.81 5159.86,3459.81 C 5084.77,3459.81 5023.61,3519.98 5022.34,3594.93 C 5021.09,3670.05 5080.31,3732.16 5155.27,3734.73 L 5155.27,3734.73 z M 4724.37,3302.4 L 4780.31,3447.12 L 4780.31,3170.53 L 4724.37,3302.4 M 4733.6,3940.43 L 4581.69,3511.56 L 4599.43,3468.12 L 4775.06,3940.43 L 4733.6,3940.43 M 3502.7,2940.48 C 3609.09,2940.48 3654.36,3132.72 3654.36,3348.29 C 3654.36,3563.8 3609.09,3756.07 3502.7,3756.07 C 3396.43,3756.07 3351.09,3572.96 3351.09,3348.29 C 3351.09,3123.62 3396.43,2940.48 3502.7,2940.48 L 3502.7,2940.48 z "
   id="path251"
   style="fill:#dfe5eb" />
   <path
   d="M 5799.57,3734.73 C 5802.55,3734.85 5805.6,3734.85 5808.53,3734.73 L 5808.53,3722.01 C 5876.66,3719.6 5930.11,3663.03 5928.88,3594.93 C 5927.63,3526.77 5872.03,3472.39 5804.02,3472.39 C 5802.35,3472.39 5800.99,3473.23 5800.17,3474.62 C 5799.37,3476.13 5799.37,3477.84 5800.17,3479.18 C 5800.95,3480.64 5802.35,3481.53 5804.02,3481.53 C 5845.9,3481.38 5884.6,3504.12 5905.04,3540.61 C 5925.6,3577.15 5924.64,3622.01 5902.83,3657.73 C 5880.97,3693.5 5841.43,3714.65 5799.57,3712.96 L 5799.57,3734.73 L 5799.57,3734.73 z M 5159.86,3700.42 C 5157.37,3700.42 5155.27,3698.47 5155.27,3695.94 C 5155.27,3693.5 5157.37,3691.44 5159.86,3691.44 C 5211.8,3691.44 5253.95,3649.28 5253.95,3597.29 C 5253.95,3545.35 5211.8,3503.11 5159.86,3503.11 C 5157.37,3503.11 5155.27,3501.13 5155.27,3498.64 C 5155.27,3496.14 5157.37,3494.08 5159.86,3494.08 C 5216.79,3494.08 5262.98,3540.27 5262.98,3597.29 C 5262.98,3654.28 5216.79,3700.42 5159.86,3700.42 L 5159.86,3700.42 z M 5804.13,3700.42 C 5801.53,3700.42 5799.57,3698.47 5799.57,3695.94 C 5799.57,3693.5 5801.53,3691.44 5804.13,3691.44 C 5856.13,3691.44 5898.17,3649.28 5898.17,3597.29 C 5898.17,3545.35 5856.13,3503.11 5804.13,3503.11 C 5801.53,3503.11 5799.57,3501.13 5799.57,3498.64 C 5799.57,3496.14 5801.53,3494.08 5804.13,3494.08 C 5861.05,3494.08 5907.25,3540.27 5907.25,3597.29 C 5907.25,3654.28 5861.05,3700.42 5804.13,3700.42 L 5804.13,3700.42 z M 5155.27,3734.73 C 5158.32,3734.8 5161.36,3734.8 5164.26,3734.73 L 5164.26,3722.01 C 5232.38,3719.6 5285.83,3663.03 5284.62,3594.93 C 5283.44,3526.77 5227.9,3472.39 5159.68,3472.39 C 5158.15,3472.39 5156.78,3473.23 5155.93,3474.62 C 5155.11,3476.13 5155.11,3477.84 5155.93,3479.18 C 5156.78,3480.64 5158.15,3481.53 5159.68,3481.53 C 5201.63,3481.38 5240.3,3504.12 5260.82,3540.61 C 5281.35,3577.15 5280.4,3622.01 5258.66,3657.73 C 5236.71,3693.5 5197.21,3714.65 5155.27,3712.96 L 5155.27,3734.73 z M 3502.7,3698.83 L 3502.7,3651.58 L 3483.67,3651.58 L 3483.67,3701.87 L 3483.67,3720.87 C 3586.87,3720.87 3617.19,3545.65 3617.83,3357.84 L 4052.41,3357.84 C 4053.36,3490.07 4082.36,3692.35 4168.63,3706.33 L 4168.63,3756.07 L 4187.78,3756.07 L 4187.78,3357.84 L 4263.8,3357.84 L 4263.8,3338.7 L 4187.78,3338.7 L 4187.78,3269.89 L 4168.63,3269.89 L 4168.63,3338.7 L 4071.54,3338.7 C 4073.54,3207.75 4110.18,3016.14 4178.23,3013.1 L 4178.23,2993.99 C 4088.95,2997.43 4054.29,3201.89 4052.41,3338.7 L 3617.83,3338.7 C 3616.65,3151.87 3586.4,2977.95 3483.67,2977.95 L 3483.67,2996.26 L 3483.67,3338.7 L 3425.24,3338.7 L 3425.24,3357.84 L 3483.67,3357.84 L 3483.67,3424.52 L 3502.7,3424.52 L 3502.7,3357.84 L 3598.74,3357.84 C 3597.81,3478.1 3582.65,3672.25 3502.7,3698.83 L 3502.7,3698.83 z "
   id="path253"
   style="fill:black" />
   <path
   d="M 4071.48,3357.84 C 4072.68,3482.98 4104.41,3669.81 4168.63,3686.81 L 4168.63,3357.84 L 4071.48,3357.84 z M 3598.79,3338.7 L 3502.7,3338.7 L 3502.7,2999.46 C 3582.2,3025.85 3598.2,3218.42 3598.79,3338.7 L 3598.79,3338.7 z "
   id="path255"
   style="fill:#dfe5eb" />
  </g><path
     d="M 1760.8997,5453.9692 L 1760.8997,5355.9292 C 1762.4897,5355.7392 1764.2497,5355.5392 1766.0797,5355.4492 C 1767.9097,5355.3492 1770.6697,5355.3492 1774.3797,5355.3492 C 1806.8397,5355.3492 1830.8697,5366.7992 1846.5897,5389.5792 C 1862.3197,5412.3692 1870.1497,5447.3592 1870.1497,5494.3492 C 1870.1497,5522.0592 1867.2597,5545.7892 1861.5497,5565.5492 C 1855.7797,5585.3092 1847.0597,5601.2892 1835.4597,5613.4892 C 1827.2197,5621.9992 1815.6697,5628.0492 1800.9497,5631.7392 C 1786.2197,5635.4292 1762.8997,5637.3092 1730.9197,5637.3092 C 1698.9397,5637.3092 1675.6197,5635.4292 1660.8897,5631.7392 C 1646.1697,5628.0492 1634.6197,5621.9992 1626.3797,5613.4892 C 1614.8297,5601.4792 1606.2297,5585.6992 1600.3997,5566.1092 C 1594.5697,5546.5392 1591.6897,5523.1992 1591.6897,5496.0492 C 1591.6897,5449.3492 1599.7597,5414.3692 1615.9497,5391.0092 C 1632.0897,5367.6492 1656.2997,5355.9292 1688.5097,5355.9292 L 1691.0997,5355.9292 L 1690.9297,5452.8492 C 1672.8497,5453.2192 1660.1797,5456.5192 1652.8797,5462.7692 C 1645.5797,5469.1092 1641.9297,5479.5892 1641.9297,5494.4392 C 1641.9297,5510.4192 1646.3997,5521.4992 1655.2997,5527.3592 C 1664.1897,5533.3092 1687.7497,5536.2292 1725.9097,5536.2292 L 1730.9197,5536.2292 C 1771.9697,5536.2292 1797.1197,5533.3092 1806.3697,5527.3592 C 1815.6097,5521.4992 1820.2697,5510.5092 1820.2697,5494.4392 C 1820.2697,5479.4192 1816.9097,5469.0092 1810.1897,5462.9592 C 1803.4197,5457.0092 1790.9297,5453.9692 1772.6197,5453.9692 L 1760.8997,5453.9692 z M 1754.8897,5115.1892 L 1706.9497,5115.1892 C 1677.4997,5115.1892 1659.2997,5118.2092 1652.3497,5124.1692 C 1645.3997,5130.2192 1641.9297,5141.0092 1641.9297,5156.7092 C 1641.9297,5172.0292 1645.5197,5182.6992 1652.6497,5188.5592 C 1659.7697,5194.5192 1677.8497,5197.4592 1706.9497,5197.4592 L 1754.8897,5197.4592 C 1783.6297,5197.4592 1801.6497,5194.5192 1808.9597,5188.5592 C 1816.2597,5182.6992 1819.9097,5171.9292 1819.9097,5156.2292 C 1819.9097,5140.6192 1816.3197,5129.9492 1809.1897,5124.0892 C 1802.0697,5118.1292 1783.9897,5115.1892 1754.8897,5115.1892 z M 1730.9197,5299.0992 C 1698.9397,5299.0992 1675.6197,5297.2192 1660.8897,5293.5192 C 1646.1697,5289.8292 1634.6197,5283.7792 1626.3797,5275.2692 C 1614.6597,5263.0692 1605.9397,5247.0992 1600.2297,5227.3292 C 1594.5097,5207.5692 1591.6897,5183.8392 1591.6897,5156.1292 C 1591.6897,5128.3392 1594.5097,5104.5992 1600.2297,5085.1192 C 1605.9397,5065.6492 1614.6597,5049.8492 1626.3797,5037.6492 C 1634.7397,5028.7692 1646.3397,5022.5292 1661.0697,5018.8292 C 1675.7897,5015.1592 1699.0597,5013.2592 1730.9197,5013.2592 C 1762.6597,5013.2592 1785.9297,5015.1592 1800.7097,5018.8292 C 1815.4897,5022.5292 1827.0997,5028.7692 1835.4597,5037.6492 C 1847.0597,5049.6592 1855.7797,5065.4592 1861.5497,5085.1192 C 1867.2597,5104.7892 1870.1497,5128.5192 1870.1497,5156.1292 C 1870.1497,5183.8392 1867.2597,5207.5692 1861.5497,5227.3292 C 1855.7797,5247.0992 1847.0597,5263.0692 1835.4597,5275.2692 C 1827.2197,5283.7792 1815.6697,5289.8292 1800.9497,5293.5192 C 1786.2197,5297.2192 1762.8997,5299.0992 1730.9197,5299.0992 z M 1863.7897,4732.6292 L 1863.7897,4952.2692 L 1598.0497,4952.2692 L 1598.0497,4852.5292 L 1810.1397,4852.5292 L 1810.1397,4732.6292 L 1863.7897,4732.6292 L 1863.7897,4732.6292 z M 1754.8897,4533.4992 L 1706.9497,4533.4992 C 1677.4997,4533.4992 1659.2997,4536.5092 1652.3497,4542.4692 C 1645.3997,4548.5192 1641.9297,4559.3092 1641.9297,4575.0092 C 1641.9297,4590.3292 1645.5197,4600.9992 1652.6497,4606.8592 C 1659.7697,4612.8192 1677.8497,4615.7592 1706.9497,4615.7592 L 1754.8897,4615.7592 C 1783.6297,4615.7592 1801.6497,4612.8192 1808.9597,4606.8592 C 1816.2597,4600.9992 1819.9097,4590.2292 1819.9097,4574.5292 C 1819.9097,4558.9292 1816.3197,4548.2492 1809.1897,4542.3892 C 1802.0697,4536.4292 1783.9897,4533.4992 1754.8897,4533.4992 z M 1730.9197,4717.3992 C 1698.9397,4717.3992 1675.6197,4715.5192 1660.8897,4711.8292 C 1646.1697,4708.1392 1634.6197,4702.0792 1626.3797,4693.5692 C 1614.6597,4681.3692 1605.9397,4665.3992 1600.2297,4645.6392 C 1594.5097,4625.8692 1591.6897,4602.1392 1591.6897,4574.4292 C 1591.6897,4546.6392 1594.5097,4522.8992 1600.2297,4503.4292 C 1605.9397,4483.9492 1614.6597,4468.1592 1626.3797,4455.9492 C 1634.7397,4447.0792 1646.3397,4440.8292 1661.0697,4437.1392 C 1675.7897,4433.4592 1699.0597,4431.5692 1730.9197,4431.5692 C 1762.6597,4431.5692 1785.9297,4433.4592 1800.7097,4437.1392 C 1815.4897,4440.8292 1827.0997,4447.0792 1835.4597,4455.9492 C 1847.0597,4467.9592 1855.7797,4483.7592 1861.5497,4503.4292 C 1867.2597,4523.0892 1870.1497,4546.8192 1870.1497,4574.4292 C 1870.1497,4602.1392 1867.2597,4625.8692 1861.5497,4645.6392 C 1855.7797,4665.3992 1847.0597,4681.3692 1835.4597,4693.5692 C 1827.2197,4702.0792 1815.6697,4708.1392 1800.9497,4711.8292 C 1786.2197,4715.5192 1762.8997,4717.3992 1730.9197,4717.3992 z M 1708.6597,4271.9592 C 1708.6597,4270.2492 1708.7197,4268.0892 1708.8297,4265.4392 C 1708.9497,4262.7892 1709.0097,4260.7992 1709.0097,4259.4792 C 1709.0097,4238.7692 1706.4197,4224.1092 1701.2397,4215.5092 C 1696.0497,4206.8992 1687.3397,4202.6492 1675.0297,4202.6492 C 1663.5997,4202.6492 1655.5297,4206.8992 1650.7597,4215.5092 C 1645.9897,4224.1092 1643.5797,4238.7692 1643.5797,4259.4792 C 1643.5797,4260.7992 1643.6297,4262.7892 1643.7497,4265.4392 C 1643.8697,4268.0892 1643.9297,4270.2492 1643.9297,4271.9592 L 1708.6597,4271.9592 L 1708.6597,4271.9592 z M 1863.7897,4370.5792 L 1598.0497,4370.5792 L 1598.0497,4258.3392 C 1598.0497,4221.6592 1599.1097,4194.8892 1601.2297,4178.3592 C 1603.3497,4161.7092 1606.9997,4148.1892 1612.1797,4137.8892 C 1618.4297,4125.6792 1626.0797,4116.6092 1635.1497,4110.5592 C 1644.2197,4104.5992 1655.0597,4101.5692 1667.6097,4101.5692 C 1682.8597,4101.5692 1695.6997,4105.8292 1706.0597,4114.4292 C 1716.4297,4123.0392 1724.9097,4136.3792 1731.6297,4154.4392 C 1740.1097,4123.6092 1760.3097,4107.4292 1792.1697,4105.7292 C 1792.6397,4105.7292 1792.9397,4105.7292 1793.0597,4105.7292 C 1796.3497,4105.5492 1801.1797,4105.3592 1807.5397,4105.1692 C 1837.4597,4104.4092 1856.1897,4096.4692 1863.7897,4081.3392 L 1863.7897,4197.9292 C 1858.2497,4200.5792 1852.4797,4202.4692 1846.4697,4203.6892 C 1840.4097,4204.8292 1833.9297,4205.4892 1827.0397,4205.4892 C 1822.7997,4205.4892 1817.6197,4205.2992 1811.6097,4204.9292 C 1805.5397,4204.5392 1801.5997,4204.3492 1799.7697,4204.3492 C 1783.5097,4204.3492 1772.4397,4207.7492 1766.4297,4214.5592 C 1760.4897,4221.4592 1757.4797,4233.7592 1757.4797,4251.4392 L 1757.4797,4271.9592 L 1863.7897,4271.9592 L 1863.7897,4370.5792 L 1863.7897,4370.5792 z M 1773.6797,3899.0292 L 1773.6797,3807.5992 L 1781.4497,3807.5992 C 1796.0597,3807.5992 1806.3697,3804.8492 1812.3697,3799.2792 C 1818.3197,3793.7892 1821.3297,3784.4292 1821.3297,3771.3792 C 1821.3297,3760.8792 1819.0297,3752.5692 1814.4897,3746.5092 C 1809.9597,3740.3592 1803.7697,3737.3492 1795.9397,3737.3492 C 1783.0397,3737.3492 1770.7297,3752.1992 1758.8397,3781.9792 C 1756.7697,3786.7892 1755.2397,3790.4892 1754.1797,3793.0392 C 1753.8297,3793.9892 1753.2397,3795.4892 1752.2997,3797.7592 C 1735.5097,3837.7692 1722.8497,3862.7292 1714.3697,3872.5592 C 1707.8897,3879.5592 1700.6497,3884.8492 1692.6397,3888.5492 C 1684.5697,3892.2192 1675.7297,3894.1192 1666.1897,3894.1192 C 1642.9897,3894.1192 1624.7297,3883.3392 1611.5397,3861.6892 C 1598.2797,3840.1292 1591.6897,3810.3492 1591.6897,3772.5192 C 1591.6897,3731.2892 1598.1697,3699.9092 1611.1797,3678.1492 C 1624.1997,3656.4992 1642.9897,3645.6292 1667.6097,3645.6292 C 1668.6697,3645.6292 1670.0797,3645.7192 1671.9597,3645.9192 C 1673.7897,3646.0892 1675.1997,3646.1892 1676.2597,3646.1892 L 1676.2597,3735.6392 L 1672.9597,3735.6392 C 1661.3597,3735.6392 1652.5297,3738.5792 1646.5797,3744.3492 C 1640.5697,3750.2092 1637.5697,3758.6192 1637.5697,3769.7792 C 1637.5697,3779.1392 1639.6897,3786.7892 1643.8697,3792.4792 C 1648.0497,3798.2392 1653.6497,3801.0792 1660.5397,3801.0792 C 1671.7897,3801.0792 1683.7397,3784.8192 1696.4097,3752.2892 C 1698.8197,3746.4192 1700.7097,3741.8892 1701.9397,3738.7592 C 1702.8797,3736.1092 1704.2997,3732.5292 1706.2397,3727.8892 C 1720.0797,3692.9992 1731.6797,3670.6892 1741.1097,3660.8492 C 1747.2297,3654.7892 1754.1197,3650.0692 1761.8997,3646.8592 C 1769.6697,3643.6392 1778.0997,3642.0292 1787.1697,3642.0292 C 1813.7297,3642.0292 1834.2197,3653.0892 1848.5897,3675.2192 C 1862.9697,3697.4392 1870.1497,3729.1292 1870.1497,3770.2592 C 1870.1497,3813.4592 1863.2597,3845.8892 1849.5397,3867.6392 C 1835.7597,3889.2992 1815.3197,3900.1692 1788.1697,3900.1692 C 1786.4597,3900.1692 1784.6297,3900.1692 1782.7497,3900.0692 C 1780.8597,3899.9792 1777.7997,3899.6092 1773.6797,3899.0292 L 1773.6797,3899.0292 z M 1754.8897,3413.0192 L 1706.9497,3413.0192 C 1677.4997,3413.0192 1659.2997,3416.0292 1652.3497,3421.9892 C 1645.3997,3428.0392 1641.9297,3438.8292 1641.9297,3454.5292 C 1641.9297,3469.8492 1645.5197,3480.5192 1652.6497,3486.3792 C 1659.7697,3492.3392 1677.8497,3495.2792 1706.9497,3495.2792 L 1754.8897,3495.2792 C 1783.6297,3495.2792 1801.6497,3492.3392 1808.9597,3486.3792 C 1816.2597,3480.5192 1819.9097,3469.7492 1819.9097,3454.0492 C 1819.9097,3438.4492 1816.3197,3427.7692 1809.1897,3421.9092 C 1802.0697,3415.9492 1783.9897,3413.0192 1754.8897,3413.0192 z M 1730.9197,3596.9192 C 1698.9397,3596.9192 1675.6197,3595.0392 1660.8897,3591.3492 C 1646.1697,3587.6592 1634.6197,3581.5992 1626.3797,3573.0892 C 1614.6597,3560.8892 1605.9397,3544.9192 1600.2297,3525.1592 C 1594.5097,3505.3892 1591.6897,3481.6592 1591.6897,3453.9592 C 1591.6897,3426.1692 1594.5097,3402.4192 1600.2297,3382.9492 C 1605.9397,3363.4692 1614.6597,3347.6792 1626.3797,3335.4692 C 1634.7397,3326.5992 1646.3397,3320.3492 1661.0697,3316.6592 C 1675.7897,3312.9792 1699.0597,3311.0892 1730.9197,3311.0892 C 1762.6597,3311.0892 1785.9297,3312.9792 1800.7097,3316.6592 C 1815.4897,3320.3492 1827.0997,3326.5992 1835.4597,3335.4692 C 1847.0597,3347.4792 1855.7797,3363.2792 1861.5497,3382.9492 C 1867.2597,3402.6092 1870.1497,3426.3392 1870.1497,3453.9592 C 1870.1497,3481.6592 1867.2597,3505.3892 1861.5497,3525.1592 C 1855.7797,3544.9192 1847.0597,3560.8892 1835.4597,3573.0892 C 1827.2197,3581.5992 1815.6697,3587.6592 1800.9497,3591.3492 C 1786.2197,3595.0392 1762.8997,3596.9192 1730.9197,3596.9192 z M 1598.0497,3250.0992 L 1598.0497,3149.3092 L 1764.5497,3149.3092 C 1789.7597,3149.3092 1805.3097,3146.7592 1811.3097,3141.6492 C 1817.2597,3136.6392 1820.2697,3127.5492 1820.2697,3114.5992 C 1820.2697,3101.5592 1817.1397,3092.4792 1810.9597,3087.4692 C 1804.7197,3082.4592 1789.2897,3079.9992 1764.5497,3079.9992 L 1598.0497,3079.9992 L 1598.0497,2981.0892 L 1767.6697,2981.0892 C 1786.8697,2981.0892 1801.1797,2982.4192 1810.7197,2985.0692 C 1820.2097,2987.7992 1828.4497,2992.1492 1835.4597,2998.2992 C 1847.4197,3008.4192 1856.1897,3023.0692 1861.7897,3042.3692 C 1867.3797,3061.5592 1870.1497,3086.5192 1870.1497,3117.4392 C 1870.1497,3145.8092 1867.5597,3168.9692 1862.3197,3186.9392 C 1857.0797,3204.8092 1848.7097,3219.0992 1837.1697,3229.5792 C 1829.0397,3237.1392 1818.5597,3242.4392 1805.7797,3245.5692 C 1792.9997,3248.5892 1771.4397,3250.0992 1741.0497,3250.0992 L 1598.0497,3250.0992 L 1598.0497,3250.0992 z M 1863.7897,2911.8792 L 1598.0497,2911.8792 L 1598.0497,2807.9792 L 1761.9597,2725.0392 C 1734.3897,2728.4392 1710.5397,2730.9192 1690.5197,2732.4292 C 1670.5497,2734.0292 1653.5897,2734.7892 1639.8097,2734.7892 L 1598.0497,2734.7892 L 1598.0497,2645.9092 L 1863.7897,2645.9092 L 1863.7897,2749.9992 L 1694.8697,2833.4992 C 1716.8397,2829.8092 1738.1597,2826.9692 1758.7797,2825.0892 C 1779.4497,2823.0992 1799.4697,2822.1492 1818.9097,2822.1492 L 1863.7897,2822.1492 L 1863.7897,2911.8792 L 1863.7897,2911.8792 z M 1647.5797,2475.7992 L 1815.3197,2475.7992 C 1815.5497,2473.8192 1815.6697,2471.8292 1815.6697,2470.0292 C 1815.6697,2468.1392 1815.6697,2465.3092 1815.6697,2461.4292 C 1815.6697,2450.7492 1814.7297,2441.7592 1812.8997,2434.6692 C 1811.0797,2427.5892 1808.1297,2421.8092 1804.1297,2417.3792 C 1800.8897,2413.6792 1794.6497,2411.2292 1785.4597,2409.7992 C 1776.2697,2408.3792 1758.1897,2407.7292 1731.2697,2407.7292 L 1719.1997,2407.7292 C 1697.1097,2407.7292 1682.1497,2408.3792 1674.4397,2409.6192 C 1666.6597,2410.9392 1661.2997,2413.3892 1658.4197,2416.8892 C 1654.6497,2420.7792 1651.8197,2426.4492 1649.9997,2433.9092 C 1648.1697,2441.3892 1647.2297,2450.9292 1647.2297,2462.5692 C 1647.2297,2466.0692 1647.2297,2468.7192 1647.2897,2470.6892 C 1647.3397,2472.5892 1647.4597,2474.2892 1647.5797,2475.7992 L 1647.5797,2475.7992 z M 1863.7897,2576.1192 L 1598.0497,2576.1192 L 1598.0497,2466.1592 C 1598.0497,2425.8792 1600.2297,2396.0892 1604.5297,2376.7092 C 1608.8297,2357.3292 1616.2497,2341.9192 1626.6697,2330.4692 C 1634.8597,2321.5792 1645.3997,2315.3492 1658.3597,2311.6592 C 1671.3197,2307.9592 1695.4597,2306.0692 1730.9197,2306.0692 C 1766.3697,2306.0692 1790.5197,2307.9592 1803.4197,2311.6592 C 1816.2597,2315.3492 1826.8597,2321.5792 1835.1697,2330.4692 C 1845.5897,2341.9192 1853.0097,2357.3292 1857.3097,2376.7092 C 1861.6097,2396.0892 1863.7897,2425.8792 1863.7897,2466.1592 L 1863.7897,2576.1192 L 1863.7897,2576.1192 z "
     id="path8922"
     style="fill:url(#linearGradient9070);stroke:black;stroke-width:20" /></g><g
   id="g10521"
   transform="translate(-1062.235,32.28116)"><path
   d="M 8798.19,5645.8 C 8784.62,5592.09 8754.33,5544.09 8711.69,5508.73 L 8711.69,6612.93 C 8754.33,6577.57 8784.62,6529.57 8798.19,6475.86 L 8798.19,5645.8 L 8798.19,5645.8 L 8798.19,5645.8 L 8798.19,5645.8 L 8798.19,5645.8 L 8798.19,5645.8 L 8798.19,5645.8 L 8798.19,5645.8 z "
   id="path10652"
   style="fill:url(#linearGradient10683);stroke:black;stroke-width:18;stroke-linejoin:bevel" /><path
   d="M 8798.19,3832.63 C 8784.62,3778.93 8754.33,3730.92 8711.69,3695.56 L 8711.69,4799.76 C 8754.33,4764.4 8784.62,4716.4 8798.19,4662.69 L 8798.19,3832.63 L 8798.19,3832.63 L 8798.19,3832.63 L 8798.19,3832.63 L 8798.19,3832.63 L 8798.19,3832.63 L 8798.19,3832.63 L 8798.19,3832.63 z "
   id="path10654"
   style="fill:url(#linearGradient10685);stroke:black;stroke-width:18;stroke-linejoin:bevel" /><path
   d="M 8798.19,1471.52 C 8784.62,1417.81 8754.33,1369.81 8711.69,1334.45 L 8711.69,2750.85 C 8754.33,2715.49 8784.62,2667.49 8798.19,2613.78 L 8798.19,1471.52 L 8798.19,1471.52 L 8798.19,1471.52 L 8798.19,1471.52 L 8798.19,1471.52 L 8798.19,1471.52 L 8798.19,1471.52 L 8798.19,1471.52 z "
   id="path10656"
   style="fill:url(#linearGradient10687);stroke:black;stroke-width:18;stroke-linejoin:bevel" /><path
   d="M 8798.19,1931.96 L 8889.92,1931.96 C 8893.75,1931.96 8897.43,1933.48 8900.15,1936.19 C 8902.86,1938.91 8904.38,1942.59 8904.38,1946.42 L 8904.38,2138.88 C 8904.38,2146.86 8897.91,2153.34 8889.92,2153.34 L 8798.19,2153.34 L 8798.19,1931.96 z "
   id="path10658"
   style="fill:url(#linearGradient10689);stroke:black;stroke-width:0;stroke-linejoin:bevel" /><text
   sodipodi:linespacing="100%"
   id="text1573"
   y="8343.1211"
   x="9476.6211"
   style="font-size:790.222229px;font-style:normal;font-variant:normal;font-weight:normal;font-stretch:normal;text-align:start;line-height:100%;writing-mode:lr-tb;text-anchor:start;fill:black;fill-opacity:1;stroke:none;stroke-width:1px;stroke-linecap:butt;stroke-linejoin:miter;stroke-opacity:1;font-family:URW Palladio L"
   xml:space="preserve"><tspan
     y="8343.1211"
     x="9476.6211"
     id="tspan1575"
     sodipodi:role="line">Right</tspan></text>

<text
   sodipodi:linespacing="100%"
   id="text1577"
   y="8427.5869"
   x="-2340.8987"
   style="font-size:790.222229px;font-style:normal;font-variant:normal;font-weight:normal;font-stretch:normal;text-align:start;line-height:100%;writing-mode:lr-tb;text-anchor:start;fill:black;fill-opacity:1;stroke:none;stroke-width:1px;stroke-linecap:butt;stroke-linejoin:miter;stroke-opacity:1;font-family:URW Palladio L"
   xml:space="preserve"><tspan
     y="8427.5869"
     x="-2340.8987"
     id="tspan1579"
     sodipodi:role="line">Left</tspan></text>

<text
   sodipodi:linespacing="100%"
   id="text1581"
   y="12829.944"
   x="9436.3379"
   style="font-size:790.222229px;font-style:normal;font-variant:normal;font-weight:normal;font-stretch:normal;text-align:start;line-height:100%;writing-mode:lr-tb;text-anchor:start;fill:black;fill-opacity:1;stroke:none;stroke-width:1px;stroke-linecap:butt;stroke-linejoin:miter;stroke-opacity:1;font-family:URW Palladio L"
   xml:space="preserve"><tspan
     y="12829.944"
     x="9436.3379"
     id="tspan1583"
     sodipodi:role="line">Down</tspan></text>

<text
   sodipodi:linespacing="100%"
   id="text1585"
   y="5739.6509"
   x="-2368.3333"
   style="font-size:790.222229px;font-style:normal;font-variant:normal;font-weight:normal;font-stretch:normal;text-align:start;line-height:100%;writing-mode:lr-tb;text-anchor:start;fill:black;fill-opacity:1;stroke:none;stroke-width:1px;stroke-linecap:butt;stroke-linejoin:miter;stroke-opacity:1;font-family:URW Palladio L"
   xml:space="preserve"><tspan
     y="5739.6509"
     x="-2368.3333"
     id="tspan1587"
     sodipodi:role="line">Up</tspan></text>

<text
   sodipodi:linespacing="100%"
   id="text1589"
   y="10906.634"
   x="9539.9951"
   style="font-size:790.222229px;font-style:normal;font-variant:normal;font-weight:normal;font-stretch:normal;text-align:start;line-height:100%;writing-mode:lr-tb;text-anchor:start;fill:black;fill-opacity:1;stroke:none;stroke-width:1px;stroke-linecap:butt;stroke-linejoin:miter;stroke-opacity:1;font-family:URW Palladio L"
   xml:space="preserve"><tspan
     y="10906.634"
     x="9539.9951"
     id="tspan1591"
     sodipodi:role="line">Select</tspan></text>

<text
   sodipodi:linespacing="100%"
   id="text1593"
   y="2302.2393"
   x="9435.876"
   style="font-size:790.222229px;font-style:normal;font-variant:normal;font-weight:normal;font-stretch:normal;text-align:start;line-height:100%;writing-mode:lr-tb;text-anchor:start;fill:black;fill-opacity:1;stroke:none;stroke-width:1px;stroke-linecap:butt;stroke-linejoin:miter;stroke-opacity:1;font-family:URW Palladio L"
   xml:space="preserve"><tspan
     y="2302.2393"
     x="9435.876"
     id="tspan1595"
     sodipodi:role="line">Power/Hold</tspan></text>

<text
   sodipodi:linespacing="100%"
   id="text1597"
   y="4376.6807"
   x="9398.1582"
   style="font-size:790.222229px;font-style:normal;font-variant:normal;font-weight:normal;font-stretch:normal;text-align:start;line-height:100%;writing-mode:lr-tb;text-anchor:start;fill:black;fill-opacity:1;stroke:none;stroke-width:1px;stroke-linecap:butt;stroke-linejoin:miter;stroke-opacity:1;font-family:URW Palladio L"
   xml:space="preserve"><tspan
     y="4376.6807"
     x="9398.1582"
     id="tspan1599"
     sodipodi:role="line">Rec</tspan></text>

<text
   sodipodi:linespacing="100%"
   id="text1601"
   y="6187.1025"
   x="9473.5928"
   style="font-size:790.222229px;font-style:normal;font-variant:normal;font-weight:normal;font-stretch:normal;text-align:start;line-height:100%;writing-mode:lr-tb;text-anchor:start;fill:black;fill-opacity:1;stroke:none;stroke-width:1px;stroke-linecap:butt;stroke-linejoin:miter;stroke-opacity:1;font-family:URW Palladio L"
   xml:space="preserve"><tspan
     y="6187.1025"
     x="9473.5928"
     id="tspan1603"
     sodipodi:role="line">Play</tspan></text>

<path
   id="path1622"
   d="M 7882.8786,8090.3226 L 9259.5536,8090.3226"
   style="fill:none;fill-opacity:0.75;fill-rule:evenodd;stroke:#737373;stroke-width:28.22222137;stroke-linecap:butt;stroke-linejoin:miter;stroke-miterlimit:4;stroke-dasharray:none;stroke-opacity:1" /><path
   id="path2497"
   d="M 6826.7992,8109.1812 L 9334.9879,10598.511"
   style="fill:none;fill-opacity:0.75;fill-rule:evenodd;stroke:#737373;stroke-width:28.22222137;stroke-linecap:butt;stroke-linejoin:miter;stroke-miterlimit:4;stroke-dasharray:none;stroke-opacity:1" /><path
   id="path2499"
   d="M 6816.833,9134.2393 L 9213.3889,12488.651"
   style="fill:none;fill-opacity:0.75;fill-rule:evenodd;stroke:#737373;stroke-width:28.22222137;stroke-linecap:butt;stroke-linejoin:miter;stroke-miterlimit:4;stroke-dasharray:none;stroke-opacity:1" /><path
   id="path2501"
   d="M -382.2766,5765.0203 L 6816.9433,7052.5357"
   style="fill:none;fill-opacity:0.75;fill-rule:evenodd;stroke:#737373;stroke-width:28.22222137;stroke-linecap:butt;stroke-linejoin:miter;stroke-miterlimit:4;stroke-dasharray:none;stroke-opacity:1" /><path
   id="path2503"
   d="M -863.6984,8078.0184 L 5689.6983,8069.76"
   style="fill:none;fill-opacity:0.75;fill-rule:evenodd;stroke:#737373;stroke-width:28.22222137;stroke-linecap:butt;stroke-linejoin:miter;stroke-miterlimit:4;stroke-dasharray:none;stroke-opacity:1" /></g></svg>