<?xml version="1.0" encoding="UTF-8" standalone="no"?>
<!-- Created with Inkscape (http://www.inkscape.org/) -->

<svg
   xmlns:dc="http://purl.org/dc/elements/1.1/"
   xmlns:cc="http://creativecommons.org/ns#"
   xmlns:rdf="http://www.w3.org/1999/02/22-rdf-syntax-ns#"
   xmlns:svg="http://www.w3.org/2000/svg"
   xmlns="http://www.w3.org/2000/svg"
   xmlns:xlink="http://www.w3.org/1999/xlink"
   xmlns:sodipodi="http://sodipodi.sourceforge.net/DTD/sodipodi-0.dtd"
   xmlns:inkscape="http://www.inkscape.org/namespaces/inkscape"
   sodipodi:docname="mini2440-front.svg"
   inkscape:version="0.48.4 r9939"
   version="1.1"
   id="svg2"
   height="602.36218"
   width="354.33069">
  <defs
     id="defs4">
    <linearGradient
       id="linearGradient3793">
      <stop
         style="stop-color:#dfe3e8;stop-opacity:1;"
         offset="0"
         id="stop3795" />
      <stop
         style="stop-color:#e8ecec;stop-opacity:1;"
         offset="1"
         id="stop3797" />
    </linearGradient>
    <linearGradient
       inkscape:collect="always"
       xlink:href="#linearGradient3793"
       id="linearGradient3799"
       x1="871.42859"
       y1="2465.5957"
       x2="-26.428572"
       y2="1312.3622"
       gradientUnits="userSpaceOnUse"
       gradientTransform="matrix(0.39464039,0,0,0.39464039,10.42978,6.1054986)" />
    <linearGradient
       inkscape:collect="always"
       xlink:href="#id1-7-3-4-1"
       id="linearGradient6823"
       gradientUnits="userSpaceOnUse"
       x1="7257.5498"
       y1="3098.24"
       x2="7296.5898"
       y2="3319.6001" />
    <linearGradient
       y2="3319.6001"
       x2="7296.5898"
       y1="3098.24"
       x1="7257.5498"
       gradientUnits="userSpaceOnUse"
       id="id1-7-3-4-1">
      <stop
         id="stop1624-4-5-4-5"
         stop-color="#FFC100"
         offset="0" />
      <stop
         id="stop1626-0-1-4-2"
         stop-color="#997200"
         offset="0.6" />
      <stop
         id="stop1628-9-2-4-7"
         stop-color="#332201"
         offset="1" />
    </linearGradient>
    <radialGradient
       inkscape:collect="always"
       xlink:href="#linearGradient5796-8-6-07-9-6-3-8-0-0-7-3"
       id="radialGradient5802-9-3-04-1-4-5-9-9-9-1-2"
       cx="2617.2185"
       cy="472.84082"
       fx="2617.2185"
       fy="472.84082"
       r="26.065502"
       gradientTransform="matrix(0.46607388,0.38254179,-0.3534518,0.4306318,-213.33292,-179.50362)"
       gradientUnits="userSpaceOnUse" />
    <linearGradient
       id="linearGradient5796-8-6-07-9-6-3-8-0-0-7-3">
      <stop
         style="stop-color:#f6f8fa;stop-opacity:1"
         offset="0"
         id="stop5798-6-4-59-1-7-4-9-5-6-4-8" />
      <stop
         style="stop-color:#363636;stop-opacity:1"
         offset="1"
         id="stop5800-6-4-0-6-7-0-4-7-1-0-2" />
    </linearGradient>
    <filter
       color-interpolation-filters="sRGB"
       inkscape:collect="always"
       id="filter6821-51-0-9-3-9-4-1-9-6">
      <feGaussianBlur
         inkscape:collect="always"
         stdDeviation="0.21651065"
         id="feGaussianBlur6823-20-3-6-1-8-7-9-4-2" />
    </filter>
    <radialGradient
       inkscape:collect="always"
       xlink:href="#linearGradient4208-8-3-9-9-6-1-9-5-6-4-8-5"
       id="radialGradient4214-1-2-1-98-3-4-7-7-6-0-8-7"
       cx="2390.1802"
       cy="535.33014"
       fx="2390.1802"
       fy="535.33014"
       r="62.102005"
       gradientTransform="matrix(0.40847821,0.40847821,-0.4652427,0.46524272,109.58997,-196.76744)"
       gradientUnits="userSpaceOnUse" />
    <linearGradient
       id="linearGradient4208-8-3-9-9-6-1-9-5-6-4-8-5">
      <stop
         id="stop4216-9-8-55-17-2-9-0-6-3-2-2-7"
         offset="0"
         style="stop-color:#7c7c7c;stop-opacity:1" />
      <stop
         style="stop-color:#000000;stop-opacity:1"
         offset="1"
         id="stop4212-2-2-7-3-2-2-3-4-0-1-4-8" />
    </linearGradient>
    <filter
       color-interpolation-filters="sRGB"
       inkscape:collect="always"
       id="filter6829-3-1-6-5-8-9-9-5-2">
      <feGaussianBlur
         inkscape:collect="always"
         stdDeviation="0.4633812"
         id="feGaussianBlur6831-07-4-3-2-6-0-7-5-7" />
    </filter>
    <radialGradient
       inkscape:collect="always"
       xlink:href="#linearGradient5788-2-7-0-2-9-1-7-01-9-7-0"
       id="radialGradient5794-6-4-66-3-15-9-8-8-0-1-8"
       cx="2613.5442"
       cy="480.00555"
       fx="2613.5442"
       fy="480.00555"
       r="56.291977"
       gradientTransform="matrix(0.65510805,0,0,0.64497007,-876.04199,718.6688)"
       gradientUnits="userSpaceOnUse" />
    <linearGradient
       id="linearGradient5788-2-7-0-2-9-1-7-01-9-7-0">
      <stop
         style="stop-color:#a6a6a5;stop-opacity:1"
         offset="0"
         id="stop5790-7-3-2-6-7-2-8-5-3-1-2" />
      <stop
         style="stop-color:#000000;stop-opacity:1"
         offset="1"
         id="stop5792-5-4-89-0-0-6-0-1-3-1-0" />
    </linearGradient>
    <filter
       color-interpolation-filters="sRGB"
       inkscape:collect="always"
       id="filter6841-8-5-2-1-9-0-3-5-8">
      <feGaussianBlur
         inkscape:collect="always"
         stdDeviation="0.48856457"
         id="feGaussianBlur6843-9-4-6-7-5-3-1-2-9" />
    </filter>
    <radialGradient
       r="102.50001"
       fy="351.88708"
       fx="2114.6553"
       cy="351.88708"
       cx="2114.6553"
       gradientTransform="matrix(1.5231622,0,0,1.600984,-1111.4581,-198.24188)"
       gradientUnits="userSpaceOnUse"
       id="radialGradient6663-9-9-1-0-6-95-3-7-2"
       xlink:href="#linearGradient6803-9-6-7-1-9-8-5-6-8"
       inkscape:collect="always" />
    <linearGradient
       id="linearGradient6803-9-6-7-1-9-8-5-6-8">
      <stop
         style="stop-color:#ffffff;stop-opacity:1;"
         offset="0"
         id="stop9721-1-2" />
      <stop
         style="stop-color:#ffffff;stop-opacity:1"
         offset="0.1144137"
         id="stop9717-4-0" />
      <stop
         id="stop9719-2-5"
         offset="0.85448378"
         style="stop-color:#000000;stop-opacity:1" />
      <stop
         id="stop6807-08-8-2-2-0-6-9-3-5"
         offset="1"
         style="stop-color:#000000;stop-opacity:1" />
    </linearGradient>
    <filter
       color-interpolation-filters="sRGB"
       inkscape:collect="always"
       id="filter8892-2-5-2-2">
      <feGaussianBlur
         inkscape:collect="always"
         stdDeviation="1.0250001"
         id="feGaussianBlur8894-57-9-2-7" />
    </filter>
    <radialGradient
       inkscape:collect="always"
       xlink:href="#linearGradient7478-5-34-9-3-59-9-5-7"
       id="radialGradient4737-8"
       cx="869.38031"
       cy="1062.0474"
       fx="869.38031"
       fy="1062.0474"
       r="41.977394"
       gradientUnits="userSpaceOnUse" />
    <linearGradient
       id="linearGradient7478-5-34-9-3-59-9-5-7">
      <stop
         style="stop-color:#a6a5a6;stop-opacity:1"
         offset="0"
         id="stop7480-0-0-0-5-30-5-7-8" />
      <stop
         id="stop9723-6-1"
         offset="0.69628519"
         style="stop-color:#f9f9f9;stop-opacity:1" />
      <stop
         style="stop-color:#818181;stop-opacity:1"
         offset="1"
         id="stop7482-9-7-5-5-2-1-1-6" />
    </linearGradient>
    <filter
       color-interpolation-filters="sRGB"
       inkscape:collect="always"
       id="filter8912-5-3-8-0">
      <feGaussianBlur
         inkscape:collect="always"
         stdDeviation="0.20771263"
         id="feGaussianBlur8914-1-6-9-9" />
    </filter>
    <radialGradient
       inkscape:collect="always"
       xlink:href="#linearGradient5796-8-6-07-9-6-3-8-0-0-7-3-4"
       id="radialGradient5802-9-3-04-1-4-5-9-9-9-1-2-1"
       cx="2617.2185"
       cy="472.84082"
       fx="2617.2185"
       fy="472.84082"
       r="26.065502"
       gradientTransform="matrix(0.46607388,0.38254179,-0.3534518,0.4306318,-213.33292,-179.50362)"
       gradientUnits="userSpaceOnUse" />
    <linearGradient
       id="linearGradient5796-8-6-07-9-6-3-8-0-0-7-3-4">
      <stop
         style="stop-color:#f6f8fa;stop-opacity:1"
         offset="0"
         id="stop5798-6-4-59-1-7-4-9-5-6-4-8-8" />
      <stop
         style="stop-color:#363636;stop-opacity:1"
         offset="1"
         id="stop5800-6-4-0-6-7-0-4-7-1-0-2-6" />
    </linearGradient>
    <filter
       color-interpolation-filters="sRGB"
       inkscape:collect="always"
       id="filter6821-51-0-9-3-9-4-1-9-6-4">
      <feGaussianBlur
         inkscape:collect="always"
         stdDeviation="0.21651065"
         id="feGaussianBlur6823-20-3-6-1-8-7-9-4-2-6" />
    </filter>
    <radialGradient
       inkscape:collect="always"
       xlink:href="#linearGradient4208-8-3-9-9-6-1-9-5-6-4-8-5-9"
       id="radialGradient4214-1-2-1-98-3-4-7-7-6-0-8-7-8"
       cx="2390.1802"
       cy="535.33014"
       fx="2390.1802"
       fy="535.33014"
       r="62.102005"
       gradientTransform="matrix(0.40847821,0.40847821,-0.4652427,0.46524272,109.58997,-196.76744)"
       gradientUnits="userSpaceOnUse" />
    <linearGradient
       id="linearGradient4208-8-3-9-9-6-1-9-5-6-4-8-5-9">
      <stop
         id="stop4216-9-8-55-17-2-9-0-6-3-2-2-7-8"
         offset="0"
         style="stop-color:#7c7c7c;stop-opacity:1" />
      <stop
         style="stop-color:#000000;stop-opacity:1"
         offset="1"
         id="stop4212-2-2-7-3-2-2-3-4-0-1-4-8-3" />
    </linearGradient>
    <filter
       color-interpolation-filters="sRGB"
       inkscape:collect="always"
       id="filter6829-3-1-6-5-8-9-9-5-2-5">
      <feGaussianBlur
         inkscape:collect="always"
         stdDeviation="0.4633812"
         id="feGaussianBlur6831-07-4-3-2-6-0-7-5-7-5" />
    </filter>
    <radialGradient
       inkscape:collect="always"
       xlink:href="#linearGradient5788-2-7-0-2-9-1-7-01-9-7-0-5"
       id="radialGradient5794-6-4-66-3-15-9-8-8-0-1-8-1"
       cx="2613.5442"
       cy="480.00555"
       fx="2613.5442"
       fy="480.00555"
       r="56.291977"
       gradientTransform="matrix(0.65510805,0,0,0.64497007,-876.04199,718.6688)"
       gradientUnits="userSpaceOnUse" />
    <linearGradient
       id="linearGradient5788-2-7-0-2-9-1-7-01-9-7-0-5">
      <stop
         style="stop-color:#a6a6a5;stop-opacity:1"
         offset="0"
         id="stop5790-7-3-2-6-7-2-8-5-3-1-2-5" />
      <stop
         style="stop-color:#000000;stop-opacity:1"
         offset="1"
         id="stop5792-5-4-89-0-0-6-0-1-3-1-0-8" />
    </linearGradient>
    <filter
       color-interpolation-filters="sRGB"
       inkscape:collect="always"
       id="filter6841-8-5-2-1-9-0-3-5-8-4">
      <feGaussianBlur
         inkscape:collect="always"
         stdDeviation="0.48856457"
         id="feGaussianBlur6843-9-4-6-7-5-3-1-2-9-0" />
    </filter>
    <radialGradient
       r="102.50001"
       fy="351.88708"
       fx="2114.6553"
       cy="351.88708"
       cx="2114.6553"
       gradientTransform="matrix(1.5231622,0,0,1.600984,-1111.4581,-198.24188)"
       gradientUnits="userSpaceOnUse"
       id="radialGradient6663-9-9-1-0-6-95-3-7-2-5"
       xlink:href="#linearGradient6803-9-6-7-1-9-8-5-6-8-4"
       inkscape:collect="always" />
    <linearGradient
       id="linearGradient6803-9-6-7-1-9-8-5-6-8-4">
      <stop
         style="stop-color:#ffffff;stop-opacity:1;"
         offset="0"
         id="stop9721-1-2-7" />
      <stop
         style="stop-color:#ffffff;stop-opacity:1"
         offset="0.1144137"
         id="stop9717-4-0-2" />
      <stop
         id="stop9719-2-5-1"
         offset="0.85448378"
         style="stop-color:#000000;stop-opacity:1" />
      <stop
         id="stop6807-08-8-2-2-0-6-9-3-5-4"
         offset="1"
         style="stop-color:#000000;stop-opacity:1" />
    </linearGradient>
    <filter
       color-interpolation-filters="sRGB"
       inkscape:collect="always"
       id="filter8892-2-5-2-2-9">
      <feGaussianBlur
         inkscape:collect="always"
         stdDeviation="1.0250001"
         id="feGaussianBlur8894-57-9-2-7-9" />
    </filter>
    <radialGradient
       inkscape:collect="always"
       xlink:href="#linearGradient7478-5-34-9-3-59-9-5-7-3"
       id="radialGradient4737-8-0"
       cx="869.38031"
       cy="1062.0474"
       fx="869.38031"
       fy="1062.0474"
       r="41.977394"
       gradientUnits="userSpaceOnUse" />
    <linearGradient
       id="linearGradient7478-5-34-9-3-59-9-5-7-3">
      <stop
         style="stop-color:#a6a5a6;stop-opacity:1"
         offset="0"
         id="stop7480-0-0-0-5-30-5-7-8-0" />
      <stop
         id="stop9723-6-1-3"
         offset="0.69628519"
         style="stop-color:#f9f9f9;stop-opacity:1" />
      <stop
         style="stop-color:#818181;stop-opacity:1"
         offset="1"
         id="stop7482-9-7-5-5-2-1-1-6-5" />
    </linearGradient>
    <filter
       color-interpolation-filters="sRGB"
       inkscape:collect="always"
       id="filter8912-5-3-8-0-0">
      <feGaussianBlur
         inkscape:collect="always"
         stdDeviation="0.20771263"
         id="feGaussianBlur8914-1-6-9-9-7" />
    </filter>
    <radialGradient
       inkscape:collect="always"
       xlink:href="#linearGradient5796-8-6-07-9-6-3-8-0-0-7-3-5"
       id="radialGradient5802-9-3-04-1-4-5-9-9-9-1-2-19"
       cx="2617.2185"
       cy="472.84082"
       fx="2617.2185"
       fy="472.84082"
       r="26.065502"
       gradientTransform="matrix(0.46607388,0.38254179,-0.3534518,0.4306318,-213.33292,-179.50362)"
       gradientUnits="userSpaceOnUse" />
    <linearGradient
       id="linearGradient5796-8-6-07-9-6-3-8-0-0-7-3-5">
      <stop
         style="stop-color:#f6f8fa;stop-opacity:1"
         offset="0"
         id="stop5798-6-4-59-1-7-4-9-5-6-4-8-5" />
      <stop
         style="stop-color:#363636;stop-opacity:1"
         offset="1"
         id="stop5800-6-4-0-6-7-0-4-7-1-0-2-7" />
    </linearGradient>
    <filter
       color-interpolation-filters="sRGB"
       inkscape:collect="always"
       id="filter6821-51-0-9-3-9-4-1-9-6-47">
      <feGaussianBlur
         inkscape:collect="always"
         stdDeviation="0.21651065"
         id="feGaussianBlur6823-20-3-6-1-8-7-9-4-2-3" />
    </filter>
    <radialGradient
       inkscape:collect="always"
       xlink:href="#linearGradient4208-8-3-9-9-6-1-9-5-6-4-8-5-0"
       id="radialGradient4214-1-2-1-98-3-4-7-7-6-0-8-7-4"
       cx="2390.1802"
       cy="535.33014"
       fx="2390.1802"
       fy="535.33014"
       r="62.102005"
       gradientTransform="matrix(0.40847821,0.40847821,-0.4652427,0.46524272,109.58997,-196.76744)"
       gradientUnits="userSpaceOnUse" />
    <linearGradient
       id="linearGradient4208-8-3-9-9-6-1-9-5-6-4-8-5-0">
      <stop
         id="stop4216-9-8-55-17-2-9-0-6-3-2-2-7-88"
         offset="0"
         style="stop-color:#7c7c7c;stop-opacity:1" />
      <stop
         style="stop-color:#000000;stop-opacity:1"
         offset="1"
         id="stop4212-2-2-7-3-2-2-3-4-0-1-4-8-1" />
    </linearGradient>
    <filter
       color-interpolation-filters="sRGB"
       inkscape:collect="always"
       id="filter6829-3-1-6-5-8-9-9-5-2-52">
      <feGaussianBlur
         inkscape:collect="always"
         stdDeviation="0.4633812"
         id="feGaussianBlur6831-07-4-3-2-6-0-7-5-7-3" />
    </filter>
    <radialGradient
       inkscape:collect="always"
       xlink:href="#linearGradient5788-2-7-0-2-9-1-7-01-9-7-0-4"
       id="radialGradient5794-6-4-66-3-15-9-8-8-0-1-8-2"
       cx="2613.5442"
       cy="480.00555"
       fx="2613.5442"
       fy="480.00555"
       r="56.291977"
       gradientTransform="matrix(0.65510805,0,0,0.64497007,-876.04199,718.6688)"
       gradientUnits="userSpaceOnUse" />
    <linearGradient
       id="linearGradient5788-2-7-0-2-9-1-7-01-9-7-0-4">
      <stop
         style="stop-color:#a6a6a5;stop-opacity:1"
         offset="0"
         id="stop5790-7-3-2-6-7-2-8-5-3-1-2-6" />
      <stop
         style="stop-color:#000000;stop-opacity:1"
         offset="1"
         id="stop5792-5-4-89-0-0-6-0-1-3-1-0-6" />
    </linearGradient>
    <filter
       color-interpolation-filters="sRGB"
       inkscape:collect="always"
       id="filter6841-8-5-2-1-9-0-3-5-8-6">
      <feGaussianBlur
         inkscape:collect="always"
         stdDeviation="0.48856457"
         id="feGaussianBlur6843-9-4-6-7-5-3-1-2-9-2" />
    </filter>
    <radialGradient
       r="102.50001"
       fy="351.88708"
       fx="2114.6553"
       cy="351.88708"
       cx="2114.6553"
       gradientTransform="matrix(1.5231622,0,0,1.600984,-1111.4581,-198.24188)"
       gradientUnits="userSpaceOnUse"
       id="radialGradient6663-9-9-1-0-6-95-3-7-2-9"
       xlink:href="#linearGradient6803-9-6-7-1-9-8-5-6-8-0"
       inkscape:collect="always" />
    <linearGradient
       id="linearGradient6803-9-6-7-1-9-8-5-6-8-0">
      <stop
         style="stop-color:#ffffff;stop-opacity:1;"
         offset="0"
         id="stop9721-1-2-4" />
      <stop
         style="stop-color:#ffffff;stop-opacity:1"
         offset="0.1144137"
         id="stop9717-4-0-9" />
      <stop
         id="stop9719-2-5-3"
         offset="0.85448378"
         style="stop-color:#000000;stop-opacity:1" />
      <stop
         id="stop6807-08-8-2-2-0-6-9-3-5-1"
         offset="1"
         style="stop-color:#000000;stop-opacity:1" />
    </linearGradient>
    <filter
       color-interpolation-filters="sRGB"
       inkscape:collect="always"
       id="filter8892-2-5-2-2-1">
      <feGaussianBlur
         inkscape:collect="always"
         stdDeviation="1.0250001"
         id="feGaussianBlur8894-57-9-2-7-99" />
    </filter>
    <radialGradient
       inkscape:collect="always"
       xlink:href="#linearGradient7478-5-34-9-3-59-9-5-7-5"
       id="radialGradient4737-8-5"
       cx="869.38031"
       cy="1062.0474"
       fx="869.38031"
       fy="1062.0474"
       r="41.977394"
       gradientUnits="userSpaceOnUse" />
    <linearGradient
       id="linearGradient7478-5-34-9-3-59-9-5-7-5">
      <stop
         style="stop-color:#a6a5a6;stop-opacity:1"
         offset="0"
         id="stop7480-0-0-0-5-30-5-7-8-5" />
      <stop
         id="stop9723-6-1-6"
         offset="0.69628519"
         style="stop-color:#f9f9f9;stop-opacity:1" />
      <stop
         style="stop-color:#818181;stop-opacity:1"
         offset="1"
         id="stop7482-9-7-5-5-2-1-1-6-0" />
    </linearGradient>
    <filter
       color-interpolation-filters="sRGB"
       inkscape:collect="always"
       id="filter8912-5-3-8-0-5">
      <feGaussianBlur
         inkscape:collect="always"
         stdDeviation="0.20771263"
         id="feGaussianBlur8914-1-6-9-9-9" />
    </filter>
    <radialGradient
       inkscape:collect="always"
       xlink:href="#linearGradient5796-8-6-07-9-6-3-8-0-0-7-3-9"
       id="radialGradient5802-9-3-04-1-4-5-9-9-9-1-2-3"
       cx="2617.2185"
       cy="472.84082"
       fx="2617.2185"
       fy="472.84082"
       r="26.065502"
       gradientTransform="matrix(0.46607388,0.38254179,-0.3534518,0.4306318,-213.33292,-179.50362)"
       gradientUnits="userSpaceOnUse" />
    <linearGradient
       id="linearGradient5796-8-6-07-9-6-3-8-0-0-7-3-9">
      <stop
         style="stop-color:#f6f8fa;stop-opacity:1"
         offset="0"
         id="stop5798-6-4-59-1-7-4-9-5-6-4-8-1" />
      <stop
         style="stop-color:#363636;stop-opacity:1"
         offset="1"
         id="stop5800-6-4-0-6-7-0-4-7-1-0-2-2" />
    </linearGradient>
    <filter
       color-interpolation-filters="sRGB"
       inkscape:collect="always"
       id="filter6821-51-0-9-3-9-4-1-9-6-8">
      <feGaussianBlur
         inkscape:collect="always"
         stdDeviation="0.21651065"
         id="feGaussianBlur6823-20-3-6-1-8-7-9-4-2-8" />
    </filter>
    <radialGradient
       inkscape:collect="always"
       xlink:href="#linearGradient4208-8-3-9-9-6-1-9-5-6-4-8-5-8"
       id="radialGradient4214-1-2-1-98-3-4-7-7-6-0-8-7-1"
       cx="2390.1802"
       cy="535.33014"
       fx="2390.1802"
       fy="535.33014"
       r="62.102005"
       gradientTransform="matrix(0.40847821,0.40847821,-0.4652427,0.46524272,109.58997,-196.76744)"
       gradientUnits="userSpaceOnUse" />
    <linearGradient
       id="linearGradient4208-8-3-9-9-6-1-9-5-6-4-8-5-8">
      <stop
         id="stop4216-9-8-55-17-2-9-0-6-3-2-2-7-6"
         offset="0"
         style="stop-color:#7c7c7c;stop-opacity:1" />
      <stop
         style="stop-color:#000000;stop-opacity:1"
         offset="1"
         id="stop4212-2-2-7-3-2-2-3-4-0-1-4-8-0" />
    </linearGradient>
    <filter
       color-interpolation-filters="sRGB"
       inkscape:collect="always"
       id="filter6829-3-1-6-5-8-9-9-5-2-2">
      <feGaussianBlur
         inkscape:collect="always"
         stdDeviation="0.4633812"
         id="feGaussianBlur6831-07-4-3-2-6-0-7-5-7-4" />
    </filter>
    <radialGradient
       inkscape:collect="always"
       xlink:href="#linearGradient5788-2-7-0-2-9-1-7-01-9-7-0-0"
       id="radialGradient5794-6-4-66-3-15-9-8-8-0-1-8-9"
       cx="2613.5442"
       cy="480.00555"
       fx="2613.5442"
       fy="480.00555"
       r="56.291977"
       gradientTransform="matrix(0.65510805,0,0,0.64497007,-876.04199,718.6688)"
       gradientUnits="userSpaceOnUse" />
    <linearGradient
       id="linearGradient5788-2-7-0-2-9-1-7-01-9-7-0-0">
      <stop
         style="stop-color:#a6a6a5;stop-opacity:1"
         offset="0"
         id="stop5790-7-3-2-6-7-2-8-5-3-1-2-2" />
      <stop
         style="stop-color:#000000;stop-opacity:1"
         offset="1"
         id="stop5792-5-4-89-0-0-6-0-1-3-1-0-2" />
    </linearGradient>
    <filter
       color-interpolation-filters="sRGB"
       inkscape:collect="always"
       id="filter6841-8-5-2-1-9-0-3-5-8-1">
      <feGaussianBlur
         inkscape:collect="always"
         stdDeviation="0.48856457"
         id="feGaussianBlur6843-9-4-6-7-5-3-1-2-9-5" />
    </filter>
    <radialGradient
       r="102.50001"
       fy="351.88708"
       fx="2114.6553"
       cy="351.88708"
       cx="2114.6553"
       gradientTransform="matrix(1.5231622,0,0,1.600984,-1111.4581,-198.24188)"
       gradientUnits="userSpaceOnUse"
       id="radialGradient6663-9-9-1-0-6-95-3-7-2-4"
       xlink:href="#linearGradient6803-9-6-7-1-9-8-5-6-8-44"
       inkscape:collect="always" />
    <linearGradient
       id="linearGradient6803-9-6-7-1-9-8-5-6-8-44">
      <stop
         style="stop-color:#ffffff;stop-opacity:1;"
         offset="0"
         id="stop9721-1-2-2" />
      <stop
         style="stop-color:#ffffff;stop-opacity:1"
         offset="0.1144137"
         id="stop9717-4-0-5" />
      <stop
         id="stop9719-2-5-0"
         offset="0.85448378"
         style="stop-color:#000000;stop-opacity:1" />
      <stop
         id="stop6807-08-8-2-2-0-6-9-3-5-42"
         offset="1"
         style="stop-color:#000000;stop-opacity:1" />
    </linearGradient>
    <filter
       color-interpolation-filters="sRGB"
       inkscape:collect="always"
       id="filter8892-2-5-2-2-12">
      <feGaussianBlur
         inkscape:collect="always"
         stdDeviation="1.0250001"
         id="feGaussianBlur8894-57-9-2-7-7" />
    </filter>
    <radialGradient
       inkscape:collect="always"
       xlink:href="#linearGradient7478-5-34-9-3-59-9-5-7-9"
       id="radialGradient4737-8-7"
       cx="869.38031"
       cy="1062.0474"
       fx="869.38031"
       fy="1062.0474"
       r="41.977394"
       gradientUnits="userSpaceOnUse" />
    <linearGradient
       id="linearGradient7478-5-34-9-3-59-9-5-7-9">
      <stop
         style="stop-color:#a6a5a6;stop-opacity:1"
         offset="0"
         id="stop7480-0-0-0-5-30-5-7-8-55" />
      <stop
         id="stop9723-6-1-4"
         offset="0.69628519"
         style="stop-color:#f9f9f9;stop-opacity:1" />
      <stop
         style="stop-color:#818181;stop-opacity:1"
         offset="1"
         id="stop7482-9-7-5-5-2-1-1-6-03" />
    </linearGradient>
    <filter
       color-interpolation-filters="sRGB"
       inkscape:collect="always"
       id="filter8912-5-3-8-0-4">
      <feGaussianBlur
         inkscape:collect="always"
         stdDeviation="0.20771263"
         id="feGaussianBlur8914-1-6-9-9-1" />
    </filter>
  </defs>
  <sodipodi:namedview
     id="base"
     pagecolor="#ffffff"
     bordercolor="#666666"
     borderopacity="1.0"
     inkscape:pageopacity="0.0"
     inkscape:pageshadow="2"
     inkscape:zoom="1.3446627"
     inkscape:cx="114.5098"
     inkscape:cy="279.59707"
     inkscape:document-units="px"
     inkscape:current-layer="layer2"
     showgrid="false"
     showguides="false"
     inkscape:guide-bbox="true"
     inkscape:snap-bbox="true"
     inkscape:bbox-paths="true"
     inkscape:snap-bbox-edge-midpoints="true"
     inkscape:snap-bbox-midpoints="true"
     inkscape:bbox-nodes="true"
     inkscape:object-paths="true"
     inkscape:snap-intersection-paths="true"
     inkscape:object-nodes="true"
     inkscape:snap-smooth-nodes="true"
     inkscape:snap-midpoints="true"
     inkscape:snap-object-midpoints="true"
     inkscape:snap-center="true"
     inkscape:snap-global="true"
     inkscape:window-width="1280"
     inkscape:window-height="975"
     inkscape:window-x="-6"
     inkscape:window-y="-6"
     inkscape:window-maximized="1"
     units="mm"
     inkscape:snap-page="true">
    <sodipodi:guide
       orientation="1,0"
       position="-26.428571,713.57143"
       id="guide2997" />
    <sodipodi:guide
       orientation="1,0"
       position="871.42857,687.14286"
       id="guide2999" />
    <sodipodi:guide
       orientation="0,1"
       position="432.85714,1130"
       id="guide3001" />
    <sodipodi:guide
       orientation="0,1"
       position="471.74124,-23.233509"
       id="guide3003" />
    <sodipodi:guide
       orientation="1,0"
       position="102.53048,640.94179"
       id="guide3005" />
    <sodipodi:guide
       orientation="0,1"
       position="55,1001.041"
       id="guide3009" />
    <sodipodi:guide
       orientation="0,1"
       position="-26.428571,-260"
       id="guide3011" />
    <sodipodi:guide
       orientation="0,1"
       position="71.720831,-388.95905"
       id="guide3013" />
    <sodipodi:guide
       orientation="0,1"
       position="-76.771561,-1230.7142"
       id="guide3017" />
    <sodipodi:guide
       orientation="0,1"
       position="102.53047,-1413.2335"
       id="guide3019" />
    <sodipodi:guide
       orientation="1,0"
       position="742.46954,-1542.1926"
       id="guide3021" />
    <sodipodi:guide
       orientation="1,0"
       position="724.28572,841.42857"
       id="guide3801" />
    <sodipodi:guide
       orientation="0,1"
       position="733.37762,-407.14293"
       id="guide3807" />
    <sodipodi:guide
       orientation="1,0"
       position="120.7143,-416.23485"
       id="guide3809" />
    <sodipodi:guide
       orientation="0,1"
       position="-310.54114,-1212.5304"
       id="guide3811" />
    <sodipodi:guide
       orientation="1,0"
       position="247.99726,88.761903"
       id="guide3912" />
    <sodipodi:guide
       orientation="0,1"
       position="370.35714,52.151058"
       id="guide3914" />
    <sodipodi:guide
       orientation="0,1"
       position="960.28125,-1299.1874"
       id="guide3918" />
    <sodipodi:guide
       orientation="0,1"
       position="414.28571,159.28571"
       id="guide3943" />
    <sodipodi:guide
       orientation="0,1"
       position="344.2078,79.258274"
       id="guide3976" />
    <sodipodi:guide
       orientation="0,1"
       position="503.77446,53.552301"
       id="guide4043" />
    <sodipodi:guide
       orientation="0,1"
       position="249.25,90.8125"
       id="guide4045" />
    <sodipodi:guide
       orientation="1,0"
       position="24,640"
       id="guide8107" />
    <sodipodi:guide
       orientation="0,1"
       position="23.999998,-1362.8048"
       id="guide8111" />
    <sodipodi:guide
       orientation="1,0"
       position="821,-1388.0191"
       id="guide8113" />
    <sodipodi:guide
       orientation="0,1"
       position="397.28571,-310.42857"
       id="guide8115" />
  </sodipodi:namedview>
  <metadata
     id="metadata7">
    <rdf:RDF>
      <cc:Work
         rdf:about="">
        <dc:format>image/svg+xml</dc:format>
        <dc:type
           rdf:resource="http://purl.org/dc/dcmitype/StillImage" />
        <dc:title />
      </cc:Work>
    </rdf:RDF>
  </metadata>
  <g
     inkscape:groupmode="layer"
     id="layer2"
     inkscape:label="Warstwa"
     style="display:inline"
     transform="translate(0,-449.99988)">
    <rect
       style="fill:url(#linearGradient3799);fill-opacity:1;fill-rule:evenodd;stroke:none"
       id="rect3023"
       width="354.33069"
       height="455.11252"
       x="0"
       y="524.01666"
       rx="22.324234"
       ry="22.324234"
       inkscape:export-filename="C:\Users\admin\Desktop\bitmap.png"
       inkscape:export-xdpi="15.820264"
       inkscape:export-ydpi="15.820264" />
    <rect
       style="fill:#100e11;fill-opacity:1;fill-rule:evenodd;stroke:none"
       id="rect3015"
       width="252.54581"
       height="332.19055"
       x="50.892452"
       y="574.90906"
       inkscape:export-filename="C:\Users\sdziok\Desktop\rect4205-5-0-6-42-7-5-1-2.png"
       inkscape:export-xdpi="6.2147975"
       inkscape:export-ydpi="6.2147975" />
    <rect
       style="fill:#404040;fill-opacity:1;fill-rule:evenodd;stroke:none;display:inline"
       id="rect3465"
       width="238.19365"
       height="317.83841"
       x="58.068516"
       y="582.08514"
       ry="0"
       inkscape:export-filename="C:\Users\sdziok\Desktop\rect4205-5-0-6-42-7-5-1-2.png"
       inkscape:export-xdpi="6.2147975"
       inkscape:export-ydpi="6.2147975" />
    <g
       transform="matrix(0.03285838,0,0,0.03285326,29.302653,579.28364)"
       style="fill-rule:evenodd;display:inline"
       id="g1619-8-5-9"
       inkscape:export-filename="C:\Users\sdziok\Desktop\rect4205-5-0-6-42-7-5-1-2.png"
       inkscape:export-xdpi="6.2147975"
       inkscape:export-ydpi="6.2147975">
      <defs
         id="defs1621-8-8-3" />
      <path
         inkscape:connector-curvature="0"
         style="fill:#000000"
         id="path1630-2-6-0"
         d="m 875.45,3825.1 7249.1,0 0,-2244.3 -7249.1,0 0,2244.3 z" />
      <path
         inkscape:connector-curvature="0"
         style="fill:#ffffff"
         id="path1632-4-7-7"
         d="m 1333.89,3695.16 c 0,-31.54 -25.56,-57.1 -57.09,-57.1 -31.53,0 -57.09,25.56 -57.09,57.1 0,31.52 25.56,57.09 57.09,57.09 31.53,0 57.09,-25.57 57.09,-57.09 z m 179.32,-47.8 c 22.95,-15.62 53.43,-11.19 71.41,10.35 18,21.54 18,53.62 0,75.18 -17.98,21.54 -48.46,25.95 -71.41,10.34 l 0,47.31 -30.24,0 0,-149.7 30.24,0 0,6.52 z m 345.25,47.79 c 0,-31.54 -25.56,-57.09 -57.09,-57.09 -31.52,0 -57.08,25.55 -57.08,57.09 0,31.53 25.56,57.09 57.08,57.09 16.25,0 30.93,-6.79 41.32,-17.69 l -21.85,-20.84 21.85,20.84 -21.85,-20.84 c -5.59,5.87 -13.55,8.9 -21.66,8.24 -8.09,-0.69 -15.45,-4.98 -20.01,-11.69 l 77.28,0 c 1.32,-4.82 2.01,-9.88 2.01,-15.11 z m 1896.14,0 c 0,-31.54 -25.56,-57.09 -57.1,-57.09 -31.51,0 -57.08,25.55 -57.08,57.09 0,31.53 25.57,57.09 57.08,57.09 16.26,0 30.93,-6.79 41.33,-17.69 l -21.84,-20.84 21.84,20.84 -21.84,-20.84 c -5.61,5.87 -13.57,8.9 -21.67,8.24 -8.1,-0.69 -15.46,-4.98 -20.02,-11.69 l 77.29,0 c 1.32,-4.82 2.01,-9.88 2.01,-15.11 z m 1128.28,0 c 0,-31.54 -25.56,-57.09 -57.08,-57.09 -31.53,0 -57.08,25.55 -57.08,57.09 0,31.53 25.55,57.09 57.08,57.09 16.25,0 30.92,-6.79 41.32,-17.69 l -21.85,-20.84 21.85,20.84 -21.85,-20.84 c -5.61,5.87 -13.56,8.9 -21.66,8.24 -8.08,-0.69 -15.44,-4.98 -20.01,-11.69 l 77.28,0 c 1.32,-4.82 2,-9.88 2,-15.11 z m 2883.6,0 c 0,-31.54 -25.56,-57.09 -57.08,-57.09 -31.53,0 -57.09,25.55 -57.09,57.09 0,31.53 25.56,57.09 57.09,57.09 16.24,0 30.92,-6.79 41.31,-17.69 l -21.85,-20.84 21.85,20.84 -21.85,-20.84 c -5.59,5.87 -13.55,8.9 -21.66,8.24 -8.08,-0.69 -15.44,-4.98 -20.01,-11.69 l 77.28,0 c 1.32,-4.82 2.01,-9.88 2.01,-15.11 z m -5660.49,-8.49 c 0,-18.27 -8.91,-35.01 -23.06,-43.31 -14.14,-8.29 -31.13,-6.74 -43.96,4.01 l 0,-6.52 -30.24,0 0,108.93 30.24,0 0,-63.11 c 0,-10.16 8.22,-18.38 18.38,-18.38 10.16,0 18.39,8.22 18.39,18.38 l 0,63.11 30.25,0 0,-63.11 z m 437.24,-14.09 c 0,-14.47 -10.9,-27.39 -27.31,-32.39 -16.4,-4.98 -34.82,-0.99 -46.13,10.03 -11.32,11.02 -13.14,26.71 -4.56,39.3 4.34,6.08 10.52,10.54 17.62,12.76 8.04,2.71 16.25,4.9 24.57,6.57 6.82,1.33 10.41,4.73 8.42,7.96 -1.98,3.22 -8.96,5.3 -16.32,4.84 -7.35,-0.46 -12.83,-3.3 -12.83,-6.64 l 0,-3.23 -30.21,0 0,3.23 c 0,16.03 12.23,30.29 30.43,35.5 18.2,5.21 38.37,0.22 50.18,-12.45 11.83,-12.64 12.7,-30.17 2.18,-43.59 -6.1,-7.12 -14.48,-11.87 -23.72,-13.42 -7.3,-1.36 -14.52,-3.13 -21.63,-5.27 -3.94,-1.31 -5,-3.46 -2.54,-5.2 2.46,-1.75 7.79,-2.65 12.91,-2.16 5.12,0.46 8.73,2.18 8.73,4.16 l 0,1.5 30.21,0 0,-1.5 z m 263.01,22.59 c 0,-31.54 -25.56,-57.1 -57.09,-57.1 -31.53,0 -57.09,25.56 -57.09,57.1 0,31.52 25.56,57.09 57.09,57.09 31.53,0 57.09,-25.57 57.09,-57.09 z m 149.73,8.78 0,-63.1 30.23,0 0,63.1 c 0,10.15 8.25,18.39 18.4,18.39 10.15,0 18.38,-8.24 18.38,-18.39 l 0,-63.1 30.24,0 0,108.93 -30.24,0 0,-6.54 c -12.83,10.76 -29.81,12.31 -43.96,4.01 -14.14,-8.28 -23.05,-25.01 -23.05,-43.3 z m 279.74,-56.58 0,-6.52 -30.24,0 0,108.93 30.24,0 0,-54.61 c 0,-7.14 2.84,-13.97 7.87,-19.02 5.05,-5.03 11.89,-7.86 19,-7.86 l 0,-30.12 c -9.57,0.56 -18.83,3.74 -26.87,9.2 z m 266.04,8.38 c -10.39,-10.88 -25.07,-17.68 -41.32,-17.68 -31.51,0 -57.07,25.54 -57.07,57.08 0,0 0,0 0,0.01 0,31.52 25.56,57.08 57.07,57.08 16.25,0 30.93,-6.8 41.32,-17.7 l -21.86,-20.83 c -4.88,5.11 -11.79,8.32 -19.43,8.32 -14.83,0 -26.87,-12.04 -26.88,-26.87 0,-0.01 0,-0.01 0,-0.01 0.01,-14.84 12.05,-26.86 26.88,-26.86 7.64,0 14.55,3.19 19.43,8.3 l 21.86,-20.84 z m 3499.75,39.33 -15.58,-54.23 -26.99,0 -15.58,54.23 -15.58,-54.23 -31.45,0 31.3,108.93 31.44,0 13.36,-46.5 13.37,46.5 31.43,0 31.31,-108.93 -31.44,0 -15.59,54.23 m -767.53,-89.7 -30.23,0 0,30.21 30.23,0 0,-30.21 m 0,35.47 -30.23,0 0,108.93 30.23,0 0,-108.93 m -626.55,54.51 33.66,54.42 -35.61,0 -15.84,-25.64 -15.87,25.64 -35.59,0 33.65,-54.42 -33.71,-54.51 35.6,0 15.92,25.73 15.91,-25.73 35.6,0 -33.72,54.51 m -1012.87,-54.51 -27.71,44.82 0,-80.29 -30.25,0 0,144.4 30.25,0 0,-45.43 34.06,45.43 37.76,0 -41.57,-55.46 33.07,-53.47 -35.61,0 m -460.66,-35.47 -30.24,0 0,30.21 30.24,0 0,-30.21 m 0,149.71 0,-114.24 -30.24,0 0,114.27 c 0,2.89 -2.34,5.22 -5.22,5.22 l -8.56,0 0,30.21 8.56,0 c 19.59,0 35.46,-15.89 35.46,-35.46 m 1273.22,-59.92 c 0,-31.54 -25.56,-57.1 -57.09,-57.1 -31.52,0 -57.08,25.56 -57.08,57.1 0,31.52 25.56,57.09 57.08,57.09 31.53,0 57.09,-25.57 57.09,-57.09 z m -1052.95,48.07 0,6.54 30.23,0 0,-108.93 -30.23,0 0,63.1 c 0,10.15 -8.24,18.39 -18.39,18.39 -10.16,0 -18.39,-8.24 -18.39,-18.39 l 0,-63.1 -30.24,0 0,63.1 c 0,18.29 8.89,35.02 23.04,43.3 14.16,8.3 31.14,6.75 43.98,-4.01 z m 707.46,-95.87 0,-41.99 -30.23,0 0,144.4 30.23,0 0,-6.54 c 22.95,15.61 53.43,11.2 71.42,-10.34 17.99,-21.56 17.99,-53.63 0,-75.18 -17.99,-21.54 -48.47,-25.97 -71.42,-10.35 z m 992.23,-11.78 -25.1,0 c -0.66,-0.06 -1.32,0.18 -1.81,0.67 -0.48,0.47 -0.72,1.13 -0.66,1.81 l 0,2.78 0,0 13.79,0 0,30.22 -13.79,0 0,78.71 -30.24,0 0,-78.71 -13.79,0 0,-30.22 13.79,0 c 0,-19.59 15.88,-35.47 35.46,-35.47 l 22.35,0 0,30.21 z m 390.01,2.58 0,30.12 c -7.13,0 -13.97,2.83 -19.01,7.86 -5.05,5.05 -7.87,11.88 -7.87,19.02 l 0,54.61 -30.25,0 0,-108.93 30.25,0 0,6.52 c 8.03,-5.46 17.29,-8.64 26.88,-9.2 z m 177.25,9.2 0,-6.52 -30.24,0 0,108.93 30.24,0 0,-63.11 c 0,-10.16 8.24,-18.38 18.4,-18.38 10.15,0 18.38,8.22 18.38,18.38 l 0,63.11 30.24,0 0,-63.11 c 0,-10.16 8.24,-18.38 18.4,-18.38 10.15,0 18.39,8.22 18.39,18.38 l 0,63.11 30.23,0 -0.01,-63.11 c 0,-19.18 -11.27,-36.57 -28.78,-44.38 -17.51,-7.83 -38.01,-4.63 -52.28,8.17 -14.83,-15.27 -36.89,-16.56 -52.97,-3.09 z m 646.89,0 0,-6.52 30.26,0 0,108.93 -30.26,0 0,-6.54 c -22.94,15.61 -53.41,11.2 -71.39,-10.34 -17.99,-21.56 -17.99,-53.63 0,-75.18 17.98,-21.54 48.45,-25.97 71.39,-10.35 z m 243.81,-9.2 0,30.12 c -7.12,0 -13.96,2.83 -19.01,7.86 -5.03,5.05 -7.87,11.88 -7.87,19.02 l 0,54.61 -30.23,0 0,-108.93 30.23,0 0,6.52 c 8.03,-5.46 17.31,-8.64 26.88,-9.2 z" />
      <path
         inkscape:connector-curvature="0"
         style="fill:#000000"
         id="path1634-5-7-7"
         d="m 1303.67,3695.16 c 0,-14.85 -12.02,-26.88 -26.87,-26.88 -14.84,0 -26.89,12.03 -26.89,26.88 0,14.84 12.05,26.88 26.89,26.88 14.85,0 26.87,-12.04 26.87,-26.88 z m 3499.91,-15.11 44.46,0 c -5,-7.37 -13.32,-11.77 -22.23,-11.77 -8.9,0 -17.23,4.4 -22.23,11.77 m -1128.28,0 44.47,0 c -5.01,-7.37 -13.33,-11.77 -22.23,-11.77 -8.91,0 -17.22,4.4 -22.24,11.77 m -899.27,15.11 c 0,-14.85 -12.03,-26.88 -26.88,-26.88 -14.84,0 -26.87,12.03 -26.87,26.88 0,14.84 12.03,26.88 26.87,26.88 14.85,0 26.88,-12.04 26.88,-26.88 z m 2600.88,0 c 0,-14.85 -12.04,-26.88 -26.89,-26.88 -14.85,0 -26.87,12.03 -26.87,26.88 0,14.84 12.02,26.88 26.87,26.88 14.85,0 26.89,-12.04 26.89,-26.88 z m -261.53,0 c 0,-14.85 -12.03,-26.88 -26.88,-26.88 -14.84,0 -26.88,12.03 -26.88,26.88 0,14.84 12.04,26.88 26.88,26.88 14.85,0 26.88,-12.04 26.88,-26.88 z m -3548.42,0.29 c 0,-14.85 -12.02,-26.88 -26.88,-26.88 -14.83,0 -26.87,12.03 -26.87,26.88 0,14.84 12.04,26.88 26.87,26.88 14.86,0 26.88,-12.04 26.88,-26.88 z m 212.21,-15.4 44.47,0 c -5.01,-7.37 -13.34,-11.77 -22.24,-11.77 -8.9,0 -17.23,4.4 -22.23,11.77 m 5908,0 44.47,0 c -5,-7.37 -13.33,-11.77 -22.23,-11.77 -8.91,0 -17.23,4.4 -22.24,11.77 M 7268,3695.16 c 0,-14.85 -12.02,-26.88 -26.86,-26.88 -14.85,0 -26.88,12.03 -26.88,26.88 0,14.84 12.03,26.88 26.88,26.88 14.84,0 26.86,-12.04 26.86,-26.88 z" />
      <path
         inkscape:connector-curvature="0"
         style="fill:#ffc000"
         id="path1636-5-2-8"
         d="m 918.37,1633.25 7156.1,0 0,1906.25 -7156.1,0 0,-1906.25" />
      <path
         inkscape:connector-curvature="0"
         style="fill:url(#linearGradient6823)"
         id="path1638-1-2-7"
         d="m 6542.59,3424.95 0,0 m 1512.67,-313.2 19.21,0 0,10.92 -8.28,0 0,43.65 -10.93,0 0,-54.57 m -54.55,0 32.74,0 0,10.92 -32.74,0 0,-10.92 m 0,43.64 32.74,0 0,10.93 -32.74,0 0,-10.93 m -76.4,-43.64 0,0 0,0 0,0 0,0 m 21.83,10.92 10.91,0 0,43.65 -10.91,0 0,-43.65 m 10.91,-10.92 10.92,0 0,10.92 -10.92,0 0,-10.92 m 10.92,10.92 10.92,0 0,43.65 -10.92,0 0,-43.65 m -43.66,-10.92 21.83,0 0,10.92 -10.92,0 0,43.65 -10.91,0 0,-54.57 m -21.83,-10.92 10.92,0 0,21.84 -10.92,0 0,-21.84 m 0,32.74 10.92,0 0,21.82 -10.92,0 0,-21.82 m -87.3,-21.82 10.92,0 0,21.82 -10.92,0 0,-21.82 m -78.14,0 10.91,0 0,10.92 -10.91,0 0,-10.92 m -32.74,21.82 10.92,0 0,21.82 -10.92,0 0,-21.82 m -42,21.82 42,0 0,10.93 -42,0 0,-10.93 m -43.65,-32.72 10.91,0 0,10.9 -10.91,0 0,-10.9 m -10.91,-32.75 32.74,0 0,10.91 -32.74,0 0,-10.91 m 0,65.47 32.74,0 0,10.93 -32.74,0 0,-10.93 m -54.57,-65.47 21.83,0 0,10.91 -21.83,0 0,-10.91 m -10.91,10.91 10.91,0 0,10.92 -10.91,0 0,-10.92 m 32.74,32.74 10.91,0 0,21.82 -10.91,0 0,-21.82 m 294.75,-140.69 43.65,0 0,10.93 -43.65,0 0,-10.93 m -10.91,10.93 10.91,0 0,10.9 -10.91,0 0,-10.9 m 10.91,10.9 32.73,0 0,10.92 -32.73,0 0,-10.92 m 32.73,10.92 10.92,0 0,10.9 -10.92,0 0,-10.9 m -43.64,10.9 43.64,0 0,10.92 -43.64,0 0,-10.92 m 65.47,-43.65 10.91,0 0,43.65 -10.91,0 0,-43.65 m 10.91,65.48 32.75,0 0,10.92 -32.75,0 0,-10.92 m 54.57,-21.83 43.66,0 0,10.92 -43.66,0 0,-10.92 m 43.66,-10.9 10.91,0 0,10.9 -10.91,0 0,-10.9 m -32.74,-10.92 32.74,0 0,10.92 -32.74,0 0,-10.92 m -10.92,-10.9 10.92,0 0,10.9 -10.92,0 0,-10.9 m 10.92,-10.93 43.65,0 0,10.93 -43.65,0 0,-10.93 m -130.96,237.73 43.65,0 0,10.91 -43.65,0 0,-10.91 m -10.91,10.91 10.91,0 0,10.91 -10.91,0 0,-10.91 m 10.91,10.91 32.73,0 0,10.92 -32.73,0 0,-10.92 m 32.73,10.92 10.92,0 0,10.93 -10.92,0 0,-10.93 m -43.64,10.93 43.64,0 0,10.9 -43.64,0 0,-10.9 m -262.32,0 43.65,0 0,10.9 -43.65,0 0,-10.9 m 43.65,-10.93 10.9,0 0,10.93 -10.9,0 0,-10.93 m -32.75,-10.92 32.75,0 0,10.92 -32.75,0 0,-10.92 m -10.9,-10.91 10.9,0 0,10.91 -10.9,0 0,-10.91 m 10.9,-10.91 43.65,0 0,10.91 -43.65,0 0,-10.91 m -328.02,118.87 43.66,0 0,10.91 -43.66,0 0,-10.91 m -10.9,10.91 10.9,0 0,10.91 -10.9,0 0,-10.91 m 10.9,10.91 32.74,0 0,10.92 -32.74,0 0,-10.92 m 32.74,10.92 10.92,0 0,10.91 -10.92,0 0,-10.91 m -43.64,10.91 43.64,0 0,10.91 -43.64,0 0,-10.91 m -724.99,0 43.64,0 0,10.91 -43.64,0 0,-10.91 m 43.64,-10.91 10.91,0 0,10.91 -10.91,0 0,-10.91 m -32.74,-10.92 32.74,0 0,10.92 -32.74,0 0,-10.92 m -10.9,-10.91 10.9,0 0,10.91 -10.9,0 0,-10.91 m 10.9,-10.91 43.65,0 0,10.91 -43.65,0 0,-10.91 m 1173.46,0 21.83,0 0,10.91 -10.91,0 0,43.65 -10.92,0 0,-54.56 m 43.66,10.91 10.91,0 0,43.65 -10.91,0 0,-43.65 m -10.92,-10.91 10.92,0 0,10.91 -10.92,0 0,-10.91 m -10.91,10.91 10.91,0 0,43.65 -10.91,0 0,-43.65 m -21.83,-10.91 0,0 0,0 0,0 0,0 m -1051.63,0 0,0 0,0 0,0 0,0 m 21.83,10.91 10.92,0 0,43.65 -10.92,0 0,-43.65 m 10.92,-10.91 10.9,0 0,10.91 -10.9,0 0,-10.91 m 10.9,10.91 10.92,0 0,43.65 -10.92,0 0,-43.65 m -43.65,-10.91 21.83,0 0,10.91 -10.91,0 0,43.65 -10.92,0 0,-54.56 m 1291.73,-312.95 0,-43.65 10.92,0 0,65.48 -10.92,0 0,-10.91 -32.75,0 0,-10.92 32.75,0 m -853.76,354.96 0,-43.67 10.93,0 0,65.49 -10.93,0 0,-10.92 -32.73,0 0,-10.9 32.73,0 m -32.73,21.82 32.73,0 0,10.9 -32.73,0 0,-10.9 m -10.91,-65.49 10.91,0 0,43.67 -10.91,0 0,-43.67 m 919.22,-225.15 10.92,0 0,10.9 32.74,0 0,-10.9 10.91,0 0,21.82 -43.65,0 0,10.9 -10.92,0 0,-32.72 m -196.44,118.85 10.92,0 0,10.91 32.74,0 0,-10.91 10.9,0 0,21.83 -43.64,0 0,10.93 -10.92,0 0,-32.76 m 10.92,32.76 32.74,0 0,10.9 -32.74,0 0,-10.9 m 0,-43.67 32.74,0 0,10.91 -32.74,0 0,-10.91 m -262.33,0 32.74,0 0,10.91 -32.74,0 0,-10.91 m 0,43.67 32.74,0 0,10.9 -32.74,0 0,-10.9 m -10.91,-32.76 10.91,0 0,10.91 32.74,0 0,-10.91 10.91,0 0,21.83 -43.65,0 0,10.93 -10.91,0 0,-32.76 m 393.28,118.87 10.91,0 0,10.91 32.75,0 0,-10.91 10.92,0 0,21.83 -43.67,0 0,10.91 -10.91,0 0,-32.74 m 10.91,32.74 32.75,0 0,10.91 -32.75,0 0,-10.91 m 0,-43.65 32.75,0 0,10.91 -32.75,0 0,-10.91 m 130.97,0 8.28,0 0,10.91 -8.28,0 0,-10.91 m 0,43.65 8.28,0 0,10.91 -8.28,0 0,-10.91 m -10.93,-32.74 10.93,0 0,10.91 8.28,0 0,0 0,0 0,10.92 -8.28,0 0,10.91 -10.93,0 0,-32.74 m -1564.68,-10.91 32.74,0 0,10.91 -32.74,0 0,-10.91 m 0,43.65 32.74,0 0,10.91 -32.74,0 0,-10.91 m -10.92,-32.74 10.92,0 0,10.91 32.74,0 0,-10.91 10.91,0 0,21.83 -43.65,0 0,10.91 -10.92,0 0,-32.74 m 140.22,21.83 21.82,0 0,20.17 -21.82,0 0,-20.17 m 1315.34,-151.61 32.75,0 0,10.91 -32.75,0 0,-10.91 m -10.91,10.91 10.91,0 0,32.76 -10.91,0 0,-32.76 m 10.91,32.76 32.75,0 0,10.9 -32.75,0 0,-10.9 m 32.75,-10.93 10.92,0 0,10.93 -10.92,0 0,-10.93 m 32.74,-32.74 32.74,0 0,10.91 -32.74,0 0,-10.91 m -10.92,32.74 10.92,0 0,10.93 -10.92,0 0,-10.93 m -876.5,0 10.91,0 0,10.93 -10.91,0 0,-10.93 m -32.74,10.93 32.74,0 0,10.9 -32.74,0 0,-10.9 m -10.92,-32.76 10.92,0 0,32.76 -10.92,0 0,-32.76 m 10.92,-10.91 32.74,0 0,10.91 -32.74,0 0,-10.91 m 603.67,-21.83 10.92,0 0,10.92 -10.92,0 0,-10.92 m 65.48,43.65 10.91,0 0,10.92 -10.91,0 0,-10.92 m -327.81,-21.82 21.83,0 0,10.91 -21.83,0 0,-10.91 m 21.83,10.91 10.92,0 0,43.66 -10.92,0 0,-43.66 m -297.69,-10.91 31.09,0 0,10.91 -31.09,0 0,-10.91 m -10.91,10.91 10.91,0 0,32.76 -10.91,0 0,-32.76 m 10.91,32.76 31.09,0 0,10.9 -31.09,0 0,-10.9 m 31.09,-32.76 10.91,0 0,32.76 -10.91,0 0,-32.76 m 526.25,118.87 10.91,0 0,32.74 -10.91,0 0,-32.74 m -31.09,32.74 31.09,0 0,10.91 -31.09,0 0,-10.91 m -10.91,-32.74 10.91,0 0,32.74 -10.91,0 0,-32.74 m 10.91,-10.91 31.09,0 0,10.91 -31.09,0 0,-10.91 m -272.22,-118.87 10.92,0 0,10.91 10.91,0 0,10.91 -10.91,0 0,32.75 -10.92,0 0,-54.57 m 655.2,0 10.93,0 0,10.91 8.28,0 0,10.91 -8.28,0 0,32.75 -10.93,0 0,-54.57 m -535.15,54.57 -10.9,0 0,-10.9 -10.92,0 0,-10.93 10.92,0 0,-32.74 10.9,0 0,54.57 m -43.65,-10.9 -10.91,0 0,-43.67 10.91,0 0,43.67 m 21.83,10.9 -21.83,0 0,-10.9 21.83,0 0,10.9 m -294.66,-54.57 10.92,0 0,10.91 10.91,0 0,10.91 -10.91,0 0,32.75 -10.92,0 0,-54.57 m 43.65,10.91 10.91,0 0,43.66 -10.91,0 0,-43.66 m -21.82,-10.91 21.82,0 0,10.91 -21.82,0 0,-10.91 m 326.77,118.87 21.82,0 0,10.91 -21.82,0 0,-10.91 m 21.82,10.91 10.92,0 0,43.65 -10.92,0 0,-43.65 m -43.65,-10.91 10.93,0 0,10.91 10.9,0 0,10.91 -10.9,0 0,32.74 -10.93,0 0,-54.56 m 361.17,54.56 -21.82,0 0,-10.91 21.82,0 0,10.91 m -21.82,-10.91 -10.91,0 0,-43.65 10.91,0 0,43.65 m 43.65,10.91 -10.92,0 0,-10.91 -10.91,0 0,-10.91 10.91,0 0,-32.74 10.92,0 0,54.56 m 130.96,0 -10.91,0 0,-10.91 -10.91,0 0,-10.91 10.91,0 0,-32.74 10.91,0 0,54.56 m -43.65,-10.91 -10.92,0 0,-43.65 10.92,0 0,43.65 m 21.83,10.91 -21.83,0 0,-10.91 21.83,0 0,10.91 m 10.91,-162.52 10.91,0 0,43.66 -43.65,0 0,-10.9 32.74,0 0,-10.93 -32.74,0 0,-10.92 32.74,0 0,-10.91 m -524.87,118.87 10.91,0 0,43.65 -43.65,0 0,-10.91 32.74,0 0,-10.91 -32.74,0 0,-10.92 32.74,0 0,-10.91 m -43.66,21.83 10.92,0 0,10.91 -10.92,0 0,-10.91 m 10.92,-32.74 32.74,0 0,10.91 -32.74,0 0,-10.91 m -459.84,0 32.74,0 0,10.91 -32.74,0 0,-10.91 m -10.92,32.74 10.92,0 0,10.91 -10.92,0 0,-10.91 m 43.66,-21.83 10.91,0 0,43.65 -43.65,0 0,-10.91 32.74,0 0,-10.91 -32.74,0 0,-10.92 32.74,0 0,-10.91 m 853.74,-270.47 -43.64,0 0,76.4 43.64,0 0,-10.93 -32.73,0 0,-21.82 32.73,0 0,-10.9 -32.73,0 0,-21.84 32.73,0 0,-10.91 m -109.13,0 0,76.4 10.92,0 0,-54.57 10.91,0 0,-10.92 -10.91,0 0,-10.91 -10.92,0 m 54.56,0 0,76.4 -10.9,0 0,-54.57 -10.91,0 0,-10.92 10.91,0 0,-10.91 10.9,0 m -89.04,0 10.91,0 0,43.65 10.92,0 0,10.92 -10.92,0 0,21.83 -10.91,0 0,-21.83 -32.74,0 0,-21.82 10.91,0 0,10.9 21.83,0 0,-21.82 -10.92,0 0,-10.92 10.92,0 0,-10.91 m -96.57,0 0,10.91 31.09,0 0,10.92 10.91,0 0,-10.92 10.92,0 0,-10.91 -52.92,0 m 31.09,21.83 -10.91,0 0,10.92 -10.91,0 0,10.9 32.73,0 0,-10.9 -10.91,0 0,-10.92 m -96.56,-10.92 0,54.56 10.91,0 0,-10.9 10.91,0 0,-10.92 -10.91,0 0,-32.74 -10.91,0 m 43.65,0 0,10.92 -10.92,0 0,10.92 10.92,0 0,32.72 10.91,0 0,-54.56 -10.91,0 m -109.13,10.92 0,43.64 10.91,0 0,-21.82 32.74,0 0,-10.9 -32.74,0 0,-10.92 -10.91,0 m 10.91,43.64 32.74,0 0,10.93 -32.74,0 0,-10.93 m -702.32,194.09 -10.92,0 0,10.91 -10.9,0 0,10.91 32.73,0 0,-10.91 -10.91,0 0,-10.91 m -31.08,-21.83 0,10.91 31.08,0 0,10.92 10.91,0 0,-10.92 10.92,0 0,-10.91 -52.91,0 m 0,65.48 41.99,0 0,10.91 -41.99,0 0,-10.91 m 41.99,-21.83 10.92,0 0,21.83 -10.92,0 0,-21.83 m 877.02,-140.69 0,10.91 32.74,0 0,10.91 10.92,0 0,-10.91 10.91,0 0,-10.91 -54.57,0 m 10.92,32.74 10.91,0 0,10.93 32.74,0 0,10.9 -54.57,0 0,-10.9 10.92,0 0,-10.93 m -65.48,-32.74 21.83,0 0,43.67 10.91,0 0,10.9 -32.74,0 0,-10.9 10.91,0 0,-32.76 -10.91,0 0,-10.91 m -327.8,0 21.82,0 0,43.67 10.92,0 0,10.9 -32.74,0 0,-10.9 10.9,0 0,-32.76 -10.9,0 0,-10.91 m 10.9,-21.83 10.92,0 0,10.92 -10.92,0 0,-10.92 m -131.58,118.87 10.92,0 0,10.91 -10.92,0 0,-10.91 m -10.91,21.83 21.83,0 0,43.65 10.92,0 0,10.91 -32.75,0 0,-10.91 10.91,0 0,-32.74 -10.91,0 0,-10.91 m 98.84,-86.13 10.93,0 0,10.93 -10.93,0 0,-10.93 m -10.9,10.93 10.9,0 0,10.9 -10.9,0 0,-10.9 m -10.92,-65.5 10.92,0 0,21.83 10.9,0 0,10.91 -10.9,0 0,32.76 -10.92,0 0,-32.76 -10.91,0 0,-10.91 10.91,0 0,-21.83 m 64.86,118.87 10.9,0 0,21.83 10.93,0 0,10.91 -10.93,0 0,32.74 -10.9,0 0,-32.74 -10.93,0 0,-10.91 10.93,0 0,-21.83 m 10.9,65.48 10.93,0 0,10.91 -10.93,0 0,-10.91 m 10.93,-10.91 10.9,0 0,10.91 -10.9,0 0,-10.91 m 21.82,-32.74 10.91,0 0,10.91 10.91,0 0,10.91 -10.91,0 0,32.74 -10.91,0 0,-54.56 m 43.65,10.91 10.92,0 0,12.57 -10.92,0 0,-12.57 m -21.83,-10.91 21.83,0 0,10.91 -21.83,0 0,-10.91 m -274.31,-21.83 20.17,0 0,65.48 10.92,0 0,9.26 -31.09,0 0,-9.26 10.9,0 0,-54.57 -10.9,0 0,-10.91 m -194.79,0 20.17,0 0,65.48 10.92,0 0,9.26 -31.09,0 0,-9.26 10.91,0 0,-54.57 -10.91,0 0,-10.91 m 654.63,21.83 21.82,0 0,10.91 -21.82,0 0,-10.91 m -10.92,10.91 10.92,0 0,32.74 -10.92,0 0,-32.74 m 32.74,0 10.91,0 0,-32.74 10.92,0 0,74.74 -43.65,0 0,-9.26 32.73,0 0,-21.83 -10.91,0 0,-10.91 m 164.73,0 10.92,0 0,32.74 -10.92,0 0,-32.74 m 10.92,-10.91 21.83,0 0,10.91 -21.83,0 0,-10.91 m 21.83,10.91 10.91,0 0,-10.91 10.9,0 0,74.73 -10.9,0 0,-21.82 -32.74,0 0,-9.26 32.74,0 0,-21.83 -10.91,0 0,-10.91 m -908.31,-10.91 -21.84,0 0,10.91 21.84,0 0,-10.91 m -21.84,10.91 -10.91,0 0,-10.91 -10.91,0 0,74.73 10.91,0 0,-21.82 32.75,0 0,-9.26 -32.75,0 0,-21.83 10.91,0 0,-10.91 m 32.74,0 -10.9,0 0,32.74 10.9,0 0,-32.74 m -132.4,0 -10.93,0 0,32.74 10.93,0 0,-32.74 m -32.74,0 -10.91,0 0,-10.91 -10.93,0 0,74.73 10.93,0 0,-21.82 32.72,0 0,-9.26 -32.72,0 0,-21.83 10.91,0 0,-10.91 m 21.81,-10.91 -21.81,0 0,10.91 21.81,0 0,-10.91 m -242.77,75.47 0,0" />
      <path
         inkscape:connector-curvature="0"
         style="fill:#000000"
         id="path1640-7-9-3"
         d="m 2772.69,2181.06 c -98.54,-428.82 -353.71,-447.47 -413.71,-447.47 l 0,-25.08 c 133.05,0 348.1,94.96 426.25,420.85 100.11,-325.2 271.08,-412.49 391.07,-414.14 114.35,-1.58 184.87,25.07 293.24,81.53 l 0,-50.89 312.9,0 0,-42.89 25.07,0 0,42.89 53.05,0 0,25.07 -53.05,0 0,613.13 225.02,-568.78 215.58,0 18.78,-44.35 -268.62,0 0,-25.07 279.26,0 29.52,-69.67 23.08,9.79 -25.39,59.88 59.43,0 0,25.07 -70.05,0 -175.35,413.86 232.24,0 0,310.18 c 217.36,-106.98 477.4,-28.48 608.47,180.93 130.01,-200.39 383.99,-280.25 605.28,-190.31 l -8.81,-14.24 374.02,0 74.73,120.8 72.97,-117.99 c 1.08,-1.75 2.98,-2.81 5.05,-2.81 l 0,0 c 2.14,0 4.12,1.16 5.15,3.04 1.06,1.88 1.01,4.17 -0.12,6 l -76.09,123.02 9.74,15.76 89.7,-145.01 c 1.08,-1.75 2.98,-2.81 5.04,-2.81 l 0,0 c 2.15,0 4.13,1.16 5.17,3.04 1.05,1.88 0.99,4.17 -0.14,6 l -92.8,150.04 9.75,15.77 108.15,-174.85 374.01,0 -295.16,477.2 9.76,15.76 311.43,-503.52 -388.55,0 c -2.13,0 -4.12,-1.16 -5.17,-3.03 -1.04,-1.9 -0.99,-4.18 0.14,-6.01 l 0,0 c 1.09,-1.74 2.99,-2.8 5.03,-2.8 l 409.8,0 -309,499.6 289.06,467.36 c 1.14,1.84 1.19,4.13 0.15,6.01 -1.04,1.87 -3.03,3.03 -5.18,3.03 -2.05,0 -3.96,-1.06 -5.03,-2.8 l -285.98,-462.35 -9.75,15.76 277.96,449.39 -374.01,0 -71.44,-115.5 -69.72,112.7 c -1.08,1.74 -2.97,2.8 -5.04,2.8 l 0,0 c -0.96,0 -1.92,-0.24 -2.78,-0.7 -0.85,0.46 -1.81,0.7 -2.79,0.7 -2.13,0 -4.12,-1.16 -5.17,-3.03 -1.05,-1.88 -1,-4.17 0.14,-6.01 l 75.6,-122.22 -9.75,-15.77 -89.2,144.23 c -1.08,1.74 -2.99,2.8 -5.05,2.8 -2.14,0 -4.11,-1.16 -5.16,-3.03 -1.05,-1.88 -0.99,-4.17 0.13,-6.01 l 92.32,-149.25 -9.75,-15.76 -107.65,174.05 -374.02,0 10.94,-17.7 c -221.48,91.5 -476.71,12.28 -607.46,-188.54 -130.9,209.94 -391.28,286.75 -608.92,179.63 l 0,26.61 -317.8,0 0,-2.38 -52.45,0 22.91,64.68 -23.64,8.36 -25.87,-73.04 -100.74,0 0,-25.07 91.86,0 -187.19,-528.36 -11.05,26.94 0,528.87 -207.29,0 0,-1609.67 207.29,0 0,721.65 35.4,-89.48 0,-676.52 -287.82,0 0,73.28 c -124.87,-83.95 -208.53,-103.92 -318.32,-103.92 -86.93,0 -277.7,63.37 -378.54,440.77 l -25.07,0 z m 448.99,1277.73 -395.21,0.02 0,-25.08 269.89,0 c -205.67,-91.32 -295.28,-421.82 -295.28,-813.61 0,-461.94 124.51,-838.69 417.02,-838.69 134.42,0 210.79,69.05 276.52,131.98 l 0,41.04 c 0.02,0.04 0.05,0.08 0.07,0.11 l -0.02,347.84 -22.33,0 c -48.46,-88.29 -137.56,-212.3 -229.57,-212.3 -153.37,0 -229.22,237.52 -227.3,530.02 -1.92,292.5 73.93,530.02 227.3,530.02 92.01,0 181.11,-124.01 229.57,-212.32 l 22.33,0 0.02,347.85 c -0.02,0.04 -0.05,0.08 -0.07,0.12 l 0,41.04 c -65.14,62.36 -140.75,130.73 -272.94,131.96 z M 2355.94,1781.43 c 289.99,0 413.44,395.49 413.44,838.69 0,443.19 -123.45,838.69 -413.44,838.69 -289.99,0 -413.43,-376.76 -413.43,-838.69 0,-461.94 123.44,-838.69 413.43,-838.69 z m -721.95,33.85 -377.58,0 0,934.79 c 2.43,6.54 4.86,13.08 7.27,19.62 16.95,-4.64 34.54,-6.51 52.09,-5.59 34.33,1.85 65.28,21.33 81.77,51.51 14.9,27.27 21.99,58.11 20.5,89.14 -0.63,12.98 -4.05,25.67 -10.02,37.21 -14.67,28.33 -37.3,51.74 -65.12,67.36 9.41,31.95 18.41,64 26.99,96.18 16.39,61.57 24.11,125.11 22.88,188.81 -0.32,16.43 -3.88,32.64 -10.49,47.68 -6.78,15.42 -18.64,28.04 -33.62,35.76 -10.86,5.6 -23.54,6.52 -35.1,2.56 -11.56,-3.96 -21,-12.46 -26.17,-23.53 -5.99,-12.91 -8.94,-27.02 -8.57,-41.26 0.2,-7.99 4.06,-15.47 10.48,-20.25 8.11,-6.05 18.05,-9.07 28.14,-8.59 6.62,0.32 12.54,4.18 15.52,10.12 2.97,5.93 2.49,13 -1.22,18.49 -4.57,6.77 -11.3,11.81 -19.07,14.31 l 2.66,5.8 c 1.25,3.29 4.03,5.77 7.46,6.6 3.43,0.85 7.04,-0.03 9.68,-2.35 13.04,-11.1 21.16,-26.9 22.58,-43.95 1.88,-29.39 1.27,-58.89 -1.85,-88.18 -9.17,-62.54 -22.8,-124.35 -40.8,-184.95 -4.62,1.47 -9.31,2.73 -14.03,3.78 -13.87,3.07 -27.87,5.48 -41.96,7.19 l 0,391.41 252.69,0 0,52.35 25.08,0 0,-52.35 53.83,0 0,-25.07 -53.83,0 0,-564.41 24.2,0 220.54,589.48 242.19,0 21.89,55.87 23.33,-9.15 -21.75,-55.54 75.57,0 0,-25.07 -85.39,0 -260.8,-665.62 c 96,-99.03 151.07,-248.06 151.07,-437.34 0,-253.68 -68.67,-472.82 -291.04,-472.82 z m -332.61,1171.98 c -14.4,5.91 -29.53,9.9 -44.97,11.81 l 0,-142.65 c 15.55,43.24 30.49,86.7 44.82,130.36 0.05,0.16 0.1,0.31 0.15,0.48 0,0 0,0 0,0 0,0 0,0 0,0 0,0 0,0 0,0 m -23.68,-178.71 c 4.94,-1.36 9.92,-2.51 14.94,-3.44 15.76,-2.92 32.02,0.87 44.82,10.5 11.66,8.75 20.05,21.15 23.86,35.23 8.47,31.39 6.62,64.67 -5.27,94.93 -2.48,6.35 -6.6,11.93 -11.91,16.21 -4.09,3.28 -8.3,6.37 -12.67,9.27 -16.72,-54.62 -34.63,-108.88 -53.77,-162.7 m -21.29,190.52 c -3.96,0.48 -7.94,0.84 -11.92,1.05 -43.42,2.36 -83.8,-22.28 -101.56,-61.98 -31.51,-70.46 -36.08,-150.02 -12.87,-223.62 8.15,-25.84 16.57,-51.59 25.27,-77.24 2.4,-7.1 4.82,-14.19 7.29,-21.29 23.3,55.36 45.6,111.16 66.83,167.35 -30.27,16.22 -54.69,41.51 -69.84,72.31 -2.5,5.1 -1.52,11.21 2.47,15.27 3.95,4.05 10.06,5.15 15.19,2.76 4.48,-3.22 8.62,-6.87 12.39,-10.88 15.29,-16.97 33.63,-30.95 54.07,-41.22 4.26,11.61 8.49,23.22 12.68,34.84 l 0,-106.35 c -20.1,-53.81 -41.41,-107.14 -63.89,-160 -3.72,-8.75 -7.54,-17.47 -11.4,-26.14 4.67,-12.85 9.43,-25.67 14.25,-38.47 6.9,-18.25 12.17,-37.07 15.75,-56.25 4.02,-21.69 2.22,-44.08 -5.26,-64.84 -17.03,-47.33 -49.87,-87.33 -92.97,-113.24 -18.96,-11.41 -40.82,-17.04 -62.94,-16.23 -18.52,0.7 -33.48,15.36 -34.57,33.87 -0.97,16.78 2.93,33.51 11.21,48.15 7.69,13.55 15.94,26.74 24.79,39.57 27.29,39.55 50.86,81.53 70.44,125.4 3.86,8.64 7.68,17.28 11.48,25.93 -5.97,16.43 -11.82,32.89 -17.54,49.41 -26.57,76.62 -43.7,156.21 -51.02,236.98 -3.46,38.11 -0.07,76.54 10,113.47 13.84,50.66 58.87,86.54 111.34,88.68 23.48,0.96 47,0.02 70.33,-2.82 l 0,-34.47 m 343.36,-1250.81 -390.37,0 0,-60.83 -25.07,0 0,60.83 -58.38,0 0,25.06 58.38,0 0,279.28 25.07,0 0,-279.28 390.37,0 0,-25.06" />
      <path
         inkscape:connector-curvature="0"
         style="fill:#b4c3d3"
         id="path1642-1-4-0"
         d="m 6454.4,2508.06 -287.67,0 -128.61,207.93 -128.6,-207.93 -287.67,0 53.94,87.23 c -109.8,-93.21 -256.85,-129.78 -397.51,-98.89 -140.67,30.9 -258.85,125.75 -319.46,256.4 -54.32,-121.55 -156.59,-212.52 -280.24,-249.35 -123.67,-36.82 -256.59,-15.89 -364.28,57.41 l 0,-345.07 -244.36,0 0,1166.72 244.36,0 0,-47.06 c 107.88,73.43 241.06,94.3 364.9,57.22 123.82,-37.08 226.09,-128.46 280.16,-250.39 61.3,131.16 180.62,225.93 322.24,255.95 141.64,30.03 289.14,-8.18 398.37,-103.19 l -57.64,93.19 287.68,0 128.11,-207.14 128.12,207.14 287.67,0 -271.95,-439.68 272.44,-440.49 z" />
      <path
         inkscape:connector-curvature="0"
         style="fill:#000000"
         id="path1644-1-1-3"
         d="m 4748.65,2946.97 c 0,-119.95 -97.24,-217.19 -217.18,-217.19 -119.94,0 -217.17,97.24 -217.17,217.19 0,119.94 97.23,217.18 217.17,217.18 119.94,0 217.18,-97.24 217.18,-217.18 z m 1076.57,-110.08 c 18.22,74.12 17.74,151.6 -1.35,225.49 l 70.42,-113.83 -69.07,-111.66 m -230.78,110.08 c 0,-119.95 -97.23,-217.19 -217.18,-217.19 -119.95,0 -217.18,97.24 -217.18,217.19 0,119.94 97.23,217.18 217.18,217.18 119.95,0 217.18,-97.24 217.18,-217.18 z" />
      <path
         inkscape:connector-curvature="0"
         style="fill:#ffc000"
         id="path1646-5-9-8"
         d="m 1463.69,3399.88 45.41,0 0,-564.41 -45.41,0 0,564.41 m 93.77,-920.19 c 76.6,0 88.61,-97.11 88.53,-163.75 -0.08,-66.65 -9.75,-138.98 -76.58,-138.98 l -105.72,0 0,368.29 45.41,0 0,-65.56 48.36,0 z m 0,25.07 -23.28,0 0,40.49 1.6,0 c 170.71,0 170.71,-152.85 170.71,-205.97 l 0,-34.28 c 0,-51.48 -0.35,-193.6 -144.09,-193.6 l -98.71,0 0,40.49 93.77,0 c 48.8,0 114.23,6.94 114.23,170.52 0,163.58 -65.77,180.99 -114.23,182.35 z m -406.49,-4.47 c -19.66,-39.21 -40.9,-77.61 -63.73,-115.06 -7.25,-11.92 -13.8,-24.23 -19.64,-36.9 -3.81,-8.25 -6.07,-17.14 -6.68,-26.21 -0.13,-1.96 0.58,-3.89 1.94,-5.29 1.36,-1.41 3.25,-2.17 5.21,-2.1 9.42,0.32 18.61,3.02 26.7,7.86 34.79,20.81 59.58,54.9 68.67,94.41 2.63,11.51 2.71,23.49 0.23,35.04 -3.52,16.27 -7.75,32.37 -12.7,48.25 l 0,0 m 4220.37,627.03 11.84,0 c 98.46,-3.23 176.14,-84.81 174.52,-183.32 -1.62,-98.5 -81.92,-177.5 -180.44,-177.5 -98.51,0 -178.81,79 -180.43,177.5 -1.62,98.51 76.05,180.09 174.51,183.32 z m -845.78,0 11.84,0 c 98.45,-3.23 176.13,-84.81 174.5,-183.32 -1.61,-98.5 -81.92,-177.5 -180.43,-177.5 -98.5,0 -178.82,79 -180.43,177.5 -1.62,98.51 76.06,180.09 174.52,183.32 z m -565.76,-567.39 73.41,189.89 0,-363.14 -73.41,173.25 m 12.08,837.57 -199.5,-563.15 23.38,-56.99 230.54,620.14 -54.42,0 M 2355.93,2084.66 c 139.65,0 199.05,252.48 199.05,535.46 0,282.97 -59.4,535.45 -199.05,535.45 -139.63,0 -199.04,-240.54 -199.04,-535.45 0,-294.92 59.41,-535.46 199.04,-535.46 z" />
      <path
         inkscape:connector-curvature="0"
         style="fill:#000000"
         id="path1648-2-6-2"
         d="m 5371.34,3127.32 c 3.95,0.28 7.88,0.27 11.84,0 l 0,-16.58 c 89.32,-3.24 159.56,-77.44 157.93,-166.8 -1.64,-89.35 -74.58,-160.92 -163.96,-160.86 -2.14,-0.04 -3.92,1.09 -4.99,2.92 -1.09,1.86 -1.09,4.15 -0.01,5.99 1.07,1.86 2.87,2.98 5,2.94 55.04,-0.05 105.79,29.67 132.71,77.67 26.92,47.99 25.79,106.81 -2.93,153.74 -28.73,46.93 -80.61,74.68 -135.59,72.54 l 0,28.44 z m -839.87,-44.91 c -3.28,0 -5.91,-2.65 -5.91,-5.91 0,-3.28 2.63,-5.93 5.91,-5.93 68.27,0 123.61,-55.34 123.61,-123.6 0,-68.28 -55.34,-123.62 -123.61,-123.62 -3.28,0 -5.91,-2.65 -5.91,-5.91 0,-3.28 2.63,-5.93 5.91,-5.93 74.81,0 135.44,60.64 135.44,135.46 0,74.8 -60.63,135.44 -135.44,135.44 z m 845.79,0 c -3.28,0 -5.92,-2.65 -5.92,-5.91 0,-3.28 2.64,-5.93 5.92,-5.93 68.26,0 123.6,-55.34 123.6,-123.6 0,-68.28 -55.34,-123.62 -123.6,-123.62 -3.28,0 -5.92,-2.65 -5.92,-5.91 0,-3.28 2.64,-5.93 5.92,-5.93 74.81,0 135.45,60.64 135.45,135.46 0,74.8 -60.64,135.44 -135.45,135.44 z m -851.7,44.91 c 3.93,0.19 7.88,0.15 11.84,0 l 0,-16.58 c 89.31,-3.24 159.56,-77.44 157.93,-166.8 -1.65,-89.35 -74.61,-160.92 -163.97,-160.86 -2.15,-0.04 -3.91,1.09 -5,2.92 -1.08,1.86 -1.08,4.15 0,5.99 1.08,1.86 2.86,2.98 5,2.94 55.05,-0.05 105.8,29.67 132.71,77.67 26.93,47.99 25.8,106.81 -2.93,153.74 -28.73,46.93 -80.59,74.68 -135.58,72.54 l 0,28.44 z m -2169.62,-47.1 0,-61.93 -25.07,0 0,65.95 0,25.07 c 135.53,0 175.31,-230.16 176.25,-476.67 l 570.42,0 c 1.35,173.53 39.4,439.13 152.69,457.44 l 0,65.49 25.07,0 0,-522.93 99.81,0 0,-25.07 -99.81,0 0,-90.45 -25.07,0 0,90.45 -127.54,0 c 2.72,-171.99 50.77,-423.43 140.08,-427.51 l 0,-25.08 c -117.15,4.53 -162.68,272.92 -165.16,452.59 l -570.53,0 c -1.63,-245.33 -41.23,-473.61 -176.21,-473.61 l 0,24.06 0,449.55 -76.62,0 0,25.07 76.62,0 0,87.58 25.07,0 0,-87.58 126.07,0 c -1.26,157.79 -21.13,412.74 -126.07,447.58 z" />
      <path
         inkscape:connector-curvature="0"
         style="fill:#ffc000"
         id="path1650-7-9-5"
         d="m 3102.62,2632.64 c 1.61,164.28 43.22,409.55 127.61,431.82 l 0,-431.82 -127.61,0 z m -620.57,-25.07 -126.11,0 0,-445.5 c 104.4,34.7 125.36,287.45 126.11,445.5 z" />
    </g>
    <path
       inkscape:connector-curvature="0"
       id="path4002-4"
       style="font-size:56.85473251px;font-style:normal;font-variant:normal;font-weight:bold;font-stretch:normal;line-height:125%;letter-spacing:0px;word-spacing:0px;fill:#17181d;fill-opacity:1;stroke:none;font-family:Arial;-inkscape-font-specification:Arial Bold"
       d="m 126.19262,949.83053 -4.13036,0 0,-10.84791 3.83638,0 -0.008,0.90819 c 0.80196,-0.37523 1.25574,-0.57449 1.78,-0.80606 0.52426,-0.23149 1.11957,-0.34724 1.78591,-0.34729 0.34581,0.009 0.51835,0.0398 0.85427,0.1186 l -0.57658,3.01872 c -0.21159,-0.056 -0.68548,-0.13035 -1.02162,-0.13343 -0.34266,-0.004 -1.00536,0.0587 -1.27196,0.17968 -0.41767,0.18963 -0.67154,0.34394 -0.90182,0.92271 -0.23028,0.57882 -0.34542,1.79096 -0.34542,3.63642 z"
       sodipodi:nodetypes="cccccccccssssc"
       inkscape:export-filename="C:\Users\sdziok\Desktop\rect4205-5-0-6-42-7-5-1-2.png"
       inkscape:export-xdpi="6.2147975"
       inkscape:export-ydpi="6.2147975" />
    <path
       inkscape:connector-curvature="0"
       id="path4004-8"
       style="font-size:56.85473251px;font-style:normal;font-variant:normal;font-weight:bold;font-stretch:normal;line-height:125%;letter-spacing:0px;word-spacing:0px;fill:#17181d;fill-opacity:1;stroke:none;font-family:Arial;-inkscape-font-specification:Arial Bold"
       d="m 132.47571,937.35705 0,-2.62518 3.94886,0 0,2.62518 z m 0,12.17679 0,-10.72285 3.94886,0 0,10.72285 z"
       inkscape:export-filename="C:\Users\sdziok\Desktop\rect4205-5-0-6-42-7-5-1-2.png"
       inkscape:export-xdpi="6.2147975"
       inkscape:export-ydpi="6.2147975" />
    <path
       inkscape:connector-curvature="0"
       id="path4006-8"
       style="font-size:56.85473251px;font-style:normal;font-variant:normal;font-weight:bold;font-stretch:normal;line-height:125%;letter-spacing:0px;word-spacing:0px;fill:#17181d;fill-opacity:1;stroke:none;font-family:Arial;-inkscape-font-specification:Arial Bold"
       d="m 148.44725,946.49696 3.53469,0.0448 c -0.44273,1.06135 -1.21562,1.85709 -2.1707,2.41193 -0.9551,0.55478 -2.14999,0.83217 -3.58467,0.83217 -2.27091,0 -3.95154,-0.62369 -5.0419,-1.87115 -0.86081,-0.99934 -1.29121,-2.26058 -1.29121,-3.78373 0,-1.81949 0.56566,-3.24446 1.69702,-4.27482 1.13135,-1.03032 2.56194,-1.54549 4.29177,-1.54558 1.94297,9e-5 3.47603,0.53937 4.5992,1.61795 1.12314,1.07864 1.66012,2.88795 1.61095,5.11411 l -7.96761,0 c 0.0246,0.8615 0.0148,1.37477 0.54765,1.85378 0.53288,0.47898 0.79578,0.49176 1.59103,0.49176 0.54107,0 0.99607,-0.0718 1.365,-0.31985 0.36891,-0.24807 0.38973,-0.25431 0.81878,-0.57132 z m -0.68609,-3.40799 c -0.0245,-0.84082 -0.1346,-0.95819 -0.33691,-1.27023 -0.17188,-0.26512 -0.68957,-0.71812 -1.39461,-0.71812 -0.75424,0 -1.20175,0.35048 -1.3759,0.54464 -0.20276,0.22613 -0.48709,0.66963 -0.47888,1.46222 z"
       sodipodi:nodetypes="cccscscccccssccccssccc"
       inkscape:export-filename="C:\Users\sdziok\Desktop\rect4205-5-0-6-42-7-5-1-2.png"
       inkscape:export-xdpi="6.2147975"
       inkscape:export-ydpi="6.2147975" />
    <path
       inkscape:connector-curvature="0"
       id="path4010-2"
       style="font-size:56.85473251px;font-style:normal;font-variant:normal;font-weight:bold;font-stretch:normal;line-height:125%;letter-spacing:0px;word-spacing:0px;fill:#17181d;fill-opacity:1;stroke:none;font-family:Arial;-inkscape-font-specification:Arial Bold"
       d="m 181.05255,949.15834 -3.54273,0 0,-0.79452 c -0.12405,0.11306 -0.51004,0.29317 -1.18264,0.58967 -0.67261,0.29649 -1.35093,0.44472 -2.03493,0.44472 -1.39082,0 -2.58214,-0.49141 -3.57395,-1.47414 -0.99181,-0.98286 -1.48772,-2.35372 -1.48771,-4.11275 -1e-5,-1.79901 0.48259,-3.16655 1.44781,-4.10268 0.96522,-0.93617 2.18503,-1.40425 3.65945,-1.40429 1.35281,4e-5 2.25146,0.31804 2.45066,0.51726 l 0,-4.31512 4.26404,0 z m -7.48953,-5.3396 c 0,0.65309 0.12021,1.23491 0.39505,1.62454 0.29878,0.35794 0.68374,0.62625 1.27086,0.62625 0.3364,0 0.78532,-0.12983 1.07218,-0.4167 0.2774,-0.2774 0.4233,-1.05563 0.4233,-1.74139 -0.008,-0.94713 -0.19099,-1.26037 -0.34586,-1.49762 -0.15488,-0.2373 -0.51999,-0.71868 -1.12309,-0.7274 -0.7661,-0.0111 -1.0983,0.45814 -1.22507,0.58489 -0.0935,0.11161 -0.46738,0.49469 -0.46737,1.54743 z"
       sodipodi:nodetypes="cccsscsscccccccssczscc"
       inkscape:export-filename="C:\Users\sdziok\Desktop\rect4205-5-0-6-42-7-5-1-2.png"
       inkscape:export-xdpi="6.2147975"
       inkscape:export-ydpi="6.2147975" />
    <path
       inkscape:connector-curvature="0"
       id="path4014-4"
       style="font-size:56.85473251px;font-style:normal;font-variant:normal;font-weight:bold;font-stretch:normal;line-height:125%;letter-spacing:0px;word-spacing:0px;fill:#17181d;fill-opacity:1;stroke:none;font-family:Arial;-inkscape-font-specification:Arial Bold"
       d="m 191.83768,938.39228 4.11794,0.0244 2.3479,6.37447 2.19367,-6.36424 3.9402,-0.0348 -3.94688,10.35947 -0.68972,1.79487 c -0.28071,0.6195 -0.71358,1.29871 -1.00261,1.57276 -0.25415,0.32644 -0.61002,0.56355 -0.94004,0.76674 -0.33002,0.20317 -0.52608,0.27621 -1.02018,0.35249 -0.48909,0.0755 -1.3529,0.0712 -1.95985,0.0712 -0.61452,0 -1.21767,-0.0566 -1.80942,-0.16985 l -0.29323,-2.35514 c 0.5356,0 0.93469,0.007 1.3368,0.007 0.74348,0 1.51153,-0.39212 1.86811,-0.77511 0.35657,-0.383 0.36112,-0.76632 0.35022,-0.98412 z"
       sodipodi:nodetypes="cccccccccssccsccc"
       inkscape:export-filename="C:\Users\sdziok\Desktop\rect4205-5-0-6-42-7-5-1-2.png"
       inkscape:export-xdpi="6.2147975"
       inkscape:export-ydpi="6.2147975" />
    <path
       inkscape:connector-curvature="0"
       id="path3881-5"
       style="font-size:62.88571167px;font-style:normal;font-variant:normal;font-weight:bold;font-stretch:normal;line-height:125%;letter-spacing:0px;word-spacing:0px;fill:#17181d;fill-opacity:1;stroke:none;font-family:Ebrima;-inkscape-font-specification:Ebrima Bold"
       d="m 119.36008,937.91776 -6.44906,0 0,2.68131 5.73626,0.004 0,3.38243 -5.7116,0 -0.0247,5.74959 -4.61151,0 0,-14.80241 11.07801,0 z"
       sodipodi:nodetypes="ccccccccccc"
       inkscape:export-filename="C:\Users\sdziok\Desktop\rect4205-5-0-6-42-7-5-1-2.png"
       inkscape:export-xdpi="6.2147975"
       inkscape:export-ydpi="6.2147975" />
    <path
       inkscape:connector-curvature="0"
       id="path3889-5"
       style="font-size:62.88571167px;font-style:normal;font-variant:normal;font-weight:bold;font-stretch:normal;line-height:125%;letter-spacing:0px;word-spacing:0px;fill:#17181d;fill-opacity:1;stroke:none;font-family:Ebrima;-inkscape-font-specification:Ebrima Bold"
       d="m 166.34882,949.55791 -4.07808,0 0,-5.84679 c 0,-1.00373 -0.75029,-1.73965 -1.49156,-1.73965 -0.62213,0 -0.93703,0.25734 -1.17421,0.52238 -0.28662,0.32029 -0.42178,0.85708 -0.42178,1.18014 l 0,5.88392 -4.08947,0 0,-10.95498 3.59617,0 0,1.73307 0.0455,0 c 0.85731,-1.33365 2.10534,-2.00051 3.74411,-2.00056 2.57952,5e-5 3.86928,1.50493 3.86929,4.5147 z"
       sodipodi:nodetypes="ccsscscccccccsc"
       inkscape:export-filename="C:\Users\sdziok\Desktop\rect4205-5-0-6-42-7-5-1-2.png"
       inkscape:export-xdpi="6.2147975"
       inkscape:export-ydpi="6.2147975" />
    <path
       inkscape:connector-curvature="0"
       id="path3893-1"
       style="font-size:62.88571167px;font-style:normal;font-variant:normal;font-weight:bold;font-stretch:normal;line-height:125%;letter-spacing:0px;word-spacing:0px;fill:#17181d;fill-opacity:1;stroke:none;font-family:Ebrima;-inkscape-font-specification:Ebrima Bold"
       d="m 188.69488,949.16328 -4.06902,0 0,-14.62407 4.06902,0 z"
       inkscape:export-filename="C:\Users\sdziok\Desktop\rect4205-5-0-6-42-7-5-1-2.png"
       inkscape:export-xdpi="6.2147975"
       inkscape:export-ydpi="6.2147975" />
    <path
       inkscape:connector-curvature="0"
       id="path3897-7"
       style="font-size:62.88571167px;font-style:normal;font-variant:normal;font-weight:bold;font-stretch:normal;line-height:125%;letter-spacing:0px;word-spacing:0px;fill:#17181d;fill-opacity:1;stroke:none;font-family:Ebrima;-inkscape-font-specification:Ebrima Bold"
       d="m 221.46903,948.96595 -4.68254,0 -1.21892,-2.46038 -4.62963,0.0348 -1.10335,2.4255 -4.03283,-0.0347 5.28395,-14.78868 4.46309,0 z m -6.48335,-5.54055 -1.68663,-4.56484 -1.02769,4.54017 z"
       sodipodi:nodetypes="ccccccccccccc"
       inkscape:export-filename="C:\Users\sdziok\Desktop\rect4205-5-0-6-42-7-5-1-2.png"
       inkscape:export-xdpi="6.2147975"
       inkscape:export-ydpi="6.2147975" />
    <path
       inkscape:connector-curvature="0"
       id="path3899-1"
       style="font-size:62.88571167px;font-style:normal;font-variant:normal;font-weight:bold;font-stretch:normal;line-height:125%;letter-spacing:0px;word-spacing:0px;fill:#17181d;fill-opacity:1;stroke:none;font-family:Ebrima;-inkscape-font-specification:Ebrima Bold"
       d="m 238.54926,948.81797 -4.8639,0.0174 -1.8491,-3.79375 c -0.2112,-0.28656 -0.41394,-0.5424 -0.60823,-0.76758 -0.19431,-0.22515 -0.39072,-0.41789 -0.58924,-0.57823 -0.19852,-0.1603 -0.40549,-0.28312 -0.6209,-0.36843 -0.21542,-0.0853 -0.44984,-0.1279 -0.70328,-0.1279 l -0.70129,0 0.0174,5.61844 -4.5115,0 0,-14.67557 6.48786,0 c 4.40972,0 6.61457,1.33042 6.61458,3.99128 -1e-5,0.51169 -0.0972,0.98415 -0.29144,1.41739 -0.19432,0.43324 -0.46887,0.82386 -0.82365,1.17181 -0.35482,0.34795 -0.78355,0.64815 -1.28618,0.9006 -0.49393,0.32219 -0.28997,0.66494 -0.17471,0.84426 0.11524,0.17932 0.22137,0.32459 0.4025,0.51216 0.18113,0.18758 0.31107,0.35391 0.53267,0.60775 1.20931,1.59913 2.0291,3.46017 2.96837,5.23032 z m -9.93594,-11.69316 0,2.94974 1.35545,0.0348 c 0.87827,0.0224 1.86299,0.0569 2.39521,-0.35245 0.54065,-0.41619 0.54936,-0.59994 0.54937,-1.21399 -1e-5,-1.28263 -1.38668,-1.36803 -3.28712,-1.40074 z"
       sodipodi:nodetypes="ccccccsccccscccczzccccsccsc"
       inkscape:export-filename="C:\Users\sdziok\Desktop\rect4205-5-0-6-42-7-5-1-2.png"
       inkscape:export-xdpi="6.2147975"
       inkscape:export-ydpi="6.2147975" />
    <path
       inkscape:connector-curvature="0"
       id="path3901-1"
       style="font-size:62.88571167px;font-style:normal;font-variant:normal;font-weight:bold;font-stretch:normal;line-height:125%;letter-spacing:0px;word-spacing:0px;fill:#17181d;fill-opacity:1;stroke:none;font-family:Ebrima;-inkscape-font-specification:Ebrima Bold"
       d="m 257.42988,948.76864 -3.41767,0 c 0.0194,-3.94854 -0.19454,-9.7496 -0.19454,-9.7496 l -2.75366,9.7496 -3.18444,0 c -1.0824,-4.11452 -2.85818,-10.0635 -2.85818,-10.0635 l -0.0451,10.02861 -3.80185,0.0348 0,-14.57691 5.71708,0 c 0.91911,3.5544 2.6548,8.10821 2.6548,8.10821 0,0 1.52026,-4.97268 2.18118,-8.17799 l 5.70236,0.0698 z"
       sodipodi:nodetypes="cccccccccccccc"
       inkscape:export-filename="C:\Users\sdziok\Desktop\rect4205-5-0-6-42-7-5-1-2.png"
       inkscape:export-xdpi="6.2147975"
       inkscape:export-ydpi="6.2147975" />
    <path
       sodipodi:type="arc"
       style="fill:#abaeb8;fill-opacity:1;fill-rule:evenodd;stroke:none;display:inline"
       id="path7217-7-3-2-53-8-0-4-1-5-0"
       sodipodi:cx="871.68585"
       sodipodi:cy="1060.6707"
       sodipodi:rx="41.542522"
       sodipodi:ry="41.542522"
       d="m 913.22824,1060.5667 c 0.0574,22.9432 -18.49519,41.5889 -41.43842,41.6463 -22.94323,0.058 -41.58894,-18.4952 -41.64636,-41.4384 -0.0574,-22.9432 18.4952,-41.5889 41.43843,-41.6463 22.92555,-0.057 41.56385,18.4676 41.64622,41.3931"
       sodipodi:start="6.2806827"
       sodipodi:end="12.562778"
       sodipodi:open="true"
       transform="matrix(-0.34426077,0,0,-0.34426077,634.51683,909.06508)"
       inkscape:export-filename="C:\Users\sdziok\Desktop\rect4205-5-0-6-42-7-5-1-2.png"
       inkscape:export-xdpi="6.2147975"
       inkscape:export-ydpi="6.2147975" />
    <path
       sodipodi:type="arc"
       style="fill:url(#radialGradient4737-8);fill-opacity:1;fill-rule:evenodd;stroke:none;display:inline;filter:url(#filter8912-5-3-8-0)"
       id="path7217-7-3-3-2-18-3-1-1-9-4-0"
       sodipodi:cx="871.68585"
       sodipodi:cy="1060.6707"
       sodipodi:rx="41.542522"
       sodipodi:ry="41.542522"
       d="m 913.22824,1060.5667 c 0.0574,22.9432 -18.49519,41.5889 -41.43842,41.6463 -22.94323,0.058 -41.58894,-18.4952 -41.64636,-41.4384 -0.0574,-22.9432 18.4952,-41.5889 41.43843,-41.6463 22.92555,-0.057 41.56385,18.4676 41.64622,41.3931"
       sodipodi:start="6.2806827"
       sodipodi:end="12.562778"
       sodipodi:open="true"
       transform="matrix(0.34426077,0,0,0.34426077,34.342299,178.77048)"
       inkscape:export-filename="C:\Users\sdziok\Desktop\rect4205-5-0-6-42-7-5-1-2.png"
       inkscape:export-xdpi="6.2147975"
       inkscape:export-ydpi="6.2147975" />
    <path
       sodipodi:type="arc"
       style="fill:#abaeb8;fill-opacity:1;fill-rule:evenodd;stroke:none;display:inline"
       id="path7217-7-3-0-7-2-8-6-7-85-1-1-7"
       sodipodi:cx="871.68585"
       sodipodi:cy="1060.6707"
       sodipodi:rx="41.542522"
       sodipodi:ry="41.542522"
       d="m 913.22824,1060.5667 c 0.0574,22.9432 -18.49519,41.5889 -41.43842,41.6463 -22.94323,0.058 -41.58894,-18.4952 -41.64636,-41.4384 -0.0574,-22.9432 18.4952,-41.5889 41.43843,-41.6463 22.92555,-0.057 41.56385,18.4676 41.64622,41.3931"
       sodipodi:start="6.2806827"
       sodipodi:end="12.562778"
       sodipodi:open="true"
       transform="matrix(-0.24895513,0,0,-0.24895513,551.16009,808.18802)"
       inkscape:export-filename="C:\Users\sdziok\Desktop\rect4205-5-0-6-42-7-5-1-2.png"
       inkscape:export-xdpi="6.2147975"
       inkscape:export-ydpi="6.2147975" />
    <path
       sodipodi:type="arc"
       style="fill:url(#radialGradient6663-9-9-1-0-6-95-3-7-2);fill-opacity:1;fill-rule:evenodd;stroke:none;display:inline;filter:url(#filter8892-2-5-2-2)"
       id="path4335-8-3-87-7-8-8-4-7-3-2-2"
       sodipodi:cx="2124.5"
       sodipodi:cy="329.86218"
       sodipodi:rx="102.5"
       sodipodi:ry="102.5"
       d="m 2226.9997,329.60567 c 0.1416,56.60901 -45.6342,102.61452 -102.2432,102.75619 -56.609,0.14167 -102.6145,-45.63415 -102.7562,-102.24316 -0.1416,-56.60901 45.6342,-102.61453 102.2432,-102.7562 56.5654,-0.14156 102.5526,45.56625 102.7558,102.13144"
       sodipodi:start="6.2806827"
       sodipodi:end="12.562778"
       sodipodi:open="true"
       transform="matrix(-0.11175457,0,0,-0.11175457,571.85219,580.78142)"
       inkscape:export-filename="C:\Users\sdziok\Desktop\rect4205-5-0-6-42-7-5-1-2.png"
       inkscape:export-xdpi="6.2147975"
       inkscape:export-ydpi="6.2147975" />
    <path
       style="fill:url(#radialGradient5794-6-4-66-3-15-9-8-8-0-1-8);fill-opacity:1;fill-rule:evenodd;stroke:none;display:inline;filter:url(#filter6841-8-5-2-1-9-0-3-5-8)"
       d="m 862.17396,1006.7604 c 1.3316,1.3089 1.5194,3.2678 0.4155,4.3907 0,0 -7.3724,7.4325 -7.3174,13.862 0.055,6.4249 7.5416,13.4064 7.5416,13.4064 1.123,1.1038 0.9787,3.0556 -0.3302,4.3872 l -5.1151,5.2036 c -1.3088,1.3316 -3.2677,1.5193 -4.3906,0.4155 0,0 -7.1797,-6.3307 -13.6046,-6.2757 -6.4248,0.055 -13.65379,6.5098 -13.65379,6.5098 -1.1038,1.1229 -3.0755,0.9788 -4.407,-0.33 l -5.2037,-5.1151 c -1.3315,-1.3089 -1.5095,-3.2778 -0.4056,-4.4007 0,0 6.8106,-6.8657 6.7556,-13.2905 -0.055,-6.4249 -6.9896,-13.9678 -6.9896,-13.9678 -1.123,-1.1039 -0.9689,-3.0657 0.3399,-4.3973 l 5.1151,-5.2036 c 1.3089,-1.3316 3.258,-1.5093 4.3809,-0.4055 0,0 6.71209,7.4482 13.13689,7.3932 6.4295,-0.055 14.1313,-7.6373 14.1313,-7.6373 1.1038,-1.1229 3.0656,-0.9688 4.3971,0.3401 z"
       id="rect4127-6-7-0-2-30-4-0-8-6-88-3-3-5"
       inkscape:connector-curvature="0"
       sodipodi:nodetypes="sssssssssssssssssssss"
       transform="matrix(-0.31850453,0,0,-0.31850453,601.64355,870.43449)"
       inkscape:export-filename="C:\Users\sdziok\Desktop\rect4205-5-0-6-42-7-5-1-2.png"
       inkscape:export-xdpi="6.2147975"
       inkscape:export-ydpi="6.2147975" />
    <path
       style="fill:url(#radialGradient4214-1-2-1-98-3-4-7-7-6-0-8-7);fill-opacity:1;fill-rule:evenodd;stroke:none;display:inline;filter:url(#filter6829-3-1-6-5-8-9-9-5-2)"
       d="m 857.09316,1002.8323 c -1.3316,-1.3089 -2.7243,-0.6805 -3.8281,0.4424 0,0 -7.8352,11.6887 -14.2648,11.7439 -6.4248,0.055 -13.66169,-12.2888 -13.66169,-12.2888 -1.123,-1.1038 -2.5415,-1.5082 -3.829,-0.1561 l -4.8772,5.1222 c -1.2875,1.3522 -0.8308,2.8107 0.2922,3.9145 0,0 12.0701,6.7558 12.1253,13.1807 0.055,6.4248 -12.5262,14.2421 -12.5262,14.2421 -1.1038,1.123 -1.0141,2.219 0.3186,3.5266 l 4.5563,4.4708 c 1.3328,1.3075 2.4026,1.1795 3.5064,0.057 0,0 8.25809,-12.6378 14.68299,-12.6929 6.4248,-0.055 13.3115,11.4522 13.3115,11.4522 1.123,1.1039 2.3052,2.16 3.6141,0.8285 l 5.0035,-5.0903 c 1.3089,-1.3315 0.4866,-2.6507 -0.6364,-3.7546 0,0 -12.8143,-7.1101 -12.8695,-13.5349 -0.055,-6.4295 12.2652,-14.017 12.2652,-14.017 1.1038,-1.123 1.7071,-2.6387 0.3756,-3.9476 z"
       id="rect4127-6-5-9-2-4-76-0-17-6-7-4-4-3-5"
       inkscape:connector-curvature="0"
       sodipodi:nodetypes="sssssssssssssssssssss"
       transform="matrix(-0.31850453,0,0,-0.31850453,601.64355,870.43449)"
       inkscape:export-filename="C:\Users\sdziok\Desktop\rect4205-5-0-6-42-7-5-1-2.png"
       inkscape:export-xdpi="6.2147975"
       inkscape:export-ydpi="6.2147975" />
    <path
       style="fill:url(#radialGradient5802-9-3-04-1-4-5-9-9-9-1-2);fill-opacity:1;fill-rule:evenodd;stroke:none;display:inline;filter:url(#filter6821-51-0-9-3-9-4-1-9-6)"
       d="m 848.76176,1018.2418 c 0,0 -1.3737,3.9525 -1.3491,6.0032 0.026,2.1897 1.6078,6.2532 1.6078,6.2532 0.6873,2.3652 -2.1524,5.1565 -4.2724,4.22 0,0 -3.8884,-1.1873 -5.953,-0.9627 -2.1499,0.2339 -6.3818,1.5399 -6.3818,1.5399 -2.35909,0.7073 -5.47089,-2.4085 -4.53839,-4.3507 0,0 2.1558,-4.1572 2.0824,-6.399 -0.069,-2.1015 -2.3411,-5.8574 -2.3411,-5.8574 -0.9141,-2.287 2.7328,-5.6594 4.35069,-4.5385 0,0 4.1006,1.9975 6.2955,1.9378 2.1168,-0.058 5.961,-2.1965 5.961,-2.1965 2.311,-0.8517 5.597,2.3401 4.5384,4.3507 z"
       id="rect4205-5-0-6-42-7-5-1-0-2-3-4-2"
       inkscape:connector-curvature="0"
       sodipodi:nodetypes="sssssssssssss"
       transform="matrix(-0.31850453,0,0,-0.31850453,601.64355,870.43449)"
       inkscape:export-filename="C:\Users\sdziok\Desktop\rect4205-5-0-6-42-7-5-1-2.png"
       inkscape:export-xdpi="6.2147975"
       inkscape:export-ydpi="6.2147975" />
    <path
       sodipodi:type="arc"
       style="fill:#abaeb8;fill-opacity:1;fill-rule:evenodd;stroke:none;display:inline"
       id="path7217-7-3-2-53-8-0-4-1-5-0-6"
       sodipodi:cx="871.68585"
       sodipodi:cy="1060.6707"
       sodipodi:rx="41.542522"
       sodipodi:ry="41.542522"
       d="m 913.22824,1060.5667 c 0.0574,22.9432 -18.49519,41.5889 -41.43842,41.6463 -22.94323,0.058 -41.58894,-18.4952 -41.64636,-41.4384 -0.0574,-22.9432 18.4952,-41.5889 41.43843,-41.6463 22.92555,-0.057 41.56385,18.4676 41.64622,41.3931"
       sodipodi:start="6.2806827"
       sodipodi:end="12.562778"
       sodipodi:open="true"
       transform="matrix(0.34426077,0,0,-0.34426077,-280.18612,909.06505)"
       inkscape:export-filename="C:\Users\sdziok\Desktop\rect4205-5-0-6-42-7-5-1-2.png"
       inkscape:export-xdpi="6.2147975"
       inkscape:export-ydpi="6.2147975" />
    <path
       sodipodi:type="arc"
       style="fill:url(#radialGradient4737-8-0);fill-opacity:1;fill-rule:evenodd;stroke:none;display:inline;filter:url(#filter8912-5-3-8-0-0)"
       id="path7217-7-3-3-2-18-3-1-1-9-4-0-7"
       sodipodi:cx="871.68585"
       sodipodi:cy="1060.6707"
       sodipodi:rx="41.542522"
       sodipodi:ry="41.542522"
       d="m 913.22824,1060.5667 c 0.0574,22.9432 -18.49519,41.5889 -41.43842,41.6463 -22.94323,0.058 -41.58894,-18.4952 -41.64636,-41.4384 -0.0574,-22.9432 18.4952,-41.5889 41.43843,-41.6463 22.92555,-0.057 41.56385,18.4676 41.64622,41.3931"
       sodipodi:start="6.2806827"
       sodipodi:end="12.562778"
       sodipodi:open="true"
       transform="matrix(-0.34426077,0,0,0.34426077,319.9884,178.77048)"
       inkscape:export-filename="C:\Users\sdziok\Desktop\rect4205-5-0-6-42-7-5-1-2.png"
       inkscape:export-xdpi="6.2147975"
       inkscape:export-ydpi="6.2147975" />
    <path
       sodipodi:type="arc"
       style="fill:#abaeb8;fill-opacity:1;fill-rule:evenodd;stroke:none;display:inline"
       id="path7217-7-3-0-7-2-8-6-7-85-1-1-7-8"
       sodipodi:cx="871.68585"
       sodipodi:cy="1060.6707"
       sodipodi:rx="41.542522"
       sodipodi:ry="41.542522"
       d="m 913.22824,1060.5667 c 0.0574,22.9432 -18.49519,41.5889 -41.43842,41.6463 -22.94323,0.058 -41.58894,-18.4952 -41.64636,-41.4384 -0.0574,-22.9432 18.4952,-41.5889 41.43843,-41.6463 22.92555,-0.057 41.56385,18.4676 41.64622,41.3931"
       sodipodi:start="6.2806827"
       sodipodi:end="12.562778"
       sodipodi:open="true"
       transform="matrix(0.24895513,0,0,-0.24895513,-196.8294,808.18798)"
       inkscape:export-filename="C:\Users\sdziok\Desktop\rect4205-5-0-6-42-7-5-1-2.png"
       inkscape:export-xdpi="6.2147975"
       inkscape:export-ydpi="6.2147975" />
    <path
       sodipodi:type="arc"
       style="fill:url(#radialGradient6663-9-9-1-0-6-95-3-7-2-5);fill-opacity:1;fill-rule:evenodd;stroke:none;display:inline;filter:url(#filter8892-2-5-2-2-9)"
       id="path4335-8-3-87-7-8-8-4-7-3-2-2-3"
       sodipodi:cx="2124.5"
       sodipodi:cy="329.86218"
       sodipodi:rx="102.5"
       sodipodi:ry="102.5"
       d="m 2226.9997,329.60567 c 0.1416,56.60901 -45.6342,102.61452 -102.2432,102.75619 -56.609,0.14167 -102.6145,-45.63415 -102.7562,-102.24316 -0.1416,-56.60901 45.6342,-102.61453 102.2432,-102.7562 56.5654,-0.14156 102.5526,45.56625 102.7558,102.13144"
       sodipodi:start="6.2806827"
       sodipodi:end="12.562778"
       sodipodi:open="true"
       transform="matrix(0.11175457,0,0,-0.11175457,-217.5215,580.78138)"
       inkscape:export-filename="C:\Users\sdziok\Desktop\rect4205-5-0-6-42-7-5-1-2.png"
       inkscape:export-xdpi="6.2147975"
       inkscape:export-ydpi="6.2147975" />
    <path
       style="fill:url(#radialGradient5794-6-4-66-3-15-9-8-8-0-1-8-1);fill-opacity:1;fill-rule:evenodd;stroke:none;display:inline;filter:url(#filter6841-8-5-2-1-9-0-3-5-8-4)"
       d="m 862.17396,1006.7604 c 1.3316,1.3089 1.5194,3.2678 0.4155,4.3907 0,0 -7.3724,7.4325 -7.3174,13.862 0.055,6.4249 7.5416,13.4064 7.5416,13.4064 1.123,1.1038 0.9787,3.0556 -0.3302,4.3872 l -5.1151,5.2036 c -1.3088,1.3316 -3.2677,1.5193 -4.3906,0.4155 0,0 -7.1797,-6.3307 -13.6046,-6.2757 -6.4248,0.055 -13.65379,6.5098 -13.65379,6.5098 -1.1038,1.1229 -3.0755,0.9788 -4.407,-0.33 l -5.2037,-5.1151 c -1.3315,-1.3089 -1.5095,-3.2778 -0.4056,-4.4007 0,0 6.8106,-6.8657 6.7556,-13.2905 -0.055,-6.4249 -6.9896,-13.9678 -6.9896,-13.9678 -1.123,-1.1039 -0.9689,-3.0657 0.3399,-4.3973 l 5.1151,-5.2036 c 1.3089,-1.3316 3.258,-1.5093 4.3809,-0.4055 0,0 6.71209,7.4482 13.13689,7.3932 6.4295,-0.055 14.1313,-7.6373 14.1313,-7.6373 1.1038,-1.1229 3.0656,-0.9688 4.3971,0.3401 z"
       id="rect4127-6-7-0-2-30-4-0-8-6-88-3-3-5-6"
       inkscape:connector-curvature="0"
       sodipodi:nodetypes="sssssssssssssssssssss"
       transform="matrix(0.31850453,0,0,-0.31850453,-247.31286,870.43445)"
       inkscape:export-filename="C:\Users\sdziok\Desktop\rect4205-5-0-6-42-7-5-1-2.png"
       inkscape:export-xdpi="6.2147975"
       inkscape:export-ydpi="6.2147975" />
    <path
       style="fill:url(#radialGradient4214-1-2-1-98-3-4-7-7-6-0-8-7-8);fill-opacity:1;fill-rule:evenodd;stroke:none;display:inline;filter:url(#filter6829-3-1-6-5-8-9-9-5-2-5)"
       d="m 857.09316,1002.8323 c -1.3316,-1.3089 -2.7243,-0.6805 -3.8281,0.4424 0,0 -7.8352,11.6887 -14.2648,11.7439 -6.4248,0.055 -13.66169,-12.2888 -13.66169,-12.2888 -1.123,-1.1038 -2.5415,-1.5082 -3.829,-0.1561 l -4.8772,5.1222 c -1.2875,1.3522 -0.8308,2.8107 0.2922,3.9145 0,0 12.0701,6.7558 12.1253,13.1807 0.055,6.4248 -12.5262,14.2421 -12.5262,14.2421 -1.1038,1.123 -1.0141,2.219 0.3186,3.5266 l 4.5563,4.4708 c 1.3328,1.3075 2.4026,1.1795 3.5064,0.057 0,0 8.25809,-12.6378 14.68299,-12.6929 6.4248,-0.055 13.3115,11.4522 13.3115,11.4522 1.123,1.1039 2.3052,2.16 3.6141,0.8285 l 5.0035,-5.0903 c 1.3089,-1.3315 0.4866,-2.6507 -0.6364,-3.7546 0,0 -12.8143,-7.1101 -12.8695,-13.5349 -0.055,-6.4295 12.2652,-14.017 12.2652,-14.017 1.1038,-1.123 1.7071,-2.6387 0.3756,-3.9476 z"
       id="rect4127-6-5-9-2-4-76-0-17-6-7-4-4-3-5-4"
       inkscape:connector-curvature="0"
       sodipodi:nodetypes="sssssssssssssssssssss"
       transform="matrix(0.31850453,0,0,-0.31850453,-247.31286,870.43445)"
       inkscape:export-filename="C:\Users\sdziok\Desktop\rect4205-5-0-6-42-7-5-1-2.png"
       inkscape:export-xdpi="6.2147975"
       inkscape:export-ydpi="6.2147975" />
    <path
       style="fill:url(#radialGradient5802-9-3-04-1-4-5-9-9-9-1-2-1);fill-opacity:1;fill-rule:evenodd;stroke:none;display:inline;filter:url(#filter6821-51-0-9-3-9-4-1-9-6-4)"
       d="m 848.76176,1018.2418 c 0,0 -1.3737,3.9525 -1.3491,6.0032 0.026,2.1897 1.6078,6.2532 1.6078,6.2532 0.6873,2.3652 -2.1524,5.1565 -4.2724,4.22 0,0 -3.8884,-1.1873 -5.953,-0.9627 -2.1499,0.2339 -6.3818,1.5399 -6.3818,1.5399 -2.35909,0.7073 -5.47089,-2.4085 -4.53839,-4.3507 0,0 2.1558,-4.1572 2.0824,-6.399 -0.069,-2.1015 -2.3411,-5.8574 -2.3411,-5.8574 -0.9141,-2.287 2.7328,-5.6594 4.35069,-4.5385 0,0 4.1006,1.9975 6.2955,1.9378 2.1168,-0.058 5.961,-2.1965 5.961,-2.1965 2.311,-0.8517 5.597,2.3401 4.5384,4.3507 z"
       id="rect4205-5-0-6-42-7-5-1-0-2-3-4-2-4"
       inkscape:connector-curvature="0"
       sodipodi:nodetypes="sssssssssssss"
       transform="matrix(0.31850453,0,0,-0.31850453,-247.31286,870.43445)"
       inkscape:export-filename="C:\Users\sdziok\Desktop\rect4205-5-0-6-42-7-5-1-2.png"
       inkscape:export-xdpi="6.2147975"
       inkscape:export-ydpi="6.2147975" />
    <path
       sodipodi:type="arc"
       style="fill:#abaeb8;fill-opacity:1;fill-rule:evenodd;stroke:none;display:inline"
       id="path7217-7-3-2-53-8-0-4-1-5-0-4"
       sodipodi:cx="871.68585"
       sodipodi:cy="1060.6707"
       sodipodi:rx="41.542522"
       sodipodi:ry="41.542522"
       d="m 913.22824,1060.5667 c 0.0574,22.9432 -18.49519,41.5889 -41.43842,41.6463 -22.94323,0.058 -41.58894,-18.4952 -41.64636,-41.4384 -0.0574,-22.9432 18.4952,-41.5889 41.43843,-41.6463 22.92555,-0.057 41.56385,18.4676 41.64622,41.3931"
       sodipodi:start="6.2806827"
       sodipodi:end="12.562778"
       sodipodi:open="true"
       transform="matrix(0.34426077,0,0,0.34426077,-279.90601,594.29146)"
       inkscape:export-filename="C:\Users\sdziok\Desktop\rect4205-5-0-6-42-7-5-1-2.png"
       inkscape:export-xdpi="6.2147975"
       inkscape:export-ydpi="6.2147975" />
    <path
       sodipodi:type="arc"
       style="fill:url(#radialGradient4737-8-5);fill-opacity:1;fill-rule:evenodd;stroke:none;display:inline;filter:url(#filter8912-5-3-8-0-5)"
       id="path7217-7-3-3-2-18-3-1-1-9-4-0-6"
       sodipodi:cx="871.68585"
       sodipodi:cy="1060.6707"
       sodipodi:rx="41.542522"
       sodipodi:ry="41.542522"
       d="m 913.22824,1060.5667 c 0.0574,22.9432 -18.49519,41.5889 -41.43842,41.6463 -22.94323,0.058 -41.58894,-18.4952 -41.64636,-41.4384 -0.0574,-22.9432 18.4952,-41.5889 41.43843,-41.6463 22.92555,-0.057 41.56385,18.4676 41.64622,41.3931"
       sodipodi:start="6.2806827"
       sodipodi:end="12.562778"
       sodipodi:open="true"
       transform="matrix(-0.34426077,0,0,-0.34426077,320.26851,1324.586)"
       inkscape:export-filename="C:\Users\sdziok\Desktop\rect4205-5-0-6-42-7-5-1-2.png"
       inkscape:export-xdpi="6.2147975"
       inkscape:export-ydpi="6.2147975" />
    <path
       sodipodi:type="arc"
       style="fill:#abaeb8;fill-opacity:1;fill-rule:evenodd;stroke:none;display:inline"
       id="path7217-7-3-0-7-2-8-6-7-85-1-1-7-3"
       sodipodi:cx="871.68585"
       sodipodi:cy="1060.6707"
       sodipodi:rx="41.542522"
       sodipodi:ry="41.542522"
       d="m 913.22824,1060.5667 c 0.0574,22.9432 -18.49519,41.5889 -41.43842,41.6463 -22.94323,0.058 -41.58894,-18.4952 -41.64636,-41.4384 -0.0574,-22.9432 18.4952,-41.5889 41.43843,-41.6463 22.92555,-0.057 41.56385,18.4676 41.64622,41.3931"
       sodipodi:start="6.2806827"
       sodipodi:end="12.562778"
       sodipodi:open="true"
       transform="matrix(0.24895513,0,0,0.24895513,-196.54927,695.16853)"
       inkscape:export-filename="C:\Users\sdziok\Desktop\rect4205-5-0-6-42-7-5-1-2.png"
       inkscape:export-xdpi="6.2147975"
       inkscape:export-ydpi="6.2147975" />
    <path
       sodipodi:type="arc"
       style="fill:url(#radialGradient6663-9-9-1-0-6-95-3-7-2-9);fill-opacity:1;fill-rule:evenodd;stroke:none;display:inline;filter:url(#filter8892-2-5-2-2-1)"
       id="path4335-8-3-87-7-8-8-4-7-3-2-2-4"
       sodipodi:cx="2124.5"
       sodipodi:cy="329.86218"
       sodipodi:rx="102.5"
       sodipodi:ry="102.5"
       d="m 2226.9997,329.60567 c 0.1416,56.60901 -45.6342,102.61452 -102.2432,102.75619 -56.609,0.14167 -102.6145,-45.63415 -102.7562,-102.24316 -0.1416,-56.60901 45.6342,-102.61453 102.2432,-102.7562 56.5654,-0.14156 102.5526,45.56625 102.7558,102.13144"
       sodipodi:start="6.2806827"
       sodipodi:end="12.562778"
       sodipodi:open="true"
       transform="matrix(0.11175457,0,0,0.11175457,-217.24137,922.57513)"
       inkscape:export-filename="C:\Users\sdziok\Desktop\rect4205-5-0-6-42-7-5-1-2.png"
       inkscape:export-xdpi="6.2147975"
       inkscape:export-ydpi="6.2147975" />
    <path
       style="fill:url(#radialGradient5794-6-4-66-3-15-9-8-8-0-1-8-2);fill-opacity:1;fill-rule:evenodd;stroke:none;display:inline;filter:url(#filter6841-8-5-2-1-9-0-3-5-8-6)"
       d="m 862.17396,1006.7604 c 1.3316,1.3089 1.5194,3.2678 0.4155,4.3907 0,0 -7.3724,7.4325 -7.3174,13.862 0.055,6.4249 7.5416,13.4064 7.5416,13.4064 1.123,1.1038 0.9787,3.0556 -0.3302,4.3872 l -5.1151,5.2036 c -1.3088,1.3316 -3.2677,1.5193 -4.3906,0.4155 0,0 -7.1797,-6.3307 -13.6046,-6.2757 -6.4248,0.055 -13.65379,6.5098 -13.65379,6.5098 -1.1038,1.1229 -3.0755,0.9788 -4.407,-0.33 l -5.2037,-5.1151 c -1.3315,-1.3089 -1.5095,-3.2778 -0.4056,-4.4007 0,0 6.8106,-6.8657 6.7556,-13.2905 -0.055,-6.4249 -6.9896,-13.9678 -6.9896,-13.9678 -1.123,-1.1039 -0.9689,-3.0657 0.3399,-4.3973 l 5.1151,-5.2036 c 1.3089,-1.3316 3.258,-1.5093 4.3809,-0.4055 0,0 6.71209,7.4482 13.13689,7.3932 6.4295,-0.055 14.1313,-7.6373 14.1313,-7.6373 1.1038,-1.1229 3.0656,-0.9688 4.3971,0.3401 z"
       id="rect4127-6-7-0-2-30-4-0-8-6-88-3-3-5-9"
       inkscape:connector-curvature="0"
       sodipodi:nodetypes="sssssssssssssssssssss"
       transform="matrix(0.31850453,0,0,0.31850453,-247.03273,632.92206)"
       inkscape:export-filename="C:\Users\sdziok\Desktop\rect4205-5-0-6-42-7-5-1-2.png"
       inkscape:export-xdpi="6.2147975"
       inkscape:export-ydpi="6.2147975" />
    <path
       style="fill:url(#radialGradient4214-1-2-1-98-3-4-7-7-6-0-8-7-4);fill-opacity:1;fill-rule:evenodd;stroke:none;display:inline;filter:url(#filter6829-3-1-6-5-8-9-9-5-2-52)"
       d="m 857.09316,1002.8323 c -1.3316,-1.3089 -2.7243,-0.6805 -3.8281,0.4424 0,0 -7.8352,11.6887 -14.2648,11.7439 -6.4248,0.055 -13.66169,-12.2888 -13.66169,-12.2888 -1.123,-1.1038 -2.5415,-1.5082 -3.829,-0.1561 l -4.8772,5.1222 c -1.2875,1.3522 -0.8308,2.8107 0.2922,3.9145 0,0 12.0701,6.7558 12.1253,13.1807 0.055,6.4248 -12.5262,14.2421 -12.5262,14.2421 -1.1038,1.123 -1.0141,2.219 0.3186,3.5266 l 4.5563,4.4708 c 1.3328,1.3075 2.4026,1.1795 3.5064,0.057 0,0 8.25809,-12.6378 14.68299,-12.6929 6.4248,-0.055 13.3115,11.4522 13.3115,11.4522 1.123,1.1039 2.3052,2.16 3.6141,0.8285 l 5.0035,-5.0903 c 1.3089,-1.3315 0.4866,-2.6507 -0.6364,-3.7546 0,0 -12.8143,-7.1101 -12.8695,-13.5349 -0.055,-6.4295 12.2652,-14.017 12.2652,-14.017 1.1038,-1.123 1.7071,-2.6387 0.3756,-3.9476 z"
       id="rect4127-6-5-9-2-4-76-0-17-6-7-4-4-3-5-0"
       inkscape:connector-curvature="0"
       sodipodi:nodetypes="sssssssssssssssssssss"
       transform="matrix(0.31850453,0,0,0.31850453,-247.03273,632.92206)"
       inkscape:export-filename="C:\Users\sdziok\Desktop\rect4205-5-0-6-42-7-5-1-2.png"
       inkscape:export-xdpi="6.2147975"
       inkscape:export-ydpi="6.2147975" />
    <path
       style="fill:url(#radialGradient5802-9-3-04-1-4-5-9-9-9-1-2-19);fill-opacity:1;fill-rule:evenodd;stroke:none;display:inline;filter:url(#filter6821-51-0-9-3-9-4-1-9-6-47)"
       d="m 848.76176,1018.2418 c 0,0 -1.3737,3.9525 -1.3491,6.0032 0.026,2.1897 1.6078,6.2532 1.6078,6.2532 0.6873,2.3652 -2.1524,5.1565 -4.2724,4.22 0,0 -3.8884,-1.1873 -5.953,-0.9627 -2.1499,0.2339 -6.3818,1.5399 -6.3818,1.5399 -2.35909,0.7073 -5.47089,-2.4085 -4.53839,-4.3507 0,0 2.1558,-4.1572 2.0824,-6.399 -0.069,-2.1015 -2.3411,-5.8574 -2.3411,-5.8574 -0.9141,-2.287 2.7328,-5.6594 4.35069,-4.5385 0,0 4.1006,1.9975 6.2955,1.9378 2.1168,-0.058 5.961,-2.1965 5.961,-2.1965 2.311,-0.8517 5.597,2.3401 4.5384,4.3507 z"
       id="rect4205-5-0-6-42-7-5-1-0-2-3-4-2-5"
       inkscape:connector-curvature="0"
       sodipodi:nodetypes="sssssssssssss"
       transform="matrix(0.31850453,0,0,0.31850453,-247.03273,632.92206)"
       inkscape:export-filename="C:\Users\sdziok\Desktop\rect4205-5-0-6-42-7-5-1-2.png"
       inkscape:export-xdpi="6.2147975"
       inkscape:export-ydpi="6.2147975" />
    <path
       sodipodi:type="arc"
       style="fill:#abaeb8;fill-opacity:1;fill-rule:evenodd;stroke:none;display:inline"
       id="path7217-7-3-2-53-8-0-4-1-5-0-2"
       sodipodi:cx="871.68585"
       sodipodi:cy="1060.6707"
       sodipodi:rx="41.542522"
       sodipodi:ry="41.542522"
       d="m 913.22824,1060.5667 c 0.0574,22.9432 -18.49519,41.5889 -41.43842,41.6463 -22.94323,0.058 -41.58894,-18.4952 -41.64636,-41.4384 -0.0574,-22.9432 18.4952,-41.5889 41.43843,-41.6463 22.92555,-0.057 41.56385,18.4676 41.64622,41.3931"
       sodipodi:start="6.2806827"
       sodipodi:end="12.562778"
       sodipodi:open="true"
       transform="matrix(-0.34426077,0,0,0.34426077,634.72898,593.89528)"
       inkscape:export-filename="C:\Users\sdziok\Desktop\rect4205-5-0-6-42-7-5-1-2.png"
       inkscape:export-xdpi="6.2147975"
       inkscape:export-ydpi="6.2147975" />
    <path
       sodipodi:type="arc"
       style="fill:url(#radialGradient4737-8-7);fill-opacity:1;fill-rule:evenodd;stroke:none;display:inline;filter:url(#filter8912-5-3-8-0-4)"
       id="path7217-7-3-3-2-18-3-1-1-9-4-0-2"
       sodipodi:cx="871.68585"
       sodipodi:cy="1060.6707"
       sodipodi:rx="41.542522"
       sodipodi:ry="41.542522"
       d="m 913.22824,1060.5667 c 0.0574,22.9432 -18.49519,41.5889 -41.43842,41.6463 -22.94323,0.058 -41.58894,-18.4952 -41.64636,-41.4384 -0.0574,-22.9432 18.4952,-41.5889 41.43843,-41.6463 22.92555,-0.057 41.56385,18.4676 41.64622,41.3931"
       sodipodi:start="6.2806827"
       sodipodi:end="12.562778"
       sodipodi:open="true"
       transform="matrix(0.34426077,0,0,-0.34426077,34.554493,1324.1899)"
       inkscape:export-filename="C:\Users\sdziok\Desktop\rect4205-5-0-6-42-7-5-1-2.png"
       inkscape:export-xdpi="6.2147975"
       inkscape:export-ydpi="6.2147975" />
    <path
       sodipodi:type="arc"
       style="fill:#abaeb8;fill-opacity:1;fill-rule:evenodd;stroke:none;display:inline"
       id="path7217-7-3-0-7-2-8-6-7-85-1-1-7-9"
       sodipodi:cx="871.68585"
       sodipodi:cy="1060.6707"
       sodipodi:rx="41.542522"
       sodipodi:ry="41.542522"
       d="m 913.22824,1060.5667 c 0.0574,22.9432 -18.49519,41.5889 -41.43842,41.6463 -22.94323,0.058 -41.58894,-18.4952 -41.64636,-41.4384 -0.0574,-22.9432 18.4952,-41.5889 41.43843,-41.6463 22.92555,-0.057 41.56385,18.4676 41.64622,41.3931"
       sodipodi:start="6.2806827"
       sodipodi:end="12.562778"
       sodipodi:open="true"
       transform="matrix(-0.24895513,0,0,0.24895513,551.37226,694.77235)"
       inkscape:export-filename="C:\Users\sdziok\Desktop\rect4205-5-0-6-42-7-5-1-2.png"
       inkscape:export-xdpi="6.2147975"
       inkscape:export-ydpi="6.2147975" />
    <path
       sodipodi:type="arc"
       style="fill:url(#radialGradient6663-9-9-1-0-6-95-3-7-2-4);fill-opacity:1;fill-rule:evenodd;stroke:none;display:inline;filter:url(#filter8892-2-5-2-2-12)"
       id="path4335-8-3-87-7-8-8-4-7-3-2-2-8"
       sodipodi:cx="2124.5"
       sodipodi:cy="329.86218"
       sodipodi:rx="102.5"
       sodipodi:ry="102.5"
       d="m 2226.9997,329.60567 c 0.1416,56.60901 -45.6342,102.61452 -102.2432,102.75619 -56.609,0.14167 -102.6145,-45.63415 -102.7562,-102.24316 -0.1416,-56.60901 45.6342,-102.61453 102.2432,-102.7562 56.5654,-0.14156 102.5526,45.56625 102.7558,102.13144"
       sodipodi:start="6.2806827"
       sodipodi:end="12.562778"
       sodipodi:open="true"
       transform="matrix(-0.11175457,0,0,0.11175457,572.06435,922.17895)"
       inkscape:export-filename="C:\Users\sdziok\Desktop\rect4205-5-0-6-42-7-5-1-2.png"
       inkscape:export-xdpi="6.2147975"
       inkscape:export-ydpi="6.2147975" />
    <path
       style="fill:url(#radialGradient5794-6-4-66-3-15-9-8-8-0-1-8-9);fill-opacity:1;fill-rule:evenodd;stroke:none;display:inline;filter:url(#filter6841-8-5-2-1-9-0-3-5-8-1)"
       d="m 862.17396,1006.7604 c 1.3316,1.3089 1.5194,3.2678 0.4155,4.3907 0,0 -7.3724,7.4325 -7.3174,13.862 0.055,6.4249 7.5416,13.4064 7.5416,13.4064 1.123,1.1038 0.9787,3.0556 -0.3302,4.3872 l -5.1151,5.2036 c -1.3088,1.3316 -3.2677,1.5193 -4.3906,0.4155 0,0 -7.1797,-6.3307 -13.6046,-6.2757 -6.4248,0.055 -13.65379,6.5098 -13.65379,6.5098 -1.1038,1.1229 -3.0755,0.9788 -4.407,-0.33 l -5.2037,-5.1151 c -1.3315,-1.3089 -1.5095,-3.2778 -0.4056,-4.4007 0,0 6.8106,-6.8657 6.7556,-13.2905 -0.055,-6.4249 -6.9896,-13.9678 -6.9896,-13.9678 -1.123,-1.1039 -0.9689,-3.0657 0.3399,-4.3973 l 5.1151,-5.2036 c 1.3089,-1.3316 3.258,-1.5093 4.3809,-0.4055 0,0 6.71209,7.4482 13.13689,7.3932 6.4295,-0.055 14.1313,-7.6373 14.1313,-7.6373 1.1038,-1.1229 3.0656,-0.9688 4.3971,0.3401 z"
       id="rect4127-6-7-0-2-30-4-0-8-6-88-3-3-5-2"
       inkscape:connector-curvature="0"
       sodipodi:nodetypes="sssssssssssssssssssss"
       transform="matrix(-0.31850453,0,0,0.31850453,601.85572,632.52588)"
       inkscape:export-filename="C:\Users\sdziok\Desktop\rect4205-5-0-6-42-7-5-1-2.png"
       inkscape:export-xdpi="6.2147975"
       inkscape:export-ydpi="6.2147975" />
    <path
       style="fill:url(#radialGradient4214-1-2-1-98-3-4-7-7-6-0-8-7-1);fill-opacity:1;fill-rule:evenodd;stroke:none;display:inline;filter:url(#filter6829-3-1-6-5-8-9-9-5-2-2)"
       d="m 857.09316,1002.8323 c -1.3316,-1.3089 -2.7243,-0.6805 -3.8281,0.4424 0,0 -7.8352,11.6887 -14.2648,11.7439 -6.4248,0.055 -13.66169,-12.2888 -13.66169,-12.2888 -1.123,-1.1038 -2.5415,-1.5082 -3.829,-0.1561 l -4.8772,5.1222 c -1.2875,1.3522 -0.8308,2.8107 0.2922,3.9145 0,0 12.0701,6.7558 12.1253,13.1807 0.055,6.4248 -12.5262,14.2421 -12.5262,14.2421 -1.1038,1.123 -1.0141,2.219 0.3186,3.5266 l 4.5563,4.4708 c 1.3328,1.3075 2.4026,1.1795 3.5064,0.057 0,0 8.25809,-12.6378 14.68299,-12.6929 6.4248,-0.055 13.3115,11.4522 13.3115,11.4522 1.123,1.1039 2.3052,2.16 3.6141,0.8285 l 5.0035,-5.0903 c 1.3089,-1.3315 0.4866,-2.6507 -0.6364,-3.7546 0,0 -12.8143,-7.1101 -12.8695,-13.5349 -0.055,-6.4295 12.2652,-14.017 12.2652,-14.017 1.1038,-1.123 1.7071,-2.6387 0.3756,-3.9476 z"
       id="rect4127-6-5-9-2-4-76-0-17-6-7-4-4-3-5-2"
       inkscape:connector-curvature="0"
       sodipodi:nodetypes="sssssssssssssssssssss"
       transform="matrix(-0.31850453,0,0,0.31850453,601.85572,632.52588)"
       inkscape:export-filename="C:\Users\sdziok\Desktop\rect4205-5-0-6-42-7-5-1-2.png"
       inkscape:export-xdpi="6.2147975"
       inkscape:export-ydpi="6.2147975" />
    <path
       style="fill:url(#radialGradient5802-9-3-04-1-4-5-9-9-9-1-2-3);fill-opacity:1;fill-rule:evenodd;stroke:none;display:inline;filter:url(#filter6821-51-0-9-3-9-4-1-9-6-8)"
       d="m 848.76176,1018.2418 c 0,0 -1.3737,3.9525 -1.3491,6.0032 0.026,2.1897 1.6078,6.2532 1.6078,6.2532 0.6873,2.3652 -2.1524,5.1565 -4.2724,4.22 0,0 -3.8884,-1.1873 -5.953,-0.9627 -2.1499,0.2339 -6.3818,1.5399 -6.3818,1.5399 -2.35909,0.7073 -5.47089,-2.4085 -4.53839,-4.3507 0,0 2.1558,-4.1572 2.0824,-6.399 -0.069,-2.1015 -2.3411,-5.8574 -2.3411,-5.8574 -0.9141,-2.287 2.7328,-5.6594 4.35069,-4.5385 0,0 4.1006,1.9975 6.2955,1.9378 2.1168,-0.058 5.961,-2.1965 5.961,-2.1965 2.311,-0.8517 5.597,2.3401 4.5384,4.3507 z"
       id="rect4205-5-0-6-42-7-5-1-0-2-3-4-2-7"
       inkscape:connector-curvature="0"
       sodipodi:nodetypes="sssssssssssss"
       transform="matrix(-0.31850453,0,0,0.31850453,601.85572,632.52588)"
       inkscape:export-filename="C:\Users\sdziok\Desktop\rect4205-5-0-6-42-7-5-1-2.png"
       inkscape:export-xdpi="6.2147975"
       inkscape:export-ydpi="6.2147975" />
  </g>
</svg>
