<?xml version="1.0" encoding="UTF-8" standalone="no"?>
<!-- Creator: CorelDRAW -->
<svg
   xmlns:dc="http://purl.org/dc/elements/1.1/"
   xmlns:cc="http://web.resource.org/cc/"
   xmlns:rdf="http://www.w3.org/1999/02/22-rdf-syntax-ns#"
   xmlns:svg="http://www.w3.org/2000/svg"
   xmlns="http://www.w3.org/2000/svg"
   xmlns:sodipodi="http://inkscape.sourceforge.net/DTD/sodipodi-0.dtd"
   xmlns:inkscape="http://www.inkscape.org/namespaces/inkscape"
   xml:space="preserve"
   width="102mm"
   height="150mm"
   shape-rendering="geometricPrecision"
   text-rendering="geometricPrecision"
   image-rendering="optimizeQuality"
   fill-rule="evenodd"
   viewBox="0 0 10200 15000"
   id="svg2"
   sodipodi:version="0.32"
   inkscape:version="0.43"
   sodipodi:docname="ondiofm-front.svg"
   sodipodi:docbase="/home/martin/src/dev/rockbox-devel/manual/rockbox_interface/images"><metadata
   id="metadata149"><rdf:RDF><cc:Work
       rdf:about=""><dc:format>image/svg+xml</dc:format><dc:type
         rdf:resource="http://purl.org/dc/dcmitype/StillImage" /></cc:Work></rdf:RDF></metadata><defs
   id="defs147" /><sodipodi:namedview
   inkscape:window-height="572"
   inkscape:window-width="746"
   inkscape:pageshadow="2"
   inkscape:pageopacity="0.0"
   borderopacity="1.0"
   bordercolor="#666666"
   pagecolor="#ffffff"
   id="base"
   inkscape:zoom="0.37911854"
   inkscape:cx="625.52348"
   inkscape:cy="284.59322"
   inkscape:window-x="225"
   inkscape:window-y="37"
   inkscape:current-layer="svg2" />
 <g
   id="Ebene_x0020_1">
  <defs
   id="defs5">
   <linearGradient
   id="id0"
   gradientUnits="userSpaceOnUse"
   x1="8767.67"
   y1="485.54"
   x2="7926.11"
   y2="485.54">
    <stop
   offset="0"
   stop-color="#363636"
   id="stop8" />
    <stop
   offset="0.501961"
   stop-color="#757575"
   id="stop10" />
    <stop
   offset="1"
   stop-color="#121212"
   id="stop12" />
   </linearGradient>
   <linearGradient
   id="id1"
   gradientUnits="userSpaceOnUse"
   x1="2273.91"
   y1="485.54"
   x2="1432.33"
   y2="485.54">
    <stop
   offset="0"
   stop-color="#363636"
   id="stop15" />
    <stop
   offset="0.501961"
   stop-color="#757575"
   id="stop17" />
    <stop
   offset="1"
   stop-color="#121212"
   id="stop19" />
   </linearGradient>
   <linearGradient
   id="id3"
   gradientUnits="userSpaceOnUse"
   x1="9293.86"
   y1="4349.64"
   x2="906.14"
   y2="4349.64">
    <stop
   offset="0"
   stop-color="#6F70AB"
   id="stop22" />
    <stop
   offset="0.501961"
   stop-color="#8082C9"
   id="stop24" />
    <stop
   offset="1"
   stop-color="#6769A3"
   id="stop26" />
   </linearGradient>
   <linearGradient
   id="id4"
   gradientUnits="userSpaceOnUse"
   x1="9009.84"
   y1="11050"
   x2="1152.06"
   y2="11050">
    <stop
   offset="0"
   stop-color="#878787"
   id="stop29" />
    <stop
   offset="0.501961"
   stop-color="#E8E8E8"
   id="stop31" />
    <stop
   offset="1"
   stop-color="#B3B3B3"
   id="stop33" />
   </linearGradient>
   <radialGradient
   id="id5"
   gradientUnits="userSpaceOnUse"
   cx="5100"
   cy="9141.87"
   r="2504.14"
   fx="5100"
   fy="9141.87">
    <stop
   offset="0"
   stop-color="#919191"
   id="stop36" />
    <stop
   offset="0.639216"
   stop-color="#E8E8E8"
   id="stop38" />
    <stop
   offset="1"
   stop-color="#858585"
   id="stop40" />
   </radialGradient>
   <linearGradient
   id="id6"
   gradientUnits="userSpaceOnUse"
   x1="5100"
   y1="6755.18"
   x2="5100"
   y2="6160.38">
    <stop
   offset="0"
   stop-color="#9799CF"
   id="stop43" />
    <stop
   offset="1"
   stop-color="#8082C9"
   id="stop45" />
   </linearGradient>
   <linearGradient
   id="id7"
   gradientUnits="userSpaceOnUse"
   x1="5100"
   y1="1549.22"
   x2="5100"
   y2="2144.02">
    <stop
   offset="0"
   stop-color="#9799CF"
   id="stop48" />
    <stop
   offset="1"
   stop-color="#8082C9"
   id="stop50" />
   </linearGradient>
   <linearGradient
   id="id8"
   gradientUnits="userSpaceOnUse"
   x1="8258.83"
   y1="4152.11"
   x2="7882.29"
   y2="4152.11">
    <stop
   offset="0"
   stop-color="#9799CF"
   id="stop53" />
    <stop
   offset="1"
   stop-color="#8082C9"
   id="stop55" />
   </linearGradient>
   <linearGradient
   id="id9"
   gradientUnits="userSpaceOnUse"
   x1="1941.17"
   y1="4152.09"
   x2="2317.71"
   y2="4152.09">
    <stop
   offset="0"
   stop-color="#9799CF"
   id="stop58" />
    <stop
   offset="1"
   stop-color="#8082C9"
   id="stop60" />
   </linearGradient>
  </defs>
  <path
   fill="#000000"
   d="M7990.25 7568.59c15.25,-91.59 73.56,-170.28 156.75,-211.53 83.18,-41.25 181.11,-40.04 263.25,3.26 74.14,55.87 -73.56,170.27 -156.74,211.52 -83.19,41.25 -181.12,40.04 -263.26,-3.25z"
   id="path62" />
  <path
   fill="#787878"
   d="M2799.28 7945.7l-41.21 82.89c-374.37,786.7 -329.35,1711.56 124.84,2459.87 470.24,774.75 1310.79,1247.84 2217.09,1247.84l0 -968.83c616.75,0 1180.32,-349.22 1454.85,-901.5 300.7,121.9 584.88,281.12 845.87,473.9 390.39,-750.31 390.39,-1643.86 0,-2394.17 -260.99,192.78 -545.17,352 -845.87,473.91 -274.53,-552.29 -838.1,-901.5 -1454.85,-901.5 -616.75,0 -1180.32,349.21 -1454.85,901.5 -300.7,-121.91 -584.88,-281.13 -845.87,-473.91z"
   id="path64" />
  <path
   fill="#707070"
   stroke="#000000"
   stroke-width="7.62"
   stroke-linejoin="bevel"
   d="M8909.42 14387.8l201.21 0c49.36,0 89.37,-40.01 89.37,-89.37l0 -4375.79c0,-49.36 -40.01,-89.37 -89.37,-89.37l-133.6 0c-0.34,9.14 -0.67,18.26 -1,27.39 -2.54,69.42 -31.93,135.14 -81.97,183.32 -550.78,530.35 -867.05,1258.63 -878.62,2023.16 -11.56,764.52 282.55,1502.03 817.04,2048.78 48.56,49.68 75.94,116.26 76.38,185.73 0.18,28.71 0.35,57.44 0.56,86.15z"
   id="path66" />
  <path
   fill="url(#id0)"
   stroke="#000000"
   stroke-width="18"
   stroke-linejoin="bevel"
   d="M8767.67 563.38l-0.09 0.01c-279.28,-58.62 -559.8,-110.51 -841.34,-155.65l-0.13 -0.05 752.19 0c49.36,0 89.37,40.02 89.37,89.37l0 66.32z"
   id="path68" />
  <path
   fill="url(#id1)"
   stroke="#000000"
   stroke-width="18"
   stroke-linejoin="bevel"
   d="M2273.89 407.69l-0.1 0.04c-281.57,45.14 -562.11,97.03 -841.43,155.65l-0.03 0 0 -66.32c0,-49.35 40.01,-89.37 89.37,-89.37l752.19 0z"
   id="path70" />
  <g
   id="g72">
   <defs
   id="defs74">
    <linearGradient
   id="id2"
   gradientUnits="userSpaceOnUse"
   x1="6174.79"
   y1="109.92"
   x2="4025.21"
   y2="109.92">
     <stop
   offset="0"
   stop-color="#878787"
   id="stop77" />
     <stop
   offset="0.501961"
   stop-color="#C7C7C7"
   id="stop79" />
     <stop
   offset="1"
   stop-color="#B3B3B3"
   id="stop81" />
    </linearGradient>
   </defs>
   <path
   fill="url(#id2)"
   stroke="#000000"
   stroke-width="18"
   stroke-linejoin="bevel"
   d="M6174.79 215.01l0 -124.33c0,-19.27 -12.21,-35.8 -29.51,-42.03l-0.01 0c-3.92,-1.41 -8.12,-2.32 -12.48,-2.58 -647.84,-39.02 -1297.34,-41.26 -1945.37,-6.79 -40.07,2.14 -80.15,4.38 -120.21,6.79 -4.36,0.26 -8.51,1.17 -12.43,2.58 -17.3,6.23 -29.57,22.76 -29.57,42.03l0 124.34c357.63,-21.57 716.04,-32.42 1074.79,-32.42 358.74,0 717.16,10.84 1074.79,32.41z"
   id="path83" />
   <path
   fill="none"
   stroke="#FFFFFF"
   stroke-width="15"
   stroke-linejoin="bevel"
   d="M4054.78 48.65c696.84,0 1393.66,0 2090.5,0 0,0 -0.01,0 -0.01,0 -3.92,-1.41 -8.12,-2.32 -12.48,-2.58"
   id="path85" />
  </g>
  <path
   fill="#626487"
   stroke="#000000"
   stroke-width="18"
   stroke-linejoin="bevel"
   d="M9107.6 7202.29c211.66,-2089.55 304.9,-4189.41 279.27,-6289.5l0 0c-1.51,-123.24 -86.84,-229.58 -206.83,-257.75 -1337.31,-313.91 -2706.38,-472.44 -4080.04,-472.44 -1373.66,0 -2742.73,158.53 -4080.04,472.44 -119.99,28.17 -205.32,134.51 -206.83,257.75l0 0c-25.63,2100.09 67.61,4199.95 279.27,6289.5 640.82,50.91 1237.41,346.88 1665.67,826.3 13.23,-27.81 26.93,-55.44 41.21,-82.89 260.99,192.78 545.17,352 845.87,473.91 274.53,-552.29 838.1,-901.5 1454.85,-901.5 616.75,0 1180.32,349.21 1454.85,901.5 300.7,-121.91 584.88,-281.13 845.87,-473.91 14.27,27.43 28.01,55.04 41.24,82.84 159.75,-178.83 344.41,-333.74 548.29,-459.95 15.25,-91.59 73.56,-170.28 156.75,-211.53 83.18,-41.25 181.11,-40.04 263.25,3.26 223.67,-85.84 458.53,-139.06 697.35,-158.03z"
   id="path87" />
  <path
   fill="url(#id3)"
   d="M9011.01 7192.5c211.29,-2085.9 304.37,-4182.1 278.78,-6278.52 -0.96,-78.62 -55.4,-146.45 -131.94,-164.42 -1330.03,-312.21 -2691.66,-469.88 -4057.85,-469.88 -1366.19,0 -2727.82,157.67 -4057.85,469.88 -76.55,17.97 -130.98,85.8 -131.94,164.42 -25.59,2096.42 67.49,4192.62 278.78,6278.52l33.6 23.59c591.06,78.26 1136.37,365.71 1535.48,812.5 12.24,-25.72 24.9,-51.31 38.03,-76.72l0 -0.04c141.48,-306.66 367.41,-566.66 651.33,-749.54 -217.45,243.06 -409.12,508 -571.94,790.58l3.67 10.24c238.76,167.16 495.69,306.91 765.99,416.5 274.53,-552.29 838.1,-901.5 1454.85,-901.5 616.75,0 1180.32,349.21 1454.85,901.5 272.02,-110.28 530.55,-251.13 770.59,-419.7l-0.94 -7.04c-162.81,-282.58 -354.48,-547.52 -571.93,-790.58 283.77,182.78 509.61,442.61 651.11,749.06 13.22,25.56 25.96,51.3 38.28,77.19 159.75,-178.83 344.41,-333.74 548.29,-459.95 15.25,-91.59 73.56,-170.28 156.75,-211.53 83.18,-41.25 181.11,-40.04 263.25,3.26 192.6,-73.92 393.51,-123.67 598.09,-148.17 0.91,-6.55 1.95,-13.07 2.67,-19.65z"
   id="path89" />
  <path
   fill="#696969"
   stroke="#000000"
   stroke-width="18"
   stroke-linejoin="bevel"
   d="M9107.6 7202.29c-55.25,885.51 -99.11,1771.7 -131.57,2658.34 -2.54,69.42 -31.93,135.14 -81.97,183.32 -550.78,530.35 -867.05,1258.63 -878.62,2023.16 -11.56,764.52 282.55,1502.03 817.04,2048.78 48.56,49.68 75.94,116.26 76.38,185.73 0.88,137.49 2.02,274.99 3.44,412.48 0.74,71.59 -27.18,140.5 -77.53,191.38 -50.36,50.88 -118.98,79.51 -190.57,79.51l-7321.01 0c-74.13,0 -144.96,-30.69 -195.64,-84.78 -50.69,-54.09 -76.73,-126.75 -71.92,-200.73 162.24,-2496.07 174.52,-4999.64 36.77,-7497.19 640.82,50.91 1237.41,346.88 1665.67,826.3 -374.37,786.7 -329.35,1711.56 124.84,2459.87 470.24,774.75 1310.79,1247.84 2217.09,1247.84l0 -968.83c616.75,0 1180.32,-349.22 1454.85,-901.5 300.7,121.9 584.88,281.12 845.87,473.9 390.39,-750.31 390.39,-1643.86 0,-2394.17 14.27,27.43 28.01,55.04 41.24,82.84 159.75,-178.83 344.41,-333.74 548.29,-459.95 82.14,43.29 180.07,44.5 263.26,3.25 83.18,-41.25 230.88,-155.65 156.74,-211.52 223.67,-85.84 458.53,-139.06 697.35,-158.03zm-6342.02 810.66c3.57,-7.36 7.18,-14.73 10.81,-22.07 -3.64,7.34 -7.24,14.7 -10.81,22.07zm16.33 -33.18c5.71,-11.39 11.47,-22.74 17.37,-34.07 -5.89,11.33 -11.67,22.68 -17.37,34.07z"
   id="path91" />
  <path
   fill="url(#id4)"
   stroke="#FFFFFF"
   stroke-width="15"
   stroke-linejoin="bevel"
   d="M1190.05 7211.99c603.57,71.87 1161.59,361.62 1568.02,816.6 -374.37,786.7 -329.35,1711.56 124.84,2459.87 470.24,774.75 1310.79,1247.84 2217.09,1247.84l0 -968.83c616.75,0 1180.32,-349.22 1454.85,-901.5 300.7,121.9 584.88,281.12 845.87,473.9 390.39,-750.31 390.39,-1643.86 0,-2394.17 14.27,27.43 28.01,55.04 41.24,82.84 159.75,-178.83 344.41,-333.74 548.29,-459.95 82.14,43.29 180.07,44.5 263.26,3.25 83.18,-41.25 230.88,-155.65 156.74,-211.52 193.07,-74.1 394.49,-123.91 599.59,-148.35 -54.85,881.11 -98.43,1762.89 -130.73,2645.11 -1.62,44.31 -20.38,86.26 -52.32,117.01 -569.4,548.28 -896.37,1301.18 -908.32,2091.55 -11.95,790.37 292.1,1552.8 844.66,2118.05 30.99,31.7 48.47,74.2 48.75,118.54 0.88,137.63 2.02,275.25 3.45,412.88 0.47,45.69 -17.35,89.67 -49.5,122.15 -32.14,32.47 -75.93,50.75 -121.63,50.75l-7321.01 0c-47.32,0 -92.52,-19.59 -124.88,-54.12 -32.35,-34.52 -48.97,-80.9 -45.9,-128.12 162.16,-2494.93 174.73,-4997.34 37.64,-7493.78zm1575.53 800.96c3.57,-7.36 7.18,-14.73 10.81,-22.07 -3.64,7.34 -7.24,14.7 -10.81,22.07zm16.33 -33.18c5.71,-11.39 11.47,-22.74 17.37,-34.07 -5.89,11.33 -11.67,22.68 -17.37,34.07z"
   id="path93" />
  <path
   fill="url(#id5)"
   stroke="#000000"
   stroke-width="18"
   stroke-linejoin="bevel"
   d="M5010.63 10765l0 880.33c-906.02,-32.36 -1723.79,-551.89 -2138.05,-1358.3 240.69,-169.25 499.88,-310.52 772.57,-421.07 260.24,523.54 781.71,866.87 1365.48,899.04zm-1281.93 -931.79c883.58,-334.59 1859.01,-334.59 2742.6,0 -260.82,518.03 -791.31,844.87 -1371.3,844.87 -579.99,0 -1110.48,-326.84 -1371.3,-844.87zm2742.6 -1380.86c-260.82,-518.04 -791.31,-844.88 -1371.3,-844.88 -579.99,0 -1110.48,326.84 -1371.3,844.88 883.58,334.59 1859.01,334.59 2742.6,0zm-3638.6 -372.64c1362.08,950.6 3172.52,950.6 4534.59,0 315.8,673.53 315.8,1452.6 0,2126.13 -1362.07,-950.6 -3172.51,-950.6 -4534.59,0 -315.79,-673.53 -315.79,-1452.6 0,-2126.13z"
   id="path95" />
  <path
   fill="url(#id6)"
   d="M7882.29 6160.38l-5564.59 0 -346.72 124.74c18.87,23.33 45.55,40.36 76.66,46.9 2012.91,423.16 4091.81,423.16 6104.71,0 31.12,-6.54 57.79,-23.56 76.67,-46.9l-346.73 -124.74z"
   id="path97" />
  <path
   fill="url(#id7)"
   d="M2317.71 2144.02l5564.59 0 346.72 -124.74c-18.87,-23.33 -45.55,-40.36 -76.66,-46.9 -2012.91,-423.16 -4091.81,-423.16 -6104.71,0 -31.12,6.54 -57.79,23.56 -76.67,46.9l346.73 124.74z"
   id="path99" />
  <path
   fill="url(#id8)"
   d="M8258.83 2103.59l0 4097.22c0,31.64 -11.05,61.09 -29.82,84.31l-346.72 -124.74 0 -4016.35 346.57 -124.93c18.87,23.25 29.97,52.78 29.97,84.49z"
   id="path101" />
  <path
   fill="url(#id9)"
   d="M1941.17 6200.61l0 -4097.22c0,-31.64 11.05,-61.09 29.82,-84.31l346.72 124.74 0 4016.35 -346.57 124.93c-18.87,-23.25 -29.97,-52.78 -29.97,-84.49z"
   id="path103" />
  <path
   fill="#566B68"
   stroke="#000000"
   stroke-width="18"
   stroke-linejoin="bevel"
   d="M2380.9 2117.86l5438.2 0c49.36,0 89.37,40.01 89.37,89.37l0 3889.96c0,49.35 -40.01,89.37 -89.37,89.37l-5438.2 0c-49.36,0 -89.37,-40.02 -89.37,-89.37l0 -3889.96c0,-49.36 40.01,-89.37 89.37,-89.37"
   id="path105" />
  <path
   fill="none"
   stroke="#000000"
   stroke-width="25"
   stroke-linejoin="bevel"
   d="M3456.87 10550.7c232.64,343.09 592.01,579.75 999.1,657.92 34.78,10.84 72.69,2.3 99.47,-22.39 26.77,-24.7 38.33,-61.8 30.34,-97.33 -8,-35.53 -34.35,-64.11 -69.12,-74.95 -333.72,-145.04 -639.88,-346.64 -904.96,-595.92 -23.7,-27.66 -60.35,-40.57 -96.16,-33.88 -35.8,6.7 -65.31,31.98 -77.41,66.34 -12.11,34.35 -4.96,72.55 18.74,100.21z"
   id="path107" />
  <path
   fill="none"
   stroke="#000000"
   stroke-width="25"
   stroke-linejoin="bevel"
   d="M5350.34 8352.78l-500.68 0c-7.17,0 -13.8,-3.81 -17.4,-10.02 -3.6,-6.2 -3.62,-13.85 -0.06,-20.07l250.35 -437.51c3.58,-6.26 10.24,-10.12 17.45,-10.12 7.21,0 13.87,3.86 17.45,10.12l250.35 437.51c3.56,6.22 3.54,13.87 -0.06,20.07 -3.6,6.21 -10.23,10.02 -17.4,10.02"
   id="path109" />
  <path
   fill="none"
   stroke="#000000"
   stroke-width="25"
   stroke-linejoin="bevel"
   d="M6789.44 9393.13c0,7.17 3.82,13.8 10.02,17.4 6.2,3.59 13.85,3.62 20.08,0.05l437.5 -250.34c6.26,-3.58 10.13,-10.24 10.13,-17.45 0,-7.22 -3.87,-13.87 -10.13,-17.46l-437.5 -250.34c-6.23,-3.56 -13.88,-3.54 -20.08,0.06 -6.2,3.59 -10.02,10.22 -10.02,17.39l0 99.8c0,7.17 -3.82,13.8 -10.02,17.4 -6.2,3.59 -13.85,3.61 -20.08,0.05l-235.41 -134.7c-6.22,-3.56 -13.87,-3.54 -20.07,0.06 -6.21,3.59 -10.03,10.22 -10.03,17.39l0 500.69c0,7.17 3.82,13.8 10.03,17.4 6.2,3.59 13.85,3.62 20.07,0.05l235.41 -134.7c6.23,-3.56 13.88,-3.54 20.08,0.06 6.2,3.59 10.02,10.22 10.02,17.39l0 99.8"
   id="path111" />
  <path
   fill="none"
   stroke="#000000"
   stroke-width="25"
   stroke-linejoin="bevel"
   d="M5350.34 9932.79l-500.68 0c-7.17,0 -13.8,3.82 -17.4,10.02 -3.6,6.2 -3.62,13.85 -0.06,20.07l250.35 437.51c3.58,6.26 10.24,10.13 17.45,10.13 7.21,0 13.87,-3.87 17.45,-10.13l250.35 -437.51c3.56,-6.22 3.54,-13.87 -0.06,-20.07 -3.6,-6.2 -10.23,-10.02 -17.4,-10.02"
   id="path113" />
  <path
   fill="none"
   stroke="#000000"
   stroke-width="25"
   stroke-linejoin="bevel"
   d="M3410.56 9393.13c0,7.17 -3.82,13.8 -10.02,17.4 -6.2,3.59 -13.85,3.62 -20.08,0.05l-437.51 -250.34c-6.25,-3.58 -10.12,-10.24 -10.12,-17.45 0,-7.22 3.87,-13.87 10.12,-17.46l437.51 -250.34c6.23,-3.56 13.88,-3.54 20.08,0.06 6.2,3.59 10.02,10.22 10.02,17.39l0 99.8c0,7.17 3.82,13.8 10.02,17.4 6.2,3.59 13.85,3.61 20.08,0.05l235.41 -134.7c6.22,-3.56 13.87,-3.54 20.07,0.06 6.21,3.59 10.02,10.22 10.02,17.39l0 500.69c0,7.17 -3.81,13.8 -10.02,17.4 -6.2,3.59 -13.85,3.62 -20.07,0.05l-235.41 -134.7c-6.23,-3.56 -13.88,-3.54 -20.08,0.06 -6.2,3.59 -10.02,10.22 -10.02,17.39l0 99.8"
   id="path115" />
  <g
   id="g117">
   <path
   fill="#000000"
   d="M4242.96 14119.2l0 160.8c0,2.74 -2.22,4.96 -4.96,4.96l-88.89 0c-2.74,0 -4.97,-2.22 -4.97,-4.96l0 -445c0,-2.75 2.23,-4.97 4.97,-4.97l269.32 0c61.34,1.81 111.26,49.95 115.27,111.19l0 61.83c-3.26,49.64 -37.04,92.02 -84.7,106.25l87.07 168.42c0.79,1.54 0.73,3.38 -0.17,4.86 -0.9,1.48 -2.51,2.38 -4.25,2.38l-100.05 0c-1.86,0 -3.56,-1.03 -4.42,-2.68l-85.48 -165.36c-0.85,-1.65 -2.55,-2.68 -4.41,-2.68l-89.36 0c-2.75,0 -4.97,2.22 -4.97,4.96"
   id="path119" />
   <path
   fill="#000000"
   d="M5670.77 14285c58.85,-4.76 111.6,-38.18 141.03,-89.36 18.83,-43.65 28.94,-90.56 29.8,-138.1 -0.86,-47.53 -10.97,-94.44 -29.8,-138.1 -29.43,-51.19 -82.18,-84.61 -141.03,-89.37l-109.64 0c-58.86,4.76 -111.6,38.18 -141.04,89.37 -18.82,43.66 -28.95,90.57 -29.79,138.1 0.84,47.54 10.97,94.45 29.79,138.1 29.44,51.18 82.18,84.6 141.04,89.36l109.64 0"
   id="path121" />
   <path
   fill="#000000"
   d="M4732.67 14285l204.7 0c2.75,0 4.97,-2.22 4.97,-4.96l0 -66.57c0,-1.32 -0.52,-2.58 -1.46,-3.51 -0.92,-0.92 -2.19,-1.46 -3.51,-1.46l-164.65 0c-31.43,-1.36 -60.48,-17.03 -78.9,-42.53 -21.66,-32.02 -33.21,-69.78 -33.16,-108.43 -0.05,-38.65 11.5,-76.42 33.16,-108.43 18.42,-25.49 47.47,-41.16 78.9,-42.54l164.65 0c2.75,0 4.97,-2.22 4.97,-4.97l0 -66.56c0,-2.75 -2.22,-4.97 -4.97,-4.97l-204.7 0c-58.85,4.76 -111.6,38.18 -141.03,89.37 -18.83,43.66 -28.96,90.57 -29.8,138.1 0.84,47.54 10.97,94.45 29.8,138.1 29.43,51.18 82.18,84.6 141.03,89.36"
   id="path123" />
   <path
   fill="#000000"
   d="M3994.73 14183.8l-184.19 0c-1.49,0 -2.89,0.66 -3.84,1.81l-80.04 97.57c-0.95,1.15 -2.35,1.82 -3.84,1.82l-86.1 0c-1.92,0 -3.67,-1.11 -4.48,-2.84 -0.83,-1.73 -0.57,-3.79 0.64,-5.27l365.07 -445c0.94,-1.15 2.35,-1.82 3.83,-1.82l91.76 0c2.74,0 4.96,2.22 4.96,4.97l0 445c0,2.74 -2.22,4.96 -4.96,4.96l-88.89 0c-2.73,0 -4.95,-2.22 -4.95,-4.96l0 -91.28c0,-2.74 -2.23,-4.96 -4.97,-4.96"
   id="path125" />
   <path
   fill="#000000"
   d="M5081.68 14100.8l0 179.29c0,2.74 -2.22,4.96 -4.96,4.96l-88.89 0c-2.74,0 -4.96,-2.22 -4.96,-4.96l0 -445c0,-2.75 2.22,-4.97 4.96,-4.97l88.89 0c2.74,0 4.96,2.22 4.96,4.97l0 179.29c0,2.74 2.23,4.96 4.96,4.96l165.47 0c1.32,0 2.58,-0.52 3.51,-1.46 0.92,-0.92 1.46,-2.19 1.46,-3.5l0 -179.29c0,-1.32 0.52,-2.58 1.44,-3.51 0.94,-0.94 2.19,-1.46 3.51,-1.46l88.89 0c2.74,0 4.96,2.22 4.96,4.97l0 445c0,1.31 -0.52,2.57 -1.45,3.51 -0.93,0.93 -2.2,1.45 -3.51,1.45l-88.89 0c-1.32,0 -2.57,-0.52 -3.51,-1.45 -0.92,-0.94 -1.44,-2.2 -1.44,-3.51l0 -179.29c0,-2.74 -2.23,-4.96 -4.97,-4.96l-165.47 0c-2.73,0 -4.96,2.22 -4.96,4.96"
   id="path127" />
   <path
   fill="#000000"
   d="M6197.84 14285c31.61,-0.4 61.41,-14.8 81.38,-39.31 21.51,-26.35 32.85,-59.54 31.99,-93.55 0.86,-34 -10.48,-67.18 -31.99,-93.53 -19.97,-24.52 -49.77,-38.92 -81.38,-39.32l-148.98 0c-19.64,-0.58 -38.1,-9.43 -50.88,-24.36 -7.3,-9.11 -11.52,-20.32 -12.03,-32 0.51,-11.67 4.73,-22.89 12.03,-32.01 12.78,-14.92 31.24,-23.76 50.88,-24.35l223.32 0c1.32,0 2.58,-0.52 3.51,-1.46 0.94,-0.93 1.46,-2.19 1.46,-3.51l0 -66.56c0,-2.75 -2.22,-4.97 -4.97,-4.97l-288.66 0c-31.61,0.4 -61.41,14.8 -81.38,39.32 -21.51,26.35 -32.85,59.54 -31.99,93.54 -0.86,34 10.48,67.18 31.99,93.54 19.97,24.52 49.77,38.91 81.38,39.32l148.98 0c19.64,0.59 38.1,9.42 50.88,24.35 7.3,9.12 11.52,20.33 12.03,32 -0.51,11.69 -4.73,22.9 -12.03,32.01 -12.78,14.93 -31.24,23.77 -50.88,24.35l-257.38 0c-1.32,0 -2.58,0.54 -3.51,1.46 -0.94,0.93 -1.46,2.19 -1.46,3.51l0 66.57c0,1.31 0.52,2.57 1.46,3.51 0.93,0.93 2.19,1.45 3.51,1.45l322.72 0z"
   id="path129" />
   <path
   fill="#D8D8D8"
   d="M5630.72 13906.6c31.42,1.38 60.48,17.05 78.9,42.54 21.66,32.01 33.21,69.78 33.16,108.43 0.05,38.65 -11.5,76.41 -33.16,108.43 -18.42,25.5 -47.48,41.17 -78.9,42.53 -9.84,0.54 -19.7,0.54 -29.55,0 -31.42,-1.36 -60.49,-17.03 -78.89,-42.53 -21.66,-32.02 -33.22,-69.78 -33.18,-108.43 -0.04,-38.65 11.52,-76.42 33.18,-108.43 18.4,-25.49 47.47,-41.16 78.89,-42.54 9.85,-0.53 19.71,-0.53 29.55,0"
   id="path131" />
   <path
   fill="#DEDEDE"
   d="M4242.96 13911.5l0 121.29c0,2.74 2.22,4.96 4.97,4.96l101.86 0c34.86,-2.21 63.33,-28.66 68.12,-63.25l0 -4.71c-4.79,-34.6 -33.26,-61.04 -68.12,-63.25l-101.86 0c-1.32,0 -2.59,0.52 -3.51,1.45 -0.94,0.93 -1.46,2.2 -1.46,3.51"
   id="path133" />
   <path
   fill="#D9D9D9"
   d="M3994.73 14107.3l-113.3 0c-1.92,0 -3.66,-1.11 -4.48,-2.84 -0.82,-1.74 -0.57,-3.79 0.65,-5.27l113.3 -138.11c1.32,-1.62 3.53,-2.23 5.5,-1.52 1.98,0.7 3.3,2.57 3.3,4.67l0 138.1c0,2.75 -2.23,4.97 -4.97,4.97"
   id="path135" />
  </g>
  <path
   fill="none"
   stroke="#FFFFFF"
   stroke-width="50"
   stroke-linejoin="bevel"
   d="M8672.61 9920.67c-677.15,508.27 -1078.59,1303.22 -1085.65,2149.88 -7.06,846.65 381.06,1648.18 1049.64,2167.67"
   id="path137" />
  <path
   fill="#FFFFFF"
   d="M7227.3 7013.83l0 -308.46 378.67 0 0 42.03 -312 0 0 100.99 178.03 0 0 41.14 -178.03 0 0 124.3 -66.67 0zm544.51 -253.28c0.89,5.97 1.66,12.35 2.17,18.92 0.52,6.68 0.78,15.44 0.78,26.3l0 208.06 -56.4 0 0 -308.46 54.21 0 193.32 200.8 180.35 -200.8 61.01 0 0 308.46 -61.01 0 0 -208.06c0,-2.69 0.38,-9.57 1.28,-20.62 0.89,-10.95 1.41,-19.23 1.67,-24.6 -5.01,7.96 -9.38,14.64 -13.36,20.12 -3.85,5.48 -7.32,9.86 -10.27,13.14l-152.09 171.62 -16.96 0 -157.99 -166.93c-0.26,-0.21 -0.9,-0.9 -1.93,-2.1 -11.56,-12.24 -19.78,-24.2 -24.78,-35.85z"
   id="path139" />
  <path
   fill="#CF8443"
   d="M5617.35 7155l0 -259.96 -86.58 0 0 -30.98 147.6 -19.82 0 310.76 -61.02 0zm422.99 -248.01c0,-23.21 5.78,-39.04 17.47,-47.61 11.69,-8.57 34.42,-12.84 68.34,-12.84l191.9 0c33.66,0 56.26,4.27 67.95,12.84 11.69,8.57 17.47,24.4 17.47,47.61l0 19.23c0,15.14 -3.08,26.99 -9.38,35.35 -6.29,8.37 -19.52,17.44 -39.82,27.4l-257.54 123.7 261.27 0 0 -58.67 63.2 16.04 0 24.51c0,23.2 -5.91,39.04 -17.73,47.6 -11.82,8.57 -34.68,12.85 -68.47,12.85l-313.16 0 0 -19.22c0,-14.24 3.6,-25.1 10.8,-32.57 7.06,-7.47 19,-15.34 35.57,-23.51l269.75 -131.57 0 -60.16 -234.42 0 0 72.11 -63.2 -13.15 0 -39.94zm628.25 248.01c-34.03,0 -57.67,-4.68 -71.03,-14.14 -13.23,-9.46 -19.91,-26.8 -19.91,-52.1l0 -32.36c0,-18.73 5.65,-32.97 17.08,-42.64 11.43,-9.76 29.8,-16.03 55.11,-19.02 -22.09,-2.29 -38.28,-8.26 -48.55,-17.73 -10.28,-9.56 -15.43,-23.6 -15.43,-42.03l0 -28.09c0,-23.11 5.79,-38.94 17.48,-47.51 11.69,-8.57 34.42,-12.84 68.34,-12.84l232.62 0c33.9,0 56.64,4.27 68.33,12.84 11.69,8.57 17.47,24.4 17.47,47.51l0 28.09c0,18.23 -5.26,32.27 -15.67,41.83 -10.4,9.67 -26.84,15.64 -49.45,17.93 25.81,2.99 44.57,9.26 56,19.02 11.56,9.67 17.34,23.91 17.34,42.64l0 32.36c0,25.1 -6.67,42.43 -20.16,51.9 -13.37,9.56 -37.25,14.34 -71.55,14.34l-238.02 0zm-19.52 -234.96l0 24.01c0,13.24 2.7,21.91 8.22,26.09 5.52,4.18 16.31,6.28 32.11,6.28l197.17 0c16.06,0 26.85,-2.1 32.25,-6.38 5.38,-4.28 8.09,-12.95 8.09,-25.99l0 -24.01c0,-13.15 -2.71,-21.82 -8.22,-25.89 -5.53,-4.09 -16.32,-6.18 -32.12,-6.18l-197.17 0c-15.41,0 -25.94,2.09 -31.72,6.27 -5.78,4.19 -8.61,12.75 -8.61,25.8zm-7.45 127.89l0 33.56c0,12.65 2.69,21.12 8.09,25.4 5.39,4.28 15.93,6.37 31.72,6.37l213.11 0c15.79,0 26.32,-2.09 31.72,-6.37 5.4,-4.28 8.09,-12.75 8.09,-25.4l0 -33.56c0,-12.65 -2.69,-21.12 -8.09,-25.3 -5.4,-4.18 -15.93,-6.28 -31.72,-6.28l-213.11 0c-15.53,0 -26.07,2.1 -31.59,6.38 -5.53,4.28 -8.22,12.65 -8.22,25.2z"
   id="path141" />
  <path
   fill="#FFFFFF"
   d="M3258.13 6970.9l329.22 0 0 -223.5 -329.22 0 0 223.5zm-66.28 -192.53c0,-28.08 6.42,-47.2 19.39,-57.56 12.98,-10.27 37.64,-15.44 74,-15.44l275.01 0c35.84,0 60.24,5.07 73.21,15.34 12.97,10.15 19.4,29.38 19.4,57.66l0 162.46c0,28.48 -6.43,47.71 -19.4,57.86 -12.97,10.06 -37.37,15.14 -73.21,15.14l-275.01 0c-36.36,0 -61.02,-5.18 -74,-15.43 -12.97,-10.36 -19.39,-29.49 -19.39,-57.57l0 -162.46zm662.67 235.46l0 -308.46 41.75 0 297.62 206.27c6.81,4.68 14,10.36 21.71,16.94 7.57,6.67 15.41,13.94 23.5,21.9 -2.05,-9.86 -3.46,-20.21 -4.49,-31.07 -1.03,-10.75 -1.54,-25.7 -1.54,-44.82l0 -169.22 61.02 0 0 308.46 -37.26 0 -305.58 -214.53c-1.41,-0.9 -3.72,-2.5 -6.68,-4.59 -15.16,-10.55 -26.34,-20.62 -33.53,-30.08 1.55,9.36 2.57,19.32 3.34,29.88 0.78,10.66 1.16,23.11 1.16,37.55l0 181.77 -61.02 0zm855.36 -266.43l-142.97 0 0 223.5 142.97 0c64.48,0 109.95,-8.76 136.54,-26.29 26.59,-17.43 39.94,-46.41 39.94,-86.95 0,-39.05 -13.48,-67.23 -40.58,-84.47 -27.1,-17.23 -72.44,-25.79 -135.9,-25.79zm9.38 -42.03c36.6,0 67.05,1.89 91.32,5.67 24.15,3.79 44.71,9.87 61.53,18.23 25.56,13.05 45.6,30.98 60.37,53.69 14.65,22.81 21.96,47.71 21.96,74.7 0,28.88 -7.19,54.78 -21.57,77.79 -14.52,23.1 -34.68,41.24 -60.76,54.48 -16.31,8.16 -36.74,14.14 -61.02,18.02 -24.27,3.89 -54.97,5.88 -91.83,5.88l-219.02 0 0 -308.46 219.02 0zm403.84 308.46l0 -308.46 66.67 0 0 308.46 -66.67 0zm333.84 -42.93l329.22 0 0 -223.5 -329.22 0 0 223.5zm-66.27 -192.53c0,-28.08 6.41,-47.2 19.38,-57.56 12.98,-10.27 37.64,-15.44 74,-15.44l275.01 0c35.84,0 60.24,5.07 73.22,15.34 12.97,10.15 19.39,29.38 19.39,57.66l0 162.46c0,28.48 -6.42,47.71 -19.39,57.86 -12.98,10.06 -37.38,15.14 -73.22,15.14l-275.01 0c-36.36,0 -61.02,-5.18 -74,-15.43 -12.97,-10.36 -19.38,-29.49 -19.38,-57.57l0 -162.46z"
   id="path143" />
 </g>
 <g
   id="Haupt_x0020_Desktop">
 </g>
<path
   style="fill:none;fill-opacity:0.75;fill-rule:evenodd;stroke:#000000;stroke-width:28.22222383;stroke-linecap:butt;stroke-linejoin:miter;stroke-opacity:1;stroke-miterlimit:4;stroke-dasharray:none"
   d="M 2750.3467,9130.8383 L -263.19147,9130.8383"
   id="path1448" /><path
   style="fill:none;fill-opacity:0.75;fill-rule:evenodd;stroke:#000000;stroke-width:28.22222383;stroke-linecap:butt;stroke-linejoin:miter;stroke-opacity:1;stroke-miterlimit:4;stroke-dasharray:none"
   d="M 7369.3507,9130.8383 L 10198.655,9130.8383"
   id="path1450" /><path
   style="fill:none;fill-opacity:0.75;fill-rule:evenodd;stroke:#000000;stroke-width:28.22222383;stroke-linecap:butt;stroke-linejoin:miter;stroke-opacity:1;stroke-miterlimit:4;stroke-dasharray:none"
   d="M 3750.473,11091.612 L -78.957695,12920.79"
   id="path1452" /><path
   style="fill:none;fill-opacity:0.75;fill-rule:evenodd;stroke:#000000;stroke-width:28.22222383;stroke-linecap:butt;stroke-linejoin:miter;stroke-opacity:1;stroke-miterlimit:4;stroke-dasharray:none"
   d="M 5105.9072,10525.751 L 10224.974,11986.462"
   id="path1454" /><path
   style="fill:none;fill-opacity:0.75;fill-rule:evenodd;stroke:#000000;stroke-width:28.22222383;stroke-linecap:butt;stroke-linejoin:miter;stroke-opacity:1;stroke-miterlimit:4;stroke-dasharray:none"
   d="M 5105.9072,7749.0849 L 10198.655,6472.608"
   id="path1456" /><text
   xml:space="preserve"
   style="font-size:790.22229004px;font-style:normal;font-variant:normal;font-weight:normal;font-stretch:normal;text-align:start;line-height:100%;writing-mode:lr-tb;text-anchor:start;fill:#000000;fill-opacity:1;stroke:none;stroke-width:1px;stroke-linecap:butt;stroke-linejoin:miter;stroke-opacity:1;font-family:URW Palladio L"
   x="3789.9514"
   y="-475.63721"
   id="text1458"
   sodipodi:linespacing="100%"><tspan
     sodipodi:role="line"
     id="tspan1460"
     x="3789.9514"
     y="-475.63721">On/Off</tspan></text>
<text
   xml:space="preserve"
   style="font-size:790.22229004px;font-style:normal;font-variant:normal;font-weight:normal;font-stretch:normal;text-align:start;line-height:100%;writing-mode:lr-tb;text-anchor:start;fill:#000000;fill-opacity:1;stroke:none;stroke-width:1px;stroke-linecap:butt;stroke-linejoin:miter;stroke-opacity:1;font-family:URW Palladio L"
   x="10848.717"
   y="6686.5488"
   id="text1462"
   sodipodi:linespacing="100%"><tspan
     sodipodi:role="line"
     id="tspan1464"
     x="10848.717"
     y="6686.5488">Up</tspan></text>
<text
   xml:space="preserve"
   style="font-size:790.22229004px;font-style:normal;font-variant:normal;font-weight:normal;font-stretch:normal;text-align:start;line-height:100%;writing-mode:lr-tb;text-anchor:start;fill:#000000;fill-opacity:1;stroke:none;stroke-width:1px;stroke-linecap:butt;stroke-linejoin:miter;stroke-opacity:1;font-family:URW Palladio L"
   x="10861.875"
   y="9226.3428"
   id="text1466"
   sodipodi:linespacing="100%"><tspan
     sodipodi:role="line"
     id="tspan1468"
     x="10861.875"
     y="9226.3428">Right</tspan></text>
<text
   xml:space="preserve"
   style="font-size:790.22229004px;font-style:normal;font-variant:normal;font-weight:normal;font-stretch:normal;text-align:start;line-height:100%;writing-mode:lr-tb;text-anchor:start;fill:#000000;fill-opacity:1;stroke:none;stroke-width:1px;stroke-linecap:butt;stroke-linejoin:miter;stroke-opacity:1;font-family:URW Palladio L"
   x="10875.036"
   y="12331.999"
   id="text1470"
   sodipodi:linespacing="100%"><tspan
     sodipodi:role="line"
     id="tspan1472"
     x="10875.036"
     y="12331.999">Down</tspan></text>
<text
   xml:space="preserve"
   style="font-size:790.22229004px;font-style:normal;font-variant:normal;font-weight:normal;font-stretch:normal;text-align:start;line-height:100%;writing-mode:lr-tb;text-anchor:start;fill:#000000;fill-opacity:1;stroke:none;stroke-width:1px;stroke-linecap:butt;stroke-linejoin:miter;stroke-opacity:1;font-family:URW Palladio L"
   x="-2652.9878"
   y="13082.093"
   id="text1474"
   sodipodi:linespacing="100%"><tspan
     sodipodi:role="line"
     id="tspan1476"
     x="-2652.9878"
     y="13082.093">Mode</tspan></text>
<text
   xml:space="preserve"
   style="font-size:790.22229004px;font-style:normal;font-variant:normal;font-weight:normal;font-stretch:normal;text-align:start;line-height:100%;writing-mode:lr-tb;text-anchor:start;fill:#000000;fill-opacity:1;stroke:none;stroke-width:1px;stroke-linecap:butt;stroke-linejoin:miter;stroke-opacity:1;font-family:URW Palladio L"
   x="-2639.8281"
   y="9397.418"
   id="text1478"
   sodipodi:linespacing="100%"><tspan
     sodipodi:role="line"
     id="tspan1480"
     x="-2639.8281"
     y="9397.418">Left</tspan></text>
</svg>