<?xml version="1.0" encoding="UTF-8" standalone="no"?>
<!-- Creator: CorelDRAW -->
<svg
   xmlns:dc="http://purl.org/dc/elements/1.1/"
   xmlns:cc="http://web.resource.org/cc/"
   xmlns:rdf="http://www.w3.org/1999/02/22-rdf-syntax-ns#"
   xmlns:svg="http://www.w3.org/2000/svg"
   xmlns="http://www.w3.org/2000/svg"
   xmlns:sodipodi="http://inkscape.sourceforge.net/DTD/sodipodi-0.dtd"
   xmlns:inkscape="http://www.inkscape.org/namespaces/inkscape"
   xml:space="preserve"
   width="102mm"
   height="150mm"
   shape-rendering="geometricPrecision"
   text-rendering="geometricPrecision"
   image-rendering="optimizeQuality"
   fill-rule="evenodd"
   viewBox="0 0 10200 15000"
   id="svg2287"
   sodipodi:version="0.32"
   inkscape:version="0.43"
   sodipodi:docname="player-front.svg"
   sodipodi:docbase="/home/martin/src/dev/pics/pixelma/three"><metadata
   id="metadata2678"><rdf:RDF><cc:Work
       rdf:about=""><dc:format>image/svg+xml</dc:format><dc:type
         rdf:resource="http://purl.org/dc/dcmitype/StillImage" /></cc:Work></rdf:RDF></metadata><defs
   id="defs2676" /><sodipodi:namedview
   inkscape:window-height="572"
   inkscape:window-width="746"
   inkscape:pageshadow="2"
   inkscape:pageopacity="0.0"
   borderopacity="1.0"
   bordercolor="#666666"
   pagecolor="#ffffff"
   id="base"
   inkscape:zoom="0.75823708"
   inkscape:cx="180.70866"
   inkscape:cy="265.74802"
   inkscape:window-x="476"
   inkscape:window-y="46"
   inkscape:current-layer="layer1" />
 <g
   id="Ebene_x0020_1">
  <defs
   id="defs2290">
   <linearGradient
   id="id0"
   gradientUnits="userSpaceOnUse"
   x1="7202.98"
   y1="770.41"
   x2="6510.84"
   y2="770.41">
    <stop
   offset="0"
   stop-color="#363636"
   id="stop2293" />
    <stop
   offset="0.501961"
   stop-color="#757575"
   id="stop2295" />
    <stop
   offset="1"
   stop-color="#121212"
   id="stop2297" />
    <stop
   offset="1"
   stop-color="#121212"
   id="stop2299" />
   </linearGradient>
   <linearGradient
   id="id1"
   gradientUnits="userSpaceOnUse"
   x1="3689.18"
   y1="770.41"
   x2="2997.04"
   y2="770.41">
    <stop
   offset="0"
   stop-color="#363636"
   id="stop2302" />
    <stop
   offset="0.501961"
   stop-color="#757575"
   id="stop2304" />
    <stop
   offset="1"
   stop-color="#121212"
   id="stop2306" />
    <stop
   offset="1"
   stop-color="#121212"
   id="stop2308" />
   </linearGradient>
   <linearGradient
   id="id2"
   gradientUnits="userSpaceOnUse"
   x1="5100.01"
   y1="1063.87"
   x2="5100.01"
   y2="748.55">
    <stop
   offset="0"
   stop-color="#E8E8E8"
   id="stop2311" />
    <stop
   offset="0.329412"
   stop-color="#ACACAC"
   id="stop2313" />
    <stop
   offset="1"
   stop-color="#707070"
   id="stop2315" />
    <stop
   offset="1"
   stop-color="#707070"
   id="stop2317" />
   </linearGradient>
   <linearGradient
   id="id3"
   gradientUnits="userSpaceOnUse"
   x1="5100.04"
   y1="13978.7"
   x2="5100.04"
   y2="14266.3">
    <stop
   offset="0"
   stop-color="#E8E8E8"
   id="stop2320" />
    <stop
   offset="0.329412"
   stop-color="#ACACAC"
   id="stop2322" />
    <stop
   offset="1"
   stop-color="#707070"
   id="stop2324" />
    <stop
   offset="1"
   stop-color="#707070"
   id="stop2326" />
   </linearGradient>
   <linearGradient
   id="id4"
   gradientUnits="userSpaceOnUse"
   x1="9661.42"
   y1="7500"
   x2="7755.32"
   y2="7500">
    <stop
   offset="0"
   stop-color="#696969"
   id="stop2329" />
    <stop
   offset="0.54902"
   stop-color="#E8E8E8"
   id="stop2331" />
    <stop
   offset="1"
   stop-color="#C4C2C2"
   id="stop2333" />
    <stop
   offset="1"
   stop-color="#C4C2C2"
   id="stop2335" />
   </linearGradient>
   <linearGradient
   id="id5"
   gradientUnits="userSpaceOnUse"
   x1="538.61"
   y1="7500"
   x2="2444.69"
   y2="7500">
    <stop
   offset="0"
   stop-color="#696969"
   id="stop2338" />
    <stop
   offset="0.54902"
   stop-color="#E8E8E8"
   id="stop2340" />
    <stop
   offset="1"
   stop-color="#C4C2C2"
   id="stop2342" />
    <stop
   offset="1"
   stop-color="#C4C2C2"
   id="stop2344" />
   </linearGradient>
   <linearGradient
   id="id6"
   gradientUnits="userSpaceOnUse"
   x1="2532.36"
   y1="10435.9"
   x2="2532.36"
   y2="8919.04">
    <stop
   offset="0"
   stop-color="#C4C4C4"
   id="stop2347" />
    <stop
   offset="0.501961"
   stop-color="#E8E8E8"
   id="stop2349" />
    <stop
   offset="1"
   stop-color="#C4C4C4"
   id="stop2351" />
    <stop
   offset="1"
   stop-color="#C4C4C4"
   id="stop2353" />
   </linearGradient>
   <linearGradient
   id="id7"
   gradientUnits="userSpaceOnUse"
   x1="7667.63"
   y1="10435.8"
   x2="7667.63"
   y2="8918.98">
    <stop
   offset="0"
   stop-color="#C4C4C4"
   id="stop2356" />
    <stop
   offset="0.501961"
   stop-color="#E8E8E8"
   id="stop2358" />
    <stop
   offset="1"
   stop-color="#C4C4C4"
   id="stop2360" />
    <stop
   offset="1"
   stop-color="#C4C4C4"
   id="stop2362" />
   </linearGradient>
   <linearGradient
   id="id8"
   gradientUnits="userSpaceOnUse"
   x1="7667.63"
   y1="6080.99"
   x2="7667.63"
   y2="4564.13">
    <stop
   offset="0"
   stop-color="#C4C4C4"
   id="stop2365" />
    <stop
   offset="0.501961"
   stop-color="#E8E8E8"
   id="stop2367" />
    <stop
   offset="1"
   stop-color="#C4C4C4"
   id="stop2369" />
    <stop
   offset="1"
   stop-color="#C4C4C4"
   id="stop2371" />
   </linearGradient>
   <linearGradient
   id="id9"
   gradientUnits="userSpaceOnUse"
   x1="2532.36"
   y1="6080.99"
   x2="2532.36"
   y2="4564.13">
    <stop
   offset="0"
   stop-color="#C4C4C4"
   id="stop2374" />
    <stop
   offset="0.501961"
   stop-color="#E8E8E8"
   id="stop2376" />
    <stop
   offset="1"
   stop-color="#C4C4C4"
   id="stop2378" />
    <stop
   offset="1"
   stop-color="#C4C4C4"
   id="stop2380" />
   </linearGradient>
   <linearGradient
   id="id10"
   gradientUnits="userSpaceOnUse"
   x1="70.15"
   y1="13047.4"
   x2="3078.25"
   y2="13047.4">
    <stop
   offset="0"
   stop-color="#041242"
   id="stop2383" />
    <stop
   offset="0.501961"
   stop-color="#2D2994"
   id="stop2385" />
    <stop
   offset="1"
   stop-color="#041242"
   id="stop2387" />
    <stop
   offset="1"
   stop-color="#041242"
   id="stop2389" />
   </linearGradient>
   <linearGradient
   id="id11"
   gradientUnits="userSpaceOnUse"
   x1="99.17"
   y1="13019"
   x2="3078.25"
   y2="13019">
    <stop
   offset="0"
   stop-color="#092378"
   id="stop2392" />
    <stop
   offset="0.501961"
   stop-color="#6360C4"
   id="stop2394" />
    <stop
   offset="1"
   stop-color="#273287"
   id="stop2396" />
    <stop
   offset="1"
   stop-color="#273287"
   id="stop2398" />
   </linearGradient>
   <linearGradient
   id="id12"
   gradientUnits="userSpaceOnUse"
   x1="10129.9"
   y1="13047.4"
   x2="7121.77"
   y2="13047.4">
    <stop
   offset="0"
   stop-color="#041242"
   id="stop2401" />
    <stop
   offset="0.501961"
   stop-color="#2D2994"
   id="stop2403" />
    <stop
   offset="1"
   stop-color="#041242"
   id="stop2405" />
    <stop
   offset="1"
   stop-color="#041242"
   id="stop2407" />
   </linearGradient>
   <linearGradient
   id="id13"
   gradientUnits="userSpaceOnUse"
   x1="10100.9"
   y1="13019"
   x2="7121.77"
   y2="13019">
    <stop
   offset="0"
   stop-color="#092378"
   id="stop2410" />
    <stop
   offset="0.501961"
   stop-color="#6360C4"
   id="stop2412" />
    <stop
   offset="1"
   stop-color="#273287"
   id="stop2414" />
    <stop
   offset="1"
   stop-color="#273287"
   id="stop2416" />
   </linearGradient>
   <linearGradient
   id="id14"
   gradientUnits="userSpaceOnUse"
   x1="10129.9"
   y1="1952.57"
   x2="7121.77"
   y2="1952.57">
    <stop
   offset="0"
   stop-color="#041242"
   id="stop2419" />
    <stop
   offset="0.501961"
   stop-color="#2D2994"
   id="stop2421" />
    <stop
   offset="1"
   stop-color="#041242"
   id="stop2423" />
    <stop
   offset="1"
   stop-color="#041242"
   id="stop2425" />
   </linearGradient>
   <linearGradient
   id="id15"
   gradientUnits="userSpaceOnUse"
   x1="10100.9"
   y1="1981.01"
   x2="7121.77"
   y2="1981.01">
    <stop
   offset="0"
   stop-color="#092378"
   id="stop2428" />
    <stop
   offset="0.501961"
   stop-color="#6360C4"
   id="stop2430" />
    <stop
   offset="1"
   stop-color="#273287"
   id="stop2432" />
    <stop
   offset="1"
   stop-color="#273287"
   id="stop2434" />
   </linearGradient>
   <linearGradient
   id="id16"
   gradientUnits="userSpaceOnUse"
   x1="70.15"
   y1="1952.57"
   x2="3078.25"
   y2="1952.57">
    <stop
   offset="0"
   stop-color="#041242"
   id="stop2437" />
    <stop
   offset="0.501961"
   stop-color="#2D2994"
   id="stop2439" />
    <stop
   offset="1"
   stop-color="#041242"
   id="stop2441" />
    <stop
   offset="1"
   stop-color="#041242"
   id="stop2443" />
   </linearGradient>
   <linearGradient
   id="id17"
   gradientUnits="userSpaceOnUse"
   x1="99.17"
   y1="1981.01"
   x2="3078.25"
   y2="1981.01">
    <stop
   offset="0"
   stop-color="#092378"
   id="stop2446" />
    <stop
   offset="0.501961"
   stop-color="#6360C4"
   id="stop2448" />
    <stop
   offset="1"
   stop-color="#273287"
   id="stop2450" />
    <stop
   offset="1"
   stop-color="#273287"
   id="stop2452" />
   </linearGradient>
   <linearGradient
   id="id18"
   gradientUnits="userSpaceOnUse"
   x1="3017.71"
   y1="9072.95"
   x2="7182.29"
   y2="9072.95">
    <stop
   offset="0"
   stop-color="#5E5E9C"
   id="stop2455" />
    <stop
   offset="0.0117647"
   stop-color="#B5B5F2"
   id="stop2457" />
    <stop
   offset="0.0313725"
   stop-color="#A2A4E8"
   id="stop2459" />
    <stop
   offset="0.501961"
   stop-color="#B2B2ED"
   id="stop2461" />
    <stop
   offset="0.968627"
   stop-color="#A2A4E8"
   id="stop2463" />
    <stop
   offset="0.988235"
   stop-color="#B5B5F2"
   id="stop2465" />
    <stop
   offset="1"
   stop-color="#5E5E9C"
   id="stop2467" />
    <stop
   offset="1"
   stop-color="#5E5E9C"
   id="stop2469" />
   </linearGradient>
   <linearGradient
   id="id19"
   gradientUnits="userSpaceOnUse"
   x1="3017.71"
   y1="3925.62"
   x2="7182.29"
   y2="3925.62">
    <stop
   offset="0"
   stop-color="#5E5E9C"
   id="stop2472" />
    <stop
   offset="0.0117647"
   stop-color="#B5B5F2"
   id="stop2474" />
    <stop
   offset="0.0313725"
   stop-color="#A2A4E8"
   id="stop2476" />
    <stop
   offset="0.501961"
   stop-color="#B2B2ED"
   id="stop2478" />
    <stop
   offset="0.968627"
   stop-color="#A2A4E8"
   id="stop2480" />
    <stop
   offset="0.988235"
   stop-color="#B5B5F2"
   id="stop2482" />
    <stop
   offset="1"
   stop-color="#5E5E9C"
   id="stop2484" />
    <stop
   offset="1"
   stop-color="#5E5E9C"
   id="stop2486" />
   </linearGradient>
   <radialGradient
   id="id20"
   gradientUnits="userSpaceOnUse"
   cx="5558.22"
   cy="9701.34"
   r="1593.97"
   fx="5558.22"
   fy="9701.34">
    <stop
   offset="0"
   stop-color="#D5D5D5"
   id="stop2489" />
    <stop
   offset="0.901961"
   stop-color="#B5B5B5"
   id="stop2491" />
    <stop
   offset="0.94902"
   stop-color="#C1C1C1"
   id="stop2493" />
    <stop
   offset="1"
   stop-color="#8F8F8F"
   id="stop2495" />
    <stop
   offset="1"
   stop-color="#8F8F8F"
   id="stop2497" />
   </radialGradient>
   <radialGradient
   id="id21"
   gradientUnits="userSpaceOnUse"
   cx="3223.77"
   cy="10573.7"
   r="500.23"
   fx="3223.77"
   fy="10573.7">
    <stop
   offset="0"
   stop-color="#D5D5D5"
   id="stop2500" />
    <stop
   offset="0.901961"
   stop-color="#B5B5B5"
   id="stop2502" />
    <stop
   offset="0.94902"
   stop-color="#C1C1C1"
   id="stop2504" />
    <stop
   offset="1"
   stop-color="#8F8F8F"
   id="stop2506" />
    <stop
   offset="1"
   stop-color="#8F8F8F"
   id="stop2508" />
   </radialGradient>
   <radialGradient
   id="id22"
   gradientUnits="userSpaceOnUse"
   cx="3223.77"
   cy="8796.11"
   r="500.21"
   fx="3223.77"
   fy="8796.11">
    <stop
   offset="0"
   stop-color="#D5D5D5"
   id="stop2511" />
    <stop
   offset="0.901961"
   stop-color="#B5B5B5"
   id="stop2513" />
    <stop
   offset="0.94902"
   stop-color="#C1C1C1"
   id="stop2515" />
    <stop
   offset="1"
   stop-color="#8F8F8F"
   id="stop2517" />
    <stop
   offset="1"
   stop-color="#8F8F8F"
   id="stop2519" />
   </radialGradient>
  </defs>
  <path
   fill="#000000"
   stroke="#000000"
   stroke-width="18"
   d="M2444.68 7213.22l162.82 0 0 573.53 -162.82 0c0,0.01 0,0.02 0,0.03 -5.18,-29.48 -32.09,-50.02 -61.9,-47.27l0 -479.04c29.81,2.75 56.72,-17.79 61.9,-47.23l0 -0.02 0 0 0 0z"
   id="path2521" />
  <path
   fill="#000000"
   stroke="#000000"
   stroke-width="18"
   d="M7755.35 7213.22l-162.86 0 0 573.53 162.86 0c0,0.01 0,0.01 0,0.02 5.18,-29.48 32.09,-50.02 61.9,-47.27l0 -479.04c-29.81,2.75 -56.72,-17.79 -61.9,-47.23l0 -0.01z"
   id="path2523" />
  <path
   fill="url(#id0)"
   stroke="#000000"
   stroke-width="18"
   stroke-linejoin="bevel"
   d="M7121.77 733.7l-580.93 0c-16.57,0 -30,13.43 -30,30l0 43.42 692.14 0c-22.64,-28.97 -50.11,-53.81 -81.21,-73.42z"
   id="path2525" />
  <path
   fill="url(#id1)"
   stroke="#000000"
   stroke-width="18"
   stroke-linejoin="bevel"
   d="M3078.25 733.7l580.93 0c16.57,0 30,13.43 30,30l0 43.42 -692.14 0c22.64,-28.97 50.11,-53.81 81.21,-73.42z"
   id="path2527" />
  <path
   fill="url(#id2)"
   stroke="#000000"
   stroke-width="18"
   stroke-linejoin="bevel"
   d="M7202.98 807.12l-1572.02 0c-19.83,-2.51 -38.23,-11.7 -52.15,-26.05 -24.41,-21.37 -56.11,-32.53 -88.52,-31.16l-780.56 0c-32.41,-1.37 -64.11,9.79 -88.52,31.16 -13.92,14.35 -32.32,23.54 -52.15,26.05l-1572.02 0c-54.83,70.18 -77.82,160.08 -63.42,247.97 0.38,2.92 0.77,5.85 1.15,8.78l1738.39 0 -1.83 -35.09c-1.69,-20.2 5.34,-40.16 19.31,-54.85 13.97,-14.68 33.55,-22.7 53.81,-22.03l711.12 0c20.26,-0.67 39.84,7.35 53.81,22.03 13.97,14.69 21,34.65 19.31,54.85l-1.83 35.09 1738.39 0c0.38,-2.93 0.77,-5.86 1.15,-8.78 14.4,-87.89 -8.59,-177.79 -63.42,-247.97l0 0z"
   id="path2529" />
  <path
   fill="url(#id3)"
   stroke="#000000"
   stroke-width="18"
   stroke-linejoin="bevel"
   d="M7270.1 13978.7l-4340.12 0c-6.45,114.77 49.57,225.34 148.28,287.61l4043.51 0c98.74,-62.27 154.78,-172.84 148.33,-287.61z"
   id="path2531" />
  <path
   fill="#E8E8E8"
   d="M7257.89 1063.88c-18.93,199.76 -31.59,400.09 -38.02,600.65 -24.32,559.31 24.23,1119.38 144.49,1666.13 44.86,160 188.71,272.09 354.81,276.48 11.55,1.62 21.91,7.89 28.74,17.34 6.83,9.45 9.51,21.24 7.44,32.73l-0.02 906.92c162.04,492.65 162.04,1024.23 0,1516.85 0,544.02 0.02,588.21 0.02,1132.24l-162.86 0 0 573.53 162.86 0c0,544.04 -0.02,588.21 -0.02,1132.24 162.04,492.62 162.04,1024.23 0,1516.85l0.02 906.94 0 0.01c2.1,11.46 -0.58,23.28 -7.41,32.73 -6.82,9.45 -17.19,15.69 -28.74,17.34 -166.1,4.39 -309.95,116.45 -354.84,276.45 -120.23,546.75 -168.78,1106.82 -144.46,1666.13 4.36,203.86 19.9,407.32 46.51,609.47 1.85,11.28 3.05,22.53 3.68,33.77l-4340.11 0c-1.4,-20.14 3.67,-33.77 3.67,-33.77 26.61,-202.15 42.12,-405.61 46.51,-609.47 24.32,-559.31 -24.23,-1119.38 -144.49,-1666.13 -44.86,-160 -188.71,-272.06 -354.81,-276.45 -11.55,-1.65 -21.91,-7.89 -28.74,-17.34 -6.83,-9.45 -9.51,-21.27 -7.44,-32.73l-0.02 -906.95c-162.04,-492.62 -162.04,-1024.23 0,-1516.85 0,-544.04 0.02,-588.2 0.02,-1132.24l162.82 0 0 -573.53 -162.82 0c0,-544.03 -0.02,-588.23 -0.02,-1132.24 -162.04,-492.62 -162.04,-1024.2 0,-1516.85l0.02 -499.83 -0.03 -407.09c-2.07,-11.49 0.61,-23.28 7.44,-32.73 6.83,-9.45 17.19,-15.72 28.74,-17.34 166.1,-4.39 309.95,-116.48 354.81,-276.48 120.26,-546.75 168.81,-1106.82 144.49,-1666.13 -1.31,-41.02 -38.19,-599.6 -38.02,-600.65l1731.03 0 -2.04 -39.5c-0.43,-19.51 7.19,-38.31 21.09,-52.03 13.87,-13.71 32.76,-21.09 52.27,-20.45l711.11 0c19.48,-0.64 38.41,6.75 52.27,20.45 13.86,13.71 21.49,32.52 21.09,52.03l-2.07 39.5 1731.03 0 0 0 0 0zm12.46 12920.3c0.05,1.32 0.08,2.63 0.12,3.96 -0.04,-1.32 -0.07,-2.65 -0.12,-3.96zm0.18 6.42c0.02,1.14 0.04,2.27 0.04,3.41 -0.01,-1.13 -0.02,-2.27 -0.04,-3.41zm0.05 5.01c0.01,1.5 0.01,2.99 -0.01,4.49 0.02,-1.48 0.02,-2.99 0.01,-4.49z"
   id="path2533" />
  <path
   fill="url(#id4)"
   stroke="#000000"
   stroke-width="18"
   stroke-linejoin="bevel"
   d="M7755.35 3657.21l1906.07 0 0 7685.57 -1906.07 0 0 0 -0.02 -906.94c162.04,-492.62 162.04,-1024.23 0,-1516.85l0.02 -1132.22c5.18,-29.48 32.09,-50.02 61.9,-47.27l0 -479.04c-29.81,2.75 -56.72,-17.79 -61.9,-47.23l-0.02 -1132.25c162.04,-492.62 162.04,-1024.2 0,-1516.85l0.02 -906.92 0 0 0 0z"
   id="path2535" />
  <path
   fill="url(#id5)"
   stroke="#000000"
   stroke-width="18"
   stroke-linejoin="bevel"
   d="M2444.68 3657.22l-1906.07 0 0 7685.57 1906.07 0 -0.02 -906.95 0.02 906.95 -0.02 -906.95c-162.04,-492.62 -162.04,-1024.23 0,-1516.85l0.02 -1132.21c-5.18,-29.48 -32.09,-50.02 -61.9,-47.27l0 -479.04c29.81,2.75 56.72,-17.79 61.9,-47.23l-0.02 -1132.26c-162.04,-492.62 -162.04,-1024.2 0,-1516.85l0.02 -906.91 0 0 0 0z"
   id="path2537" />
  <path
   fill="url(#id6)"
   stroke="#000000"
   stroke-width="18"
   stroke-linejoin="bevel"
   d="M2444.66 10435.9c214.8,-193.59 337.44,-469.22 337.44,-758.41 0,-289.19 -122.64,-564.82 -337.44,-758.44 -162.04,492.62 -162.04,1024.23 0,1516.85z"
   id="path2539" />
  <path
   fill="url(#id7)"
   stroke="#000000"
   stroke-width="18"
   stroke-linejoin="bevel"
   d="M7755.33 8918.99c-214.8,193.62 -337.44,469.25 -337.44,758.44 0,289.19 122.64,564.82 337.44,758.41 162.04,-492.62 162.04,-1024.23 0,-1516.85z"
   id="path2541" />
  <path
   fill="url(#id8)"
   stroke="#000000"
   stroke-width="18"
   stroke-linejoin="bevel"
   d="M7755.33 4564.13c-214.8,193.59 -337.44,469.22 -337.44,758.41 0,289.19 122.64,564.82 337.44,758.44 162.04,-492.62 162.04,-1024.2 0,-1516.85l0 0 0 0z"
   id="path2543" />
  <path
   fill="url(#id9)"
   stroke="#000000"
   stroke-width="18"
   stroke-linejoin="bevel"
   d="M2444.66 6080.98c214.8,-193.62 337.44,-469.25 337.44,-758.44 0,-289.19 -122.64,-564.82 -337.44,-758.41 -162.04,492.65 -162.04,1024.23 0,1516.85z"
   id="path2545" />
  <path
   fill="url(#id10)"
   stroke="#000000"
   stroke-width="18"
   stroke-linejoin="bevel"
   d="M3078.25 14266.3c-108.39,-68.35 -165.35,-194.93 -144.63,-321.38 26.62,-202.15 42.14,-405.61 46.5,-609.46 24.34,-559.3 -24.22,-1119.38 -144.46,-1666.14 -44.87,-159.98 -188.73,-272.06 -354.83,-276.46 -11.54,-1.62 -21.92,-7.88 -28.74,-17.33 -6.82,-9.45 -9.5,-21.27 -7.41,-32.74l-1906.09 0c-0.46,9.27 -4.95,17.88 -12.28,23.57 -7.33,5.69 -16.78,7.9 -25.88,6.05 -109.15,11.87 -206.22,74.73 -261.71,169.47 -129.52,692.09 -168.57,1398.08 -116.16,2100.23 16.44,268.91 58.25,535.65 124.87,796.69 83.21,194.12 281.21,313.29 491.69,295.94 161.62,-3.31 323.28,-4.48 484.94,-3.53 435.34,2.55 870.7,2.55 1306.04,0 210.21,-10.65 395.6,-141.14 476.55,-335.42 17.43,-46.42 41.55,-90.05 71.6,-129.49l0 0 0 0z"
   id="path2547" />
  <path
   fill="url(#id11)"
   d="M2934.99 13944.9c-20.52,126.45 35.9,253.03 143.26,321.38 -15,19.87 -28.52,40.83 -40.46,62.71 -85.18,116.53 -206.85,200.59 -345.28,238.56 -483.31,2.53 -966.62,2.52 -1449.93,-0.02 -217.42,-0.97 -434.85,0.25 -652.25,3.68 -136.81,11.61 -266.95,-61.64 -329.07,-185.24 -58.47,-244.2 -95.51,-493.12 -110.69,-743.87 -51.4,-695.2 -14,-1394.19 111.28,-2079.74 59.93,-62.49 141.34,-99.36 227.42,-102.99l2065.84 0c83.49,-4.21 164.81,27.62 223.65,87.55 26.9,36.85 46.96,78.33 59.2,122.4 119.1,546.76 167.2,1106.83 143.09,1666.13 -4.32,203.85 -19.69,407.31 -46.06,609.45l0 0z"
   id="path2549" />
  <path
   fill="url(#id12)"
   stroke="#000000"
   stroke-width="18"
   stroke-linejoin="bevel"
   d="M7121.77 14266.3c108.39,-68.35 165.35,-194.93 144.63,-321.38 -26.62,-202.15 -42.14,-405.61 -46.5,-609.46 -24.34,-559.3 24.22,-1119.38 144.46,-1666.14 44.87,-159.98 188.73,-272.06 354.83,-276.46 11.54,-1.62 21.92,-7.88 28.74,-17.33 6.82,-9.45 9.5,-21.27 7.41,-32.74l1906.08 0c0.46,9.27 4.95,17.88 12.28,23.57 7.33,5.69 16.78,7.9 25.88,6.05 109.15,11.87 206.22,74.73 261.71,169.47 129.52,692.09 168.57,1398.08 116.16,2100.23 -16.44,268.91 -58.25,535.65 -124.87,796.69 -83.21,194.12 -281.21,313.29 -491.68,295.94 -161.62,-3.31 -323.28,-4.48 -484.94,-3.53 -435.34,2.55 -870.7,2.55 -1306.04,0 -210.21,-10.65 -395.6,-141.14 -476.55,-335.42 -17.43,-46.42 -41.55,-90.05 -71.6,-129.49l0 0 0 0z"
   id="path2551" />
  <path
   fill="url(#id13)"
   d="M7265.03 13944.9c20.53,126.45 -35.89,253.03 -143.26,321.38 15,19.87 28.52,40.83 40.47,62.71 85.17,116.53 206.85,200.59 345.28,238.56 483.3,2.53 966.62,2.52 1449.93,-0.02 217.42,-0.97 434.85,0.25 652.25,3.68 136.81,11.61 266.94,-61.64 329.07,-185.24 58.47,-244.2 95.5,-493.12 110.69,-743.87 51.4,-695.2 13.99,-1394.19 -111.29,-2079.74 -59.92,-62.49 -141.34,-99.36 -227.41,-102.99l-2065.85 0c-83.48,-4.21 -164.79,27.62 -223.65,87.55 -26.89,36.85 -46.95,78.33 -59.19,122.4 -119.1,546.76 -167.2,1106.83 -143.09,1666.13 4.31,203.85 19.69,407.31 46.05,609.45l0 0z"
   id="path2553" />
  <path
   fill="url(#id14)"
   stroke="#000000"
   stroke-width="18"
   stroke-linejoin="bevel"
   d="M7121.77 733.7c108.39,68.35 165.35,194.93 144.63,321.39 -26.62,202.15 -42.14,405.61 -46.5,609.46 -24.34,559.29 24.22,1119.37 144.46,1666.13 44.87,159.98 188.73,272.07 354.83,276.46 11.54,1.63 21.92,7.89 28.74,17.34 6.82,9.45 9.5,21.27 7.41,32.73l1906.08 0c0.46,-9.27 4.95,-17.87 12.28,-23.56 7.33,-5.69 16.78,-7.9 25.88,-6.06 109.15,-11.86 206.22,-74.73 261.71,-169.47 129.52,-692.09 168.57,-1398.07 116.16,-2100.23 -16.44,-268.9 -58.25,-535.65 -124.87,-796.69 -83.21,-194.11 -281.21,-313.28 -491.68,-295.93 -161.62,3.3 -323.28,4.48 -484.94,3.53 -435.34,-2.56 -870.7,-2.56 -1306.04,0 -210.21,10.65 -395.6,141.13 -476.55,335.42 -17.43,46.42 -41.55,90.04 -71.6,129.48l0 0 0 0z"
   id="path2555" />
  <path
   fill="url(#id15)"
   d="M7265.03 1055.09c20.53,-126.46 -35.89,-253.04 -143.26,-321.39 15,-19.87 28.52,-40.83 40.47,-62.7 85.17,-116.53 206.85,-200.6 345.28,-238.56 483.3,-2.52 966.62,-2.52 1449.93,0.02 217.42,0.97 434.85,-0.26 652.25,-3.67 136.81,-11.62 266.94,61.63 329.07,185.23 58.47,244.19 95.5,493.11 110.69,743.87 51.4,695.2 13.99,1394.19 -111.29,2079.76 -59.92,62.49 -141.34,99.35 -227.41,102.97l-2065.85 0c-83.48,4.22 -164.79,-27.6 -223.65,-87.53 -26.89,-36.86 -46.95,-78.33 -59.19,-122.41 -119.1,-546.76 -167.2,-1106.84 -143.09,-1666.13 4.31,-203.85 19.69,-407.31 46.05,-609.46l0 0z"
   id="path2557" />
  <path
   fill="url(#id16)"
   stroke="#000000"
   stroke-width="18"
   stroke-linejoin="bevel"
   d="M3078.25 733.7c-108.39,68.35 -165.35,194.93 -144.63,321.39 26.62,202.15 42.14,405.61 46.5,609.46 24.34,559.29 -24.22,1119.37 -144.46,1666.13 -44.87,159.98 -188.73,272.07 -354.83,276.46 -11.54,1.63 -21.92,7.89 -28.74,17.34 -6.82,9.45 -9.5,21.27 -7.41,32.73l-1906.09 0c-0.46,-9.27 -4.95,-17.87 -12.28,-23.56 -7.33,-5.69 -16.78,-7.9 -25.88,-6.06 -109.15,-11.86 -206.22,-74.73 -261.71,-169.47 -129.52,-692.09 -168.57,-1398.07 -116.16,-2100.23 16.44,-268.9 58.25,-535.65 124.87,-796.69 83.21,-194.11 281.21,-313.28 491.69,-295.93 161.62,3.3 323.28,4.48 484.94,3.53 435.34,-2.56 870.7,-2.56 1306.04,0 210.21,10.65 395.6,141.13 476.55,335.42 17.43,46.42 41.55,90.04 71.6,129.48l0 0 0 0z"
   id="path2559" />
  <path
   fill="url(#id17)"
   d="M2934.99 1055.09c-20.52,-126.46 35.9,-253.04 143.26,-321.39 -15,-19.87 -28.52,-40.83 -40.46,-62.7 -85.18,-116.53 -206.85,-200.6 -345.28,-238.56 -483.31,-2.52 -966.62,-2.52 -1449.93,0.02 -217.42,0.97 -434.85,-0.26 -652.25,-3.67 -136.81,-11.62 -266.95,61.63 -329.07,185.23 -58.47,244.19 -95.51,493.11 -110.69,743.87 -51.4,695.2 -14,1394.19 111.28,2079.76 59.93,62.49 141.34,99.35 227.42,102.97l2065.84 0c83.49,4.22 164.81,-27.6 223.65,-87.53 26.9,-36.86 46.96,-78.33 59.2,-122.41 119.1,-546.76 167.2,-1106.84 143.09,-1666.13 -4.32,-203.85 -19.69,-407.31 -46.06,-609.46l0 0z"
   id="path2561" />
  <path
   fill="#000000"
   stroke="#000000"
   stroke-width="25"
   stroke-linejoin="bevel"
   d="M7207.29 11198l0 -7396.04c0,-84.16 -68.23,-152.38 -152.39,-152.38l-3909.79 0c-84.16,0 -152.39,68.22 -152.39,152.38l0 7396.04c0,84.16 68.23,152.39 152.39,152.39l3909.79 0c84.16,0 152.39,-68.23 152.39,-152.39z"
   id="path2563" />
  <path
   fill="#C5E07B"
   stroke="#5F6350"
   stroke-width="25"
   stroke-linejoin="bevel"
   d="M7169.8 4214.18l-4139.6 0 0 2568.8 4139.6 0 0 -2568.8z"
   id="path2565" />
  <path
   fill="url(#id18)"
   stroke="#7479A0"
   stroke-width="25"
   stroke-linejoin="bevel"
   d="M7182.29 6820.51l-4164.57 0 0 1492.5c162.25,-69.21 348.4,-52.35 495.57,44.87 147.18,97.23 235.72,261.84 235.72,438.22 0,176.39 -88.54,341 -235.72,438.22 -147.17,97.23 -333.32,114.09 -495.57,44.88l0 811.37c162.25,-69.21 348.4,-52.35 495.57,44.87 147.18,97.23 235.72,261.84 235.72,438.23 0,176.39 -88.54,341 -235.72,438.22 -147.17,97.23 -333.32,114.08 -495.57,44.88l0 141.23c0,33.79 13.42,66.19 37.31,90.08 23.89,23.89 56.29,37.31 90.08,37.31l3909.79 0c70.35,0 127.39,-57.03 127.39,-127.39l0 -4377.49 0 0z"
   id="path2567" />
  <path
   fill="url(#id19)"
   stroke="#7479A0"
   stroke-width="25"
   stroke-linejoin="bevel"
   d="M7182.29 3801.96c0,-70.35 -57.04,-127.38 -127.39,-127.38l-3909.79 0c-70.36,0 -127.39,57.03 -127.39,127.38l0 374.69 4164.57 0 0 -374.69 0 0z"
   id="path2569" />
  <path
   fill="#AAABEA"
   stroke="#7479A0"
   stroke-width="50"
   stroke-linejoin="bevel"
   d="M4121.9 8317.61c0,-96.92 -78.58,-175.49 -175.5,-175.49 -96.93,0 -175.5,78.57 -175.5,175.49 0,96.93 78.57,175.5 175.5,175.5 96.92,0 175.5,-78.57 175.5,-175.5z"
   id="path2571" />
  <path
   fill="#AAABEA"
   stroke="#7479A0"
   stroke-width="50"
   stroke-linejoin="bevel"
   d="M7049.09 8317.61c0,-96.92 -78.57,-175.49 -175.5,-175.49 -96.92,0 -175.49,78.57 -175.49,175.49 0,96.93 78.57,175.5 175.49,175.5 96.93,0 175.5,-78.57 175.5,-175.5z"
   id="path2573" />
  <path
   fill="#D7F791"
   stroke="#000000"
   stroke-width="18"
   stroke-linejoin="bevel"
   d="M5596.57 3213.17c0,-83.05 -67.33,-150.37 -150.37,-150.37 -83.05,0 -150.38,67.32 -150.38,150.37 0,83.05 67.33,150.4 150.38,150.4 83.04,0 150.37,-67.35 150.37,-150.4z"
   id="path2575" />
  <path
   fill="#EB7373"
   stroke="#000000"
   stroke-width="18"
   stroke-linejoin="bevel"
   d="M4904.17 3213.17c0,-83.05 -67.33,-150.37 -150.38,-150.37 -83.05,0 -150.37,67.32 -150.37,150.37 0,83.05 67.32,150.4 150.37,150.4 83.05,0 150.38,-67.35 150.38,-150.4z"
   id="path2577" />
  <path
   fill="none"
   stroke="#7479A0"
   stroke-width="50"
   stroke-linejoin="bevel"
   d="M7168.23 9701.35c0,-889.18 -720.82,-1610.01 -1610,-1610.01 -889.18,0 -1610,720.83 -1610,1610.01 0,889.16 720.82,1609.99 1610,1609.99 889.18,0 1610,-720.83 1610,-1609.99z"
   id="path2579" />
  <path
   fill="url(#id20)"
   stroke="#000000"
   stroke-width="18"
   stroke-linejoin="bevel"
   d="M7152.19 9701.35c0,-880.31 -713.64,-1593.95 -1593.96,-1593.95 -880.32,0 -1593.97,713.64 -1593.97,1593.95 0,880.29 713.65,1593.93 1593.97,1593.93 880.32,0 1593.96,-713.64 1593.96,-1593.93z"
   id="path2581" />
  <path
   fill="url(#id21)"
   stroke="#000000"
   stroke-width="18"
   stroke-linejoin="bevel"
   d="M3723.98 10573.7c0,-276.24 -223.94,-500.21 -500.21,-500.21 -276.24,0 -500.21,223.97 -500.21,500.21 0,276.27 223.97,500.24 500.21,500.24 276.27,0 500.21,-223.97 500.21,-500.24z"
   id="path2583" />
  <path
   fill="url(#id22)"
   stroke="#000000"
   stroke-width="18"
   stroke-linejoin="bevel"
   d="M3723.98 8796.11c0,-276.27 -223.94,-500.21 -500.21,-500.21 -276.24,0 -500.21,223.94 -500.21,500.21 0,276.27 223.97,500.21 500.21,500.21 276.27,0 500.21,-223.94 500.21,-500.21z"
   id="path2585" />
  <path
   fill="none"
   stroke="#000000"
   stroke-width="18"
   stroke-linejoin="bevel"
   d="M3264.73 8883.91l0 -175.64c0,-8.41 6.79,-15.23 15.23,-15.23l26.79 0c5.79,0 11.07,3.26 13.66,8.44l46.47 64.94c2.32,3.23 6.48,4.6 10.24,3.39 3.77,-1.21 6.34,-4.73 6.34,-8.72l0 -52.82c0,-8.41 6.83,-15.23 15.24,-15.23l26.82 0c8.41,0 15.24,6.82 15.24,15.23l0 175.64c0,8.41 -6.83,15.24 -15.24,15.24l-26.82 0c-6.28,0 -11.91,-3.87 -14.2,-9.72l-45.93 -64.16c-2.31,-3.23 -6.46,-4.6 -10.24,-3.38 -3.78,1.22 -6.34,4.73 -6.34,8.72l0 53.3c0,4.02 -1.61,7.92 -4.45,10.76 -2.84,2.86 -6.73,4.48 -10.79,4.48l-26.79 0c-8.44,0 -15.23,-6.83 -15.23,-15.24l0 0 0 0z"
   id="path2587" />
  <path
   fill="none"
   stroke="#000000"
   stroke-width="18"
   d="M3215.54 8813.36l0 -34.53c-7.31,-52.05 -51.81,-90.76 -104.38,-90.76 -52.54,0 -97.07,38.71 -104.35,90.76l0 34.53c7.28,52.05 51.81,90.79 104.35,90.79 52.57,0 97.07,-38.74 104.38,-90.79m-57.29 -4.75l0 -25c-4.67,-22.3 -24.32,-38.27 -47.09,-38.27 -22.77,0 -42.42,15.97 -47.09,38.27l0 25c4.67,22.27 24.32,38.24 47.09,38.24 22.77,0 42.42,-15.97 47.09,-38.24z"
   id="path2589" />
  <path
   fill="none"
   stroke="#000000"
   stroke-width="18"
   stroke-linejoin="bevel"
   d="M5191.53 8786.17l0 -437.98 0 0c0,-8.16 4.33,-15.69 11.37,-19.78 7.07,-4.08 15.76,-4.11 22.83,-0.06l0 0 382.72 219.01 0 0c7.14,4.05 11.52,11.64 11.52,19.84 0,8.2 -4.38,15.75 -11.52,19.84l0 0 -382.72 218.97 0 0c-7.07,4.06 -15.76,4.02 -22.83,-0.06 -7.04,-4.08 -11.37,-11.61 -11.37,-19.78l0 0z"
   id="path2591" />
  <path
   fill="none"
   stroke="#000000"
   stroke-width="18"
   stroke-linejoin="bevel"
   d="M5656.15 8786.17l0 -437.98 0 0c0,-12.61 10.24,-22.85 22.86,-22.85l0 0 65.61 0 0 0c12.62,0 22.86,10.24 22.86,22.85l0 0 0 437.98 0 0c0,12.65 -10.24,22.86 -22.86,22.86l0 0 -65.61 0 0 0c-12.62,0 -22.86,-10.21 -22.86,-22.86l0 0z"
   id="path2593" />
  <path
   fill="none"
   stroke="#000000"
   stroke-width="18"
   stroke-linejoin="bevel"
   d="M5813.59 8786.17l0 -437.98 0 0c0,-12.61 10.24,-22.85 22.86,-22.85l0 0 65.61 0 0 0c12.62,0 22.86,10.24 22.86,22.85l0 0 0 437.98 0 0c0,12.65 -10.24,22.86 -22.86,22.86l0 0 -65.61 0 0 0c-12.62,0 -22.86,-10.21 -22.86,-22.86l0 0z"
   id="path2595" />
  <path
   fill="none"
   stroke="#000000"
   stroke-width="18"
   stroke-linejoin="bevel"
   d="M5348.97 11054.5l0 -372.76 0 0c0,-12.61 10.24,-22.85 22.86,-22.85l0 0 372.79 0 0 0c12.62,0 22.86,10.24 22.86,22.85l0 0 0 372.76 0 0c0,12.62 -10.24,22.86 -22.86,22.86l0 0 -372.79 0 0 0c-12.62,0 -22.86,-10.24 -22.86,-22.86l0 0z"
   id="path2597" />
  <path
   fill="none"
   stroke="#000000"
   stroke-width="18"
   stroke-linejoin="bevel"
   d="M6669.32 9630.43l0 -115.47 0 0c0,-12.62 10.24,-22.86 22.86,-22.86l0 0 65.61 0 0 0c12.62,0 22.86,10.24 22.86,22.86l0 0 0 115.47 0 0c0,8.42 6.83,15.24 15.24,15.24l0 0 115.51 0 0 0c12.61,0 22.85,10.24 22.85,22.86l0 0 0 65.62 0 0c0,12.61 -10.24,22.85 -22.85,22.85l0 0 -115.51 0 0 0c-8.41,0 -15.24,6.83 -15.24,15.24l0 0 0 115.48 0 0c0,12.61 -10.24,22.85 -22.86,22.85l0 0 -65.61 0 0 0c-12.62,0 -22.86,-10.24 -22.86,-22.85l0 0 0 -115.48 0 0c0,-8.41 -6.8,-15.24 -15.24,-15.24l0 0 -115.48 0 0 0c-12.61,0 -22.85,-10.24 -22.85,-22.85l0 0 0 -65.62 0 0c0,-12.62 10.24,-22.86 22.85,-22.86l0 0 115.48 0 0 0c8.44,0 15.24,-6.82 15.24,-15.24l0 0z"
   id="path2599" />
  <path
   fill="none"
   stroke="#000000"
   stroke-width="18"
   stroke-linejoin="bevel"
   d="M4182.2 9734.15l0 -65.62 0 0c0,-12.62 10.24,-22.86 22.86,-22.86l0 0 372.79 0 0 0c12.62,0 22.86,10.24 22.86,22.86l0 0 0 65.62 0 0c0,12.61 -10.24,22.85 -22.86,22.85l0 0 -372.79 0 0 0c-12.62,0 -22.86,-10.24 -22.86,-22.85l0 0z"
   id="path2601" />
  <path
   fill="none"
   stroke="#000000"
   stroke-width="18"
   stroke-linejoin="bevel"
   d="M2444.66 11342.8l0 -906.92c-162.04,-492.63 -162.04,-1024.2 0,-1516.85l0 -1132.24c-5.21,-29.44 -32.12,-49.98 -61.9,-47.27l0 -479c29.78,2.75 56.69,-17.82 61.9,-47.26l0 -1132.24c-162.04,-492.65 -162.04,-1024.22 0,-1516.85l0 -906.92m0 7685.55z"
   id="path2603" />
  <path
   fill="none"
   stroke="#000000"
   stroke-width="18"
   stroke-linejoin="bevel"
   d="M7755.33 11342.8l0 -906.92c162.04,-492.63 162.04,-1024.2 0,-1516.85l0 -1132.24c5.21,-29.44 32.12,-49.98 61.9,-47.27l0 -479c-29.78,2.75 -56.69,-17.82 -61.9,-47.26l0 -1132.24c162.04,-492.65 162.04,-1024.22 0,-1516.85l0 -906.92m0 7685.55z"
   id="path2605" />
  <path
   fill="none"
   stroke="#000000"
   stroke-width="7.62"
   stroke-linejoin="bevel"
   d="M5528.93 1024.38l18.29 -222.79m-18.29 222.79z"
   id="path2607" />
  <path
   fill="none"
   stroke="#000000"
   stroke-width="7.62"
   stroke-linejoin="bevel"
   d="M4671.1 1024.38l-18.32 -222.79m18.32 222.79z"
   id="path2609" />
  <path
   fill="none"
   stroke="#000000"
   stroke-width="18"
   stroke-linejoin="bevel"
   d="M3063.2 10661.5l0 -175.6 0 0c0,-8.41 6.83,-15.24 15.24,-15.24l0 0 105.23 0 0 0c8.42,0 15.24,6.83 15.24,15.24l0 0 0 26.79 0 0c0,8.41 -6.82,15.24 -15.24,15.24l0 0 -55.01 0 0.95 0c-3.17,-0.19 -6.19,1.43 -7.83,4.14 -1.62,2.71 -1.62,6.13 0,8.87 1.64,2.71 4.66,4.3 7.83,4.11l-0.95 0 55.01 0 0 0c8.42,0 15.24,6.83 15.24,15.24l0 0 0 26.82 0 0c0,8.41 -6.82,15.24 -15.24,15.24l0 0 -54.06 0 0 0c-3.17,-0.18 -6.19,1.4 -7.83,4.14 -1.62,2.72 -1.62,6.13 0,8.84 1.64,2.74 4.66,4.33 7.83,4.15l-0.95 0 55.01 0 0 0c8.42,0 15.24,6.82 15.24,15.24l0 0 0 26.78 0 0c0,8.45 -6.82,15.24 -15.24,15.24l0 0 -105.23 0 0 0c-8.41,0 -15.24,-6.79 -15.24,-15.24l0 0 0 0 0 0z"
   id="path2611" />
  <path
   fill="none"
   stroke="#000000"
   stroke-width="18"
   stroke-linejoin="bevel"
   d="M2786.59 10661.5l0 -175.6 0 0c0,-8.41 6.8,-15.24 15.24,-15.24l0 0 32.58 0 0 0c5.79,0 11.06,3.29 13.65,8.47l0 0 48.68 98.35 0 0c0.51,1.04 1.55,1.71 2.71,1.71 1.16,0 2.22,-0.67 2.74,-1.71l0 0 48.67 -98.35 0 0c2.56,-5.18 7.86,-8.47 13.66,-8.47l0 0 32.58 0 0 0c8.41,0 15.23,6.83 15.23,15.24l0 0 0 175.6 0 0c0,8.45 -6.82,15.24 -15.23,15.24l0 0 -26.79 0 0 0c-8.42,0 -15.24,-6.79 -15.24,-15.24l0 0 0 -48.67 0 0c0,-1.43 -0.98,-2.65 -2.38,-2.95 -1.37,-0.34 -2.77,0.33 -3.41,1.61l0 0 -28.1 56.78 0 0c-2.56,5.21 -7.87,8.47 -13.66,8.47l0 0 -16.12 0 0 0c-5.79,0 -11.09,-3.26 -13.65,-8.47l0 0 -28.1 -56.78 0 0c-0.64,-1.28 -2.07,-1.95 -3.45,-1.61 -1.37,0.3 -2.34,1.52 -2.34,2.95l0 0 0 48.67 0 0c0,8.45 -6.83,15.24 -15.24,15.24l0 0 -26.79 0 0 0c-8.44,0 -15.24,-6.79 -15.24,-15.24l0 0 0 0 0 0z"
   id="path2613" />
  <path
   fill="none"
   stroke="#000000"
   stroke-width="18"
   stroke-linejoin="bevel"
   d="M3479.24 10598.1l0.06 -112.24 0 0c0,-8.41 6.82,-15.24 15.24,-15.24l0 0 26.79 0 0 0c8.44,0 15.23,6.83 15.23,15.24l0 0 0 112.24 0 0c0,11.8 9.57,21.34 21.34,21.34l0 0 24.44 0 0 0c11.79,0 21.33,-9.54 21.33,-21.34l0 0 0 -112.24 0 0c0,-8.41 6.83,-15.24 15.24,-15.24l0 0 26.82 0 0 0c8.41,0 15.24,6.83 15.24,15.24l0 0 0 112.24 0 0c0,43.43 -35.2,78.6 -78.63,78.6l0 0 -24.44 0.06c-43.43,0 -78.66,-35.23 -78.66,-78.66l0 0 0 0z"
   id="path2615" />
  <path
   fill="none"
   stroke="#000000"
   stroke-width="18"
   stroke-linejoin="bevel"
   d="M3250.6 10661.5l0 -175.64c0,-8.41 6.79,-15.23 15.23,-15.23l26.79 0c5.79,0 11.07,3.26 13.66,8.44l46.47 64.94c2.32,3.23 6.48,4.6 10.24,3.39 3.77,-1.21 6.34,-4.73 6.34,-8.72l0 -52.82c0,-8.41 6.83,-15.23 15.24,-15.23l26.82 0c8.41,0 15.24,6.82 15.24,15.23l0 175.64c0,8.41 -6.83,15.24 -15.24,15.24l-26.82 0c-6.28,0 -11.91,-3.87 -14.2,-9.72l-45.93 -64.16c-2.31,-3.23 -6.46,-4.6 -10.24,-3.38 -3.78,1.22 -6.34,4.73 -6.34,8.72l0 53.3c0,4.02 -1.61,7.92 -4.45,10.76 -2.84,2.86 -6.73,4.48 -10.79,4.48l-26.79 0c-8.44,0 -15.23,-6.83 -15.23,-15.24l0 0 0 0z"
   id="path2617" />
  <path
   fill="none"
   stroke="#000000"
   stroke-width="18"
   stroke-linejoin="bevel"
   d="M4671.1 1024.38l-18.31 -222.77m18.31 222.77z"
   id="path2619" />
  <path
   fill="none"
   stroke="#000000"
   stroke-width="18"
   stroke-linejoin="bevel"
   d="M5528.92 1024.38l18.31 -222.77m-18.31 222.77z"
   id="path2621" />
  <path
   fill="#000000"
   d="M4308.41 7130.11l61.79 0 42.93 120.94 43.14 -120.94 61.65 0 0 225.96 -45.89 0 0 -165.26 -43.4 121.81 -30.79 0 -43.4 -121.81 0 165.26 -46.03 0 0 -225.96 0 0 0 0zm257.09 0l80.6 0c23.99,0 42.37,6.41 55.2,19.17 12.83,12.76 19.25,30.94 19.25,54.55 0,23.66 -6.42,41.89 -19.25,54.65 -12.83,12.76 -31.21,19.17 -55.2,19.17l-32.03 0 0 78.42 -48.57 0 0 -225.96 0 0 0 0zm48.57 42.21l0 63.12 26.86 0c9.44,0 16.71,-2.73 21.83,-8.26 5.13,-5.48 7.71,-13.28 7.71,-23.35 0,-10.13 -2.58,-17.88 -7.71,-23.35 -5.12,-5.43 -12.39,-8.16 -21.83,-8.16l-26.86 0 0 0 0 0zm410.45 -42.21l80.61 0c23.98,0 42.37,6.41 55.2,19.17 12.82,12.76 19.24,30.94 19.24,54.55 0,23.66 -6.42,41.89 -19.24,54.65 -12.83,12.76 -31.22,19.17 -55.2,19.17l-32.03 0 0 78.42 -48.58 0 0 -225.96zm48.58 42.21l0 63.12 26.86 0c9.43,0 16.71,-2.73 21.83,-8.26 5.12,-5.48 7.71,-13.28 7.71,-23.35 0,-10.13 -2.59,-17.88 -7.71,-23.35 -5.12,-5.43 -12.4,-8.16 -21.83,-8.16l-26.86 0 0 0 0 0zm138.73 -51.77l45.16 0 0 235.52 -45.16 0 0 -235.52zm151.89 159.22c-9.43,0 -16.49,1.91 -21.27,5.73 -4.73,3.88 -7.11,9.51 -7.11,17 0,6.87 1.9,12.24 5.74,16.12 3.82,3.87 9.12,5.83 15.92,5.83 8.53,0 15.63,-3.66 21.45,-11 5.81,-7.28 8.69,-16.48 8.69,-27.48l0 -6.2 -23.42 0 0 0 0 0zm68.98 -20.46l0 96.76 -45.56 0 0 -25.11c-6.07,10.28 -12.87,17.77 -20.41,22.48 -7.57,4.7 -16.78,7.02 -27.64,7.02 -14.64,0 -26.48,-5.11 -35.6,-15.34 -9.14,-10.28 -13.7,-23.56 -13.7,-39.94 0,-19.83 5.69,-34.45 17.1,-43.7 11.41,-9.3 29.28,-13.95 53.65,-13.95l26.6 0 0 -4.23c0,-8.58 -2.8,-14.83 -8.43,-18.81 -5.64,-3.98 -14.43,-5.99 -26.36,-5.99 -9.68,0 -18.68,1.14 -26.99,3.46 -8.31,2.33 -16.06,5.84 -23.21,10.49l0 -41.33c9.69,-2.84 19.37,-4.96 29.15,-6.46 9.73,-1.44 19.5,-2.17 29.24,-2.17 25.49,0 43.87,6.05 55.19,18.08 11.33,12.04 16.97,31.62 16.97,58.74l0 0 0 0zm15.49 -72.74l45.17 0 37.98 115 32.29 -115 45.16 0 -59.42 185.57c-5.98,18.85 -12.91,32.03 -20.87,39.57 -7.97,7.49 -18.43,11.26 -31.48,11.26l-26.13 0 0 -35.54 14.16 0c7.62,0 13.22,-1.45 16.71,-4.39 3.48,-2.95 6.2,-8.17 8.13,-15.76l1.25 -4.7 -62.95 -176.01 0 0 0 0zm327.96 84.31l0 15.45 -105.57 0c1.07,12.71 4.9,22.21 11.5,28.57 6.54,6.35 15.71,9.55 27.47,9.55 9.51,0 19.24,-1.7 29.23,-5.06 9.95,-3.41 20.19,-8.52 30.7,-15.39l0 41.79c-10.68,4.86 -21.36,8.47 -32.04,10.95 -10.67,2.48 -21.35,3.72 -32.03,3.72 -25.58,0 -45.43,-7.8 -59.59,-23.4 -14.17,-15.55 -21.27,-37.45 -21.27,-65.61 0,-27.64 6.98,-49.33 20.88,-65.19 13.91,-15.86 33.07,-23.77 57.44,-23.77 22.21,0 39.96,8.01 53.3,24.08 13.31,16.06 19.98,37.5 19.98,64.31l0 0 0 0zm-46.42 -17.98c0,-10.33 -2.49,-18.59 -7.49,-24.95 -5.03,-6.3 -11.53,-9.45 -19.63,-9.45 -8.74,0 -15.84,2.94 -21.31,8.88 -5.47,5.89 -8.87,14.42 -10.21,25.52l58.64 0 0 0 0 0zm185.57 -20.14c-3.96,-2.22 -7.87,-3.88 -11.79,-4.91 -3.92,-1.08 -7.84,-1.6 -11.8,-1.6 -11.62,0 -20.54,4.44 -26.82,13.38 -6.25,8.94 -9.39,21.75 -9.39,38.38l0 78.06 -45.16 0 0 -169.5 45.16 0 0 27.85c5.81,-11.11 12.49,-19.17 19.98,-24.28 7.53,-5.12 16.58,-7.65 27.08,-7.65 1.51,0 3.14,0.05 4.91,0.21 1.76,0.15 4.35,0.52 7.71,0.98l0.12 49.08 0 0 0 0z"
   id="path2623" />
  <path
   fill="#CF8443"
   d="M4851.44 7234.2c12.66,3.93 22.34,10.8 28.94,20.51 6.58,9.77 9.9,22.11 9.9,37.15 0,22.42 -7.15,39.46 -21.45,51.14 -14.29,11.62 -35.13,17.46 -62.56,17.46 -9.69,0 -19.37,-0.93 -29.1,-2.79 -9.69,-1.86 -19.29,-4.7 -28.8,-8.42l0 -44.94c9.08,5.42 18.07,9.55 27.03,12.34 8.95,2.74 17.78,4.14 26.44,4.14 12.87,0 22.73,-2.69 29.58,-8.01 6.84,-5.37 10.28,-13.02 10.28,-23.04 0,-10.28 -3.52,-18.08 -10.54,-23.35 -7.02,-5.32 -17.39,-7.96 -31.09,-7.96l-19.42 0 0 -37.55 20.42 0c12.22,0 21.27,-2.28 27.25,-6.87 5.98,-4.6 8.95,-11.58 8.95,-20.93 0,-8.68 -2.88,-15.39 -8.69,-20.09 -5.82,-4.76 -14,-7.13 -24.59,-7.13 -7.83,0 -15.72,1.03 -23.72,3.15 -7.97,2.12 -15.89,5.27 -23.81,9.4l0 -42.67c9.6,-3.25 19.07,-5.68 28.5,-7.28 9.43,-1.61 18.65,-2.43 27.73,-2.43 24.46,0 42.8,4.8 54.94,14.46 12.14,9.61 18.21,24.13 18.21,43.5 0,13.17 -2.89,24.02 -8.7,32.44 -5.81,8.42 -14.37,14.36 -25.7,17.77l0 0 0 0z"
   id="path2625" />
  <path
   fill="#000000"
   d="M4243.69 7708.08l0 140.39 16.84 0c19.23,0 33.9,-6 44.04,-18.05 10.13,-11.99 15.22,-29.46 15.22,-52.35 0,-22.84 -5.05,-40.21 -15.14,-52.1 -10.09,-11.94 -24.81,-17.89 -44.12,-17.89l-16.84 0 0 0 0 0zm-47.04 -44.89l49.62 0c27.69,0 48.29,2.48 61.84,7.48 13.55,4.99 25.19,13.41 34.91,25.36 8.54,10.37 14.88,22.36 19.04,35.94 4.13,13.52 6.23,28.89 6.23,46.1 0,17.36 -2.1,32.83 -6.23,46.46 -4.16,13.63 -10.5,25.63 -19.04,35.99 -9.81,11.95 -21.53,20.37 -35.2,25.37 -13.68,5 -34.2,7.47 -61.55,7.47l-49.62 0 0 -230.17 0 0 0 0zm267.04 152.45c-9.13,0 -15.97,1.94 -20.6,5.84 -4.59,3.95 -6.88,9.68 -6.88,17.31 0,7 1.84,12.47 5.55,16.42 3.71,3.95 8.83,5.95 15.43,5.95 8.25,0 15.13,-3.74 20.76,-11.21 5.63,-7.42 8.42,-16.79 8.42,-28l0 -6.31 -22.68 0zm66.8 -20.84l0 98.56 -44.12 0 0 -25.57c-5.88,10.47 -12.46,18.1 -19.76,22.89 -7.34,4.78 -16.26,7.15 -26.77,7.15 -14.18,0 -25.64,-5.21 -34.49,-15.63 -8.84,-10.47 -13.25,-23.99 -13.25,-40.67 0,-20.21 5.5,-35.1 16.55,-44.52 11.05,-9.47 28.35,-14.21 51.95,-14.21l25.77 0 0 -4.31c0,-8.74 -2.71,-15.11 -8.17,-19.16 -5.46,-4.05 -13.97,-6.1 -25.51,-6.1 -9.39,0 -18.1,1.16 -26.15,3.52 -8.05,2.37 -15.56,5.95 -22.48,10.69l0 -42.1c9.38,-2.9 18.77,-5.05 28.23,-6.58 9.43,-1.47 18.89,-2.21 28.31,-2.21 24.69,0 42.5,6.16 53.46,18.42 10.96,12.26 16.43,32.2 16.43,59.83l0 0 0 0zm88.49 -123.14l0 49.05 45.07 0 0 39.46 -45.07 0 0 73.2c0,8.05 1.25,13.47 3.79,16.26 2.5,2.84 7.51,4.26 15.02,4.26l22.47 0 0 39.47 -37.49 0c-17.26,0 -29.52,-4.53 -36.74,-13.63 -7.21,-9.1 -10.79,-24.57 -10.79,-46.36l0 -73.2 -21.73 0 0 -39.46 21.73 0 0 -49.05 43.74 0 0 0 0 0zm133.14 143.98c-9.13,0 -15.97,1.94 -20.6,5.84 -4.59,3.95 -6.88,9.68 -6.88,17.31 0,7 1.84,12.47 5.55,16.42 3.71,3.95 8.83,5.95 15.43,5.95 8.25,0 15.13,-3.74 20.76,-11.21 5.63,-7.42 8.42,-16.79 8.42,-28l0 -6.31 -22.68 0zm66.8 -20.84l0 98.56 -44.12 0 0 -25.57c-5.88,10.47 -12.46,18.1 -19.76,22.89 -7.34,4.78 -16.26,7.15 -26.77,7.15 -14.18,0 -25.64,-5.21 -34.49,-15.63 -8.84,-10.47 -13.25,-23.99 -13.25,-40.67 0,-20.21 5.5,-35.1 16.55,-44.52 11.05,-9.47 28.35,-14.21 51.95,-14.21l25.77 0 0 -4.31c0,-8.74 -2.71,-15.11 -8.17,-19.16 -5.46,-4.05 -13.97,-6.1 -25.51,-6.1 -9.39,0 -18.1,1.16 -26.15,3.52 -8.05,2.37 -15.56,5.95 -22.48,10.69l0 -42.1c9.39,-2.9 18.77,-5.05 28.23,-6.58 9.43,-1.47 18.89,-2.21 28.31,-2.21 24.69,0 42.5,6.16 53.46,18.42 10.97,12.26 16.43,32.2 16.43,59.83l0 0 0 0zm256.7 -124.35l0 48.68c-10,-5.63 -19.81,-9.89 -29.31,-12.79 -9.55,-2.89 -18.55,-4.31 -27.03,-4.31 -11.21,0 -19.55,1.94 -24.92,5.84 -5.39,3.95 -8.06,10 -8.06,18.21 0,6.15 1.79,10.99 5.42,14.41 3.63,3.42 10.22,6.42 19.77,8.9l20.01 5.05c20.31,5.16 34.7,12.94 43.25,23.47 8.55,10.47 12.84,25.36 12.84,44.67 0,25.42 -5.97,44.31 -17.89,56.68 -11.93,12.36 -30.15,18.57 -54.66,18.57 -11.6,0 -23.19,-1.37 -34.82,-4.15 -11.63,-2.79 -23.31,-6.9 -34.95,-12.32l0 -50.09c11.64,7.78 22.9,13.68 33.78,17.62 10.88,3.95 21.35,5.95 31.44,5.95 10.25,0 18.14,-2.16 23.6,-6.47 5.46,-4.32 8.17,-10.47 8.17,-18.52 0,-7.16 -1.83,-12.74 -5.54,-16.63 -3.71,-3.9 -11.1,-7.42 -22.19,-10.47l-18.22 -5.11c-18.22,-4.95 -31.57,-12.79 -39.99,-23.57 -8.42,-10.79 -12.63,-25.37 -12.63,-43.63 0,-22.94 5.88,-40.57 17.6,-52.88 11.71,-12.37 28.56,-18.52 50.58,-18.52 10.01,0 20.3,0.94 30.89,2.84 10.59,1.89 21.56,4.73 32.86,8.57l0 0 0 0zm99.08 1.21l0 49.05 45.07 0 0 39.46 -45.07 0 0 73.2c0,8.05 1.24,13.47 3.79,16.26 2.5,2.84 7.51,4.26 15.01,4.26l22.48 0 0 39.47 -37.49 0c-17.26,0 -29.52,-4.53 -36.74,-13.63 -7.21,-9.1 -10.79,-24.57 -10.79,-46.36l0 -73.2 -21.73 0 0 -39.46 21.73 0 0 -49.05 43.74 0 0 0 0 0zm136.89 84.36c-9.67,0 -17.05,4.37 -22.14,13.15 -5.09,8.79 -7.63,21.47 -7.63,38 0,16.57 2.54,29.25 7.63,38.04 5.09,8.79 12.47,13.16 22.14,13.16 9.55,0 16.81,-4.37 21.85,-13.16 5.04,-8.79 7.59,-21.47 7.59,-38.04 0,-16.53 -2.55,-29.21 -7.59,-38 -5.04,-8.78 -12.3,-13.15 -21.85,-13.15zm0 -39.47c23.56,0 41.95,8 55.17,24.05 13.21,16.05 19.85,38.2 19.85,66.57 0,28.41 -6.64,50.57 -19.85,66.61 -13.22,16.05 -31.61,24.05 -55.17,24.05 -23.6,0 -42.07,-8 -55.37,-24.05 -13.3,-16.04 -19.97,-38.2 -19.97,-66.61 0,-28.37 6.67,-50.52 19.97,-66.57 13.3,-16.05 31.77,-24.05 55.37,-24.05zm208.45 51.2c-3.83,-2.26 -7.63,-3.94 -11.42,-5 -3.79,-1.1 -7.59,-1.63 -11.42,-1.63 -11.26,0 -19.89,4.53 -25.99,13.63 -6.04,9.1 -9.09,22.15 -9.09,39.1l0 79.51 -43.74 0 0 -172.65 43.74 0 0 28.36c5.64,-11.31 12.1,-19.52 19.36,-24.73 7.29,-5.21 16.05,-7.79 26.22,-7.79 1.46,0 3.05,0.05 4.76,0.21 1.7,0.16 4.21,0.53 7.46,1l0.12 49.99 0 0 0 0zm83.07 47.89c-9.14,0 -15.97,1.94 -20.6,5.84 -4.59,3.95 -6.88,9.68 -6.88,17.31 0,7 1.84,12.47 5.55,16.42 3.71,3.95 8.83,5.95 15.42,5.95 8.26,0 15.14,-3.74 20.77,-11.21 5.63,-7.42 8.42,-16.79 8.42,-28l0 -6.31 -22.68 0zm66.8 -20.84l0 98.56 -44.12 0 0 -25.57c-5.88,10.47 -12.47,18.1 -19.76,22.89 -7.34,4.78 -16.26,7.15 -26.77,7.15 -14.18,0 -25.64,-5.21 -34.49,-15.63 -8.84,-10.47 -13.25,-23.99 -13.25,-40.67 0,-20.21 5.5,-35.1 16.55,-44.52 11.05,-9.47 28.35,-14.21 51.95,-14.21l25.77 0 0 -4.31c0,-8.74 -2.71,-15.11 -8.17,-19.16 -5.46,-4.05 -13.97,-6.1 -25.52,-6.1 -9.38,0 -18.09,1.16 -26.15,3.52 -8.04,2.37 -15.55,5.95 -22.47,10.69l0 -42.1c9.38,-2.9 18.77,-5.05 28.23,-6.58 9.43,-1.47 18.89,-2.21 28.31,-2.21 24.69,0 42.5,6.16 53.46,18.42 10.96,12.26 16.43,32.2 16.43,59.83l0 0 0 0zm133.77 69.25c-6,10.1 -12.67,17.47 -19.89,22.21 -7.25,4.73 -15.64,7.1 -25.18,7.1 -16.68,0 -30.49,-8.31 -41.41,-24.89 -10.89,-16.63 -16.35,-37.78 -16.35,-63.46 0,-25.79 5.46,-46.94 16.35,-63.46 10.92,-16.47 24.73,-24.74 41.41,-24.74 9.54,0 17.93,2.37 25.18,7.11 7.22,4.73 13.89,12.15 19.89,22.36l0 -25.57 43.99 0 0 155.23c0,27.73 -6.92,48.94 -20.81,63.57 -13.88,14.68 -34.02,22 -60.42,22 -8.55,0 -16.8,-0.85 -24.81,-2.48 -7.96,-1.63 -16,-4.16 -24.06,-7.52l0 -42.99c7.68,5.52 15.14,9.68 22.48,12.36 7.34,2.74 14.68,4.11 22.1,4.11 14.34,0 24.85,-3.95 31.52,-11.9 6.67,-7.89 10.01,-20.31 10.01,-37.15l0 -11.89 0 0 0 0zm-28.81 -107.45c-9.05,0 -16.06,4.21 -21.11,12.63 -5.04,8.41 -7.58,20.36 -7.58,35.78 0,15.84 2.46,27.84 7.34,35.99 4.88,8.16 12,12.26 21.35,12.26 9.13,0 16.18,-4.21 21.22,-12.63 5.04,-8.42 7.59,-20.31 7.59,-35.62 0,-15.42 -2.55,-27.37 -7.59,-35.78 -5.04,-8.42 -12.09,-12.63 -21.22,-12.63l0 0 0 0zm251.4 49.99l0 15.73 -102.25 0c1.04,12.95 4.76,22.63 11.14,29.1 6.33,6.47 15.22,9.74 26.6,9.74 9.21,0 18.63,-1.74 28.31,-5.16 9.64,-3.47 19.56,-8.68 29.73,-15.68l0 42.57c-10.34,4.94 -20.68,8.63 -31.02,11.15 -10.34,2.53 -20.68,3.79 -31.03,3.79 -24.77,0 -43.99,-7.94 -57.71,-23.83 -13.71,-15.84 -20.59,-38.16 -20.59,-66.83 0,-28.16 6.75,-50.26 20.22,-66.41 13.46,-16.16 32.02,-24.21 55.63,-24.21 21.51,0 38.69,8.16 51.62,24.52 12.88,16.37 19.35,38.21 19.35,65.52l0 0 0 0zm-44.96 -18.32c0,-10.52 -2.41,-18.94 -7.26,-25.41 -4.87,-6.42 -11.17,-9.63 -19.01,-9.63 -8.46,0 -15.34,3 -20.64,9.05 -5.29,6 -8.59,14.68 -9.88,25.99l56.79 0 0 0 0 0z"
   id="path2627" />
  <path
   fill="#CF8443"
   d="M5184.06 7586.17l-19.77 25.21c-9.68,-4.73 -18.97,-11.24 -27.9,-19.53 -6.9,6.19 -14.2,10.79 -21.98,13.73 -7.74,2.94 -16.95,4.41 -27.67,4.41 -21.23,0 -37.18,-5.96 -47.9,-17.9 -8.29,-9.21 -12.42,-19.85 -12.42,-31.87 0,-10.92 3.25,-20.76 9.76,-29.45 6.51,-8.73 16.23,-16.31 29.17,-22.74 -5.79,-6.91 -10.2,-13.5 -13.13,-19.73 -2.94,-6.23 -4.41,-12.14 -4.41,-17.74 0,-10.28 4.13,-19.05 12.38,-26.19 8.26,-7.19 20.01,-10.76 35.29,-10.76 14.72,0 26.23,3.77 34.52,11.27 8.3,7.5 12.47,16.71 12.47,27.55 0,6.9 -2.07,13.45 -6.19,19.64 -4.09,6.23 -12.39,13.22 -24.89,21.08l23.73 31.27c2.78,-4.96 5.2,-11.43 7.23,-19.41l29.53 6.71c-2.94,10.48 -5.52,18.14 -7.7,22.98 -2.15,4.84 -4.49,8.89 -6.95,12.15 3.61,3.41 8.34,7.14 14.13,11.23 5.75,4.08 10,6.74 12.7,8.09l0 0 0 0zm-88.94 -92.67l8.85 -6.75c6.51,-5.04 9.76,-10.04 9.76,-15 0,-4.21 -1.59,-7.78 -4.72,-10.71 -3.14,-2.94 -7.38,-4.41 -12.74,-4.41 -5.16,0 -9.25,1.31 -12.19,3.89 -2.93,2.58 -4.44,5.6 -4.44,9.01 0,4.05 2.5,8.93 7.46,14.64l8.02 9.33 0 0 0 0zm-12.78 35.44c-7.54,3.81 -13.14,8.38 -16.87,13.73 -3.73,5.36 -5.6,10.8 -5.6,16.4 0,7.06 2.35,12.82 6.95,17.26 4.6,4.45 10.8,6.67 18.53,6.67 5.12,0 10.05,-0.99 14.77,-3.02 4.72,-1.98 9.88,-5.32 15.48,-10l-33.26 -41.04 0 0 0 0z"
   id="path2629" />
  <g
   id="g2631">
   <path
   fill="#CF8443"
   d="M3453.87 13711.5l83.7 0 0 37.49 -138.24 0 0 -37.49 69.45 -63.71c6.22,-5.84 10.78,-11.53 13.75,-17.1 3,-5.56 4.47,-11.35 4.47,-17.36 0,-9.27 -3,-16.73 -9,-22.38 -5.96,-5.66 -13.92,-8.46 -23.87,-8.46 -7.66,0 -16,1.72 -25.1,5.11 -9.09,3.39 -18.83,8.46 -29.18,15.15l0 -43.46c11.05,-3.8 21.97,-6.69 32.75,-8.68 10.79,-1.99 21.35,-2.98 31.74,-2.98 22.74,0 40.45,5.2 53.05,15.64 12.62,10.4 18.92,24.92 18.92,43.59 0,10.77 -2.69,20.8 -8.04,30.12 -5.36,9.32 -16.62,21.8 -33.74,37.44l-40.66 37.08zm226.38 -61.59c0,-24.73 -2.22,-42.14 -6.7,-52.27 -4.44,-10.09 -11.96,-15.15 -22.49,-15.15 -10.52,0 -18.04,5.06 -22.56,15.15 -4.48,10.13 -6.74,27.54 -6.74,52.27 0,24.96 2.26,42.6 6.74,52.82 4.52,10.26 12.04,15.37 22.56,15.37 10.45,0 17.93,-5.11 22.45,-15.37 4.48,-10.22 6.74,-27.86 6.74,-52.82zm49.05 0.36c0,32.79 -6.79,58.07 -20.39,75.88 -13.57,17.78 -32.88,26.68 -57.85,26.68 -25.04,0 -44.4,-8.9 -57.95,-26.68 -13.62,-17.81 -20.4,-43.09 -20.4,-75.88 0,-32.82 6.78,-58.15 20.4,-75.96 13.55,-17.78 32.91,-26.68 57.95,-26.68 24.97,0 44.28,8.9 57.85,26.68 13.6,17.81 20.39,43.14 20.39,75.96zm699.21 1.36l80.01 0 0 38.57 -80.01 0 0 -38.57z"
   id="path2633" />
   <path
   fill="#000000"
   d="M4066.51 13734.3c-12.23,6.2 -24.92,10.81 -38.09,13.93 -13.18,3.08 -26.75,4.61 -40.8,4.61 -31.66,0 -56.74,-9.22 -75.27,-27.63 -18.53,-18.4 -27.79,-43.36 -27.79,-74.93 0,-31.88 9.44,-56.93 28.27,-75.24 18.87,-18.27 44.7,-27.4 77.49,-27.4 12.65,0 24.79,1.22 36.39,3.7 11.57,2.49 22.53,6.15 32.8,10.99l0 40.93c-10.61,-6.29 -21.18,-10.95 -31.66,-14.02 -10.48,-3.12 -21,-4.66 -31.52,-4.66 -19.57,0 -34.62,5.7 -45.19,17.05 -10.57,11.35 -15.87,27.58 -15.87,48.65 0,20.94 5.09,37.13 15.3,48.53 10.18,11.39 24.66,17.09 43.45,17.09 5.08,0 9.83,-0.32 14.22,-1 4.39,-0.67 8.3,-1.71 11.78,-3.12l0 -38.43 -29.92 0 0 -34.19 76.41 0 0 95.14zm119.37 -106.53c7.74,0 13.61,-1.77 17.57,-5.3 4,-3.52 6,-8.72 6,-15.64 0,-6.78 -2,-11.94 -6,-15.51 -3.96,-3.57 -9.83,-5.38 -17.57,-5.38l-27.14 0 0 41.83 27.14 0zm1.65 86.5c9.87,0 17.26,-2.17 22.26,-6.47 4.96,-4.34 7.45,-10.89 7.45,-19.62 0,-8.55 -2.49,-14.97 -7.4,-19.26 -4.91,-4.3 -12.35,-6.43 -22.31,-6.43l-28.79 0 0 51.78 28.79 0zm45.62 -71.13c10.52,3.17 18.7,9.04 24.47,17.64 5.79,8.54 8.66,19.08 8.66,31.51 0,19.09 -6.21,33.29 -18.61,42.65 -12.39,9.36 -31.26,14.06 -56.57,14.06l-81.41 0 0 -197.79 73.62 0c26.44,0 45.57,4.16 57.4,12.43 11.88,8.32 17.79,21.62 17.79,39.89 0,9.63 -2.17,17.81 -6.48,24.6 -4.35,6.73 -10.61,11.75 -18.87,15.01zm443.25 -91.93l49.05 0 0 118.56c0,16.33 2.57,28.04 7.7,35.05 5.13,7.01 13.52,10.54 25.18,10.54 11.74,0 20.17,-3.53 25.31,-10.54 5.12,-7.01 7.69,-18.72 7.69,-35.05l0 -118.56 49.05 0 0 118.56c0,28 -6.74,48.84 -20.26,62.54 -13.48,13.71 -34.09,20.53 -61.79,20.53 -27.61,0 -48.18,-6.82 -61.66,-20.53 -13.52,-13.7 -20.27,-34.54 -20.27,-62.54l0 -118.56zm344.24 6.24l0 41.83c-10.45,-4.84 -20.66,-8.5 -30.57,-10.99 -9.97,-2.49 -19.36,-3.71 -28.19,-3.71 -11.69,0 -20.39,1.67 -26,5.02 -5.61,3.39 -8.4,8.59 -8.4,15.65 0,5.29 1.88,9.45 5.66,12.39 3.78,2.94 10.65,5.51 20.61,7.64l20.87 4.34c21.19,4.43 36.19,11.12 45.1,20.17 8.92,9 13.39,21.79 13.39,38.39 0,21.84 -6.21,38.07 -18.66,48.7 -12.43,10.63 -31.43,15.96 -57,15.96 -12.09,0 -24.18,-1.17 -36.32,-3.57 -12.12,-2.4 -24.31,-5.92 -36.43,-10.58l0 -43.05c12.12,6.69 23.87,11.76 35.22,15.15 11.35,3.39 22.27,5.11 32.79,5.11 10.7,0 18.91,-1.86 24.61,-5.56 5.7,-3.71 8.52,-9 8.52,-15.92 0,-6.15 -1.91,-10.94 -5.78,-14.29 -3.87,-3.35 -11.56,-6.38 -23.13,-9l-19.01 -4.39c-19,-4.25 -32.91,-10.98 -41.7,-20.25 -8.78,-9.27 -13.18,-21.8 -13.18,-37.49 0,-19.72 6.14,-34.87 18.35,-45.45 12.22,-10.62 29.79,-15.91 52.75,-15.91 10.44,0 21.18,0.81 32.22,2.44 11.05,1.63 22.49,4.07 34.28,7.37zm131.71 70.32c7.74,0 13.62,-1.77 17.57,-5.3 4,-3.52 6,-8.72 6,-15.64 0,-6.78 -2,-11.94 -6,-15.51 -3.95,-3.57 -9.83,-5.38 -17.57,-5.38l-27.13 0 0 41.83 27.13 0zm1.66 86.5c9.86,0 17.26,-2.17 22.26,-6.47 4.96,-4.34 7.44,-10.89 7.44,-19.62 0,-8.55 -2.48,-14.97 -7.39,-19.26 -4.92,-4.3 -12.35,-6.43 -22.31,-6.43l-28.79 0 0 51.78 28.79 0zm45.62 -71.13c10.52,3.17 18.69,9.04 24.47,17.64 5.79,8.54 8.66,19.08 8.66,31.51 0,19.09 -6.22,33.29 -18.61,42.65 -12.4,9.36 -31.26,14.06 -56.57,14.06l-81.41 0 0 -197.79 73.62 0c26.44,0 45.57,4.16 57.4,12.43 11.87,8.32 17.79,21.62 17.79,39.89 0,9.63 -2.18,17.81 -6.48,24.6 -4.35,6.73 -10.61,11.75 -18.87,15.01zm166.24 -91.93l49.04 0 0 75.38 72.37 0 0 -75.38 49.05 0 0 197.79 -49.05 0 0 -83.84 -72.37 0 0 83.84 -49.04 0 0 -197.79zm280.26 131c-9.52,0 -16.65,1.67 -21.48,5.02 -4.78,3.39 -7.18,8.32 -7.18,14.88 0,6.01 1.92,10.71 5.78,14.11 3.88,3.39 9.23,5.11 16.1,5.11 8.61,0 15.78,-3.22 21.65,-9.64 5.87,-6.37 8.79,-14.42 8.79,-24.05l0 -5.43 -23.66 0zm69.66 -17.91l0 84.7 -46 0 0 -21.98c-6.14,9 -13,15.56 -20.62,19.67 -7.64,4.12 -16.95,6.15 -27.92,6.15 -14.78,0 -26.74,-4.47 -35.95,-13.43 -9.22,-9 -13.83,-20.62 -13.83,-34.95 0,-17.37 5.74,-30.16 17.26,-38.26 11.52,-8.14 29.57,-12.21 54.18,-12.21l26.88 0 0 -3.71c0,-7.5 -2.83,-12.97 -8.52,-16.46 -5.7,-3.48 -14.57,-5.24 -26.62,-5.24 -9.78,0 -18.87,0.99 -27.26,3.03 -8.4,2.03 -16.23,5.11 -23.45,9.18l0 -36.18c9.79,-2.48 19.57,-4.34 29.45,-5.65 9.83,-1.27 19.69,-1.9 29.52,-1.9 25.74,0 44.31,5.29 55.76,15.83 11.43,10.53 17.12,27.67 17.12,51.41zm148.47 -23.24c-4,-1.94 -7.96,-3.39 -11.91,-4.3 -3.96,-0.95 -7.92,-1.4 -11.92,-1.4 -11.74,0 -20.74,3.89 -27.1,11.71 -6.29,7.83 -9.47,19.04 -9.47,33.6l0 68.33 -45.62 0 0 -148.37 45.62 0 0 24.38c5.87,-9.73 12.61,-16.78 20.18,-21.26 7.6,-4.47 16.74,-6.69 27.35,-6.69 1.52,0 3.17,0.05 4.96,0.18 1.78,0.14 4.38,0.45 7.78,0.86l0.13 42.96zm119.72 -18.68l0 -79.54 45.88 0 0 206.16 -45.88 0 0 -21.48c-6.26,8.77 -13.21,15.15 -20.74,19.22 -7.57,4.07 -16.31,6.1 -26.27,6.1 -17.57,0 -32,-7.28 -43.26,-21.79 -11.31,-14.52 -16.96,-33.24 -16.96,-56.12 0,-22.84 5.65,-41.56 16.96,-56.07 11.26,-14.52 25.69,-21.8 43.26,-21.8 9.87,0 18.57,2.04 26.18,6.15 7.62,4.12 14.57,10.49 20.83,19.17zm-30.05 96.01c9.79,0 17.22,-3.71 22.36,-11.13 5.12,-7.41 7.69,-18.18 7.69,-32.33 0,-14.11 -2.57,-24.87 -7.69,-32.29 -5.14,-7.41 -12.57,-11.12 -22.36,-11.12 -9.65,0 -17.09,3.71 -22.22,11.12 -5.13,7.42 -7.7,18.18 -7.7,32.29 0,14.15 2.57,24.92 7.7,32.33 5.13,7.42 12.57,11.13 22.22,11.13zm300.64 -128.61l0 120.65 17.57 0c20.05,0 35.36,-5.16 45.93,-15.51 10.55,-10.31 15.86,-25.33 15.86,-45 0,-19.62 -5.26,-34.55 -15.78,-44.76 -10.53,-10.27 -25.88,-15.38 -46.01,-15.38l-17.57 0zm-49.05 -38.57l51.75 0c28.87,0 50.35,2.12 64.49,6.42 14.13,4.29 26.26,11.53 36.4,21.79 8.91,8.91 15.52,19.22 19.86,30.89 4.31,11.62 6.49,24.83 6.49,39.61 0,14.93 -2.18,28.22 -6.49,39.93 -4.34,11.71 -10.95,22.02 -19.86,30.93 -10.23,10.27 -22.45,17.5 -36.71,21.8 -14.26,4.29 -35.66,6.42 -64.18,6.42l-51.75 0 0 -197.79zm214.52 49.42l45.62 0 0 148.37 -45.62 0 0 -148.37zm0 -57.79l45.62 0 0 38.71 -45.62 0 0 -38.71zm200.95 62.41l0 36.04c-9.78,-4.25 -19.18,-7.42 -28.27,-9.55 -9.08,-2.12 -17.69,-3.16 -25.74,-3.16 -8.66,0 -15.09,1.13 -19.31,3.39 -4.21,2.22 -6.3,5.7 -6.3,10.4 0,3.8 1.61,6.69 4.78,8.73 3.17,2.03 8.91,3.53 17.14,4.48l8.04 1.22c23.35,3.07 39.05,8.14 47.14,15.24 8.05,7.05 12.08,18.13 12.08,33.23 0,15.83 -5.6,27.72 -16.82,35.64 -11.22,7.95 -27.92,11.93 -50.18,11.93 -9.44,0 -19.18,-0.77 -29.27,-2.3 -10.05,-1.54 -20.39,-3.89 -31.01,-6.97l0 -36.04c9.1,4.62 18.4,8.05 27.96,10.36 9.57,2.3 19.27,3.44 29.14,3.44 8.92,0 15.61,-1.27 20.14,-3.85 4.47,-2.58 6.73,-6.37 6.73,-11.39 0,-4.25 -1.56,-7.42 -4.64,-9.5 -3.09,-2.08 -9.27,-3.66 -18.53,-4.84l-8.04 -1.04c-20.31,-2.67 -34.54,-7.55 -42.71,-14.7 -8.14,-7.14 -12.22,-18.04 -12.22,-32.6 0,-15.69 5.17,-27.36 15.53,-34.95 10.38,-7.6 26.26,-11.4 47.66,-11.4 8.43,0 17.26,0.68 26.52,1.99 9.26,1.31 19.31,3.39 30.18,6.2zm43.79 -62.41l45.62 0 0 112.24 52.49 -54.45 53 0 -69.71 68.1 75.19 80.27 -55.31 0 -55.66 -61.86 0 61.86 -45.62 0 0 -206.16z"
   id="path2635" />
  </g>
  <g
   id="g2637">
   <path
   fill="#000000"
   d="M3466.47 2375.32c-6.91,42.02 -19.92,73.18 -38.97,93.41 -19.05,20.23 -45.12,30.34 -78.22,30.34 -12.14,0 -23.11,-0.58 -32.88,-1.81 -9.75,-1.15 -18.46,-2.88 -26.18,-5.18l12.07 -74.17 6.16 0c4.88,2.72 10.05,5.35 15.56,7.98 5.46,2.55 12.84,3.86 22.02,3.86 17.36,0 30.31,-5.92 38.96,-17.59 8.6,-11.76 15.63,-34.54 21.08,-68.41l23.35 -142.91 -57.9 0 10.75 -65.95 123.52 0 -39.32 240.43zm273.42 -152.28l-44.26 270.52 -61.56 0 4.94 -29.85c-6.15,5.59 -12.14,10.86 -17.95,15.79 -5.86,4.85 -11.38,8.8 -16.6,11.68 -6.57,3.86 -12.61,6.41 -18.01,7.81 -5.46,1.39 -10.86,2.05 -16.2,2.05 -16.79,0 -30.02,-5.75 -39.73,-17.1 -9.7,-11.43 -14.51,-28.29 -14.51,-50.57 0,-6.17 0.23,-11.76 0.63,-17.02 0.47,-5.18 1.23,-10.94 2.27,-17.18l28.75 -176.13 61.9 0 -21.95 134.19c-1.68,10.28 -2.96,19.08 -3.83,26.48 -0.82,7.4 -1.28,13.65 -1.28,18.83 0,10.52 1.81,18.25 5.46,22.94 3.6,4.77 10.51,7.15 20.56,7.15 4.99,0 10.74,-1.56 17.31,-4.6 6.5,-3.05 13.59,-7.49 21.19,-13.24l31.31 -191.75 61.56 0zm218.41 270.52l-64.47 0 -37.56 -119.47 -27.07 34.2 -14.11 85.27 -61.62 0 61.1 -374.86 61.56 0 -36.42 223.81 85.43 -119.47 70.62 0 -88.45 117.83 50.99 152.69zm183.41 -170.04c0.34,-2.96 0.63,-5.59 0.74,-7.98 0.18,-2.38 0.3,-4.93 0.3,-7.48 0,-12.66 -2.79,-22.36 -8.36,-29.11 -5.53,-6.74 -13.53,-10.11 -23.99,-10.11 -12.6,0 -23.17,4.77 -31.71,14.39 -8.6,9.7 -15.04,23.1 -19.51,40.29l82.53 0zm-46.76 177.28c-32.57,0 -57.73,-10.2 -75.38,-30.59 -17.71,-20.39 -26.54,-48.6 -26.54,-84.61 0,-24.5 2.91,-47.12 8.65,-67.67 5.81,-20.56 14.12,-38.57 25.03,-54.19 10.46,-15.13 23.47,-27.05 39.15,-35.85 15.62,-8.88 32.81,-13.32 51.51,-13.32 28.52,0 49.94,8.22 64.4,24.5 14.46,16.28 21.72,40.29 21.72,72.11 0,10.94 -0.75,21.63 -2.32,32.07 -1.51,10.45 -3.54,20.81 -6.04,31.08l-141.87 0c0,0.99 0,1.89 0,2.72 0,0.9 0,1.81 0,2.79 0,18.83 4.64,33.47 13.93,44.08 9.3,10.6 23.52,15.95 42.69,15.95 13.41,0 26.08,-3.21 38.03,-9.71 11.97,-6.41 22.36,-13.56 31.25,-21.37l6.79 0 -11.38 69.56c-11.9,7.4 -24.45,12.99 -37.63,16.77 -13.13,3.78 -27.18,5.68 -41.99,5.68zm349.26 -191.26c0,24.59 -2.79,48.43 -8.42,71.54 -5.64,23.1 -13.3,43.25 -23.06,60.43 -9.99,17.52 -21.66,31.49 -35.08,41.77 -13.35,10.36 -28.16,15.54 -44.37,15.54 -10.68,0 -20.2,-1.48 -28.68,-4.52 -8.42,-3.04 -15.97,-7.81 -22.53,-14.22l-4.6 13.48 -59.06 0 61.1 -374.86 61.61 0 -21.66 132.54c11.03,-10.77 21.5,-19.4 31.43,-25.9 9.93,-6.49 21.01,-9.78 33.27,-9.78 19.75,0 34.67,8.3 44.83,24.91 10.11,16.69 15.22,39.63 15.22,69.07zm-64.81 16.12c0,-15.13 -2.33,-26.56 -6.97,-34.46 -4.71,-7.89 -12.72,-11.84 -24.16,-11.84 -6.04,0 -11.96,1.57 -17.71,4.53 -5.81,2.96 -11.91,6.82 -18.41,11.67l-22.07 135.84c3.95,2.22 8.13,4.03 12.54,5.42 4.48,1.4 9.41,2.06 14.99,2.06 18.93,0 33.97,-10.52 45.12,-31.66 11.09,-21.13 16.67,-48.34 16.67,-81.56zm302.97 -3.62c0,25.41 -3.02,49.17 -9,71.29 -6.04,22.2 -14.47,41.19 -25.39,57.14 -11.32,16.53 -24.5,29.28 -39.43,38.16 -14.98,8.88 -32.46,13.4 -52.44,13.4 -28.46,0 -50.29,-9.7 -65.5,-28.94 -15.16,-19.24 -22.77,-45.97 -22.77,-80.01 0,-24.09 2.85,-46.95 8.48,-68.66 5.69,-21.62 14.06,-40.78 25.2,-57.31 10.74,-16.2 23.99,-29.02 39.73,-38.4 15.68,-9.37 33.33,-14.14 52.84,-14.14 28.57,0 50.41,9.54 65.57,28.61 15.16,19 22.71,45.31 22.71,78.86zm-79.62 88.64c5.22,-11.27 9.17,-23.52 11.85,-36.84 2.67,-13.32 4,-29.52 4,-48.68 0,-16.52 -2.55,-29.27 -7.66,-38.15 -5.11,-8.96 -13.24,-13.4 -24.34,-13.4 -8.65,0 -16.2,2.96 -22.71,8.96 -6.56,5.92 -12.31,14.31 -17.3,25.24 -4.65,10.12 -8.31,22.7 -10.98,37.58 -2.67,14.97 -4,30.26 -4,46.05 0,18.41 2.9,31.65 8.71,39.63 5.75,7.89 13.7,11.92 23.81,11.92 7.37,0 14.46,-2.88 21.26,-8.55 6.79,-5.76 12.6,-13.65 17.36,-23.76zm172.82 -54.68l-53.72 -132.96 65.98 0 30.49 82.39 54.93 -82.39 70.8 0 -97.85 135.59 54.46 134.93 -66.03 0 -30.77 -83.38 -56.86 83.38 -70.62 0 99.19 -137.56z"
   id="path2639" />
   <path
   fill="#CF8443"
   d="M5149.4 2500.06c-21.67,0 -40.95,-2.64 -57.9,-7.98 -16.96,-5.26 -31.65,-11.84 -43.96,-19.73l13.06 -86.01 7.14 0c11.68,15.13 25.44,26.8 41.18,35.11 15.79,8.22 32.75,12.33 50.87,12.33 18.59,0 32.29,-3.53 41,-10.69 8.77,-7.15 13.13,-17.35 13.13,-30.67 0,-5.01 -0.7,-9.29 -2.15,-12.91 -1.39,-3.61 -4.18,-7.23 -8.25,-10.77 -4.06,-3.53 -9.64,-6.99 -16.78,-10.44 -7.09,-3.45 -16.2,-7.4 -27.47,-11.92 -12.37,-4.85 -23.41,-10.03 -33.22,-15.63 -9.81,-5.67 -18.18,-12.33 -25.15,-20.06 -6.9,-7.81 -12.13,-16.94 -15.73,-27.21 -3.55,-10.28 -5.35,-22.53 -5.35,-36.84 0,-35.93 11.21,-64.71 33.63,-86.09 22.41,-21.46 53.02,-32.15 91.93,-32.15 18.76,0 36.41,2.14 53.02,6.49 16.61,4.28 30.72,10.2 42.28,17.6l-12.43 82.55 -6.97 0c-8.83,-11.51 -20.5,-21.21 -34.96,-29.02 -14.46,-7.73 -30.26,-11.68 -47.38,-11.68 -16.79,0 -29.8,3.46 -38.98,10.36 -9.17,6.91 -13.76,16.45 -13.76,28.7 0,5.59 0.64,10.28 2.03,13.98 1.34,3.7 4.13,7.32 8.31,10.85 3.66,3.21 9.4,6.66 17.19,10.44 7.84,3.79 17.01,7.65 27.59,11.68 28.33,10.77 48.6,23.35 60.74,37.82 12.14,14.48 18.18,34.05 18.18,58.79 0,20.73 -3.25,38.98 -9.88,54.68 -6.56,15.71 -15.61,28.54 -27.18,38.32 -12.13,10.44 -25.95,18.09 -41.34,22.86 -15.45,4.85 -32.93,7.24 -52.44,7.24zm224.63 -1.24c-21.2,0 -36.35,-4.93 -45.41,-14.8 -9.12,-9.87 -13.65,-24.5 -13.65,-43.91 0,-5.18 0.29,-10.11 0.87,-14.96 0.58,-4.85 1.28,-10.44 2.21,-16.86l20.73 -128.19 -25.14 0 9.34 -57.06 25.21 0 12.54 -77.29 61.45 0 -12.61 77.29 57.49 0 -9.34 57.06 -57.5 0 -15.79 97.6c-1.17,6.75 -2.21,13.49 -3.26,20.31 -1.04,6.83 -1.5,12.67 -1.5,17.52 0,9.62 1.85,16.36 5.68,20.06 3.78,3.78 9.64,5.67 17.6,5.67 3.19,0 7.32,-0.82 12.49,-2.54 5.16,-1.65 9.29,-3.54 12.37,-5.6l5.11 0 -9.53 58.06c-6.97,2.38 -14.22,4.27 -21.89,5.67 -7.67,1.31 -16.84,1.97 -27.47,1.97zm320.17 -275.78l-44.26 270.52 -61.56 0 4.94 -29.85c-6.15,5.59 -12.14,10.86 -17.95,15.79 -5.86,4.85 -11.38,8.8 -16.6,11.68 -6.57,3.86 -12.61,6.41 -18.01,7.81 -5.46,1.39 -10.86,2.05 -16.2,2.05 -16.79,0 -30.02,-5.75 -39.73,-17.1 -9.7,-11.43 -14.51,-28.29 -14.51,-50.57 0,-6.17 0.23,-11.76 0.63,-17.02 0.47,-5.18 1.23,-10.94 2.27,-17.18l28.75 -176.13 61.9 0 -21.95 134.19c-1.68,10.28 -2.96,19.08 -3.83,26.48 -0.82,7.4 -1.28,13.65 -1.28,18.83 0,10.52 1.81,18.25 5.46,22.94 3.6,4.77 10.51,7.15 20.56,7.15 4.99,0 10.74,-1.56 17.31,-4.6 6.5,-3.05 13.59,-7.49 21.19,-13.24l31.31 -191.75 61.56 0zm260.81 -104.34l-61.27 374.86 -61.56 0 4.59 -28.2c-5.93,5.34 -11.1,10.11 -15.57,14.39 -4.47,4.19 -9.46,8.14 -14.92,11.67 -5.05,3.21 -10.11,5.59 -15.05,7.24 -4.93,1.56 -10.85,2.38 -17.77,2.38 -18.46,0 -33.27,-8.55 -44.3,-25.57 -11.1,-17.02 -16.61,-41.19 -16.61,-72.52 0,-25.66 2.9,-49.83 8.77,-72.36 5.86,-22.53 13.88,-42.51 24.1,-59.86 9.93,-16.86 21.77,-30.26 35.36,-40.21 13.59,-9.95 27.82,-14.96 42.69,-14.96 10.45,0 19.51,1.48 27.23,4.44 7.73,2.96 15.68,7.64 23.81,13.89l18.88 -115.19 61.62 0zm-88.98 167.49c-3.31,-2.3 -7.6,-4.36 -12.95,-6.17 -5.34,-1.89 -10.04,-2.79 -14.11,-2.79 -9.75,0 -18.53,3.04 -26.37,9.12 -7.84,6.17 -14.45,14.47 -19.91,25.08 -4.88,9.46 -8.71,21.54 -11.56,36.26 -2.84,14.72 -4.24,28.86 -4.24,42.51 0,16.2 2.61,28.04 7.96,35.44 5.34,7.4 13.47,11.1 24.33,11.1 5.58,0 11.44,-1.81 17.6,-5.34 6.21,-3.54 12.08,-7.73 17.65,-12.5l21.6 -132.71zm191.01 -63.15l-44.2 270.52 -61.61 0 44.25 -270.52 61.56 0zm18.75 -104.34l-10.74 65.78 -64.98 0 10.74 -65.78 64.98 0zm214.88 203.34c0,25.41 -3.02,49.17 -9,71.29 -6.04,22.2 -14.47,41.19 -25.38,57.14 -11.33,16.53 -24.51,29.28 -39.44,38.16 -14.98,8.88 -32.46,13.4 -52.44,13.4 -28.45,0 -50.29,-9.7 -65.5,-28.94 -15.16,-19.24 -22.77,-45.97 -22.77,-80.01 0,-24.09 2.85,-46.95 8.48,-68.66 5.7,-21.62 14.06,-40.78 25.2,-57.31 10.75,-16.2 23.99,-29.02 39.73,-38.4 15.68,-9.37 33.33,-14.14 52.85,-14.14 28.56,0 50.4,9.54 65.56,28.61 15.16,19 22.71,45.31 22.71,78.86zm-79.62 88.64c5.22,-11.27 9.17,-23.52 11.85,-36.84 2.67,-13.32 4,-29.52 4,-48.68 0,-16.52 -2.55,-29.27 -7.66,-38.15 -5.11,-8.96 -13.24,-13.4 -24.34,-13.4 -8.65,0 -16.2,2.96 -22.71,8.96 -6.56,5.92 -12.31,14.31 -17.3,25.24 -4.65,10.12 -8.3,22.7 -10.97,37.58 -2.67,14.97 -4.01,30.26 -4.01,46.05 0,18.41 2.9,31.65 8.71,39.63 5.75,7.89 13.7,11.92 23.81,11.92 7.37,0 14.46,-2.88 21.26,-8.55 6.79,-5.76 12.6,-13.65 17.36,-23.76zm418.71 82.88l-198.9 0 9.69 -59.28c18.82,-17.02 36.53,-33.8 53.08,-50.33 16.56,-16.52 30.61,-31.41 42.05,-44.56 17.71,-20.23 30.66,-38.4 38.97,-54.6 8.24,-16.12 12.42,-31.57 12.42,-46.37 0,-13.9 -3.3,-24.26 -9.86,-30.92 -6.63,-6.66 -15.69,-10.03 -27.24,-10.03 -11.79,0 -23.81,2.88 -36.07,8.55 -12.25,5.75 -23.93,13.73 -35.07,24.01l-5.4 0 12.54 -79.76c8.42,-4.77 21.08,-9.7 37.98,-14.8 16.9,-5.1 32.87,-7.56 47.97,-7.56 27.35,0 48.26,7.15 62.78,21.37 14.51,14.31 21.77,35.61 21.77,63.89 0,29.19 -5.46,55.01 -16.31,77.46 -10.92,22.36 -28.23,46.87 -51.92,73.34 -11.68,12.99 -22.83,24.67 -33.45,34.95 -10.57,10.28 -19.81,18.91 -27.64,25.98l113.82 0 -11.21 68.66zm279.92 -248.4c0,33.13 -2.73,65.45 -8.19,97.02 -5.46,31.5 -13.42,58.79 -23.99,81.74 -12.02,25.73 -26.07,44.97 -42.1,57.8 -16.09,12.91 -34.32,19.32 -54.88,19.32 -29.62,0 -52.27,-9.54 -68.06,-28.53 -15.74,-19.08 -23.64,-48.76 -23.64,-89.05 0,-34.37 2.67,-66.77 8.02,-97.19 5.28,-30.42 13.35,-57.64 24.15,-81.57 10.74,-23.76 24.4,-42.51 40.89,-56.32 16.49,-13.81 35.36,-20.72 56.57,-20.72 30.31,0 53.07,9.78 68.34,29.52 15.22,19.65 22.89,49 22.89,87.98zm-65.68 3.62c0,-18.75 -2.45,-32.65 -7.26,-41.61 -4.83,-9.04 -11.97,-13.48 -21.49,-13.48 -9,0 -17.42,5.67 -25.26,17.1 -7.9,11.35 -14.7,27.63 -20.33,48.84 -4.99,18.5 -8.77,38.65 -11.33,60.6 -2.55,21.95 -3.82,41.77 -3.82,59.61 0,19 2.38,32.89 7.14,41.77 4.76,8.97 12.25,13.41 22.47,13.41 9.75,0 18.35,-6.25 25.84,-18.67 7.5,-12.42 13.77,-28.2 18.87,-47.36 4.77,-17.76 8.49,-37.5 11.16,-58.96 2.67,-21.54 4.01,-41.93 4.01,-61.25z"
   id="path2641" />
  </g>
  <g
   id="g2643">
   <path
   fill="#000000"
   d="M4655.67 1773.81l0 98.05c0,1.7 -1.38,3.04 -3.06,3.04l-54.18 0c-1.66,0 -3.04,-1.34 -3.04,-3.04l0 -271.43c0,-1.71 1.38,-3.03 3.04,-3.03l164.25 0c37.41,1.1 67.86,30.47 70.3,67.81l0 37.72c-1.98,30.33 -22.58,56.14 -51.65,64.81l53.11 102.73c0.46,0.93 0.43,2.07 -0.12,2.94 -0.54,0.92 -1.52,1.49 -2.61,1.49l-61 0c-1.11,0 -2.15,-0.62 -2.69,-1.64l-52.14 -100.84c-0.55,-1.05 -1.59,-1.67 -2.65,-1.67l-54.55 0c-1.67,0 -3.01,1.35 -3.01,3.06z"
   id="path2645" />
   <path
   fill="#000000"
   d="M5526.48 1874.9c35.88,-2.92 68.05,-23.29 86.01,-54.51 11.5,-26.62 17.66,-55.25 18.19,-84.26 -0.53,-28.98 -6.69,-57.59 -18.19,-84.23 -17.96,-31.22 -50.13,-51.59 -86.01,-54.5l-66.87 0c-35.91,2.91 -68.07,23.28 -86.02,54.5 -11.49,26.64 -17.67,55.25 -18.15,84.23 0.48,29.01 6.66,57.64 18.15,84.26 17.95,31.22 50.11,51.59 86.02,54.51l66.87 0z"
   id="path2647" />
   <path
   fill="#000000"
   d="M4954.35 1874.9l124.84 0c1.68,0 3.02,-1.34 3.02,-3.04l0 -40.61c0,-0.79 -0.32,-1.53 -0.87,-2.13 -0.59,-0.58 -1.35,-0.89 -2.15,-0.89l-100.44 0c-19.12,-0.83 -36.87,-10.38 -48.12,-25.93 -13.19,-19.56 -20.26,-42.57 -20.21,-66.17 -0.05,-23.57 7.02,-46.58 20.21,-66.11 11.25,-15.56 29,-25.13 48.12,-25.96l100.44 0c1.68,0 3.02,-1.35 3.02,-3.02l0 -40.61c0,-1.71 -1.34,-3.03 -3.02,-3.03l-124.84 0c-35.88,2.91 -68.08,23.28 -86.02,54.5 -11.46,26.64 -17.65,55.25 -18.19,84.23 0.54,29.01 6.73,57.64 18.19,84.26 17.94,31.22 50.14,51.59 86.02,54.51z"
   id="path2649" />
   <path
   fill="#000000"
   d="M4504.27 1813.15l-112.32 0c-0.93,0 -1.76,0.43 -2.36,1.13l-48.82 59.5c-0.58,0.71 -1.41,1.12 -2.33,1.12l-52.52 0c-1.16,0 -2.23,-0.69 -2.72,-1.74 -0.49,-1.06 -0.37,-2.33 0.39,-3.2l222.66 -271.46c0.56,-0.7 1.43,-1.1 2.34,-1.1l55.96 0c1.65,0 3,1.32 3,3.03l0 271.43c0,1.7 -1.35,3.04 -3,3.04l-54.21 0c-1.67,0 -3.01,-1.34 -3.01,-3.04l0 -55.66c0,-1.7 -1.39,-3.05 -3.06,-3.05z"
   id="path2651" />
   <path
   fill="#000000"
   d="M5167.21 1762.5l0 109.36c0,1.7 -1.37,3.04 -3.05,3.04l-54.21 0c-1.67,0 -3.01,-1.34 -3.01,-3.04l0 -271.43c0,-1.71 1.34,-3.03 3.01,-3.03l54.21 0c1.68,0 3.05,1.32 3.05,3.03l0 109.35c0,1.67 1.35,3.01 3,3.01l100.95 0c0.79,0 1.57,-0.3 2.13,-0.87 0.51,-0.56 0.87,-1.35 0.87,-2.14l0 -109.35c0,-0.82 0.28,-1.56 0.87,-2.16 0.61,-0.54 1.38,-0.87 2.2,-0.87l54.19 0c1.65,0 3.01,1.32 3.01,3.03l0 271.43c0,0.82 -0.32,1.55 -0.88,2.16 -0.57,0.54 -1.35,0.88 -2.13,0.88l-54.19 0c-0.82,0 -1.59,-0.34 -2.2,-0.88 -0.59,-0.61 -0.87,-1.34 -0.87,-2.16l0 -109.36c0,-1.66 -1.33,-3 -3,-3l-100.95 0c-1.65,0 -3,1.34 -3,3z"
   id="path2653" />
   <path
   fill="#000000"
   d="M5847.93 1874.9c19.27,-0.23 37.45,-9.03 49.64,-23.99 13.13,-16.06 20.02,-36.31 19.5,-57.04 0.52,-20.77 -6.37,-40.95 -19.5,-57.07 -12.19,-14.95 -30.37,-23.75 -49.64,-24.01l-90.86 0c-11.99,-0.36 -23.25,-5.72 -31.03,-14.85 -4.43,-5.54 -7.02,-12.42 -7.35,-19.52 0.33,-7.1 2.92,-13.95 7.35,-19.53 7.78,-9.08 19.04,-14.48 31.03,-14.83l136.21 0c0.8,0 1.54,-0.32 2.13,-0.9 0.6,-0.59 0.9,-1.33 0.9,-2.12l0 -40.61c0,-1.71 -1.35,-3.03 -3.03,-3.03l-176.09 0c-19.26,0.22 -37.41,9.02 -49.58,23.97 -13.13,16.07 -20.07,36.32 -19.53,57.05 -0.54,20.77 6.4,40.95 19.53,57.05 12.17,14.96 30.32,23.76 49.58,24.03l90.93 0c11.95,0.36 23.2,5.72 30.99,14.84 4.46,5.54 7.01,12.42 7.37,19.53 -0.36,7.11 -2.91,13.94 -7.37,19.53 -7.79,9.08 -19.04,14.48 -30.99,14.83l-157.01 0c-0.81,0 -1.58,0.31 -2.16,0.89 -0.56,0.6 -0.87,1.34 -0.87,2.13l0 40.61c0,0.82 0.31,1.55 0.87,2.16 0.58,0.54 1.35,0.88 2.16,0.88l196.82 0 0 0z"
   id="path2655" />
   <path
   fill="#E8E8E8"
   d="M5502.08 1644.06c19.15,0.83 36.86,10.4 48.1,25.96 13.24,19.53 20.27,42.54 20.21,66.11 0.06,23.6 -6.97,46.61 -20.21,66.17 -11.24,15.55 -28.95,25.1 -48.1,25.93 -6.04,0.31 -12.04,0.31 -18.05,0 -19.19,-0.83 -36.89,-10.38 -48.1,-25.93 -13.23,-19.56 -20.27,-42.57 -20.23,-66.17 -0.04,-23.57 7,-46.58 20.23,-66.11 11.21,-15.56 28.91,-25.13 48.1,-25.96 6.01,-0.32 12.01,-0.32 18.05,0z"
   id="path2657" />
   <path
   fill="#E8E8E8"
   d="M4655.67 1647.09l0 73.99c0,1.7 1.34,3.01 3.01,3.01l62.15 0c21.27,-1.31 38.62,-17.49 41.52,-38.57l0 -2.91c-2.9,-21.05 -20.25,-37.21 -41.52,-38.55l-62.15 0c-0.78,0 -1.57,0.3 -2.14,0.9 -0.57,0.56 -0.87,1.32 -0.87,2.13z"
   id="path2659" />
   <path
   fill="#E8E8E8"
   d="M4504.27 1766.5l-69.14 0c-1.2,0 -2.23,-0.68 -2.63,-1.72 -0.53,-1.09 -0.39,-2.3 0.4,-3.22l69.04 -84.23c0.8,-1.01 2.15,-1.39 3.35,-0.95 1.22,0.44 2.04,1.58 2.04,2.84l0 84.25c0,1.67 -1.39,3.03 -3.06,3.03z"
   id="path2661" />
  </g>
  <g
   id="g2663">
   <path
   fill="#000000"
   stroke="#000000"
   stroke-width="15"
   d="M4090.33 5252.4c10.32,10.95 20.39,34.36 30.14,69.99 9.76,35.89 19.51,85 29.34,147.61l48.84 304.38 -51.69 0 -45.42 -285.55c-11.78,-74.57 -23.16,-124.19 -34.21,-148.37 -10.97,-24.43 -26.01,-36.65 -45.1,-36.65l-52.34 0 0 470.57 -48.11 0 0 -1113.18 108.57 0c40.63,0 70.95,26.47 90.94,79.66 19.99,53.19 29.98,133.61 29.98,241.01 0,69.99 -5.2,128.01 -15.6,174.33 -10.4,46.32 -25.52,78.39 -45.34,96.2l0 0 0 0zm-120.44 -467.51l0 395.24 60.46 0c23.16,0 40.63,-16.8 52.5,-50.39 11.78,-33.6 17.72,-82.97 17.72,-147.87 0,-65.15 -5.94,-114.27 -17.72,-147.35 -11.87,-33.09 -29.34,-49.63 -52.5,-49.63l-60.46 0 0 0 0 0zm434.92 -21.63c-34.86,0 -62.65,40.72 -83.21,122.41 -20.56,81.44 -30.8,192.66 -30.8,333.14 0,140.23 10.24,251.19 30.8,332.63 20.56,81.69 48.35,122.41 83.21,122.41 34.95,0 62.66,-40.72 83.06,-122.41 20.39,-81.44 30.55,-192.4 30.55,-332.63 0,-140.48 -10.16,-251.7 -30.55,-333.14 -20.4,-81.69 -48.11,-122.41 -83.06,-122.41zm0 -122.16c49.9,0 89.72,52.43 119.54,157.02 29.83,104.6 44.78,244.83 44.78,420.69 0,175.6 -14.95,315.58 -44.78,420.18 -29.82,104.6 -69.64,157.02 -119.54,157.02 -49.97,0 -89.96,-52.17 -119.86,-156.51 -29.91,-104.35 -44.86,-244.58 -44.86,-420.69 0,-175.86 14.95,-316.09 44.86,-420.69 29.9,-104.59 69.89,-157.02 119.86,-157.02l0 0 0 0zm505.71 105.87l0 158.81c-16.17,-47.34 -33.48,-82.46 -51.76,-105.87 -18.37,-23.42 -37.79,-35.12 -58.43,-35.12 -40.64,0 -71.76,38.93 -93.38,116.81 -21.53,77.62 -32.34,190.11 -32.34,337.21 0,146.85 10.81,259.08 32.34,336.7 21.62,77.88 52.74,116.82 93.38,116.82 20.64,0 40.06,-11.71 58.43,-35.12 18.28,-23.42 35.59,-58.54 51.76,-105.88l0 157.28c-16.82,35.89 -34.62,62.61 -53.47,80.43 -18.77,18.06 -38.68,26.97 -59.57,26.97 -53.88,0 -96.21,-51.66 -127.18,-154.73 -30.96,-103.07 -46.4,-243.81 -46.4,-422.47 0,-178.91 15.44,-319.9 46.4,-422.98 30.97,-103.07 73.3,-154.73 127.18,-154.73 21.21,0 41.28,8.91 60.06,26.47 18.85,17.56 36.48,44.02 52.98,79.4l0 0 0 0zm74.27 -85.77l48.11 0 0 470.57 159.52 -470.57 61.92 0 -176.42 518.93 189.02 594.25 -63.3 0 -170.74 -535.97 0 535.97 -48.11 0 0 -1113.18 0 0 0 0z"
   id="path2665" />
   <path
   fill="#000000"
   stroke="#000000"
   stroke-width="15"
   d="M5525.93 5374.22c0,-96.64 -7.98,-172.54 -23.85,-227.69 -15.86,-54.91 -37.66,-82.49 -65.4,-82.49 -27.74,0 -49.55,27.58 -65.41,82.49 -15.87,55.15 -23.85,131.05 -23.85,227.69 0,96.88 7.98,172.78 23.85,227.93 15.86,54.91 37.67,82.49 65.41,82.49 27.74,0 49.54,-27.58 65.4,-82.49 15.87,-55.15 23.85,-131.05 23.85,-227.93zm-178.51 -279.43c11,-47.58 24.93,-82.97 41.76,-106.16 16.84,-23.18 36.99,-34.65 60.35,-34.65 38.83,0 70.27,38.56 94.5,115.92 24.24,77.12 36.4,178.64 36.4,304.32 0,125.93 -12.16,227.44 -36.4,304.56 -24.23,77.36 -55.67,115.92 -94.5,115.92 -23.36,0 -43.51,-11.47 -60.35,-34.65 -16.83,-23.18 -30.76,-58.57 -41.76,-106.16l0 120.07 -52.75 0 0 -1112.59 52.75 0 0 433.42 0 0 0 0zm443.74 -29.28c-28.13,0 -50.42,27.58 -66.77,82.48 -16.35,55.16 -24.53,130.56 -24.53,226.23 0,95.9 8.18,171.31 24.43,226.47 16.26,54.91 38.55,82.49 66.87,82.49 27.93,0 50.12,-27.58 66.48,-82.98 16.35,-55.15 24.52,-130.56 24.52,-225.98 0,-94.69 -8.17,-169.86 -24.52,-225.5 -16.36,-55.39 -38.55,-83.21 -66.48,-83.21l0 0zm0 -111.53c45.65,0 81.46,37.1 107.55,111.53 25.99,74.43 39.03,177.17 39.03,308.71 0,131.29 -13.04,234.03 -39.03,308.71 -26.09,74.43 -61.9,111.77 -107.55,111.77 -45.85,0 -81.67,-37.34 -107.65,-111.77 -25.98,-74.68 -38.93,-177.42 -38.93,-308.71 0,-131.54 12.95,-234.28 38.93,-308.71 25.98,-74.43 61.8,-111.53 107.65,-111.53zm481.01 19.28l-115.53 389.74 121.57 410.96 -61.9 0 -92.96 -314.57 -92.95 314.57 -61.9 0 124 -419.02 -113.49 -381.68 61.9 0 84.68 285.28 84.68 -285.28 61.9 0 0 0 0 0z"
   id="path2667" />
   <path
   fill="#000000"
   stroke="#000000"
   stroke-width="15"
   d="M6409.92 5214.92l0 -553.55 52.75 0 0 553.55 -52.75 0z"
   id="path2669" />
   <path
   fill="#000000"
   stroke="#000000"
   stroke-width="15"
   d="M6462.67 5774.15l-52.75 0 0 -107.34 52.75 0 0 107.34z"
   id="path2671" />
  </g>
  <rect
   fill="#C5E07B"
   stroke="#C5E07B"
   stroke-width="15"
   x="3852.6"
   y="5240.61"
   width="2425.61"
   height="51.48"
   id="rect2673" />
 </g>
<g
   inkscape:groupmode="layer"
   id="layer1"
   inkscape:label="Text"><path
     style="fill:none;fill-opacity:0.75;fill-rule:evenodd;stroke:#000000;stroke-width:28.22222383;stroke-linecap:butt;stroke-linejoin:miter;stroke-opacity:1;stroke-miterlimit:4;stroke-dasharray:none"
     d="M 7258.0642,9640.1985 L 10235.732,9640.1985"
     id="path1418" /><path
     style="fill:none;fill-opacity:0.75;fill-rule:evenodd;stroke:#000000;stroke-width:28.22222383;stroke-linecap:butt;stroke-linejoin:miter;stroke-opacity:1;stroke-miterlimit:4;stroke-dasharray:none"
     d="M 5657.5679,7816.3772 L 10235.732,6736.9727"
     id="path1420" /><path
     style="fill:none;fill-opacity:0.75;fill-rule:evenodd;stroke:#000000;stroke-width:28.22222383;stroke-linecap:butt;stroke-linejoin:miter;stroke-opacity:1;stroke-miterlimit:4;stroke-dasharray:none"
     d="M 5545.9053,11501.241 L 10272.952,12915.633"
     id="path1422" /><path
     style="fill:none;fill-opacity:0.75;fill-rule:evenodd;stroke:#000000;stroke-width:28.22222383;stroke-linecap:butt;stroke-linejoin:miter;stroke-opacity:1;stroke-miterlimit:4;stroke-dasharray:none"
     d="M 3796.5257,9714.6402 L 37.220482,9714.6402"
     id="path1424" /><path
     style="fill:none;fill-opacity:0.75;fill-rule:evenodd;stroke:#000000;stroke-width:28.22222383;stroke-linecap:butt;stroke-linejoin:miter;stroke-opacity:1;stroke-miterlimit:4;stroke-dasharray:none"
     d="M 2531.017,8486.3524 L -74.442049,7295.2854"
     id="path1426" /><path
     style="fill:none;fill-opacity:0.75;fill-rule:evenodd;stroke:#000000;stroke-width:28.22222383;stroke-linecap:butt;stroke-linejoin:miter;stroke-opacity:1;stroke-miterlimit:4;stroke-dasharray:none"
     d="M 2568.2379,10645.161 L -0.00036173505,11464.02"
     id="path1428" /><text
     xml:space="preserve"
     style="font-size:790.22229004px;font-style:normal;font-variant:normal;font-weight:normal;font-stretch:normal;text-align:start;line-height:100%;writing-mode:lr-tb;text-anchor:start;fill:#000000;fill-opacity:1;stroke:none;stroke-width:1px;stroke-linecap:butt;stroke-linejoin:miter;stroke-opacity:1;font-family:URW Palladio L"
     x="-2419.3552"
     y="7034.7393"
     id="text2303"
     sodipodi:linespacing="100%"><tspan
       sodipodi:role="line"
       id="tspan2305"
       x="-2419.3552"
       y="7034.7393">On</tspan></text>
<text
     xml:space="preserve"
     style="font-size:790.22229004px;font-style:normal;font-variant:normal;font-weight:normal;font-stretch:normal;text-align:start;line-height:100%;writing-mode:lr-tb;text-anchor:start;fill:#000000;fill-opacity:1;stroke:none;stroke-width:1px;stroke-linecap:butt;stroke-linejoin:miter;stroke-opacity:1;font-family:URW Palladio L"
     x="-2582.3499"
     y="9808.2754"
     id="text2307"
     sodipodi:linespacing="100%"><tspan
       sodipodi:role="line"
       id="tspan2309"
       x="-2582.3499"
       y="9808.2754">Minus</tspan></text>
<text
     xml:space="preserve"
     style="font-size:790.22229004px;font-style:normal;font-variant:normal;font-weight:normal;font-stretch:normal;text-align:start;line-height:100%;writing-mode:lr-tb;text-anchor:start;fill:#000000;fill-opacity:1;stroke:none;stroke-width:1px;stroke-linecap:butt;stroke-linejoin:miter;stroke-opacity:1;font-family:URW Palladio L"
     x="-2545.1289"
     y="12078.746"
     id="text2311"
     sodipodi:linespacing="100%"><tspan
       sodipodi:role="line"
       id="tspan2313"
       x="-2545.1289"
       y="12078.746">Menu</tspan></text>
<text
     xml:space="preserve"
     style="font-size:790.22229004px;font-style:normal;font-variant:normal;font-weight:normal;font-stretch:normal;text-align:start;line-height:100%;writing-mode:lr-tb;text-anchor:start;fill:#000000;fill-opacity:1;stroke:none;stroke-width:1px;stroke-linecap:butt;stroke-linejoin:miter;stroke-opacity:1;font-family:URW Palladio L"
     x="10519.388"
     y="6867.8281"
     id="text2315"
     sodipodi:linespacing="100%"><tspan
       sodipodi:role="line"
       id="tspan2317"
       x="10519.388"
       y="6867.8281">Play</tspan></text>
<text
     xml:space="preserve"
     style="font-size:790.22229004px;font-style:normal;font-variant:normal;font-weight:normal;font-stretch:normal;text-align:start;line-height:100%;writing-mode:lr-tb;text-anchor:start;fill:#000000;fill-opacity:1;stroke:none;stroke-width:1px;stroke-linecap:butt;stroke-linejoin:miter;stroke-opacity:1;font-family:URW Palladio L"
     x="10444.945"
     y="9845.4961"
     id="text2319"
     sodipodi:linespacing="100%"><tspan
       sodipodi:role="line"
       id="tspan2321"
       x="10444.945"
       y="9845.4961">Plus</tspan></text>
<text
     xml:space="preserve"
     style="font-size:790.22229004px;font-style:normal;font-variant:normal;font-weight:normal;font-stretch:normal;text-align:start;line-height:100%;writing-mode:lr-tb;text-anchor:start;fill:#000000;fill-opacity:1;stroke:none;stroke-width:1px;stroke-linecap:butt;stroke-linejoin:miter;stroke-opacity:1;font-family:URW Palladio L"
     x="10444.945"
     y="13158.15"
     id="text2323"
     sodipodi:linespacing="100%"><tspan
       sodipodi:role="line"
       id="tspan2325"
       x="10444.945"
       y="13158.15">Stop</tspan></text>
</g></svg>