<?xml version="1.0" encoding="UTF-8" standalone="no"?>
<!-- Creator: CorelDRAW -->
<svg
   xmlns:dc="http://purl.org/dc/elements/1.1/"
   xmlns:cc="http://web.resource.org/cc/"
   xmlns:rdf="http://www.w3.org/1999/02/22-rdf-syntax-ns#"
   xmlns:svg="http://www.w3.org/2000/svg"
   xmlns="http://www.w3.org/2000/svg"
   xmlns:sodipodi="http://inkscape.sourceforge.net/DTD/sodipodi-0.dtd"
   xmlns:inkscape="http://www.inkscape.org/namespaces/inkscape"
   xml:space="preserve"
   width="102mm"
   height="150mm"
   shape-rendering="geometricPrecision"
   text-rendering="geometricPrecision"
   image-rendering="optimizeQuality"
   fill-rule="evenodd"
   viewBox="0 0 10200 15000"
   id="svg2"
   sodipodi:version="0.32"
   inkscape:version="0.43"
   sodipodi:docname="player-front.svg"
   sodipodi:docbase="/home/martin/src/dev/pics/pixelma"><metadata
   id="metadata119"><rdf:RDF><cc:Work
       rdf:about=""><dc:format>image/svg+xml</dc:format><dc:type
         rdf:resource="http://purl.org/dc/dcmitype/StillImage" /></cc:Work></rdf:RDF></metadata><defs
   id="defs117" /><sodipodi:namedview
   inkscape:window-height="572"
   inkscape:window-width="746"
   inkscape:pageshadow="2"
   inkscape:pageopacity="0.0"
   borderopacity="1.0"
   bordercolor="#666666"
   pagecolor="#ffffff"
   id="base"
   inkscape:zoom="0.75823708"
   inkscape:cx="180.70866"
   inkscape:cy="265.74802"
   inkscape:window-x="204"
   inkscape:window-y="71"
   inkscape:current-layer="svg2" />
 <g
   id="Ebene_x0020_1">
  <defs
   id="defs5">
   <linearGradient
   id="id0"
   gradientUnits="userSpaceOnUse"
   x1="5100.04"
   y1="13978.7"
   x2="5100.04"
   y2="14266.3">
    <stop
   offset="0"
   stop-color="#E8E8E8"
   id="stop8" />
    <stop
   offset="0.329412"
   stop-color="#B8B8B8"
   id="stop10" />
    <stop
   offset="1"
   stop-color="#878787"
   id="stop12" />
   </linearGradient>
   <linearGradient
   id="id1"
   gradientUnits="userSpaceOnUse"
   x1="5100"
   y1="1063.89"
   x2="5100"
   y2="748.55">
    <stop
   offset="0"
   stop-color="#E8E8E8"
   id="stop15" />
    <stop
   offset="0.329412"
   stop-color="#B8B8B8"
   id="stop17" />
    <stop
   offset="1"
   stop-color="#878787"
   id="stop19" />
   </linearGradient>
   <linearGradient
   id="id2"
   gradientUnits="userSpaceOnUse"
   x1="538.61"
   y1="7500.01"
   x2="2444.69"
   y2="7500.01">
    <stop
   offset="0"
   stop-color="#878787"
   id="stop22" />
    <stop
   offset="0.501961"
   stop-color="#E8E8E8"
   id="stop24" />
    <stop
   offset="1"
   stop-color="#B3B3B3"
   id="stop26" />
   </linearGradient>
   <linearGradient
   id="id3"
   gradientUnits="userSpaceOnUse"
   x1="9661.43"
   y1="7500"
   x2="7755.33"
   y2="7500">
    <stop
   offset="0"
   stop-color="#878787"
   id="stop29" />
    <stop
   offset="0.501961"
   stop-color="#E8E8E8"
   id="stop31" />
    <stop
   offset="1"
   stop-color="#B3B3B3"
   id="stop33" />
   </linearGradient>
  </defs>
  <path
   fill="#000000"
   stroke="#000000"
   stroke-width="18"
   d="M2444.68 7213.23l162.82 0 0 573.53 -162.82 0c0,0.01 0,0.02 0,0.03 -5.18,-29.48 -32.09,-50.02 -61.9,-47.27l0 -479.04c29.81,2.75 56.72,-17.79 61.9,-47.23l0 -0.02z"
   id="path35" />
  <path
   fill="#000000"
   stroke="#000000"
   stroke-width="18"
   d="M7755.35 7213.23l-162.86 0 0 573.53 162.86 0c0,0.01 0,0.01 0,0.02 5.18,-29.48 32.09,-50.02 61.9,-47.27l0 -479.04c-29.81,2.75 -56.72,-17.79 -61.9,-47.23l0 -0.01z"
   id="path37" />
  <path
   fill="#000000"
   stroke="#000000"
   stroke-width="18"
   stroke-linejoin="bevel"
   d="M6510.86 781.37c-41.14,13.04 -83.57,21.67 -126.54,25.75l0 0c23.07,4.11 46.02,8.72 68.88,13.78 33.83,3.96 67.81,6.18 101.88,6.7l568.03 0 0 0c-7.71,-37.03 -41.88,-62.48 -79.58,-59.31l0 0 -479.98 0c-17.82,3.23 -35.44,7.59 -52.69,13.08z"
   id="path39" />
  <path
   fill="#000000"
   stroke="#000000"
   stroke-width="18"
   stroke-linejoin="bevel"
   d="M3689.14 781.37c41.14,13.04 83.57,21.67 126.54,25.75l0 0c-23.07,4.11 -46.02,8.72 -68.88,13.78 -33.83,3.96 -67.81,6.18 -101.88,6.7l-568.03 0 0 0c7.71,-37.03 41.88,-62.48 79.58,-59.31l0 0 479.98 0c17.82,3.23 35.44,7.59 52.69,13.08z"
   id="path41" />
  <path
   fill="#EB7373"
   stroke="#000000"
   stroke-width="18"
   stroke-linejoin="bevel"
   d="M4904.17 3213.18c0,-83.05 -67.33,-150.37 -150.38,-150.37 -83.05,0 -150.37,67.32 -150.37,150.37 0,83.05 67.32,150.4 150.37,150.4 83.05,0 150.38,-67.35 150.38,-150.4z"
   id="path43" />
  <path
   fill="#D7F791"
   stroke="#000000"
   stroke-width="18"
   stroke-linejoin="bevel"
   d="M5596.57 3213.18c0,-83.05 -67.33,-150.37 -150.37,-150.37 -83.05,0 -150.38,67.32 -150.38,150.37 0,83.05 67.33,150.4 150.38,150.4 83.04,0 150.37,-67.35 150.37,-150.4z"
   id="path45" />
  <path
   fill="url(#id0)"
   stroke="#000000"
   stroke-width="18"
   stroke-linejoin="bevel"
   d="M7270.1 13978.7l-4340.12 0c-6.45,114.77 49.57,225.34 148.28,287.61l4043.51 0c98.74,-62.27 154.78,-172.84 148.33,-287.61z"
   id="path47" />
  <path
   fill="url(#id1)"
   stroke="#000000"
   stroke-width="18"
   stroke-linejoin="bevel"
   d="M5526.86 1063.89l1731.03 0c2.69,-28.45 5.54,-56.87 8.49,-85.29 -1.28,-79.91 -63.55,-145.52 -143.27,-151.01 0,0 0,0.01 0,0.01l0 0 -568.03 0c-34.07,-0.52 -68.05,-2.74 -101.88,-6.7 -22.86,-5.06 -45.81,-9.67 -68.88,-13.78l-753.35 0 0 0c-19.84,-2.5 -38.22,-11.7 -52.15,-26.03 -24.41,-21.39 -56.11,-32.55 -88.53,-31.17l0 0 -780.54 0 0 0c-32.43,-1.38 -64.13,9.78 -88.54,31.17l0 0c-13.93,14.33 -32.31,23.53 -52.15,26.03l-753.38 0c-23.07,4.11 -46.02,8.72 -68.88,13.78 -33.83,3.96 -67.81,6.18 -101.88,6.7l-568.03 0 0 0c0.12,-0.58 0.27,-1.14 0.4,-1.72 -0.13,0.58 -0.28,1.13 -0.4,1.71 -79.72,5.49 -141.99,71.1 -143.27,151.01 2.95,28.42 5.8,56.84 8.49,85.29l1731.03 0 -2.04 -39.5c-0.43,-19.51 7.19,-38.31 21.09,-52.03 13.87,-13.71 32.76,-21.09 52.27,-20.45l711.11 0c19.48,-0.64 38.41,6.75 52.27,20.45 13.86,13.71 21.49,32.52 21.09,52.03l-2.07 39.5zm-2449.32 -238.99c0.06,-0.24 0.11,-0.48 0.17,-0.73m0.56 -2.03c0.12,-0.41 0.25,-0.82 0.37,-1.23 -0.13,0.41 -0.25,0.82 -0.37,1.23zm2.45 -7.12c0.16,-0.39 0.32,-0.79 0.48,-1.18 -0.16,0.39 -0.32,0.78 -0.48,1.18zm2.45 -5.42c0.12,-0.25 0.23,-0.5 0.36,-0.74 -0.12,0.25 -0.24,0.49 -0.36,0.74zm0.6 -1.2c0.17,-0.33 0.35,-0.65 0.52,-0.98 -0.18,0.33 -0.35,0.65 -0.52,0.98zm0.72 -1.34c1.1,-2.03 2.26,-3.99 3.57,-5.91 -1.28,1.91 -2.46,3.88 -3.57,5.91zm4014.32 -20.73c5.91,5.11 11.02,11.15 15.11,17.93 -4.09,-6.78 -9.22,-12.82 -15.11,-17.93zm16.92 21.12c0.4,0.73 0.76,1.48 1.14,2.22 -0.38,-0.75 -0.75,-1.49 -1.14,-2.22zm3.22 6.76c0.11,0.25 0.21,0.52 0.31,0.77 -0.1,-0.26 -0.2,-0.52 -0.31,-0.77zm2.18 5.98c0.12,0.35 0.23,0.71 0.34,1.07 -0.1,-0.36 -0.22,-0.72 -0.34,-1.07z"
   id="path49" />
  <path
   fill="#E8E8E8"
   d="M2992.7 9239.85l0 890.14c-159.91,83.47 -269.14,250.8 -269.14,443.67 0,192.89 109.23,360.23 269.14,443.7l0 180.65 0 0c0,84.17 68.23,152.38 152.38,152.38l0 0 3909.83 0 0 0c84.15,0 152.38,-68.21 152.38,-152.38l0 0 0 -7396.03 0 0c0,-84.17 -68.23,-152.38 -152.38,-152.38l0 0 -3909.83 0 0 0c-84.15,0 -152.38,68.21 -152.38,152.38l0 0 0 4550.46c-159.91,83.46 -269.14,250.79 -269.14,443.68 0,192.89 109.23,360.27 269.14,443.73zm2603.87 -6026.67c0,-83.05 -67.33,-150.37 -150.37,-150.37 -83.05,0 -150.38,67.32 -150.38,150.37 0,83.05 67.33,150.4 150.38,150.4 83.04,0 150.37,-67.35 150.37,-150.4zm-692.4 0c0,-83.05 -67.33,-150.37 -150.38,-150.37 -83.05,0 -150.37,67.32 -150.37,150.37 0,83.05 67.32,150.4 150.37,150.4 83.05,0 150.38,-67.35 150.38,-150.4zm2353.72 -2149.29c-18.93,199.76 -31.59,400.09 -38.02,600.65 -24.32,559.31 24.23,1119.38 144.49,1666.13 44.86,160 188.71,272.09 354.81,276.48 11.55,1.62 21.91,7.89 28.74,17.34 6.83,9.45 9.51,21.24 7.44,32.73l-0.02 906.92c162.04,492.65 162.04,1024.23 0,1516.85 0,544.02 0.02,588.21 0.02,1132.24l-162.86 0 0 573.53 162.86 0c0,544.04 -0.02,588.21 -0.02,1132.24 162.04,492.62 162.04,1024.23 0,1516.85l0.02 906.94 0 0.01c2.1,11.46 -0.58,23.28 -7.41,32.73 -6.82,9.45 -17.19,15.69 -28.74,17.34 -166.1,4.39 -309.95,116.45 -354.84,276.45 -120.23,546.75 -168.78,1106.82 -144.46,1666.13 4.36,203.86 19.9,407.32 46.51,609.47 1.85,11.28 3.05,22.53 3.68,33.77l-4340.11 0c-1.4,-20.14 3.67,-33.77 3.67,-33.77 26.61,-202.15 42.12,-405.61 46.51,-609.47 24.32,-559.31 -24.23,-1119.38 -144.49,-1666.13 -44.86,-160 -188.71,-272.06 -354.81,-276.45 -11.55,-1.65 -21.91,-7.89 -28.74,-17.34 -6.83,-9.45 -9.51,-21.27 -7.44,-32.73l-0.02 -906.95c-162.04,-492.62 -162.04,-1024.23 0,-1516.85 0,-544.04 0.02,-588.2 0.02,-1132.24l162.82 0 0 -573.53 -162.82 0c0,-544.03 -0.02,-588.23 -0.02,-1132.24 -162.04,-492.62 -162.04,-1024.2 0,-1516.85l0.02 -499.83 -0.03 -407.09c-2.07,-11.49 0.61,-23.28 7.44,-32.73 6.83,-9.45 17.19,-15.72 28.74,-17.34 166.1,-4.39 309.95,-116.48 354.81,-276.48 120.26,-546.75 168.81,-1106.82 144.49,-1666.13 -1.31,-41.02 -38.19,-599.6 -38.02,-600.65l1731.03 0 -2.04 -39.5c-0.43,-19.51 7.19,-38.31 21.09,-52.03 13.87,-13.71 32.76,-21.09 52.27,-20.45l711.11 0c19.48,-0.64 38.41,6.75 52.27,20.45 13.86,13.71 21.49,32.52 21.09,52.03l-2.07 39.5 1731.03 0zm12.46 12920.3c0.05,1.32 0.08,2.63 0.12,3.96 -0.04,-1.32 -0.07,-2.65 -0.12,-3.96zm0.18 6.42c0.02,1.14 0.04,2.27 0.04,3.41 -0.01,-1.13 -0.02,-2.27 -0.04,-3.41zm0.05 5.01c0.01,1.5 0.01,2.99 -0.01,4.49 0.02,-1.48 0.02,-2.99 0.01,-4.49z"
   id="path51" />
  <path
   fill="url(#id2)"
   stroke="#000000"
   stroke-width="18"
   stroke-linejoin="bevel"
   d="M2444.68 3657.23l-1906.07 0 0 7685.57 1906.07 0 -0.02 -906.95 0.02 906.95 -0.02 -906.95c-162.04,-492.62 -162.04,-1024.23 0,-1516.85l0.02 -1132.21c-5.18,-29.48 -32.09,-50.02 -61.9,-47.27l0 -479.04c29.81,2.75 56.72,-17.79 61.9,-47.23l-0.02 -1132.26c-162.04,-492.62 -162.04,-1024.2 0,-1516.85l0.02 -906.91z"
   id="path53" />
  <path
   fill="url(#id3)"
   stroke="#000000"
   stroke-width="18"
   stroke-linejoin="bevel"
   d="M7755.35 3657.22l1906.07 0 0 7685.57 -1906.07 0 0 0 -0.02 -906.94c162.04,-492.62 162.04,-1024.23 0,-1516.85l0.02 -1132.22c5.18,-29.48 32.09,-50.02 61.9,-47.27l0 -479.04c-29.81,2.75 -56.72,-17.79 -61.9,-47.23l-0.02 -1132.25c162.04,-492.62 162.04,-1024.2 0,-1516.85l0.02 -906.92z"
   id="path55" />
  <path
   fill="#566B68"
   stroke="#000000"
   stroke-width="18"
   stroke-linejoin="bevel"
   d="M7207.29 6820.54l0 -2643.88 -4214.59 0 0 2643.88 4214.59 0z"
   id="path57" />
  <path
   fill="#55538F"
   stroke="#000000"
   stroke-width="18"
   stroke-linejoin="bevel"
   d="M2968.18 590.06c-57.96,-192.86 -236.74,-323.94 -438.1,-321.26 -417.66,-2.56 -856.95,-2.56 -1306.02,0 -161.68,0.95 -323.33,-0.21 -484.95,-3.53 -210.5,-17.34 -408.48,101.82 -491.71,295.92 -66.62,261.07 -108.4,527.8 -124.86,796.69 -52.42,702.15 -13.35,1408.15 116.18,2100.24 55.46,94.75 152.56,157.59 261.7,169.48 9.08,-1.86 18.53,0.37 25.87,6.03 7.35,5.7 11.83,14.3 12.29,23.59l1906.07 0c-2.07,-11.49 0.61,-23.28 7.44,-32.73 6.83,-9.45 17.19,-15.72 28.74,-17.34 166.1,-4.39 309.95,-116.48 354.81,-276.48 120.26,-546.75 168.81,-1106.82 144.49,-1666.13 -7.35,-229.12 -22.86,-457.91 -46.51,-685.94 1.28,-79.91 63.55,-145.52 143.27,-151.01 7.74,-37.03 41.88,-62.48 79.61,-59.31 -10.12,-7.19 -19.81,-14.96 -29.08,-23.22 -8.32,-7.44 -13.83,-17.46 -15.66,-28.47 -4.57,-27.49 -22.49,-50.92 -47.82,-62.5 -38.58,-9.18 -72.56,-31.88 -95.76,-64.03z"
   id="path59" />
  <path
   fill="#55538F"
   stroke="#000000"
   stroke-width="18"
   stroke-linejoin="bevel"
   d="M3078.26 14266.3c-108.37,-68.36 -165.33,-194.93 -144.61,-321.38 26.61,-202.15 42.12,-405.61 46.51,-609.47 24.32,-559.31 -24.23,-1119.38 -144.49,-1666.13 -44.86,-160 -188.71,-272.06 -354.81,-276.45 -11.55,-1.65 -21.91,-7.89 -28.74,-17.34 -6.83,-9.45 -9.51,-21.27 -7.44,-32.73l-1906.07 0c-0.46,9.26 -4.94,17.86 -12.29,23.56 -7.34,5.69 -16.79,7.89 -25.87,6.06 -109.14,11.86 -206.24,74.73 -261.7,169.45 -129.53,692.09 -168.6,1398.09 -116.18,2100.24 16.46,268.89 58.24,535.65 124.86,796.69 83.23,194.1 281.21,313.3 491.71,295.92 161.62,-3.29 323.27,-4.48 484.95,-3.53 435.33,2.56 870.69,2.56 1306.02,0 210.23,-10.64 395.62,-141.14 476.56,-335.4 17.44,-46.44 41.54,-90.06 71.59,-129.49z"
   id="path61" />
  <path
   fill="#55538F"
   stroke="#000000"
   stroke-width="18"
   stroke-linejoin="bevel"
   d="M7121.77 14266.3c108.4,-68.36 165.36,-194.93 144.64,-321.38 -26.61,-202.15 -42.15,-405.61 -46.51,-609.47 -24.32,-559.31 24.23,-1119.38 144.46,-1666.13 44.89,-160 188.74,-272.06 354.84,-276.45 11.55,-1.65 21.92,-7.89 28.74,-17.34 6.83,-9.45 9.51,-21.27 7.41,-32.73l1906.11 0c0.45,9.26 4.93,17.86 12.28,23.56 7.31,5.69 16.76,7.89 25.87,6.06 109.14,11.86 206.21,74.73 261.71,169.45 129.52,692.09 168.56,1398.09 116.17,2100.24 -16.45,268.89 -58.27,535.65 -124.89,796.69 -83.2,194.1 -281.21,313.3 -491.68,295.92 -161.62,-3.29 -323.3,-4.48 -484.95,-3.53 -435.33,2.56 -870.69,2.56 -1306.05,0 -210.2,-10.64 -395.59,-141.14 -476.53,-335.4 -17.44,-46.44 -41.57,-90.06 -71.62,-129.49z"
   id="path63" />
  <path
   fill="#55538F"
   stroke="#000000"
   stroke-width="18"
   stroke-linejoin="bevel"
   d="M7231.82 590.06c57.96,-192.86 236.74,-323.94 438.1,-321.26 417.66,-2.56 856.95,-2.56 1306.02,0 161.68,0.95 323.33,-0.21 484.95,-3.53 210.5,-17.34 408.48,101.82 491.71,295.92 66.62,261.07 108.4,527.8 124.86,796.69 52.42,702.15 13.35,1408.15 -116.18,2100.24 -55.46,94.75 -152.56,157.59 -261.7,169.48 -9.08,-1.86 -18.53,0.37 -25.87,6.03 -7.35,5.7 -11.83,14.3 -12.29,23.59l-1906.07 0c2.07,-11.49 -0.61,-23.28 -7.44,-32.73 -6.83,-9.45 -17.19,-15.72 -28.74,-17.34 -166.1,-4.39 -309.95,-116.48 -354.81,-276.48 -120.26,-546.75 -168.81,-1106.82 -144.49,-1666.13 7.35,-229.12 22.86,-457.91 46.51,-685.94 -1.28,-79.91 -63.55,-145.52 -143.27,-151.01 -7.74,-37.03 -41.88,-62.48 -79.61,-59.31 10.12,-7.19 19.81,-14.96 29.08,-23.22 8.32,-7.44 13.83,-17.46 15.66,-28.47 4.57,-27.49 22.49,-50.92 47.82,-62.5 38.58,-9.18 72.56,-31.88 95.76,-64.03z"
   id="path65" />
  <path
   fill="#98B7E6"
   stroke="#000000"
   stroke-width="18"
   stroke-linejoin="bevel"
   d="M2992.7 9239.81l0 890.11c69.12,-36.07 147.71,-56.47 231.07,-56.47 276.27,0 500.21,223.97 500.21,500.21 0,276.27 -223.94,500.24 -500.21,500.24 -83.36,0 -161.95,-20.46 -231.07,-56.53l0 180.64 0 0c0,84.17 68.23,152.38 152.38,152.38l0 0 3909.83 0 0 0c84.15,0 152.38,-68.21 152.38,-152.38l0 0 0 -4377.47 -4214.59 0 0 1531.87c69.12,-36.07 147.71,-56.5 231.07,-56.5 276.27,0 500.21,223.94 500.21,500.21 0,276.27 -223.94,500.21 -500.21,500.21 -83.36,0 -161.95,-20.45 -231.07,-56.52zm4214.59 -5063.15l0 -374.68 0 0c0,-84.17 -68.23,-152.38 -152.38,-152.38l0 0 -3909.83 0 0 0c-84.15,0 -152.38,68.21 -152.38,152.38l0 0 0 374.68 4214.59 0zm-55.1 5524.7c0,-880.31 -713.64,-1593.95 -1593.96,-1593.95 -880.32,0 -1593.97,713.64 -1593.97,1593.95 0,880.29 713.65,1593.93 1593.97,1593.93 880.32,0 1593.96,-713.64 1593.96,-1593.93z"
   id="path67" />
  <path
   fill="#BEBEBE"
   stroke="#000000"
   stroke-width="18"
   stroke-linejoin="bevel"
   d="M3723.98 8796.12c0,-276.27 -223.94,-500.21 -500.21,-500.21 -276.24,0 -500.21,223.94 -500.21,500.21 0,276.27 223.97,500.21 500.21,500.21 276.27,0 500.21,-223.94 500.21,-500.21z"
   id="path69" />
  <path
   fill="#BEBEBE"
   stroke="#000000"
   stroke-width="18"
   stroke-linejoin="bevel"
   d="M3723.98 10573.7c0,-276.24 -223.94,-500.21 -500.21,-500.21 -276.24,0 -500.21,223.97 -500.21,500.21 0,276.27 223.97,500.24 500.21,500.24 276.27,0 500.21,-223.97 500.21,-500.24z"
   id="path71" />
  <path
   fill="#BEBEBE"
   stroke="#000000"
   stroke-width="18"
   stroke-linejoin="bevel"
   d="M7152.19 9701.36c0,-880.31 -713.64,-1593.95 -1593.96,-1593.95 -880.32,0 -1593.97,713.64 -1593.97,1593.95 0,880.29 713.65,1593.93 1593.97,1593.93 880.32,0 1593.96,-713.64 1593.96,-1593.93z"
   id="path73" />
  <path
   fill="none"
   stroke="#000000"
   stroke-width="18"
   stroke-linejoin="bevel"
   d="M3264.73 8883.92l0 -175.64c0,-8.41 6.79,-15.23 15.23,-15.23l26.79 0c5.79,0 11.07,3.26 13.66,8.44l46.47 64.94c2.32,3.23 6.48,4.6 10.24,3.39 3.77,-1.21 6.34,-4.73 6.34,-8.72l0 -52.82c0,-8.41 6.83,-15.23 15.24,-15.23l26.82 0c8.41,0 15.24,6.82 15.24,15.23l0 175.64c0,8.41 -6.83,15.24 -15.24,15.24l-26.82 0c-6.28,0 -11.91,-3.87 -14.2,-9.72l-45.93 -64.16c-2.31,-3.23 -6.46,-4.6 -10.24,-3.38 -3.78,1.22 -6.34,4.73 -6.34,8.72l0 53.3c0,4.02 -1.61,7.92 -4.45,10.76 -2.84,2.86 -6.73,4.48 -10.79,4.48l-26.79 0c-8.44,0 -15.23,-6.83 -15.23,-15.24z"
   id="path75" />
  <path
   fill="none"
   stroke="#000000"
   stroke-width="18"
   d="M3215.54 8813.37l0 -34.53c-7.31,-52.05 -51.81,-90.76 -104.38,-90.76 -52.54,0 -97.07,38.71 -104.35,90.76l0 34.53c7.28,52.05 51.81,90.79 104.35,90.79 52.57,0 97.07,-38.74 104.38,-90.79m-57.29 -4.75l0 -25c-4.67,-22.3 -24.32,-38.27 -47.09,-38.27 -22.77,0 -42.42,15.97 -47.09,38.27l0 25c4.67,22.27 24.32,38.24 47.09,38.24 22.77,0 42.42,-15.97 47.09,-38.24"
   id="path77" />
  <path
   fill="none"
   stroke="#000000"
   stroke-width="18"
   stroke-linejoin="bevel"
   d="M5191.53 8786.18l0 -437.98 0 0c0,-8.16 4.33,-15.69 11.37,-19.78 7.07,-4.08 15.76,-4.11 22.83,-0.06l0 0 382.72 219.01 0 0c7.14,4.05 11.52,11.64 11.52,19.84 0,8.2 -4.38,15.75 -11.52,19.84l0 0 -382.72 218.97 0 0c-7.07,4.06 -15.76,4.02 -22.83,-0.06 -7.04,-4.08 -11.37,-11.61 -11.37,-19.78l0 0z"
   id="path79" />
  <path
   fill="none"
   stroke="#000000"
   stroke-width="18"
   stroke-linejoin="bevel"
   d="M5656.15 8786.18l0 -437.98 0 0c0,-12.61 10.24,-22.85 22.86,-22.85l0 0 65.61 0 0 0c12.62,0 22.86,10.24 22.86,22.85l0 0 0 437.98 0 0c0,12.65 -10.24,22.86 -22.86,22.86l0 0 -65.61 0 0 0c-12.62,0 -22.86,-10.21 -22.86,-22.86l0 0z"
   id="path81" />
  <path
   fill="none"
   stroke="#000000"
   stroke-width="18"
   stroke-linejoin="bevel"
   d="M5813.59 8786.18l0 -437.98 0 0c0,-12.61 10.24,-22.85 22.86,-22.85l0 0 65.61 0 0 0c12.62,0 22.86,10.24 22.86,22.85l0 0 0 437.98 0 0c0,12.65 -10.24,22.86 -22.86,22.86l0 0 -65.61 0 0 0c-12.62,0 -22.86,-10.21 -22.86,-22.86l0 0z"
   id="path83" />
  <path
   fill="none"
   stroke="#000000"
   stroke-width="18"
   stroke-linejoin="bevel"
   d="M5348.97 11054.5l0 -372.76 0 0c0,-12.61 10.24,-22.85 22.86,-22.85l0 0 372.79 0 0 0c12.62,0 22.86,10.24 22.86,22.85l0 0 0 372.76 0 0c0,12.62 -10.24,22.86 -22.86,22.86l0 0 -372.79 0 0 0c-12.62,0 -22.86,-10.24 -22.86,-22.86l0 0z"
   id="path85" />
  <path
   fill="none"
   stroke="#000000"
   stroke-width="18"
   stroke-linejoin="bevel"
   d="M6669.32 9630.44l0 -115.47 0 0c0,-12.62 10.24,-22.86 22.86,-22.86l0 0 65.61 0 0 0c12.62,0 22.86,10.24 22.86,22.86l0 0 0 115.47 0 0c0,8.42 6.83,15.24 15.24,15.24l0 0 115.51 0 0 0c12.61,0 22.85,10.24 22.85,22.86l0 0 0 65.62 0 0c0,12.61 -10.24,22.85 -22.85,22.85l0 0 -115.51 0 0 0c-8.41,0 -15.24,6.83 -15.24,15.24l0 0 0 115.48 0 0c0,12.61 -10.24,22.85 -22.86,22.85l0 0 -65.61 0 0 0c-12.62,0 -22.86,-10.24 -22.86,-22.85l0 0 0 -115.48 0 0c0,-8.41 -6.8,-15.24 -15.24,-15.24l0 0 -115.48 0 0 0c-12.61,0 -22.85,-10.24 -22.85,-22.85l0 0 0 -65.62 0 0c0,-12.62 10.24,-22.86 22.85,-22.86l0 0 115.48 0 0 0c8.44,0 15.24,-6.82 15.24,-15.24l0 0z"
   id="path87" />
  <path
   fill="none"
   stroke="#000000"
   stroke-width="18"
   stroke-linejoin="bevel"
   d="M4182.2 9734.16l0 -65.62 0 0c0,-12.62 10.24,-22.86 22.86,-22.86l0 0 372.79 0 0 0c12.62,0 22.86,10.24 22.86,22.86l0 0 0 65.62 0 0c0,12.61 -10.24,22.85 -22.86,22.85l0 0 -372.79 0 0 0c-12.62,0 -22.86,-10.24 -22.86,-22.85l0 0z"
   id="path89" />
  <path
   fill="none"
   stroke="#000000"
   stroke-width="18"
   stroke-linejoin="bevel"
   d="M2444.66 11342.8l0 -906.92c-162.04,-492.63 -162.04,-1024.2 0,-1516.85l0 -1132.24c-5.21,-29.44 -32.12,-49.98 -61.9,-47.27l0 -479c29.78,2.75 56.69,-17.82 61.9,-47.26l0 -1132.24c-162.04,-492.65 -162.04,-1024.22 0,-1516.85l0 -906.92"
   id="path91" />
  <path
   fill="none"
   stroke="#000000"
   stroke-width="18"
   stroke-linejoin="bevel"
   d="M7755.33 11342.8l0 -906.92c162.04,-492.63 162.04,-1024.2 0,-1516.85l0 -1132.24c5.21,-29.44 32.12,-49.98 61.9,-47.27l0 -479c-29.78,2.75 -56.69,-17.82 -61.9,-47.26l0 -1132.24c162.04,-492.65 162.04,-1024.22 0,-1516.85l0 -906.92"
   id="path93" />
  <path
   fill="none"
   stroke="#000000"
   stroke-width="18"
   stroke-linejoin="bevel"
   d="M2444.66 6080.99c214.8,-193.62 337.44,-469.25 337.44,-758.44 0,-289.19 -122.64,-564.82 -337.44,-758.41"
   id="path95" />
  <path
   fill="none"
   stroke="#000000"
   stroke-width="18"
   stroke-linejoin="bevel"
   d="M2444.66 10435.9c214.8,-193.59 337.44,-469.22 337.44,-758.41 0,-289.19 -122.64,-564.82 -337.44,-758.44"
   id="path97" />
  <path
   fill="none"
   stroke="#000000"
   stroke-width="18"
   stroke-linejoin="bevel"
   d="M7755.33 4564.14c-214.8,193.59 -337.44,469.22 -337.44,758.41 0,289.19 122.64,564.82 337.44,758.44"
   id="path99" />
  <path
   fill="none"
   stroke="#000000"
   stroke-width="18"
   stroke-linejoin="bevel"
   d="M7755.33 8919c-214.8,193.62 -337.44,469.25 -337.44,758.44 0,289.19 122.64,564.82 337.44,758.41"
   id="path101" />
  <path
   fill="none"
   stroke="#000000"
   stroke-width="7.62"
   stroke-linejoin="bevel"
   d="M5528.93 1024.39l18.29 -222.79"
   id="path103" />
  <path
   fill="none"
   stroke="#000000"
   stroke-width="7.62"
   stroke-linejoin="bevel"
   d="M4671.1 1024.39l-18.32 -222.79"
   id="path105" />
  <path
   fill="none"
   stroke="#000000"
   stroke-width="18"
   stroke-linejoin="bevel"
   d="M3063.2 10661.5l0 -175.6 0 0c0,-8.41 6.83,-15.24 15.24,-15.24l0 0 105.23 0 0 0c8.42,0 15.24,6.83 15.24,15.24l0 0 0 26.79 0 0c0,8.41 -6.82,15.24 -15.24,15.24l0 0 -55.01 0 0.95 0c-3.17,-0.19 -6.19,1.43 -7.83,4.14 -1.62,2.71 -1.62,6.13 0,8.87 1.64,2.71 4.66,4.3 7.83,4.11l-0.95 0 55.01 0 0 0c8.42,0 15.24,6.83 15.24,15.24l0 0 0 26.82 0 0c0,8.41 -6.82,15.24 -15.24,15.24l0 0 -54.06 0 0 0c-3.17,-0.18 -6.19,1.4 -7.83,4.14 -1.62,2.72 -1.62,6.13 0,8.84 1.64,2.74 4.66,4.33 7.83,4.15l-0.95 0 55.01 0 0 0c8.42,0 15.24,6.82 15.24,15.24l0 0 0 26.78 0 0c0,8.45 -6.82,15.24 -15.24,15.24l0 0 -105.23 0 0 0c-8.41,0 -15.24,-6.79 -15.24,-15.24l0 0z"
   id="path107" />
  <path
   fill="none"
   stroke="#000000"
   stroke-width="18"
   stroke-linejoin="bevel"
   d="M2786.59 10661.5l0 -175.6 0 0c0,-8.41 6.8,-15.24 15.24,-15.24l0 0 32.58 0 0 0c5.79,0 11.06,3.29 13.65,8.47l0 0 48.68 98.35 0 0c0.51,1.04 1.55,1.71 2.71,1.71 1.16,0 2.22,-0.67 2.74,-1.71l0 0 48.67 -98.35 0 0c2.56,-5.18 7.86,-8.47 13.66,-8.47l0 0 32.58 0 0 0c8.41,0 15.23,6.83 15.23,15.24l0 0 0 175.6 0 0c0,8.45 -6.82,15.24 -15.23,15.24l0 0 -26.79 0 0 0c-8.42,0 -15.24,-6.79 -15.24,-15.24l0 0 0 -48.67 0 0c0,-1.43 -0.98,-2.65 -2.38,-2.95 -1.37,-0.34 -2.77,0.33 -3.41,1.61l0 0 -28.1 56.78 0 0c-2.56,5.21 -7.87,8.47 -13.66,8.47l0 0 -16.12 0 0 0c-5.79,0 -11.09,-3.26 -13.65,-8.47l0 0 -28.1 -56.78 0 0c-0.64,-1.28 -2.07,-1.95 -3.45,-1.61 -1.37,0.3 -2.34,1.52 -2.34,2.95l0 0 0 48.67 0 0c0,8.45 -6.83,15.24 -15.24,15.24l0 0 -26.79 0 0 0c-8.44,0 -15.24,-6.79 -15.24,-15.24l0 0z"
   id="path109" />
  <path
   fill="none"
   stroke="#000000"
   stroke-width="18"
   stroke-linejoin="bevel"
   d="M3479.24 10598.1l0.06 -112.24 0 0c0,-8.41 6.82,-15.24 15.24,-15.24l0 0 26.79 0 0 0c8.44,0 15.23,6.83 15.23,15.24l0 0 0 112.24 0 0c0,11.8 9.57,21.34 21.34,21.34l0 0 24.44 0 0 0c11.79,0 21.33,-9.54 21.33,-21.34l0 0 0 -112.24 0 0c0,-8.41 6.83,-15.24 15.24,-15.24l0 0 26.82 0 0 0c8.41,0 15.24,6.83 15.24,15.24l0 0 0 112.24 0 0c0,43.43 -35.2,78.6 -78.63,78.6l0 0 -24.44 0.06c-43.43,0 -78.66,-35.23 -78.66,-78.66z"
   id="path111" />
  <path
   fill="none"
   stroke="#000000"
   stroke-width="18"
   stroke-linejoin="bevel"
   d="M3250.6 10661.5l0 -175.64c0,-8.41 6.79,-15.23 15.23,-15.23l26.79 0c5.79,0 11.07,3.26 13.66,8.44l46.47 64.94c2.32,3.23 6.48,4.6 10.24,3.39 3.77,-1.21 6.34,-4.73 6.34,-8.72l0 -52.82c0,-8.41 6.83,-15.23 15.24,-15.23l26.82 0c8.41,0 15.24,6.82 15.24,15.23l0 175.64c0,8.41 -6.83,15.24 -15.24,15.24l-26.82 0c-6.28,0 -11.91,-3.87 -14.2,-9.72l-45.93 -64.16c-2.31,-3.23 -6.46,-4.6 -10.24,-3.38 -3.78,1.22 -6.34,4.73 -6.34,8.72l0 53.3c0,4.02 -1.61,7.92 -4.45,10.76 -2.84,2.86 -6.73,4.48 -10.79,4.48l-26.79 0c-8.44,0 -15.23,-6.83 -15.23,-15.24z"
   id="path113" />
 </g>
 <g
   id="Haupt_x0020_Desktop">
 </g>
<path
   style="fill:none;fill-opacity:0.75;fill-rule:evenodd;stroke:#000000;stroke-width:28.22222383;stroke-linecap:butt;stroke-linejoin:miter;stroke-opacity:1;stroke-miterlimit:4;stroke-dasharray:none"
   d="M 7258.0642,9640.1985 L 10235.732,9640.1985"
   id="path1418" /><path
   style="fill:none;fill-opacity:0.75;fill-rule:evenodd;stroke:#000000;stroke-width:28.22222383;stroke-linecap:butt;stroke-linejoin:miter;stroke-opacity:1;stroke-miterlimit:4;stroke-dasharray:none"
   d="M 5657.5679,7816.3772 L 10235.732,6736.9727"
   id="path1420" /><path
   style="fill:none;fill-opacity:0.75;fill-rule:evenodd;stroke:#000000;stroke-width:28.22222383;stroke-linecap:butt;stroke-linejoin:miter;stroke-opacity:1;stroke-miterlimit:4;stroke-dasharray:none"
   d="M 5545.9053,11501.241 L 10272.952,12915.633"
   id="path1422" /><path
   style="fill:none;fill-opacity:0.75;fill-rule:evenodd;stroke:#000000;stroke-width:28.22222383;stroke-linecap:butt;stroke-linejoin:miter;stroke-opacity:1;stroke-miterlimit:4;stroke-dasharray:none"
   d="M 3796.5257,9714.6402 L 37.220482,9714.6402"
   id="path1424" /><path
   style="fill:none;fill-opacity:0.75;fill-rule:evenodd;stroke:#000000;stroke-width:28.22222383;stroke-linecap:butt;stroke-linejoin:miter;stroke-opacity:1;stroke-miterlimit:4;stroke-dasharray:none"
   d="M 2531.017,8486.3524 L -74.442049,7295.2854"
   id="path1426" /><path
   style="fill:none;fill-opacity:0.75;fill-rule:evenodd;stroke:#000000;stroke-width:28.22222383;stroke-linecap:butt;stroke-linejoin:miter;stroke-opacity:1;stroke-miterlimit:4;stroke-dasharray:none"
   d="M 2568.2379,10645.161 L -0.00036173505,11464.02"
   id="path1428" /><text
   xml:space="preserve"
   style="font-size:790.22229004px;font-style:normal;font-variant:normal;font-weight:normal;font-stretch:normal;text-align:start;line-height:100%;writing-mode:lr-tb;text-anchor:start;fill:#000000;fill-opacity:1;stroke:none;stroke-width:1px;stroke-linecap:butt;stroke-linejoin:miter;stroke-opacity:1;font-family:URW Palladio L"
   x="-2419.3552"
   y="7034.7393"
   id="text2303"
   sodipodi:linespacing="100%"><tspan
     sodipodi:role="line"
     id="tspan2305"
     x="-2419.3552"
     y="7034.7393">On</tspan></text>
<text
   xml:space="preserve"
   style="font-size:790.22229004px;font-style:normal;font-variant:normal;font-weight:normal;font-stretch:normal;text-align:start;line-height:100%;writing-mode:lr-tb;text-anchor:start;fill:#000000;fill-opacity:1;stroke:none;stroke-width:1px;stroke-linecap:butt;stroke-linejoin:miter;stroke-opacity:1;font-family:URW Palladio L"
   x="-2582.3499"
   y="9808.2754"
   id="text2307"
   sodipodi:linespacing="100%"><tspan
     sodipodi:role="line"
     id="tspan2309"
     x="-2582.3499"
     y="9808.2754">Minus</tspan></text>
<text
   xml:space="preserve"
   style="font-size:790.22229004px;font-style:normal;font-variant:normal;font-weight:normal;font-stretch:normal;text-align:start;line-height:100%;writing-mode:lr-tb;text-anchor:start;fill:#000000;fill-opacity:1;stroke:none;stroke-width:1px;stroke-linecap:butt;stroke-linejoin:miter;stroke-opacity:1;font-family:URW Palladio L"
   x="-2545.1289"
   y="12078.746"
   id="text2311"
   sodipodi:linespacing="100%"><tspan
     sodipodi:role="line"
     id="tspan2313"
     x="-2545.1289"
     y="12078.746">Menu</tspan></text>
<text
   xml:space="preserve"
   style="font-size:790.22229004px;font-style:normal;font-variant:normal;font-weight:normal;font-stretch:normal;text-align:start;line-height:100%;writing-mode:lr-tb;text-anchor:start;fill:#000000;fill-opacity:1;stroke:none;stroke-width:1px;stroke-linecap:butt;stroke-linejoin:miter;stroke-opacity:1;font-family:URW Palladio L"
   x="10519.388"
   y="6867.8281"
   id="text2315"
   sodipodi:linespacing="100%"><tspan
     sodipodi:role="line"
     id="tspan2317"
     x="10519.388"
     y="6867.8281">Play</tspan></text>
<text
   xml:space="preserve"
   style="font-size:790.22229004px;font-style:normal;font-variant:normal;font-weight:normal;font-stretch:normal;text-align:start;line-height:100%;writing-mode:lr-tb;text-anchor:start;fill:#000000;fill-opacity:1;stroke:none;stroke-width:1px;stroke-linecap:butt;stroke-linejoin:miter;stroke-opacity:1;font-family:URW Palladio L"
   x="10444.945"
   y="9845.4961"
   id="text2319"
   sodipodi:linespacing="100%"><tspan
     sodipodi:role="line"
     id="tspan2321"
     x="10444.945"
     y="9845.4961">Plus</tspan></text>
<text
   xml:space="preserve"
   style="font-size:790.22229004px;font-style:normal;font-variant:normal;font-weight:normal;font-stretch:normal;text-align:start;line-height:100%;writing-mode:lr-tb;text-anchor:start;fill:#000000;fill-opacity:1;stroke:none;stroke-width:1px;stroke-linecap:butt;stroke-linejoin:miter;stroke-opacity:1;font-family:URW Palladio L"
   x="10444.945"
   y="13158.15"
   id="text2323"
   sodipodi:linespacing="100%"><tspan
     sodipodi:role="line"
     id="tspan2325"
     x="10444.945"
     y="13158.15">Stop</tspan></text>
</svg>