<?xml version="1.0" encoding="UTF-8" standalone="no"?>
<!-- Creator: CorelDRAW -->
<svg
   xmlns:dc="http://purl.org/dc/elements/1.1/"
   xmlns:cc="http://web.resource.org/cc/"
   xmlns:rdf="http://www.w3.org/1999/02/22-rdf-syntax-ns#"
   xmlns:svg="http://www.w3.org/2000/svg"
   xmlns="http://www.w3.org/2000/svg"
   xmlns:sodipodi="http://inkscape.sourceforge.net/DTD/sodipodi-0.dtd"
   xmlns:inkscape="http://www.inkscape.org/namespaces/inkscape"
   xml:space="preserve"
   width="102mm"
   height="150mm"
   shape-rendering="geometricPrecision"
   text-rendering="geometricPrecision"
   image-rendering="optimizeQuality"
   fill-rule="evenodd"
   viewBox="0 0 10200 15000"
   id="svg2759"
   sodipodi:version="0.32"
   inkscape:version="0.43"
   sodipodi:docname="recorderv2fm-front.svg"
   sodipodi:docbase="/home/martin/src/dev/pics/pixelma"><metadata
   id="metadata2911"><rdf:RDF><cc:Work
       rdf:about=""><dc:format>image/svg+xml</dc:format><dc:type
         rdf:resource="http://purl.org/dc/dcmitype/StillImage" /></cc:Work></rdf:RDF></metadata><defs
   id="defs2909" /><sodipodi:namedview
   inkscape:window-height="572"
   inkscape:window-width="746"
   inkscape:pageshadow="2"
   inkscape:pageopacity="0.0"
   borderopacity="1.0"
   bordercolor="#666666"
   pagecolor="#ffffff"
   id="base"
   inkscape:zoom="0.75823708"
   inkscape:cx="180.70866"
   inkscape:cy="265.74802"
   inkscape:window-x="252"
   inkscape:window-y="72"
   inkscape:current-layer="svg2759" />
 <g
   id="Ebene_x0020_1">
  <defs
   id="defs2762">
   <linearGradient
   id="id0"
   gradientUnits="userSpaceOnUse"
   x1="5100.01"
   y1="798.13"
   x2="5100.01"
   y2="482.79">
    <stop
   offset="0"
   stop-color="#E8E8E8"
   id="stop2765" />
    <stop
   offset="1"
   stop-color="#878787"
   id="stop2767" />
   </linearGradient>
   <linearGradient
   id="id1"
   gradientUnits="userSpaceOnUse"
   x1="5099.97"
   y1="13793.6"
   x2="5099.97"
   y2="14430.1">
    <stop
   offset="0"
   stop-color="#E8E8E8"
   id="stop2770" />
    <stop
   offset="1"
   stop-color="#878787"
   id="stop2772" />
   </linearGradient>
   <linearGradient
   id="id2"
   gradientUnits="userSpaceOnUse"
   x1="738.71"
   y1="7493.67"
   x2="320.29"
   y2="7493.67">
    <stop
   offset="0"
   stop-color="#E8E8E8"
   id="stop2775" />
    <stop
   offset="1"
   stop-color="#878787"
   id="stop2777" />
   </linearGradient>
   <linearGradient
   id="id3"
   gradientUnits="userSpaceOnUse"
   x1="9461.3"
   y1="7493.68"
   x2="9886.86"
   y2="7493.68">
    <stop
   offset="0"
   stop-color="#E8E8E8"
   id="stop2780" />
    <stop
   offset="1"
   stop-color="#878787"
   id="stop2782" />
   </linearGradient>
   <linearGradient
   id="id4"
   gradientUnits="userSpaceOnUse"
   x1="461.93"
   y1="10940.7"
   x2="461.93"
   y2="9889.71">
    <stop
   offset="0"
   stop-color="#878787"
   id="stop2785" />
    <stop
   offset="0.501961"
   stop-color="#E8E8E8"
   id="stop2787" />
    <stop
   offset="1"
   stop-color="#B3B3B3"
   id="stop2789" />
   </linearGradient>
   <linearGradient
   id="id5"
   gradientUnits="userSpaceOnUse"
   x1="5100"
   y1="369.23"
   x2="5100"
   y2="541.37">
    <stop
   offset="0"
   stop-color="#8A8A8A"
   id="stop2792" />
    <stop
   offset="1"
   stop-color="#9C9C9C"
   id="stop2794" />
   </linearGradient>
   <linearGradient
   id="id6"
   gradientUnits="userSpaceOnUse"
   x1="5100.01"
   y1="13577.3"
   x2="5100.01"
   y2="14002.7">
    <stop
   offset="0"
   stop-color="#8A8A8A"
   id="stop2797" />
    <stop
   offset="0.329412"
   stop-color="#9E9E9E"
   id="stop2799" />
    <stop
   offset="1"
   stop-color="#B3B3B3"
   id="stop2801" />
   </linearGradient>
  </defs>
  <path
   fill="url(#id0)"
   stroke="#000000"
   stroke-width="18"
   stroke-linejoin="bevel"
   d="M5526.85 798.13l2213.79 0c-2.57,-7.85 -5.13,-15.71 -7.7,-23.57 -30.45,-73.85 -44.75,-153.35 -41.94,-233.18l-2060.04 -0.02 0 0c-19.84,-2.5 -38.22,-11.7 -52.15,-26.03 -24.41,-21.39 -56.11,-32.55 -88.53,-31.17l0 0 -780.54 0 0 0c-32.43,-1.38 -64.13,9.78 -88.54,31.17l0 0c-13.93,14.33 -32.31,23.53 -52.15,26.03l-2060.04 0.02c2.81,79.83 -11.48,159.33 -41.93,233.18 -2.57,7.86 -5.13,15.72 -7.7,23.57l2213.75 0 -2.04 -39.5c-0.43,-19.51 7.19,-38.31 21.09,-52.03 13.87,-13.71 32.76,-21.09 52.27,-20.45l711.11 0c19.48,-0.64 38.41,6.75 52.27,20.45 13.86,13.71 21.49,32.52 21.09,52.03l-2.07 39.5z"
   id="path2803" />
  <path
   fill="url(#id1)"
   stroke="#000000"
   stroke-width="18"
   stroke-linejoin="bevel"
   d="M2459.11 14194.7c1746.61,313.8 3535.16,313.81 5281.76,0.01 43.68,-133.59 86.93,-267.31 129.77,-401.17 -1837.12,271.58 -3704.21,271.57 -5541.34,-0.01 42.85,133.87 86.13,267.57 129.81,401.17z"
   id="path2805" />
  <path
   fill="url(#id2)"
   stroke="#000000"
   stroke-width="18"
   stroke-linejoin="bevel"
   d="M737.33 3241.95l1.38 6.26c-104.99,2831.42 -105.06,5665.75 -0.23,8497.17 -102.8,-9.15 -198.13,-57.53 -266.21,-135.1l-11.51 -203.32c-0.1,0.05 -0.2,0.12 -0.3,0.17 -7.95,-144.29 -15.51,-288.58 -22.58,-432.92 78.77,-153.82 124.14,-322.55 133.15,-495.13 -0.27,-45.98 -4.49,-91.84 -12.62,-137.1 -35.81,-168.02 -91.71,-331.13 -166.47,-485.81 -71.65,-2157.71 -44.84,-4317.57 80.33,-6472.84l1.17 -7.71c67.75,-76.51 162.12,-124.31 263.89,-133.67z"
   id="path2807" />
  <path
   fill="url(#id3)"
   stroke="#000000"
   stroke-width="18"
   stroke-linejoin="bevel"
   d="M9726.11 3375.11l1.63 8.22c155.2,2672.3 159.12,5351.17 11.82,8023.81 -0.11,-0.05 -0.21,-0.12 -0.32,-0.18l-11.51 203.32c-68.08,77.57 -163.4,125.94 -266.19,135.1 104.83,-2831.42 104.75,-5665.75 -0.24,-8497.17l1.66 -6.24c101.43,9.4 195.5,56.99 263.15,133.14z"
   id="path2809" />
  <path
   fill="url(#id4)"
   stroke="#000000"
   stroke-width="18"
   stroke-linejoin="bevel"
   d="M437.88 10974.2l-54.57 0c-16.84,0 -30.48,-13.64 -30.48,-30.47l0 -1057.09c0,-16.83 13.64,-30.48 30.48,-30.48l8.63 0c74.76,154.68 130.66,317.79 166.47,485.81 8.13,45.26 12.35,91.12 12.62,137.1 -9.01,172.58 -54.38,341.31 -133.15,495.13z"
   id="path2811" />
  <path
   fill="url(#id5)"
   stroke="#000000"
   stroke-width="18"
   stroke-linejoin="bevel"
   d="M6334.21 541.37l0 -19.05c-1.48,-13.29 -8.51,-25.32 -19.35,-33.14 -52.45,-37.82 -106.93,-72.75 -163.19,-104.63 -19.66,-9.09 -40.88,-14.29 -62.5,-15.32l-1978.32 0c-21.63,1.03 -42.85,6.23 -62.5,15.32 -56.27,31.88 -110.75,66.81 -163.2,104.63 -10.84,7.82 -17.87,19.85 -19.35,33.14l0 19.05 703.25 -0.01c19.84,-2.5 38.22,-11.7 52.15,-26.03l0 0c24.41,-21.39 56.11,-32.55 88.54,-31.17l0 0 780.54 0 0 0c32.42,-1.38 64.12,9.78 88.53,31.17 13.93,14.33 32.31,23.53 52.15,26.03l0 0 703.25 0.01z"
   id="path2813" />
  <path
   fill="url(#id6)"
   stroke="#000000"
   stroke-width="18"
   stroke-linejoin="bevel"
   d="M5891.82 13980.7c-184.18,-253.43 -478.53,-403.38 -791.81,-403.38 -313.28,0 -607.63,149.95 -791.81,403.37 527.64,22.07 1055.97,22.08 1583.62,0.01z"
   id="path2815" />
  <path
   fill="#E8E8E8"
   d="M2500.86 651.76l1.09 0c-6.89,42.01 -18.55,83.22 -34.87,122.8 -2.57,7.86 -5.13,15.72 -7.7,23.57l2213.75 0 -2.04 -39.5c-0.43,-19.51 7.19,-38.31 21.09,-52.03 13.87,-13.71 32.76,-21.09 52.27,-20.45l711.11 0c19.48,-0.64 38.41,6.75 52.27,20.45 13.86,13.71 21.49,32.52 21.09,52.03l-2.07 39.5 2213.79 0c-2.57,-7.85 -5.13,-15.71 -7.7,-23.57 -16.32,-39.58 -28.01,-80.79 -34.91,-122.8l1.08 0c7.01,39.8 18.33,78.84 33.82,116.41 244.45,746.75 475.95,1497.68 694.39,2252.46 40.11,95.5 132.57,158.54 236.13,160.99 266.7,8.29 532.91,28.38 797.84,60.2l1.67 0.15 -1.66 6.24c104.99,2831.42 105.07,5665.75 0.24,8497.17 -0.08,0 -0.17,0.01 -0.25,0.02 -264.93,31.82 -531.14,51.91 -797.84,60.2 -103.56,2.45 -196.02,65.49 -236.13,160.99 -177.01,611.58 -362.62,1220.63 -556.72,1826.99 -656.68,97.07 -1317.21,159.4 -1978.81,187.07 -184.18,-253.41 -478.51,-403.35 -791.78,-403.35 -313.27,0 -607.61,149.94 -791.79,403.34 -661.62,-27.66 -1322.14,-89.99 -1978.85,-187.07 -194.09,-606.37 -379.69,-1215.38 -556.69,-1826.98 -40.11,-95.5 -132.57,-158.54 -236.13,-160.99 -266.7,-8.29 -532.91,-28.38 -797.84,-60.2 -0.08,-0.01 -0.15,-0.01 -0.23,-0.02 -104.83,-2831.42 -104.76,-5665.75 0.23,-8497.17l-1.38 -6.26 1.38 -0.13c264.93,-31.82 531.14,-51.91 797.84,-60.2 103.56,-2.45 196.02,-65.49 236.13,-160.99 218.44,-754.78 449.94,-1505.71 694.39,-2252.46 15.49,-37.57 26.78,-76.61 33.79,-116.41zm874.29 9944.92c60.13,167.48 144.33,325.31 249.95,468.52 22.74,30.83 23.84,72.57 2.77,104.56 -107.69,163.5 -316.18,227.7 -497.18,153.08 -181,-74.62 -283.68,-267.11 -244.86,-458.99 38.81,-191.88 208.24,-329.31 404.02,-327.7 38.3,0.31 72.35,24.47 85.3,60.53zm2775.88 -2725.04l0 -235.28c0,-50.49 40.93,-91.43 91.42,-91.43l1136.07 0c100.99,0 182.85,81.87 182.85,182.86l0 52.42c0,100.99 -81.86,182.86 -182.85,182.86l-1136.07 0c-50.49,0 -91.42,-40.94 -91.42,-91.43zm-1703.57 -235.28l0 235.28c0,50.49 40.94,91.43 91.43,91.43l1122.23 0c50.49,0 91.42,-40.94 91.42,-91.43l0 -235.28c0,-50.49 -40.93,-91.43 -91.42,-91.43l-1122.23 0c-50.49,0 -91.43,40.94 -91.43,91.43zm-1808.83 143.85c0,100.99 81.87,182.86 182.86,182.86l1136.06 0c50.5,0 91.43,-40.94 91.43,-91.43l0 -235.28c0,-50.49 -40.93,-91.43 -91.43,-91.43l-1136.06 0c-100.99,0 -182.86,81.87 -182.86,182.86l0 52.42zm2952.7 2197.21c0,-271.35 -219.97,-491.33 -491.33,-491.33 -271.35,0 -491.33,219.98 -491.33,491.33 0,271.36 219.98,491.33 491.33,491.33 271.36,0 491.33,-219.97 491.33,-491.33zm1213.46 50.76l65.65 -37.56 0 0c4.75,-2.71 7.67,-7.76 7.67,-13.22 0,-5.47 -2.92,-10.51 -7.67,-13.23l0 0 -65.65 -37.56c-10.68,-359.91 -134.89,-717.16 -372.81,-1014.61 -16.24,-20.31 -40.37,-32.74 -66.34,-34.18 -25.97,-1.44 -51.32,8.24 -69.71,26.64l-300.42 300.42c-31.98,31.97 -35.78,82.51 -8.95,118.91 286.53,388.64 286.53,918.59 0,1307.23 -26.83,36.4 -23.03,86.94 8.95,118.91l300.42 300.42c18.39,18.39 43.74,28.08 69.71,26.64 25.97,-1.44 50.1,-13.87 66.34,-34.18 237.93,-297.47 362.13,-654.7 372.81,-1014.63zm-1755.57 1654.01l37.56 65.65 0 0c2.71,4.75 7.76,7.67 13.22,7.67 5.47,0 10.51,-2.92 13.23,-7.67l0 0 37.56 -65.65c359.91,-10.68 717.16,-134.89 1014.61,-372.81 20.31,-16.24 32.74,-40.37 34.18,-66.34 1.44,-25.97 -8.24,-51.32 -26.64,-69.71l-300.42 -300.42c-31.97,-31.98 -82.51,-35.78 -118.91,-8.95 -388.64,286.53 -918.59,286.53 -1307.23,0 -36.4,-26.83 -86.94,-23.03 -118.91,8.95l-300.42 300.42c-18.39,18.39 -28.08,43.74 -26.64,69.71 1.44,25.97 13.87,50.1 34.18,66.34 297.47,237.93 654.7,362.13 1014.63,372.81zm-1654.01 -1755.57l-65.65 37.56 0 0c-4.75,2.71 -7.67,7.76 -7.67,13.22 0,5.47 2.92,10.51 7.67,13.23l0 0 65.65 37.56c10.68,359.91 134.89,717.16 372.81,1014.61 16.24,20.31 40.37,32.74 66.34,34.18 25.97,1.44 51.32,-8.24 69.71,-26.64l300.42 -300.42c31.98,-31.97 35.78,-82.51 8.95,-118.91 -286.53,-388.64 -286.53,-918.59 0,-1307.23 26.83,-36.4 23.03,-86.94 -8.95,-118.91l-300.42 -300.42c-18.39,-18.39 -43.74,-28.08 -69.71,-26.64 -25.97,1.44 -50.1,13.87 -66.34,34.18 -237.93,297.47 -362.13,654.7 -372.81,1014.63zm1755.57 -1654.01l-37.56 -65.65 0 0c-2.71,-4.75 -7.76,-7.67 -13.22,-7.67 -5.47,0 -10.51,2.92 -13.23,7.67l0 0 -37.56 65.65c-359.91,10.68 -717.16,134.89 -1014.61,372.81 -20.31,16.24 -32.74,40.37 -34.18,66.34 -1.44,25.97 8.24,51.32 26.64,69.71l300.42 300.42c31.97,31.98 82.51,35.78 118.91,8.95 388.64,-286.53 918.59,-286.53 1307.23,0 36.4,26.83 86.94,23.03 118.91,-8.95l300.42 -300.42c18.39,-18.39 28.08,-43.74 26.64,-69.71 -1.44,-25.97 -13.87,-50.1 -34.18,-66.34 -297.47,-237.93 -654.7,-362.13 -1014.63,-372.81zm-592.17 3520.23c3.48,195.75 -132.34,366.48 -323.83,407.12 -191.52,40.64 -384.96,-60.17 -461.31,-240.45 -76.34,-180.28 -14.15,-389.38 148.32,-498.63 31.79,-21.37 73.53,-20.66 104.58,1.78 144.21,104.25 302.84,186.93 470.89,245.46 36.18,12.6 60.66,46.42 61.35,84.72zm676.55 -10161.2c0,-74.64 -60.52,-135.16 -135.16,-135.16 -74.64,0 -135.13,60.52 -135.13,135.16 0,74.64 60.49,135.13 135.13,135.13 74.64,0 135.16,-60.49 135.16,-135.13zm-681.71 -490.05c0,-74.64 -60.5,-135.17 -135.14,-135.17 -74.64,0 -135.16,60.53 -135.16,135.17 0,74.64 60.52,135.13 135.16,135.13 74.64,0 135.14,-60.49 135.14,-135.13zm1284.24 0c0,-74.64 -60.49,-135.17 -135.13,-135.17 -74.64,0 -135.17,60.53 -135.17,135.17 0,74.64 60.53,135.13 135.17,135.13 74.64,0 135.13,-60.49 135.13,-135.13zm2172.55 1183.17c-1915.89,-433.94 -3904.57,-433.94 -5820.46,0 -109.01,24.69 -195.76,107.07 -226.04,214.67 -278.39,989.15 -486.27,1996.8 -622.08,3015.37 -19.53,146.49 68.85,285.87 209.67,330.69 2308.73,734.76 4788.62,734.76 7097.36,0 140.82,-44.82 229.19,-184.2 209.66,-330.69 -135.8,-1018.57 -343.68,-2026.22 -622.07,-3015.37 -30.28,-107.6 -117.03,-189.98 -226.04,-214.67z"
   id="path2817" />
  <path
   fill="#566B68"
   stroke="#000000"
   stroke-width="18"
   stroke-linejoin="bevel"
   d="M3249.3 2707.27l3701.4 0 0 2915.26 -3701.4 0 0 -2915.26z"
   id="path2819" />
  <path
   fill="#D7F791"
   stroke="#000000"
   stroke-width="18"
   stroke-linejoin="bevel"
   d="M5837.69 1141.6c0,-74.64 -60.49,-135.17 -135.13,-135.17 -74.64,0 -135.17,60.53 -135.17,135.17 0,74.64 60.53,135.13 135.17,135.13 74.64,0 135.13,-60.49 135.13,-135.13z"
   id="path2821" />
  <path
   fill="#EB7373"
   stroke="#000000"
   stroke-width="18"
   stroke-linejoin="bevel"
   d="M4553.45 1141.6c0,-74.64 -60.5,-135.17 -135.14,-135.17 -74.64,0 -135.16,60.53 -135.16,135.17 0,74.64 60.52,135.13 135.16,135.13 74.64,0 135.14,-60.49 135.14,-135.13z"
   id="path2823" />
  <path
   fill="#000000"
   stroke="#000000"
   stroke-width="18"
   stroke-linejoin="bevel"
   d="M5184.91 1631.65c0,-46.9 -38.01,-84.91 -84.91,-84.91 -46.87,0 -84.91,38.01 -84.91,84.91 0,46.87 38.04,84.91 84.91,84.91 46.9,0 84.91,-38.04 84.91,-84.91z"
   id="path2825" />
  <path
   fill="#B8B2B2"
   stroke="#000000"
   stroke-width="18"
   stroke-linejoin="bevel"
   d="M5235.16 1631.65c0,-74.64 -60.52,-135.16 -135.16,-135.16 -74.64,0 -135.13,60.52 -135.13,135.16 0,74.64 60.49,135.13 135.13,135.13 74.64,0 135.16,-60.49 135.16,-135.13zm-50.25 0c0,-46.9 -38.01,-84.91 -84.91,-84.91 -46.87,0 -84.91,38.01 -84.91,84.91 0,46.87 38.04,84.91 84.91,84.91 46.9,0 84.91,-38.04 84.91,-84.91z"
   id="path2827" />
  <path
   fill="#1F2A47"
   stroke="#000000"
   stroke-width="18"
   stroke-linejoin="bevel"
   d="M8010.24 2324.77c-1915.89,-433.94 -3904.57,-433.94 -5820.46,0 -109.01,24.69 -195.76,107.07 -226.04,214.67 -278.39,989.15 -486.27,1996.8 -622.08,3015.37 -19.53,146.49 68.85,285.87 209.67,330.69 2308.73,734.76 4788.62,734.76 7097.36,0 140.82,-44.82 229.19,-184.2 209.66,-330.69 -135.8,-1018.57 -343.68,-2026.22 -622.07,-3015.37 -30.28,-107.6 -117.03,-189.98 -226.04,-214.67zm-4760.94 382.5l3701.4 0 0 2915.26 -3701.4 0 0 -2915.26z"
   id="path2829" />
  <path
   fill="#1F2A47"
   stroke="#000000"
   stroke-width="18"
   stroke-linejoin="bevel"
   d="M2329.37 13793.6c-194.09,-606.37 -379.69,-1215.38 -556.69,-1826.98 -40.11,-95.5 -132.57,-158.54 -236.13,-160.99 -266.7,-8.29 -532.91,-28.38 -797.84,-60.2 -0.08,-0.01 -0.15,-0.01 -0.23,-0.02 -102.8,-9.15 -198.13,-57.53 -266.21,-135.1l-11.51 -203.32c-0.05,0.03 -0.1,0.06 -0.15,0.09 -0.05,0.03 -0.1,0.06 -0.15,0.08 -130.7,75.02 -233.18,204.03 -259.99,352.32 -17.88,92.17 -24.37,186.2 -19.32,279.95 53.3,682.82 140.09,1362.61 260.05,2036.91 27.08,126.1 100.94,237.25 206.71,311.06 123.99,66.76 260.03,108.19 400.19,121.88 373.39,43.88 746.91,86.7 1120.55,128.46 81.38,10.15 163.98,-2.41 238.67,-36.29 55.75,-33.71 93.16,-90.92 101.69,-155.51l0 0c24.65,-75.96 42.98,-153.84 54.76,-232.82 -34.9,-6.02 -69.79,-12.1 -104.66,-18.36 -43.68,-133.6 -86.96,-267.3 -129.81,-401.17 0.02,0 0.05,0.01 0.07,0.01zm-1590.89 -2048.4c-0.01,-0.23 -0.02,-0.49 -0.03,-0.72 0.01,0.24 0.02,0.48 0.03,0.72zm-0.03 -0.81c-0.08,-2.14 -0.15,-4.3 -0.24,-6.44 0.08,2.15 0.16,4.29 0.24,6.44z"
   id="path2831" />
  <path
   fill="#1F2A47"
   stroke="#000000"
   stroke-width="18"
   stroke-linejoin="bevel"
   d="M7636.23 14213.1c11.78,78.97 30.11,156.85 54.76,232.81l0 0c8.53,64.59 45.94,121.8 101.69,155.51 74.69,33.88 157.29,46.44 238.67,36.29 373.64,-41.76 747.16,-84.58 1120.55,-128.46 140.16,-13.69 276.2,-55.12 400.19,-121.88 105.77,-73.81 179.63,-184.96 206.71,-311.06 119.96,-674.3 206.75,-1354.09 260.05,-2036.91 5.05,-93.75 -1.44,-187.78 -19.32,-279.95 -26.83,-148.41 -129.13,-277.32 -259.97,-352.31l-0.33 0.07 -11.08 195.74 10.87 1.06c-32.16,36.64 -70.41,66.78 -112.64,89.34 -0.02,0 -0.03,0.01 -0.05,0.02 -0.65,0.37 -1.31,0.76 -1.96,1.13 -0.14,0.08 -0.27,0.15 -0.41,0.23 -0.79,0.45 -1.56,0.88 -2.35,1.32 -0.79,0.44 -1.59,0.88 -2.38,1.32 -0.79,0.43 -1.57,0.86 -2.37,1.29 -0.27,0.14 -0.53,0.3 -0.8,0.44 -0.53,0.28 -1.07,0.57 -1.6,0.85 -0.8,0.42 -1.58,0.84 -2.38,1.26 -0.07,0.04 -0.15,0.08 -0.22,0.12 -0.73,0.38 -1.46,0.76 -2.19,1.13 -0.68,0.35 -1.34,0.68 -2.02,1.03 -0.13,0.06 -0.25,0.13 -0.38,0.19 -0.81,0.41 -1.62,0.83 -2.43,1.23 -0.48,0.24 -0.97,0.48 -1.45,0.72 -0.33,0.16 -0.65,0.32 -0.98,0.48 -0.81,0.4 -1.63,0.79 -2.45,1.18 -0.28,0.14 -0.55,0.27 -0.84,0.41 -0.53,0.25 -1.05,0.5 -1.59,0.75 -1.63,0.77 -3.27,1.53 -4.91,2.28 -0.71,0.32 -1.42,0.65 -2.13,0.97 -0.11,0.05 -0.23,0.1 -0.34,0.15 -0.82,0.37 -1.64,0.73 -2.46,1.09 -1.66,0.73 -3.32,1.45 -4.99,2.16 -0.31,0.13 -0.62,0.27 -0.93,0.4 -0.52,0.22 -1.06,0.44 -1.58,0.66 -0.15,0.06 -0.31,0.13 -0.46,0.19 -1.24,0.52 -2.48,1.02 -3.73,1.53 -0.27,0.11 -0.55,0.22 -0.82,0.33 -0.74,0.29 -1.47,0.58 -2.21,0.87 -0.1,0.04 -0.2,0.08 -0.3,0.12 -0.84,0.33 -1.69,0.67 -2.53,0.99 -0.54,0.21 -1.08,0.42 -1.62,0.62 -0.3,0.11 -0.6,0.22 -0.9,0.33 -0.84,0.32 -1.7,0.64 -2.55,0.96 -0.33,0.12 -0.67,0.25 -1,0.37 -0.51,0.19 -1.03,0.38 -1.54,0.56 -0.85,0.31 -1.71,0.62 -2.56,0.92 -0.13,0.05 -0.26,0.09 -0.39,0.14 -0.72,0.25 -1.43,0.5 -2.16,0.75 -0.77,0.27 -1.55,0.53 -2.33,0.79 -0.08,0.03 -0.17,0.07 -0.25,0.09 -0.86,0.29 -1.71,0.58 -2.57,0.86 -0.57,0.19 -1.14,0.39 -1.71,0.57 -0.29,0.09 -0.58,0.19 -0.87,0.28 -0.86,0.28 -1.71,0.53 -2.57,0.81 -0.36,0.11 -0.73,0.24 -1.09,0.35 -0.5,0.16 -1.01,0.31 -1.52,0.47 -0.86,0.27 -1.73,0.54 -2.6,0.8 -0.15,0.04 -0.29,0.1 -0.44,0.14 -0.3,0.09 -0.61,0.17 -0.91,0.26 -1.22,0.36 -2.43,0.71 -3.65,1.06 -0.07,0.02 -0.14,0.05 -0.21,0.07 -1.39,0.4 -2.8,0.8 -4.19,1.18 -0.07,0.02 -0.14,0.04 -0.21,0.06 -0.28,0.08 -0.56,0.15 -0.84,0.23 -1.25,0.34 -2.52,0.68 -3.77,1 -0.5,0.13 -0.99,0.26 -1.48,0.39 -0.88,0.23 -1.78,0.46 -2.66,0.68 -0.17,0.04 -0.33,0.08 -0.5,0.13 -0.71,0.18 -1.43,0.34 -2.14,0.52 -0.83,0.2 -1.66,0.4 -2.49,0.59 -4.48,1.06 -8.95,2.04 -13.47,2.95 -0.19,0.03 -0.39,0.07 -0.58,0.11 -3.06,0.61 -6.16,1.2 -9.24,1.74 -0.06,0.01 -0.13,0.02 -0.19,0.03 -0.25,0.04 -0.5,0.09 -0.75,0.13 -0.9,0.16 -1.81,0.31 -2.71,0.46 -0.42,0.07 -0.85,0.14 -1.27,0.21 -0.48,0.08 -0.95,0.15 -1.43,0.23 -0.9,0.14 -1.81,0.28 -2.71,0.42 -0.9,0.14 -1.8,0.26 -2.7,0.39 -0.89,0.13 -1.78,0.26 -2.67,0.38 -0.02,0 -0.04,0.01 -0.06,0.01 -0.9,0.12 -1.82,0.24 -2.72,0.36 -0.67,0.09 -1.34,0.18 -2.01,0.26 -4.78,0.59 -9.55,1.08 -14.37,1.53 0.03,-0.82 0.06,-1.64 0.09,-2.44 0,-0.01 0,-0.01 0,-0.01 0,0 0,0 0,0.01 -0.03,0.81 -0.06,1.61 -0.09,2.44 -0.08,0 -0.17,0.01 -0.25,0.02 -264.93,31.82 -531.14,51.91 -797.84,60.2 -41.19,0.97 -80.64,11.56 -115.73,29.94 -47.93,28.19 -86.69,71.4 -109.11,124.78 -215.41,744.3 -443.51,1484.86 -684.22,2221.36l-6.48 -8.57c-2.35,7.2 -4.68,14.43 -7.04,21.63 -34.86,6.26 -69.74,12.35 -104.64,18.36zm1985.38 -2517.05c-0.79,0.44 -1.59,0.89 -2.38,1.32m-133.16 45.08c-0.9,0.14 -1.79,0.26 -2.7,0.39m-21.65 -2.4c-0.03,0.72 -0.07,1.48 -0.09,2.21 0.02,-0.73 0.06,-1.48 0.09,-2.21zm-0.09 2.21c0,0.05 0,0.07 0,0.12 0,-0.05 0,-0.07 0,-0.12z"
   id="path2833" />
  <path
   fill="#1F2A47"
   stroke="#000000"
   stroke-width="18"
   stroke-linejoin="bevel"
   d="M9727.73 3376.94l11.51 203.32c136.84,-73.78 232.64,-205.83 260.29,-358.81 17.88,-92.17 24.37,-186.2 19.32,-279.95 -53.3,-682.82 -140.09,-1362.61 -260.05,-2036.91 -27.08,-126.1 -100.94,-237.25 -206.71,-311.06 -123.99,-66.76 -260.03,-108.19 -400.19,-121.88 -373.39,-43.88 -746.91,-86.7 -1120.55,-128.46 -81.38,-10.15 -163.98,2.41 -238.67,36.29 -55.75,33.71 -93.16,90.92 -101.69,155.51 0,0 0,0 0,0 -2.81,79.83 11.49,159.33 41.94,233.18 244.45,746.75 475.95,1497.68 694.39,2252.46 40.11,95.5 132.57,158.54 236.13,160.99 266.7,8.29 532.91,28.38 797.84,60.2 102.88,9.1 198.31,57.49 266.44,135.12z"
   id="path2835" />
  <path
   fill="#1F2A47"
   stroke="#000000"
   stroke-width="18"
   stroke-linejoin="bevel"
   d="M472.27 3376.94l-11.51 203.32c-136.84,-73.78 -232.64,-205.83 -260.29,-358.81 -17.88,-92.17 -24.37,-186.2 -19.32,-279.95 53.3,-682.82 140.09,-1362.61 260.05,-2036.91 27.08,-126.1 100.94,-237.25 206.71,-311.06 123.99,-66.76 260.03,-108.19 400.19,-121.88 373.39,-43.88 746.91,-86.7 1120.55,-128.46 81.38,-10.15 163.98,2.41 238.67,36.29 55.75,33.71 93.16,90.92 101.69,155.51 0,0 0,0 0,0 2.81,79.83 -11.49,159.33 -41.94,233.18 -244.45,746.75 -475.95,1497.68 -694.39,2252.46 -40.11,95.5 -132.57,158.54 -236.13,160.99 -266.7,8.29 -532.91,28.38 -797.84,60.2 -102.88,9.1 -198.31,57.49 -266.44,135.12z"
   id="path2837" />
  <path
   fill="#000000"
   stroke="#000000"
   stroke-width="18"
   stroke-linejoin="bevel"
   d="M4558.61 11792.8c3.48,195.75 -132.34,366.48 -323.83,407.12 -191.52,40.64 -384.96,-60.17 -461.31,-240.45 -76.34,-180.28 -14.15,-389.38 148.32,-498.63 31.79,-21.37 73.53,-20.66 104.58,1.78 144.21,104.25 302.84,186.93 470.89,245.46 36.18,12.6 60.66,46.42 61.35,84.72z"
   id="path2839" />
  <path
   fill="#000000"
   stroke="#000000"
   stroke-width="18"
   stroke-linejoin="bevel"
   d="M3375.15 10596.7c60.13,167.48 144.33,325.31 249.95,468.52 22.74,30.83 23.84,72.57 2.77,104.56 -107.69,163.5 -316.18,227.7 -497.18,153.08 -181,-74.62 -283.68,-267.11 -244.86,-458.99 38.81,-191.88 208.24,-329.31 404.02,-327.7 38.3,0.31 72.35,24.47 85.3,60.53z"
   id="path2841" />
  <path
   fill="#000000"
   stroke="#000000"
   stroke-width="18"
   stroke-linejoin="bevel"
   d="M3395.21 9926.62l-65.65 37.56 0 0c-4.75,2.71 -7.67,7.76 -7.67,13.22 0,5.47 2.92,10.51 7.67,13.23l0 0 65.65 37.56c10.68,359.91 134.89,717.16 372.81,1014.61 16.24,20.31 40.37,32.74 66.34,34.18 25.97,1.44 51.32,-8.24 69.71,-26.64l300.42 -300.42c31.98,-31.97 35.78,-82.51 8.95,-118.91 -286.53,-388.64 -286.53,-918.59 0,-1307.23 26.83,-36.4 23.03,-86.94 -8.95,-118.91l-300.42 -300.42c-18.39,-18.39 -43.74,-28.08 -69.71,-26.64 -25.97,1.44 -50.1,13.87 -66.34,34.18 -237.93,297.47 -362.13,654.7 -372.81,1014.63z"
   id="path2843" />
  <path
   fill="#000000"
   stroke="#000000"
   stroke-width="18"
   stroke-linejoin="bevel"
   d="M5049.22 11682.2l37.56 65.65 0 0c2.71,4.75 7.76,7.67 13.22,7.67 5.47,0 10.51,-2.92 13.23,-7.67l0 0 37.56 -65.65c359.91,-10.68 717.16,-134.89 1014.61,-372.81 20.31,-16.24 32.74,-40.37 34.18,-66.34 1.44,-25.97 -8.24,-51.32 -26.64,-69.71l-300.42 -300.42c-31.97,-31.98 -82.51,-35.78 -118.91,-8.95 -388.64,286.53 -918.59,286.53 -1307.23,0 -36.4,-26.83 -86.94,-23.03 -118.91,8.95l-300.42 300.42c-18.39,18.39 -28.08,43.74 -26.64,69.71 1.44,25.97 13.87,50.1 34.18,66.34 297.47,237.93 654.7,362.13 1014.63,372.81z"
   id="path2845" />
  <path
   fill="#000000"
   stroke="#000000"
   stroke-width="18"
   stroke-linejoin="bevel"
   d="M6804.79 10028.2l65.65 -37.56 0 0c4.75,-2.71 7.67,-7.76 7.67,-13.22 0,-5.47 -2.92,-10.51 -7.67,-13.23l0 0 -65.65 -37.56c-10.68,-359.91 -134.89,-717.16 -372.81,-1014.61 -16.24,-20.31 -40.37,-32.74 -66.34,-34.18 -25.97,-1.44 -51.32,8.24 -69.71,26.64l-300.42 300.42c-31.98,31.97 -35.78,82.51 -8.95,118.91 286.53,388.64 286.53,918.59 0,1307.23 -26.83,36.4 -23.03,86.94 8.95,118.91l300.42 300.42c18.39,18.39 43.74,28.08 69.71,26.64 25.97,-1.44 50.1,-13.87 66.34,-34.18 237.93,-297.47 362.13,-654.7 372.81,-1014.63z"
   id="path2847" />
  <path
   fill="#000000"
   stroke="#000000"
   stroke-width="18"
   stroke-linejoin="bevel"
   d="M5150.78 8272.61l-37.56 -65.65 0 0c-2.71,-4.75 -7.76,-7.67 -13.22,-7.67 -5.47,0 -10.51,2.92 -13.23,7.67l0 0 -37.56 65.65c-359.91,10.68 -717.16,134.89 -1014.61,372.81 -20.31,16.24 -32.74,40.37 -34.18,66.34 -1.44,25.97 8.24,51.32 26.64,69.71l300.42 300.42c31.97,31.98 82.51,35.78 118.91,8.95 388.64,-286.53 918.59,-286.53 1307.23,0 36.4,26.83 86.94,23.03 118.91,-8.95l300.42 -300.42c18.39,-18.39 28.08,-43.74 26.64,-69.71 -1.44,-25.97 -13.87,-50.1 -34.18,-66.34 -297.47,-237.93 -654.7,-362.13 -1014.63,-372.81z"
   id="path2849" />
  <path
   fill="#000000"
   stroke="#000000"
   stroke-width="18"
   stroke-linejoin="bevel"
   d="M5591.33 9977.42c0,-271.35 -219.97,-491.33 -491.33,-491.33 -271.35,0 -491.33,219.98 -491.33,491.33 0,271.36 219.98,491.33 491.33,491.33 271.36,0 491.33,-219.97 491.33,-491.33z"
   id="path2851" />
  <path
   fill="#000000"
   stroke="#000000"
   stroke-width="18"
   stroke-linejoin="bevel"
   d="M6151.03 7871.64l0 -235.28c0,-50.49 40.93,-91.43 91.42,-91.43l1136.07 0c100.99,0 182.85,81.87 182.85,182.86l0 52.42c0,100.99 -81.86,182.86 -182.85,182.86l-1136.07 0c-50.49,0 -91.42,-40.94 -91.42,-91.43z"
   id="path2853" />
  <path
   fill="#000000"
   stroke="#000000"
   stroke-width="18"
   stroke-linejoin="bevel"
   d="M4447.46 7636.36l0 235.28c0,50.49 40.94,91.43 91.43,91.43l1122.23 0c50.49,0 91.42,-40.94 91.42,-91.43l0 -235.28c0,-50.49 -40.93,-91.43 -91.42,-91.43l-1122.23 0c-50.49,0 -91.43,40.94 -91.43,91.43z"
   id="path2855" />
  <path
   fill="#000000"
   stroke="#000000"
   stroke-width="18"
   stroke-linejoin="bevel"
   d="M2638.63 7780.21c0,100.99 81.87,182.86 182.86,182.86l1136.06 0c50.5,0 91.43,-40.94 91.43,-91.43l0 -235.28c0,-50.49 -40.93,-91.43 -91.43,-91.43l-1136.06 0c-100.99,0 -182.86,81.87 -182.86,182.86l0 52.42z"
   id="path2857" />
  <path
   fill="none"
   stroke="#000000"
   stroke-width="18"
   stroke-linejoin="bevel"
   d="M4671.1 758.63l-18.3 -222.77"
   id="path2859" />
  <path
   fill="none"
   stroke="#000000"
   stroke-width="18"
   stroke-linejoin="bevel"
   d="M5528.92 758.63l18.3 -222.77"
   id="path2861" />
  <path
   fill="none"
   stroke="#000000"
   stroke-width="18"
   stroke-linejoin="bevel"
   d="M5013.03 8986.39l0 335.12"
   id="path2863" />
  <path
   fill="none"
   stroke="#000000"
   stroke-width="18"
   stroke-linejoin="bevel"
   d="M5186.98 8986.39l0 335.12"
   id="path2865" />
  <path
   fill="none"
   stroke="#000000"
   stroke-width="18"
   stroke-linejoin="bevel"
   d="M4096.36 9890.44l347.73 0"
   id="path2867" />
  <path
   fill="none"
   stroke="#000000"
   stroke-width="18"
   stroke-linejoin="bevel"
   d="M4096.36 10064.4l347.73 0"
   id="path2869" />
  <path
   fill="none"
   stroke="#000000"
   stroke-width="18"
   stroke-linejoin="bevel"
   d="M5186.98 10633.3l0 310.36"
   id="path2871" />
  <path
   fill="none"
   stroke="#000000"
   stroke-width="18"
   stroke-linejoin="bevel"
   d="M5013.03 10633.3l0 310.36"
   id="path2873" />
  <path
   fill="none"
   stroke="#000000"
   stroke-width="18"
   stroke-linejoin="bevel"
   d="M5755.92 9890.44l322.66 0"
   id="path2875" />
  <path
   fill="none"
   stroke="#000000"
   stroke-width="18"
   stroke-linejoin="bevel"
   d="M5755.92 10064.4l322.66 0"
   id="path2877" />
  <path
   fill="none"
   stroke="#FFFFFF"
   stroke-width="25"
   stroke-linejoin="bevel"
   d="M5289.7 8561.3l0 0c5.44,0 10.46,-2.89 13.19,-7.59 2.72,-4.7 2.74,-10.5 0.04,-15.22l0 0 -189.71 -331.53 0 0c-2.71,-4.75 -7.76,-7.67 -13.22,-7.67 -5.47,0 -10.51,2.92 -13.23,7.67l0 0 -189.7 331.53 0 0c-2.7,4.72 -2.69,10.52 0.04,15.22 2.73,4.7 7.75,7.59 13.18,7.59l0 0 379.41 0z"
   id="path2879" />
  <path
   fill="none"
   stroke="#FFFFFF"
   stroke-width="25"
   stroke-linejoin="bevel"
   d="M5195.19 10176.1c-8.41,0 -15.24,-6.82 -15.24,-15.24l0 -377.4c0,-8.42 6.83,-15.24 15.24,-15.24l57.98 0c8.41,0 15.24,6.82 15.24,15.24l0 377.4c0,8.42 -6.83,15.24 -15.24,15.24l-57.98 0"
   id="path2881" />
  <path
   fill="none"
   stroke="#FFFFFF"
   stroke-width="25"
   stroke-linejoin="bevel"
   d="M5365.5 10176.9c-8.42,0 -15.24,-6.82 -15.24,-15.24l0 -377.4c0,-8.41 6.82,-15.23 15.24,-15.23l57.97 0c8.42,0 15.24,6.82 15.24,15.23l0 377.4c0,8.42 -6.82,15.24 -15.24,15.24l-57.97 0"
   id="path2883" />
  <path
   fill="none"
   stroke="#FFFFFF"
   stroke-width="25"
   stroke-linejoin="bevel"
   d="M6292.1 10167.1l0 0c0,5.44 2.89,10.46 7.59,13.19 4.7,2.72 10.5,2.74 15.22,0.04l0 0 331.53 -189.71 0 0c4.75,-2.71 7.67,-7.76 7.67,-13.22 0,-5.47 -2.92,-10.51 -7.67,-13.23l0 0 -331.53 -189.7 0 0c-4.72,-2.7 -10.52,-2.69 -15.22,0.04 -4.7,2.73 -7.59,7.75 -7.59,13.18l0 0 0 379.41z"
   id="path2885" />
  <path
   fill="none"
   stroke="#FFFFFF"
   stroke-width="25"
   stroke-linejoin="bevel"
   d="M4761.3 10162.9l0 0c0,5.44 2.89,10.46 7.59,13.19 4.7,2.72 10.5,2.74 15.22,0.04l0 0 331.53 -189.71 0 0c4.75,-2.71 7.67,-7.76 7.67,-13.22 0,-5.47 -2.92,-10.51 -7.67,-13.23l0 0 -331.53 -189.7 0 0c-4.72,-2.7 -10.52,-2.69 -15.22,0.04 -4.7,2.73 -7.59,7.75 -7.59,13.18l0 0 0 379.41z"
   id="path2887" />
  <path
   fill="none"
   stroke="#FFFFFF"
   stroke-width="25"
   stroke-linejoin="bevel"
   d="M6516.1 10167.1l0 0c0,5.44 2.89,10.46 7.59,13.19 4.7,2.72 10.5,2.74 15.22,0.04l0 0 331.53 -189.71 0 0c4.75,-2.71 7.67,-7.76 7.67,-13.22 0,-5.47 -2.92,-10.51 -7.67,-13.23l0 0 -331.53 -189.7 0 0c-4.72,-2.7 -10.52,-2.69 -15.22,0.04 -4.7,2.73 -7.59,7.75 -7.59,13.18l0 0 0 101.91 130.34 74.58 0 0c4.75,2.72 7.67,7.76 7.67,13.23 0,5.46 -2.92,10.51 -7.67,13.22l0 0 -130.34 74.58 0 101.89z"
   id="path2889" />
  <path
   fill="none"
   stroke="#FFFFFF"
   stroke-width="25"
   stroke-linejoin="bevel"
   d="M3907.9 9787.69l0 0c0,-5.44 -2.89,-10.46 -7.59,-13.19 -4.7,-2.72 -10.5,-2.74 -15.22,-0.04l0 0 -331.53 189.71 0 0c-4.75,2.71 -7.67,7.76 -7.67,13.22 0,5.47 2.92,10.51 7.67,13.23l0 0 331.53 189.7 0 0c4.72,2.7 10.52,2.69 15.22,-0.04 4.7,-2.73 7.59,-7.75 7.59,-13.18l0 0 0 -379.41z"
   id="path2891" />
  <path
   fill="none"
   stroke="#FFFFFF"
   stroke-width="25"
   stroke-linejoin="bevel"
   d="M3683.9 9787.7l0 0c0,-5.44 -2.89,-10.46 -7.59,-13.19 -4.7,-2.72 -10.5,-2.74 -15.22,-0.04l0 0 -331.53 189.71 0 0c-4.75,2.71 -7.67,7.76 -7.67,13.22 0,5.47 2.92,10.51 7.67,13.23l0 0 331.53 189.7 0 0c4.72,2.7 10.52,2.69 15.22,-0.04 4.7,-2.73 7.59,-7.75 7.59,-13.18l0 0 0 -101.91 -130.34 -74.58 0 0c-4.75,-2.72 -7.67,-7.76 -7.67,-13.23 0,-5.46 2.92,-10.51 7.67,-13.22l0 0 130.34 -74.58 0 -101.89z"
   id="path2893" />
  <path
   fill="none"
   stroke="#FFFFFF"
   stroke-width="25"
   stroke-linejoin="bevel"
   d="M4910.3 11393.5l0 0c-5.44,0 -10.46,2.89 -13.19,7.59 -2.72,4.7 -2.74,10.5 -0.04,15.22l0 0 189.71 331.53 0 0c2.71,4.75 7.76,7.67 13.22,7.67 5.47,0 10.51,-2.92 13.23,-7.67l0 0 189.7 -331.53 0 0c2.7,-4.72 2.69,-10.52 -0.04,-15.22 -2.73,-4.7 -7.75,-7.59 -13.18,-7.59l0 0 -379.41 0z"
   id="path2895" />
  <path
   fill="none"
   stroke="#FFFFFF"
   stroke-width="25"
   stroke-linejoin="bevel"
   d="M4192.08 11683.6c-1.84,3.61 -5.04,6.33 -8.86,7.6 -3.86,1.25 -8.03,0.9 -11.64,-0.94l-1.36 -0.69c-7.49,-3.82 -10.47,-13 -6.65,-20.5l21.77 -42.74c3.82,-7.49 0.84,-16.67 -6.66,-20.49l-23.87 -12.16c-7.52,-3.84 -16.67,-0.84 -20.49,6.65l-47.79 93.8c-3.82,7.49 -0.86,16.66 6.66,20.49l156.46 79.73c7.5,3.82 16.68,0.83 20.5,-6.66l12.18 -23.9c3.81,-7.49 0.83,-16.68 -6.66,-20.49l-25.88 -13.19c-7.52,-3.83 -10.48,-13 -6.66,-20.5l21.78 -42.74c3.82,-7.49 0.83,-16.67 -6.66,-20.49l-23.9 -12.18c-7.49,-3.82 -16.68,-0.83 -20.49,6.66l-21.78 42.74"
   id="path2897" />
  <path
   fill="none"
   stroke="#FFFFFF"
   stroke-width="25"
   stroke-linejoin="bevel"
   d="M4110.98 11842.8c-1.84,3.61 -5.03,6.32 -8.86,7.59 -3.84,1.23 -8.02,0.91 -11.63,-0.93l-1.36 -0.69c-7.49,-3.82 -10.48,-13.01 -6.66,-20.5l21.78 -42.74c3.82,-7.5 0.83,-16.68 -6.66,-20.5l-23.87 -12.16c-7.52,-3.83 -16.68,-0.83 -20.49,6.66l-47.79 93.79c-3.82,7.5 -0.87,16.67 6.65,20.5l156.47 79.72c7.5,3.82 16.68,0.84 20.5,-6.66l12.17 -23.89c3.82,-7.5 0.84,-16.68 -6.66,-20.5l-25.88 -13.18c-7.52,-3.84 -10.47,-13.01 -6.65,-20.5l21.77 -42.74c3.82,-7.5 0.84,-16.68 -6.66,-20.5l-23.89 -12.17c-7.5,-3.82 -16.68,-0.84 -20.5,6.66l-21.78 42.74"
   id="path2899" />
  <path
   fill="none"
   stroke="#FFFFFF"
   stroke-width="25"
   stroke-linejoin="bevel"
   d="M4089.61 11953.1l-30.77 -15.68c-49.7,-17.12 -104.39,4.96 -128.26,51.8 -23.85,46.81 -9.57,104.06 33.5,134.18l30.76 15.68c49.69,17.14 104.42,-4.95 128.27,-51.76 23.87,-46.84 9.55,-104.08 -33.5,-134.22m-30.25 48.88l-22.27 -11.35c-21.99,-5.96 -45.14,4.3 -55.48,24.59 -10.34,20.29 -5.03,45.04 12.72,59.33l22.28 11.35c21.96,5.95 45.11,-4.31 55.45,-24.6 10.33,-20.29 5.03,-45.04 -12.7,-59.32"
   id="path2901" />
  <path
   fill="none"
   stroke="#FFFFFF"
   stroke-width="25"
   stroke-linejoin="bevel"
   d="M3281.9 11046.9l-82.45 -155.08c-3.95,-7.43 -1.16,-16.64 6.29,-20.6l23.66 -12.57c5.11,-2.72 11.3,-2.32 16.02,1.03l71.52 35.53c3.56,1.76 7.88,1.02 10.63,-1.82 2.76,-2.84 3.38,-7.15 1.51,-10.67l-24.8 -46.64c-3.95,-7.43 -1.12,-16.65 6.31,-20.6l23.68 -12.59c7.42,-3.95 16.65,-1.14 20.6,6.29l82.46 155.08c3.95,7.43 1.12,16.66 -6.3,20.61l-23.68 12.59c-5.55,2.95 -12.33,2.18 -17.1,-1.91l-70.68 -35.09c-3.55,-1.77 -7.86,-1.03 -10.63,1.82 -2.76,2.85 -3.37,7.15 -1.5,10.68l25.02 47.06c1.89,3.55 2.3,7.75 1.12,11.59 -1.16,3.86 -3.83,7.11 -7.42,9.02l-23.65 12.58c-7.46,3.96 -16.66,1.12 -20.61,-6.31z"
   id="path2903" />
  <path
   fill="none"
   stroke="#FFFFFF"
   stroke-width="25"
   stroke-linejoin="bevel"
   d="M3205.35 11007.7l-16.21 -30.49c-30.89,-42.52 -88.35,-55.81 -134.77,-31.13 -46.39,24.67 -67.54,79.75 -49.53,129.13l16.21 30.49c30.87,42.53 88.37,55.83 134.76,31.17 46.42,-24.68 67.52,-79.78 49.54,-129.17m-52.81 22.7l-11.74 -22.07c-14.59,-17.5 -39.44,-22.37 -59.54,-11.68 -20.11,10.69 -29.96,34.01 -23.62,55.9l11.74 22.07c14.58,17.47 39.43,22.35 59.53,11.66 20.11,-10.69 29.96,-34.02 23.63,-55.88"
   id="path2905" />
 </g>
 <g
   id="Haupt_x0020_Desktop">
 </g>
<path
   style="fill:none;fill-opacity:0.75;fill-rule:evenodd;stroke:#000000;stroke-width:28.22222383;stroke-linecap:butt;stroke-linejoin:miter;stroke-opacity:1;stroke-miterlimit:4;stroke-dasharray:none"
   d="M 7109.1808,9975.1861 L 10310.173,9975.1861"
   id="path1455" /><path
   style="fill:none;fill-opacity:0.75;fill-rule:evenodd;stroke:#000000;stroke-width:28.22222383;stroke-linecap:butt;stroke-linejoin:miter;stroke-opacity:1;stroke-miterlimit:4;stroke-dasharray:none"
   d="M 5099.2552,11910.67 L 10198.511,12729.529"
   id="path1457" /><path
   style="fill:none;fill-opacity:0.75;fill-rule:evenodd;stroke:#000000;stroke-width:28.22222383;stroke-linecap:butt;stroke-linejoin:miter;stroke-opacity:1;stroke-miterlimit:4;stroke-dasharray:none"
   d="M 6625.3098,7406.9479 L 10272.952,6476.4268"
   id="path1461" /><path
   style="fill:none;fill-opacity:0.75;fill-rule:evenodd;stroke:#000000;stroke-width:28.22222383;stroke-linecap:butt;stroke-linejoin:miter;stroke-opacity:1;stroke-miterlimit:4;stroke-dasharray:none"
   d="M 5024.8135,7295.2854 L -37.221205,5545.9057"
   id="path1463" /><path
   style="fill:none;fill-opacity:0.75;fill-rule:evenodd;stroke:#000000;stroke-width:28.22222383;stroke-linecap:butt;stroke-linejoin:miter;stroke-opacity:1;stroke-miterlimit:4;stroke-dasharray:none"
   d="M 3200.9922,7332.5062 L -37.221205,6923.0769"
   id="path1465" /><path
   style="fill:none;fill-opacity:0.75;fill-rule:evenodd;stroke:#000000;stroke-width:28.22222383;stroke-linecap:butt;stroke-linejoin:miter;stroke-opacity:1;stroke-miterlimit:4;stroke-dasharray:none"
   d="M 3089.3297,9863.5236 L 37.220482,9863.5236"
   id="path1467" /><path
   style="fill:none;fill-opacity:0.75;fill-rule:evenodd;stroke:#000000;stroke-width:28.22222383;stroke-linecap:butt;stroke-linejoin:miter;stroke-opacity:1;stroke-miterlimit:4;stroke-dasharray:none"
   d="M 2754.3421,11091.811 L -0.00036173505,11166.253"
   id="path1471" /><path
   style="fill:none;fill-opacity:0.75;fill-rule:evenodd;stroke:#000000;stroke-width:28.22222383;stroke-linecap:butt;stroke-linejoin:miter;stroke-opacity:1;stroke-miterlimit:4;stroke-dasharray:none"
   d="M 3833.7465,12208.437 L -111.66289,12655.087"
   id="path1473" /><text
   xml:space="preserve"
   style="font-size:790.22229004px;font-style:normal;font-variant:normal;font-weight:normal;font-stretch:normal;text-align:start;line-height:100%;writing-mode:lr-tb;text-anchor:start;fill:#000000;fill-opacity:1;stroke:none;stroke-width:1px;stroke-linecap:butt;stroke-linejoin:miter;stroke-opacity:1;font-family:URW Palladio L"
   x="-1674.9384"
   y="5657.5679"
   id="text1479"
   sodipodi:linespacing="100%"><tspan
     sodipodi:role="line"
     id="tspan1481"
     x="-1674.9384"
     y="5657.5679">F2</tspan></text>
<text
   xml:space="preserve"
   style="font-size:790.22229004px;font-style:normal;font-variant:normal;font-weight:normal;font-stretch:normal;text-align:start;line-height:100%;writing-mode:lr-tb;text-anchor:start;fill:#000000;fill-opacity:1;stroke:none;stroke-width:1px;stroke-linecap:butt;stroke-linejoin:miter;stroke-opacity:1;font-family:URW Palladio L"
   x="-1636.2157"
   y="7120.8667"
   id="text1483"
   sodipodi:linespacing="100%"><tspan
     sodipodi:role="line"
     id="tspan1485"
     x="-1636.2157"
     y="7120.8667">F1</tspan></text>
<text
   xml:space="preserve"
   style="font-size:790.22229004px;font-style:normal;font-variant:normal;font-weight:normal;font-stretch:normal;text-align:start;line-height:100%;writing-mode:lr-tb;text-anchor:start;fill:#000000;fill-opacity:1;stroke:none;stroke-width:1px;stroke-linecap:butt;stroke-linejoin:miter;stroke-opacity:1;font-family:URW Palladio L"
   x="-1822.3197"
   y="10061.314"
   id="text1487"
   sodipodi:linespacing="100%"><tspan
     sodipodi:role="line"
     id="tspan1489"
     x="-1822.3197"
     y="10061.314">Left</tspan></text>
<text
   xml:space="preserve"
   style="font-size:790.22229004px;font-style:normal;font-variant:normal;font-weight:normal;font-stretch:normal;text-align:start;line-height:100%;writing-mode:lr-tb;text-anchor:start;fill:#000000;fill-opacity:1;stroke:none;stroke-width:1px;stroke-linecap:butt;stroke-linejoin:miter;stroke-opacity:1;font-family:URW Palladio L"
   x="-1785.099"
   y="11326.822"
   id="text1491"
   sodipodi:linespacing="100%"><tspan
     sodipodi:role="line"
     id="tspan1493"
     x="-1785.099"
     y="11326.822">On</tspan></text>
<text
   xml:space="preserve"
   style="font-size:790.22229004px;font-style:normal;font-variant:normal;font-weight:normal;font-stretch:normal;text-align:start;line-height:100%;writing-mode:lr-tb;text-anchor:start;fill:#000000;fill-opacity:1;stroke:none;stroke-width:1px;stroke-linecap:butt;stroke-linejoin:miter;stroke-opacity:1;font-family:URW Palladio L"
   x="-1785.099"
   y="12778.435"
   id="text1495"
   sodipodi:linespacing="100%"><tspan
     sodipodi:role="line"
     id="tspan1497"
     x="-1785.099"
     y="12778.435">Off</tspan></text>
<text
   xml:space="preserve"
   style="font-size:790.22229004px;font-style:normal;font-variant:normal;font-weight:normal;font-stretch:normal;text-align:start;line-height:100%;writing-mode:lr-tb;text-anchor:start;fill:#000000;fill-opacity:1;stroke:none;stroke-width:1px;stroke-linecap:butt;stroke-linejoin:miter;stroke-opacity:1;font-family:URW Palladio L"
   x="10683.884"
   y="6636.9956"
   id="text1499"
   sodipodi:linespacing="100%"><tspan
     sodipodi:role="line"
     id="tspan1501"
     x="10683.884"
     y="6636.9956">F3</tspan></text>
<text
   xml:space="preserve"
   style="font-size:790.22229004px;font-style:normal;font-variant:normal;font-weight:normal;font-stretch:normal;text-align:start;line-height:100%;writing-mode:lr-tb;text-anchor:start;fill:#000000;fill-opacity:1;stroke:none;stroke-width:1px;stroke-linecap:butt;stroke-linejoin:miter;stroke-opacity:1;font-family:URW Palladio L"
   x="10646.661"
   y="8349.1543"
   id="text1503"
   sodipodi:linespacing="100%"><tspan
     sodipodi:role="line"
     id="tspan1505"
     x="10646.661"
     y="8349.1543">Up</tspan></text>
<text
   xml:space="preserve"
   style="font-size:790.22229004px;font-style:normal;font-variant:normal;font-weight:normal;font-stretch:normal;text-align:start;line-height:100%;writing-mode:lr-tb;text-anchor:start;fill:#000000;fill-opacity:1;stroke:none;stroke-width:1px;stroke-linecap:butt;stroke-linejoin:miter;stroke-opacity:1;font-family:URW Palladio L"
   x="-1747.8789"
   y="8274.7129"
   id="text1507"
   sodipodi:linespacing="100%"><tspan
     sodipodi:role="line"
     id="tspan1509"
     x="-1747.8789"
     y="8274.7129">Play</tspan></text>
<text
   xml:space="preserve"
   style="font-size:790.22229004px;font-style:normal;font-variant:normal;font-weight:normal;font-stretch:normal;text-align:start;line-height:100%;writing-mode:lr-tb;text-anchor:start;fill:#000000;fill-opacity:1;stroke:none;stroke-width:1px;stroke-linecap:butt;stroke-linejoin:miter;stroke-opacity:1;font-family:URW Palladio L"
   x="10683.884"
   y="10210.197"
   id="text1511"
   sodipodi:linespacing="100%"><tspan
     sodipodi:role="line"
     id="tspan1513"
     x="10683.884"
     y="10210.197">Right</tspan></text>
<text
   xml:space="preserve"
   style="font-size:790.22229004px;font-style:normal;font-variant:normal;font-weight:normal;font-stretch:normal;text-align:start;line-height:100%;writing-mode:lr-tb;text-anchor:start;fill:#000000;fill-opacity:1;stroke:none;stroke-width:1px;stroke-linecap:butt;stroke-linejoin:miter;stroke-opacity:1;font-family:URW Palladio L"
   x="10646.663"
   y="13076.201"
   id="text1515"
   sodipodi:linespacing="100%"><tspan
     sodipodi:role="line"
     id="tspan1517"
     x="10646.663"
     y="13076.201">Down</tspan></text>
<path
   style="fill:none;fill-opacity:0.75;fill-rule:evenodd;stroke:#000000;stroke-width:28.22222383;stroke-linecap:butt;stroke-linejoin:miter;stroke-opacity:1;stroke-miterlimit:4;stroke-dasharray:none"
   d="M 5173.6969,9900.7444 L -37.221205,8188.5856"
   id="path2394" /><path
   style="fill:none;fill-opacity:0.75;fill-rule:evenodd;stroke:#000000;stroke-width:28.22222383;stroke-linecap:butt;stroke-linejoin:miter;stroke-opacity:1;stroke-miterlimit:4;stroke-dasharray:none"
   d="M 5210.9178,8151.3648 L 10272.952,8114.1439"
   id="path2396" /></svg>