<?xml version="1.0" encoding="UTF-8" standalone="no"?>
<!-- Creator: CorelDRAW -->
<svg
   xmlns:dc="http://purl.org/dc/elements/1.1/"
   xmlns:cc="http://web.resource.org/cc/"
   xmlns:rdf="http://www.w3.org/1999/02/22-rdf-syntax-ns#"
   xmlns:svg="http://www.w3.org/2000/svg"
   xmlns="http://www.w3.org/2000/svg"
   xmlns:sodipodi="http://inkscape.sourceforge.net/DTD/sodipodi-0.dtd"
   xmlns:inkscape="http://www.inkscape.org/namespaces/inkscape"
   xml:space="preserve"
   width="102mm"
   height="150mm"
   shape-rendering="geometricPrecision"
   text-rendering="geometricPrecision"
   image-rendering="optimizeQuality"
   fill-rule="evenodd"
   viewBox="0 0 10200 15000"
   id="svg1925"
   sodipodi:version="0.32"
   inkscape:version="0.43"
   sodipodi:docname="recorderv2fm-front.svg"
   sodipodi:docbase="/home/martin/src/dev/rockbox-devel/manual/rockbox_interface/images"><metadata
   id="metadata2437"><rdf:RDF><cc:Work
       rdf:about=""><dc:format>image/svg+xml</dc:format><dc:type
         rdf:resource="http://purl.org/dc/dcmitype/StillImage" /></cc:Work></rdf:RDF></metadata><defs
   id="defs2435" /><sodipodi:namedview
   inkscape:window-height="602"
   inkscape:window-width="789"
   inkscape:pageshadow="2"
   inkscape:pageopacity="0.0"
   borderopacity="1.0"
   bordercolor="#666666"
   pagecolor="#ffffff"
   id="base"
   inkscape:zoom="0.75823708"
   inkscape:cx="180.70866"
   inkscape:cy="265.74802"
   inkscape:window-x="328"
   inkscape:window-y="89"
   inkscape:current-layer="layer1" />
 <g
   id="Ebene_x0020_1">
  <defs
   id="defs1928">
   <linearGradient
   id="id0"
   gradientUnits="userSpaceOnUse"
   x1="5099.97"
   y1="13799.9"
   x2="5099.97"
   y2="14514.9">
    <stop
   offset="0"
   stop-color="#E8E8E8"
   id="stop1931" />
    <stop
   offset="1"
   stop-color="#878787"
   id="stop1933" />
    <stop
   offset="1"
   stop-color="#878787"
   id="stop1935" />
   </linearGradient>
   <linearGradient
   id="id1"
   gradientUnits="userSpaceOnUse"
   x1="738.71"
   y1="7500"
   x2="320.29"
   y2="7500">
    <stop
   offset="0"
   stop-color="#E8E8E8"
   id="stop1938" />
    <stop
   offset="1"
   stop-color="#878787"
   id="stop1940" />
    <stop
   offset="1"
   stop-color="#878787"
   id="stop1942" />
   </linearGradient>
   <linearGradient
   id="id2"
   gradientUnits="userSpaceOnUse"
   x1="9461.3"
   y1="7500.01"
   x2="9886.86"
   y2="7500.01">
    <stop
   offset="0"
   stop-color="#E8E8E8"
   id="stop1945" />
    <stop
   offset="1"
   stop-color="#878787"
   id="stop1947" />
    <stop
   offset="1"
   stop-color="#878787"
   id="stop1949" />
   </linearGradient>
   <linearGradient
   id="id3"
   gradientUnits="userSpaceOnUse"
   x1="461.93"
   y1="10980.6"
   x2="461.93"
   y2="9862.55">
    <stop
   offset="0"
   stop-color="#878787"
   id="stop1952" />
    <stop
   offset="0.501961"
   stop-color="#E8E8E8"
   id="stop1954" />
    <stop
   offset="1"
   stop-color="#B3B3B3"
   id="stop1956" />
    <stop
   offset="1"
   stop-color="#B3B3B3"
   id="stop1958" />
   </linearGradient>
   <linearGradient
   id="id4"
   gradientUnits="userSpaceOnUse"
   x1="5100.01"
   y1="13583.6"
   x2="5100.01"
   y2="14009.1">
    <stop
   offset="0"
   stop-color="#8A8A8A"
   id="stop1961" />
    <stop
   offset="0.329412"
   stop-color="#9E9E9E"
   id="stop1963" />
    <stop
   offset="1"
   stop-color="#B3B3B3"
   id="stop1965" />
    <stop
   offset="1"
   stop-color="#B3B3B3"
   id="stop1967" />
   </linearGradient>
   <linearGradient
   id="id5"
   gradientUnits="userSpaceOnUse"
   x1="6629.53"
   y1="794.92"
   x2="6629.53"
   y2="505.7">
    <stop
   offset="0"
   stop-color="#E8E8E8"
   id="stop1970" />
    <stop
   offset="1"
   stop-color="#878787"
   id="stop1972" />
    <stop
   offset="1"
   stop-color="#878787"
   id="stop1974" />
   </linearGradient>
   <linearGradient
   id="id6"
   gradientUnits="userSpaceOnUse"
   x1="3562.05"
   y1="794.92"
   x2="3562.05"
   y2="505.7">
    <stop
   offset="0"
   stop-color="#E8E8E8"
   id="stop1977" />
    <stop
   offset="1"
   stop-color="#878787"
   id="stop1979" />
    <stop
   offset="1"
   stop-color="#878787"
   id="stop1981" />
   </linearGradient>
   <linearGradient
   id="id7"
   gradientUnits="userSpaceOnUse"
   x1="5095.79"
   y1="753.93"
   x2="5095.79"
   y2="366.01">
    <stop
   offset="0"
   stop-color="#F0F0F0"
   id="stop1984" />
    <stop
   offset="0.658824"
   stop-color="#878787"
   id="stop1986" />
    <stop
   offset="1"
   stop-color="#3B3B3B"
   id="stop1988" />
    <stop
   offset="1"
   stop-color="#3B3B3B"
   id="stop1990" />
   </linearGradient>
   <radialGradient
   id="id8"
   gradientUnits="userSpaceOnUse"
   cx="5100"
   cy="7322.55"
   r="6664.45"
   fx="5100"
   fy="7322.55">
    <stop
   offset="0"
   stop-color="#FBFBFB"
   id="stop1993" />
    <stop
   offset="0.639216"
   stop-color="#F2F2F2"
   id="stop1995" />
    <stop
   offset="1"
   stop-color="#DEDEDE"
   id="stop1997" />
    <stop
   offset="1"
   stop-color="#DEDEDE"
   id="stop1999" />
   </radialGradient>
   <linearGradient
   id="id9"
   gradientUnits="userSpaceOnUse"
   x1="-141.87"
   y1="13416.7"
   x2="2877.13"
   y2="12663.7">
    <stop
   offset="0"
   stop-color="#151C2E"
   id="stop2002" />
    <stop
   offset="0.101961"
   stop-color="#1B2545"
   id="stop2004" />
    <stop
   offset="0.301961"
   stop-color="#303F69"
   id="stop2006" />
    <stop
   offset="0.870588"
   stop-color="#56668F"
   id="stop2008" />
    <stop
   offset="1"
   stop-color="#030F42"
   id="stop2010" />
    <stop
   offset="1"
   stop-color="#030F42"
   id="stop2012" />
   </linearGradient>
   <linearGradient
   id="id10"
   gradientUnits="userSpaceOnUse"
   x1="-220.13"
   y1="13574.9"
   x2="2674.67"
   y2="12521.9">
    <stop
   offset="0"
   stop-color="#151C2E"
   id="stop2015" />
    <stop
   offset="0.121569"
   stop-color="#202A47"
   id="stop2017" />
    <stop
   offset="0.529412"
   stop-color="#303F69"
   id="stop2019" />
    <stop
   offset="1"
   stop-color="#384D80"
   id="stop2021" />
    <stop
   offset="1"
   stop-color="#384D80"
   id="stop2023" />
   </linearGradient>
   <linearGradient
   id="id11"
   gradientUnits="userSpaceOnUse"
   x1="10342.1"
   y1="13417"
   x2="7322.68"
   y2="12663.4">
    <stop
   offset="0"
   stop-color="#151C2E"
   id="stop2026" />
    <stop
   offset="0.101961"
   stop-color="#1B2545"
   id="stop2028" />
    <stop
   offset="0.301961"
   stop-color="#303F69"
   id="stop2030" />
    <stop
   offset="0.870588"
   stop-color="#56668F"
   id="stop2032" />
    <stop
   offset="1"
   stop-color="#030F42"
   id="stop2034" />
    <stop
   offset="1"
   stop-color="#030F42"
   id="stop2036" />
   </linearGradient>
   <linearGradient
   id="id12"
   gradientUnits="userSpaceOnUse"
   x1="10420.1"
   y1="13574.9"
   x2="7525.33"
   y2="12521.9">
    <stop
   offset="0"
   stop-color="#151C2E"
   id="stop2039" />
    <stop
   offset="0.121569"
   stop-color="#202A47"
   id="stop2041" />
    <stop
   offset="0.529412"
   stop-color="#303F69"
   id="stop2043" />
    <stop
   offset="1"
   stop-color="#384D80"
   id="stop2045" />
    <stop
   offset="1"
   stop-color="#384D80"
   id="stop2047" />
   </linearGradient>
   <linearGradient
   id="id13"
   gradientUnits="userSpaceOnUse"
   x1="10372.9"
   y1="1554.03"
   x2="7347.65"
   y2="2364.21">
    <stop
   offset="0"
   stop-color="#151C2E"
   id="stop2050" />
    <stop
   offset="0.160784"
   stop-color="#1B2545"
   id="stop2052" />
    <stop
   offset="0.380392"
   stop-color="#303F69"
   id="stop2054" />
    <stop
   offset="0.870588"
   stop-color="#56668F"
   id="stop2056" />
    <stop
   offset="1"
   stop-color="#394F82"
   id="stop2058" />
    <stop
   offset="1"
   stop-color="#394F82"
   id="stop2060" />
   </linearGradient>
   <linearGradient
   id="id14"
   gradientUnits="userSpaceOnUse"
   x1="10420.2"
   y1="1425.09"
   x2="7525.35"
   y2="2478.13">
    <stop
   offset="0"
   stop-color="#151C2E"
   id="stop2063" />
    <stop
   offset="0.121569"
   stop-color="#202A47"
   id="stop2065" />
    <stop
   offset="0.529412"
   stop-color="#303F69"
   id="stop2067" />
    <stop
   offset="1"
   stop-color="#384D80"
   id="stop2069" />
    <stop
   offset="1"
   stop-color="#384D80"
   id="stop2071" />
   </linearGradient>
   <linearGradient
   id="id15"
   gradientUnits="userSpaceOnUse"
   x1="-172.85"
   y1="1554.03"
   x2="2852.35"
   y2="2364.21">
    <stop
   offset="0"
   stop-color="#151C2E"
   id="stop2074" />
    <stop
   offset="0.160784"
   stop-color="#1B2545"
   id="stop2076" />
    <stop
   offset="0.380392"
   stop-color="#303F69"
   id="stop2078" />
    <stop
   offset="0.870588"
   stop-color="#56668F"
   id="stop2080" />
    <stop
   offset="1"
   stop-color="#394F82"
   id="stop2082" />
    <stop
   offset="1"
   stop-color="#394F82"
   id="stop2084" />
   </linearGradient>
   <linearGradient
   id="id16"
   gradientUnits="userSpaceOnUse"
   x1="-220.15"
   y1="1425.09"
   x2="2674.65"
   y2="2478.13">
    <stop
   offset="0"
   stop-color="#151C2E"
   id="stop2087" />
    <stop
   offset="0.121569"
   stop-color="#202A47"
   id="stop2089" />
    <stop
   offset="0.529412"
   stop-color="#303F69"
   id="stop2091" />
    <stop
   offset="1"
   stop-color="#384D80"
   id="stop2093" />
    <stop
   offset="1"
   stop-color="#384D80"
   id="stop2095" />
   </linearGradient>
   <linearGradient
   id="id17"
   gradientUnits="userSpaceOnUse"
   x1="1322.13"
   y1="4261.89"
   x2="8877.87"
   y2="4261.89">
    <stop
   offset="0"
   stop-color="#1F2A47"
   id="stop2098" />
    <stop
   offset="0.2"
   stop-color="#2D3A5D"
   id="stop2100" />
    <stop
   offset="0.501961"
   stop-color="#354670"
   id="stop2102" />
    <stop
   offset="0.8"
   stop-color="#2D3A5D"
   id="stop2104" />
    <stop
   offset="1"
   stop-color="#1F2A47"
   id="stop2106" />
    <stop
   offset="1"
   stop-color="#1F2A47"
   id="stop2108" />
   </linearGradient>
   <radialGradient
   id="id18"
   gradientUnits="userSpaceOnUse"
   cx="4149.85"
   cy="11841.1"
   r="384.24"
   fx="4149.85"
   fy="11841.1">
    <stop
   offset="0"
   stop-color="#303030"
   id="stop2111" />
    <stop
   offset="0.901961"
   stop-color="#141414"
   id="stop2113" />
    <stop
   offset="0.94902"
   stop-color="#6E6E6E"
   id="stop2115" />
    <stop
   offset="1"
   stop-color="#000000"
   id="stop2117" />
    <stop
   offset="1"
   stop-color="#000000"
   id="stop2119" />
   </radialGradient>
   <radialGradient
   id="id19"
   gradientUnits="userSpaceOnUse"
   cx="3252.7"
   cy="10951.3"
   r="384.27"
   fx="3252.7"
   fy="10951.3">
    <stop
   offset="0"
   stop-color="#303030"
   id="stop2122" />
    <stop
   offset="0.901961"
   stop-color="#141414"
   id="stop2124" />
    <stop
   offset="0.94902"
   stop-color="#6E6E6E"
   id="stop2126" />
    <stop
   offset="1"
   stop-color="#000000"
   id="stop2128" />
    <stop
   offset="1"
   stop-color="#000000"
   id="stop2130" />
   </radialGradient>
   <radialGradient
   id="id20"
   gradientUnits="userSpaceOnUse"
   cx="5100"
   cy="9983.71"
   r="1778.11"
   fx="5100"
   fy="9983.71">
    <stop
   offset="0"
   stop-color="#000000"
   id="stop2133" />
    <stop
   offset="0.219608"
   stop-color="#000000"
   id="stop2135" />
    <stop
   offset="0.388235"
   stop-color="#000000"
   id="stop2137" />
    <stop
   offset="0.639216"
   stop-color="#6E6E6E"
   id="stop2139" />
    <stop
   offset="0.678431"
   stop-color="#141414"
   id="stop2141" />
    <stop
   offset="0.8"
   stop-color="#303030"
   id="stop2143" />
    <stop
   offset="0.901961"
   stop-color="#141414"
   id="stop2145" />
    <stop
   offset="0.94902"
   stop-color="#6E6E6E"
   id="stop2147" />
    <stop
   offset="1"
   stop-color="#000000"
   id="stop2149" />
    <stop
   offset="1"
   stop-color="#000000"
   id="stop2151" />
   </radialGradient>
   <radialGradient
   id="id21"
   gradientUnits="userSpaceOnUse"
   cx="5100"
   cy="9983.76"
   r="491.33"
   fx="5100"
   fy="9983.76">
    <stop
   offset="0"
   stop-color="#303030"
   id="stop2154" />
    <stop
   offset="0.901961"
   stop-color="#141414"
   id="stop2156" />
    <stop
   offset="0.94902"
   stop-color="#6E6E6E"
   id="stop2158" />
    <stop
   offset="1"
   stop-color="#000000"
   id="stop2160" />
    <stop
   offset="1"
   stop-color="#000000"
   id="stop2162" />
   </radialGradient>
   <linearGradient
   id="id22"
   gradientUnits="userSpaceOnUse"
   x1="6856.2"
   y1="7969.41"
   x2="6856.2"
   y2="7551.27">
    <stop
   offset="0"
   stop-color="#000000"
   id="stop2165" />
    <stop
   offset="0.0705882"
   stop-color="#6E6E6E"
   id="stop2167" />
    <stop
   offset="0.14902"
   stop-color="#141414"
   id="stop2169" />
    <stop
   offset="0.501961"
   stop-color="#303030"
   id="stop2171" />
    <stop
   offset="0.85098"
   stop-color="#141414"
   id="stop2173" />
    <stop
   offset="0.929412"
   stop-color="#6E6E6E"
   id="stop2175" />
    <stop
   offset="1"
   stop-color="#000000"
   id="stop2177" />
    <stop
   offset="1"
   stop-color="#000000"
   id="stop2179" />
   </linearGradient>
   <linearGradient
   id="id23"
   gradientUnits="userSpaceOnUse"
   x1="5100"
   y1="7969.41"
   x2="5100"
   y2="7551.27">
    <stop
   offset="0"
   stop-color="#000000"
   id="stop2182" />
    <stop
   offset="0.0705882"
   stop-color="#6E6E6E"
   id="stop2184" />
    <stop
   offset="0.14902"
   stop-color="#141414"
   id="stop2186" />
    <stop
   offset="0.501961"
   stop-color="#303030"
   id="stop2188" />
    <stop
   offset="0.85098"
   stop-color="#141414"
   id="stop2190" />
    <stop
   offset="0.929412"
   stop-color="#6E6E6E"
   id="stop2192" />
    <stop
   offset="1"
   stop-color="#000000"
   id="stop2194" />
    <stop
   offset="1"
   stop-color="#000000"
   id="stop2196" />
   </linearGradient>
   <linearGradient
   id="id24"
   gradientUnits="userSpaceOnUse"
   x1="3343.81"
   y1="7969.41"
   x2="3343.81"
   y2="7551.27">
    <stop
   offset="0"
   stop-color="#000000"
   id="stop2199" />
    <stop
   offset="0.0705882"
   stop-color="#6E6E6E"
   id="stop2201" />
    <stop
   offset="0.14902"
   stop-color="#141414"
   id="stop2203" />
    <stop
   offset="0.501961"
   stop-color="#303030"
   id="stop2205" />
    <stop
   offset="0.85098"
   stop-color="#141414"
   id="stop2207" />
    <stop
   offset="0.929412"
   stop-color="#6E6E6E"
   id="stop2209" />
    <stop
   offset="1"
   stop-color="#000000"
   id="stop2211" />
    <stop
   offset="1"
   stop-color="#000000"
   id="stop2213" />
   </linearGradient>
   <linearGradient
   id="id25"
   gradientUnits="userSpaceOnUse"
   x1="4270.23"
   y1="10070.8"
   x2="4270.23"
   y2="9896.83">
    <stop
   offset="0"
   stop-color="#C2C2C2"
   id="stop2216" />
    <stop
   offset="0.109804"
   stop-color="#E3E3E3"
   id="stop2218" />
    <stop
   offset="0.501961"
   stop-color="#CECECE"
   id="stop2220" />
    <stop
   offset="0.85098"
   stop-color="#E3E3E3"
   id="stop2222" />
    <stop
   offset="1"
   stop-color="#C2C2C2"
   id="stop2224" />
    <stop
   offset="1"
   stop-color="#C2C2C2"
   id="stop2226" />
   </linearGradient>
   <linearGradient
   id="id26"
   gradientUnits="userSpaceOnUse"
   x1="5012.99"
   y1="10813.5"
   x2="5186.95"
   y2="10813.5">
    <stop
   offset="0"
   stop-color="#C2C2C2"
   id="stop2229" />
    <stop
   offset="0.109804"
   stop-color="#E3E3E3"
   id="stop2231" />
    <stop
   offset="0.501961"
   stop-color="#CECECE"
   id="stop2233" />
    <stop
   offset="0.85098"
   stop-color="#E3E3E3"
   id="stop2235" />
    <stop
   offset="1"
   stop-color="#C2C2C2"
   id="stop2237" />
    <stop
   offset="1"
   stop-color="#C2C2C2"
   id="stop2239" />
   </linearGradient>
   <linearGradient
   id="id27"
   gradientUnits="userSpaceOnUse"
   x1="5929.77"
   y1="10070.8"
   x2="5929.77"
   y2="9896.84">
    <stop
   offset="0"
   stop-color="#C2C2C2"
   id="stop2242" />
    <stop
   offset="0.109804"
   stop-color="#E3E3E3"
   id="stop2244" />
    <stop
   offset="0.501961"
   stop-color="#CECECE"
   id="stop2246" />
    <stop
   offset="0.85098"
   stop-color="#E3E3E3"
   id="stop2248" />
    <stop
   offset="1"
   stop-color="#C2C2C2"
   id="stop2250" />
    <stop
   offset="1"
   stop-color="#C2C2C2"
   id="stop2252" />
   </linearGradient>
   <linearGradient
   id="id28"
   gradientUnits="userSpaceOnUse"
   x1="5013.05"
   y1="9154.01"
   x2="5187.01"
   y2="9154.01">
    <stop
   offset="0"
   stop-color="#C2C2C2"
   id="stop2255" />
    <stop
   offset="0.109804"
   stop-color="#E3E3E3"
   id="stop2257" />
    <stop
   offset="0.501961"
   stop-color="#CECECE"
   id="stop2259" />
    <stop
   offset="0.85098"
   stop-color="#E3E3E3"
   id="stop2261" />
    <stop
   offset="1"
   stop-color="#C2C2C2"
   id="stop2263" />
    <stop
   offset="1"
   stop-color="#C2C2C2"
   id="stop2265" />
   </linearGradient>
  </defs>
  <path
   fill="url(#id0)"
   stroke="#000000"
   stroke-width="18"
   stroke-linejoin="bevel"
   d="M2459.11 14201.1c1746.61,313.8 3535.16,313.81 5281.76,0.01 43.68,-133.59 86.93,-267.31 129.77,-401.17 -1837.12,271.58 -3704.21,271.57 -5541.34,-0.01 42.85,133.87 86.13,267.57 129.81,401.17l0 0z"
   id="path2267" />
  <path
   fill="url(#id1)"
   stroke="#000000"
   stroke-width="18"
   stroke-linejoin="bevel"
   d="M737.33 3248.29l1.38 6.26c-104.99,2831.42 -105.06,5665.75 -0.23,8497.17 -102.8,-9.15 -198.13,-57.53 -266.21,-135.1l-11.51 -203.32c-0.1,0.05 -0.2,0.12 -0.3,0.17 -7.95,-144.29 -15.51,-288.58 -22.58,-432.92 78.77,-153.82 124.14,-322.55 133.15,-495.13 -0.27,-45.98 -4.49,-91.84 -12.62,-137.1 -35.81,-168.02 -91.71,-331.13 -166.47,-485.81 -71.65,-2157.71 -44.84,-4317.57 80.33,-6472.84l1.17 -7.71c67.75,-76.51 162.12,-124.31 263.89,-133.67l0 0z"
   id="path2269" />
  <path
   fill="url(#id2)"
   stroke="#000000"
   stroke-width="18"
   stroke-linejoin="bevel"
   d="M9726.11 3381.45l1.63 8.22c155.2,2672.3 159.12,5351.17 11.82,8023.81 -0.11,-0.05 -0.21,-0.12 -0.32,-0.18l-11.51 203.32c-68.08,77.57 -163.4,125.94 -266.19,135.1 104.83,-2831.42 104.75,-5665.75 -0.24,-8497.17l1.66 -6.24c101.43,9.4 195.5,56.99 263.15,133.14l0 0z"
   id="path2271" />
  <path
   fill="url(#id3)"
   stroke="#000000"
   stroke-width="18"
   stroke-linejoin="bevel"
   d="M437.88 10980.6l-54.57 0c-16.84,0 -30.48,-13.64 -30.48,-30.47l0 -1057.09c0,-16.83 13.64,-30.48 30.48,-30.48l8.63 0c74.76,154.68 130.66,317.79 166.47,485.81 8.13,45.26 12.35,91.12 12.62,137.1 -9.01,172.58 -54.38,341.31 -133.15,495.13z"
   id="path2273" />
  <path
   fill="url(#id4)"
   stroke="#000000"
   stroke-width="18"
   stroke-linejoin="bevel"
   d="M5891.82 13987c-184.18,-253.43 -478.53,-403.38 -791.81,-403.38 -313.28,0 -607.63,149.95 -791.81,403.37 527.64,22.07 1055.97,22.08 1583.62,0.01l0 0z"
   id="path2275" />
  <path
   fill="url(#id5)"
   stroke="#000000"
   stroke-width="18"
   stroke-linejoin="bevel"
   d="M7686.78 538.16l-2111.69 0c-8.39,0 -16.39,-3.51 -22.07,-9.68 -5.68,-6.16 -8.52,-14.43 -7.83,-22.78l-20.48 248.22c0,0.49 -0.01,0.99 -0.02,1.49l-2.06 39.5 2213.8 0c-2.57,-7.86 -5.14,-15.71 -7.71,-23.57 -30.45,-73.85 -44.75,-153.35 -41.94,-233.18z"
   id="path2277" />
  <path
   fill="url(#id6)"
   stroke="#000000"
   stroke-width="18"
   stroke-linejoin="bevel"
   d="M2504.79 538.16l2111.69 0c8.39,0 16.39,-3.51 22.07,-9.68 5.68,-6.16 8.52,-14.43 7.83,-22.78l20.48 248.22c0,0.49 0.01,0.99 0.02,1.49l2.06 39.5 -2213.79 0c2.56,-7.86 5.13,-15.71 7.71,-23.57 30.44,-73.85 44.74,-153.35 41.93,-233.18z"
   id="path2279" />
  <path
   fill="url(#id7)"
   stroke="#000000"
   stroke-width="18"
   stroke-linejoin="bevel"
   d="M6147.45 381.33c-19.66,-9.08 -40.88,-14.29 -62.51,-15.32l-1978.31 0c-21.63,1.03 -42.85,6.24 -62.51,15.32 -56.26,31.88 -110.74,66.81 -163.19,104.63 -10.84,7.82 -17.87,19.85 -19.35,33.14l0 19.06 754.9 0c8.39,0 16.39,-3.51 22.07,-9.68 5.68,-6.16 8.52,-14.43 7.83,-22.78l20.48 248.22c0,-19.25 7.81,-37.67 21.64,-51.05 13.83,-13.38 32.5,-20.57 51.73,-19.93l711.11 0c19.23,-0.64 37.9,6.55 51.73,19.93 13.83,13.38 21.64,31.8 21.64,51.05l20.48 -248.22c-0.69,8.35 2.15,16.62 7.83,22.78 5.68,6.17 13.68,9.68 22.07,9.68l754.9 0 0 -19.06c-1.48,-13.29 -8.51,-25.32 -19.35,-33.14 -52.45,-37.82 -106.93,-72.75 -163.19,-104.63z"
   id="path2281" />
  <path
   fill="url(#id8)"
   d="M2500.86 658.1l1.09 0c-6.89,42.01 -18.55,83.22 -34.87,122.8 -2.57,7.86 -5.13,15.72 -7.7,23.57l2213.75 0 -2.04 -39.5c-0.43,-19.51 7.19,-38.31 21.09,-52.03 13.87,-13.71 32.76,-21.09 52.27,-20.45l711.11 0c19.48,-0.64 38.41,6.75 52.27,20.45 13.86,13.71 21.49,32.52 21.09,52.03l-2.07 39.5 2213.79 0c-2.57,-7.85 -5.13,-15.71 -7.7,-23.57 -16.32,-39.58 -28.01,-80.79 -34.91,-122.8l1.08 0c7.01,39.8 18.33,78.84 33.82,116.41 244.45,746.75 475.95,1497.68 694.39,2252.46 40.11,95.5 132.57,158.54 236.13,160.99 266.7,8.29 532.91,28.38 797.84,60.2l1.67 0.15 -1.66 6.24c104.99,2831.42 105.07,5665.75 0.24,8497.17 -0.08,0 -0.17,0.01 -0.25,0.02 -264.93,31.82 -531.14,51.91 -797.84,60.2 -103.56,2.45 -196.02,65.49 -236.13,160.99 -177.01,611.58 -362.62,1220.63 -556.72,1826.99 -656.68,97.07 -1317.21,159.4 -1978.81,187.07 -184.18,-253.41 -478.51,-403.35 -791.78,-403.35 -313.27,0 -607.61,149.94 -791.79,403.34 -661.62,-27.66 -1322.14,-89.99 -1978.85,-187.07 -194.09,-606.37 -379.69,-1215.38 -556.69,-1826.98 -40.11,-95.5 -132.57,-158.54 -236.13,-160.99 -266.7,-8.29 -532.91,-28.38 -797.84,-60.2 -0.08,-0.01 -0.15,-0.01 -0.23,-0.02 -104.83,-2831.42 -104.76,-5665.75 0.23,-8497.17l-1.38 -6.26 1.38 -0.13c264.93,-31.82 531.14,-51.91 797.84,-60.2 103.56,-2.45 196.02,-65.49 236.13,-160.99 218.44,-754.78 449.94,-1505.71 694.39,-2252.46 15.49,-37.57 26.78,-76.61 33.79,-116.41l0 0z"
   id="path2283" />
  <path
   fill="url(#id9)"
   stroke="#000000"
   stroke-width="25"
   stroke-linejoin="bevel"
   d="M468.06 11619.9c68.13,77.63 163.56,126.02 266.44,135.11 264.92,31.83 531.13,51.91 797.83,60.21 103.56,2.45 196.02,65.49 236.13,160.99 204.98,708.25 421.46,1413.12 649.35,2114.33l7.2 6.01c11.34,34.85 22.71,69.71 34.1,104.55 33.64,6.04 67.29,11.92 100.97,17.73 -11.73,80.07 -30.16,159.02 -55.1,236.01 -0.05,2.33 -0.11,4.68 -0.19,7.01 0,0 0,0 0,0 -8.53,64.58 -45.94,121.8 -101.69,155.5 -74.69,33.88 -157.29,46.44 -238.67,36.29 -373.64,-41.76 -747.16,-84.58 -1120.55,-128.46 -140.16,-13.68 -276.19,-55.11 -400.18,-121.87 -105.77,-73.81 -179.63,-184.96 -206.71,-311.06 -119.96,-674.3 -206.75,-1354.09 -260.05,-2036.91 -1.18,-21.93 -1.71,-43.91 -1.63,-65.84 -0.14,-73.97 6.85,-147.81 20.95,-220.53 26.83,-148.41 117.86,-277.37 248.7,-352.36l-0.76 6.86c0.25,-0.15 0.5,-0.3 0.76,-0.45l12.13 -5.02c3.63,70.74 7.28,138.34 10.97,201.9z"
   id="path2285" />
  <path
   fill="url(#id10)"
   d="M2237.68 14313.2c21.71,56.13 36.8,114.6 44.95,174.23 -3.14,33.81 -19.68,64.96 -45.94,86.48 -26.26,21.53 -60.04,31.64 -93.81,28.08 -394.63,-44.01 -789.12,-89.21 -1183.48,-135.62 -178.84,-16.24 -342.51,-107.21 -450.74,-250.5 -46.49,-75.95 -78.17,-160.02 -93.36,-247.76 -108.78,-633.58 -188.31,-1271.84 -238.34,-1912.74 -5.05,-93.76 1.44,-187.78 19.32,-279.96 19.72,-109.09 74.4,-208.81 155.77,-284.1 -39.9,77.99 -38.57,170.68 3.54,247.51 42.11,76.82 119.54,127.79 206.75,136.1 294.85,37.91 590.86,66.13 887.57,84.63 39.08,2.94 72.23,29.86 83.12,67.52 221.51,766.1 456.43,1528.26 704.65,2286.13z"
   id="path2287" />
  <path
   fill="url(#id11)"
   stroke="#000000"
   stroke-width="25"
   stroke-linejoin="bevel"
   d="M9731.94 11619.9c-68.13,77.63 -163.56,126.02 -266.44,135.11 -264.92,31.83 -531.13,51.91 -797.83,60.21 -103.56,2.45 -196.02,65.49 -236.13,160.99 -204.98,708.25 -421.46,1413.12 -649.35,2114.33l-7.2 6.01c-11.34,34.85 -22.71,69.71 -34.1,104.55 -33.64,6.04 -67.29,11.92 -100.97,17.73 11.73,80.07 30.16,159.02 55.1,236.01 0.05,2.33 0.11,4.68 0.19,7.01 0,0 0,0 0,0 8.53,64.58 45.94,121.8 101.69,155.5 74.69,33.88 157.29,46.44 238.67,36.29 373.64,-41.76 747.16,-84.58 1120.55,-128.46 140.16,-13.68 276.19,-55.11 400.18,-121.87 105.77,-73.81 179.63,-184.96 206.71,-311.06 119.96,-674.3 206.75,-1354.09 260.05,-2036.91 1.18,-21.93 1.71,-43.91 1.63,-65.84 0.14,-73.97 -6.85,-147.81 -20.95,-220.53 -26.83,-148.41 -117.86,-277.37 -248.7,-352.36l0.76 6.86c-0.25,-0.15 -0.5,-0.3 -0.76,-0.45l-12.13 -5.02c-3.63,70.74 -7.28,138.34 -10.97,201.9z"
   id="path2289" />
  <path
   fill="url(#id12)"
   d="M7962.32 14313.2c-21.71,56.13 -36.8,114.6 -44.95,174.23 3.14,33.81 19.68,64.96 45.94,86.48 26.26,21.53 60.04,31.64 93.81,28.08 394.63,-44.01 789.12,-89.21 1183.48,-135.62 178.84,-16.24 342.51,-107.21 450.74,-250.5 46.49,-75.95 78.17,-160.02 93.36,-247.76 108.78,-633.58 188.31,-1271.84 238.34,-1912.74 5.05,-93.76 -1.44,-187.78 -19.32,-279.96 -19.72,-109.09 -74.4,-208.81 -155.77,-284.1 39.9,77.99 38.57,170.68 -3.54,247.51 -42.11,76.82 -119.54,127.79 -206.75,136.1 -294.85,37.91 -590.86,66.13 -887.57,84.63 -39.08,2.94 -72.23,29.86 -83.12,67.52 -221.51,766.1 -456.43,1528.26 -704.65,2286.13z"
   id="path2291" />
  <path
   fill="url(#id13)"
   stroke="#000000"
   stroke-width="25"
   stroke-linejoin="bevel"
   d="M9731.94 3380.11c-68.13,-77.63 -163.56,-126.02 -266.44,-135.11 -264.92,-31.83 -531.13,-51.91 -797.83,-60.21 -103.56,-2.45 -196.02,-65.49 -236.13,-160.99 -218.44,-754.77 -449.94,-1505.71 -694.4,-2252.46 -30.44,-73.85 -44.74,-153.35 -41.93,-233.18 0,0 0,0 0,0 8.53,-64.58 45.94,-121.8 101.69,-155.5 74.69,-33.88 157.29,-46.44 238.67,-36.29 373.64,41.76 747.16,84.58 1120.55,128.46 140.16,13.68 276.19,55.11 400.18,121.87 105.77,73.81 179.63,184.96 206.71,311.06 119.96,674.3 206.75,1354.09 260.05,2036.91 5.05,93.76 -1.44,187.78 -19.32,279.96 -26.83,148.4 -117.86,277.37 -248.7,352.36l-12.13 5.02c-3.63,-70.74 -7.28,-138.34 -10.97,-201.9z"
   id="path2293" />
  <path
   fill="url(#id14)"
   d="M7962.34 686.84c-21.71,-56.13 -36.8,-114.6 -44.95,-174.23 3.14,-33.81 19.68,-64.96 45.94,-86.48 26.26,-21.53 60.04,-31.64 93.81,-28.08 394.63,44.01 789.12,89.21 1183.48,135.62 178.84,16.24 342.51,107.21 450.74,250.5 46.49,75.95 78.17,160.02 93.36,247.76 108.78,633.58 188.31,1271.84 238.34,1912.74 5.05,93.76 -1.44,187.78 -19.32,279.96 -19.72,109.09 -74.4,208.81 -155.77,284.1 39.9,-77.99 38.57,-170.68 -3.54,-247.51 -42.11,-76.82 -119.54,-127.79 -206.75,-136.1 -294.85,-37.91 -590.86,-66.13 -887.57,-84.63 -39.08,-2.94 -72.23,-29.86 -83.12,-67.52 -221.51,-766.1 -456.43,-1528.26 -704.65,-2286.13z"
   id="path2295" />
  <path
   fill="url(#id15)"
   stroke="#000000"
   stroke-width="25"
   stroke-linejoin="bevel"
   d="M468.06 3380.11c68.13,-77.63 163.56,-126.02 266.44,-135.11 264.92,-31.83 531.13,-51.91 797.83,-60.21 103.56,-2.45 196.02,-65.49 236.13,-160.99 218.44,-754.77 449.94,-1505.71 694.4,-2252.46 30.44,-73.85 44.74,-153.35 41.93,-233.18 0,0 0,0 0,0 -8.53,-64.58 -45.94,-121.8 -101.69,-155.5 -74.69,-33.88 -157.29,-46.44 -238.67,-36.29 -373.64,41.76 -747.16,84.58 -1120.55,128.46 -140.16,13.68 -276.19,55.11 -400.18,121.87 -105.77,73.81 -179.63,184.96 -206.71,311.06 -119.96,674.3 -206.75,1354.09 -260.05,2036.91 -5.05,93.76 1.44,187.78 19.32,279.96 26.83,148.4 117.86,277.37 248.7,352.36l12.13 5.02c3.63,-70.74 7.28,-138.34 10.97,-201.9z"
   id="path2297" />
  <path
   fill="url(#id16)"
   d="M2237.66 686.84c21.71,-56.13 36.8,-114.6 44.95,-174.23 -3.14,-33.81 -19.68,-64.96 -45.94,-86.48 -26.26,-21.53 -60.04,-31.64 -93.81,-28.08 -394.63,44.01 -789.12,89.21 -1183.48,135.62 -178.84,16.24 -342.51,107.21 -450.74,250.5 -46.49,75.95 -78.17,160.02 -93.36,247.76 -108.78,633.58 -188.31,1271.84 -238.34,1912.74 -5.05,93.76 1.44,187.78 19.32,279.96 19.72,109.09 74.4,208.81 155.77,284.1 -39.9,-77.99 -38.57,-170.68 3.54,-247.51 42.11,-76.82 119.54,-127.79 206.75,-136.1 294.85,-37.91 590.86,-66.13 887.57,-84.63 39.08,-2.94 72.23,-29.86 83.12,-67.52 221.51,-766.1 456.43,-1528.26 704.65,-2286.13z"
   id="path2299" />
  <path
   fill="url(#id17)"
   stroke="#8192A8"
   stroke-width="35"
   stroke-linejoin="bevel"
   d="M8010.24 2331.11c-1915.89,-433.94 -3904.57,-433.94 -5820.46,0 -109.01,24.69 -195.76,107.07 -226.04,214.67 -278.39,989.15 -486.27,1996.8 -622.08,3015.37 -19.53,146.49 68.85,285.87 209.67,330.69 2308.73,734.76 4788.62,734.76 7097.36,0 140.82,-44.82 229.19,-184.2 209.66,-330.69 -135.8,-1018.57 -343.68,-2026.22 -622.07,-3015.37 -30.28,-107.6 -117.03,-189.98 -226.04,-214.67l0 0z"
   id="path2301" />
  <path
   fill="#EB7373"
   stroke="#000000"
   stroke-width="18"
   stroke-linejoin="bevel"
   d="M4553.45 1147.94c0,-74.64 -60.5,-135.17 -135.14,-135.17 -74.64,0 -135.16,60.53 -135.16,135.17 0,74.64 60.52,135.13 135.16,135.13 74.64,0 135.14,-60.49 135.14,-135.13z"
   id="path2303" />
  <path
   fill="#D7F791"
   stroke="#000000"
   stroke-width="18"
   stroke-linejoin="bevel"
   d="M5837.69 1147.94c0,-74.64 -60.49,-135.17 -135.13,-135.17 -74.64,0 -135.17,60.53 -135.17,135.17 0,74.64 60.53,135.13 135.17,135.13 74.64,0 135.13,-60.49 135.13,-135.13z"
   id="path2305" />
  <path
   fill="#B8B2B2"
   stroke="#000000"
   stroke-width="18"
   stroke-linejoin="bevel"
   d="M5235.16 1637.99c0,-74.64 -60.52,-135.16 -135.16,-135.16 -74.64,0 -135.13,60.52 -135.13,135.16 0,74.64 60.49,135.13 135.13,135.13 74.64,0 135.16,-60.49 135.16,-135.13l0 0z"
   id="path2307" />
  <path
   fill="#000000"
   stroke="#000000"
   stroke-width="18"
   stroke-linejoin="bevel"
   d="M5184.91 1637.99c0,-46.9 -38.01,-84.91 -84.91,-84.91 -46.87,0 -84.91,38.01 -84.91,84.91 0,46.87 38.04,84.91 84.91,84.91 46.9,0 84.91,-38.04 84.91,-84.91z"
   id="path2309" />
  <path
   fill="url(#id18)"
   stroke="#000000"
   stroke-width="18"
   stroke-linejoin="bevel"
   d="M4558.61 11799.2c3.48,195.75 -132.34,366.48 -323.83,407.12 -191.52,40.64 -384.96,-60.17 -461.31,-240.45 -76.34,-180.28 -14.15,-389.38 148.32,-498.63 31.79,-21.37 73.53,-20.66 104.58,1.78 144.21,104.25 302.84,186.93 470.89,245.46 36.18,12.6 60.66,46.42 61.35,84.72l0 0z"
   id="path2311" />
  <path
   fill="url(#id19)"
   stroke="#000000"
   stroke-width="18"
   stroke-linejoin="bevel"
   d="M3375.15 10603c60.13,167.48 144.33,325.31 249.95,468.52 22.74,30.83 23.84,72.57 2.77,104.56 -107.69,163.5 -316.18,227.7 -497.18,153.08 -181,-74.62 -283.68,-267.11 -244.86,-458.99 38.81,-191.88 208.24,-329.31 404.02,-327.7 38.3,0.31 72.35,24.47 85.3,60.53z"
   id="path2313" />
  <path
   fill="url(#id20)"
   stroke="#000000"
   stroke-width="18"
   stroke-linejoin="bevel"
   d="M6804.79 10034.5l65.65 -37.56 0 0c4.75,-2.71 7.67,-7.76 7.67,-13.22 0,-5.47 -2.92,-10.51 -7.67,-13.23l0 0 -65.65 -37.56c-10.68,-359.91 -134.89,-717.16 -372.81,-1014.61 -16.24,-20.31 -40.37,-32.74 -66.34,-34.18 -25.97,-1.44 -51.32,8.24 -69.71,26.64l-300.42 300.42c-31.98,31.97 -35.78,82.51 -8.95,118.91 286.53,388.64 286.53,918.59 0,1307.23 -26.83,36.4 -23.03,86.94 8.95,118.91l300.42 300.42c18.39,18.39 43.74,28.08 69.71,26.64 25.97,-1.44 50.1,-13.87 66.34,-34.18 237.93,-297.47 362.13,-654.7 372.81,-1014.63zm-1654.01 -1755.57l-37.56 -65.65 0 0c-2.71,-4.75 -7.76,-7.67 -13.22,-7.67 -5.47,0 -10.51,2.92 -13.23,7.67l0 0 -37.56 65.65c-359.91,10.68 -717.16,134.89 -1014.61,372.81 -20.31,16.24 -32.74,40.37 -34.18,66.34 -1.44,25.97 8.24,51.32 26.64,69.71l300.42 300.42c31.97,31.98 82.51,35.78 118.91,8.95 388.64,-286.53 918.59,-286.53 1307.23,0 36.4,26.83 86.94,23.03 118.91,-8.95l300.42 -300.42c18.39,-18.39 28.08,-43.74 26.64,-69.71 -1.44,-25.97 -13.87,-50.1 -34.18,-66.34 -297.47,-237.93 -654.7,-362.13 -1014.63,-372.81l0 0zm-1755.57 1654.01l-65.65 37.56 0 0c-4.75,2.71 -7.67,7.76 -7.67,13.22 0,5.47 2.92,10.51 7.67,13.23l0 0 65.65 37.56c10.68,359.91 134.89,717.16 372.81,1014.61 16.24,20.31 40.37,32.74 66.34,34.18 25.97,1.44 51.32,-8.24 69.71,-26.64l300.42 -300.42c31.98,-31.97 35.78,-82.51 8.95,-118.91 -286.53,-388.64 -286.53,-918.59 0,-1307.23 26.83,-36.4 23.03,-86.94 -8.95,-118.91l-300.42 -300.42c-18.39,-18.39 -43.74,-28.08 -69.71,-26.64 -25.97,1.44 -50.1,13.87 -66.34,34.18 -237.93,297.47 -362.13,654.7 -372.81,1014.63l0 0zm1654.01 1755.57l37.56 65.65 0 0c2.71,4.75 7.76,7.67 13.22,7.67 5.47,0 10.51,-2.92 13.23,-7.67l0 0 37.56 -65.65c359.91,-10.68 717.16,-134.89 1014.61,-372.81 20.31,-16.24 32.74,-40.37 34.18,-66.34 1.44,-25.97 -8.24,-51.32 -26.64,-69.71l-300.42 -300.42c-31.97,-31.98 -82.51,-35.78 -118.91,-8.95 -388.64,286.53 -918.59,286.53 -1307.23,0 -36.4,-26.83 -86.94,-23.03 -118.91,8.95l-300.42 300.42c-18.39,18.39 -28.08,43.74 -26.64,69.71 1.44,25.97 13.87,50.1 34.18,66.34 297.47,237.93 654.7,362.13 1014.63,372.81l0 0z"
   id="path2315" />
  <path
   fill="url(#id21)"
   stroke="#000000"
   stroke-width="18"
   stroke-linejoin="bevel"
   d="M5591.33 9983.76c0,-271.35 -219.97,-491.33 -491.33,-491.33 -271.35,0 -491.33,219.98 -491.33,491.33 0,271.36 219.98,491.33 491.33,491.33 271.36,0 491.33,-219.97 491.33,-491.33z"
   id="path2317" />
  <path
   fill="url(#id22)"
   stroke="#000000"
   stroke-width="18"
   stroke-linejoin="bevel"
   d="M6151.03 7877.98l0 -235.28c0,-50.49 40.93,-91.43 91.42,-91.43l1136.07 0c100.99,0 182.85,81.87 182.85,182.86l0 52.42c0,100.99 -81.86,182.86 -182.85,182.86l-1136.07 0c-50.49,0 -91.42,-40.94 -91.42,-91.43l0 0z"
   id="path2319" />
  <path
   fill="url(#id23)"
   stroke="#000000"
   stroke-width="18"
   stroke-linejoin="bevel"
   d="M4447.46 7642.7l0 235.28c0,50.49 40.94,91.43 91.43,91.43l1122.23 0c50.49,0 91.42,-40.94 91.42,-91.43l0 -235.28c0,-50.49 -40.93,-91.43 -91.42,-91.43l-1122.23 0c-50.49,0 -91.43,40.94 -91.43,91.43l0 0z"
   id="path2321" />
  <path
   fill="url(#id24)"
   stroke="#000000"
   stroke-width="18"
   stroke-linejoin="bevel"
   d="M2638.63 7786.55c0,100.99 81.87,182.86 182.86,182.86l1136.06 0c50.5,0 91.43,-40.94 91.43,-91.43l0 -235.28c0,-50.49 -40.93,-91.43 -91.43,-91.43l-1136.06 0c-100.99,0 -182.86,81.87 -182.86,182.86l0 52.42 0 0z"
   id="path2323" />
  <path
   fill="url(#id25)"
   d="M4096.36 10070.8l347.73 0 0 -173.96 -347.73 0 0 173.96 0 0z"
   id="path2325" />
  <path
   fill="url(#id26)"
   d="M5186.95 10987.4l0 -347.73 -173.96 0 0 347.73 173.96 0z"
   id="path2327" />
  <path
   fill="url(#id27)"
   d="M6103.64 9896.84l-347.73 0 0 173.96 347.73 0 0 -173.96 0 0z"
   id="path2329" />
  <path
   fill="url(#id28)"
   d="M5013.05 8980.15l0 347.73 173.96 0 0 -347.73 -173.96 0z"
   id="path2331" />
  <path
   fill="none"
   stroke="#E6E6E6"
   stroke-width="18"
   stroke-linejoin="bevel"
   d="M5289.7 8567.64l0 0c5.44,0 10.46,-2.89 13.19,-7.59 2.72,-4.7 2.74,-10.5 0.04,-15.22l0 0 -189.71 -331.53 0 0c-2.71,-4.75 -7.76,-7.67 -13.22,-7.67 -5.47,0 -10.51,2.92 -13.23,7.67l0 0 -189.7 331.53 0 0c-2.7,4.72 -2.69,10.52 0.04,15.22 2.73,4.7 7.75,7.59 13.18,7.59l0 0 379.41 0z"
   id="path2333" />
  <path
   fill="none"
   stroke="#E6E6E6"
   stroke-width="18"
   stroke-linejoin="bevel"
   d="M5195.19 10182.5c-8.41,0 -15.24,-6.82 -15.24,-15.24l0 -377.4c0,-8.42 6.83,-15.24 15.24,-15.24l57.98 0c8.41,0 15.24,6.82 15.24,15.24l0 377.4c0,8.42 -6.83,15.24 -15.24,15.24l-57.98 0z"
   id="path2335" />
  <path
   fill="none"
   stroke="#E6E6E6"
   stroke-width="18"
   stroke-linejoin="bevel"
   d="M5365.5 10183.3c-8.42,0 -15.24,-6.82 -15.24,-15.24l0 -377.4c0,-8.41 6.82,-15.23 15.24,-15.23l57.97 0c8.42,0 15.24,6.82 15.24,15.23l0 377.4c0,8.42 -6.82,15.24 -15.24,15.24l-57.97 0z"
   id="path2337" />
  <path
   fill="none"
   stroke="#E6E6E6"
   stroke-width="18"
   stroke-linejoin="bevel"
   d="M6292.1 10173.5l0 0c0,5.44 2.89,10.46 7.59,13.19 4.7,2.72 10.5,2.74 15.22,0.04l0 0 331.53 -189.71 0 0c4.75,-2.71 7.67,-7.76 7.67,-13.22 0,-5.47 -2.92,-10.51 -7.67,-13.23l0 0 -331.53 -189.7 0 0c-4.72,-2.7 -10.52,-2.69 -15.22,0.04 -4.7,2.73 -7.59,7.75 -7.59,13.18l0 0 0 379.41 0 0z"
   id="path2339" />
  <path
   fill="none"
   stroke="#E6E6E6"
   stroke-width="18"
   stroke-linejoin="bevel"
   d="M4761.3 10169.3l0 0c0,5.44 2.89,10.46 7.59,13.19 4.7,2.72 10.5,2.74 15.22,0.04l0 0 331.53 -189.71 0 0c4.75,-2.71 7.67,-7.76 7.67,-13.22 0,-5.47 -2.92,-10.51 -7.67,-13.23l0 0 -331.53 -189.7 0 0c-4.72,-2.7 -10.52,-2.69 -15.22,0.04 -4.7,2.73 -7.59,7.75 -7.59,13.18l0 0 0 379.41 0 0z"
   id="path2341" />
  <path
   fill="none"
   stroke="#E6E6E6"
   stroke-width="18"
   stroke-linejoin="bevel"
   d="M6516.1 10173.5l0 0c0,5.44 2.89,10.46 7.59,13.19 4.7,2.72 10.5,2.74 15.22,0.04l0 0 331.53 -189.71 0 0c4.75,-2.71 7.67,-7.76 7.67,-13.22 0,-5.47 -2.92,-10.51 -7.67,-13.23l0 0 -331.53 -189.7 0 0c-4.72,-2.7 -10.52,-2.69 -15.22,0.04 -4.7,2.73 -7.59,7.75 -7.59,13.18l0 0 0 101.91 130.34 74.58 0 0c4.75,2.72 7.67,7.76 7.67,13.23 0,5.46 -2.92,10.51 -7.67,13.22l0 0 -130.34 74.58 0 101.89 0 0z"
   id="path2343" />
  <path
   fill="none"
   stroke="#E6E6E6"
   stroke-width="18"
   stroke-linejoin="bevel"
   d="M3907.9 9794.03l0 0c0,-5.44 -2.89,-10.46 -7.59,-13.19 -4.7,-2.72 -10.5,-2.74 -15.22,-0.04l0 0 -331.53 189.71 0 0c-4.75,2.71 -7.67,7.76 -7.67,13.22 0,5.47 2.92,10.51 7.67,13.23l0 0 331.53 189.7 0 0c4.72,2.7 10.52,2.69 15.22,-0.04 4.7,-2.73 7.59,-7.75 7.59,-13.18l0 0 0 -379.41 0 0z"
   id="path2345" />
  <path
   fill="none"
   stroke="#E6E6E6"
   stroke-width="18"
   stroke-linejoin="bevel"
   d="M3683.9 9794.04l0 0c0,-5.44 -2.89,-10.46 -7.59,-13.19 -4.7,-2.72 -10.5,-2.74 -15.22,-0.04l0 0 -331.53 189.71 0 0c-4.75,2.71 -7.67,7.76 -7.67,13.22 0,5.47 2.92,10.51 7.67,13.23l0 0 331.53 189.7 0 0c4.72,2.7 10.52,2.69 15.22,-0.04 4.7,-2.73 7.59,-7.75 7.59,-13.18l0 0 0 -101.91 -130.34 -74.58 0 0c-4.75,-2.72 -7.67,-7.76 -7.67,-13.23 0,-5.46 2.92,-10.51 7.67,-13.22l0 0 130.34 -74.58 0 -101.89 0 0z"
   id="path2347" />
  <path
   fill="none"
   stroke="#E6E6E6"
   stroke-width="18"
   stroke-linejoin="bevel"
   d="M4910.3 11399.9l0 0c-5.44,0 -10.46,2.89 -13.19,7.59 -2.72,4.7 -2.74,10.5 -0.04,15.22l0 0 189.71 331.53 0 0c2.71,4.75 7.76,7.67 13.22,7.67 5.47,0 10.51,-2.92 13.23,-7.67l0 0 189.7 -331.53 0 0c2.7,-4.72 2.69,-10.52 -0.04,-15.22 -2.73,-4.7 -7.75,-7.59 -13.18,-7.59l0 0 -379.41 0z"
   id="path2349" />
  <path
   fill="none"
   stroke="#E6E6E6"
   stroke-width="18"
   stroke-linejoin="bevel"
   d="M4192.08 11690c-1.84,3.61 -5.04,6.33 -8.86,7.6 -3.86,1.25 -8.03,0.9 -11.64,-0.94l-1.36 -0.69c-7.49,-3.82 -10.47,-13 -6.65,-20.5l21.77 -42.74c3.82,-7.49 0.84,-16.67 -6.66,-20.49l-23.87 -12.16c-7.52,-3.84 -16.67,-0.84 -20.49,6.65l-47.79 93.8c-3.82,7.49 -0.86,16.66 6.66,20.49l156.46 79.73c7.5,3.82 16.68,0.83 20.5,-6.66l12.18 -23.9c3.81,-7.49 0.83,-16.68 -6.66,-20.49l-25.88 -13.19c-7.52,-3.83 -10.48,-13 -6.66,-20.5l21.78 -42.74c3.82,-7.49 0.83,-16.67 -6.66,-20.49l-23.9 -12.18c-7.49,-3.82 -16.68,-0.83 -20.49,6.66l-21.78 42.74z"
   id="path2351" />
  <path
   fill="none"
   stroke="#E6E6E6"
   stroke-width="18"
   stroke-linejoin="bevel"
   d="M4110.98 11849.2c-1.84,3.61 -5.03,6.32 -8.86,7.59 -3.84,1.23 -8.02,0.91 -11.63,-0.93l-1.36 -0.69c-7.49,-3.82 -10.48,-13.01 -6.66,-20.5l21.78 -42.74c3.82,-7.5 0.83,-16.68 -6.66,-20.5l-23.87 -12.16c-7.52,-3.83 -16.68,-0.83 -20.49,6.66l-47.79 93.79c-3.82,7.5 -0.87,16.67 6.65,20.5l156.47 79.72c7.5,3.82 16.68,0.84 20.5,-6.66l12.17 -23.89c3.82,-7.5 0.84,-16.68 -6.66,-20.5l-25.88 -13.18c-7.52,-3.84 -10.47,-13.01 -6.65,-20.5l21.77 -42.74c3.82,-7.5 0.84,-16.68 -6.66,-20.5l-23.89 -12.17c-7.5,-3.82 -16.68,-0.84 -20.5,6.66l-21.78 42.74z"
   id="path2353" />
  <path
   fill="none"
   stroke="#E6E6E6"
   stroke-width="18"
   stroke-linejoin="bevel"
   d="M4089.61 11959.5l-30.77 -15.68c-49.7,-17.12 -104.39,4.96 -128.26,51.8 -23.85,46.81 -9.57,104.06 33.5,134.18l30.76 15.68c49.69,17.14 104.42,-4.95 128.27,-51.76 23.87,-46.84 9.55,-104.08 -33.5,-134.22m-30.25 48.88l-22.27 -11.35c-21.99,-5.96 -45.14,4.3 -55.48,24.59 -10.34,20.29 -5.03,45.04 12.72,59.33l22.28 11.35c21.96,5.95 45.11,-4.31 55.45,-24.6 10.33,-20.29 5.03,-45.04 -12.7,-59.32z"
   id="path2355" />
  <path
   fill="none"
   stroke="#E6E6E6"
   stroke-width="18"
   stroke-linejoin="bevel"
   d="M3281.9 11053.2l-82.45 -155.08c-3.95,-7.43 -1.16,-16.64 6.29,-20.6l23.66 -12.57c5.11,-2.72 11.3,-2.32 16.02,1.03l71.52 35.53c3.56,1.76 7.88,1.02 10.63,-1.82 2.76,-2.84 3.38,-7.15 1.51,-10.67l-24.8 -46.64c-3.95,-7.43 -1.12,-16.65 6.31,-20.6l23.68 -12.59c7.42,-3.95 16.65,-1.14 20.6,6.29l82.46 155.08c3.95,7.43 1.12,16.66 -6.3,20.61l-23.68 12.59c-5.55,2.95 -12.33,2.18 -17.1,-1.91l-70.68 -35.09c-3.55,-1.77 -7.86,-1.03 -10.63,1.82 -2.76,2.85 -3.37,7.15 -1.5,10.68l25.02 47.06c1.89,3.55 2.3,7.75 1.12,11.59 -1.16,3.86 -3.83,7.11 -7.42,9.02l-23.65 12.58c-7.46,3.96 -16.66,1.12 -20.61,-6.31l0 0z"
   id="path2357" />
  <path
   fill="none"
   stroke="#E6E6E6"
   stroke-width="18"
   stroke-linejoin="bevel"
   d="M3205.35 11014l-16.21 -30.49c-30.89,-42.52 -88.35,-55.81 -134.77,-31.13 -46.39,24.67 -67.54,79.75 -49.53,129.13l16.21 30.49c30.87,42.53 88.37,55.83 134.76,31.17 46.42,-24.68 67.52,-79.78 49.54,-129.17m-52.81 22.7l-11.74 -22.07c-14.59,-17.5 -39.44,-22.37 -59.54,-11.68 -20.11,10.69 -29.96,34.01 -23.62,55.9l11.74 22.07c14.58,17.47 39.43,22.35 59.53,11.66 20.11,-10.69 29.96,-34.02 23.63,-55.88z"
   id="path2359" />
  <path
   fill="#000000"
   stroke="#162040"
   stroke-width="25"
   stroke-linejoin="bevel"
   d="M3224.31 5653.94l0 -2965.3 3751.4 0 0 2965.3 -3751.4 0z"
   id="path2361" />
  <path
   fill="#C5E07B"
   stroke="#5F6350"
   stroke-width="25"
   stroke-linejoin="bevel"
   d="M3249.29 5628.94l0 -2915.3 3701.43 0 0 2915.3 -3701.43 0 0 0z"
   id="path2363" />
  <g
   id="g2365">
   <path
   fill="#000000"
   d="M4495.48 3403.82c-58.48,-254.47 -209.9,-265.55 -245.51,-265.55l0 -14.88c78.96,0 206.57,56.35 252.95,249.75 59.41,-192.99 160.86,-244.79 232.07,-245.77 67.85,-0.94 109.7,14.88 174.01,48.39l0 -30.2 185.68 0 0 -25.46 14.88 0 0 25.46 31.48 0 0 14.88 -31.48 0 0 363.86 133.53 -337.55 127.93 0 11.15 -26.31 -159.42 0 0 -14.88 165.72 0 17.52 -41.35 13.7 5.81 -15.06 35.54 35.26 0 0 14.88 -41.57 0 -104.06 245.6 137.82 0 0 184.08c128.98,-63.49 283.3,-16.91 361.08,107.37 77.14,-118.93 227.86,-166.32 359.18,-112.94l-5.22 -8.45 221.95 0 44.34 71.68 43.3 -70.02c0.64,-1.03 1.78,-1.66 2.99,-1.66l0 0c1.28,0 2.45,0.69 3.07,1.8 0.63,1.11 0.6,2.48 -0.08,3.56l-45.15 73.01 5.79 9.35 53.22 -86.06c0.64,-1.03 1.77,-1.66 2.99,-1.66l0 0c1.28,0 2.45,0.69 3.07,1.8 0.62,1.11 0.59,2.48 -0.08,3.56l-55.07 89.04 5.79 9.36 64.17 -103.76 221.95 0 -175.15 283.19 5.78 9.35 184.82 -298.81 -230.57 0c-1.28,0 -2.45,-0.69 -3.07,-1.8 -0.62,-1.12 -0.59,-2.48 0.08,-3.57l0 0c0.64,-1.03 1.77,-1.66 2.99,-1.66l243.18 0 -183.38 296.49 171.55 277.36c0.67,1.08 0.7,2.44 0.08,3.56 -0.62,1.11 -1.8,1.8 -3.07,1.8 -1.22,0 -2.35,-0.63 -2.99,-1.67l-169.7 -274.37 -5.79 9.35 164.95 266.69 -221.95 0 -42.4 -68.55 -41.36 66.88c-0.64,1.04 -1.77,1.67 -2.99,1.67l0 0c-0.58,0 -1.15,-0.14 -1.65,-0.41 -0.51,0.27 -1.08,0.41 -1.66,0.41 -1.27,0 -2.45,-0.69 -3.07,-1.8 -0.62,-1.12 -0.59,-2.48 0.08,-3.56l44.87 -72.54 -5.79 -9.35 -52.93 85.58c-0.64,1.04 -1.77,1.67 -2.99,1.67 -1.28,0 -2.45,-0.69 -3.07,-1.8 -0.62,-1.12 -0.59,-2.48 0.08,-3.56l54.78 -88.58 -5.78 -9.35 -63.89 103.29 -221.95 0 6.49 -10.5c-131.42,54.29 -282.88,7.28 -360.48,-111.89 -77.67,124.58 -232.19,170.17 -361.34,106.6l0 15.79 -188.58 0 0 -1.42 -31.14 0 13.6 38.39 -14.02 4.96 -15.36 -43.35 -59.78 0 0 -14.87 54.51 0 -111.07 -313.56 -6.57 15.99 0 313.86 -123.01 0 0 -955.26 123.01 0 0 428.26 21.01 -53.1 0 -401.47 -170.8 0 0 43.48c-74.09,-49.82 -123.74,-61.67 -188.89,-61.67 -51.59,0 -164.79,37.6 -224.64,261.57l-14.87 0 0 0zm266.44 758.27l-234.53 0.01 0 -14.88 160.16 0c-122.05,-54.2 -175.23,-250.32 -175.23,-482.84 0,-274.13 73.89,-497.72 247.47,-497.72 79.76,0 125.09,40.98 164.09,78.32l0 24.36c0.02,0.03 0.03,0.05 0.04,0.07l-0.01 206.43 -13.25 0c-28.75,-52.41 -81.63,-126 -136.23,-126 -91.01,0 -136.03,140.96 -134.88,314.54 -1.15,173.58 43.87,314.54 134.88,314.54 54.6,0 107.48,-73.59 136.23,-125.99l13.25 0 0.01 206.42c-0.01,0.03 -0.02,0.05 -0.04,0.07l0 24.36c-38.65,37.01 -83.52,77.58 -161.96,78.31l0 0zm-513.75 -995.43c172.09,0 245.34,234.71 245.34,497.72 0,263.01 -73.25,497.72 -245.34,497.72 -172.08,0 -245.34,-223.58 -245.34,-497.72 0,-274.13 73.26,-497.72 245.34,-497.72l0 0zm-428.42 20.09l-224.07 0 0 554.75c1.45,3.88 2.89,7.76 4.32,11.64 10.06,-2.75 20.5,-3.86 30.91,-3.31 20.38,1.09 38.74,12.65 48.52,30.56 8.85,16.18 13.06,34.49 12.17,52.91 -0.37,7.7 -2.4,15.23 -5.94,22.07 -8.71,16.82 -22.14,30.72 -38.65,39.98 5.59,18.96 10.92,37.98 16.01,57.08 9.74,36.53 14.31,74.25 13.58,112.05 -0.19,9.75 -2.3,19.37 -6.22,28.3 -4.02,9.15 -11.06,16.64 -19.95,21.22 -6.45,3.32 -13.97,3.87 -20.83,1.52 -6.86,-2.35 -12.47,-7.4 -15.53,-13.97 -3.56,-7.66 -5.3,-16.04 -5.09,-24.48 0.12,-4.75 2.41,-9.18 6.23,-12.02 4.8,-3.59 10.7,-5.39 16.69,-5.1 3.93,0.19 7.45,2.49 9.21,6.01 1.76,3.52 1.48,7.71 -0.72,10.97 -2.72,4.01 -6.71,7 -11.32,8.49l1.58 3.44c0.74,1.96 2.4,3.42 4.43,3.93 2.03,0.5 4.18,-0.02 5.75,-1.41 7.73,-6.58 12.54,-15.96 13.39,-26.08 1.12,-17.44 0.75,-34.94 -1.1,-52.32 -5.44,-37.12 -13.52,-73.8 -24.21,-109.77 -2.74,0.87 -5.52,1.62 -8.33,2.25 -8.22,1.83 -16.53,3.25 -24.9,4.27l0 232.28 149.96 0 0 31.07 14.88 0 0 -31.07 31.95 0 0 -14.88 -31.95 0 0 -334.95 14.37 0 130.87 349.83 143.72 0 12.99 33.15 13.85 -5.43 -12.92 -32.96 44.84 0 0 -14.87 -50.67 0 -154.76 -395.02c56.96,-58.76 89.65,-147.21 89.65,-259.53 0,-150.55 -40.76,-280.6 -172.71,-280.6l0 0zm-197.38 695.51c-8.54,3.52 -17.52,5.87 -26.69,7.01l0 -84.65c9.24,25.66 18.1,51.44 26.6,77.35 0.03,0.1 0.06,0.19 0.09,0.29 0,0 0,0 0,0 0,0 0,0 0,0 0,0 0,0 0,0m-14.04 -106.06c2.92,-0.8 5.88,-1.48 8.86,-2.03 9.34,-1.74 18.99,0.52 26.59,6.22 6.92,5.2 11.91,12.56 14.16,20.91 5.02,18.63 3.93,38.38 -3.12,56.34 -1.48,3.77 -3.92,7.08 -7.07,9.62 -2.43,1.95 -4.93,3.78 -7.52,5.5 -9.92,-32.42 -20.55,-64.61 -31.9,-96.56m-12.65 113.07c-2.35,0.29 -4.71,0.5 -7.07,0.63 -25.76,1.39 -49.73,-13.23 -60.26,-36.79 -18.71,-41.81 -21.42,-89.02 -7.65,-132.71 4.84,-15.33 9.84,-30.61 15,-45.84 1.43,-4.21 2.87,-8.42 4.33,-12.62 13.83,32.85 27.05,65.96 39.66,99.3 -17.96,9.63 -32.45,24.63 -41.44,42.92 -1.49,3.02 -0.9,6.65 1.45,9.06 2.36,2.4 5.97,3.06 9.03,1.64 2.65,-1.92 5.11,-4.08 7.34,-6.46 9.08,-10.07 19.97,-18.37 32.09,-24.46 2.53,6.88 5.04,13.77 7.52,20.68l0 -63.12c-11.92,-31.93 -24.56,-63.58 -37.91,-94.95 -2.21,-5.19 -4.47,-10.36 -6.77,-15.51 2.78,-7.63 5.6,-15.24 8.47,-22.83 4.09,-10.83 7.21,-22 9.34,-33.39 2.39,-12.87 1.32,-26.15 -3.12,-38.48 -10.11,-28.08 -29.59,-51.81 -55.17,-67.2 -11.25,-6.77 -24.23,-10.11 -37.35,-9.62 -10.99,0.41 -19.87,9.11 -20.51,20.09 -0.58,9.97 1.73,19.89 6.65,28.58 4.56,8.04 9.46,15.88 14.71,23.48 16.19,23.47 30.19,48.38 41.8,74.42 2.28,5.12 4.55,10.25 6.81,15.39 -3.54,9.74 -7.02,19.52 -10.41,29.32 -15.77,45.47 -25.93,92.7 -30.28,140.63 -2.05,22.62 -0.04,45.42 5.94,67.34 8.21,30.06 34.94,51.36 66.07,52.63 13.94,0.57 27.89,0.01 41.73,-1.67l0 -20.46m203.76 -742.3l-231.65 0 0 -36.09 -14.87 0 0 36.09 -34.65 0 0 14.88 34.65 0 0 165.74 14.87 0 0 -165.74 231.65 0 0 -14.88z"
   id="path2367" />
   <path
   fill="#C5E07B"
   d="M6680.27 3597.89l-170.71 0 -76.31 123.39 -76.32 -123.39 -170.71 0 32.01 51.76c-65.16,-55.32 -152.42,-77.02 -235.89,-58.69 -83.48,18.34 -153.6,74.63 -189.57,152.16 -32.24,-72.13 -92.92,-126.12 -166.3,-147.97 -73.39,-21.86 -152.26,-9.43 -216.18,34.06l0 -204.78 -145 0 0 692.39 145 0 0 -27.93c64.03,43.57 143.06,55.97 216.54,33.96 73.49,-22.01 134.17,-76.24 166.26,-148.59 36.37,77.83 107.18,134.08 191.22,151.89 84.05,17.82 171.58,-4.86 236.4,-61.24l-34.2 55.31 170.71 0 76.03 -122.93 76.02 122.93 170.71 0 -161.38 -260.93 161.67 -261.4 0 0z"
   id="path2369" />
   <path
   fill="#000000"
   d="M5668.05 3858.35c0,-71.19 -57.7,-128.89 -128.88,-128.89 -71.17,0 -128.88,57.7 -128.88,128.89 0,71.18 57.71,128.88 128.88,128.88 71.18,0 128.88,-57.7 128.88,-128.88zm638.85 -65.33c10.81,43.99 10.54,89.97 -0.79,133.82l41.78 -67.55 -40.99 -66.27m-136.95 65.33c0,-71.19 -57.7,-128.89 -128.87,-128.89 -71.18,0 -128.88,57.7 -128.88,128.89 0,71.18 57.7,128.88 128.88,128.88 71.17,0 128.87,-57.7 128.87,-128.88z"
   id="path2371" />
   <path
   fill="#C5E07B"
   d="M3718.69 4127.13l26.95 0 0 -334.95 -26.95 0 0 334.95m55.65 -546.08c45.45,0 52.58,-57.64 52.53,-97.19 -0.04,-39.55 -5.79,-82.47 -45.45,-82.47l-62.73 0 0 218.57 26.95 0 0 -38.91 28.7 0 0 0zm0 14.88l-13.82 0 0 24.03 0.95 0c101.3,0 101.3,-90.72 101.3,-122.24l0 -20.34c0,-30.56 -0.21,-114.89 -85.5,-114.89l-58.58 0 0 24.03 55.65 0c28.95,0 67.78,4.11 67.78,101.19 0,97.07 -39.03,107.41 -67.78,108.22l0 0zm-241.22 -2.66c-11.66,-23.27 -24.28,-46.06 -37.82,-68.28 -4.3,-7.07 -8.2,-14.38 -11.66,-21.9 -2.26,-4.9 -3.6,-10.17 -3.96,-15.56 -0.08,-1.16 0.34,-2.3 1.15,-3.13 0.81,-0.84 1.93,-1.29 3.09,-1.25 5.6,0.19 11.05,1.79 15.85,4.67 20.64,12.35 35.35,32.58 40.74,56.02 1.57,6.84 1.62,13.94 0.14,20.8 -2.08,9.65 -4.59,19.2 -7.53,28.63l0 0m2504.44 372.11l7.03 0c58.43,-1.92 104.52,-50.34 103.56,-108.79 -0.96,-58.46 -48.61,-105.34 -107.07,-105.34 -58.46,0 -106.12,46.88 -107.07,105.34 -0.97,58.45 45.13,106.87 103.55,108.79l0 0zm-501.9 0l7.02 0c58.43,-1.92 104.52,-50.34 103.56,-108.79 -0.95,-58.46 -48.61,-105.34 -107.07,-105.34 -58.46,0 -106.11,46.88 -107.07,105.34 -0.96,58.45 45.13,106.87 103.56,108.79l0 0zm-335.73 -336.71l43.57 112.69 0 -215.52 -43.57 102.83m7.16 497.05l-118.38 -334.21 13.88 -33.81 136.8 368.02 -32.3 0m-958.92 -779.1c82.86,0 118.12,149.83 118.12,317.76 0,167.93 -35.26,317.77 -118.12,317.77 -82.87,0 -118.12,-142.75 -118.12,-317.77 0,-175.01 35.25,-317.76 118.12,-317.76l0 0z"
   id="path2373" />
   <path
   fill="#000000"
   d="M6037.56 3965.38c2.35,0.17 4.69,0.16 7.03,0l0 -9.84c53,-1.92 94.69,-45.96 93.72,-98.98 -0.98,-53.03 -44.26,-95.51 -97.3,-95.47 -1.27,-0.02 -2.32,0.65 -2.96,1.74 -0.64,1.1 -0.65,2.46 -0.01,3.55 0.64,1.1 1.7,1.76 2.97,1.74 32.66,-0.02 62.78,17.61 78.76,46.1 15.97,28.48 15.3,63.38 -1.75,91.23 -17.04,27.86 -47.83,44.32 -80.46,43.05l0 16.88zm-498.39 -26.65c-1.94,0 -3.51,-1.57 -3.51,-3.51 0,-1.95 1.57,-3.52 3.51,-3.52 40.51,0 73.35,-32.84 73.35,-73.35 0,-40.52 -32.84,-73.36 -73.35,-73.36 -1.94,0 -3.51,-1.57 -3.51,-3.51 0,-1.94 1.57,-3.52 3.51,-3.52 44.39,0 80.38,35.99 80.38,80.39 0,44.39 -35.99,80.38 -80.38,80.38l0 0zm501.91 0c-1.95,0 -3.52,-1.57 -3.52,-3.51 0,-1.95 1.57,-3.52 3.52,-3.52 40.51,0 73.35,-32.84 73.35,-73.35 0,-40.52 -32.84,-73.36 -73.35,-73.36 -1.95,0 -3.52,-1.57 -3.52,-3.51 0,-1.94 1.57,-3.52 3.52,-3.52 44.39,0 80.37,35.99 80.37,80.39 0,44.39 -35.98,80.38 -80.37,80.38l0 0zm-505.42 26.65c2.34,0.12 4.68,0.09 7.02,0l0 -9.84c53.01,-1.92 94.69,-45.96 93.72,-98.98 -0.97,-53.03 -44.26,-95.51 -97.3,-95.47 -1.27,-0.02 -2.32,0.65 -2.96,1.74 -0.64,1.1 -0.64,2.46 0,3.55 0.64,1.1 1.69,1.76 2.97,1.74 32.65,-0.02 62.78,17.61 78.75,46.1 15.98,28.48 15.3,63.38 -1.74,91.23 -17.05,27.86 -47.83,44.32 -80.46,43.05l0 16.88 0 0zm-1287.49 -27.95l0 -36.75 -14.88 0 0 39.13 0 14.88c80.43,0 104.03,-136.59 104.59,-282.87l338.5 0c0.8,102.98 23.39,260.59 90.61,271.46l0 38.87 14.88 0 0 -310.33 59.23 0 0 -14.88 -59.23 0 0 -53.68 -14.88 0 0 53.68 -75.68 0c1.61,-102.07 30.12,-251.29 83.12,-253.71l0 -14.88c-69.51,2.69 -96.53,161.96 -98.01,268.59l-338.56 0c-0.97,-145.6 -24.47,-281.07 -104.57,-281.07l0 14.28 0 266.79 -45.47 0 0 14.88 45.47 0 0 51.96 14.88 0 0 -51.96 74.81 0c-0.74,93.63 -12.54,244.94 -74.81,265.61l0 0z"
   id="path2375" />
   <path
   fill="#C5E07B"
   d="M4691.26 3671.82c0.96,97.49 25.65,243.04 75.73,256.26l0 -256.26 -75.73 0 0 0zm-368.25 -14.88l-74.84 0 0 -264.39c61.95,20.59 74.39,170.59 74.84,264.39z"
   id="path2377" />
  </g>
  <g
   id="g2379">
   <path
   fill="#969696"
   d="M4676.68 2265.17l0 93.42c0,1.62 -1.31,2.9 -2.91,2.9l-51.62 0c-1.58,0 -2.89,-1.28 -2.89,-2.9l0 -258.61c0,-1.63 1.31,-2.89 2.89,-2.89l156.48 0c35.64,1.05 64.65,29.03 66.98,64.61l0 35.94c-1.89,28.9 -21.51,53.49 -49.21,61.75l50.6 97.88c0.44,0.89 0.41,1.97 -0.11,2.8 -0.52,0.88 -1.45,1.42 -2.49,1.42l-58.12 0c-1.05,0 -2.04,-0.59 -2.56,-1.56l-49.67 -96.08c-0.53,-1 -1.52,-1.59 -2.53,-1.59l-51.97 0c-1.59,0 -2.87,1.28 -2.87,2.91z"
   id="path2381" />
   <path
   fill="#969696"
   d="M5506.31 2361.49c34.18,-2.78 64.83,-22.19 81.94,-51.94 10.96,-25.36 16.83,-52.64 17.33,-80.28 -0.5,-27.61 -6.37,-54.87 -17.33,-80.25 -17.11,-29.75 -47.76,-49.16 -81.94,-51.93l-63.71 0c-34.21,2.77 -64.85,22.18 -81.95,51.93 -10.95,25.38 -16.83,52.64 -17.29,80.25 0.46,27.64 6.34,54.92 17.29,80.28 17.1,29.75 47.74,49.16 81.95,51.94l63.71 0z"
   id="path2383" />
   <path
   fill="#969696"
   d="M4961.24 2361.49l118.93 0c1.6,0 2.88,-1.28 2.88,-2.9l0 -38.69c0,-0.75 -0.3,-1.46 -0.83,-2.03 -0.56,-0.55 -1.28,-0.85 -2.05,-0.85l-95.69 0c-18.21,-0.79 -35.12,-9.89 -45.84,-24.7 -12.57,-18.64 -19.3,-40.56 -19.25,-63.05 -0.05,-22.46 6.68,-44.38 19.25,-62.99 10.72,-14.82 27.63,-23.94 45.84,-24.73l95.69 0c1.6,0 2.88,-1.29 2.88,-2.88l0 -38.69c0,-1.63 -1.28,-2.89 -2.88,-2.89l-118.93 0c-34.18,2.77 -64.86,22.18 -81.95,51.93 -10.92,25.38 -16.82,52.64 -17.33,80.25 0.51,27.64 6.41,54.92 17.33,80.28 17.09,29.75 47.77,49.16 81.95,51.94z"
   id="path2385" />
   <path
   fill="#969696"
   d="M4532.45 2302.66l-107.01 0c-0.89,0 -1.68,0.4 -2.25,1.07l-46.51 56.69c-0.55,0.68 -1.35,1.07 -2.22,1.07l-50.04 0c-1.1,0 -2.12,-0.66 -2.59,-1.66 -0.47,-1.01 -0.35,-2.22 0.37,-3.05l212.13 -258.64c0.54,-0.67 1.36,-1.05 2.23,-1.05l53.31 0c1.58,0 2.86,1.26 2.86,2.89l0 258.61c0,1.62 -1.28,2.9 -2.86,2.9l-51.64 0c-1.59,0 -2.87,-1.28 -2.87,-2.9l0 -53.03c0,-1.62 -1.32,-2.9 -2.91,-2.9z"
   id="path2387" />
   <path
   fill="#969696"
   d="M5164.03 2254.4l0 104.19c0,1.62 -1.3,2.9 -2.9,2.9l-51.65 0c-1.59,0 -2.87,-1.28 -2.87,-2.9l0 -258.61c0,-1.63 1.28,-2.89 2.87,-2.89l51.65 0c1.6,0 2.9,1.26 2.9,2.89l0 104.18c0,1.6 1.29,2.87 2.86,2.87l96.17 0c0.76,0 1.5,-0.28 2.03,-0.83 0.49,-0.53 0.83,-1.28 0.83,-2.04l0 -104.18c0,-0.78 0.27,-1.49 0.83,-2.06 0.58,-0.52 1.32,-0.83 2.1,-0.83l51.62 0c1.58,0 2.87,1.26 2.87,2.89l0 258.61c0,0.78 -0.3,1.48 -0.84,2.06 -0.54,0.52 -1.28,0.84 -2.03,0.84l-51.62 0c-0.78,0 -1.52,-0.32 -2.1,-0.84 -0.56,-0.58 -0.83,-1.28 -0.83,-2.06l0 -104.19c0,-1.59 -1.26,-2.86 -2.86,-2.86l-96.17 0c-1.57,0 -2.86,1.27 -2.86,2.86z"
   id="path2389" />
   <path
   fill="#969696"
   d="M5812.56 2361.49c18.35,-0.22 35.67,-8.6 47.29,-22.86 12.51,-15.3 19.07,-34.59 18.58,-54.34 0.49,-19.79 -6.07,-39.02 -18.58,-54.38 -11.62,-14.24 -28.94,-22.63 -47.29,-22.88l-86.57 0c-11.42,-0.34 -22.15,-5.45 -29.56,-14.15 -4.22,-5.27 -6.69,-11.83 -7,-18.59 0.31,-6.77 2.78,-13.3 7,-18.61 7.41,-8.65 18.14,-13.8 29.56,-14.13l129.77 0c0.76,0 1.47,-0.31 2.03,-0.86 0.57,-0.56 0.86,-1.27 0.86,-2.02l0 -38.69c0,-1.63 -1.29,-2.89 -2.89,-2.89l-167.76 0c-18.35,0.21 -35.64,8.59 -47.24,22.84 -12.5,15.31 -19.12,34.6 -18.6,54.36 -0.52,19.78 6.1,39.01 18.6,54.35 11.6,14.26 28.89,22.64 47.24,22.9l86.63 0c11.38,0.34 22.1,5.45 29.52,14.14 4.25,5.28 6.68,11.83 7.02,18.61 -0.34,6.77 -2.77,13.28 -7.02,18.6 -7.42,8.65 -18.14,13.8 -29.52,14.13l-149.59 0c-0.77,0 -1.5,0.3 -2.05,0.85 -0.54,0.57 -0.83,1.28 -0.83,2.03l0 38.69c0,0.78 0.29,1.48 0.83,2.06 0.55,0.52 1.28,0.84 2.05,0.84l187.52 0 0 0z"
   id="path2391" />
   <path
   fill="#34456E"
   d="M5483.06 2141.55c18.25,0.79 35.12,9.91 45.83,24.73 12.61,18.61 19.31,40.53 19.25,62.99 0.06,22.49 -6.64,44.41 -19.25,63.05 -10.71,14.81 -27.58,23.91 -45.83,24.7 -5.75,0.3 -11.47,0.3 -17.19,0 -18.29,-0.79 -35.15,-9.89 -45.83,-24.7 -12.6,-18.64 -19.31,-40.56 -19.27,-63.05 -0.04,-22.46 6.67,-44.38 19.27,-62.99 10.68,-14.82 27.54,-23.94 45.83,-24.73 5.72,-0.31 11.44,-0.31 17.19,0z"
   id="path2393" />
   <path
   fill="#33436C"
   d="M4676.68 2144.43l0 70.5c0,1.62 1.28,2.87 2.87,2.87l59.21 0c20.27,-1.25 36.8,-16.67 39.56,-36.75l0 -2.77c-2.76,-20.06 -19.29,-35.46 -39.56,-36.73l-59.21 0c-0.74,0 -1.49,0.28 -2.04,0.85 -0.54,0.54 -0.83,1.26 -0.83,2.03z"
   id="path2395" />
   <path
   fill="#32426A"
   d="M4532.45 2258.21l-65.87 0c-1.15,0 -2.13,-0.65 -2.51,-1.64 -0.51,-1.04 -0.37,-2.19 0.38,-3.07l65.78 -80.25c0.76,-0.97 2.04,-1.33 3.19,-0.91 1.16,0.42 1.94,1.51 1.94,2.71l0 80.27c0,1.59 -1.32,2.89 -2.91,2.89z"
   id="path2397" />
  </g>
  <path
   fill="none"
   stroke="#575757"
   stroke-width="35"
   stroke-linecap="round"
   stroke-linejoin="bevel"
   d="M5104.22 12593.7l0 -686.43m0 686.43z"
   id="path2399" />
  <path
   fill="none"
   stroke="#000000"
   stroke-width="7.62"
   stroke-linejoin="bevel"
   d="M2018.62 11536.3l70.61 132.34"
   id="path2401" />
  <path
   fill="#575757"
   d="M5317.67 13169.9l-56.08 0 -16.49 -11.85c-0.59,0.29 -2.09,1.23 -4.61,2.66 -2.45,1.44 -6.2,3.02 -11.24,4.79 -5.05,1.73 -11.74,3.26 -20.09,4.55 -8.43,1.28 -18.29,1.92 -29.67,1.92 -6.33,0 -11.23,-0.05 -14.76,-0.24 -36,-1.83 -54,-15.81 -54,-41.83 0.21,-7.71 5.11,-14.87 14.68,-21.44 9.5,-6.62 19.37,-11.7 29.38,-15.31 0,-0.2 -1.36,-1.48 -4.17,-3.85 -2.74,-2.37 -5.12,-4.35 -6.99,-5.93 -8.35,-7.31 -12.52,-16.25 -12.52,-26.67 0.42,-4.79 3.24,-9.48 8.48,-14.07 5.19,-4.55 11.96,-8.25 20.1,-11.07 8.2,-2.76 16.7,-4.19 25.42,-4.19 17.06,0 31.18,2.51 42.42,7.5 11.15,4.99 16.69,12.15 16.69,21.54 0,9.13 -4.88,16.39 -14.75,21.83 -9.8,5.38 -18.01,8.98 -24.56,10.76l55.8 41.14c6.12,-4.2 10.02,-8.69 11.61,-13.58 0.93,-2.91 1.35,-5.58 1.35,-8.05 0,-3.01 -0.71,-6.07 -2.23,-9.19l17.79 0c1.44,5.24 2.16,8.89 2.16,11.02 0,3.5 -0.72,6.96 -2.23,10.32 -2.31,4.54 -5.33,8.64 -9.22,12.25 -3.82,3.6 -6.2,5.58 -7.2,5.88l44.93 31.11zm-125.72 -91.32c2.45,0 8.06,-2.27 16.78,-6.77 8.71,-4.49 13.04,-9.77 13.04,-15.75 0,-4.99 -2.67,-8.94 -8.08,-11.9 -5.47,-2.97 -12.96,-4.5 -22.6,-4.65 -5.34,0 -9.87,1.88 -13.47,5.59 -3.68,3.7 -5.47,7.35 -5.47,10.96 0,4.35 2.73,8.89 8.21,13.68l11.59 8.84zm-24.99 24.89c-0.57,0.2 -2.16,0.99 -4.68,2.32 -2.59,1.34 -4.9,3.21 -6.91,5.63 -2.09,2.42 -3.09,5.49 -3.09,9.24 0,7.51 4.46,14.87 13.31,22.08 8.94,7.21 20.02,11.7 33.34,13.53 6.77,0 12.25,-0.54 16.35,-1.68 4.04,-1.14 8.72,-2.86 13.89,-5.19l-62.21 -45.93z"
   id="path2403" />
  <g
   id="g2405">
   <path
   fill="#969696"
   d="M3044.75 6144.1l0 -37.1 75.58 0c9.02,0 16.54,-0.92 22.54,-2.78 3.01,-0.75 6.02,-1.86 9.02,-3.35l4.86 -2.79 4.84 -3.63 6.94 -6.41 4.86 -7.53c0.92,-2.79 1.73,-5.77 2.43,-8.93 0.69,-3.16 1.03,-6.23 1.03,-9.2l0 -135.27 57.56 0 0 138.34c0,13.2 -2.19,24.96 -6.59,35.28 -4.39,10.32 -11.2,18.64 -20.45,24.96 -8.1,5.77 -17.8,10.41 -29.13,13.95l-17.68 3.34 -20.11 1.12 -95.7 0zm364.41 -32.63l0 -122.44 50.62 0 0 155.07 -113.73 0c-13.4,0 -23.63,-0.88 -30.68,-2.65 -7.05,-1.77 -14.62,-5.9 -22.71,-12.41 -5.08,-4.28 -9.36,-9.11 -12.83,-14.5 -2.31,-6.14 -3.47,-12 -3.47,-17.58l0 -107.93 50.62 0 0 100.12c0,5.95 2.66,11.16 7.99,15.62 5.3,4.47 12.24,6.7 20.79,6.7l53.4 0zm122.05 -43.79l0 76.42 -50.62 0 0 -216.99 50.62 0 0 130.25 2.42 0 75.6 -68.33 61.36 0 -83.9 73.63 92.92 81.44 -65.18 0 -80.8 -76.42 -2.42 0zm230.63 39.6c2.77,1.68 6.94,3.07 12.48,4.19 5.61,1.11 12.55,1.67 20.86,1.67l72.7 0 0 30.96 -80.09 0c-29.82,0 -53.05,-6.69 -69.7,-20.08 -16.64,-13.39 -24.96,-32.54 -24.96,-57.46 0,-13.01 1.97,-24.03 5.89,-33.05 3.93,-9.02 10.3,-17.06 19.07,-24.12 16.41,-13.58 39.65,-20.36 69.7,-20.36l80.09 0 0 31.23 -72.7 0 -19.12 0.84c-3.94,0.56 -8.68,2.23 -14.22,5.02 -3.06,1.49 -5.95,4.56 -8.73,9.21l-3.46 13.66 0 2.23 118.23 0 0 30.96 -118.23 0 0 1.95 1.74 9.21 1.72 4.46c1.4,3.91 4.28,7.07 8.73,9.48zm126.85 36.82l0 -216.99 50.62 0 0 61.92 61.38 0c29.13,0 52.24,6.69 69.34,20.08 7.63,6.32 13.7,14.45 18.2,24.4 4.51,9.95 6.76,20.97 6.76,33.05 0,25.29 -8.03,44.54 -24.09,57.74 -16.07,13.2 -39.47,19.8 -70.21,19.8l-112 0zm50.62 -32.63l53.4 0c14.33,0 25.94,-4 34.84,-12 8.9,-7.99 13.35,-18.96 13.35,-32.91 0,-13.76 -4.21,-24.68 -12.65,-32.77 -8.44,-8.09 -20.28,-12.13 -35.54,-12.13l-53.4 0 0 89.81zm175.8 -44.91c0,-25.66 9.19,-45.51 27.56,-59.54 18.39,-14.04 44.09,-21.06 77.15,-21.06 32.36,0 57.91,6.92 76.63,20.78 18.72,13.85 28.08,33.79 28.08,59.82 0,25.66 -9.07,45.51 -27.21,59.55 -18.15,14.04 -43.98,21.06 -77.5,21.06 -33.52,0 -59.35,-6.88 -77.5,-20.64 -18.14,-13.76 -27.21,-33.75 -27.21,-59.97zm104.71 -47.97c-18.03,0 -31.32,4.56 -39.87,13.67 -6.94,7.81 -10.4,19.24 -10.4,34.3 0,15.06 3.34,26.41 10.05,34.03 8.1,9.3 21.5,13.95 40.22,13.95 18.03,0 31.33,-4.56 39.88,-13.67 6.92,-7.81 10.39,-19.25 10.39,-34.31 0,-15.06 -3.34,-26.4 -10.05,-34.02 -8.08,-9.3 -21.5,-13.95 -40.22,-13.95zm124.83 -29.56l62.05 0 43 48.53 42.99 -48.53 62.07 0 -75.93 77.53 75.93 77.54 -62.07 0 -42.99 -48.53 -43 48.53 -62.05 0 75.93 -77.54 -75.93 -77.53zm1294.33 69.72l-62.06 0 0 85.35 -58.25 0 0 -216.99 156.38 0c25.88,0 45.65,5.11 59.28,15.38 15.03,11.16 22.54,28.04 22.54,50.58 0,8.74 -0.92,16.36 -2.77,22.78 -1.85,6.41 -4.97,12.36 -9.36,17.76 -7.86,9.85 -20.58,17.33 -38.14,22.35l-1.39 0 58.95 88.14 -68.66 0 -56.52 -85.35zm-62.06 -94.27l0 60.25 67.96 0c13.41,0 23.47,-2.05 30.17,-6.14 8.55,-4.65 12.83,-12.64 12.83,-23.99 0,-10.59 -3.99,-18.26 -11.96,-23.01 -7.98,-4.74 -18.33,-7.11 -31.04,-7.11l-67.96 0zm283.68 142.8c2.77,1.68 6.94,3.07 12.48,4.19 5.61,1.11 12.55,1.67 20.86,1.67l72.7 0 0 30.96 -80.09 0c-29.82,0 -53.05,-6.69 -69.7,-20.08 -16.64,-13.39 -24.96,-32.54 -24.96,-57.46 0,-13.01 1.97,-24.03 5.89,-33.05 3.93,-9.02 10.3,-17.06 19.07,-24.12 16.41,-13.58 39.65,-20.36 69.7,-20.36l80.09 0 0 31.23 -72.7 0 -19.12 0.84c-3.94,0.56 -8.67,2.23 -14.22,5.02 -3.06,1.49 -5.95,4.56 -8.73,9.21l-3.46 13.66 0 2.23 118.23 0 0 30.96 -118.23 0 0 1.95 1.74 9.21 1.72 4.46c1.4,3.91 4.28,7.07 8.73,9.48zm301.6 -118.25l0 32.63 -72.46 0c-14.33,0 -25.9,4 -34.67,11.99 -8.79,8 -13.18,18.97 -13.18,32.91 0,13.76 4.28,24.69 12.83,32.77 8.55,8.09 20.23,12.14 35.02,12.14l72.46 0 0 32.63 -80.09 0c-29.81,0 -53.05,-6.69 -69.69,-20.08 -16.65,-13.39 -24.97,-32.54 -24.97,-57.46 0,-13.01 1.97,-24.03 5.9,-33.05 3.92,-9.02 10.29,-17.06 19.07,-24.12 16.4,-13.58 39.64,-20.36 69.69,-20.36l80.09 0zm20.81 77.53c0,-25.66 9.19,-45.51 27.56,-59.54 18.39,-14.04 44.1,-21.06 77.15,-21.06 32.36,0 57.91,6.92 76.63,20.78 18.73,13.85 28.09,33.79 28.09,59.82 0,25.66 -9.08,45.51 -27.22,59.55 -18.15,14.04 -43.98,21.06 -77.5,21.06 -33.51,0 -59.34,-6.88 -77.49,-20.64 -18.14,-13.76 -27.22,-33.75 -27.22,-59.97zm104.71 -47.97c-18.02,0 -31.31,4.56 -39.86,13.67 -6.94,7.81 -10.41,19.24 -10.41,34.3 0,15.06 3.35,26.41 10.06,34.03 8.09,9.3 21.49,13.95 40.21,13.95 18.03,0 31.33,-4.56 39.89,-13.67 6.92,-7.81 10.39,-19.25 10.39,-34.31 0,-15.06 -3.35,-26.4 -10.06,-34.02 -8.08,-9.3 -21.49,-13.95 -40.22,-13.95zm175.45 3.07l0 122.44 -50.62 0 0 -155.07 90.84 0c4.86,0 8.38,0.14 10.58,0.41 2.2,0.28 3.81,0.52 4.86,0.7 1.03,0.19 2.82,0.75 5.37,1.68 3.93,0.74 7.4,1.85 10.4,3.34 3,1.12 6.01,2.88 9.02,5.3 10.17,7.81 15.25,17.48 15.25,29.01l0 23.15 -50.97 0 0 -15.34c0,-4.28 -2.14,-7.95 -6.41,-11.02 -4.28,-3.07 -8.73,-4.6 -13.36,-4.6l-24.96 0zm210.47 122.44c-30.51,0 -53.86,-6.6 -70.04,-19.8 -16.17,-13.2 -24.27,-32.45 -24.27,-57.74 0,-12.83 2.14,-23.98 6.42,-33.47 4.27,-9.48 10.45,-17.47 18.54,-23.98 16.65,-13.39 39.76,-20.08 69.35,-20.08l60.68 0 0 -61.92 51.31 0 0 216.99 -111.99 0zm60.68 -122.44l-52.7 0c-15.25,0 -27.1,4.09 -35.54,12.27 -8.44,8.18 -12.66,19.06 -12.66,32.63 0,13.95 4.28,24.92 12.83,32.91 3.93,3.72 9.01,6.65 15.26,8.79 6.24,2.14 12.94,3.21 20.11,3.21l52.7 0 0 -89.81zm147.76 85.62c2.77,1.68 6.94,3.07 12.48,4.19 5.61,1.11 12.54,1.67 20.86,1.67l72.7 0 0 30.96 -80.1 0c-29.81,0 -53.04,-6.69 -69.69,-20.08 -16.64,-13.39 -24.96,-32.54 -24.96,-57.46 0,-13.01 1.96,-24.03 5.89,-33.05 3.93,-9.02 10.3,-17.06 19.07,-24.12 16.41,-13.58 39.65,-20.36 69.69,-20.36l80.1 0 0 31.23 -72.7 0 -19.12 0.84c-3.94,0.56 -8.68,2.23 -14.22,5.02 -3.06,1.49 -5.96,4.56 -8.73,9.21l-3.47 13.66 0 2.23 118.24 0 0 30.96 -118.24 0 0 1.95 1.74 9.21 1.73 4.46c1.39,3.91 4.28,7.07 8.73,9.48zm177.47 -85.62l0 122.44 -50.62 0 0 -155.07 90.84 0c4.86,0 8.38,0.14 10.58,0.41 2.2,0.28 3.81,0.52 4.86,0.7 1.03,0.19 2.82,0.75 5.37,1.68 3.93,0.74 7.4,1.85 10.4,3.34 3,1.12 6.01,2.88 9.02,5.3 10.17,7.81 15.25,17.48 15.25,29.01l0 23.15 -50.97 0 0 -15.34c0,-4.28 -2.14,-7.95 -6.41,-11.02 -4.28,-3.07 -8.73,-4.6 -13.36,-4.6l-24.96 0z"
   id="path2407" />
   <path
   fill="#A64F31"
   d="M4959.05 5964.48l-87.08 0c-13.47,0 -24.22,1.21 -32.36,3.63 -3.93,0.93 -7.46,2.04 -10.47,3.34 -3,1.31 -5.89,3.17 -8.73,5.58 -7.62,5.58 -13.22,12.46 -16.69,20.64l-2.08 6.7 0 7.53 0 5.85 157.41 0 0 35.7 -157.41 0 0 90.65 -58.25 0 0 -108.5c0,-9.48 0.35,-17.8 1.04,-24.96 0.69,-7.16 1.84,-13.43 3.47,-18.82 4.85,-17.86 15.02,-32.45 30.51,-43.79 9.71,-7.26 21.49,-12.55 35.37,-15.9 13.87,-3.35 31.43,-5.02 52.69,-5.02l92.58 0 0 37.37zm85.99 179.62l-58.25 0 0 -216.99 86.68 0 70.74 167.62 71.42 -167.62 87.03 0 0 216.99 -58.25 0 0 -162.05 -1.4 0 -70.04 162.05 -56.51 0 -70.04 -162.05 -1.38 0 0 162.05z"
   id="path2409" />
  </g>
  <path
   fill="#575757"
   d="M2128.09 11647.8l-38.85 20.9 -70.94 -131.88 57.81 -31.1 101.97 76.5 -7.17 -127.5 58.04 -31.22 70.94 131.88 -38.85 20.9 -52.98 -98.48 -0.92 0.5 6.27 123.6 -37.68 20.28 -99.69 -73.36 -0.92 0.5 52.97 98.48zm232.86 -154.12c2.4,0.03 5.63,-0.62 9.7,-1.93 4.1,-1.33 8.9,-3.49 14.45,-6.47l48.49 -26.08 10.12 18.82 -53.41 28.73c-19.89,10.7 -37.57,14.96 -53.04,12.79 -15.48,-2.16 -27.29,-10.81 -35.44,-25.96 -4.25,-7.91 -6.54,-15.3 -6.88,-22.2 -0.32,-6.88 1.29,-14.05 4.84,-21.5 6.5,-14.14 19.78,-26.6 39.82,-37.38l53.41 -28.73 10.21 18.99 -48.48 26.08 -12.48 7.37c-2.44,1.74 -5.05,4.47 -7.84,8.15 -1.56,2 -2.48,4.89 -2.81,8.72l2.15 9.55 0.73 1.35 78.85 -42.41 10.13 18.82 -78.86 42.41 0.64 1.19 4.18 4.97 2.61 2.09c2.2,1.87 5.15,2.76 8.91,2.63zm90.36 -115.7l40.03 74.41 -33.76 18.16 -50.7 -94.25 75.84 -40.79c7.4,-3.98 14.43,-6.89 21.1,-8.73 6.66,-1.83 13.25,-2.25 19.76,-1.23 10.25,2.06 17.29,6.66 21.12,13.77l35.2 65.43 -33.76 18.16 -32.64 -60.68c-2.19,-4.07 -5.68,-6.49 -10.46,-7.27 -2.32,-0.21 -4.88,0.01 -7.71,0.65 -2.82,0.65 -5.64,1.72 -8.41,3.21l-35.61 19.16zm220.35 -48.16l-40.03 -74.42 33.76 -18.16 50.7 94.25 -75.84 40.8c-8.94,4.81 -16.05,7.94 -21.33,9.4 -5.28,1.45 -11.68,1.65 -19.2,0.6 -4.8,-0.78 -9.22,-2.18 -13.3,-4.21 -3.55,-2.9 -6.23,-6.05 -8.06,-9.44l-35.29 -65.6 33.76 -18.16 32.74 60.86c1.94,3.62 5.42,5.82 10.43,6.63 5,0.8 10.35,-0.33 16.06,-3.4l35.6 -19.15z"
   id="path2411" />
  <path
   fill="#575757"
   d="M3525.71 12834l22.93 11.8 -51.67 100.39c-3.29,6.38 -4.88,12.84 -4.79,19.38 0.61,5.84 3.43,10.04 8.45,12.62 5.47,2.82 10.82,2.52 16.05,-0.9 4.56,-2.96 8.72,-8.11 12.48,-15.42l29.08 -56.49c6.49,-12.6 14.97,-22.61 25.42,-30.03 13.53,-9.17 27.25,-10.18 41.17,-3.02 13.24,6.82 20.33,18.54 21.29,35.17 0.24,12.72 -2.93,25.47 -9.5,38.23l-61.88 120.22 -22.76 -11.71 52.87 -102.72c3.04,-5.92 4.31,-12.15 3.79,-18.73 -0.52,-6.55 -3.17,-11.08 -7.96,-13.55 -4.91,-2.52 -10.13,-2.05 -15.65,1.4 -5.48,3.08 -9.96,7.98 -13.4,14.66l-29.32 56.96c-6.49,12.61 -14.82,22.49 -25.01,29.66 -13.53,9.18 -27.13,10.24 -40.83,3.19 -13.68,-7.04 -20.73,-18.74 -21.12,-35.08 -0.36,-12.2 2.79,-24.75 9.43,-37.67l60.93 -118.36zm84.81 -22.19l-12.25 23.81 -20.03 -10.31 12.26 -23.81 -37.99 -19.55 17.55 -34.1 37.99 19.56 17.18 -33.38 20.02 10.31 -17.18 33.38 34.4 17.7 5.48 2.82c1.48,0.77 3.46,1.4 5.95,1.9 2.92,-0.08 5.72,-0.6 8.39,-1.58 2.5,-1.48 4.6,-3.05 6.33,-4.73l4.89 -7.82 6.85 -13.3 20.02 10.3 -12.86 24.99c-3.12,6.06 -6.54,11.44 -10.25,16.12 -3.71,4.69 -7.45,8.03 -11.22,10.03 -5.99,3.8 -11.59,5.54 -16.77,5.24 -4.83,-0.71 -10.73,-2.86 -17.68,-6.44l-41.08 -21.14zm66.97 -62.4c-15.74,-8.1 -24.74,-20.56 -26.98,-37.36 -2.25,-16.8 2.36,-36.34 13.81,-58.6 11.22,-21.78 24.32,-36.79 39.31,-45.03 14.99,-8.22 30.48,-8.23 46.45,-0.01 15.74,8.11 24.78,20.49 27.1,37.14 2.32,16.64 -2.32,36.25 -13.93,58.82 -11.62,22.57 -24.8,37.79 -39.53,45.66 -14.73,7.87 -30.14,7.66 -46.23,-0.62zm6.86 -85.65c-6.25,12.14 -8.06,22.53 -5.43,31.17 2.38,7.13 8.2,13.08 17.44,17.83 9.24,4.76 17.36,6.09 24.36,3.98 8.51,-2.51 16.02,-10.07 22.5,-22.67 6.25,-12.14 8.06,-22.54 5.43,-31.16 -2.38,-7.14 -8.2,-13.09 -17.44,-17.85 -9.24,-4.75 -17.36,-6.08 -24.36,-3.98 -8.51,2.51 -16.02,10.08 -22.5,22.68zm63.93 -168.78c10.09,-19.61 22.21,-33.05 36.36,-40.35 6.52,-3.13 13.62,-4.65 21.28,-4.54 7.67,0.11 15.21,2.06 22.62,5.88 15.52,7.99 24.54,19.47 27.07,34.46 2.53,14.99 -1.52,32.83 -12.18,53.53l-21.27 41.33 37.99 19.55 -17.54 34.08 -133.14 -68.53 38.81 -75.41zm53.86 80l18.5 -35.95c4.97,-9.65 6.55,-18.74 4.72,-27.26 -1.81,-8.51 -7.01,-14.98 -15.56,-19.38 -8.45,-4.35 -16.61,-4.95 -24.5,-1.82 -7.89,3.12 -14.48,9.82 -19.76,20.09l-18.51 35.95 55.11 28.37z"
   id="path2413" />
  <g
   id="g2415">
   <path
   fill="#A64F31"
   d="M5143.9 12909.8l-39.68 0 0 -150.96 59.05 0 48.17 116.62 48.65 -116.62 59.28 0 0 150.96 -39.68 0 0 -112.73 -0.94 0 -47.71 112.73 -38.49 0 -47.71 -112.73 -0.94 0 0 112.73zm243.03 -53.94l0 53.94 -39.68 0 0 -150.96 110.29 0c17,0 30.46,4.11 40.38,12.33 9.92,8.21 14.89,20.27 14.89,36.18 0,15.78 -4.97,27.81 -14.89,36.09 -9.92,8.28 -23.38,12.42 -40.38,12.42l-70.61 0zm0 -71.02l0 45.21 52.67 0c8.65,0 15.73,-1.84 21.25,-5.53 5.51,-3.68 8.26,-9.41 8.26,-17.17 0,-7.63 -2.71,-13.29 -8.14,-16.98 -5.44,-3.68 -12.56,-5.53 -21.37,-5.53l-52.67 0zm275.38 50.84c7.4,2.98 12.91,6.4 16.53,10.28 6.76,6.73 10.15,14.62 10.15,23.68 0,13.32 -6.45,23.86 -19.37,31.62 -4.88,2.85 -10.27,4.98 -16.17,6.41 -5.91,1.42 -12.01,2.13 -18.3,2.13l-103.45 0 0 -25.81 90.22 0c7.24,0 12.91,-1.42 17,-4.26 5.2,-3.11 7.79,-7.9 7.79,-14.36 0,-6.21 -2.36,-10.87 -7.08,-13.97 -4.72,-3.11 -10.63,-4.66 -17.71,-4.66l-69.44 0 0 -24.84 69.44 0c7.08,0 12.76,-1.35 17,-4.07 5.2,-3.1 7.79,-7.96 7.79,-14.55 0,-5.82 -2.36,-10.35 -7.08,-13.58 -4.72,-3.24 -10.63,-4.86 -17.71,-4.86l-90.22 0 0 -26 103.45 0c12.75,0 24.25,2.79 34.47,8.35 12.92,7.5 19.37,18.11 19.37,31.82 0,8.92 -3.39,16.75 -10.15,23.48 -3.78,3.88 -9.29,7.37 -16.53,10.47l-3.07 1.36 3.07 1.36z"
   id="path2417" />
   <path
   fill="#575757"
   d="M5865.19 12855.8l0 53.94 -39.68 0 0 -150.96 110.29 0c17,0 30.47,4.11 40.39,12.33 9.92,8.21 14.88,20.27 14.88,36.18 0,15.78 -4.96,27.81 -14.88,36.09 -9.92,8.28 -23.39,12.42 -40.39,12.42l-70.61 0zm0 -71.02l0 45.21 52.67 0c8.65,0 15.74,-1.84 21.25,-5.53 5.51,-3.68 8.27,-9.41 8.27,-17.17 0,-7.63 -2.72,-13.29 -8.15,-16.98 -5.44,-3.68 -12.56,-5.53 -21.37,-5.53l-52.67 0zm179.26 124.96l-34.49 0 0 -150.96 34.49 0 0 150.96zm28.1 -86.15l0 -21.73 72.5 0c9.3,0 16.38,0.65 21.26,1.94 2.68,0.65 5.4,1.62 8.15,2.91 2.75,1.29 5.55,2.98 8.38,5.04 5.67,3.89 9.53,8.48 11.58,13.78 2.04,5.3 3.07,11.45 3.07,18.43l0 65.78 -92.58 0c-12.76,0 -23.16,-2.91 -31.18,-8.73 -6.92,-5.95 -10.39,-13.84 -10.39,-23.67 0,-9.32 3.54,-17.08 10.62,-23.29 8.2,-5.95 18.51,-8.92 30.95,-8.92l57.39 0 0 -1.17 0 -4.26c0,-2.33 0,-3.95 0,-4.86 0,-1.16 -1.11,-2.91 -3.31,-5.23 -2.24,-2.33 -5.2,-3.92 -8.94,-4.76 -3.7,-0.84 -8.26,-1.26 -13.62,-1.26l-63.88 0zm89.75 64.61l0 -21.53 -44.64 0c-5.04,0 -9.18,0.61 -12.4,1.84 -3.23,1.23 -4.85,4.17 -4.85,8.83 0,3.75 1.89,6.72 5.68,8.92 3.61,1.3 7.71,1.94 12.28,1.94l43.93 0zm173.35 22.51l0 2.52c0,3.37 -0.24,6.34 -0.71,8.93 -0.47,2.58 -1.33,5.11 -2.6,7.57 -1.89,4.65 -5.36,8.86 -10.4,12.61 -9.44,6.98 -21.16,10.47 -35.18,10.47l-72.74 0 0 -21.53 65.89 0c3.14,0 5.87,-0.39 8.15,-1.17 2.29,-0.77 5.32,-2.2 9.09,-4.27 1.42,-0.77 2.45,-2.19 3.07,-4.26l0.95 -5.44 0 -4.65 0 -1.75 -42.98 0c-9.14,0 -16.11,-0.61 -20.91,-1.84 -4.8,-1.23 -9.96,-4.11 -15.46,-8.64 -7.24,-6.34 -10.87,-13.77 -10.87,-22.31l0 -75.09 34.24 0 0 69.66c0,4.14 1.81,7.76 5.44,10.86 3.61,3.11 8.34,4.66 14.17,4.66l36.37 0 0 -85.18 34.48 0 0 108.85zm61.2 -26.58c1.89,1.16 4.72,2.13 8.51,2.91 3.81,0.77 8.53,1.16 14.2,1.16l49.52 0 0 21.54 -54.56 0c-20.31,0 -36.13,-4.66 -47.47,-13.97 -11.33,-9.31 -17,-22.64 -17,-39.97 0,-9.06 1.34,-16.72 4.02,-22.99 2.67,-6.28 7,-11.87 12.98,-16.79 11.18,-9.44 27,-14.16 47.47,-14.16l54.56 0 0 21.73 -49.52 0 -13.02 0.58c-2.68,0.39 -5.92,1.56 -9.69,3.5 -2.08,1.03 -4.05,3.16 -5.94,6.4l-2.36 9.51 0 1.55 80.53 0 0 21.54 -80.53 0 0 1.35 1.18 6.41 1.18 3.1c0.94,2.72 2.91,4.92 5.94,6.6zm120.88 -59.57l0 85.18 -34.48 0 0 -107.88 61.88 0c3.3,0 5.7,0.1 7.19,0.29 1.5,0.19 2.61,0.36 3.31,0.49 0.71,0.12 1.93,0.51 3.67,1.16 2.68,0.52 5.04,1.29 7.08,2.33 2.05,0.77 4.09,2 6.14,3.68 6.92,5.44 10.39,12.16 10.39,20.18l0 16.11 -34.71 0 0 -10.67c0,-2.98 -1.46,-5.53 -4.37,-7.67 -2.91,-2.13 -5.94,-3.2 -9.09,-3.2l-17.01 0zm280.35 25.81l-42.28 0 0 59.37 -39.68 0 0 -150.96 106.52 0c17.64,0 31.09,3.56 40.39,10.71 10.22,7.76 15.35,19.5 15.35,35.18 0,6.08 -0.64,11.39 -1.89,15.85 -1.27,4.46 -3.38,8.6 -6.38,12.35 -5.35,6.86 -14.01,12.06 -25.99,15.56l-0.93 0 40.14 61.31 -46.75 0 -38.5 -59.37zm-42.28 -65.59l0 41.92 46.29 0c9.13,0 15.99,-1.43 20.55,-4.27 5.82,-3.24 8.74,-8.8 8.74,-16.69 0,-7.37 -2.71,-12.71 -8.16,-16.01 -5.42,-3.3 -12.47,-4.95 -21.13,-4.95l-46.29 0zm193.23 99.35c1.89,1.16 4.73,2.13 8.51,2.91 3.81,0.77 8.54,1.16 14.21,1.16l49.51 0 0 21.54 -54.55 0c-20.32,0 -36.14,-4.66 -47.47,-13.97 -11.33,-9.31 -17.01,-22.64 -17.01,-39.97 0,-9.06 1.34,-16.72 4.02,-22.99 2.68,-6.28 7,-11.87 12.99,-16.79 11.17,-9.44 26.99,-14.16 47.47,-14.16l54.55 0 0 21.73 -49.51 0 -13.03 0.58c-2.67,0.39 -5.91,1.56 -9.69,3.5 -2.08,1.03 -4.05,3.16 -5.94,6.4l-2.36 9.51 0 1.55 80.53 0 0 21.54 -80.53 0 0 1.35 1.18 6.41 1.18 3.1c0.94,2.72 2.91,4.92 5.94,6.6zm205.43 -82.27l0 22.7 -49.36 0c-9.76,0 -17.63,2.78 -23.61,8.34 -5.99,5.57 -8.98,13.2 -8.98,22.9 0,9.57 2.92,17.17 8.74,22.8 5.83,5.63 13.78,8.44 23.85,8.44l49.36 0 0 22.7 -54.55 0c-20.32,0 -36.14,-4.66 -47.47,-13.97 -11.34,-9.31 -17.01,-22.64 -17.01,-39.97 0,-9.06 1.34,-16.72 4.02,-22.99 2.68,-6.28 7,-11.87 12.99,-16.79 11.17,-9.44 26.99,-14.16 47.47,-14.16l54.55 0zm14.17 53.94c0,-17.85 6.26,-31.66 18.78,-41.43 12.51,-9.76 30.03,-14.65 52.55,-14.65 22.04,0 39.43,4.82 52.19,14.46 12.76,9.64 19.12,23.51 19.12,41.62 0,17.85 -6.17,31.66 -18.53,41.43 -12.36,9.76 -29.96,14.64 -52.78,14.64 -22.84,0 -40.43,-4.78 -52.79,-14.35 -12.36,-9.58 -18.54,-23.48 -18.54,-41.72zm71.33 -33.37c-12.28,0 -21.34,3.17 -27.17,9.5 -4.72,5.44 -7.08,13.39 -7.08,23.87 0,10.48 2.28,18.37 6.85,23.67 5.51,6.47 14.64,9.7 27.4,9.7 12.28,0 21.32,-3.17 27.15,-9.5 4.73,-5.44 7.09,-13.39 7.09,-23.87 0,-10.48 -2.28,-18.37 -6.86,-23.67 -5.5,-6.47 -14.64,-9.7 -27.38,-9.7zm119.5 2.13l0 85.18 -34.48 0 0 -107.88 61.88 0c3.3,0 5.7,0.1 7.2,0.29 1.49,0.19 2.6,0.36 3.31,0.49 0.7,0.12 1.92,0.51 3.66,1.16 2.68,0.52 5.04,1.29 7.08,2.33 2.05,0.77 4.09,2 6.14,3.68 6.92,5.44 10.39,12.16 10.39,20.18l0 16.11 -34.71 0 0 -10.67c0,-2.98 -1.46,-5.53 -4.37,-7.67 -2.91,-2.13 -5.94,-3.2 -9.09,-3.2l-17.01 0zm143.36 85.18c-20.79,0 -36.68,-4.59 -47.71,-13.78 -11.02,-9.18 -16.53,-22.57 -16.53,-40.16 0,-8.93 1.46,-16.69 4.37,-23.28 2.91,-6.6 7.12,-12.16 12.63,-16.69 11.34,-9.31 27.09,-13.97 47.24,-13.97l41.33 0 0 -43.08 34.96 0 0 150.96 -76.29 0zm41.33 -85.18l-35.9 0c-10.39,0 -18.46,2.85 -24.21,8.54 -5.74,5.69 -8.61,13.26 -8.61,22.7 0,9.7 2.9,17.33 8.73,22.9 2.68,2.58 6.14,4.62 10.4,6.11 4.25,1.48 8.81,2.23 13.69,2.23l35.9 0 0 -62.48zm100.65 59.57c1.89,1.16 4.72,2.13 8.51,2.91 3.81,0.77 8.53,1.16 14.2,1.16l49.52 0 0 21.54 -54.56 0c-20.31,0 -36.14,-4.66 -47.47,-13.97 -11.33,-9.31 -17,-22.64 -17,-39.97 0,-9.06 1.34,-16.72 4.01,-22.99 2.68,-6.28 7,-11.87 12.99,-16.79 11.18,-9.44 27,-14.16 47.47,-14.16l54.56 0 0 21.73 -49.52 0 -13.02 0.58c-2.68,0.39 -5.92,1.56 -9.69,3.5 -2.08,1.03 -4.05,3.16 -5.94,6.4l-2.36 9.51 0 1.55 80.53 0 0 21.54 -80.53 0 0 1.35 1.18 6.41 1.18 3.1c0.94,2.72 2.91,4.92 5.94,6.6zm120.88 -59.57l0 85.18 -34.48 0 0 -107.88 61.88 0c3.3,0 5.69,0.1 7.19,0.29 1.5,0.19 2.61,0.36 3.31,0.49 0.71,0.12 1.93,0.51 3.67,1.16 2.67,0.52 5.04,1.29 7.08,2.33 2.05,0.77 4.09,2 6.14,3.68 6.92,5.44 10.39,12.16 10.39,20.18l0 16.11 -34.71 0 0 -10.67c0,-2.98 -1.47,-5.53 -4.37,-7.67 -2.91,-2.13 -5.94,-3.2 -9.1,-3.2l-17 0z"
   id="path2419" />
  </g>
  <g
   id="g2421">
   <path
   fill="#A64F31"
   d="M5585.82 13051.2l-59.32 0c-9.17,0 -16.5,0.85 -22.05,2.53 -2.67,0.64 -5.07,1.42 -7.12,2.33 -2.04,0.9 -4.01,2.19 -5.94,3.88 -5.19,3.88 -9.02,8.66 -11.38,14.35l-1.41 4.66 0 5.24 0 4.07 107.22 0 0 24.84 -107.22 0 0 63.06 -39.68 0 0 -75.48c0,-6.59 0.23,-12.38 0.71,-17.36 0.47,-4.98 1.26,-9.35 2.36,-13.1 3.31,-12.42 10.23,-22.57 20.79,-30.46 6.61,-5.05 14.64,-8.73 24.09,-11.06 9.44,-2.33 21.41,-3.5 35.89,-3.5l63.06 0 0 26zm58.58 124.96l-39.69 0 0 -150.96 59.05 0 48.18 116.62 48.65 -116.62 59.28 0 0 150.96 -39.68 0 0 -112.73 -0.94 0 -47.71 112.73 -38.49 0 -47.72 -112.73 -0.93 0 0 112.73z"
   id="path2423" />
   <path
   fill="#575757"
   d="M6048.97 13116.8l-42.27 0 0 59.37 -39.69 0 0 -150.96 106.52 0c17.64,0 31.09,3.56 40.39,10.71 10.22,7.76 15.35,19.5 15.35,35.18 0,6.08 -0.64,11.39 -1.89,15.85 -1.26,4.46 -3.38,8.6 -6.38,12.35 -5.35,6.86 -14.01,12.06 -25.98,15.56l-0.94 0 40.14 61.31 -46.75 0 -38.5 -59.37zm-42.27 -65.59l0 41.92 46.29 0c9.12,0 15.98,-1.43 20.54,-4.27 5.82,-3.24 8.74,-8.8 8.74,-16.69 0,-7.37 -2.71,-12.71 -8.15,-16.01 -5.43,-3.3 -12.48,-4.95 -21.13,-4.95l-46.29 0zm193.23 99.35c1.88,1.16 4.72,2.13 8.5,2.91 3.81,0.77 8.54,1.16 14.21,1.16l49.52 0 0 21.54 -54.56 0c-20.32,0 -36.14,-4.66 -47.47,-13.97 -11.33,-9.31 -17.01,-22.64 -17.01,-39.97 0,-9.06 1.34,-16.72 4.02,-22.99 2.68,-6.28 7,-11.87 12.99,-16.79 11.17,-9.44 27,-14.16 47.47,-14.16l54.56 0 0 21.73 -49.52 0 -13.02 0.58c-2.68,0.39 -5.92,1.56 -9.69,3.5 -2.09,1.03 -4.06,3.16 -5.94,6.4l-2.37 9.51 0 1.55 80.54 0 0 21.54 -80.54 0 0 1.35 1.19 6.41 1.18 3.1c0.93,2.72 2.91,4.92 5.94,6.6zm205.42 -82.27l0 22.7 -49.35 0c-9.77,0 -17.64,2.78 -23.62,8.34 -5.99,5.57 -8.98,13.2 -8.98,22.9 0,9.57 2.92,17.17 8.74,22.8 5.83,5.63 13.78,8.44 23.86,8.44l49.35 0 0 22.7 -54.55 0c-20.32,0 -36.14,-4.66 -47.47,-13.97 -11.33,-9.31 -17.01,-22.64 -17.01,-39.97 0,-9.06 1.34,-16.72 4.02,-22.99 2.68,-6.28 7,-11.87 12.99,-16.79 11.17,-9.44 27,-14.16 47.47,-14.16l54.55 0zm60.97 82.27c1.89,1.16 4.73,2.13 8.51,2.91 3.81,0.77 8.53,1.16 14.21,1.16l49.51 0 0 21.54 -54.55 0c-20.32,0 -36.14,-4.66 -47.47,-13.97 -11.34,-9.31 -17.01,-22.64 -17.01,-39.97 0,-9.06 1.34,-16.72 4.02,-22.99 2.68,-6.28 7,-11.87 12.99,-16.79 11.17,-9.44 26.99,-14.16 47.47,-14.16l54.55 0 0 21.73 -49.51 0 -13.03 0.58c-2.68,0.39 -5.91,1.56 -9.69,3.5 -2.08,1.03 -4.05,3.16 -5.94,6.4l-2.36 9.51 0 1.55 80.53 0 0 21.54 -80.53 0 0 1.35 1.18 6.41 1.18 3.1c0.94,2.72 2.91,4.92 5.94,6.6zm120.88 25.61l-34.48 0 0 -107.88 34.48 0 0 107.88zm0 -118.55l-34.48 0 0 -25.81 34.48 0 0 25.81zm18.89 10.67l39.68 0 36.13 75.67 1.43 0 36.6 -75.67 39.2 0 -55.96 107.88 -41.1 0 -55.98 -107.88zm209.53 82.27c1.89,1.16 4.73,2.13 8.51,2.91 3.81,0.77 8.53,1.16 14.21,1.16l49.51 0 0 21.54 -54.55 0c-20.32,0 -36.14,-4.66 -47.47,-13.97 -11.34,-9.31 -17.01,-22.64 -17.01,-39.97 0,-9.06 1.34,-16.72 4.02,-22.99 2.68,-6.28 7,-11.87 12.99,-16.79 11.17,-9.44 26.99,-14.16 47.47,-14.16l54.55 0 0 21.73 -49.51 0 -13.03 0.58c-2.68,0.39 -5.91,1.56 -9.69,3.5 -2.08,1.03 -4.05,3.16 -5.94,6.4l-2.36 9.51 0 1.55 80.53 0 0 21.54 -80.53 0 0 1.35 1.18 6.41 1.18 3.1c0.94,2.72 2.91,4.92 5.94,6.6zm120.88 -59.57l0 85.18 -34.48 0 0 -107.88 61.88 0c3.3,0 5.7,0.1 7.2,0.29 1.49,0.19 2.6,0.36 3.31,0.49 0.7,0.12 1.92,0.51 3.66,1.16 2.68,0.52 5.04,1.29 7.08,2.33 2.05,0.77 4.09,2 6.14,3.68 6.93,5.44 10.39,12.16 10.39,20.18l0 16.11 -34.71 0 0 -10.67c0,-2.98 -1.46,-5.53 -4.37,-7.67 -2.91,-2.13 -5.94,-3.2 -9.09,-3.2l-17.01 0z"
   id="path2425" />
  </g>
  <g
   id="g2427">
   <path
   fill="#575757"
   d="M5104.22 13291.6l39.68 0 0 101.09c0,8.54 3.77,15.2 11.33,19.99 7.56,4.79 17.8,7.18 30.7,7.18 12.6,0 22.87,-2.33 30.83,-6.99 7.95,-4.65 11.92,-11.38 11.92,-20.18l0 -101.09 39.68 0 0 102.26c0,15.65 -7.79,28.04 -23.38,37.16 -15.58,9.11 -35.27,13.67 -59.05,13.67 -23.93,0 -43.37,-4.39 -58.33,-13.19 -15.59,-9.18 -23.38,-21.73 -23.38,-37.64l0 -102.26zm360.4 0l0 26 -101.55 0c-6.45,0 -12.28,1.56 -17.48,4.66 -4.41,3.24 -6.61,7.7 -6.61,13.39 0,6.21 2.45,10.87 7.32,13.97 4.26,2.72 10.08,4.07 17.48,4.07l57.16 0c12.75,0 24.24,2.98 34.48,8.93 12.9,7.89 19.36,19.73 19.36,35.51 0,15 -6.46,26.77 -19.36,35.31 -10.08,6.08 -21.57,9.12 -34.48,9.12l-121.64 0 0 -25.81 103.93 0c5.97,0 11.49,-1.74 16.53,-5.23 5.03,-3.5 7.55,-7.96 7.55,-13.39 0,-5.57 -2.52,-10.03 -7.55,-13.39 -4.73,-3.49 -10.47,-5.24 -17.25,-5.24l-57.62 0c-12.76,0 -24.09,-2.91 -34.01,-8.73 -12.92,-7.89 -19.37,-19.6 -19.37,-35.12 0,-15.52 6.45,-27.23 19.37,-35.12 9.6,-5.95 20.93,-8.93 34.01,-8.93l119.73 0zm28.58 150.96l0 -150.96 113.83 0c15.12,0 27.79,3.17 38.03,9.51 11.65,6.99 17.48,16.3 17.48,27.94 0,8.54 -2.45,16.24 -7.33,23.09 -2.36,3.11 -5.18,5.79 -8.5,8.05 -3.31,2.27 -7.71,4.56 -13.23,6.89 9.46,2.85 17.01,7.44 22.68,13.78 5.67,6.34 8.51,13.65 8.51,21.92 0,14.36 -5.91,24.84 -17.72,31.44 -9.61,5.56 -22.91,8.34 -39.92,8.34l-113.83 0zm101.55 -87.9c8.67,0 15.28,-1.68 19.84,-5.04 4.57,-3.36 6.86,-8.02 6.86,-13.97 0,-12.81 -8.9,-19.21 -26.7,-19.21l-61.87 0 0 38.22 61.87 0zm0 63.06c8.67,0 15.28,-1.68 19.84,-5.04 4.57,-3.36 6.86,-8.02 6.86,-13.97 0,-12.81 -8.9,-19.21 -26.7,-19.21l-61.87 0 0 38.22 61.87 0zm773.48 24.84l0 -150.96 39.69 0 0 63.06 74.85 0 0 -63.06 39.21 0 0 150.96 -39.21 0 0 -63.06 -74.85 0 0 63.06 -39.69 0zm191.07 -86.15l0 -21.73 72.5 0c9.29,0 16.38,0.65 21.26,1.94 2.68,0.65 5.39,1.62 8.14,2.91 2.75,1.29 5.55,2.98 8.39,5.04 5.67,3.89 9.53,8.48 11.57,13.78 2.05,5.3 3.07,11.45 3.07,18.43l0 65.78 -92.58 0c-12.75,0 -23.15,-2.91 -31.17,-8.73 -6.93,-5.95 -10.4,-13.84 -10.4,-23.67 0,-9.32 3.55,-17.08 10.63,-23.29 8.19,-5.95 18.5,-8.92 30.94,-8.92l57.39 0 0 -1.17 0 -4.26c0,-2.33 0,-3.95 0,-4.86 0,-1.16 -1.1,-2.91 -3.31,-5.23 -2.24,-2.33 -5.2,-3.92 -8.93,-4.76 -3.7,-0.84 -8.27,-1.26 -13.62,-1.26l-63.88 0zm89.74 64.61l0 -21.53 -44.63 0c-5.04,0 -9.18,0.61 -12.41,1.84 -3.22,1.23 -4.84,4.17 -4.84,8.83 0,3.75 1.89,6.72 5.67,8.92 3.62,1.3 7.72,1.94 12.28,1.94l43.93 0zm83.14 -63.64l0 85.18 -34.49 0 0 -107.88 61.89 0c3.3,0 5.69,0.1 7.19,0.29 1.5,0.19 2.61,0.36 3.31,0.49 0.71,0.12 1.92,0.51 3.67,1.16 2.67,0.52 5.03,1.29 7.08,2.33 2.04,0.77 4.09,2 6.13,3.68 6.93,5.44 10.4,12.16 10.4,20.18l0 16.11 -34.72 0 0 -10.67c0,-2.98 -1.46,-5.53 -4.37,-7.67 -2.9,-2.13 -5.94,-3.2 -9.09,-3.2l-17 0zm143.36 85.18c-20.79,0 -36.69,-4.59 -47.71,-13.78 -11.02,-9.18 -16.53,-22.57 -16.53,-40.16 0,-8.93 1.46,-16.69 4.37,-23.28 2.9,-6.6 7.12,-12.16 12.63,-16.69 11.33,-9.31 27.08,-13.97 47.24,-13.97l41.32 0 0 -43.08 34.96 0 0 150.96 -76.28 0zm41.32 -85.18l-35.89 0c-10.4,0 -18.47,2.85 -24.21,8.54 -5.75,5.69 -8.62,13.26 -8.62,22.7 0,9.7 2.91,17.33 8.74,22.9 2.68,2.58 6.13,4.62 10.39,6.11 4.25,1.48 8.82,2.23 13.7,2.23l35.89 0 0 -62.48zm174.54 -65.78l97.54 0c24.73,0 43.53,6.47 56.45,19.41 12.91,12.93 19.36,31.62 19.36,56.07 0,24.19 -6.41,42.82 -19.24,55.88 -12.83,13.07 -31.69,19.6 -56.57,19.6l-97.54 0 0 -150.96zm38.27 125.15l46.52 0c15.43,0 26.85,-4.1 34.25,-12.32 7.39,-8.21 11.09,-20.66 11.09,-37.35 0,-16.68 -3.49,-29.1 -10.51,-37.25 -7.01,-8.15 -18.62,-12.23 -34.83,-12.23l-46.52 0 0 99.15zm188.46 25.81l-34.49 0 0 -107.88 34.49 0 0 107.88zm0 -118.55l-34.49 0 0 -25.81 34.49 0 0 25.81zm60.45 75.48c-12.44,0 -22.67,-2.92 -30.69,-8.74 -7.25,-5.95 -10.87,-13.84 -10.87,-23.67 0,-9.18 3.54,-17.01 10.62,-23.48 8.2,-5.95 18.5,-8.92 30.94,-8.92l84.79 0 0 21.73 -71.32 0c-5.52,0 -9.89,0.62 -13.11,1.84 -3.23,1.23 -4.85,4.18 -4.85,8.83 0,3.75 1.89,6.73 5.68,8.93 3.61,1.29 7.71,1.94 12.28,1.94l37.32 0c12.9,0 23.1,2.97 30.57,8.92 7.49,5.95 11.22,13.71 11.22,23.29 0,9.44 -3.7,17.2 -11.1,23.28 -7.4,6.08 -17.63,9.12 -30.69,9.12l-92.35 0 0 -21.54 78.41 0c6.93,0 11.77,-0.97 14.52,-2.91 2.75,-1.94 4.14,-4.59 4.14,-7.95 0,-3.88 -1.78,-6.63 -5.32,-8.25 -3.54,-1.62 -7.99,-2.42 -13.34,-2.42l-36.85 0zm140.53 -10.09l0 53.16 -34.48 0 0 -150.96 34.48 0 0 90.62 1.66 0 51.48 -47.54 41.8 0 -57.16 51.22 63.3 56.66 -44.39 0 -55.03 -53.16 -1.66 0z"
   id="path2429" />
   <path
   fill="#A64F31"
   d="M5922.09 13291.6c12.6,0 24.02,2.92 34.24,8.74 12.92,7.89 19.37,19.66 19.37,35.31 0,15.52 -6.45,27.16 -19.37,34.92 -9.6,5.96 -21.02,8.93 -34.24,8.93l-55.03 0 -5.67 0c-0.94,0 -2.52,0.45 -4.72,1.36 -3.14,0.81 -5.98,2.42 -8.5,4.91l-4.24 5.89c-0.8,2.1 -1.34,4.24 -1.66,6.47l0 18.62 130.13 0 0 25.81 -169.81 0 0 -44.43c0,-6.6 1.18,-12.71 3.54,-18.34 2.36,-5.63 6.77,-10.7 13.23,-15.23 4.57,-3.36 10.23,-6.14 17.01,-8.34 8.18,-1.68 14.71,-2.53 19.59,-2.53l47.47 0c7.4,0 13.15,-1.29 17.24,-3.88 4.88,-3.23 7.33,-7.95 7.33,-14.16 0,-5.95 -2.21,-10.48 -6.61,-13.58 -2.05,-1.43 -4.57,-2.53 -7.56,-3.3 -3,-0.78 -6.46,-1.17 -10.4,-1.17l-97.53 0 0 -26 116.19 0zm74.63 150.96l0 -25.81 31.88 0 0 25.81 -31.88 0zm48.42 -75.48c0,-12.54 1.53,-23.18 4.6,-31.92 3.08,-8.73 7.91,-16.39 14.54,-22.99 14.94,-15.13 39.66,-22.7 74.15,-22.7 33.53,0 58.25,7.5 74.16,22.51 2.68,2.71 5.36,6.21 8.02,10.48 0.32,0.51 1.11,2 2.36,4.46 1.27,2.46 2.52,5.24 3.79,8.34 3.31,9.19 4.95,19.79 4.95,31.82 0,23.8 -6.29,42.11 -18.89,54.91 -15.43,15.14 -40.23,22.7 -74.39,22.7 -34.49,0 -59.21,-7.5 -74.15,-22.5 -12.76,-12.42 -19.14,-30.79 -19.14,-55.11zm93.29 -52.77c-16.06,0 -28.42,3.17 -37.08,9.5 -9.92,7.76 -14.87,22.19 -14.87,43.27 0,16.56 2.75,28.72 8.26,36.48 7.56,10.87 22.12,16.3 43.69,16.3 20.63,0 35.19,-5.43 43.69,-16.3 5.66,-7.76 8.5,-19.92 8.5,-36.48 0,-16.81 -2.75,-28.97 -8.26,-36.48 -8.04,-10.86 -22.68,-16.29 -43.93,-16.29z"
   id="path2431" />
  </g>
 </g>
 <g
   id="Haupt_x0020_Desktop">
 </g>
<g
   inkscape:groupmode="layer"
   id="layer1"
   inkscape:label="Text"
   style="display:inline"><path
   style="fill:none;fill-opacity:0.75;fill-rule:evenodd;stroke:#000000;stroke-width:28.22222328;stroke-linecap:butt;stroke-linejoin:miter;stroke-miterlimit:4;stroke-dasharray:none;stroke-opacity:1"
   d="M 7109.1808,9975.1861 L 10310.173,9975.1861"
   id="path1455" /><path
   style="fill:none;fill-opacity:0.75;fill-rule:evenodd;stroke:#000000;stroke-width:28.22222328;stroke-linecap:butt;stroke-linejoin:miter;stroke-miterlimit:4;stroke-dasharray:none;stroke-opacity:1"
   d="M 5099.2552,11910.67 L 10198.511,12729.529"
   id="path1457" /><path
   style="fill:none;fill-opacity:0.75;fill-rule:evenodd;stroke:#000000;stroke-width:28.22222328;stroke-linecap:butt;stroke-linejoin:miter;stroke-miterlimit:4;stroke-dasharray:none;stroke-opacity:1"
   d="M 6625.3098,7406.9479 L 10272.952,6476.4268"
   id="path1461" /><path
   style="fill:none;fill-opacity:0.75;fill-rule:evenodd;stroke:#000000;stroke-width:28.22222328;stroke-linecap:butt;stroke-linejoin:miter;stroke-miterlimit:4;stroke-dasharray:none;stroke-opacity:1"
   d="M 5024.8135,7295.2854 L -37.221205,5545.9057"
   id="path1463" /><path
   style="fill:none;fill-opacity:0.75;fill-rule:evenodd;stroke:#000000;stroke-width:28.22222328;stroke-linecap:butt;stroke-linejoin:miter;stroke-miterlimit:4;stroke-dasharray:none;stroke-opacity:1"
   d="M 3200.9922,7332.5062 L -37.221205,6923.0769"
   id="path1465" /><path
   style="fill:none;fill-opacity:0.75;fill-rule:evenodd;stroke:#000000;stroke-width:28.22222328;stroke-linecap:butt;stroke-linejoin:miter;stroke-miterlimit:4;stroke-dasharray:none;stroke-opacity:1"
   d="M 3089.3297,9863.5236 L 37.220482,9863.5236"
   id="path1467" /><path
   style="fill:none;fill-opacity:0.75;fill-rule:evenodd;stroke:#000000;stroke-width:28.22222328;stroke-linecap:butt;stroke-linejoin:miter;stroke-miterlimit:4;stroke-dasharray:none;stroke-opacity:1"
   d="M 2754.3421,11091.811 L -0.00036173505,11166.253"
   id="path1471" /><path
   style="fill:none;fill-opacity:0.75;fill-rule:evenodd;stroke:#000000;stroke-width:28.22222328;stroke-linecap:butt;stroke-linejoin:miter;stroke-miterlimit:4;stroke-dasharray:none;stroke-opacity:1"
   d="M 3833.7465,12208.437 L -111.66289,12655.087"
   id="path1473" /><text
   xml:space="preserve"
   style="font-size:790.22229004px;font-style:normal;font-variant:normal;font-weight:normal;font-stretch:normal;text-align:start;line-height:100%;writing-mode:lr-tb;text-anchor:start;fill:#000000;fill-opacity:1;stroke:none;stroke-width:1px;stroke-linecap:butt;stroke-linejoin:miter;stroke-opacity:1;font-family:URW Palladio L"
   x="-1674.9384"
   y="5657.5679"
   id="text1479"
   sodipodi:linespacing="100%"><tspan
     sodipodi:role="line"
     id="tspan1481"
     x="-1674.9384"
     y="5657.5679">F2</tspan></text>

<text
   xml:space="preserve"
   style="font-size:790.22229004px;font-style:normal;font-variant:normal;font-weight:normal;font-stretch:normal;text-align:start;line-height:100%;writing-mode:lr-tb;text-anchor:start;fill:#000000;fill-opacity:1;stroke:none;stroke-width:1px;stroke-linecap:butt;stroke-linejoin:miter;stroke-opacity:1;font-family:URW Palladio L"
   x="-1636.2157"
   y="7120.8667"
   id="text1483"
   sodipodi:linespacing="100%"><tspan
     sodipodi:role="line"
     id="tspan1485"
     x="-1636.2157"
     y="7120.8667">F1</tspan></text>

<text
   xml:space="preserve"
   style="font-size:790.22229004px;font-style:normal;font-variant:normal;font-weight:normal;font-stretch:normal;text-align:start;line-height:100%;writing-mode:lr-tb;text-anchor:start;fill:#000000;fill-opacity:1;stroke:none;stroke-width:1px;stroke-linecap:butt;stroke-linejoin:miter;stroke-opacity:1;font-family:URW Palladio L"
   x="-1822.3197"
   y="10061.314"
   id="text1487"
   sodipodi:linespacing="100%"><tspan
     sodipodi:role="line"
     id="tspan1489"
     x="-1822.3197"
     y="10061.314">Left</tspan></text>

<text
   xml:space="preserve"
   style="font-size:790.22229004px;font-style:normal;font-variant:normal;font-weight:normal;font-stretch:normal;text-align:start;line-height:100%;writing-mode:lr-tb;text-anchor:start;fill:#000000;fill-opacity:1;stroke:none;stroke-width:1px;stroke-linecap:butt;stroke-linejoin:miter;stroke-opacity:1;font-family:URW Palladio L"
   x="-1785.099"
   y="11326.822"
   id="text1491"
   sodipodi:linespacing="100%"><tspan
     sodipodi:role="line"
     id="tspan1493"
     x="-1785.099"
     y="11326.822">On</tspan></text>

<text
   xml:space="preserve"
   style="font-size:790.22229004px;font-style:normal;font-variant:normal;font-weight:normal;font-stretch:normal;text-align:start;line-height:100%;writing-mode:lr-tb;text-anchor:start;fill:#000000;fill-opacity:1;stroke:none;stroke-width:1px;stroke-linecap:butt;stroke-linejoin:miter;stroke-opacity:1;font-family:URW Palladio L"
   x="-1785.099"
   y="12778.435"
   id="text1495"
   sodipodi:linespacing="100%"><tspan
     sodipodi:role="line"
     id="tspan1497"
     x="-1785.099"
     y="12778.435">Off</tspan></text>

<text
   xml:space="preserve"
   style="font-size:790.22229004px;font-style:normal;font-variant:normal;font-weight:normal;font-stretch:normal;text-align:start;line-height:100%;writing-mode:lr-tb;text-anchor:start;fill:#000000;fill-opacity:1;stroke:none;stroke-width:1px;stroke-linecap:butt;stroke-linejoin:miter;stroke-opacity:1;font-family:URW Palladio L"
   x="10683.884"
   y="6636.9956"
   id="text1499"
   sodipodi:linespacing="100%"><tspan
     sodipodi:role="line"
     id="tspan1501"
     x="10683.884"
     y="6636.9956">F3</tspan></text>

<text
   xml:space="preserve"
   style="font-size:790.22229004px;font-style:normal;font-variant:normal;font-weight:normal;font-stretch:normal;text-align:start;line-height:100%;writing-mode:lr-tb;text-anchor:start;fill:#000000;fill-opacity:1;stroke:none;stroke-width:1px;stroke-linecap:butt;stroke-linejoin:miter;stroke-opacity:1;font-family:URW Palladio L"
   x="10646.661"
   y="8349.1543"
   id="text1503"
   sodipodi:linespacing="100%"><tspan
     sodipodi:role="line"
     id="tspan1505"
     x="10646.661"
     y="8349.1543">Up</tspan></text>

<text
   xml:space="preserve"
   style="font-size:790.22229004px;font-style:normal;font-variant:normal;font-weight:normal;font-stretch:normal;text-align:start;line-height:100%;writing-mode:lr-tb;text-anchor:start;fill:#000000;fill-opacity:1;stroke:none;stroke-width:1px;stroke-linecap:butt;stroke-linejoin:miter;stroke-opacity:1;font-family:URW Palladio L"
   x="10683.884"
   y="10210.197"
   id="text1511"
   sodipodi:linespacing="100%"><tspan
     sodipodi:role="line"
     id="tspan1513"
     x="10683.884"
     y="10210.197">Right</tspan></text>

<text
   xml:space="preserve"
   style="font-size:790.22229004px;font-style:normal;font-variant:normal;font-weight:normal;font-stretch:normal;text-align:start;line-height:100%;writing-mode:lr-tb;text-anchor:start;fill:#000000;fill-opacity:1;stroke:none;stroke-width:1px;stroke-linecap:butt;stroke-linejoin:miter;stroke-opacity:1;font-family:URW Palladio L"
   x="10646.663"
   y="13076.201"
   id="text1515"
   sodipodi:linespacing="100%"><tspan
     sodipodi:role="line"
     id="tspan1517"
     x="10646.663"
     y="13076.201">Down</tspan></text>

<path
   style="fill:none;fill-opacity:0.75;fill-rule:evenodd;stroke:#000000;stroke-width:28.22222328;stroke-linecap:butt;stroke-linejoin:miter;stroke-miterlimit:4;stroke-dasharray:none;stroke-opacity:1"
   d="M 5173.6969,9900.7444 L -37.221205,8188.5856"
   id="path2394" /><path
   style="fill:none;fill-opacity:0.75;fill-rule:evenodd;stroke:#000000;stroke-width:28.22222328;stroke-linecap:butt;stroke-linejoin:miter;stroke-miterlimit:4;stroke-dasharray:none;stroke-opacity:1"
   d="M 5210.9178,8151.3648 L 10272.952,8114.1439"
   id="path2396" /><text
   xml:space="preserve"
   style="font-size:790.22229004px;font-style:normal;font-variant:normal;font-weight:normal;font-stretch:normal;text-align:start;line-height:100%;writing-mode:lr-tb;text-anchor:start;fill:#000000;fill-opacity:1;stroke:none;stroke-width:1px;stroke-linecap:butt;stroke-linejoin:miter;stroke-opacity:1;font-family:URW Palladio L"
   x="-1849.5693"
   y="8442.166"
   id="text1605"
   sodipodi:linespacing="100%"><tspan
     sodipodi:role="line"
     id="tspan1607"
     x="-1849.5693"
     y="8442.166">Play</tspan></text>
</g></svg>