<?xml version="1.0" encoding="UTF-8" standalone="no"?>
<!-- Creator: CorelDRAW -->
<svg
   xmlns:dc="http://purl.org/dc/elements/1.1/"
   xmlns:cc="http://web.resource.org/cc/"
   xmlns:rdf="http://www.w3.org/1999/02/22-rdf-syntax-ns#"
   xmlns:svg="http://www.w3.org/2000/svg"
   xmlns="http://www.w3.org/2000/svg"
   xmlns:sodipodi="http://inkscape.sourceforge.net/DTD/sodipodi-0.dtd"
   xmlns:inkscape="http://www.inkscape.org/namespaces/inkscape"
   xml:space="preserve"
   width="102mm"
   height="150mm"
   shape-rendering="geometricPrecision"
   text-rendering="geometricPrecision"
   image-rendering="optimizeQuality"
   fill-rule="evenodd"
   viewBox="0 0 10200 15000"
   id="svg1719"
   sodipodi:version="0.32"
   inkscape:version="0.43"
   sodipodi:docname="recorder-front.svg"
   sodipodi:docbase="/home/martin/src/dev/pics/pixelma"><metadata
   id="metadata1862"><rdf:RDF><cc:Work
       rdf:about=""><dc:format>image/svg+xml</dc:format><dc:type
         rdf:resource="http://purl.org/dc/dcmitype/StillImage" /></cc:Work></rdf:RDF></metadata><defs
   id="defs1860" /><sodipodi:namedview
   inkscape:window-height="572"
   inkscape:window-width="746"
   inkscape:pageshadow="2"
   inkscape:pageopacity="0.0"
   borderopacity="1.0"
   bordercolor="#666666"
   pagecolor="#ffffff"
   id="base"
   inkscape:zoom="0.75823708"
   inkscape:cx="180.70866"
   inkscape:cy="265.74802"
   inkscape:window-x="257"
   inkscape:window-y="53"
   inkscape:current-layer="svg1719" />
 <g
   id="Ebene_x0020_1">
  <defs
   id="defs1722">
   <linearGradient
   id="id0"
   gradientUnits="userSpaceOnUse"
   x1="5100"
   y1="1063.89"
   x2="5100"
   y2="748.55">
    <stop
   offset="0"
   stop-color="#E8E8E8"
   id="stop1725" />
    <stop
   offset="0.329412"
   stop-color="#B8B8B8"
   id="stop1727" />
    <stop
   offset="1"
   stop-color="#878787"
   id="stop1729" />
   </linearGradient>
   <linearGradient
   id="id1"
   gradientUnits="userSpaceOnUse"
   x1="5100.04"
   y1="13978.7"
   x2="5100.04"
   y2="14266.3">
    <stop
   offset="0"
   stop-color="#E8E8E8"
   id="stop1732" />
    <stop
   offset="0.329412"
   stop-color="#B8B8B8"
   id="stop1734" />
    <stop
   offset="1"
   stop-color="#878787"
   id="stop1736" />
   </linearGradient>
   <linearGradient
   id="id2"
   gradientUnits="userSpaceOnUse"
   x1="538.61"
   y1="7500.01"
   x2="2444.69"
   y2="7500.01">
    <stop
   offset="0"
   stop-color="#878787"
   id="stop1739" />
    <stop
   offset="0.501961"
   stop-color="#E8E8E8"
   id="stop1741" />
    <stop
   offset="1"
   stop-color="#B3B3B3"
   id="stop1743" />
   </linearGradient>
   <linearGradient
   id="id3"
   gradientUnits="userSpaceOnUse"
   x1="9661.42"
   y1="7500"
   x2="7755.34"
   y2="7500">
    <stop
   offset="0"
   stop-color="#878787"
   id="stop1746" />
    <stop
   offset="0.501961"
   stop-color="#E8E8E8"
   id="stop1748" />
    <stop
   offset="1"
   stop-color="#B3B3B3"
   id="stop1750" />
   </linearGradient>
  </defs>
  <path
   fill="#000000"
   d="M7755.35 8090.18c-0.31,-67.38 -25.45,-132.3 -70.62,-182.34 -36.97,-42.43 -64.21,-92.44 -79.82,-146.5 -8.53,-29.32 -12.7,-59.74 -12.4,-90.27l0 -342.14c-0.3,-30.53 3.87,-60.95 12.4,-90.27 15.61,-54.06 42.85,-104.04 79.82,-146.5 45.17,-50.01 70.31,-114.93 70.62,-182.34l0 303.42c5.18,29.44 32.09,49.98 61.9,47.23l0 479.04c-29.81,-2.75 -56.72,17.79 -61.9,47.27l0 303.4z"
   id="path1752" />
  <path
   fill="#000000"
   d="M2444.68 8090.18c0.34,-67.38 25.48,-132.3 70.65,-182.34 36.94,-42.43 64.18,-92.44 79.82,-146.5 8.5,-29.32 12.67,-59.74 12.4,-90.27l0 -342.14c0.27,-30.53 -3.9,-60.95 -12.4,-90.27 -15.64,-54.06 -42.88,-104.04 -79.82,-146.5 -45.17,-50.01 -70.31,-114.93 -70.65,-182.34l0 303.43c-5.18,29.44 -32.09,49.98 -61.9,47.23l0 479.04c29.81,-2.75 56.72,17.79 61.9,47.27l0 303.39z"
   id="path1754" />
  <path
   fill="#949494"
   d="M6731.8 9040.73c43.05,38.89 84.1,79.98 122.96,123.05l-928.96 928.96 0 0c76.68,123.46 76.68,279.74 0,403.2l0 0 928.1 928.1c-38.9,43.05 -79.99,84.08 -123.06,122.95l-928.05 -928.04 0 0c-123.46,76.68 -279.74,76.68 -403.2,0l0 0 -928.02 928.01c-43.07,-38.87 -84.17,-79.89 -123.07,-122.94l928.08 -928.08 0 0c-76.68,-123.46 -76.68,-279.74 0,-403.2l0 0 -928.94 -928.94c38.86,-43.07 79.92,-84.16 122.96,-123.05l928.99 928.98 0 0c123.46,-76.68 279.74,-76.68 403.2,0l0 0 929.01 -929zm-791.83 1253.61c0,-187.1 -151.68,-338.78 -338.78,-338.78 -187.1,0 -338.75,151.68 -338.75,338.78 0,187.1 151.65,338.75 338.75,338.75 187.1,0 338.78,-151.65 338.78,-338.75z"
   id="path1756" />
  <path
   fill="#949494"
   d="M4126.15 11243.5c421.09,654.43 1223.06,953.16 1969.68,733.7 746.65,-219.46 1259.39,-904.61 1259.39,-1682.83l0 -201.6 -77.21 0c7.86,65.86 12.04,132.8 12.04,200.72 0,930.17 -758.67,1688.84 -1688.84,1688.84 -578.37,0 -1090.39,-293.36 -1395,-738.83l-80.06 0z"
   id="path1758" />
  <path
   fill="#8082C9"
   stroke="#000000"
   stroke-width="18"
   stroke-linejoin="bevel"
   d="M7355.22 10092.7l0 -6244.6c0,-60.62 -49.13,-109.78 -109.75,-109.78l-2145.47 0 -2145.41 0c-60.62,0 -109.78,49.16 -109.78,109.78l0 5264.04 0 0.06c72.41,-65.1 168.15,-104.77 273.2,-104.77 225.77,0 408.78,183.01 408.78,408.78 0,225.77 -183.01,408.78 -408.78,408.78 -105.05,0 -200.79,-39.61 -273.2,-104.71l0 878.63 0.04 0.05c72.4,-65.09 168.13,-104.73 273.16,-104.73 225.77,0 408.78,183.01 408.78,408.78 0,142.05 -72.43,267.16 -182.39,340.42l781.75 0 80.06 0c-185.31,-270.94 -293.86,-598.2 -293.86,-950.01 0,-930.19 758.67,-1688.86 1688.86,-1688.86 862.26,0 1577,651.99 1676.8,1488.14l77.21 0zm-4105.92 -3217.3l0 -2915.3 3701.43 0 0 2915.3 -3701.43 0zm1396.72 958.37l0 321.44 907.99 0 0 -321.44 -907.99 0zm-268.35 -0.79c-223.58,-0.86 -447.12,6.86 -670.09,23.13 -73.45,5.06 -146.53,14.23 -218.98,27.52 -46.23,7.95 -89.99,26.58 -127.76,54.46 -16.67,14.02 -26.48,34.59 -26.85,56.41 0.37,21.79 10.18,42.37 26.85,56.39 37.77,27.88 81.53,46.5 127.76,54.46 72.45,13.29 145.53,22.46 218.98,27.52 222.97,16.27 446.51,23.98 670.09,23.13l0 -323.02m1444.69 0c223.58,-0.86 447.09,6.86 670.09,23.13 73.45,5.06 146.56,14.23 218.98,27.52 46.26,7.95 90,26.58 127.76,54.46 16.7,14.02 26.48,34.59 26.88,56.41 -0.4,21.79 -10.18,42.37 -26.88,56.39 -37.76,27.88 -81.5,46.5 -127.76,54.46 -72.42,13.29 -145.53,22.46 -218.98,27.52 -223,16.27 -446.51,23.98 -670.09,23.13l0 -323.02"
   id="path1760" />
  <path
   fill="#D7F791"
   stroke="#000000"
   stroke-width="18"
   stroke-linejoin="bevel"
   d="M5748.97 3213.19c0,-74.64 -60.49,-135.17 -135.13,-135.17 -74.64,0 -135.17,60.53 -135.17,135.17 0,74.64 60.53,135.13 135.17,135.13 74.64,0 135.13,-60.49 135.13,-135.13z"
   id="path1762" />
  <path
   fill="#EB7373"
   stroke="#000000"
   stroke-width="18"
   stroke-linejoin="bevel"
   d="M4721.33 3213.19c0,-74.64 -60.5,-135.17 -135.14,-135.17 -74.64,0 -135.16,60.53 -135.16,135.17 0,74.64 60.52,135.13 135.16,135.13 74.64,0 135.14,-60.49 135.14,-135.13z"
   id="path1764" />
  <path
   fill="#000000"
   stroke="#000000"
   stroke-width="18"
   stroke-linejoin="bevel"
   d="M5184.91 1625.51c0,-46.9 -38.01,-84.91 -84.91,-84.91 -46.87,0 -84.91,38.01 -84.91,84.91 0,46.87 38.04,84.91 84.91,84.91 46.9,0 84.91,-38.04 84.91,-84.91z"
   id="path1766" />
  <path
   fill="#B8B2B2"
   stroke="#000000"
   stroke-width="18"
   stroke-linejoin="bevel"
   d="M5235.16 1625.51c0,-74.64 -60.52,-135.16 -135.16,-135.16 -74.64,0 -135.13,60.52 -135.13,135.16 0,74.64 60.49,135.13 135.13,135.13 74.64,0 135.16,-60.49 135.16,-135.13zm-50.25 0c0,-46.9 -38.01,-84.91 -84.91,-84.91 -46.87,0 -84.91,38.01 -84.91,84.91 0,46.87 38.04,84.91 84.91,84.91 46.9,0 84.91,-38.04 84.91,-84.91z"
   id="path1768" />
  <path
   fill="url(#id0)"
   stroke="#000000"
   stroke-width="18"
   stroke-linejoin="bevel"
   d="M5526.86 1063.89l1731.03 0c2.69,-28.45 5.54,-56.87 8.49,-85.29 -1.28,-79.91 -63.55,-145.52 -143.27,-151.01 0,0 0,0.01 0,0.01l0 0 -568.03 0c-34.07,-0.52 -68.05,-2.74 -101.88,-6.7 -22.86,-5.06 -45.81,-9.67 -68.88,-13.78l-753.35 0 0 0c-19.84,-2.5 -38.22,-11.7 -52.15,-26.03 -24.41,-21.39 -56.11,-32.55 -88.53,-31.17l0 0 -780.54 0 0 0c-32.43,-1.38 -64.13,9.78 -88.54,31.17l0 0c-13.93,14.33 -32.31,23.53 -52.15,26.03l-753.38 0c-23.07,4.11 -46.02,8.72 -68.88,13.78 -33.83,3.96 -67.81,6.18 -101.88,6.7l-568.03 0 0 0c0.12,-0.58 0.27,-1.14 0.4,-1.72 -0.13,0.58 -0.28,1.13 -0.4,1.71 -79.72,5.49 -141.99,71.1 -143.27,151.01 2.95,28.42 5.8,56.84 8.49,85.29l1731.03 0 -2.04 -39.5c-0.43,-19.51 7.19,-38.31 21.09,-52.03 13.87,-13.71 32.76,-21.09 52.27,-20.45l711.11 0c19.48,-0.64 38.41,6.75 52.27,20.45 13.86,13.71 21.49,32.52 21.09,52.03l-2.07 39.5zm-2449.32 -238.99c0.06,-0.24 0.11,-0.48 0.17,-0.73m0.56 -2.03c0.12,-0.41 0.25,-0.82 0.37,-1.23 -0.13,0.41 -0.25,0.82 -0.37,1.23zm2.45 -7.12c0.16,-0.39 0.32,-0.79 0.48,-1.18 -0.16,0.39 -0.32,0.78 -0.48,1.18zm2.45 -5.42c0.12,-0.25 0.23,-0.5 0.36,-0.74 -0.12,0.25 -0.24,0.49 -0.36,0.74zm0.6 -1.2c0.17,-0.33 0.35,-0.65 0.52,-0.98 -0.18,0.33 -0.35,0.65 -0.52,0.98zm0.72 -1.34c1.1,-2.03 2.26,-3.99 3.57,-5.91 -1.28,1.91 -2.46,3.88 -3.57,5.91zm4014.32 -20.73c5.91,5.11 11.02,11.15 15.11,17.93 -4.09,-6.78 -9.22,-12.82 -15.11,-17.93zm16.92 21.12c0.4,0.73 0.76,1.48 1.14,2.22 -0.38,-0.75 -0.75,-1.49 -1.14,-2.22zm3.22 6.76c0.11,0.25 0.21,0.52 0.31,0.77 -0.1,-0.26 -0.2,-0.52 -0.31,-0.77zm2.18 5.98c0.12,0.35 0.23,0.71 0.34,1.07 -0.1,-0.36 -0.22,-0.72 -0.34,-1.07z"
   id="path1770" />
  <path
   fill="url(#id1)"
   stroke="#000000"
   stroke-width="18"
   stroke-linejoin="bevel"
   d="M7270.1 13978.7l-4340.12 0c-6.45,114.77 49.57,225.34 148.28,287.61l4043.51 0c98.74,-62.27 154.78,-172.84 148.33,-287.61z"
   id="path1772" />
  <path
   fill="#E8E8E8"
   d="M7755.35 10935.7l0 407.11 0 -407.11 0 0zm-5310.67 0.01l0 0 0 407.11 0 -407.11zm4813.21 -9871.8c-18.93,199.76 -31.59,400.09 -38.02,600.65 -24.32,559.31 24.23,1119.38 144.49,1666.13 44.86,160 188.71,272.09 354.81,276.48 11.55,1.62 21.91,7.89 28.74,17.34 6.83,9.45 9.51,21.24 7.44,32.73l0 407.08 0 0c162.04,492.65 162.04,1024.23 0,1516.85l0 1328.67c-0.31,67.41 -25.45,132.33 -70.62,182.34 -36.97,42.46 -64.21,92.44 -79.82,146.5 -8.53,29.32 -12.7,59.74 -12.4,90.27l0 342.14c-0.3,30.53 3.87,60.95 12.4,90.27 15.61,54.06 42.85,104.07 79.82,146.5 45.17,50.04 70.31,114.96 70.62,182.34l0 1328.65c162.04,492.62 162.04,1024.23 0,1516.85l0 407.11 0 0.01c2.1,11.46 -0.58,23.28 -7.41,32.73 -6.82,9.45 -17.19,15.69 -28.74,17.34 -166.1,4.39 -309.95,116.45 -354.84,276.45 -120.23,546.75 -168.78,1106.82 -144.46,1666.13 4.36,203.86 19.9,407.32 46.51,609.47 1.85,11.28 3.05,22.53 3.68,33.77l-4340.11 0c-1.4,-20.14 3.67,-33.77 3.67,-33.77 26.61,-202.15 42.12,-405.61 46.51,-609.47 24.32,-559.31 -24.23,-1119.38 -144.49,-1666.13 -44.86,-160 -188.71,-272.06 -354.81,-276.45 -11.55,-1.65 -21.91,-7.89 -28.74,-17.34 -6.83,-9.45 -9.51,-21.27 -7.44,-32.73l0 -407.11c-162.04,-492.62 -162.04,-1024.23 0,-1516.85l0 -1328.66c0.34,-67.38 25.48,-132.3 70.65,-182.34 36.94,-42.43 64.18,-92.44 79.82,-146.5 8.5,-29.32 12.67,-59.74 12.4,-90.27l0 -342.14c0.27,-30.53 -3.9,-60.95 -12.4,-90.27 -15.64,-54.06 -42.88,-104.04 -79.82,-146.5 -45.17,-50.01 -70.31,-114.93 -70.65,-182.34l0 -1328.66c-162.04,-492.62 -162.04,-1024.2 0,-1516.85l0 0 -0.03 -407.09c-2.07,-11.49 0.61,-23.28 7.44,-32.73 6.83,-9.45 17.19,-15.72 28.74,-17.34 166.1,-4.39 309.95,-116.48 354.81,-276.48 120.26,-546.75 168.81,-1106.82 144.49,-1666.13 -1.31,-41.02 -38.19,-599.6 -38.02,-600.65l1731.03 0 -2.04 -39.5c-0.43,-19.51 7.19,-38.31 21.09,-52.03 13.87,-13.71 32.76,-21.09 52.27,-20.45l711.11 0c19.48,-0.64 38.41,6.75 52.27,20.45 13.86,13.71 21.49,32.52 21.09,52.03l-2.07 39.5 1731.03 0zm12.46 12920.3c0.05,1.32 0.08,2.63 0.12,3.96 -0.04,-1.32 -0.07,-2.65 -0.12,-3.96zm0.18 6.42c0.02,1.14 0.04,2.27 0.04,3.41 -0.01,-1.13 -0.02,-2.27 -0.04,-3.41zm0.05 5.01c0.01,1.5 0.01,2.99 -0.01,4.49 0.02,-1.48 0.02,-2.99 0.01,-4.49zm-3144.43 -2752.17c421.09,654.43 1223.06,953.16 1969.68,733.7 746.65,-219.46 1259.39,-904.61 1259.39,-1682.83l0 -6446.2c0,-60.62 -49.13,-109.78 -109.75,-109.78l-2145.47 0 -2145.41 0c-60.62,0 -109.78,49.16 -109.78,109.78l0 5264.04 0 0.06c-83.22,74.83 -135.59,183.28 -135.59,304.01 0,120.73 52.37,229.24 135.59,304.07l0 878.63 0.04 0.05c-83.24,74.83 -135.63,183.3 -135.63,304.05 0,225.77 183.01,408.78 408.79,408.78 84.36,0 162.77,-25.57 227.87,-69.36 -0.49,0.33 -0.99,0.67 -1.48,1l781.75 0zm1109.01 -9617.96c0,-74.64 -60.52,-135.16 -135.16,-135.16 -74.64,0 -135.13,60.52 -135.13,135.16 0,74.64 60.49,135.13 135.13,135.13 74.64,0 135.16,-60.49 135.16,-135.13zm513.81 1587.68c0,-74.64 -60.49,-135.17 -135.13,-135.17 -74.64,0 -135.17,60.53 -135.17,135.17 0,74.64 60.53,135.13 135.17,135.13 74.64,0 135.13,-60.49 135.13,-135.13zm-1027.64 0c0,-74.64 -60.5,-135.17 -135.14,-135.17 -74.64,0 -135.16,60.53 -135.16,135.17 0,74.64 60.52,135.13 135.16,135.13 74.64,0 135.14,-60.49 135.14,-135.13z"
   id="path1774" />
  <path
   fill="url(#id2)"
   stroke="#000000"
   stroke-width="18"
   stroke-linejoin="bevel"
   d="M2444.68 3657.23l-1906.07 0 0 7685.57 1906.07 0 0 -407.11 0 0 0 407.11 0 -407.11c-162.04,-492.62 -162.04,-1024.23 0,-1516.85l0 -1632.05c-5.18,-29.48 -32.09,-50.02 -61.9,-47.27l0 -479.04c29.81,2.75 56.72,-17.79 61.9,-47.23l0 -1632.09c-162.04,-492.62 -162.04,-1024.2 0,-1516.85l0 0 0 -407.08z"
   id="path1776" />
  <path
   fill="url(#id3)"
   stroke="#000000"
   stroke-width="18"
   stroke-linejoin="bevel"
   d="M7755.35 3657.22l1906.07 0 0 7685.57 -1906.07 0 0 -407.11 0 0 0 407.11 0 -407.11c162.04,-492.62 162.04,-1024.23 0,-1516.85l0 -1632.05c5.18,-29.48 32.09,-50.02 61.9,-47.27l0 -479.04c-29.81,2.75 -56.72,-17.79 -61.9,-47.23l0 -1632.09c162.04,-492.62 162.04,-1024.2 0,-1516.85l0 0 0 -407.08z"
   id="path1778" />
  <path
   fill="#55538F"
   stroke="#000000"
   stroke-width="18"
   stroke-linejoin="bevel"
   d="M7121.77 14266.3c108.4,-68.36 165.36,-194.93 144.64,-321.38 -26.61,-202.15 -42.15,-405.61 -46.51,-609.47 -24.32,-559.31 24.23,-1119.38 144.46,-1666.13 44.89,-160 188.74,-272.06 354.84,-276.45 11.55,-1.65 21.92,-7.89 28.74,-17.34 6.83,-9.45 9.51,-21.27 7.41,-32.73l1906.11 0c0.45,9.26 4.93,17.86 12.28,23.56 7.31,5.69 16.76,7.89 25.87,6.06 109.14,11.86 206.21,74.73 261.71,169.45 129.52,692.09 168.56,1398.09 116.17,2100.24 -16.45,268.89 -58.27,535.65 -124.89,796.69 -83.2,194.1 -281.21,313.3 -491.68,295.92 -161.62,-3.29 -323.3,-4.48 -484.95,-3.53 -435.33,2.56 -870.69,2.56 -1306.05,0 -210.2,-10.64 -395.59,-141.14 -476.53,-335.4 -17.44,-46.44 -41.57,-90.06 -71.62,-129.49z"
   id="path1780" />
  <path
   fill="#55538F"
   stroke="#000000"
   stroke-width="18"
   stroke-linejoin="bevel"
   d="M7231.82 590.06c57.96,-192.86 236.74,-323.94 438.1,-321.26 417.66,-2.56 856.95,-2.56 1306.02,0 161.68,0.95 323.33,-0.21 484.95,-3.53 210.5,-17.34 408.48,101.82 491.71,295.92 66.62,261.07 108.4,527.8 124.86,796.69 52.42,702.15 13.35,1408.15 -116.18,2100.24 -55.46,94.75 -152.56,157.59 -261.7,169.48 -9.08,-1.86 -18.53,0.37 -25.87,6.03 -7.35,5.7 -11.83,14.3 -12.29,23.59l-1906.07 0c2.07,-11.49 -0.61,-23.28 -7.44,-32.73 -6.83,-9.45 -17.19,-15.72 -28.74,-17.34 -166.1,-4.39 -309.95,-116.48 -354.81,-276.48 -120.26,-546.75 -168.81,-1106.82 -144.49,-1666.13 7.35,-229.12 22.86,-457.91 46.51,-685.94 -1.28,-79.91 -63.55,-145.52 -143.27,-151.01 -7.74,-37.03 -41.88,-62.48 -79.61,-59.31 10.12,-7.19 19.81,-14.96 29.08,-23.22 8.32,-7.44 13.83,-17.46 15.66,-28.47 4.57,-27.49 22.49,-50.92 47.82,-62.5 38.58,-9.18 72.56,-31.88 95.76,-64.03z"
   id="path1782" />
  <path
   fill="#55538F"
   stroke="#000000"
   stroke-width="18"
   stroke-linejoin="bevel"
   d="M2968.18 590.06c-57.96,-192.86 -236.74,-323.94 -438.1,-321.26 -417.66,-2.56 -856.95,-2.56 -1306.02,0 -161.68,0.95 -323.33,-0.21 -484.95,-3.53 -210.5,-17.34 -408.48,101.82 -491.71,295.92 -66.62,261.07 -108.4,527.8 -124.86,796.69 -52.42,702.15 -13.35,1408.15 116.18,2100.24 55.46,94.75 152.56,157.59 261.7,169.48 9.08,-1.86 18.53,0.37 25.87,6.03 7.35,5.7 11.83,14.3 12.29,23.59l1906.07 0c-2.07,-11.49 0.61,-23.28 7.44,-32.73 6.83,-9.45 17.19,-15.72 28.74,-17.34 166.1,-4.39 309.95,-116.48 354.81,-276.48 120.26,-546.75 168.81,-1106.82 144.49,-1666.13 -7.35,-229.12 -22.86,-457.91 -46.51,-685.94 1.28,-79.91 63.55,-145.52 143.27,-151.01 7.74,-37.03 41.88,-62.48 79.61,-59.31 -10.12,-7.19 -19.81,-14.96 -29.08,-23.22 -8.32,-7.44 -13.83,-17.46 -15.66,-28.47 -4.57,-27.49 -22.49,-50.92 -47.82,-62.5 -38.58,-9.18 -72.56,-31.88 -95.76,-64.03z"
   id="path1784" />
  <path
   fill="#55538F"
   stroke="#000000"
   stroke-width="18"
   stroke-linejoin="bevel"
   d="M3078.26 14266.3c-108.37,-68.36 -165.33,-194.93 -144.61,-321.38 26.61,-202.15 42.12,-405.61 46.51,-609.47 24.32,-559.31 -24.23,-1119.38 -144.49,-1666.13 -44.86,-160 -188.71,-272.06 -354.81,-276.45 -11.55,-1.65 -21.91,-7.89 -28.74,-17.34 -6.83,-9.45 -9.51,-21.27 -7.44,-32.73l-1906.07 0c-0.46,9.26 -4.94,17.86 -12.29,23.56 -7.34,5.69 -16.79,7.89 -25.87,6.06 -109.14,11.86 -206.24,74.73 -261.7,169.45 -129.53,692.09 -168.6,1398.09 -116.18,2100.24 16.46,268.89 58.24,535.65 124.86,796.69 83.23,194.1 281.21,313.3 491.71,295.92 161.62,-3.29 323.27,-4.48 484.95,-3.53 435.33,2.56 870.69,2.56 1306.02,0 210.23,-10.64 395.62,-141.14 476.56,-335.4 17.44,-46.44 41.54,-90.06 71.59,-129.49z"
   id="path1786" />
  <path
   fill="#000000"
   stroke="#000000"
   stroke-width="18"
   stroke-linejoin="bevel"
   d="M6510.86 781.37c-41.14,13.04 -83.57,21.67 -126.54,25.75l0 0c23.07,4.11 46.02,8.72 68.88,13.78 33.83,3.96 67.81,6.18 101.88,6.7l568.03 0 0 0c-7.71,-37.03 -41.88,-62.48 -79.58,-59.31l0 0 -479.98 0c-17.82,3.23 -35.44,7.59 -52.69,13.08z"
   id="path1788" />
  <path
   fill="#000000"
   stroke="#000000"
   stroke-width="18"
   stroke-linejoin="bevel"
   d="M3689.14 781.37c41.14,13.04 83.57,21.67 126.54,25.75l0 0c-23.07,4.11 -46.02,8.72 -68.88,13.78 -33.83,3.96 -67.81,6.18 -101.88,6.7l-568.03 0 0 0c7.71,-37.03 41.88,-62.48 79.58,-59.31l0 0 479.98 0c17.82,3.23 35.44,7.59 52.69,13.08z"
   id="path1790" />
  <path
   fill="#BEBEBE"
   stroke="#000000"
   stroke-width="18"
   stroke-linejoin="bevel"
   d="M5822.36 7833.02c223.58,-0.86 447.09,6.86 670.09,23.13 73.45,5.06 146.56,14.23 218.98,27.52 46.26,7.95 90,26.58 127.76,54.46 16.7,14.02 26.48,34.59 26.88,56.41 -0.4,21.79 -10.18,42.37 -26.88,56.39 -37.76,27.88 -81.5,46.5 -127.76,54.46 -72.42,13.29 -145.53,22.46 -218.98,27.52 -223,16.27 -446.51,23.98 -670.09,23.13l0 -323.02"
   id="path1792" />
  <path
   fill="#BEBEBE"
   stroke="#000000"
   stroke-width="18"
   stroke-linejoin="bevel"
   d="M4646.02 7833.81l0 321.44 907.99 0 0 -321.44 -907.99 0z"
   id="path1794" />
  <path
   fill="#BEBEBE"
   stroke="#000000"
   stroke-width="18"
   stroke-linejoin="bevel"
   d="M4377.67 7833.02c-223.58,-0.86 -447.12,6.86 -670.09,23.13 -73.45,5.06 -146.53,14.23 -218.98,27.52 -46.23,7.95 -89.99,26.58 -127.76,54.46 -16.67,14.02 -26.48,34.59 -26.85,56.41 0.37,21.79 10.18,42.37 26.85,56.39 37.77,27.88 81.53,46.5 127.76,54.46 72.45,13.29 145.53,22.46 218.98,27.52 222.97,16.27 446.51,23.98 670.09,23.13l0 -323.02"
   id="path1796" />
  <path
   fill="#BEBEBE"
   stroke="#000000"
   stroke-width="18"
   stroke-linejoin="bevel"
   d="M3526.79 10903.1c0,-225.77 -183.01,-408.78 -408.78,-408.78 -225.78,0 -408.79,183.01 -408.79,408.78 0,225.77 183.01,408.78 408.79,408.78 225.77,0 408.78,-183.01 408.78,-408.78z"
   id="path1798" />
  <path
   fill="#BEBEBE"
   stroke="#000000"
   stroke-width="18"
   stroke-linejoin="bevel"
   d="M3526.79 9416.25c0,-225.77 -183.01,-408.78 -408.78,-408.78 -225.78,0 -408.79,183.01 -408.79,408.78 0,225.77 183.01,408.78 408.79,408.78 225.77,0 408.78,-183.01 408.78,-408.78z"
   id="path1800" />
  <path
   fill="#BEBEBE"
   stroke="#000000"
   stroke-width="18"
   stroke-linejoin="bevel"
   d="M5939.97 10294.3c0,-187.1 -151.68,-338.78 -338.78,-338.78 -187.1,0 -338.75,151.68 -338.75,338.78 0,187.1 151.65,338.75 338.75,338.75 187.1,0 338.78,-151.65 338.78,-338.75z"
   id="path1802" />
  <path
   fill="#BEBEBE"
   stroke="#000000"
   stroke-width="18"
   stroke-linejoin="bevel"
   d="M4345.49 11427l931.09 -931.09 0 0c-76.68,-123.46 -76.68,-279.74 0,-403.2l0 0 -931.09 -931.09 1.58 1.58c-579.6,642.69 -579.6,1619.53 0,2262.22l-1.58 1.58z"
   id="path1804" />
  <path
   fill="#BEBEBE"
   stroke="#000000"
   stroke-width="18"
   stroke-linejoin="bevel"
   d="M6856.89 9161.65l-1.58 1.58c579.64,642.69 579.64,1619.53 0,2262.22l1.58 1.58 -931.09 -931.09 0 0c76.68,-123.46 76.68,-279.74 0,-403.2l0 0 931.09 -931.09z"
   id="path1806" />
  <path
   fill="#BEBEBE"
   stroke="#000000"
   stroke-width="18"
   stroke-linejoin="bevel"
   d="M6733.89 11550l-1.59 -1.59c-642.66,579.64 -1619.53,579.64 -2262.22,0l-1.59 1.59 931.1 -931.09 0 0c123.46,76.68 279.74,76.68 403.2,0l0 0 931.1 931.09z"
   id="path1808" />
  <path
   fill="#BEBEBE"
   stroke="#000000"
   stroke-width="18"
   stroke-linejoin="bevel"
   d="M5399.59 9969.73l-931.1 -931.09 1.59 1.59c642.69,-579.64 1619.56,-579.64 2262.22,0l1.59 -1.59 -931.1 931.09 0 0c-123.46,-76.68 -279.74,-76.68 -403.2,0l0 0z"
   id="path1810" />
  <path
   fill="#566B68"
   stroke="#000000"
   stroke-width="18"
   stroke-linejoin="bevel"
   d="M3249.3 6875.44l0 -2915.3 3701.43 0 0 2915.3 -3701.43 0z"
   id="path1812" />
  <path
   fill="none"
   stroke="#000000"
   stroke-width="18"
   stroke-linejoin="bevel"
   d="M7755.35 9418.84c-214.83,193.62 -337.47,469.25 -337.47,758.41 0,289.19 122.64,564.82 337.47,758.44"
   id="path1814" />
  <path
   fill="none"
   stroke="#000000"
   stroke-width="18"
   stroke-linejoin="bevel"
   d="M7755.35 4064.31c-214.83,193.62 -337.47,469.25 -337.47,758.44 0,289.19 122.64,564.82 337.47,758.41"
   id="path1816" />
  <path
   fill="none"
   stroke="#000000"
   stroke-width="18"
   stroke-linejoin="bevel"
   d="M2444.68 10935.7c214.83,-193.62 337.47,-469.25 337.47,-758.44 0,-289.16 -122.64,-564.79 -337.47,-758.41"
   id="path1818" />
  <path
   fill="none"
   stroke="#000000"
   stroke-width="18"
   stroke-linejoin="bevel"
   d="M2444.68 5581.16c214.83,-193.59 337.47,-469.22 337.47,-758.41 0,-289.19 -122.64,-564.82 -337.47,-758.44"
   id="path1820" />
  <path
   fill="none"
   stroke="#000000"
   stroke-width="18"
   stroke-linejoin="bevel"
   d="M5528.93 1024.39l18.29 -222.79"
   id="path1822" />
  <path
   fill="none"
   stroke="#000000"
   stroke-width="18"
   stroke-linejoin="bevel"
   d="M4671.1 1024.39l-18.32 -222.79"
   id="path1824" />
  <path
   fill="none"
   stroke="#000000"
   stroke-width="18"
   stroke-linejoin="bevel"
   d="M4942.1 9758.26c-253.99,312.26 -253.99,759.9 0,1072.16"
   id="path1826" />
  <path
   fill="none"
   stroke="#000000"
   stroke-width="18"
   stroke-linejoin="bevel"
   d="M6260.28 10830.4c253.99,-312.26 253.99,-759.9 0,-1072.16"
   id="path1828" />
  <path
   fill="none"
   stroke="#000000"
   stroke-width="18"
   stroke-linejoin="bevel"
   d="M5065.1 10953.4c312.27,253.99 759.91,253.99 1072.18,0"
   id="path1830" />
  <path
   fill="none"
   stroke="#000000"
   stroke-width="18"
   stroke-linejoin="bevel"
   d="M6137.28 9635.25c-312.27,-253.99 -759.91,-253.99 -1072.18,0"
   id="path1832" />
  <path
   fill="none"
   stroke="#000000"
   stroke-width="18"
   stroke-linejoin="bevel"
   d="M5392.36 10135.1l255.15 146.01 0 0c4.76,2.72 7.68,7.74 7.68,13.23 0,5.46 -2.92,10.52 -7.68,13.23l0 0 -255.15 146.01c-4.72,2.68 -10.53,2.63 -15.23,-0.06 -4.68,-2.69 -7.59,-7.74 -7.59,-13.17l0 -292.02c0,-5.43 2.92,-10.47 7.59,-13.17 4.71,-2.71 10.51,-2.74 15.23,-0.06z"
   id="path1834" />
  <path
   fill="none"
   stroke="#000000"
   stroke-width="18"
   stroke-linejoin="bevel"
   d="M6787.59 10484.1c0,5.42 2.89,10.45 7.59,13.16 4.69,2.75 10.48,2.75 15.21,0.06l331.52 -189.71c4.76,-2.71 7.68,-7.77 7.68,-13.23 0,-5.49 -2.92,-10.51 -7.68,-13.23l-331.52 -189.71c-4.73,-2.69 -10.52,-2.69 -15.21,0.06 -4.7,2.71 -7.59,7.74 -7.59,13.16l0 75.65c0,5.42 -2.9,10.45 -7.62,13.16 -4.69,2.71 -10.48,2.75 -15.21,0.03l-178.38 -102.06c-4.72,-2.69 -10.51,-2.69 -15.21,0.06 -4.72,2.71 -7.62,7.74 -7.62,13.16l0 379.44c0,5.42 2.9,10.45 7.62,13.16 4.7,2.75 10.49,2.75 15.21,0.06l178.38 -102.09c4.73,-2.68 10.52,-2.68 15.21,0.06 4.72,2.71 7.62,7.74 7.62,13.16l0 75.65"
   id="path1836" />
  <path
   fill="none"
   stroke="#000000"
   stroke-width="18"
   stroke-linejoin="bevel"
   d="M4414.82 10484.1c0,5.42 -2.89,10.45 -7.59,13.16 -4.69,2.75 -10.51,2.75 -15.2,0.06l-331.56 -189.71c-4.76,-2.71 -7.68,-7.77 -7.68,-13.23 0,-5.49 2.92,-10.51 7.68,-13.23l331.56 -189.71c4.69,-2.69 10.51,-2.69 15.2,0.06 4.7,2.71 7.59,7.74 7.59,13.16l0 75.65c0,5.42 2.9,10.45 7.59,13.16 4.69,2.71 10.51,2.75 15.21,0.03l178.41 -102.06c4.72,-2.69 10.51,-2.69 15.21,0.06 4.69,2.71 7.59,7.74 7.59,13.16l0 379.44c0,5.42 -2.9,10.45 -7.59,13.16 -4.7,2.75 -10.49,2.75 -15.21,0.06l-178.41 -102.09c-4.7,-2.68 -10.52,-2.68 -15.21,0.06 -4.69,2.71 -7.59,7.74 -7.59,13.16l0 75.65"
   id="path1838" />
  <path
   fill="none"
   stroke="#000000"
   stroke-width="18"
   stroke-linejoin="bevel"
   d="M5790.91 11480.7l-379.41 0c-5.45,0 -10.48,2.9 -13.19,7.59 -2.72,4.73 -2.75,10.52 -0.03,15.21l189.68 331.56c2.72,4.75 7.77,7.68 13.23,7.68 5.49,0 10.51,-2.93 13.23,-7.68l189.71 -331.56c2.72,-4.69 2.69,-10.48 -0.03,-15.21 -2.74,-4.69 -7.77,-7.59 -13.19,-7.59"
   id="path1840" />
  <path
   fill="none"
   stroke="#000000"
   stroke-width="18"
   stroke-linejoin="bevel"
   d="M5790.91 9107.98l-379.41 0c-5.45,0 -10.48,-2.9 -13.19,-7.62 -2.72,-4.7 -2.75,-10.49 -0.03,-15.21l189.68 -331.52c2.72,-4.76 7.77,-7.68 13.23,-7.68 5.49,0 10.51,2.92 13.23,7.68l189.71 331.52c2.72,4.72 2.69,10.51 -0.03,15.21 -2.74,4.72 -7.77,7.62 -13.19,7.62"
   id="path1842" />
  <path
   fill="none"
   stroke="#000000"
   stroke-width="18"
   stroke-linejoin="bevel"
   d="M5749.76 10119.8c0,-8.41 -6.82,-15.24 -15.23,-15.24l-23.44 0c-8.41,0 -15.24,6.83 -15.24,15.24l0 349.02c0,8.41 6.83,15.24 15.24,15.24l23.44 0c8.41,0 15.23,-6.83 15.23,-15.24l0 -349.02z"
   id="path1844" />
  <path
   fill="none"
   stroke="#000000"
   stroke-width="18"
   stroke-linejoin="bevel"
   d="M5846.47 10119.8c0,-8.41 -6.82,-15.24 -15.23,-15.24l-23.44 0c-8.41,0 -15.24,6.83 -15.24,15.24l0 349.02c0,8.41 6.83,15.24 15.24,15.24l23.44 0c8.41,0 15.23,-6.83 15.23,-15.24l0 -349.02z"
   id="path1846" />
  <path
   fill="none"
   stroke="#000000"
   stroke-width="18"
   stroke-linejoin="bevel"
   d="M3334.09 10889.3c-4.06,0 -7.93,-1.61 -10.79,-4.44 -2.87,-2.87 -4.45,-6.74 -4.45,-10.79l0 -1.53c0,-8.41 6.82,-15.24 15.24,-15.24l47.97 0c8.41,0 15.23,-6.82 15.23,-15.23l0 -26.79c0,-8.45 -6.82,-15.24 -15.23,-15.24l-105.27 0c-8.41,0 -15.24,6.79 -15.24,15.24l0 175.6c0,8.41 6.83,15.24 15.24,15.24l26.82 0c8.41,0 15.24,-6.83 15.24,-15.24l0 -29.04c0,-8.44 6.82,-15.24 15.24,-15.24l47.97 0c8.41,0 15.23,-6.83 15.23,-15.24l0 -26.82c0,-8.41 -6.82,-15.24 -15.23,-15.24l-47.97 0"
   id="path1848" />
  <path
   fill="none"
   stroke="#000000"
   stroke-width="18"
   stroke-linejoin="bevel"
   d="M3155.46 10889.3c-4.05,0 -7.92,-1.61 -10.79,-4.44 -2.83,-2.87 -4.45,-6.74 -4.45,-10.79l0 -1.53c0,-8.41 6.83,-15.24 15.24,-15.24l47.97 0c8.41,0 15.24,-6.82 15.24,-15.23l0 -26.79c0,-8.45 -6.83,-15.24 -15.24,-15.24l-105.26 0c-8.42,0 -15.24,6.79 -15.24,15.24l0 175.6c0,8.41 6.82,15.24 15.24,15.24l26.81 0c8.42,0 15.24,-6.83 15.24,-15.24l0 -29.04c0,-8.44 6.83,-15.24 15.24,-15.24l47.97 0c8.41,0 15.24,-6.83 15.24,-15.24l0 -26.82c0,-8.41 -6.83,-15.24 -15.24,-15.24l-47.97 0"
   id="path1850" />
  <path
   fill="none"
   stroke="#000000"
   stroke-width="18"
   d="M3047.48 10920.3l0 -34.53c-7.31,-52.05 -51.81,-90.76 -104.38,-90.76 -52.54,0 -97.07,38.71 -104.35,90.76l0 34.53c7.28,52.05 51.81,90.79 104.35,90.79 52.57,0 97.07,-38.74 104.38,-90.79m-57.29 -4.75l0 -25c-4.67,-22.3 -24.32,-38.27 -47.09,-38.27 -22.77,0 -42.42,15.97 -47.09,38.27l0 25c4.67,22.27 24.32,38.24 47.09,38.24 22.77,0 42.42,-15.97 47.09,-38.24"
   id="path1852" />
  <path
   fill="none"
   stroke="#000000"
   stroke-width="18"
   stroke-linejoin="bevel"
   d="M3158.97 9504.08l0 -175.64c0,-8.41 6.79,-15.23 15.23,-15.23l26.79 0c5.79,0 11.07,3.26 13.66,8.44l46.47 64.94c2.32,3.23 6.48,4.6 10.24,3.39 3.77,-1.21 6.34,-4.73 6.34,-8.72l0 -52.82c0,-8.41 6.83,-15.23 15.24,-15.23l26.82 0c8.41,0 15.24,6.82 15.24,15.23l0 175.64c0,8.41 -6.83,15.24 -15.24,15.24l-26.82 0c-6.28,0 -11.91,-3.87 -14.2,-9.72l-45.93 -64.16c-2.31,-3.23 -6.46,-4.6 -10.24,-3.38 -3.78,1.22 -6.34,4.73 -6.34,8.72l0 53.3c0,4.02 -1.61,7.92 -4.45,10.76 -2.84,2.86 -6.73,4.48 -10.79,4.48l-26.79 0c-8.44,0 -15.23,-6.83 -15.23,-15.24z"
   id="path1854" />
  <path
   fill="none"
   stroke="#000000"
   stroke-width="18"
   d="M3109.78 9433.53l0 -34.53c-7.31,-52.05 -51.81,-90.76 -104.38,-90.76 -52.54,0 -97.07,38.71 -104.35,90.76l0 34.53c7.28,52.05 51.81,90.79 104.35,90.79 52.57,0 97.07,-38.74 104.38,-90.79m-57.29 -4.75l0 -25c-4.67,-22.3 -24.32,-38.27 -47.09,-38.27 -22.77,0 -42.42,15.97 -47.09,38.27l0 25c4.67,22.27 24.32,38.24 47.09,38.24 22.77,0 42.42,-15.97 47.09,-38.24"
   id="path1856" />
 </g>
 <g
   id="Haupt_x0020_Desktop">
 </g>
<path
   style="fill:none;fill-opacity:0.75;fill-rule:evenodd;stroke:#000000;stroke-width:28.22222383;stroke-linecap:butt;stroke-linejoin:miter;stroke-opacity:1;stroke-miterlimit:4;stroke-dasharray:none"
   d="M 7518.6101,10272.953 L 10272.952,10272.953"
   id="path1444" /><path
   style="fill:none;fill-opacity:0.75;fill-rule:evenodd;stroke:#000000;stroke-width:28.22222383;stroke-linecap:butt;stroke-linejoin:miter;stroke-opacity:1;stroke-miterlimit:4;stroke-dasharray:none"
   d="M 5583.1262,12171.216 L 10310.173,12766.749"
   id="path1446" /><path
   style="fill:none;fill-opacity:0.75;fill-rule:evenodd;stroke:#000000;stroke-width:28.22222383;stroke-linecap:butt;stroke-linejoin:miter;stroke-opacity:1;stroke-miterlimit:4;stroke-dasharray:none"
   d="M 6215.8805,7704.7146 L 10347.394,5955.335"
   id="path1450" /><path
   style="fill:none;fill-opacity:0.75;fill-rule:evenodd;stroke:#000000;stroke-width:28.22222383;stroke-linecap:butt;stroke-linejoin:miter;stroke-opacity:1;stroke-miterlimit:4;stroke-dasharray:none"
   d="M 5099.2552,7667.4938 L -148.88374,5657.5682"
   id="path1452" /><path
   style="fill:none;fill-opacity:0.75;fill-rule:evenodd;stroke:#000000;stroke-width:28.22222383;stroke-linecap:butt;stroke-linejoin:miter;stroke-opacity:1;stroke-miterlimit:4;stroke-dasharray:none"
   d="M 3796.5257,7779.1563 L -0.00036173505,7332.5062"
   id="path1454" /><path
   style="fill:none;fill-opacity:0.75;fill-rule:evenodd;stroke:#000000;stroke-width:28.22222383;stroke-linecap:butt;stroke-linejoin:miter;stroke-opacity:1;stroke-miterlimit:4;stroke-dasharray:none"
   d="M 2531.017,9379.6526 L -0.00036173505,9379.6526"
   id="path1456" /><path
   style="fill:none;fill-opacity:0.75;fill-rule:evenodd;stroke:#000000;stroke-width:28.22222383;stroke-linecap:butt;stroke-linejoin:miter;stroke-opacity:1;stroke-miterlimit:4;stroke-dasharray:none"
   d="M 2568.2379,10868.486 L -0.00036173505,10868.486"
   id="path1458" /><text
   xml:space="preserve"
   style="font-size:790.22229004px;font-style:normal;font-variant:normal;font-weight:normal;font-stretch:normal;text-align:start;line-height:100%;writing-mode:lr-tb;text-anchor:start;fill:#000000;fill-opacity:1;stroke:none;stroke-width:1px;stroke-linecap:butt;stroke-linejoin:miter;stroke-opacity:1;font-family:URW Palladio L"
   x="-1635.2646"
   y="5820.356"
   id="text1460"
   sodipodi:linespacing="100%"><tspan
     sodipodi:role="line"
     id="tspan1462"
     x="-1635.2646"
     y="5820.356">F2</tspan></text>
<text
   xml:space="preserve"
   style="font-size:790.22229004px;font-style:normal;font-variant:normal;font-weight:normal;font-stretch:normal;text-align:start;line-height:100%;writing-mode:lr-tb;text-anchor:start;fill:#000000;fill-opacity:1;stroke:none;stroke-width:1px;stroke-linecap:butt;stroke-linejoin:miter;stroke-opacity:1;font-family:URW Palladio L"
   x="-1621.0558"
   y="7471.27"
   id="text1464"
   sodipodi:linespacing="100%"><tspan
     sodipodi:role="line"
     id="tspan1466"
     x="-1621.0558"
     y="7471.27">F1</tspan></text>
<text
   xml:space="preserve"
   style="font-size:790.22229004px;font-style:normal;font-variant:normal;font-weight:normal;font-stretch:normal;text-align:start;line-height:100%;writing-mode:lr-tb;text-anchor:start;fill:#000000;fill-opacity:1;stroke:none;stroke-width:1px;stroke-linecap:butt;stroke-linejoin:miter;stroke-opacity:1;font-family:URW Palladio L"
   x="-1621.0558"
   y="9531.4932"
   id="text1468"
   sodipodi:linespacing="100%"><tspan
     sodipodi:role="line"
     id="tspan1470"
     x="-1621.0558"
     y="9531.4932">On</tspan></text>
<text
   xml:space="preserve"
   style="font-size:790.22229004px;font-style:normal;font-variant:normal;font-weight:normal;font-stretch:normal;text-align:start;line-height:100%;writing-mode:lr-tb;text-anchor:start;fill:#000000;fill-opacity:1;stroke:none;stroke-width:1px;stroke-linecap:butt;stroke-linejoin:miter;stroke-opacity:1;font-family:URW Palladio L"
   x="-1649.278"
   y="11196.604"
   id="text1472"
   sodipodi:linespacing="100%"><tspan
     sodipodi:role="line"
     id="tspan1474"
     x="-1649.278"
     y="11196.604">Off</tspan></text>
<text
   xml:space="preserve"
   style="font-size:790.22229004px;font-style:normal;font-variant:normal;font-weight:normal;font-stretch:normal;text-align:start;line-height:100%;writing-mode:lr-tb;text-anchor:start;fill:#000000;fill-opacity:1;stroke:none;stroke-width:1px;stroke-linecap:butt;stroke-linejoin:miter;stroke-opacity:1;font-family:URW Palladio L"
   x="10316.944"
   y="12974.604"
   id="text1476"
   sodipodi:linespacing="100%"><tspan
     sodipodi:role="line"
     id="tspan1478"
     x="10316.944"
     y="12974.604">Down</tspan></text>
<text
   xml:space="preserve"
   style="font-size:790.22229004px;font-style:normal;font-variant:normal;font-weight:normal;font-stretch:normal;text-align:start;line-height:100%;writing-mode:lr-tb;text-anchor:start;fill:#000000;fill-opacity:1;stroke:none;stroke-width:1px;stroke-linecap:butt;stroke-linejoin:miter;stroke-opacity:1;font-family:URW Palladio L"
   x="10429.833"
   y="10462.826"
   id="text1480"
   sodipodi:linespacing="100%"><tspan
     sodipodi:role="line"
     id="tspan1482"
     x="10429.833"
     y="10462.826">Right</tspan></text>
<text
   xml:space="preserve"
   style="font-size:790.22229004px;font-style:normal;font-variant:normal;font-weight:normal;font-stretch:normal;text-align:start;line-height:100%;writing-mode:lr-tb;text-anchor:start;fill:#000000;fill-opacity:1;stroke:none;stroke-width:1px;stroke-linecap:butt;stroke-linejoin:miter;stroke-opacity:1;font-family:URW Palladio L"
   x="10599.167"
   y="7640.6035"
   id="text1484"
   sodipodi:linespacing="100%"><tspan
     sodipodi:role="line"
     id="tspan1486"
     x="10599.167"
     y="7640.6035">Up</tspan></text>
<text
   xml:space="preserve"
   style="font-size:790.22229004px;font-style:normal;font-variant:normal;font-weight:normal;font-stretch:normal;text-align:start;line-height:100%;writing-mode:lr-tb;text-anchor:start;fill:#000000;fill-opacity:1;stroke:none;stroke-width:1px;stroke-linecap:butt;stroke-linejoin:miter;stroke-opacity:1;font-family:URW Palladio L"
   x="10542.723"
   y="6088.3813"
   id="text1488"
   sodipodi:linespacing="100%"><tspan
     sodipodi:role="line"
     id="tspan1490"
     x="10542.723"
     y="6088.3813">F3</tspan></text>
<path
   style="fill:none;fill-opacity:0.75;fill-rule:evenodd;stroke:#000000;stroke-width:28.22222383;stroke-linecap:butt;stroke-linejoin:miter;stroke-opacity:1;stroke-miterlimit:4;stroke-dasharray:none"
   d="M 5616.2222,10174 L 10216.445,9157.9997"
   id="path2365" /><text
   xml:space="preserve"
   style="font-size:790.22229004px;font-style:normal;font-variant:normal;font-weight:normal;font-stretch:normal;text-align:start;line-height:100%;writing-mode:lr-tb;text-anchor:start;fill:#000000;fill-opacity:1;stroke:none;stroke-width:1px;stroke-linecap:butt;stroke-linejoin:miter;stroke-opacity:1;font-family:URW Palladio L"
   x="10526.889"
   y="9355.5547"
   id="text2367"
   sodipodi:linespacing="100%"><tspan
     sodipodi:role="line"
     id="tspan2369"
     x="10526.889"
     y="9355.5547">Play</tspan></text>
<path
   style="fill:none;fill-opacity:0.75;fill-rule:evenodd;stroke:#000000;stroke-width:28.22222383;stroke-linecap:butt;stroke-linejoin:miter;stroke-opacity:1;stroke-miterlimit:4;stroke-dasharray:none"
   d="M 5616.2222,8480.6663 L 10188.222,7464.6662"
   id="path2371" /></svg>