<?xml version="1.0" encoding="UTF-8" standalone="no"?>
<!-- Created with Inkscape (http://www.inkscape.org/) -->

<svg
   width="210mm"
   height="297mm"
   viewBox="0 0 210 297"
   version="1.1"
   id="svg1"
   xml:space="preserve"
   sodipodi:docname="rgnano-front.svg"
   inkscape:version="1.4.2 (ebf0e940d0, 2025-05-08)"
   inkscape:export-filename="rgnano-front.png"
   inkscape:export-xdpi="58.790001"
   inkscape:export-ydpi="58.790001"
   xmlns:inkscape="http://www.inkscape.org/namespaces/inkscape"
   xmlns:sodipodi="http://sodipodi.sourceforge.net/DTD/sodipodi-0.dtd"
   xmlns:xlink="http://www.w3.org/1999/xlink"
   xmlns="http://www.w3.org/2000/svg"
   xmlns:svg="http://www.w3.org/2000/svg"><sodipodi:namedview
     id="namedview1"
     pagecolor="#ffffff"
     bordercolor="#666666"
     borderopacity="1.0"
     inkscape:showpageshadow="2"
     inkscape:pageopacity="0.0"
     inkscape:pagecheckerboard="0"
     inkscape:deskcolor="#d1d1d1"
     inkscape:document-units="mm"
     inkscape:zoom="0.5"
     inkscape:cx="191"
     inkscape:cy="598"
     inkscape:window-width="1920"
     inkscape:window-height="1002"
     inkscape:window-x="0"
     inkscape:window-y="0"
     inkscape:window-maximized="1"
     inkscape:current-layer="layer1" /><defs
     id="defs1"><linearGradient
       id="linearGradient56"
       inkscape:collect="always"><stop
         style="stop-color:#b4b4b4;stop-opacity:1;"
         offset="0.08653402"
         id="stop57" /><stop
         style="stop-color:#ffffff;stop-opacity:1;"
         offset="0.63854682"
         id="stop56" /></linearGradient><linearGradient
       id="linearGradient47"
       inkscape:collect="always"><stop
         style="stop-color:#322b30;stop-opacity:1;"
         offset="0"
         id="stop47" /><stop
         style="stop-color:#322b30;stop-opacity:0;"
         offset="1"
         id="stop48" /></linearGradient><linearGradient
       inkscape:collect="always"
       xlink:href="#linearGradient47"
       id="linearGradient48"
       x1="22.292375"
       y1="273.0133"
       x2="26.292375"
       y2="273.0133"
       gradientUnits="userSpaceOnUse"
       gradientTransform="translate(1.8624562,1.0057508)" /><linearGradient
       inkscape:collect="always"
       xlink:href="#linearGradient47"
       id="linearGradient50"
       x1="14.784457"
       y1="273.0603"
       x2="18.784457"
       y2="273.0603"
       gradientUnits="userSpaceOnUse"
       gradientTransform="translate(1.8624562,1.0057508)" /><linearGradient
       inkscape:collect="always"
       xlink:href="#linearGradient47"
       id="linearGradient51"
       x1="6.6252151"
       y1="273.21536"
       x2="10.625254"
       y2="273.21536"
       gradientUnits="userSpaceOnUse"
       gradientTransform="translate(1.8624562,1.0057508)" /><linearGradient
       inkscape:collect="always"
       xlink:href="#linearGradient47"
       id="linearGradient53"
       x1="30.451593"
       y1="272.85825"
       x2="34.451607"
       y2="272.85825"
       gradientUnits="userSpaceOnUse"
       gradientTransform="translate(1.8624562,1.0057508)" /><radialGradient
       inkscape:collect="always"
       xlink:href="#linearGradient56"
       id="radialGradient57"
       cx="69.896873"
       cy="187.10733"
       fx="69.896873"
       fy="187.10733"
       r="6"
       gradientUnits="userSpaceOnUse"
       gradientTransform="matrix(1.3333333,0,0,1.3333333,-20.76979,-61.956611)" /><linearGradient
       y2="3044.8799"
       x2="6743.4102"
       y1="2867.3"
       x1="6712.0898"
       gradientUnits="userSpaceOnUse"
       id="id9">
     <stop
   id="stop1928"
   stop-color="#FFC100"
   offset="0" />
     <stop
   id="stop1930"
   stop-color="#997200"
   offset="0.6" />
     <stop
   id="stop1932"
   stop-color="#332201"
   offset="1" />
    </linearGradient></defs><g
     inkscape:label="Capa 1"
     inkscape:groupmode="layer"
     id="layer1"
     style="display:inline"><path
       style="fill:#ffffff;fill-opacity:1;stroke:#000000;stroke-width:0.264583px;stroke-linecap:butt;stroke-linejoin:miter;stroke-opacity:1"
       d="M 37.611102,41.86466 H 36.753959 V 29.278193 c 0,0 0.724377,-5.327123 8.730611,-5.327123 h 20.502469 c 0,0 1.896647,0.315789 1.896647,1.896645 v 3.595573"
       id="path15"
       sodipodi:nodetypes="cccscsc" /><path
       style="fill:#ffffff;fill-opacity:1;stroke:#000000;stroke-width:0.264583px;stroke-linecap:butt;stroke-linejoin:miter;stroke-opacity:1"
       d="m 175.60575,41.86466 h 0.85715 V 29.278193 c 0,0 -0.72438,-5.327123 -8.73066,-5.327123 h -20.50258 c 0,0 -1.89666,0.315789 -1.89666,1.896645 v 3.595573"
       id="path16"
       sodipodi:nodetypes="cccscsc" /><path
       style="display:inline;fill:#473c45;fill-opacity:1;fill-rule:nonzero;stroke:#000000;stroke-width:0.264583px;stroke-linecap:butt;stroke-linejoin:miter;stroke-opacity:1"
       d="M 43.500358,29.409395 H 168.37516 c 0,0 6.97404,-0.197379 6.97404,6.974041 0,7.171417 0,192.228404 0,192.228404 0,0 -3.14605,23.07519 -22.96466,23.44737 -19.81861,0.37218 -108.025392,0 -108.025392,0 0,0 -6.838815,0.37218 -6.652725,-5.44314 0.186092,-5.81532 0,-211.087942 0,-211.087942 0,0 1.385816,-5.658183 5.793935,-6.118733 z"
       id="path1" /><path
       id="path5"
       style="fill:none;fill-opacity:1;stroke:#000000;stroke-width:0.263296px;stroke-linecap:butt;stroke-linejoin:miter;stroke-opacity:1"
       d="m 54.455185,36.286715 v -6.885102 h -3.500941 m -0.01279,0.04605 v 6.885104"
       sodipodi:nodetypes="ccccc" /><path
       id="path5-3"
       style="fill:none;fill-opacity:1;stroke:#000000;stroke-width:0.263572px;stroke-linecap:butt;stroke-linejoin:miter;stroke-opacity:1"
       d="M 162.23623,36.297018 V 29.39691 h -3.48848 m -0.025,0.04615 v 6.90011"
       sodipodi:nodetypes="ccccc" /><rect
       style="fill:url(#linearGradient51);stroke:#000000;stroke-width:0.300729;stroke-linecap:round;stroke-linejoin:round;stroke-miterlimit:50;stroke-dasharray:none;stroke-opacity:1"
       id="rect9"
       width="3.6992714"
       height="12.699271"
       x="8.6380501"
       y="267.87146"
       ry="2.3381319"
       transform="rotate(-28.369627)" /><rect
       style="fill:url(#linearGradient50);stroke:#000000;stroke-width:0.300729;stroke-linecap:round;stroke-linejoin:round;stroke-miterlimit:50;stroke-dasharray:none;stroke-opacity:1"
       id="rect10"
       width="3.6992714"
       height="12.699271"
       x="16.797277"
       y="267.7164"
       ry="2.3381319"
       transform="rotate(-28.369627)" /><rect
       style="fill:url(#linearGradient48);stroke:#000000;stroke-width:0.300729;stroke-linecap:round;stroke-linejoin:round;stroke-miterlimit:50;stroke-dasharray:none;stroke-opacity:1"
       id="rect9-2"
       width="3.6992714"
       height="12.699271"
       x="24.305195"
       y="267.6694"
       ry="2.3381319"
       transform="rotate(-28.369627)" /><rect
       style="fill:url(#linearGradient53);stroke:#000000;stroke-width:0.300729;stroke-linecap:round;stroke-linejoin:round;stroke-miterlimit:50;stroke-dasharray:none;stroke-opacity:1"
       id="rect10-3"
       width="3.6992714"
       height="12.699271"
       x="32.46442"
       y="267.51434"
       ry="2.3381319"
       transform="rotate(-28.369627)" /><circle
       style="fill:#172551;fill-opacity:1;stroke:#000000;stroke-width:0.499999;stroke-linecap:round;stroke-linejoin:round;stroke-miterlimit:50;stroke-dasharray:none;stroke-opacity:1"
       id="path10"
       cx="139.12556"
       cy="171.6217"
       r="9" /><circle
       style="fill:#ba8a3a;fill-opacity:1;stroke:#000000;stroke-width:0.499999;stroke-linecap:round;stroke-linejoin:round;stroke-miterlimit:50;stroke-dasharray:none;stroke-opacity:1"
       id="circle11"
       cx="139.12556"
       cy="203.37128"
       r="9" /><circle
       style="fill:#9d1a1a;fill-opacity:1;stroke:#000000;stroke-width:0.499999;stroke-linecap:round;stroke-linejoin:round;stroke-miterlimit:50;stroke-dasharray:none;stroke-opacity:1"
       id="circle12"
       cx="155.00035"
       cy="187.49649"
       r="9" /><circle
       style="fill:#1d5d18;fill-opacity:1;stroke:#000000;stroke-width:0.499999;stroke-linecap:round;stroke-linejoin:round;stroke-miterlimit:50;stroke-dasharray:none;stroke-opacity:1"
       id="circle13"
       cx="123.25072"
       cy="187.49649"
       r="9" /><path
       id="rect13"
       style="fill:#ffffff;fill-opacity:1;stroke:#000000;stroke-width:0.484757;stroke-linecap:round;stroke-linejoin:round;stroke-miterlimit:50;stroke-dasharray:none;stroke-opacity:1"
       d="m 67.094614,163.84943 c -1.247803,0 -2.252059,1.00426 -2.252059,2.25206 v 13.70252 H 51.140032 c -1.247802,0 -2.252059,1.00477 -2.252059,2.25258 v 10.64276 c 0,1.2478 1.004257,2.25257 2.252059,2.25257 h 13.702523 v 13.70201 c 0,1.2478 1.004256,2.25258 2.252059,2.25258 h 10.643278 c 1.247803,0 2.252059,-1.00478 2.252059,-2.25258 v -13.70201 h 13.702525 c 1.247804,0 2.252568,-1.00477 2.252568,-2.25257 v -10.64276 c 0,-1.24781 -1.004764,-2.25258 -2.252568,-2.25258 H 79.989951 v -13.70252 c 0,-1.2478 -1.004256,-2.25206 -2.252059,-2.25206 z" /><rect
       style="fill:#ffffff;fill-opacity:1;stroke:#000000;stroke-width:0.592111;stroke-linecap:round;stroke-linejoin:round;stroke-miterlimit:50;stroke-dasharray:none;stroke-opacity:1"
       id="rect14"
       width="7.4078889"
       height="14.407889"
       x="240.41057"
       y="29.738356"
       ry="3.4589245"
       transform="rotate(59.301247)" /><rect
       style="fill:#ffffff;fill-opacity:1;stroke:#000000;stroke-width:0.592111;stroke-linecap:round;stroke-linejoin:round;stroke-miterlimit:50;stroke-dasharray:none;stroke-opacity:1"
       id="rect15"
       width="7.4078889"
       height="14.407889"
       x="251.75714"
       y="10.627877"
       ry="3.4589245"
       transform="rotate(59.301247)" /><text
       xml:space="preserve"
       style="font-size:12.4784px;line-height:1.25;font-family:'Liberation Sans';-inkscape-font-specification:'Liberation Sans';fill:#ffffff;fill-opacity:1;stroke-width:0.311957"
       x="134.77997"
       y="175.89"
       id="text16"><tspan
         sodipodi:role="line"
         id="tspan16"
         style="font-style:normal;font-variant:normal;font-weight:bold;font-stretch:normal;font-family:'Liberation Sans';-inkscape-font-specification:'Liberation Sans Bold';fill:#ffffff;fill-opacity:1;stroke-width:0.311957"
         x="134.77997"
         y="175.89">X</tspan></text><text
       xml:space="preserve"
       style="font-size:12.4784px;line-height:1.25;font-family:'Liberation Sans';-inkscape-font-specification:'Liberation Sans';display:inline;fill:#ffffff;fill-opacity:1;stroke-width:0.311957"
       x="134.77997"
       y="208.16873"
       id="text17"><tspan
         sodipodi:role="line"
         id="tspan17"
         style="font-style:normal;font-variant:normal;font-weight:bold;font-stretch:normal;font-family:'Liberation Sans';-inkscape-font-specification:'Liberation Sans Bold';fill:#ffffff;fill-opacity:1;stroke-width:0.311957"
         x="134.77997"
         y="208.16873">B</tspan></text><text
       xml:space="preserve"
       style="font-size:12.4784px;line-height:1.25;font-family:'Liberation Sans';-inkscape-font-specification:'Liberation Sans';display:inline;fill:#ffffff;fill-opacity:1;stroke-width:0.311957"
       x="150.8839"
       y="191.89415"
       id="text18"><tspan
         sodipodi:role="line"
         id="tspan18"
         style="font-style:normal;font-variant:normal;font-weight:bold;font-stretch:normal;font-family:'Liberation Sans';-inkscape-font-specification:'Liberation Sans Bold';fill:#ffffff;fill-opacity:1;stroke-width:0.311957"
         x="150.8839"
         y="191.89415">A</tspan></text><text
       xml:space="preserve"
       style="font-size:12.4784px;line-height:1.25;font-family:'Liberation Sans';-inkscape-font-specification:'Liberation Sans';display:inline;fill:#ffffff;fill-opacity:1;stroke-width:0.311957"
       x="119.13419"
       y="191.89415"
       id="text19"><tspan
         sodipodi:role="line"
         id="tspan19"
         style="font-style:normal;font-variant:normal;font-weight:bold;font-stretch:normal;font-family:'Liberation Sans';-inkscape-font-specification:'Liberation Sans Bold';fill:#ffffff;fill-opacity:1;stroke-width:0.311957"
         x="119.13419"
         y="191.89415">Y</tspan></text><path
       style="display:inline;fill:#000000;fill-opacity:1;stroke:#000000;stroke-width:0.264583px;stroke-linecap:butt;stroke-linejoin:miter;stroke-opacity:1"
       d="m 161.07216,155.9948 c 0,0 -105.992265,-0.0658 -108.821356,0 -2.829092,0.0658 -3.223848,-3.22385 -3.223848,-3.22385 V 43.949609 c 0,0 0.953996,-2.171162 3.585709,-2.204058 2.631713,-0.0329 108.471595,0 108.471595,0 0,0 2.31131,0.930451 2.31871,2.318719 0.007,1.388268 0,109.27408 0,109.27408 0,0 -0.66809,2.56807 -2.33081,2.65645 z"
       id="path6" /><path
       id="path8"
       style="display:inline;fill:#191919;fill-opacity:0.531391;stroke:#000000;stroke-width:0.264583px;stroke-linecap:butt;stroke-linejoin:miter;stroke-opacity:1"
       d="M 151.7405,144.1196 V 53.358692 H 60.671579 m 0.132294,-0.132294 v 90.760912 h 91.068917" /><path
       id="path3"
       style="display:inline;fill:none;fill-opacity:1;stroke:#000000;stroke-width:0.264583px;stroke-linecap:butt;stroke-linejoin:miter;stroke-opacity:1"
       d="m 37.709297,39.397555 v -3.014119 h 13.36335 m 3.249776,0 H 158.85442 m 3.25035,0 h 13.24361 l -0.0166,3.000021 m -137.6212,0.01 h 137.66329"
       sodipodi:nodetypes="cccccccccc" /><image
       width="500.66699"
       height="500.66699"
       preserveAspectRatio="none"
       xlink:href="../../../../ANBERNIC_RG_Nano_purple_all_sides.png"
       id="image1"
       x="-66.327789"
       y="-112.70961"
       style="display:none" /><circle
       style="display:inline;fill:url(#radialGradient57);fill-opacity:1;fill-rule:nonzero;stroke:none;stroke-width:0.64889;stroke-linecap:round;stroke-linejoin:round;stroke-miterlimit:50;stroke-dasharray:none;stroke-opacity:1"
       id="path55"
       cx="72.426041"
       cy="187.51985"
       r="8" /><path
       id="path63"
       style="display:inline;fill:none;stroke:#000000;stroke-width:0.122978px;stroke-linecap:butt;stroke-linejoin:miter;stroke-opacity:1"
       d="m 55.415599,184.93195 v -1.36336 l -3.417165,3.80822 m 3.380911,-2.50966 h 5.533357 v 5.05941 m -5.497103,-0.12922 v 1.36337 l -3.417165,-3.80822 m 3.380911,2.50966 h 5.533357" /><path
       id="path64"
       style="display:inline;fill:none;stroke:#000000;stroke-width:0.122978px;stroke-linecap:butt;stroke-linejoin:miter;stroke-opacity:1"
       d="m 89.66126,184.93195 v -1.36336 l 3.417162,3.80822 m -3.380912,-2.50966 h -5.533353 v 5.05941 m 5.497103,-0.12922 v 1.36337 l 3.417162,-3.80822 m -3.380912,2.50966 h -5.533353" /><path
       id="path65"
       style="display:inline;fill:none;stroke:#000000;stroke-width:0.122978px;stroke-linecap:butt;stroke-linejoin:miter;stroke-opacity:1"
       d="m 74.971022,170.15394 h 1.36336 l -3.80822,-3.41717 m 2.50966,3.38092 v 5.53335 h -5.05941 m 0.12922,-5.4971 h -1.36337 l 3.80822,-3.41717 m -2.50966,3.38092 v 5.53335" /><path
       id="path66"
       style="display:inline;fill:none;stroke:#000000;stroke-width:0.122978px;stroke-linecap:butt;stroke-linejoin:miter;stroke-opacity:1"
       d="m 74.971022,204.65859 h 1.36336 l -3.80822,3.41717 m 2.50966,-3.38092 v -5.53335 h -5.05941 m 0.12922,5.4971 h -1.36337 l 3.80822,3.41717 m -2.50966,-3.38092 v -5.53335" /><text
       xml:space="preserve"
       style="font-size:6.98045px;line-height:1.25;font-family:'Liberation Sans';-inkscape-font-specification:'Liberation Sans';fill:#ffffff;fill-opacity:1;stroke-width:0.174511"
       x="-37.580509"
       y="302.72144"
       id="text66"
       transform="matrix(1.022113,-0.61893428,0.43348972,0.71586836,0,0)"><tspan
         sodipodi:role="line"
         id="tspan66"
         style="fill:#ffffff;fill-opacity:1;stroke-width:0.174511"
         x="-37.580509"
         y="302.72144">SE</tspan></text><text
       xml:space="preserve"
       style="font-size:6.98045px;line-height:1.25;font-family:'Liberation Sans';-inkscape-font-specification:'Liberation Sans';fill:#ffffff;fill-opacity:1;stroke-width:0.174511"
       x="-21.670345"
       y="316.47705"
       id="text67"
       transform="matrix(1.022113,-0.61893428,0.43348972,0.71586836,0,0)"><tspan
         sodipodi:role="line"
         id="tspan67"
         style="fill:#ffffff;fill-opacity:1;stroke-width:0.174511"
         x="-21.670345"
         y="316.47705">ST</tspan></text><text
       xml:space="preserve"
       style="font-size:16.9333px;line-height:1.25;font-family:'Liberation Sans';-inkscape-font-specification:'Liberation Sans';stroke-width:0.264583"
       x="185.23764"
       y="192.18105"
       id="text68"
       inkscape:label="A label"><tspan
         id="tspan68"
         style="font-style:normal;font-variant:normal;font-weight:normal;font-stretch:normal;font-size:16.9333px;font-family:'Liberation Serif';-inkscape-font-specification:'Liberation Serif';stroke-width:0.264583"
         x="185.23764"
         y="192.18105"
         sodipodi:role="line">A</tspan></text><path
       style="fill:none;stroke:#000000;stroke-width:0.264583px;stroke-linecap:butt;stroke-linejoin:miter;stroke-opacity:1"
       d="m 160.60209,187.72187 25.79688,-0.66146"
       id="path70"
       inkscape:label="A line" /><path
       style="fill:none;stroke:#000000;stroke-width:0.264583px;stroke-linecap:butt;stroke-linejoin:miter;stroke-opacity:1"
       d="m 144.67824,171.56031 40.78533,-3.74178"
       id="path71"
       inkscape:label="X line" /><text
       xml:space="preserve"
       style="font-size:16.9333px;line-height:1.25;font-family:'Liberation Sans';-inkscape-font-specification:'Liberation Sans';stroke-width:0.264583"
       x="184.39575"
       y="172.069"
       id="text71"
       inkscape:label="X label"><tspan
         id="tspan71"
         style="font-style:normal;font-variant:normal;font-weight:normal;font-stretch:normal;font-size:16.9333px;font-family:'Liberation Serif';-inkscape-font-specification:'Liberation Serif';stroke-width:0.264583"
         x="184.39575"
         y="172.069"
         sodipodi:role="line">X</tspan></text><path
       style="fill:none;stroke:#000000;stroke-width:0.264583px;stroke-linecap:butt;stroke-linejoin:miter;stroke-opacity:1"
       d="m 144.67824,204.30082 41.3466,0.18709"
       id="path72"
       inkscape:label="B line" /><text
       xml:space="preserve"
       style="font-size:16.9333px;line-height:1.25;font-family:'Liberation Sans';-inkscape-font-specification:'Liberation Sans';stroke-width:0.264583"
       x="185.28442"
       y="208.78516"
       id="text72"
       inkscape:label="B label"><tspan
         id="tspan72"
         style="font-style:normal;font-variant:normal;font-weight:normal;font-stretch:normal;font-size:16.9333px;font-family:'Liberation Serif';-inkscape-font-specification:'Liberation Serif';stroke-width:0.264583"
         x="185.28442"
         y="208.78516"
         sodipodi:role="line">B</tspan></text><path
       style="fill:none;stroke:#000000;stroke-width:0.264583px;stroke-linecap:butt;stroke-linejoin:miter;stroke-opacity:1"
       d="m 123.03126,194.20416 30.7325,65.1517"
       id="path73"
       sodipodi:nodetypes="cc"
       inkscape:label="Y line" /><text
       xml:space="preserve"
       style="font-size:16.9333px;line-height:1.25;font-family:'Liberation Sans';-inkscape-font-specification:'Liberation Sans';stroke-width:0.264583"
       x="149.0787"
       y="270.08963"
       id="text73"
       inkscape:label="Y label"><tspan
         id="tspan73"
         style="font-style:normal;font-variant:normal;font-weight:normal;font-stretch:normal;font-size:16.9333px;font-family:'Liberation Serif';-inkscape-font-specification:'Liberation Serif';stroke-width:0.264583"
         x="149.0787"
         y="270.08963"
         sodipodi:role="line">Y</tspan></text><path
       style="fill:none;stroke:#000000;stroke-width:0.264583px;stroke-linecap:butt;stroke-linejoin:miter;stroke-opacity:1"
       d="m 89.48708,231.0545 1.683791,27.12786"
       id="path74"
       sodipodi:nodetypes="cc"
       inkscape:label="SE line" /><path
       style="fill:none;stroke:#000000;stroke-width:0.264583px;stroke-linecap:butt;stroke-linejoin:miter;stroke-opacity:1"
       d="m 111.37646,230.86741 4.67722,27.12786"
       id="path75"
       sodipodi:nodetypes="cc"
       inkscape:label="ST line" /><text
       xml:space="preserve"
       style="font-size:16.9333px;line-height:1.25;font-family:'Liberation Sans';-inkscape-font-specification:'Liberation Sans';stroke-width:0.264583"
       x="110.63202"
       y="270.83798"
       id="text75"
       inkscape:label="ST label"><tspan
         id="tspan75"
         style="font-style:normal;font-variant:normal;font-weight:normal;font-stretch:normal;font-size:16.9333px;font-family:'Liberation Serif';-inkscape-font-specification:'Liberation Serif';stroke-width:0.264583"
         x="110.63202"
         y="270.83798"
         sodipodi:role="line">ST</tspan></text><text
       xml:space="preserve"
       style="font-size:16.9333px;line-height:1.25;font-family:'Liberation Sans';-inkscape-font-specification:'Liberation Sans';stroke-width:0.264583"
       x="81.352646"
       y="271.21216"
       id="text76"
       inkscape:label="SE label"><tspan
         id="tspan76"
         style="font-style:normal;font-variant:normal;font-weight:normal;font-stretch:normal;font-size:16.9333px;font-family:'Liberation Serif';-inkscape-font-specification:'Liberation Serif';stroke-width:0.264583"
         x="81.352646"
         y="271.21216"
         sodipodi:role="line">SE</tspan></text><path
       style="fill:none;stroke:#000000;stroke-width:0.264583px;stroke-linecap:butt;stroke-linejoin:miter;stroke-opacity:1"
       d="M 86.306568,191.57879 64.230105,273.8978"
       id="path76"
       inkscape:label="Right line" /><text
       xml:space="preserve"
       style="font-size:16.9333px;line-height:1.25;font-family:'Liberation Sans';-inkscape-font-specification:'Liberation Sans';stroke-width:0.264583"
       x="43.560738"
       y="286.55344"
       id="text77"
       inkscape:label="Right label"><tspan
         id="tspan77"
         style="font-style:normal;font-variant:normal;font-weight:normal;font-stretch:normal;font-size:16.9333px;font-family:'Liberation Serif';-inkscape-font-specification:'Liberation Serif';stroke-width:0.264583"
         x="43.560738"
         y="286.55344"
         sodipodi:role="line">Right</tspan></text><path
       style="fill:none;stroke:#000000;stroke-width:0.264583px;stroke-linecap:butt;stroke-linejoin:miter;stroke-opacity:1"
       d="M 68.538651,206.61787 30.179969,235.73172"
       id="path77"
       sodipodi:nodetypes="cc"
       inkscape:label="Down line" /><text
       xml:space="preserve"
       style="font-size:16.9333px;line-height:1.25;font-family:'Liberation Sans';-inkscape-font-specification:'Liberation Sans';stroke-width:0.264583"
       x="-8.1587429"
       y="245.24478"
       id="text78"
       inkscape:label="Down label"><tspan
         id="tspan78"
         style="font-style:normal;font-variant:normal;font-weight:normal;font-stretch:normal;font-size:16.9333px;font-family:'Liberation Serif';-inkscape-font-specification:'Liberation Serif';stroke-width:0.264583"
         x="-8.1587429"
         y="245.24478"
         sodipodi:role="line">Down</tspan></text><path
       style="fill:none;stroke:#000000;stroke-width:0.264583px;stroke-linecap:butt;stroke-linejoin:miter;stroke-opacity:1"
       d="M 52.122909,189.97083 26.987492,196.85"
       id="path78"
       inkscape:label="Left line" /><text
       xml:space="preserve"
       style="font-size:16.9333px;line-height:1.25;font-family:'Liberation Sans';-inkscape-font-specification:'Liberation Sans';stroke-width:0.264583"
       x="-1.0149916"
       y="201.98541"
       id="text79"
       inkscape:label="Left label"><tspan
         id="tspan79"
         style="font-style:normal;font-variant:normal;font-weight:normal;font-stretch:normal;font-size:16.9333px;font-family:'Liberation Serif';-inkscape-font-specification:'Liberation Serif';stroke-width:0.264583"
         x="-1.0149916"
         y="201.98541"
         sodipodi:role="line">Left</tspan></text><path
       style="fill:none;stroke:#000000;stroke-width:0.264583px;stroke-linecap:butt;stroke-linejoin:miter;stroke-opacity:1"
       d="M 67.865617,171.97916 26.326034,166.95208"
       id="path79"
       inkscape:label="Up line" /><text
       xml:space="preserve"
       style="font-size:16.9333px;line-height:1.25;font-family:'Liberation Sans';-inkscape-font-specification:'Liberation Sans';stroke-width:0.264583"
       x="4.938138"
       y="171.29375"
       id="text80"
       inkscape:label="Up label"><tspan
         id="tspan80"
         style="font-style:normal;font-variant:normal;font-weight:normal;font-stretch:normal;font-size:16.9333px;font-family:'Liberation Serif';-inkscape-font-specification:'Liberation Serif';stroke-width:0.264583"
         x="4.938138"
         y="171.29375"
         sodipodi:role="line">Up</tspan></text><text
       xml:space="preserve"
       style="font-size:16.9333px;line-height:1.25;font-family:'Liberation Sans';-inkscape-font-specification:'Liberation Sans';stroke-width:0.264583"
       x="47.87059"
       y="20.727333"
       id="text81"
       inkscape:label="L label"><tspan
         id="tspan81"
         style="font-style:normal;font-variant:normal;font-weight:normal;font-stretch:normal;font-size:16.9333px;font-family:'Liberation Serif';-inkscape-font-specification:'Liberation Serif';stroke-width:0.264583"
         x="47.87059"
         y="20.727333"
         sodipodi:role="line">L</tspan></text><path
       style="display:inline;fill:none;stroke:#000000;stroke-width:0.264583px;stroke-linecap:butt;stroke-linejoin:miter;stroke-opacity:1"
       d="m 175.29554,76.691959 12.82313,-0.227377"
       id="path2"
       sodipodi:nodetypes="cc"
       inkscape:label="Power line" /><text
       xml:space="preserve"
       style="font-size:16.9333px;line-height:1.25;font-family:'Liberation Sans';-inkscape-font-specification:'Liberation Sans';stroke-width:0.264583"
       x="155.82025"
       y="20.727333"
       id="text82"
       inkscape:label="R label"><tspan
         id="tspan82"
         style="font-style:normal;font-variant:normal;font-weight:normal;font-stretch:normal;font-size:16.9333px;font-family:'Liberation Serif';-inkscape-font-specification:'Liberation Serif';stroke-width:0.264583"
         x="155.82025"
         y="20.727333"
         sodipodi:role="line">R</tspan></text><text
       xml:space="preserve"
       style="font-size:16.9333px;line-height:1.25;font-family:'Liberation Sans';-inkscape-font-specification:'Liberation Sans';display:inline;stroke-width:0.264583"
       x="187.91034"
       y="81.729286"
       id="text2"
       inkscape:label="Power label"><tspan
         id="tspan2"
         style="font-style:normal;font-variant:normal;font-weight:normal;font-stretch:normal;font-size:16.9333px;font-family:'Liberation Serif';-inkscape-font-specification:'Liberation Serif';stroke-width:0.264583"
         x="187.91034"
         y="81.729286"
         sodipodi:role="line">Power</tspan></text><g
       id="g1923"
       style="display:inline;fill-rule:evenodd"
       transform="matrix(0.01559149,0,0,0.01559149,36.109936,27.765225)"
       inkscape:label="Logo">
   <defs
   id="defs1925">
    <linearGradient
   y2="3044.8799"
   x2="6743.4102"
   y1="2867.3"
   x1="6712.0898"
   gradientUnits="userSpaceOnUse"
   id="RESERVED_FOR_INKSCAPE_DUPLICATE_DEF_000000000">
     <stop
   id="stop1"
   stop-color="#FFC100"
   offset="0" />
     <stop
   id="stop2"
   stop-color="#997200"
   offset="0.6" />
     <stop
   id="stop3"
   stop-color="#332201"
   offset="1" />
    </linearGradient>
   </defs>
   <path
   style="fill:#000000"
   id="path1934"
   d="M 1592.4,3450.4 H 7407.6 V 1650 H 1592.4 Z" />
   <path
   style="fill:#ffffff"
   id="path1936"
   d="m 1960.16,3346.15 c 0,-25.29 -20.51,-45.8 -45.8,-45.8 -25.29,0 -45.8,20.51 -45.8,45.8 0,25.3 20.51,45.8 45.8,45.8 25.29,0 45.8,-20.5 45.8,-45.8 z m 143.85,-38.33 c 18.41,-12.53 42.86,-8.98 57.28,8.31 14.43,17.27 14.43,43.01 0,60.29 -14.42,17.29 -38.87,20.83 -57.28,8.3 v 37.96 h -24.26 v -120.1 h 24.26 z m 276.96,38.33 c 0,-25.29 -20.51,-45.8 -45.8,-45.8 -25.29,0 -45.79,20.51 -45.79,45.8 0,25.3 20.5,45.8 45.79,45.8 13.04,0 24.8,-5.45 33.15,-14.19 l -17.52,-16.73 17.52,16.73 -17.52,-16.73 c -4.5,4.73 -10.89,7.15 -17.39,6.61 -6.49,-0.53 -12.38,-3.97 -16.05,-9.37 h 61.99 c 1.06,-3.86 1.62,-7.92 1.62,-12.12 z m 1521.07,0 c 0,-25.29 -20.5,-45.8 -45.79,-45.8 -25.3,0 -45.79,20.51 -45.79,45.8 0,25.3 20.49,45.8 45.79,45.8 13.03,0 24.8,-5.45 33.14,-14.19 l -17.53,-16.73 17.53,16.73 -17.53,-16.73 c -4.49,4.73 -10.87,7.15 -17.37,6.61 -6.49,-0.53 -12.4,-3.97 -16.05,-9.37 h 61.98 c 1.07,-3.86 1.62,-7.92 1.62,-12.12 z m 905.11,0 c 0,-25.29 -20.5,-45.8 -45.79,-45.8 -25.3,0 -45.79,20.51 -45.79,45.8 0,25.3 20.49,45.8 45.79,45.8 13.03,0 24.8,-5.45 33.14,-14.19 l -17.53,-16.73 17.53,16.73 -17.53,-16.73 c -4.49,4.73 -10.87,7.15 -17.37,6.61 -6.49,-0.53 -12.4,-3.97 -16.05,-9.37 h 61.98 c 1.07,-3.86 1.62,-7.92 1.62,-12.12 z m 2313.21,0 c 0,-25.29 -20.51,-45.8 -45.8,-45.8 -25.28,0 -45.79,20.51 -45.79,45.8 0,25.3 20.51,45.8 45.79,45.8 13.04,0 24.81,-5.45 33.15,-14.19 l -17.52,-16.73 17.52,16.73 -17.52,-16.73 c -4.5,4.73 -10.89,7.15 -17.38,6.61 -6.5,-0.53 -12.39,-3.97 -16.06,-9.37 h 62 c 1.05,-3.86 1.61,-7.92 1.61,-12.12 z m -4540.83,-6.8 c 0,-14.67 -7.14,-28.09 -18.49,-34.75 -11.35,-6.65 -24.98,-5.41 -35.27,3.22 v -5.24 h -24.26 v 87.38 h 24.26 v -50.61 c 0,-8.15 6.6,-14.75 14.75,-14.75 8.15,0 14.76,6.6 14.76,14.75 v 50.61 h 24.25 z m 350.76,-11.31 c 0,-11.61 -8.75,-21.98 -21.9,-25.98 -13.16,-4.01 -27.94,-0.8 -37.02,8.04 -9.09,8.84 -10.55,21.43 -3.65,31.54 3.47,4.86 8.43,8.44 14.13,10.23 6.45,2.16 13.04,3.92 19.71,5.27 5.47,1.06 8.35,3.79 6.75,6.38 -1.59,2.59 -7.18,4.24 -13.08,3.88 -5.9,-0.37 -10.3,-2.64 -10.3,-5.33 v -2.58 h -24.23 v 2.58 c 0,12.87 9.81,24.31 24.41,28.49 14.6,4.17 30.78,0.16 40.26,-9.98 9.47,-10.15 10.18,-24.22 1.73,-34.98 -4.88,-5.71 -11.61,-9.52 -19.01,-10.77 -5.86,-1.1 -11.66,-2.51 -17.36,-4.22 -3.17,-1.05 -4.01,-2.77 -2.04,-4.18 1.98,-1.4 6.25,-2.11 10.36,-1.74 4.11,0.38 7,1.76 7,3.35 v 1.2 h 24.24 z m 210.98,18.11 c 0,-25.29 -20.5,-45.8 -45.8,-45.8 -25.29,0 -45.79,20.51 -45.79,45.8 0,25.3 20.5,45.8 45.79,45.8 25.3,0 45.8,-20.5 45.8,-45.8 z m 120.11,7.05 v -50.62 h 24.26 v 50.62 c 0,8.15 6.61,14.76 14.75,14.76 8.15,0 14.75,-6.61 14.75,-14.76 v -50.62 h 24.27 v 87.38 h -24.27 v -5.24 c -10.29,8.63 -23.92,9.88 -35.26,3.23 -11.36,-6.65 -18.5,-20.08 -18.5,-34.75 z m 224.42,-45.38 v -5.24 h -24.26 v 87.38 h 24.26 v -43.81 c 0,-5.72 2.27,-11.2 6.31,-15.24 4.05,-4.05 9.53,-6.31 15.24,-6.31 v -24.17 c -7.67,0.45 -15.11,3.01 -21.55,7.39 z m 213.41,6.72 c -8.34,-8.74 -20.11,-14.19 -33.15,-14.19 -25.28,0 -45.78,20.5 -45.79,45.79 0,0 0,0 0,0.01 0.01,25.29 20.51,45.79 45.79,45.79 13.04,0 24.81,-5.45 33.15,-14.19 l -17.53,-16.72 c -3.92,4.1 -9.47,6.67 -15.59,6.67 -11.9,0 -21.56,-9.65 -21.56,-21.55 0,-0.01 0,-0.01 0,-0.01 0,-11.9 9.66,-21.55 21.56,-21.55 6.12,0 11.67,2.57 15.59,6.67 z m 2807.49,31.55 -12.5,-43.51 h -21.66 l -12.5,43.51 -12.5,-43.51 h -25.22 l 25.12,87.38 h 25.21 l 10.72,-37.29 10.72,37.29 h 25.21 l 25.12,-87.38 h -25.22 l -12.5,43.51 m -615.71,-71.96 h -24.26 v 24.24 h 24.26 v -24.24 m 0,28.45 h -24.26 v 87.38 h 24.26 v -87.38 m -502.62,43.73 27,43.65 h -28.56 l -12.72,-20.56 -12.72,20.56 h -28.55 l 26.99,-43.65 -27.05,-43.73 h 28.57 l 12.76,20.65 12.77,-20.65 h 28.56 l -27.05,43.73 m -812.51,-43.73 -22.24,35.96 v -64.41 h -24.26 v 115.83 h 24.26 v -36.43 l 27.32,36.43 h 30.29 l -33.35,-44.47 26.53,-42.91 h -28.55 m -369.55,-28.45 h -24.26 v 24.24 h 24.26 v -24.24 m 0,120.1 v -91.65 h -24.26 v 91.67 c 0,2.31 -1.88,4.19 -4.19,4.19 h -6.87 v 24.24 h 6.87 c 15.72,0 28.45,-12.74 28.45,-28.45 m 1021.37,-48.08 c 0,-25.29 -20.5,-45.8 -45.79,-45.8 -25.3,0 -45.8,20.51 -45.8,45.8 0,25.3 20.5,45.8 45.8,45.8 25.29,0 45.79,-20.5 45.79,-45.8 z m -844.67,38.57 v 5.24 h 24.25 v -87.38 h -24.25 v 50.62 c 0,8.15 -6.61,14.76 -14.75,14.76 -8.15,0 -14.76,-6.61 -14.76,-14.76 v -50.62 h -24.26 v 50.62 c 0,14.67 7.14,28.1 18.5,34.75 11.34,6.65 24.97,5.4 35.27,-3.23 z m 567.53,-76.9 v -33.69 h -24.27 v 115.83 h 24.27 v -5.24 c 18.4,12.53 42.85,8.99 57.27,-8.3 14.44,-17.28 14.44,-43.01 0,-60.29 -14.42,-17.29 -38.87,-20.84 -57.27,-8.31 z m 795.95,-9.45 h -20.13 c -0.54,-0.04 -1.07,0.14 -1.45,0.53 -0.39,0.38 -0.58,0.92 -0.53,1.45 v 2.23 0 h 11.06 v 24.24 h -11.06 v 63.14 h -24.26 v -63.14 h -11.06 v -24.24 h 11.06 c 0,-15.71 12.73,-28.45 28.44,-28.45 h 17.93 z m 312.86,2.06 v 24.17 c -5.72,0 -11.2,2.26 -15.24,6.31 -4.05,4.04 -6.32,9.52 -6.32,15.24 v 43.81 h -24.26 v -87.38 h 24.26 v 5.24 c 6.45,-4.38 13.87,-6.94 21.56,-7.39 z m 142.2,7.39 v -5.24 h -24.26 v 87.38 h 24.26 v -50.61 c 0,-8.15 6.61,-14.75 14.75,-14.75 8.15,0 14.75,6.6 14.75,14.75 v 50.61 h 24.27 v -50.61 c 0,-8.15 6.6,-14.75 14.75,-14.75 8.14,0 14.74,6.6 14.74,14.75 v 50.61 h 24.26 v -50.61 c 0,-15.39 -9.05,-29.34 -23.1,-35.62 -14.05,-6.27 -30.48,-3.7 -41.93,6.56 -11.89,-12.25 -29.59,-13.28 -42.49,-2.47 z m 518.94,0 v -5.24 h 24.26 v 87.38 h -24.26 v -5.24 c -18.41,12.53 -42.86,8.99 -57.29,-8.3 -14.43,-17.28 -14.43,-43.01 0,-60.29 14.43,-17.29 38.88,-20.84 57.29,-8.31 z m 195.57,-7.39 v 24.17 c -5.71,0 -11.2,2.26 -15.24,6.31 -4.04,4.04 -6.32,9.52 -6.32,15.24 v 43.81 h -24.25 v -87.38 h 24.25 v 5.24 c 6.45,-4.38 13.89,-6.94 21.56,-7.39 z" />
   <path
   style="fill:#000000"
   id="path1938"
   d="m 1935.92,3346.15 c 0,-11.9 -9.65,-21.55 -21.56,-21.55 -11.91,0 -21.56,9.65 -21.56,21.55 0,11.92 9.65,21.57 21.56,21.57 11.91,0 21.56,-9.65 21.56,-21.57 z m 2807.61,-12.11 h 35.67 c -4.01,-5.91 -10.69,-9.44 -17.84,-9.44 -7.14,0 -13.82,3.53 -17.83,9.44 m -905.09,0 h 35.66 c -4.01,-5.91 -10.69,-9.44 -17.83,-9.44 -7.15,0 -13.82,3.53 -17.83,9.44 m -721.4,12.11 c 0,-11.9 -9.65,-21.55 -21.57,-21.55 -11.9,0 -21.55,9.65 -21.55,21.55 0,11.92 9.65,21.57 21.55,21.57 11.92,0 21.57,-9.65 21.57,-21.57 z m 2086.41,0 c 0,-11.9 -9.65,-21.55 -21.56,-21.55 -11.91,0 -21.57,9.65 -21.57,21.55 0,11.92 9.66,21.57 21.57,21.57 11.91,0 21.56,-9.65 21.56,-21.57 z m -209.79,0 c 0,-11.9 -9.65,-21.55 -21.57,-21.55 -11.9,0 -21.55,9.65 -21.55,21.55 0,11.92 9.65,21.57 21.55,21.57 11.92,0 21.57,-9.65 21.57,-21.57 z m -2846.53,0.24 c 0,-11.9 -9.65,-21.56 -21.56,-21.56 -11.9,0 -21.56,9.66 -21.56,21.56 0,11.91 9.66,21.57 21.56,21.57 11.91,0 21.56,-9.66 21.56,-21.57 z m 170.23,-12.35 h 35.67 c -4.01,-5.91 -10.7,-9.44 -17.84,-9.44 -7.14,0 -13.82,3.53 -17.83,9.44 m 4739.38,0 h 35.67 c -4.02,-5.91 -10.69,-9.44 -17.83,-9.44 -7.15,0 -13.83,3.53 -17.84,9.44 m -336.25,12.11 c 0,-11.9 -9.65,-21.55 -21.56,-21.55 -11.91,0 -21.57,9.65 -21.57,21.55 0,11.92 9.66,21.57 21.57,21.57 11.91,0 21.56,-9.65 21.56,-21.57 z" />
   <path
   style="fill:#ffc000"
   id="path1940"
   d="M 1626.82,1692.08 H 7367.43 V 3221.29 H 1626.82 V 1692.08" />
   <path
   style="fill:url(#id9)"
   id="path1942"
   d="m 6138.57,3129.4 v 0 m 1213.45,-251.26 h 15.41 v 8.76 h -6.65 v 35.02 h -8.76 v -43.78 m -43.76,0 h 26.26 v 8.76 h -26.26 v -8.76 m 0,35.02 h 26.26 v 8.76 h -26.26 v -8.76 m -61.29,-35.02 v 0 0 0 0 m 17.51,8.76 h 8.75 v 35.02 h -8.75 v -35.02 m 8.75,-8.76 h 8.75 v 8.76 h -8.75 v -8.76 m 8.75,8.76 h 8.76 v 35.02 h -8.76 v -35.02 m -35.01,-8.76 h 17.51 v 8.76 h -8.76 v 35.02 h -8.75 v -43.78 m -17.51,-8.76 h 8.76 v 17.52 h -8.76 v -17.52 m 0,26.28 h 8.76 v 17.5 h -8.76 v -17.5 m -70.04,-17.52 h 8.76 v 17.52 h -8.76 v -17.52 m -62.68,0 h 8.75 v 8.76 h -8.75 v -8.76 m -26.26,17.52 h 8.76 v 17.5 h -8.76 v -17.5 m -33.7,17.5 h 33.7 v 8.76 h -33.7 v -8.76 m -35.01,-26.26 h 8.75 v 8.76 h -8.75 v -8.76 m -8.75,-26.27 h 26.25 v 8.75 h -26.25 v -8.75 m 0,52.53 h 26.25 v 8.76 h -26.25 v -8.76 m -43.78,-52.53 h 17.51 v 8.75 h -17.51 v -8.75 m -8.75,8.75 h 8.75 v 8.76 h -8.75 v -8.76 m 26.26,26.28 h 8.76 v 17.5 h -8.76 v -17.5 m 236.45,-112.87 h 35.02 v 8.75 h -35.02 v -8.75 m -8.75,8.75 h 8.75 v 8.76 h -8.75 v -8.76 m 8.75,8.76 h 26.26 v 8.75 h -26.26 v -8.75 m 26.26,8.75 h 8.76 v 8.76 h -8.76 v -8.76 m -35.01,8.76 h 35.01 v 8.75 h -35.01 v -8.75 m 52.52,-35.02 h 8.75 v 35.02 h -8.75 v -35.02 m 8.75,52.52 h 26.26 v 8.76 h -26.26 v -8.76 m 43.78,-17.5 h 35.02 v 8.75 h -35.02 v -8.75 m 35.02,-8.76 h 8.75 v 8.76 h -8.75 v -8.76 m -26.26,-8.75 h 26.26 v 8.75 h -26.26 v -8.75 m -8.76,-8.76 h 8.76 v 8.76 h -8.76 v -8.76 m 8.76,-8.75 h 35.01 v 8.75 h -35.01 v -8.75 m -105.06,190.7 h 35.02 v 8.76 h -35.02 v -8.76 m -8.75,8.76 h 8.75 v 8.76 h -8.75 v -8.76 m 8.75,8.76 h 26.26 v 8.75 h -26.26 v -8.75 m 26.26,8.75 h 8.76 v 8.76 h -8.76 v -8.76 m -35.01,8.76 h 35.01 v 8.75 h -35.01 v -8.75 m -210.44,0 h 35.01 v 8.75 h -35.01 v -8.75 m 35.01,-8.76 h 8.76 v 8.76 h -8.76 v -8.76 m -26.26,-8.75 h 26.26 v 8.75 h -26.26 v -8.75 m -8.75,-8.76 h 8.75 v 8.76 h -8.75 v -8.76 m 8.75,-8.76 h 35.02 v 8.76 h -35.02 v -8.76 m -263.14,95.36 h 35.02 v 8.75 h -35.02 v -8.75 m -8.75,8.75 h 8.75 v 8.76 h -8.75 v -8.76 m 8.75,8.76 h 26.27 v 8.75 h -26.27 v -8.75 m 26.27,8.75 h 8.75 v 8.76 h -8.75 v -8.76 m -35.02,8.76 h 35.02 v 8.75 h -35.02 v -8.75 m -581.58,0 h 35.01 v 8.75 h -35.01 v -8.75 m 35.01,-8.76 h 8.76 v 8.76 h -8.76 v -8.76 m -26.26,-8.75 h 26.26 v 8.75 h -26.26 v -8.75 m -8.75,-8.76 h 8.75 v 8.76 h -8.75 v -8.76 m 8.75,-8.75 h 35.02 v 8.75 h -35.02 v -8.75 m 941.35,0 h 17.51 v 8.75 h -8.76 v 35.02 h -8.75 v -43.77 m 35.02,8.75 h 8.75 v 35.02 h -8.75 v -35.02 m -8.76,-8.75 h 8.76 v 8.75 h -8.76 v -8.75 m -8.75,8.75 h 8.75 v 35.02 h -8.75 v -35.02 m -17.51,-8.75 v 0 0 0 0 m -843.62,0 v 0 0 0 0 m 17.51,8.75 h 8.76 v 35.02 h -8.76 v -35.02 m 8.76,-8.75 h 8.75 v 8.75 h -8.75 v -8.75 m 8.75,8.75 h 8.76 v 35.02 h -8.76 v -35.02 m -35.02,-8.75 h 17.51 v 8.75 h -8.75 v 35.02 h -8.76 v -43.77 m 1036.21,-251.04 v -35.02 h 8.76 v 52.52 h -8.76 v -8.75 h -26.26 v -8.75 h 26.26 m -684.86,284.74 v -35.03 h 8.75 v 52.54 h -8.75 v -8.76 h -26.27 v -8.75 h 26.27 m -26.27,17.51 h 26.27 v 8.75 h -26.27 v -8.75 m -8.75,-52.54 h 8.75 v 35.03 h -8.75 v -35.03 m 737.4,-180.62 h 8.76 v 8.76 h 26.26 v -8.76 h 8.75 v 17.51 h -35.01 v 8.75 h -8.76 v -26.26 m -157.59,95.35 h 8.76 v 8.76 h 26.27 v -8.76 h 8.75 v 17.51 h -35.02 v 8.76 h -8.76 v -26.27 m 8.76,26.27 h 26.27 v 8.75 h -26.27 v -8.75 m 0,-35.03 h 26.27 v 8.76 h -26.27 v -8.76 m -210.44,0 h 26.27 v 8.76 h -26.27 v -8.76 m 0,35.03 h 26.27 v 8.75 h -26.27 v -8.75 m -8.75,-26.27 h 8.75 v 8.76 h 26.27 v -8.76 h 8.75 v 17.51 h -35.02 v 8.76 h -8.75 v -26.27 m 315.49,95.35 h 8.75 v 8.76 h 26.26 v -8.76 h 8.76 v 17.51 h -35.02 v 8.76 h -8.75 v -26.27 m 8.75,26.27 h 26.26 v 8.75 h -26.26 v -8.75 m 0,-35.02 h 26.26 v 8.75 h -26.26 v -8.75 m 105.06,0 h 6.65 v 8.75 h -6.65 v -8.75 m 0,35.02 h 6.65 v 8.75 h -6.65 v -8.75 m -8.76,-26.27 h 8.76 v 8.76 h 6.65 v 0 0 8.75 h -6.65 v 8.76 h -8.76 v -26.27 m -1255.18,-8.75 h 26.26 v 8.75 h -26.26 v -8.75 m 0,35.02 h 26.26 v 8.75 h -26.26 v -8.75 m -8.76,-26.27 h 8.76 v 8.76 h 26.26 v -8.76 h 8.75 v 17.51 h -35.01 v 8.76 h -8.76 v -26.27 m 112.49,17.51 h 17.5 v 16.19 h -17.5 v -16.19 m 1055.15,-121.62 h 26.26 v 8.76 h -26.26 v -8.76 m -8.75,8.76 h 8.75 v 26.27 h -8.75 v -26.27 m 8.75,26.27 h 26.26 v 8.75 h -26.26 v -8.75 m 26.26,-8.76 h 8.76 v 8.76 h -8.76 v -8.76 m 26.28,-26.27 h 26.26 v 8.76 h -26.26 v -8.76 m -8.76,26.27 h 8.76 v 8.76 h -8.76 v -8.76 m -703.13,0 h 8.75 v 8.76 h -8.75 v -8.76 m -26.26,8.76 h 26.26 v 8.75 h -26.26 v -8.75 m -8.76,-26.27 h 8.76 v 26.27 h -8.76 v -26.27 m 8.76,-8.76 h 26.26 v 8.76 h -26.26 v -8.76 m 484.26,-17.51 h 8.76 v 8.76 h -8.76 v -8.76 m 52.53,35.03 h 8.75 v 8.75 h -8.75 v -8.75 m -262.97,-17.52 h 17.52 v 8.76 h -17.52 v -8.76 m 17.52,8.76 h 8.75 v 35.02 h -8.75 v -35.02 m -238.81,-8.76 h 24.94 v 8.76 h -24.94 v -8.76 m -8.76,8.76 h 8.76 v 26.27 h -8.76 v -26.27 m 8.76,26.27 h 24.94 v 8.75 h -24.94 v -8.75 m 24.94,-26.27 h 8.75 v 26.27 h -8.75 v -26.27 m 422.14,95.35 h 8.76 v 26.27 h -8.76 v -26.27 m -24.93,26.27 h 24.93 v 8.75 h -24.93 v -8.75 m -8.75,-26.27 h 8.75 v 26.27 h -8.75 v -26.27 m 8.75,-8.75 h 24.93 v 8.75 h -24.93 v -8.75 m -218.37,-95.36 h 8.76 v 8.76 h 8.75 v 8.76 h -8.75 v 26.26 h -8.76 v -43.78 m 525.6,0 h 8.76 v 8.76 h 6.65 v 8.76 h -6.65 v 26.26 h -8.76 v -43.78 m -429.3,43.78 h -8.75 v -8.75 h -8.75 v -8.76 h 8.75 v -26.27 h 8.75 v 43.78 m -35.02,-8.75 h -8.75 v -35.03 h 8.75 v 35.03 m 17.52,8.75 h -17.52 v -8.75 h 17.52 v 8.75 m -236.38,-43.78 h 8.76 v 8.76 h 8.75 v 8.76 h -8.75 v 26.26 h -8.76 v -43.78 m 35.02,8.76 h 8.76 v 35.02 h -8.76 v -35.02 m -17.51,-8.76 h 17.51 v 8.76 h -17.51 v -8.76 m 262.14,95.36 H 6966 v 8.75 h -17.51 v -8.75 m 17.51,8.75 h 8.75 v 35.02 H 6966 v -35.02 m -35.02,-8.75 h 8.76 v 8.75 h 8.75 v 8.76 h -8.75 v 26.26 h -8.76 v -43.77 m 289.72,43.77 h -17.5 v -8.75 h 17.5 v 8.75 m -17.5,-8.75 h -8.75 v -35.02 h 8.75 v 35.02 m 35.02,8.75 h -8.76 v -8.75 h -8.76 v -8.76 h 8.76 v -26.26 h 8.76 v 43.77 m 105.05,0 h -8.75 v -8.75 h -8.76 v -8.76 h 8.76 v -26.26 h 8.75 v 43.77 m -35.01,-8.75 h -8.76 v -35.02 h 8.76 v 35.02 m 17.5,8.75 h -17.5 v -8.75 h 17.5 v 8.75 m 8.76,-130.37 h 8.75 v 35.02 h -35.01 v -8.75 h 26.26 v -8.76 h -26.26 v -8.75 h 26.26 v -8.76 m -421.05,95.35 h 8.75 v 35.02 h -35.01 v -8.75 h 26.26 v -8.76 h -26.26 v -8.75 h 26.26 v -8.76 m -35.02,17.51 h 8.76 v 8.76 h -8.76 v -8.76 m 8.76,-26.26 h 26.26 v 8.75 h -26.26 v -8.75 m -368.88,0 h 26.26 v 8.75 h -26.26 v -8.75 m -8.76,26.26 h 8.76 v 8.76 h -8.76 v -8.76 m 35.02,-17.51 h 8.75 v 35.02 h -35.01 v -8.75 h 26.26 v -8.76 h -26.26 v -8.75 h 26.26 v -8.76 m 684.87,-216.97 h -35.01 v 61.29 h 35.01 v -8.76 h -26.26 v -17.5 h 26.26 v -8.76 h -26.26 v -17.52 h 26.26 v -8.75 m -87.55,0 v 61.29 h 8.76 v -43.78 h 8.75 v -8.76 h -8.75 v -8.75 h -8.76 m 43.78,0 v 61.29 h -8.75 v -43.78 h -8.76 v -8.76 h 8.76 v -8.75 h 8.75 m -71.44,0 h 8.76 v 35.03 h 8.75 v 8.75 h -8.75 v 17.51 h -8.76 v -17.51 h -26.26 v -17.51 h 8.75 v 8.76 h 17.51 v -17.52 h -8.76 v -8.76 h 8.76 v -8.75 m -77.47,0 v 8.75 h 24.95 v 8.76 h 8.75 v -8.76 h 8.76 v -8.75 h -42.46 m 24.95,17.51 h -8.76 v 8.76 h -8.76 v 8.76 h 26.27 v -8.76 h -8.75 v -8.76 m -77.47,-8.76 v 43.78 h 8.76 v -8.75 h 8.75 v -8.75 h -8.75 v -26.28 h -8.76 m 35.01,0 v 8.76 h -8.75 v 8.76 h 8.75 v 26.26 h 8.76 v -43.78 h -8.76 m -87.54,8.76 v 35.02 h 8.76 v -17.5 h 26.26 v -8.76 h -26.26 v -8.76 h -8.76 m 8.76,35.02 h 26.26 v 8.76 h -26.26 v -8.76 m -563.4,155.69 h -8.75 v 8.75 h -8.76 v 8.76 h 26.26 v -8.76 h -8.75 v -8.75 m -24.94,-17.51 v 8.75 h 24.94 v 8.76 h 8.75 v -8.76 h 8.76 v -8.75 h -42.45 m 0,52.53 h 33.69 v 8.75 h -33.69 v -8.75 m 33.69,-17.51 h 8.76 v 17.51 h -8.76 v -17.51 m 703.55,-112.87 v 8.76 h 26.26 v 8.76 h 8.76 v -8.76 h 8.75 v -8.76 h -43.77 m 8.75,26.27 h 8.76 v 8.76 h 26.26 v 8.75 h -43.77 v -8.75 h 8.75 v -8.76 m -52.52,-26.27 h 17.51 v 35.03 h 8.75 v 8.75 h -26.26 v -8.75 h 8.75 v -26.27 h -8.75 v -8.76 m -262.97,0 h 17.51 v 35.03 h 8.75 v 8.75 h -26.26 v -8.75 h 8.76 v -26.27 h -8.76 v -8.76 m 8.76,-17.51 h 8.75 v 8.76 h -8.75 v -8.76 m -105.55,95.36 h 8.75 v 8.75 h -8.75 v -8.75 m -8.76,17.51 h 17.51 v 35.02 h 8.75 v 8.75 h -26.26 v -8.75 h 8.76 v -26.27 h -8.76 v -8.75 m 79.29,-69.09 h 8.76 v 8.76 h -8.76 v -8.76 m -8.76,8.76 h 8.76 v 8.75 h -8.76 v -8.75 m -8.75,-52.54 h 8.75 v 17.51 h 8.76 v 8.76 h -8.76 v 26.27 h -8.75 v -26.27 h -8.76 v -8.76 h 8.76 v -17.51 m 52.03,95.36 h 8.75 v 17.51 h 8.76 v 8.75 h -8.76 v 26.27 h -8.75 v -26.27 h -8.76 v -8.75 h 8.76 v -17.51 m 8.75,52.53 h 8.76 v 8.75 h -8.76 v -8.75 m 8.76,-8.76 h 8.75 v 8.76 h -8.75 v -8.76 m 17.51,-26.26 h 8.75 v 8.75 h 8.75 v 8.76 h -8.75 v 26.26 h -8.75 v -43.77 m 35.01,8.75 h 8.76 v 10.09 h -8.76 v -10.09 m -17.51,-8.75 h 17.51 v 8.75 h -17.51 v -8.75 m -220.05,-17.51 h 16.18 v 52.53 h 8.76 v 7.43 h -24.94 v -7.43 h 8.75 v -43.78 h -8.75 v -8.75 m -156.26,0 h 16.19 v 52.53 h 8.75 v 7.43 h -24.94 v -7.43 h 8.75 v -43.78 h -8.75 v -8.75 m 525.14,17.51 h 17.51 v 8.75 h -17.51 v -8.75 m -8.76,8.75 h 8.76 v 26.27 h -8.76 v -26.27 m 26.27,0 h 8.75 v -26.26 h 8.76 v 59.96 h -35.02 v -7.43 h 26.26 v -17.51 h -8.75 v -8.76 m 132.14,0 h 8.76 v 26.27 h -8.76 v -26.27 m 8.76,-8.75 h 17.51 v 8.75 h -17.51 v -8.75 m 17.51,8.75 h 8.76 v -8.75 h 8.75 v 59.96 h -8.75 v -17.51 h -26.27 v -7.43 h 26.27 v -17.51 h -8.76 v -8.76 m -728.65,-8.75 h -17.5 v 8.75 h 17.5 v -8.75 m -17.5,8.75 h -8.76 v -8.75 h -8.76 v 59.96 h 8.76 v -17.51 h 26.26 v -7.43 h -26.26 v -17.51 h 8.76 v -8.76 m 26.26,0 h -8.76 v 26.27 h 8.76 v -26.27 m -106.22,0 h -8.75 v 26.27 h 8.75 v -26.27 m -26.26,0 h -8.76 v -8.75 h -8.75 v 59.96 h 8.75 v -17.51 h 26.27 v -7.43 h -26.27 v -17.51 h 8.76 v -8.76 m 17.51,-8.75 h -17.51 v 8.75 h 17.51 v -8.75 m -194.75,60.55 v 0" />
   <path
   style="fill:#000000"
   id="path1944"
   d="m 3114.36,2131.53 c -79.06,-343.99 -283.75,-358.96 -331.88,-358.96 v -20.11 c 106.73,0 279.25,76.17 341.94,337.6 80.31,-260.88 217.46,-330.9 313.71,-332.23 91.73,-1.26 148.3,20.11 235.25,65.42 v -40.83 h 251 v -34.41 h 20.11 v 34.41 h 42.56 v 20.11 h -42.56 v 491.85 L 4125,1838.1 h 172.93 l 15.08,-35.57 h -215.5 v -20.11 h 224.02 l 23.69,-55.9 18.51,7.86 -20.36,48.04 h 47.68 v 20.11 h -56.2 l -140.67,332 h 186.3 v 248.83 c 174.36,-85.82 382.97,-22.85 488.11,145.15 104.29,-160.76 308.04,-224.83 485.56,-152.68 l -7.07,-11.42 h 300.04 l 59.94,96.91 58.54,-94.66 c 0.87,-1.4 2.4,-2.25 4.04,-2.25 v 0 c 1.73,0 3.32,0.93 4.15,2.44 0.84,1.51 0.8,3.34 -0.1,4.81 l -61.04,98.69 7.82,12.64 71.95,-116.33 c 0.86,-1.4 2.39,-2.25 4.04,-2.25 v 0 c 1.73,0 3.31,0.93 4.15,2.44 0.83,1.51 0.79,3.34 -0.11,4.81 l -74.45,120.36 7.82,12.65 86.75,-140.26 h 300.04 l -236.77,382.81 7.82,12.65 249.84,-403.93 h -311.69 c -1.73,0 -3.32,-0.93 -4.15,-2.44 -0.84,-1.51 -0.8,-3.35 0.11,-4.82 v 0 c 0.87,-1.39 2.39,-2.25 4.04,-2.25 h 328.74 l -247.89,400.79 231.89,374.93 c 0.91,1.46 0.95,3.31 0.11,4.81 -0.84,1.51 -2.43,2.44 -4.14,2.44 -1.66,0 -3.18,-0.85 -4.05,-2.25 l -229.4,-370.9 -7.82,12.65 222.98,360.5 h -300.04 l -57.32,-92.66 -55.92,90.41 c -0.87,1.4 -2.39,2.25 -4.03,2.25 v 0 c -0.78,0 -1.55,-0.19 -2.23,-0.56 -0.69,0.37 -1.46,0.56 -2.24,0.56 -1.73,0 -3.32,-0.93 -4.16,-2.44 -0.83,-1.5 -0.79,-3.35 0.11,-4.81 l 60.65,-98.05 -7.82,-12.65 -71.56,115.7 c -0.86,1.4 -2.4,2.25 -4.04,2.25 -1.73,0 -3.31,-0.93 -4.15,-2.44 -0.84,-1.5 -0.79,-3.35 0.11,-4.81 l 74.06,-119.74 -7.83,-12.64 -86.36,139.63 h -300.04 l 8.79,-14.2 c -177.67,73.39 -382.41,9.85 -487.31,-151.24 -105,168.4 -313.88,230.02 -488.47,144.1 v 21.34 h -254.93 v -1.91 h -42.09 l 18.39,51.88 -18.97,6.72 -20.75,-58.6 h -80.82 v -20.12 h 73.7 l -150.16,-423.86 -8.88,21.62 V 3129.4 H 3729.69 V 1838.1 h 166.28 v 578.91 l 28.41,-71.78 v -542.7 h -230.89 v 58.79 c -100.16,-67.36 -167.28,-83.38 -255.36,-83.38 -69.72,0 -222.76,50.83 -303.66,353.59 z m 360.18,1025.01 -317.04,0.02 v -20.12 h 216.51 c -164.99,-73.26 -236.88,-338.38 -236.88,-652.69 0,-370.57 99.88,-672.8 334.53,-672.8 107.83,0 169.1,55.39 221.83,105.87 v 32.93 c 0.01,0.03 0.03,0.06 0.05,0.08 l -0.01,279.05 h -17.91 c -38.88,-70.83 -110.35,-170.31 -184.17,-170.31 -123.02,0 -183.88,190.54 -182.33,425.18 -1.55,234.65 59.31,425.19 182.33,425.19 73.82,0 145.29,-99.48 184.17,-170.32 h 17.91 l 0.01,279.04 c -0.02,0.04 -0.04,0.06 -0.05,0.1 v 32.92 c -52.26,50.03 -112.91,104.88 -218.95,105.86 z m -694.5,-1345.59 c 232.63,0 331.66,317.27 331.66,672.8 0,355.53 -99.03,672.81 -331.66,672.81 -232.63,0 -331.65,-302.24 -331.65,-672.81 0,-370.57 99.02,-672.8 331.65,-672.8 z M 2200.9,1838.1 H 1898 V 2588 c 1.96,5.25 3.9,10.49 5.83,15.74 13.6,-3.72 27.71,-5.23 41.78,-4.48 27.55,1.48 52.37,17.11 65.6,41.31 11.96,21.88 17.65,46.62 16.45,71.52 -0.5,10.42 -3.24,20.59 -8.03,29.84 -11.77,22.73 -29.93,41.51 -52.24,54.04 7.55,25.63 14.76,51.34 21.64,77.16 13.16,49.38 19.35,100.36 18.36,151.46 -0.25,13.19 -3.11,26.19 -8.41,38.25 -5.43,12.37 -14.96,22.51 -26.97,28.69 -8.71,4.49 -18.89,5.23 -28.16,2.05 -9.27,-3.17 -16.85,-9.99 -20.99,-18.88 -4.82,-10.35 -7.17,-21.67 -6.88,-33.08 0.15,-6.43 3.26,-12.42 8.42,-16.26 6.49,-4.84 14.47,-7.27 22.56,-6.89 5.31,0.26 10.07,3.37 12.45,8.12 2.38,4.76 2,10.43 -0.98,14.84 -3.67,5.42 -9.06,9.46 -15.3,11.47 l 2.14,4.66 c 1,2.64 3.24,4.62 5.98,5.3 2.75,0.68 5.65,-0.02 7.78,-1.89 10.45,-8.91 16.96,-21.58 18.1,-35.26 1.52,-23.58 1.02,-47.23 -1.49,-70.73 -7.35,-50.18 -18.28,-99.76 -32.72,-148.38 -3.71,1.17 -7.46,2.18 -11.26,3.03 -11.11,2.48 -22.35,4.4 -33.66,5.77 v 314 h 202.72 v 41.99 h 20.11 v -41.99 h 43.18 v -20.12 h -43.18 V 2656.5 h 19.42 l 176.91,472.9 h 194.28 l 17.56,44.82 18.73,-7.35 -17.46,-44.55 h 60.62 v -20.11 h -68.5 l -209.21,-533.98 c 77,-79.42 121.19,-198.98 121.19,-350.83 0,-203.5 -55.1,-379.3 -233.47,-379.3 z m -266.82,940.17 c -11.55,4.76 -23.68,7.95 -36.08,9.48 v -114.43 c 12.48,34.68 24.46,69.55 35.95,104.56 0.05,0.14 0.09,0.26 0.13,0.39 0,0 0,0 0,0 0,0 0,0 0,0 0,0 0,0 0,0 m -18.99,-143.36 c 3.96,-1.09 7.95,-2 11.98,-2.76 12.63,-2.35 25.68,0.71 35.95,8.42 9.36,7.02 16.09,16.97 19.14,28.27 6.79,25.18 5.31,51.88 -4.22,76.15 -2,5.1 -5.3,9.58 -9.56,13.01 -3.27,2.63 -6.66,5.11 -10.16,7.43 -13.41,-43.82 -27.79,-87.34 -43.13,-130.52 M 1898,2787.75 c -3.17,0.39 -6.36,0.67 -9.56,0.84 -34.83,1.9 -67.22,-17.88 -81.47,-49.72 -25.28,-56.51 -28.95,-120.34 -10.33,-179.39 6.55,-20.73 13.3,-41.38 20.28,-61.96 1.92,-5.7 3.87,-11.39 5.85,-17.07 18.69,44.41 36.57,89.16 53.61,134.24 -24.29,13 -43.87,33.29 -56.02,58.01 -2.01,4.08 -1.22,8.99 1.97,12.24 3.18,3.26 8.07,4.15 12.2,2.22 3.58,-2.58 6.9,-5.5 9.93,-8.72 12.27,-13.62 26.98,-24.84 43.36,-33.07 3.43,9.3 6.82,18.62 10.18,27.95 V 2588 c -16.13,-43.16 -33.21,-85.96 -51.25,-128.35 -2.99,-7.02 -6.04,-14.02 -9.15,-20.97 3.75,-10.31 7.57,-20.6 11.44,-30.86 5.53,-14.64 9.76,-29.74 12.63,-45.14 3.24,-17.4 1.78,-35.35 -4.22,-52.01 -13.66,-37.96 -40,-70.04 -74.58,-90.84 -15.21,-9.15 -32.74,-13.67 -50.48,-13.01 -14.86,0.56 -26.86,12.32 -27.73,27.16 -0.79,13.47 2.33,26.89 8.98,38.63 6.16,10.87 12.8,21.47 19.89,31.74 21.89,31.73 40.81,65.41 56.51,100.6 3.09,6.93 6.16,13.86 9.21,20.8 -4.79,13.18 -9.49,26.39 -14.08,39.64 -21.31,61.47 -35.06,125.31 -40.93,190.1 -2.77,30.58 -0.05,61.41 8.04,91.03 11.08,40.64 47.21,69.43 89.31,71.14 18.83,0.77 37.7,0.02 56.41,-2.26 v -27.65 m 275.45,-1003.42 h -313.16 v -48.79 h -20.11 v 48.79 h -46.84 v 20.11 h 46.84 v 224.04 h 20.11 v -224.04 h 313.16 v -20.11" />
   <path
   style="fill:#b4c3d3"
   id="path1946"
   d="m 6067.8,2393.87 h -230.76 l -103.17,166.8 -103.17,-166.8 h -230.76 l 43.27,69.96 c -88.08,-74.77 -206.04,-104.11 -318.88,-79.32 -112.84,24.78 -207.64,100.87 -256.27,205.68 -43.58,-97.5 -125.6,-170.49 -224.8,-200.03 -99.21,-29.54 -205.83,-12.75 -292.24,46.05 v -276.82 h -196.01 v 935.96 h 196.01 v -37.75 c 86.56,58.9 193.4,75.65 292.73,45.9 99.34,-29.75 181.36,-103.06 224.75,-200.87 49.17,105.22 144.89,181.25 258.5,205.34 113.61,24.07 231.94,-6.58 319.57,-82.8 l -46.24,74.77 h 230.77 l 102.77,-166.16 102.78,166.16 h 230.77 l -218.16,-352.72 z" />
   <path
   style="fill:#000000"
   id="path1948"
   d="m 4699.47,2745.95 c 0,-96.23 -78.01,-174.23 -174.22,-174.23 -96.22,0 -174.22,78 -174.22,174.23 0,96.22 78,174.23 174.22,174.23 96.21,0 174.22,-78.01 174.22,-174.23 z m 863.62,-88.3 c 14.6,59.46 14.24,121.61 -1.09,180.9 l 56.49,-91.33 -55.4,-89.57 m -185.13,88.3 c 0,-96.23 -78.01,-174.23 -174.23,-174.23 -96.22,0 -174.22,78 -174.22,174.23 0,96.22 78,174.23 174.22,174.23 96.22,0 174.23,-78.01 174.23,-174.23 z" />
   <path
   style="fill:#ffc000"
   id="path1950"
   d="m 2064.28,3109.28 h 36.44 V 2656.5 h -36.44 v 452.78 m 75.23,-738.18 c 61.44,0 71.08,-77.9 71.01,-131.37 -0.05,-53.46 -7.82,-111.48 -61.44,-111.48 h -84.8 v 295.45 h 36.44 v -52.6 z m 0,20.11 h -18.68 v 32.49 h 1.28 c 136.95,0 136.95,-122.63 136.95,-165.23 v -27.51 c 0,-41.31 -0.28,-155.3 -115.59,-155.3 h -79.19 v 32.47 h 75.23 c 39.13,0 91.63,5.57 91.63,136.8 0,131.22 -52.76,145.19 -91.63,146.28 z m -326.09,-3.59 c -15.76,-31.45 -32.82,-62.26 -51.11,-92.3 -5.83,-9.56 -11.09,-19.44 -15.77,-29.59 -3.05,-6.63 -4.87,-13.76 -5.36,-21.04 -0.1,-1.57 0.47,-3.11 1.56,-4.24 1.09,-1.13 2.61,-1.74 4.18,-1.68 7.56,0.25 14.93,2.42 21.42,6.3 27.91,16.7 47.79,44.04 55.08,75.74 2.12,9.24 2.19,18.83 0.19,28.11 -2.82,13.05 -6.21,25.97 -10.19,38.7 v 0 m 3385.57,503.02 h 9.49 c 78.99,-2.6 141.29,-68.05 139.99,-147.07 -1.29,-79.01 -65.71,-142.39 -144.74,-142.39 -79.02,0 -143.44,63.38 -144.74,142.39 -1.3,79.02 61.01,144.47 140,147.07 z m -678.49,0 h 9.49 c 78.99,-2.6 141.3,-68.05 140,-147.07 -1.3,-79.01 -65.72,-142.39 -144.74,-142.39 -79.03,0 -143.45,63.38 -144.75,142.39 -1.29,79.02 61.01,144.47 140,147.07 z m -453.84,-455.17 58.89,152.34 v -291.33 l -58.89,138.99 m 9.68,671.9 -160.03,-451.77 18.76,-45.7 184.93,497.47 h -43.66 M 2780.04,2054.2 c 112.02,0 159.68,202.54 159.68,429.55 0,227 -47.66,429.55 -159.68,429.55 -112.02,0 -159.67,-192.97 -159.67,-429.55 0,-236.58 47.65,-429.55 159.67,-429.55 z" />
   <path
   style="fill:#000000"
   id="path1952"
   d="m 5198.99,2890.64 c 3.16,0.23 6.32,0.21 9.49,0 v -13.31 c 71.66,-2.6 128.01,-62.12 126.69,-133.8 -1.31,-71.68 -59.83,-129.1 -131.53,-129.05 -1.72,-0.03 -3.14,0.88 -4,2.35 -0.87,1.49 -0.87,3.32 0,4.81 0.86,1.47 2.29,2.37 4.01,2.35 44.14,-0.03 84.87,23.79 106.46,62.3 21.59,38.51 20.68,85.69 -2.35,123.34 -23.05,37.65 -64.66,59.91 -108.77,58.19 z m -673.74,-36.03 c -2.63,0 -4.75,-2.13 -4.75,-4.75 0,-2.63 2.12,-4.75 4.75,-4.75 54.76,0 99.15,-44.4 99.15,-99.16 0,-54.77 -44.39,-99.16 -99.15,-99.16 -2.63,0 -4.75,-2.13 -4.75,-4.75 0,-2.63 2.12,-4.75 4.75,-4.75 60.01,0 108.65,48.64 108.65,108.66 0,60.01 -48.64,108.66 -108.65,108.66 z m 678.48,0 c -2.62,0 -4.74,-2.13 -4.74,-4.75 0,-2.63 2.12,-4.75 4.74,-4.75 54.76,0 99.16,-44.4 99.16,-99.16 0,-54.77 -44.4,-99.16 -99.16,-99.16 -2.62,0 -4.74,-2.13 -4.74,-4.75 0,-2.63 2.12,-4.75 4.74,-4.75 60.02,0 108.66,48.64 108.66,108.66 0,60.01 -48.64,108.66 -108.66,108.66 z m -683.23,36.03 c 3.16,0.15 6.33,0.11 9.49,0 v -13.31 c 71.66,-2.6 128.01,-62.12 126.69,-133.8 -1.31,-71.68 -59.83,-129.1 -131.52,-129.05 -1.73,-0.03 -3.15,0.88 -4.01,2.35 -0.86,1.49 -0.87,3.32 0,4.81 0.86,1.47 2.29,2.37 4.01,2.35 44.15,-0.03 84.87,23.79 106.46,62.3 21.6,38.51 20.69,85.69 -2.35,123.34 -23.05,37.65 -64.66,59.91 -108.77,58.19 z m -1740.46,-37.79 v -49.68 h -20.11 v 52.9 20.12 c 108.72,0 140.64,-184.64 141.39,-382.39 h 457.59 c 1.08,139.21 31.61,352.27 122.49,366.97 v 52.53 h 20.11 v -419.5 h 80.06 v -20.11 h -80.06 v -72.56 h -20.11 v 72.56 h -102.32 c 2.19,-137.97 40.73,-339.69 112.37,-342.97 v -20.11 c -93.96,3.65 -130.5,218.94 -132.49,363.08 h -457.67 c -1.3,-196.81 -33.09,-379.94 -141.36,-379.94 v 19.3 360.64 h -61.46 v 20.11 h 61.46 v 70.25 h 20.11 v -70.25 h 101.14 c -1.01,126.58 -16.95,331.11 -101.14,359.05 z" />
   <path
   style="fill:#ffc000"
   id="path1954"
   d="m 3379.03,2493.8 c 1.3,131.79 34.66,328.54 102.37,346.41 V 2493.8 Z m -497.82,-20.11 H 2780.04 V 2116.3 c 83.75,27.84 100.57,230.6 101.17,357.39 z" />
  </g></g></svg>
