<?xml version="1.0" encoding="UTF-8" standalone="no"?>
<!-- Creator: CorelDRAW -->
<svg
   xmlns:dc="http://purl.org/dc/elements/1.1/"
   xmlns:cc="http://web.resource.org/cc/"
   xmlns:rdf="http://www.w3.org/1999/02/22-rdf-syntax-ns#"
   xmlns:svg="http://www.w3.org/2000/svg"
   xmlns="http://www.w3.org/2000/svg"
   xmlns:xlink="http://www.w3.org/1999/xlink"
   xmlns:sodipodi="http://sodipodi.sourceforge.net/DTD/sodipodi-0.dtd"
   xmlns:inkscape="http://www.inkscape.org/namespaces/inkscape"
   xml:space="preserve"
   width="100mm"
   height="162mm"
   shape-rendering="geometricPrecision"
   text-rendering="geometricPrecision"
   image-rendering="optimizeQuality"
   fill-rule="evenodd"
   viewBox="0 0 10000 16200"
   id="svg2"
   sodipodi:version="0.32"
   inkscape:version="0.44"
   sodipodi:docname="sansa-front.svg"
   sodipodi:docbase="/home/martin/src/dev/rockbox-devel"><metadata
   id="metadata309"><rdf:RDF><cc:Work
       rdf:about=""><dc:format>image/svg+xml</dc:format><dc:type
         rdf:resource="http://purl.org/dc/dcmitype/StillImage" /></cc:Work></rdf:RDF></metadata><defs
   id="defs307">
  <defs
   id="defs5">
   <linearGradient
   y2="4650.4"
   x2="1145.34"
   y1="4650.4"
   x1="1073.64"
   gradientUnits="userSpaceOnUse"
   id="id0">
    <stop
   id="stop8"
   stop-color="#F2F8FA"
   offset="0" />
    <stop
   id="stop10"
   stop-color="#BFC0C0"
   offset="0.290196" />
    <stop
   id="stop12"
   stop-color="#9FA0A0"
   offset="0.419608" />
    <stop
   id="stop14"
   stop-color="#828282"
   offset="1" />
    <stop
   id="stop16"
   stop-color="#828282"
   offset="1" />
   </linearGradient>
   <linearGradient
   y2="4015.4"
   x2="1780.34"
   y1="4015.4"
   x1="1708.64"
   gradientUnits="userSpaceOnUse"
   id="id1">
    <stop
   id="stop19"
   stop-color="#F2F8FA"
   offset="0" />
    <stop
   id="stop21"
   stop-color="#BFC0C0"
   offset="0.290196" />
    <stop
   id="stop23"
   stop-color="#9FA0A0"
   offset="0.419608" />
    <stop
   id="stop25"
   stop-color="#828282"
   offset="1" />
    <stop
   id="stop27"
   stop-color="#828282"
   offset="1" />
   </linearGradient>
   <linearGradient
   y2="159.96"
   x2="5397.62"
   y1="60.74"
   x1="5397.62"
   gradientUnits="userSpaceOnUse"
   id="id2">
    <stop
   id="stop30"
   stop-color="#F2F8FA"
   offset="0" />
    <stop
   id="stop32"
   stop-color="#BFC0C0"
   offset="0.290196" />
    <stop
   id="stop34"
   stop-color="#9FA0A0"
   offset="0.419608" />
    <stop
   id="stop36"
   stop-color="#828282"
   offset="1" />
    <stop
   id="stop38"
   stop-color="#828282"
   offset="1" />
   </linearGradient>
   <radialGradient
   fy="14780.4"
   fx="2502.49"
   r="1306.57"
   cy="14780.4"
   cx="2502.49"
   gradientUnits="userSpaceOnUse"
   id="id3"
   gradientTransform="matrix(2.095066,7.868034e-2,-7.543729e-2,2.008706,-1625.391,-15105.98)">
    <stop
   id="stop41"
   stop-color="#000000"
   offset="0" />
    <stop
   id="stop43"
   stop-color="#000000"
   offset="0.239216"
   style="stop-color:#222;stop-opacity:1;" />
    <stop
   id="stop45"
   stop-color="#7D7D7D"
   offset="0.341176"
   style="stop-color:#5a5a5a;stop-opacity:1;" />
    <stop
   id="stop47"
   stop-color="#000000"
   offset="0.51196098" />
    <stop
   id="stop49"
   stop-color="#000000"
   offset="1" />
    <stop
   id="stop51"
   stop-color="#000000"
   offset="1" />
   </radialGradient>
   <radialGradient
   fy="1106.72"
   fx="2001.04"
   r="893.09998"
   cy="1106.72"
   cx="2001.04"
   gradientUnits="userSpaceOnUse"
   id="id4"
   gradientTransform="matrix(1.241975,3.676859e-2,-3.999755e-2,1.351079,-439.9381,-462.1222)">
    <stop
   id="stop54"
   stop-color="#000000"
   offset="0" />
    <stop
   id="stop56"
   stop-color="#2C2C2C"
   offset="0.25097999"
   style="stop-color:#343434;stop-opacity:1;" />
    <stop
   id="stop58"
   stop-color="#7D7D7D"
   offset="0.40000001"
   style="stop-color:#5a5a5a;stop-opacity:1;" />
    <stop
   id="stop60"
   stop-color="#1F1F1F"
   offset="0.670588" />
    <stop
   id="stop62"
   stop-color="#000000"
   offset="1" />
    <stop
   id="stop64"
   stop-color="#000000"
   offset="1" />
   </radialGradient>
   <linearGradient
   y2="7958.3"
   x2="1692.8"
   y1="7958.3"
   x1="1143.66"
   gradientUnits="userSpaceOnUse"
   id="id5">
    <stop
   id="stop67"
   stop-color="#000000"
   offset="0" />
    <stop
   id="stop69"
   stop-color="#7D7D7D"
   offset="0.76862699"
   style="stop-color:#5a5a5a;stop-opacity:1;" />
    <stop
   id="stop71"
   stop-color="#3C3C3C"
   offset="1" />
    <stop
   id="stop73"
   stop-color="#3C3C3C"
   offset="1" />
   </linearGradient>
   <radialGradient
   fy="14780.4"
   fx="7497.48"
   r="1306.56"
   cy="14780.4"
   cx="7497.48"
   gradientUnits="userSpaceOnUse"
   id="id6"
   gradientTransform="matrix(2.091091,0.111281,-0.10712,2.012916,-6597.138,-15805.62)">
    <stop
   id="stop76"
   stop-color="#000000"
   offset="0" />
    <stop
   id="stop78"
   stop-color="#000000"
   offset="0.239216"
   style="stop-color:#222;stop-opacity:1;" />
    <stop
   id="stop80"
   stop-color="#7D7D7D"
   offset="0.341176"
   style="stop-color:#5a5a5a;stop-opacity:1;" />
    <stop
   id="stop82"
   stop-color="#000000"
   offset="0.51196098" />
    <stop
   id="stop84"
   stop-color="#000000"
   offset="1" />
    <stop
   id="stop86"
   stop-color="#000000"
   offset="1" />
   </radialGradient>
   <radialGradient
   fy="1106.72"
   fx="7998.9199"
   r="893.1"
   cy="1106.72"
   cx="7998.9199"
   gradientUnits="userSpaceOnUse"
   id="id7"
   gradientTransform="matrix(1.220986,-7.514309e-2,8.364683e-2,1.359163,-1860.227,203.572)">
    <stop
   id="stop89"
   stop-color="#000000"
   offset="0" />
    <stop
   id="stop91"
   stop-color="#2C2C2C"
   offset="0.25097999"
   style="stop-color:#343434;stop-opacity:1;" />
    <stop
   id="stop93"
   stop-color="#7D7D7D"
   offset="0.40000001"
   style="stop-color:#5a5a5a;stop-opacity:1;" />
    <stop
   id="stop95"
   stop-color="#1F1F1F"
   offset="0.670588" />
    <stop
   id="stop97"
   stop-color="#000000"
   offset="1" />
    <stop
   id="stop99"
   stop-color="#000000"
   offset="1" />
   </radialGradient>
   <linearGradient
   y2="761.81"
   x2="5000"
   y1="162.77"
   x1="5000"
   gradientUnits="userSpaceOnUse"
   id="id8">
    <stop
   id="stop102"
   stop-color="#000000"
   offset="0" />
    <stop
   id="stop104"
   stop-color="#7D7D7D"
   offset="0.76862699"
   style="stop-color:#5a5a5a;stop-opacity:1;" />
    <stop
   id="stop106"
   stop-color="#3C3C3C"
   offset="1" />
    <stop
   id="stop108"
   stop-color="#3C3C3C"
   offset="1" />
   </linearGradient>
   <linearGradient
   y2="7958.3"
   x2="8307.2"
   y1="7958.3"
   x1="8856.3"
   gradientUnits="userSpaceOnUse"
   id="id9">
    <stop
   id="stop111"
   stop-color="#000000"
   offset="0" />
    <stop
   id="stop113"
   stop-color="#7D7D7D"
   offset="0.76862699"
   style="stop-color:#5a5a5a;stop-opacity:1;" />
    <stop
   id="stop115"
   stop-color="#3C3C3C"
   offset="1" />
    <stop
   id="stop117"
   stop-color="#3C3C3C"
   offset="1" />
   </linearGradient>
   <linearGradient
   y2="15538.2"
   x2="5000"
   y1="16137.2"
   x1="5000"
   gradientUnits="userSpaceOnUse"
   id="id10">
    <stop
   id="stop120"
   stop-color="#000000"
   offset="0" />
    <stop
   id="stop122"
   stop-color="#7D7D7D"
   offset="0.76862699"
   style="stop-color:#5a5a5a;stop-opacity:1;" />
    <stop
   id="stop124"
   stop-color="#3C3C3C"
   offset="1" />
    <stop
   id="stop126"
   stop-color="#3C3C3C"
   offset="1" />
   </linearGradient>
   <linearGradient
   y2="6768.92"
   x2="-64.68"
   y1="9531.02"
   x1="10064.7"
   gradientUnits="userSpaceOnUse"
   id="id11">
    <stop
   id="stop129"
   stop-color="#484A4C"
   offset="0" />
    <stop
   id="stop131"
   stop-color="#252425"
   offset="0.509804" />
    <stop
   id="stop133"
   stop-color="#494747"
   offset="1" />
    <stop
   id="stop135"
   stop-color="#494747"
   offset="1" />
   </linearGradient>
   <linearGradient
   y2="13252.3"
   x2="7388.89"
   y1="11038.4"
   x1="2611.11"
   gradientUnits="userSpaceOnUse"
   id="id12">
    <stop
   id="stop138"
   stop-color="#8AC9E4"
   offset="0" />
    <stop
   id="stop140"
   stop-color="#008DCD"
   offset="0.360784" />
    <stop
   id="stop142"
   stop-color="#54B6C6"
   offset="1" />
    <stop
   id="stop144"
   stop-color="#54B6C6"
   offset="1" />
   </linearGradient>
   <linearGradient
   y2="13701.3"
   x2="8286.1"
   y1="10588.7"
   x1="1713.88"
   gradientUnits="userSpaceOnUse"
   id="id13">
    <stop
   id="stop147"
   stop-color="#4A4B4C"
   offset="0" />
    <stop
   id="stop149"
   stop-color="#252425"
   offset="0.360784" />
    <stop
   id="stop151"
   stop-color="#5A5C5D"
   offset="1" />
    <stop
   id="stop153"
   stop-color="#5A5C5D"
   offset="1" />
   </linearGradient>
   <linearGradient
   y2="13258.6"
   x2="7386.86"
   y1="11031.9"
   x1="2613.12"
   gradientUnits="userSpaceOnUse"
   id="id14">
    <stop
   id="stop156"
   stop-color="#5FA8BA"
   offset="0" />
    <stop
   id="stop158"
   stop-color="#2091B7"
   offset="0.360784" />
    <stop
   id="stop160"
   stop-color="#49A5B4"
   offset="1" />
    <stop
   id="stop162"
   stop-color="#49A5B4"
   offset="1" />
   </linearGradient>
   <radialGradient
   fy="14736.4"
   fx="2687.59"
   r="298.39"
   cy="14736.4"
   cx="2687.59"
   gradientUnits="userSpaceOnUse"
   id="id15">
    <stop
   id="stop165"
   stop-color="#474B4D"
   offset="0" />
    <stop
   id="stop167"
   stop-color="#1B1D1E"
   offset="1" />
    <stop
   id="stop169"
   stop-color="#1B1D1E"
   offset="1" />
   </radialGradient>
  </defs>
  
  
  
  
  
  
  
  
  
  
  
  
  
  
  
  
  
  
  
  
  
  
  
  
  
  
  
  
  
  
  
  
  
  
  
  
  
  
  
  
  
  
 <linearGradient
   inkscape:collect="always"
   xlink:href="#id0"
   id="linearGradient12258"
   gradientUnits="userSpaceOnUse"
   x1="1073.64"
   y1="4650.4"
   x2="1145.34"
   y2="4650.4" /><linearGradient
   inkscape:collect="always"
   xlink:href="#id1"
   id="linearGradient12260"
   gradientUnits="userSpaceOnUse"
   x1="1708.64"
   y1="4015.4"
   x2="1780.34"
   y2="4015.4" /><linearGradient
   inkscape:collect="always"
   xlink:href="#id2"
   id="linearGradient12262"
   gradientUnits="userSpaceOnUse"
   x1="5397.62"
   y1="60.74"
   x2="5397.62"
   y2="159.96" /><radialGradient
   inkscape:collect="always"
   xlink:href="#id3"
   id="radialGradient12264"
   gradientUnits="userSpaceOnUse"
   gradientTransform="matrix(2.095066,7.868034e-2,-7.543729e-2,2.008706,-1625.391,-15105.98)"
   cx="2502.49"
   cy="14780.4"
   fx="2502.49"
   fy="14780.4"
   r="1306.57" /><radialGradient
   inkscape:collect="always"
   xlink:href="#id4"
   id="radialGradient12266"
   gradientUnits="userSpaceOnUse"
   gradientTransform="matrix(1.241975,3.676859e-2,-3.999755e-2,1.351079,-439.9381,-462.1222)"
   cx="2001.04"
   cy="1106.72"
   fx="2001.04"
   fy="1106.72"
   r="893.09998" /><linearGradient
   inkscape:collect="always"
   xlink:href="#id5"
   id="linearGradient12268"
   gradientUnits="userSpaceOnUse"
   x1="1143.66"
   y1="7958.3"
   x2="1692.8"
   y2="7958.3" /><linearGradient
   inkscape:collect="always"
   xlink:href="#id0"
   id="linearGradient3035"
   gradientUnits="userSpaceOnUse"
   x1="1073.64"
   y1="4650.4"
   x2="1145.34"
   y2="4650.4" />
  <defs
   id="defs2989">
   <linearGradient
   y2="19883.4"
   x2="12632.3"
   y1="17907.199"
   x1="8367.7305"
   gradientUnits="userSpaceOnUse"
   id="linearGradient3022">
    <stop
   id="stop2992"
   stop-color="#8AC9E4"
   offset="0" />
    <stop
   id="stop2994"
   stop-color="#008DCD"
   offset="0.360784" />
    <stop
   id="stop2996"
   stop-color="#54B6C6"
   offset="1" />
    <stop
   id="stop2998"
   stop-color="#54B6C6"
   offset="1" />
   </linearGradient>
  </defs>
  
  
  
 <linearGradient
   inkscape:collect="always"
   xlink:href="#id0"
   id="linearGradient3050"
   gradientUnits="userSpaceOnUse"
   x1="1073.64"
   y1="4650.4"
   x2="1145.34"
   y2="4650.4"
   gradientTransform="translate(-5500.014,-6750.005)" /></defs><sodipodi:namedview
   inkscape:window-height="722"
   inkscape:window-width="1152"
   inkscape:pageshadow="2"
   inkscape:pageopacity="0.0"
   guidetolerance="10.0"
   gridtolerance="10.0"
   objecttolerance="10.0"
   borderopacity="1.0"
   bordercolor="#666666"
   pagecolor="#ffffff"
   id="base"
   inkscape:zoom="0.658532"
   inkscape:cx="273.54922"
   inkscape:cy="275.85132"
   inkscape:window-x="0"
   inkscape:window-y="25"
   inkscape:current-layer="layer1" />
 <path
   style="fill:url(#id0);stroke:#bdbdbd;stroke-width:15;stroke-linecap:round;stroke-linejoin:round"
   id="path171"
   d="M 1145.34,3318.6 L 1073.64,3358.6 L 1073.64,5942.24 L 1145.34,5982.2 L 1145.34,3318.6 z " /><path
   style="fill:url(#id1);stroke:#616161;stroke-width:20;stroke-linecap:round;stroke-linejoin:round"
   id="path173"
   d="M 1780.34,2683.6 L 1708.64,2723.6 L 1708.64,5307.24 L 1780.34,5347.2 L 1780.34,2683.6 z " /><path
   style="fill:none;stroke:#bdbdbd;stroke-width:30;stroke-linecap:round;stroke-linejoin:round"
   id="path175"
   d="M 6302.18,127.77 L 7990.12,127.77 C 8485.79,127.77 8891.33,502.01 8891.33,959.43 L 8891.33,14955.53 C 8891.33,15624.7 8298.03,16172.21 7572.9,16172.21 L 2427.06,16172.21 C 1701.93,16172.21 1108.63,15624.71 1108.63,14955.53 L 1108.64,6038.27 M 1108.64,3282.36 L 1108.63,959.47 C 1108.63,502.05 1514.17,127.81 2009.84,127.81 L 4291.12,127.81" /><path
   style="fill:#b5b5b5"
   id="path177"
   d="M 5743.66,53.24 L 5743.84,53.24 L 5823.84,53.24 L 5823.84,68.24 C 5810.98,68.24 5799.44,74.07 5791.74,83.21 C 5790.18,85.06 5788.8,86.98 5787.68,88.89 C 5786.52,90.86 5785.48,93.02 5784.62,95.28 L 5784.6,95.27 L 5784.56,95.38 C 5783.71,97.65 5779.98,100.27 5777.56,100.27 L 5697.56,100.27 C 5692.5,100.27 5688.78,94.87 5690.56,90.13 C 5695.64,76.64 5705.71,65.58 5718.47,59.21 C 5720.92,57.99 5723.53,56.91 5726.25,56.03 L 5726.27,56.03 C 5731.77,54.25 5737.64,53.26 5743.66,53.24 L 5743.66,53.24 L 5743.66,53.24 z " /><path
   style="fill:#b5b5b5"
   id="path179"
   d="M 5543.66,53.24 L 5543.84,53.24 L 5623.84,53.24 L 5623.84,68.24 C 5610.98,68.24 5599.44,74.07 5591.74,83.21 C 5590.18,85.06 5588.8,86.98 5587.68,88.89 C 5586.52,90.86 5585.48,93.02 5584.62,95.28 L 5584.6,95.27 L 5584.56,95.38 C 5583.71,97.65 5579.98,100.27 5577.56,100.27 L 5497.56,100.27 C 5492.5,100.27 5488.78,94.87 5490.56,90.13 C 5495.64,76.64 5505.71,65.58 5518.47,59.21 C 5520.92,57.99 5523.53,56.91 5526.25,56.03 L 5526.27,56.03 C 5531.77,54.25 5537.64,53.26 5543.66,53.24 L 5543.66,53.24 L 5543.66,53.24 z " /><path
   style="fill:#b5b5b5"
   id="path181"
   d="M 5343.66,53.24 L 5343.84,53.24 L 5423.84,53.24 L 5423.84,68.24 C 5410.98,68.24 5399.44,74.07 5391.74,83.21 C 5390.18,85.06 5388.8,86.98 5387.68,88.89 C 5386.52,90.86 5385.48,93.02 5384.62,95.28 L 5384.6,95.27 L 5384.56,95.38 C 5383.71,97.65 5379.98,100.27 5377.56,100.27 L 5297.56,100.27 C 5292.5,100.27 5288.78,94.87 5290.56,90.13 C 5295.64,76.64 5305.71,65.58 5318.47,59.21 C 5320.92,57.99 5323.53,56.91 5326.25,56.03 L 5326.27,56.03 C 5331.77,54.25 5337.64,53.26 5343.66,53.24 L 5343.66,53.24 L 5343.66,53.24 z " /><path
   style="fill:#b5b5b5"
   id="path183"
   d="M 5143.66,53.24 L 5143.84,53.24 L 5223.84,53.24 L 5223.84,68.24 C 5210.98,68.24 5199.44,74.07 5191.74,83.21 C 5190.18,85.06 5188.8,86.98 5187.68,88.89 C 5186.52,90.86 5185.48,93.02 5184.62,95.28 L 5184.6,95.27 L 5184.56,95.38 C 5183.71,97.65 5179.98,100.27 5177.56,100.27 L 5097.56,100.27 C 5092.5,100.27 5088.78,94.87 5090.56,90.13 C 5095.64,76.64 5105.71,65.58 5118.47,59.21 C 5120.92,57.99 5123.53,56.91 5126.25,56.03 L 5126.27,56.03 C 5131.77,54.25 5137.64,53.26 5143.66,53.24 L 5143.66,53.24 L 5143.66,53.24 z " /><path
   style="fill:url(#id2);stroke:#bdbdbd;stroke-width:15;stroke-linecap:round;stroke-linejoin:round"
   id="path185"
   d="M 5870.13,92.77 L 6145.75,92.77 L 6145.75,159.95 L 4649.5,159.95 L 4649.5,92.77 L 5177.56,92.77 C 5184.62,74.06 5202.69,60.74 5223.84,60.74 C 5245,60.74 5263.06,74.06 5270.13,92.77 L 5377.56,92.77 C 5384.62,74.06 5402.69,60.74 5423.84,60.74 C 5445,60.74 5463.06,74.06 5470.13,92.77 L 5577.56,92.77 C 5584.62,74.06 5602.69,60.74 5623.84,60.74 C 5645,60.74 5663.06,74.06 5670.13,92.77 L 5777.56,92.77 C 5784.62,74.06 5802.69,60.74 5823.84,60.74 C 5845,60.74 5863.06,74.06 5870.13,92.77 L 5870.13,92.77 L 5870.13,92.77 z " /><path
   style="fill:#dedede;stroke:#595959;stroke-width:15"
   id="path187"
   d="M 8881.33,14947 C 8881.33,15615.26 8289.56,16162.16 7566.31,16162.16 L 2433.71,16162.16 C 1710.45,16162.16 1118.64,15615.34 1118.64,14947 L 1118.64,968.4 C 1118.64,511.57 1523.14,137.77 2017.55,137.77 L 7982.43,137.77 C 8476.83,137.77 8881.33,511.57 8881.33,968.4 L 8881.33,14947 z " /><path
   style="fill:url(#id3)"
   id="path189"
   d="M 1143.66,14925.8 C 1143.66,15592.06 1731.62,16137.17 2450.23,16137.17 C 3168.84,16137.17 3756.8,15592.06 3756.8,14925.8 C 3756.8,14259.54 3168.84,13714.43 2450.23,13714.43 C 1731.62,13714.43 1143.66,14259.54 1143.66,14925.8 L 1143.66,14925.8 L 1143.66,14925.8 z " /><path
   style="fill:url(#id4);fill-opacity:1.0"
   id="path191"
   d="M 2929.86,990.8 C 2929.86,535.38 2527.97,162.77 2036.76,162.77 C 1545.55,162.77 1143.66,535.38 1143.66,990.8 C 1143.66,1446.22 1545.55,1818.83 2036.76,1818.83 C 2527.97,1818.83 2929.86,1446.22 2929.86,990.8 z " /><path
   style="fill:url(#id5)"
   id="path193"
   d="M 1692.8,1105 L 1143.66,990.8 L 1143.66,14925.8 L 1692.8,14791.8 L 1692.8,1105 L 1692.8,1105 L 1692.8,1105 z " /><path
   style="fill:url(#id6);fill-opacity:1.0"
   id="path195"
   d="M 6243.18,14925.8 C 6243.18,15592.05 6831.14,16137.17 7549.75,16137.17 C 8268.36,16137.17 8856.3,15592.05 8856.3,14925.8 C 8856.3,14259.55 8268.36,13714.43 7549.75,13714.43 C 6831.14,13714.43 6243.18,14259.55 6243.18,14925.8 L 6243.18,14925.8 L 6243.18,14925.8 z " /><path
   style="fill:url(#id7)"
   id="path197"
   d="M 7963.2,162.77 C 8454.41,162.77 8856.3,535.38 8856.3,990.8 C 8856.3,1446.22 8454.41,1818.83 7963.2,1818.83 C 7471.99,1818.83 7070.1,1446.22 7070.1,990.8 C 7070.1,535.38 7471.99,162.77 7963.2,162.77 L 7963.2,162.77 L 7963.2,162.77 z " /><path
   style="fill:#444243;stroke:#444243;stroke-width:17.60000038"
   id="path199"
   d="M 8307.21,14791.8 C 8307.21,15202.32 7971.32,15538.2 7560.8,15538.2 L 2439.13,15538.2 C 2028.61,15538.2 1692.8,15202.32 1692.8,14791.8 L 1692.8,1105 C 1692.8,916.26 1847.21,761.82 2035.99,761.82 L 7963.99,761.82 C 8152.73,761.82 8307.21,916.34 8307.21,1105 L 8307.21,14791.8 z " /><path
   style="fill:url(#id8)"
   id="path201"
   d="M 2036.76,162.77 L 7963.2,162.77 L 7964,761.8 L 2036,761.8 L 2036.76,162.77 L 2036.76,162.77 z " /><path
   style="fill:url(#id9)"
   id="path203"
   d="M 8856.3,990.8 L 8856.3,14925.8 L 8307.2,14791.8 L 8307.2,1128.3 L 8856.3,990.79 L 8856.3,990.8 L 8856.3,990.8 z " /><path
   style="fill:url(#id10)"
   id="path205"
   d="M 2439.16,15538.2 L 7560.84,15538.2 L 7549.75,16137.21 L 2450.23,16137.21 L 2439.16,15538.2 L 2439.16,15538.2 L 2439.16,15538.2 z " /><path
   style="fill:url(#id11);stroke:none"
   id="path207"
   d="M 8307.21,14791.8 C 8307.21,15202.32 7971.32,15538.2 7560.8,15538.2 L 2439.13,15538.2 C 2028.61,15538.2 1692.8,15202.32 1692.8,14791.8 L 1692.8,1105 C 1692.8,916.26 1847.21,761.82 2035.99,761.82 L 7963.99,761.82 C 8152.73,761.82 8307.21,916.34 8307.21,1105 L 8307.21,14791.8 z " /><path
   style="fill:#131516"
   id="path209"
   d="M 2570,14138.6 C 2840.15,14138.6 3059.24,14357.69 3059.24,14627.84 C 3059.24,14897.99 2840.15,15117.08 2570,15117.08 C 2299.85,15117.08 2080.76,14897.99 2080.76,14627.84 C 2080.76,14357.69 2299.85,14138.6 2570,14138.6 z " /><path
   style="fill:#131516"
   id="path211"
   d="M 2175.93,12145.3 C 2175.93,11525.95 2376.25,10950.62 2719.07,10473.38 C 2781.99,10388.18 2920.16,10355.64 3027.05,10438.76 L 3428.88,10878.62 C 3440.59,10888.89 3457.66,10907.85 3446.14,10923.26 C 3179.21,11280.55 3023.16,11675.42 3023.16,12145.3 C 3023.16,12615.18 3179.21,13010.05 3446.14,13367.34 C 3457.66,13382.75 3440.59,13401.71 3428.88,13411.98 L 3027.05,13851.84 C 2920.16,13934.96 2781.99,13902.42 2719.07,13817.22 C 2376.25,13339.98 2175.93,12764.65 2175.93,12145.3 z " /><path
   style="fill:#131516"
   id="path213"
   d="M 7824.07,12145.3 C 7824.07,12764.65 7623.75,13339.98 7280.93,13817.22 C 7218.01,13902.42 7079.84,13934.96 6972.95,13851.84 L 6571.12,13411.98 C 6559.41,13401.71 6542.34,13382.75 6553.86,13367.34 C 6820.79,13010.05 6976.84,12615.18 6976.84,12145.3 C 6976.84,11675.42 6820.79,11280.55 6553.86,10923.26 C 6542.34,10907.85 6559.41,10888.89 6571.12,10878.62 L 6972.95,10438.76 C 7079.84,10355.64 7218.01,10388.18 7280.93,10473.38 C 7623.75,10950.62 7824.07,11525.95 7824.07,12145.3 L 7824.07,12145.3 z " /><path
   style="fill:#131516"
   id="path215"
   d="M 5000,9321.18 C 5619.35,9321.18 6194.68,9521.5 6671.92,9864.32 C 6757.12,9927.24 6789.66,10065.41 6706.54,10172.3 L 6266.68,10574.13 C 6256.41,10585.84 6237.45,10602.91 6222.04,10591.39 C 5864.75,10324.46 5469.88,10168.41 5000,10168.41 C 4530.12,10168.41 4135.25,10324.46 3777.96,10591.39 C 3762.55,10602.91 3743.59,10585.84 3733.32,10574.13 L 3293.46,10172.3 C 3210.34,10065.41 3242.88,9927.24 3328.08,9864.32 C 3805.32,9521.5 4380.65,9321.18 5000,9321.18 z " /><path
   style="fill:#131516"
   id="path217"
   d="M 5000,14969.3 C 4380.65,14969.3 3805.32,14768.98 3328.08,14426.16 C 3242.88,14363.24 3210.34,14225.07 3293.46,14118.18 L 3733.32,13716.35 C 3743.59,13704.64 3762.55,13687.57 3777.96,13699.09 C 4135.25,13966.02 4530.12,14122.07 5000,14122.07 C 5469.88,14122.07 5864.75,13966.02 6222.04,13699.09 C 6237.45,13687.57 6256.41,13704.64 6266.68,13716.35 L 6706.54,14118.18 C 6789.66,14225.07 6757.12,14363.24 6671.92,14426.16 C 6194.68,14768.98 5619.35,14969.3 5000,14969.3 z " /><path
   style="fill:#131516"
   id="path219"
   d="M 5000,13778.8 C 5902.03,13778.8 6633.55,13047.28 6633.55,12145.25 C 6633.55,11243.22 5902.03,10511.7 5000,10511.7 C 4097.97,10511.7 3366.45,11243.22 3366.45,12145.25 C 3366.45,13047.28 4097.97,13778.8 5000,13778.8 z " /><path
   style="fill:url(#id12);stroke:#5fb2bf;stroke-width:7.61999989"
   id="path221"
   d="M 5000,14122.2 C 6091.6,14122.2 6976.85,13236.95 6976.85,12145.35 C 6976.85,11053.75 6091.6,10168.5 5000,10168.5 C 3908.4,10168.5 3023.15,11053.75 3023.15,12145.35 C 3023.15,13236.95 3908.4,14122.2 5000,14122.2 z " /><path
   style="fill:#131516;stroke:#5fb2bf;stroke-width:7.61999989"
   id="path223"
   d="M 5000,13698.1 C 5857.44,13698.1 6552.83,13002.71 6552.83,12145.27 C 6552.83,11287.83 5857.44,10592.44 5000,10592.44 C 4142.56,10592.44 3447.17,11287.83 3447.17,12145.27 C 3447.17,13002.71 4142.56,13698.1 5000,13698.1 z " /><path
   style="fill:url(#id13);stroke:#666;stroke-width:7.61999989"
   id="path225"
   d="M 4999.99,14870.3 C 4407.99,14870.3 3860.14,14681.3 3413.17,14360.52 C 3385.84,14331.81 3361.84,14279.41 3398.17,14229.3 L 3818.84,13789.52 C 3828.25,13779.52 3835.03,13775.18 3849.03,13785.11 C 4174.77,14014.11 4571.65,14148.7 4999.99,14148.7 C 5428.36,14148.7 5825.25,14014.11 6150.95,13785.11 C 6164.95,13775.18 6171.77,13779.52 6181.17,13789.52 L 6601.84,14229.3 C 6638.21,14279.41 6614.17,14331.81 6586.84,14360.52 C 6139.91,14681.3 5592.03,14870.3 4999.99,14870.3 z M 4999.99,9420.15 C 5592.03,9420.15 6139.91,9609.11 6586.84,9929.89 C 6614.17,9958.59 6638.21,10010.96 6601.84,10061.11 L 6181.17,10500.89 C 6171.77,10510.92 6164.95,10515.18 6150.95,10505.3 C 5825.25,10276.3 5428.36,10141.78 4999.99,10141.78 C 4571.65,10141.78 4174.77,10276.3 3849.03,10505.3 C 3835.03,10515.18 3828.25,10510.92 3818.84,10500.89 L 3398.17,10061.11 C 3361.84,10010.96 3385.84,9958.59 3413.17,9929.89 C 3860.14,9609.11 4407.99,9420.15 4999.99,9420.15 z M 7725.03,12145.18 C 7725.03,12737.18 7536.14,13285.11 7215.36,13732.04 C 7186.65,13759.33 7134.25,13783.37 7084.03,13747.04 L 6644.36,13326.33 C 6634.25,13316.96 6629.99,13310.18 6639.84,13296.11 C 6868.95,12970.41 7003.43,12573.55 7003.43,12145.18 C 7003.43,11716.89 6868.95,11319.96 6639.84,10994.3 C 6629.99,10980.22 6634.25,10973.37 6644.36,10964.11 L 7084.03,10543.37 C 7134.25,10506.96 7186.65,10531.11 7215.36,10558.37 C 7536.14,11005.3 7725.03,11553.18 7725.03,12145.18 L 7725.03,12145.18 L 7725.03,12145.18 z M 2274.95,12145.18 C 2274.95,11553.18 2463.91,11005.3 2784.73,10558.37 C 2813.36,10531.11 2865.77,10506.96 2915.95,10543.37 L 3355.65,10964.11 C 3365.77,10973.37 3369.99,10980.22 3360.17,10994.3 C 3131.03,11319.96 2996.54,11716.89 2996.54,12145.18 C 2996.54,12573.55 3131.03,12970.41 3360.17,13296.11 C 3369.99,13310.18 3365.77,13316.96 3355.65,13326.33 L 2915.95,13747.04 C 2865.77,13783.37 2813.36,13759.33 2784.73,13732.04 C 2463.91,13285.11 2274.95,12737.18 2274.95,12145.18 L 2274.95,12145.18 L 2274.95,12145.18 z M 4999.99,13632.52 C 5821.25,13632.52 6487.25,12966.52 6487.25,12145.18 C 6487.25,11323.96 5821.25,10657.96 4999.99,10657.96 C 4178.77,10657.96 3512.77,11323.96 3512.77,12145.18 C 3512.77,12966.52 4178.77,13632.52 4999.99,13632.52 z " /><path
   style="fill:#d6dee8;stroke:#575757;stroke-width:50;stroke-linejoin:bevel"
   id="path227"
   d="M 7663.25,1551.91 C 7663.25,1444.17 7575.25,1355.98 7467.65,1355.98 L 2532.36,1355.98 C 2424.84,1355.98 2336.84,1444.17 2336.84,1551.91 L 2336.84,7777.13 C 2336.84,7884.91 2424.84,7972.98 2532.36,7972.98 L 7467.65,7972.98 C 7575.25,7972.98 7663.25,7884.91 7663.25,7777.13 L 7663.25,1551.91 L 7663.25,1551.91 L 7663.25,1551.91 z " /><path
   style="fill:url(#id14);stroke:#5fb2bf;stroke-width:7.61999989"
   id="path229"
   d="M 4964.65,10592.4 L 5035.36,10592.4 L 5035.36,10168.73 L 4964.65,10168.73 L 4964.65,10592.4 z M 5035.36,13698.07 L 4964.65,13698.07 L 4964.65,14121.77 L 5035.36,14121.77 L 5035.36,13698.07 z M 3447.17,12180.55 L 3447.17,12109.92 L 3023.43,12109.92 L 3023.43,12180.55 L 3447.17,12180.55 L 3447.17,12180.55 z M 6552.84,12109.92 L 6552.84,12180.55 L 6976.54,12180.55 L 6976.54,12109.92 L 6552.84,12109.92 z M 3877.03,11072.21 L 3926.95,11022.21 L 3627.36,10722.62 L 3577.4,10772.62 L 3877.03,11072.21 z M 6122.99,13218.25 L 6073.03,13268.21 L 6372.65,13567.81 L 6422.62,13517.92 L 6122.99,13218.25 z M 6073.03,11022.21 L 6122.99,11072.21 L 6422.62,10772.62 L 6372.65,10722.62 L 6073.03,11022.21 z M 3926.95,13268.21 L 3877.03,13218.25 L 3577.4,13517.92 L 3627.36,13567.81 L 3926.95,13268.21 z M 4802.54,10604.62 L 4872.84,10597.21 L 4828.54,10175.81 L 4758.25,10183.21 L 4802.54,10604.62 z M 5197.43,13685.84 L 5127.21,13693.21 L 5171.43,14114.62 L 5241.77,14107.21 L 5197.43,13685.84 z M 3459.36,12342.66 L 3451.95,12272.4 L 3030.62,12316.73 L 3037.95,12386.95 L 3459.36,12342.66 L 3459.36,12342.66 L 3459.36,12342.66 z M 6540.65,11947.81 L 6548.03,12017.99 L 6969.4,11973.73 L 6962.03,11903.55 L 6540.65,11947.81 z M 3770.99,11195.4 L 3815.43,11140.55 L 3486.17,10873.92 L 3441.77,10928.81 L 3770.99,11195.4 z M 6228.99,13094.99 L 6184.54,13149.92 L 6513.84,13416.58 L 6558.32,13361.66 L 6228.99,13094.99 z M 5949.77,10916.21 L 6004.65,10960.73 L 6271.36,10631.4 L 6216.43,10586.92 L 5949.77,10916.21 L 5949.77,10916.21 z M 4050.25,13374.21 L 3995.36,13329.81 L 3728.65,13659.07 L 3783.54,13703.55 L 4050.25,13374.21 z M 5127.21,10597.21 L 5197.43,10604.62 L 5241.77,10183.21 L 5171.43,10175.81 L 5127.21,10597.21 z M 4872.84,13693.21 L 4802.54,13685.84 L 4758.25,14107.21 L 4828.54,14114.62 L 4872.84,13693.21 z M 3451.95,12017.99 L 3459.36,11947.81 L 3037.95,11903.55 L 3030.62,11973.73 L 3451.95,12017.99 z M 6548.03,12272.4 L 6540.65,12342.66 L 6962.03,12386.95 L 6969.4,12316.73 L 6548.03,12272.4 L 6548.03,12272.4 L 6548.03,12272.4 z M 3995.36,10960.73 L 4050.25,10916.21 L 3783.54,10586.92 L 3728.65,10631.4 L 3995.36,10960.73 L 3995.36,10960.73 L 3995.36,10960.73 z M 6004.65,13329.81 L 5949.77,13374.21 L 6216.43,13703.55 L 6271.36,13659.07 L 6004.65,13329.81 z M 6184.54,11140.55 L 6228.99,11195.4 L 6558.32,10928.81 L 6513.84,10873.92 L 6184.54,11140.55 z M 3815.43,13149.92 L 3770.99,13094.99 L 3441.77,13361.66 L 3486.17,13416.58 L 3815.43,13149.92 L 3815.43,13149.92 L 3815.43,13149.92 z " /><path
   style="fill:url(#id15);stroke:#666;stroke-width:7.61999989"
   id="path231"
   d="M 2569.99,14175.8 C 2819.65,14175.8 3022.14,14378.2 3022.14,14627.91 C 3022.14,14877.54 2819.65,15079.98 2569.99,15079.98 C 2320.36,15079.98 2117.95,14877.54 2117.95,14627.91 C 2117.95,14378.2 2320.36,14175.8 2569.99,14175.8 z " /><path
   style="fill:white"
   id="path233"
   d="M 5330.62,14310.6 L 4669.43,14310.6 L 4669.43,14374.31 L 5330.62,14374.31 L 5330.62,14310.6 L 5330.62,14310.6 z M 5330.62,14421.97 L 5000.03,14421.97 L 5000.03,14485.6 L 5330.62,14485.6 L 5330.62,14421.97 z M 5330.62,14533.31 L 5000.03,14533.31 L 5000.03,14596.97 L 5330.62,14596.97 L 5330.62,14533.31 z M 5330.62,14644.71 L 5000.03,14644.71 L 5000.03,14708.31 L 5330.62,14708.31 L 5330.62,14644.71 z " /><path
   style="fill:white"
   id="path235"
   d="M 2407.99,12042.6 L 2407.99,12247.71 L 2458.54,12247.71 L 2458.54,12042.6 L 2407.99,12042.6 z M 2682.91,12100.71 L 2682.91,12042.6 L 2509.03,12126.64 L 2509.03,12163.71 L 2682.91,12247.71 L 2682.91,12189.64 L 2590.91,12145.19 L 2682.91,12100.71 z M 2863.43,12100.71 L 2863.43,12042.6 L 2689.65,12126.64 L 2689.65,12163.71 L 2863.43,12247.71 L 2863.43,12189.64 L 2771.43,12145.19 L 2863.43,12100.71 z " /><path
   style="fill:white"
   id="path237"
   d="M 7592.03,12247.7 L 7592.03,12042.59 L 7541.54,12042.59 L 7541.54,12247.7 L 7592.03,12247.7 z M 7317.17,12189.63 L 7317.17,12247.7 L 7490.95,12163.7 L 7490.95,12126.63 L 7317.17,12042.59 L 7317.17,12100.7 L 7409.17,12145.18 L 7317.17,12189.63 z M 7136.54,12189.63 L 7136.54,12247.7 L 7310.4,12163.7 L 7310.4,12126.63 L 7136.54,12042.59 L 7136.54,12100.7 L 7228.54,12145.18 L 7136.54,12189.63 z " /><path
   style="fill:white"
   id="path239"
   d="M 5108.4,9678.39 L 5108.4,9883.54 L 5057.84,9883.54 L 5057.84,9678.39 L 5108.4,9678.39 z M 4811.77,9736.54 L 4811.77,9678.39 L 4985.54,9762.43 L 4985.54,9799.54 L 4811.77,9883.54 L 4811.77,9825.43 L 4903.77,9780.98 L 4811.77,9736.54 L 4811.77,9736.54 z M 5188.36,9678.39 L 5188.36,9883.54 L 5137.77,9883.54 L 5137.77,9678.39 L 5188.36,9678.39 z " /><path
   style="fill:white"
   id="path241"
   d="M 2570.03,14792.2 C 2660.36,14792.2 2734.43,14718.13 2734.43,14627.8 C 2734.43,14579.76 2714.17,14537.17 2681.84,14507.61 C 2644.95,14473.8 2690.84,14420.2 2731.17,14458.61 C 2775.84,14501.2 2803.77,14561.32 2803.77,14627.8 C 2803.77,14756.83 2699.03,14861.54 2570.03,14861.54 C 2440.99,14861.54 2336.36,14756.83 2336.36,14627.8 C 2336.36,14561.32 2364.21,14501.2 2408.91,14458.61 C 2449.25,14420.2 2495.17,14473.8 2458.21,14507.61 C 2425.91,14537.17 2405.65,14579.76 2405.65,14627.8 C 2405.65,14718.13 2479.77,14792.2 2570.03,14792.2 L 2570.03,14792.2 z M 2560.03,14360.8 L 2580.03,14360.8 C 2595.17,14360.8 2607.43,14373.2 2607.43,14388.32 L 2607.43,14688.39 C 2607.43,14703.54 2595.17,14715.8 2580.03,14715.8 L 2560.03,14715.8 C 2544.95,14715.8 2532.54,14703.54 2532.54,14688.39 L 2532.54,14388.32 C 2532.54,14373.2 2544.95,14360.8 2560.03,14360.8 z " /><g
   id="g243">
   <path
   style="fill:white"
   id="path245"
   d="M 4820.36,8678.13 L 4759.36,8678.13 L 4759.36,8708.57 C 4733.84,8689.39 4727.03,8678.13 4667.77,8678.13 C 4608.43,8678.13 4515.17,8746.39 4515.17,8830.72 C 4515.17,8914.91 4608.43,8983.32 4667.77,8983.32 C 4727.03,8983.32 4733.84,8971.91 4759.36,8952.76 L 4759.36,8983.32 L 4820.36,8983.32 L 4820.36,8678.13 z " />
   <path
   style="fill:#252425"
   id="path247"
   d="M 4667.77,8739.13 C 4718.36,8739.13 4759.36,8780.13 4759.36,8830.72 C 4759.36,8881.2 4718.36,8922.2 4667.77,8922.2 C 4617.25,8922.2 4576.25,8881.2 4576.25,8830.72 C 4576.25,8780.13 4617.25,8739.13 4667.77,8739.13 z " />
   <path
   style="fill:white"
   id="path249"
   d="M 4866.84,8678.13 L 4927.91,8678.13 L 4927.91,8708.57 C 4953.4,8689.39 4960.17,8678.13 5019.43,8678.13 C 5078.77,8678.13 5172.03,8746.39 5172.03,8830.72 L 5172.03,8983.32 L 5111.03,8983.32 L 5111.03,8830.72 C 5111.03,8780.13 5070.03,8739.13 5019.43,8739.13 C 4968.91,8739.13 4927.91,8780.13 4927.91,8830.72 L 4927.91,8983.32 L 4866.84,8983.32 L 4866.84,8678.13 z " />
   <path
   style="fill:white"
   id="path251"
   d="M 4270.99,8678.13 L 4454.17,8678.13 L 4454.17,8739.13 L 4270.99,8739.13 C 4254.17,8739.13 4240.43,8752.8 4240.43,8769.61 C 4240.43,8786.54 4254.17,8800.17 4270.99,8800.17 L 4393.03,8800.17 C 4443.65,8800.17 4484.65,8841.17 4484.65,8891.72 C 4484.65,8942.32 4443.65,8983.32 4393.03,8983.32 L 4209.95,8983.32 L 4209.95,8922.2 L 4393.03,8922.2 C 4409.95,8922.2 4423.62,8908.61 4423.62,8891.72 C 4423.62,8874.83 4409.95,8861.2 4393.03,8861.2 L 4270.99,8861.2 C 4220.43,8861.2 4179.43,8820.2 4179.43,8769.61 C 4179.43,8719.13 4220.43,8678.13 4270.99,8678.13 L 4270.99,8678.13 L 4270.99,8678.13 z " />
   <path
   style="fill:white"
   id="path253"
   d="M 5285.84,8678.13 L 5468.95,8678.13 L 5468.95,8739.13 L 5285.84,8739.13 C 5268.95,8739.13 5255.36,8752.8 5255.36,8769.61 C 5255.36,8786.54 5268.95,8800.17 5285.84,8800.17 L 5407.95,8800.17 C 5458.43,8800.17 5499.43,8841.17 5499.43,8891.72 C 5499.43,8942.32 5458.43,8983.32 5407.95,8983.32 L 5224.8,8983.32 L 5224.8,8922.2 L 5407.95,8922.2 C 5424.77,8922.2 5438.43,8908.61 5438.43,8891.72 C 5438.43,8874.83 5424.77,8861.2 5407.95,8861.2 L 5285.84,8861.2 C 5235.25,8861.2 5194.25,8820.2 5194.25,8769.61 C 5194.25,8719.13 5235.25,8678.13 5285.84,8678.13 L 5285.84,8678.13 L 5285.84,8678.13 z " />
   <path
   style="fill:white"
   id="path255"
   d="M 5820.65,8678.13 L 5759.62,8678.13 L 5759.62,8708.57 C 5734.03,8689.39 5727.36,8678.13 5668.03,8678.13 C 5608.77,8678.13 5515.43,8746.39 5515.43,8830.72 C 5515.43,8914.91 5608.77,8983.32 5668.03,8983.32 C 5727.36,8983.32 5734.03,8971.91 5759.62,8952.76 L 5759.62,8983.32 L 5820.65,8983.32 L 5820.65,8678.13 z " />
   <path
   style="fill:#2b2b2c"
   id="path257"
   d="M 5668.03,8739.13 C 5718.62,8739.13 5759.62,8780.13 5759.62,8830.72 C 5759.62,8881.2 5718.62,8922.2 5668.03,8922.2 C 5617.43,8922.2 5576.43,8881.2 5576.43,8830.72 C 5576.43,8780.13 5617.43,8739.13 5668.03,8739.13 z " />
   <path
   style="fill:white"
   id="path259"
   d="M 5857.36,8680.32 L 5857.36,8610.39 L 5832.4,8610.39 L 5832.4,8596.13 L 5899.25,8596.13 L 5899.25,8610.39 L 5874.36,8610.39 L 5874.36,8680.32 L 5857.36,8680.32 z " />
   <path
   style="fill:white"
   id="path261"
   d="M 5905.91,8680.32 L 5905.91,8596.13 L 5931.36,8596.13 L 5946.62,8653.54 L 5961.65,8596.13 L 5987.17,8596.13 L 5987.17,8680.32 L 5971.4,8680.32 L 5971.4,8613.98 L 5954.65,8680.32 L 5938.36,8680.32 L 5921.65,8613.98 L 5921.65,8680.32 L 5905.91,8680.32 z " />
  </g><g
   id="g263">
   <defs
   id="defs265">
    <linearGradient
   y2="3416.01"
   x2="7021.3599"
   y1="3040.01"
   x1="7021.3599"
   gradientUnits="userSpaceOnUse"
   id="id16">
     <stop
   id="stop268"
   stop-color="#EFB000"
   offset="0" />
     <stop
   id="stop270"
   stop-color="#A5732B"
   offset="0.6" />
     <stop
   id="stop272"
   stop-color="#492A28"
   offset="1" />
     <stop
   id="stop274"
   stop-color="#492A28"
   offset="1" />
    </linearGradient>
   </defs>
   <path
   style="fill:#131516"
   id="path276"
   d="M 2361.84,3669.98 L 7638.25,3669.98 L 7638.25,2105.54 L 2361.84,2105.54 L 2361.84,3669.98 z " />
   <path
   style="fill:white"
   id="path278"
   d="M 2695.51,3579.39 C 2695.51,3557.39 2676.91,3539.61 2653.95,3539.61 C 2630.99,3539.61 2612.4,3557.39 2612.4,3579.39 C 2612.4,3601.39 2630.99,3619.2 2653.95,3619.2 C 2676.91,3619.2 2695.51,3601.39 2695.51,3579.39 z M 2826.03,3546.13 C 2842.77,3535.2 2864.95,3538.32 2877.99,3553.32 C 2891.14,3568.32 2891.14,3590.72 2877.99,3605.72 C 2864.95,3620.72 2842.77,3623.8 2826.03,3612.91 L 2826.03,3645.91 L 2803.99,3645.91 L 2803.99,3541.54 L 2826.03,3541.54 L 2826.03,3546.13 L 2826.03,3546.13 L 2826.03,3546.13 z M 3077.36,3579.39 C 3077.36,3557.39 3058.73,3539.61 3035.77,3539.61 C 3012.84,3539.61 2994.25,3557.39 2994.25,3579.39 C 2994.25,3601.39 3012.84,3619.2 3035.77,3619.2 C 3047.62,3619.2 3058.25,3614.54 3065.84,3606.91 L 3049.95,3592.32 L 3065.84,3606.91 L 3049.95,3592.32 C 3045.84,3596.39 3040.03,3598.57 3034.17,3598.13 C 3028.25,3597.61 3022.95,3594.61 3019.62,3589.91 L 3075.84,3589.91 C 3076.84,3586.61 3077.36,3583.06 3077.36,3579.39 L 3077.36,3579.39 L 3077.36,3579.39 z M 4457.43,3579.39 C 4457.43,3557.39 4438.84,3539.61 4415.91,3539.61 C 4392.95,3539.61 4374.36,3557.39 4374.36,3579.39 C 4374.36,3601.39 4392.95,3619.2 4415.91,3619.2 C 4427.77,3619.2 4438.4,3614.54 4445.95,3606.91 L 4430.03,3592.32 L 4445.95,3606.91 L 4430.03,3592.32 C 4425.99,3596.39 4420.21,3598.57 4414.32,3598.13 C 4408.43,3597.61 4403.03,3594.61 4399.77,3589.91 L 4455.95,3589.91 C 4456.95,3586.61 4457.43,3583.06 4457.43,3579.39 L 4457.43,3579.39 L 4457.43,3579.39 z M 5278.73,3579.39 C 5278.73,3557.39 5260.14,3539.61 5237.17,3539.61 C 5214.21,3539.61 5195.62,3557.39 5195.62,3579.39 C 5195.62,3601.39 5214.21,3619.2 5237.17,3619.2 C 5248.95,3619.2 5259.65,3614.54 5267.25,3606.91 L 5251.36,3592.32 L 5267.25,3606.91 L 5251.36,3592.32 C 5247.25,3596.39 5241.43,3598.57 5235.54,3598.13 C 5229.65,3597.61 5224.32,3594.61 5220.95,3589.91 L 5277.25,3589.91 C 5278.21,3586.61 5278.73,3583.06 5278.73,3579.39 L 5278.73,3579.39 L 5278.73,3579.39 z M 7377.54,3579.39 C 7377.54,3557.39 7358.95,3539.61 7336.03,3539.61 C 7313.03,3539.61 7294.43,3557.39 7294.43,3579.39 C 7294.43,3601.39 7313.03,3619.2 7336.03,3619.2 C 7347.84,3619.2 7358.54,3614.54 7366.14,3606.91 L 7350.21,3592.32 L 7366.14,3606.91 L 7350.21,3592.32 C 7346.14,3596.39 7340.36,3598.57 7334.43,3598.13 C 7328.54,3597.61 7323.17,3594.61 7319.84,3589.91 L 7376.14,3589.91 C 7377.03,3586.61 7377.54,3583.06 7377.54,3579.39 L 7377.54,3579.39 L 7377.54,3579.39 z M 3257.43,3573.54 C 3257.43,3560.76 3250.99,3549.13 3240.73,3543.32 C 3230.4,3537.54 3218.03,3538.61 3208.73,3546.13 L 3208.73,3541.54 L 3186.73,3541.54 L 3186.73,3617.54 L 3208.73,3617.54 L 3208.73,3573.54 C 3208.73,3566.39 3214.73,3560.72 3222.14,3560.72 C 3229.43,3560.72 3235.43,3566.39 3235.43,3573.54 L 3235.43,3617.54 L 3257.43,3617.54 L 3257.43,3573.54 z M 3575.77,3563.65 C 3575.77,3553.61 3567.8,3544.61 3555.84,3541.13 C 3543.95,3537.61 3530.54,3540.39 3522.25,3548.13 C 3514.03,3555.76 3512.77,3566.72 3518.95,3575.54 C 3522.17,3579.72 3526.65,3582.8 3531.77,3584.39 C 3537.65,3586.24 3543.65,3587.8 3549.65,3588.91 C 3554.65,3589.91 3557.25,3592.2 3555.8,3594.54 C 3554.36,3596.76 3549.25,3598.2 3543.95,3597.91 C 3538.54,3597.57 3534.62,3595.61 3534.62,3593.2 L 3534.62,3590.98 L 3512.62,3590.98 L 3512.62,3593.2 C 3512.62,3604.39 3521.51,3614.35 3534.77,3617.98 C 3547.99,3621.61 3562.65,3618.13 3571.25,3609.32 C 3579.84,3600.54 3580.54,3588.32 3572.84,3578.91 C 3568.43,3573.94 3562.36,3570.65 3555.62,3569.57 C 3550.25,3568.61 3545.03,3567.39 3539.84,3565.91 C 3536.95,3564.98 3536.25,3563.54 3537.99,3562.32 C 3539.8,3561.06 3543.65,3560.39 3547.4,3560.76 C 3551.17,3561.13 3553.77,3562.32 3553.77,3563.65 L 3553.77,3564.72 L 3575.77,3564.72 L 3575.77,3563.65 L 3575.77,3563.65 L 3575.77,3563.65 z M 3767.17,3579.39 C 3767.17,3557.39 3748.54,3539.61 3725.65,3539.61 C 3702.65,3539.61 3684.03,3557.39 3684.03,3579.39 C 3684.03,3601.39 3702.65,3619.2 3725.65,3619.2 C 3748.54,3619.2 3767.17,3601.39 3767.17,3579.39 z M 3876.17,3585.54 L 3876.17,3541.54 L 3898.17,3541.54 L 3898.17,3585.54 C 3898.17,3592.61 3904.17,3598.32 3911.54,3598.32 C 3918.95,3598.32 3924.95,3592.61 3924.95,3585.54 L 3924.95,3541.54 L 3946.95,3541.54 L 3946.95,3617.54 L 3924.95,3617.54 L 3924.95,3612.91 C 3915.62,3620.39 3903.25,3621.54 3892.95,3615.72 C 3882.65,3609.91 3876.17,3598.32 3876.17,3585.54 L 3876.17,3585.54 L 3876.17,3585.54 z M 4079.77,3546.13 L 4079.77,3541.54 L 4057.77,3541.54 L 4057.77,3617.54 L 4079.77,3617.54 L 4079.77,3579.39 C 4079.77,3574.39 4081.84,3569.72 4085.51,3566.17 C 4089.17,3562.61 4094.17,3560.72 4099.36,3560.72 L 4099.36,3539.72 C 4092.36,3540.13 4085.65,3542.32 4079.77,3546.13 z M 4273.43,3551.91 C 4265.84,3544.32 4255.17,3539.61 4243.36,3539.61 C 4220.4,3539.61 4201.8,3557.39 4201.8,3579.39 C 4201.8,3579.39 4201.8,3579.39 4201.8,3579.39 C 4201.8,3601.39 4220.4,3619.2 4243.36,3619.2 C 4255.17,3619.2 4265.84,3614.43 4273.43,3606.83 L 4257.54,3592.32 C 4253.95,3595.91 4248.95,3598.13 4243.36,3598.13 C 4232.54,3598.13 4223.8,3589.72 4223.8,3579.39 C 4223.8,3579.39 4223.8,3579.39 4223.8,3579.39 C 4223.8,3569.06 4232.54,3560.72 4243.36,3560.72 C 4248.95,3560.72 4253.95,3562.91 4257.54,3566.43 L 4273.43,3551.91 z M 6820.77,3579.35 L 6809.43,3541.54 L 6789.77,3541.54 L 6778.43,3579.35 L 6767.14,3541.54 L 6744.25,3541.54 L 6766.99,3617.54 L 6789.84,3617.54 L 6799.62,3585.06 L 6809.36,3617.54 L 6832.21,3617.54 L 6854.99,3541.54 L 6832.17,3541.54 L 6820.77,3579.35 M 6262.17,3516.8 L 6240.14,3516.8 L 6240.14,3537.91 L 6262.17,3537.91 L 6262.17,3516.8 M 6262.17,3541.54 L 6240.14,3541.54 L 6240.14,3617.54 L 6262.17,3617.54 L 6262.17,3541.54 M 5806.03,3579.54 L 5830.54,3617.54 L 5804.65,3617.54 L 5793.14,3599.61 L 5781.54,3617.54 L 5755.65,3617.54 L 5780.17,3579.54 L 5755.62,3541.54 L 5781.54,3541.54 L 5793.14,3559.54 L 5804.65,3541.54 L 5830.62,3541.54 L 5806.03,3579.54 M 5068.84,3541.54 L 5048.65,3572.8 L 5048.65,3516.8 L 5026.65,3516.8 L 5026.65,3617.54 L 5048.65,3617.54 L 5048.65,3585.8 L 5073.43,3617.54 L 5100.95,3617.54 L 5070.65,3578.8 L 5094.77,3541.54 L 5068.84,3541.54 M 4733.54,3516.8 L 4711.54,3516.8 L 4711.54,3537.91 L 4733.54,3537.91 L 4733.54,3516.8 M 4733.54,3621.2 L 4733.54,3541.54 L 4711.54,3541.54 L 4711.54,3621.2 C 4711.54,3623.2 4709.84,3624.8 4707.77,3624.8 L 4701.43,3624.8 L 4701.43,3645.91 L 4707.77,3645.91 C 4721.95,3645.91 4733.54,3634.8 4733.54,3621.2 M 5660.25,3579.39 C 5660.25,3557.39 5641.65,3539.61 5618.77,3539.61 C 5595.77,3539.61 5577.17,3557.39 5577.17,3579.39 C 5577.17,3601.39 5595.77,3619.2 5618.77,3619.2 C 5641.65,3619.2 5660.25,3601.39 5660.25,3579.39 z M 4893.84,3612.91 L 4893.84,3617.54 L 4915.84,3617.54 L 4915.84,3541.54 L 4893.84,3541.54 L 4893.84,3585.54 C 4893.84,3592.61 4887.84,3598.32 4880.43,3598.32 C 4873.03,3598.32 4867.03,3592.61 4867.03,3585.54 L 4867.03,3541.54 L 4845.03,3541.54 L 4845.03,3585.54 C 4845.03,3598.32 4851.54,3609.91 4861.84,3615.72 C 4872.17,3621.54 4884.54,3620.39 4893.84,3612.91 L 4893.84,3612.91 L 4893.84,3612.91 z M 5408.8,3546.13 L 5408.8,3516.8 L 5386.77,3516.8 L 5386.77,3617.54 L 5408.8,3617.54 L 5408.8,3612.91 C 5425.51,3623.8 5447.65,3620.72 5460.77,3605.72 C 5473.84,3590.72 5473.84,3568.32 5460.77,3553.32 C 5447.65,3538.32 5425.51,3535.2 5408.8,3546.13 L 5408.8,3546.13 L 5408.8,3546.13 z M 6130.99,3537.91 L 6112.77,3537.91 C 6112.25,3537.8 6111.77,3537.98 6111.43,3538.35 C 6111.03,3538.72 6110.91,3539.13 6110.95,3539.61 L 6110.95,3541.54 L 6110.95,3541.54 L 6120.95,3541.54 L 6120.95,3562.61 L 6110.95,3562.61 L 6110.95,3617.54 L 6088.95,3617.54 L 6088.95,3562.61 L 6078.91,3562.61 L 6078.91,3541.54 L 6088.95,3541.54 C 6088.95,3527.91 6100.43,3516.8 6114.77,3516.8 L 6130.99,3516.8 L 6130.99,3537.91 L 6130.99,3537.91 L 6130.99,3537.91 z M 6414.84,3539.72 L 6414.84,3560.72 C 6409.65,3560.72 6404.73,3562.61 6401.03,3566.17 C 6397.36,3569.72 6395.36,3574.39 6395.36,3579.39 L 6395.36,3617.54 L 6373.32,3617.54 L 6373.32,3541.54 L 6395.36,3541.54 L 6395.36,3546.13 C 6401.17,3542.32 6407.91,3540.13 6414.84,3539.72 L 6414.84,3539.72 L 6414.84,3539.72 z M 6543.91,3546.13 L 6543.91,3541.54 L 6521.84,3541.54 L 6521.84,3617.54 L 6543.91,3617.54 L 6543.91,3573.54 C 6543.91,3566.39 6549.84,3560.72 6557.25,3560.72 C 6564.65,3560.72 6570.65,3566.39 6570.65,3573.54 L 6570.65,3617.54 L 6592.65,3617.54 L 6592.65,3573.54 C 6592.65,3566.39 6598.65,3560.72 6606.03,3560.72 C 6613.43,3560.72 6619.43,3566.39 6619.43,3573.54 L 6619.43,3617.54 L 6641.43,3617.54 L 6641.43,3573.54 C 6641.43,3560.13 6633.25,3547.98 6620.51,3542.54 C 6607.77,3537.13 6592.84,3539.32 6582.43,3548.24 C 6571.65,3537.61 6555.62,3536.72 6543.91,3546.13 L 6543.91,3546.13 L 6543.91,3546.13 z M 7014.77,3546.13 L 7014.77,3541.54 L 7036.77,3541.54 L 7036.77,3617.54 L 7014.77,3617.54 L 7014.77,3612.91 C 6998.03,3623.8 6975.84,3620.72 6962.77,3605.72 C 6949.65,3590.72 6949.65,3568.32 6962.77,3553.32 C 6975.84,3538.32 6998.03,3535.2 7014.77,3546.13 L 7014.77,3546.13 L 7014.77,3546.13 z M 7192.21,3539.72 L 7192.21,3560.72 C 7187.03,3560.72 7182.03,3562.61 7178.36,3566.17 C 7174.73,3569.72 7172.65,3574.39 7172.65,3579.39 L 7172.65,3617.54 L 7150.65,3617.54 L 7150.65,3541.54 L 7172.65,3541.54 L 7172.65,3546.13 C 7178.43,3542.32 7185.25,3540.13 7192.21,3539.72 z " />
   <path
   style="fill:#131516"
   id="path280"
   d="M 2673.51,3579.39 C 2673.51,3569.06 2664.77,3560.72 2653.95,3560.72 C 2643.17,3560.72 2634.36,3569.06 2634.36,3579.39 C 2634.36,3589.76 2643.17,3598.17 2653.95,3598.17 C 2664.77,3598.17 2673.51,3589.76 2673.51,3579.39 z M 5220.95,3568.91 L 5253.36,3568.91 C 5249.73,3563.72 5243.65,3560.72 5237.17,3560.72 C 5230.65,3560.72 5224.62,3563.72 5220.95,3568.91 M 4399.77,3568.91 L 4432.14,3568.91 C 4428.43,3563.72 4422.4,3560.72 4415.95,3560.72 C 4409.43,3560.72 4403.36,3563.72 4399.77,3568.91 M 3745.17,3579.39 C 3745.17,3569.06 3736.43,3560.72 3725.65,3560.72 C 3714.84,3560.72 3706.03,3569.06 3706.03,3579.39 C 3706.03,3589.76 3714.84,3598.17 3725.65,3598.17 C 3736.43,3598.17 3745.17,3589.76 3745.17,3579.39 z M 5638.25,3579.39 C 5638.25,3569.06 5629.54,3560.72 5618.77,3560.72 C 5607.91,3560.72 5599.17,3569.06 5599.17,3579.39 C 5599.17,3589.76 5607.91,3598.17 5618.77,3598.17 C 5629.54,3598.17 5638.25,3589.76 5638.25,3579.39 z M 5447.95,3579.39 C 5447.95,3569.06 5439.17,3560.72 5428.36,3560.72 C 5417.54,3560.72 5408.77,3569.06 5408.77,3579.39 C 5408.77,3589.76 5417.54,3598.17 5428.36,3598.17 C 5439.17,3598.17 5447.95,3589.76 5447.95,3579.39 z M 2865.17,3579.61 C 2865.17,3569.24 2856.4,3560.91 2845.54,3560.91 C 2834.77,3560.91 2826.03,3569.24 2826.03,3579.61 C 2826.03,3589.94 2834.77,3598.32 2845.54,3598.32 C 2856.4,3598.32 2865.17,3589.94 2865.17,3579.61 z M 3019.62,3568.91 L 3051.95,3568.91 C 3048.36,3563.72 3042.25,3560.72 3035.77,3560.72 C 3029.32,3560.72 3023.25,3563.72 3019.62,3568.91 M 7319.84,3568.91 L 7352.25,3568.91 C 7348.54,3563.72 7342.54,3560.72 7336.03,3560.72 C 7329.54,3560.72 7323.51,3563.72 7319.84,3568.91 M 7014.77,3579.39 C 7014.77,3569.06 7005.99,3560.72 6995.21,3560.72 C 6984.4,3560.72 6975.65,3569.06 6975.65,3579.39 C 6975.65,3589.76 6984.4,3598.17 6995.21,3598.17 C 7005.99,3598.17 7014.77,3589.76 7014.77,3579.39 z " />
   <path
   style="fill:#efaf04"
   id="path282"
   d="M 2393.03,2142.06 L 7601.8,2142.06 L 7601.8,3470.91 L 2393.03,3470.91 L 2393.03,2142.06 L 2393.03,2142.06 L 2393.03,2142.06 z " />
   <path
   style="fill:url(#id16)"
   id="path284"
   d="M 6486.77,3391.06 L 6486.77,3391.06 M 7587.77,3172.72 L 7601.77,3172.72 L 7601.77,3180.32 L 7595.77,3180.32 L 7595.77,3210.76 L 7587.77,3210.76 L 7587.77,3172.72 M 7548.03,3172.72 L 7571.84,3172.72 L 7571.84,3180.32 L 7548.03,3180.32 L 7548.03,3172.72 M 7548.03,3203.17 L 7571.84,3203.17 L 7571.84,3210.76 L 7548.03,3210.76 L 7548.03,3203.17 M 7492.43,3172.72 L 7492.43,3172.72 L 7492.43,3172.72 L 7492.43,3172.72 L 7492.43,3172.72 M 7508.36,3180.32 L 7516.25,3180.32 L 7516.25,3210.76 L 7508.36,3210.76 L 7508.36,3180.32 M 7516.25,3172.72 L 7524.25,3172.72 L 7524.25,3180.32 L 7516.25,3180.32 L 7516.25,3172.72 M 7524.25,3180.32 L 7532.17,3180.32 L 7532.17,3210.76 L 7524.25,3210.76 L 7524.25,3180.32 M 7492.43,3172.72 L 7508.36,3172.72 L 7508.36,3180.32 L 7500.36,3180.32 L 7500.36,3210.76 L 7492.43,3210.76 L 7492.43,3172.72 M 7476.54,3165.13 L 7484.51,3165.13 L 7484.51,3180.32 L 7476.54,3180.32 L 7476.54,3165.13 M 7476.54,3187.91 L 7484.51,3187.91 L 7484.51,3203.17 L 7476.54,3203.17 L 7476.54,3187.91 M 7412.99,3172.72 L 7420.95,3172.72 L 7420.95,3187.91 L 7412.99,3187.91 L 7412.99,3172.72 M 7356.17,3172.72 L 7364.03,3172.72 L 7364.03,3180.32 L 7356.17,3180.32 L 7356.17,3172.72 M 7332.32,3187.91 L 7340.25,3187.91 L 7340.25,3203.17 L 7332.32,3203.17 L 7332.32,3187.91 M 7301.77,3203.17 L 7332.32,3203.17 L 7332.32,3210.76 L 7301.77,3210.76 L 7301.77,3203.17 M 7269.95,3180.32 L 7277.91,3180.32 L 7277.91,3187.91 L 7269.95,3187.91 L 7269.95,3180.32 M 7262.03,3157.54 L 7285.84,3157.54 L 7285.84,3165.13 L 7262.03,3165.13 L 7262.03,3157.54 M 7262.03,3203.17 L 7285.84,3203.17 L 7285.84,3210.76 L 7262.03,3210.76 L 7262.03,3203.17 M 7222.32,3157.54 L 7238.17,3157.54 L 7238.17,3165.13 L 7222.32,3165.13 L 7222.32,3157.54 M 7214.36,3165.13 L 7222.32,3165.13 L 7222.32,3172.72 L 7214.36,3172.72 L 7214.36,3165.13 M 7238.17,3187.91 L 7246.17,3187.91 L 7246.17,3203.17 L 7238.17,3203.17 L 7238.17,3187.91 M 7452.77,3089.83 L 7484.51,3089.83 L 7484.51,3097.54 L 7452.77,3097.54 L 7452.77,3089.83 M 7444.77,3097.54 L 7452.77,3097.54 L 7452.77,3105.13 L 7444.77,3105.13 L 7444.77,3097.54 M 7452.77,3105.13 L 7476.54,3105.13 L 7476.54,3112.72 L 7452.77,3112.72 L 7452.77,3105.13 M 7476.54,3112.72 L 7484.51,3112.72 L 7484.51,3120.32 L 7476.54,3120.32 L 7476.54,3112.72 M 7444.77,3120.32 L 7476.54,3120.32 L 7476.54,3127.91 L 7444.77,3127.91 L 7444.77,3120.32 M 7492.43,3089.83 L 7500.36,3089.83 L 7500.36,3120.32 L 7492.43,3120.32 L 7492.43,3089.83 M 7500.36,3135.54 L 7524.25,3135.54 L 7524.25,3143.13 L 7500.36,3143.13 L 7500.36,3135.54 M 7540.14,3120.32 L 7571.84,3120.32 L 7571.84,3127.91 L 7540.14,3127.91 L 7540.14,3120.32 M 7571.84,3112.72 L 7579.84,3112.72 L 7579.84,3120.32 L 7571.84,3120.32 L 7571.84,3112.72 M 7548.03,3105.13 L 7571.84,3105.13 L 7571.84,3112.72 L 7548.03,3112.72 L 7548.03,3105.13 M 7540.14,3097.54 L 7548.03,3097.54 L 7548.03,3105.13 L 7540.14,3105.13 L 7540.14,3097.54 M 7548.03,3089.83 L 7579.84,3089.83 L 7579.84,3097.54 L 7548.03,3097.54 L 7548.03,3089.83 M 7452.77,3255.61 L 7484.51,3255.61 L 7484.51,3263.2 L 7452.77,3263.2 L 7452.77,3255.61 M 7444.77,3263.2 L 7452.77,3263.2 L 7452.77,3270.8 L 7444.77,3270.8 L 7444.77,3263.2 M 7452.77,3270.8 L 7476.54,3270.8 L 7476.54,3278.39 L 7452.77,3278.39 L 7452.77,3270.8 M 7476.54,3278.39 L 7484.51,3278.39 L 7484.51,3285.98 L 7476.54,3285.98 L 7476.54,3278.39 M 7444.77,3285.98 L 7476.54,3285.98 L 7476.54,3293.61 L 7444.77,3293.61 L 7444.77,3285.98 M 7253.84,3285.98 L 7285.65,3285.98 L 7285.65,3293.61 L 7253.84,3293.61 L 7253.84,3285.98 M 7285.65,3278.39 L 7293.54,3278.39 L 7293.54,3285.98 L 7285.65,3285.98 L 7285.65,3278.39 M 7261.77,3270.8 L 7285.65,3270.8 L 7285.65,3278.39 L 7261.77,3278.39 L 7261.77,3270.8 M 7253.84,3263.2 L 7261.77,3263.2 L 7261.77,3270.8 L 7253.84,3270.8 L 7253.84,3263.2 M 7261.77,3255.61 L 7293.54,3255.61 L 7293.54,3263.2 L 7261.77,3263.2 L 7261.77,3255.61 M 7023.03,3338.39 L 7054.8,3338.39 L 7054.8,3346.06 L 7023.03,3346.06 L 7023.03,3338.39 M 7015.14,3346.06 L 7023.03,3346.06 L 7023.03,3353.65 L 7015.14,3353.65 L 7015.14,3346.06 M 7023.03,3353.65 L 7046.84,3353.65 L 7046.84,3361.24 L 7023.03,3361.24 L 7023.03,3353.65 M 7046.84,3361.24 L 7054.8,3361.24 L 7054.8,3368.91 L 7046.84,3368.91 L 7046.84,3361.24 M 7015.14,3368.91 L 7046.84,3368.91 L 7046.84,3376.54 L 7015.14,3376.54 L 7015.14,3368.91 M 6487.4,3368.91 L 6519.17,3368.91 L 6519.17,3376.54 L 6487.4,3376.54 L 6487.4,3368.91 M 6519.17,3361.24 L 6527.14,3361.24 L 6527.14,3368.91 L 6519.17,3368.91 L 6519.17,3361.24 M 6495.36,3353.65 L 6519.17,3353.65 L 6519.17,3361.24 L 6495.36,3361.24 L 6495.36,3353.65 M 6487.4,3346.06 L 6495.36,3346.06 L 6495.36,3353.65 L 6487.4,3353.65 L 6487.4,3346.06 M 6495.36,3338.39 L 6527.14,3338.39 L 6527.14,3346.06 L 6495.36,3346.06 L 6495.36,3338.39 M 7349.43,3338.39 L 7365.36,3338.39 L 7365.36,3346.06 L 7357.4,3346.06 L 7357.4,3376.54 L 7349.43,3376.54 L 7349.43,3338.39 M 7381.25,3346.06 L 7389.17,3346.06 L 7389.17,3376.54 L 7381.25,3376.54 L 7381.25,3346.06 M 7373.32,3338.39 L 7381.25,3338.39 L 7381.25,3346.06 L 7373.32,3346.06 L 7373.32,3338.39 M 7365.36,3346.06 L 7373.32,3346.06 L 7373.32,3376.54 L 7365.36,3376.54 L 7365.36,3346.06 M 7349.43,3338.39 L 7349.43,3338.39 L 7349.43,3338.39 L 7349.43,3338.39 L 7349.43,3338.39 M 6584.03,3338.39 L 6584.03,3338.39 L 6584.03,3338.39 L 6584.03,3338.39 L 6584.03,3338.39 M 6599.91,3346.06 L 6607.84,3346.06 L 6607.84,3376.54 L 6599.91,3376.54 L 6599.91,3346.06 M 6607.84,3338.39 L 6615.77,3338.39 L 6615.77,3346.06 L 6607.84,3346.06 L 6607.84,3338.39 M 6615.77,3346.06 L 6623.77,3346.06 L 6623.77,3376.54 L 6615.77,3376.54 L 6615.77,3346.06 M 6584.03,3338.39 L 6599.91,3338.39 L 6599.91,3346.06 L 6591.95,3346.06 L 6591.95,3376.54 L 6584.03,3376.54 L 6584.03,3338.39 M 7524.25,3120.32 L 7524.25,3089.83 L 7532.17,3089.83 L 7532.17,3135.54 L 7524.25,3135.54 L 7524.25,3127.91 L 7500.36,3127.91 L 7500.36,3120.32 L 7524.25,3120.32 M 6902.8,3367.72 L 6902.8,3337.32 L 6910.77,3337.32 L 6910.77,3382.91 L 6902.8,3382.91 L 6902.8,3375.32 L 6878.95,3375.32 L 6878.95,3367.72 L 6902.8,3367.72 M 6878.95,3382.91 L 6902.8,3382.91 L 6902.8,3390.54 L 6878.95,3390.54 L 6878.95,3382.91 M 6871.03,3337.32 L 6878.95,3337.32 L 6878.95,3367.72 L 6871.03,3367.72 L 6871.03,3337.32 M 7540.14,3180.32 L 7548.03,3180.32 L 7548.03,3187.91 L 7571.84,3187.91 L 7571.84,3180.32 L 7579.84,3180.32 L 7579.84,3195.54 L 7548.03,3195.54 L 7548.03,3203.17 L 7540.14,3203.17 L 7540.14,3180.32 M 7397.17,3263.2 L 7405.03,3263.2 L 7405.03,3270.8 L 7428.91,3270.8 L 7428.91,3263.2 L 7436.84,3263.2 L 7436.84,3278.39 L 7405.03,3278.39 L 7405.03,3285.98 L 7397.17,3285.98 L 7397.17,3263.2 M 7405.03,3285.98 L 7428.91,3285.98 L 7428.91,3293.61 L 7405.03,3293.61 L 7405.03,3285.98 M 7405.03,3255.61 L 7428.91,3255.61 L 7428.91,3263.2 L 7405.03,3263.2 L 7405.03,3255.61 M 7214.17,3255.61 L 7237.95,3255.61 L 7237.95,3263.2 L 7214.17,3263.2 L 7214.17,3255.61 M 7214.17,3285.98 L 7237.95,3285.98 L 7237.95,3293.61 L 7214.17,3293.61 L 7214.17,3285.98 M 7206.17,3263.2 L 7214.17,3263.2 L 7214.17,3270.8 L 7237.95,3270.8 L 7237.95,3263.2 L 7245.91,3263.2 L 7245.91,3278.39 L 7214.17,3278.39 L 7214.17,3285.98 L 7206.17,3285.98 L 7206.17,3263.2 M 7492.43,3346.06 L 7500.36,3346.06 L 7500.36,3353.65 L 7524.25,3353.65 L 7524.25,3346.06 L 7532.17,3346.06 L 7532.17,3361.24 L 7500.36,3361.24 L 7500.36,3368.91 L 7492.43,3368.91 L 7492.43,3346.06 M 7500.36,3368.91 L 7524.25,3368.91 L 7524.25,3376.54 L 7500.36,3376.54 L 7500.36,3368.91 M 7500.36,3338.39 L 7524.25,3338.39 L 7524.25,3346.06 L 7500.36,3346.06 L 7500.36,3338.39 M 7595.77,3338.39 L 7601.77,3338.39 L 7601.77,3346.06 L 7595.77,3346.06 L 7595.77,3338.39 M 7595.77,3368.91 L 7601.77,3368.91 L 7601.77,3376.54 L 7595.77,3376.54 L 7595.77,3368.91 M 7587.77,3346.06 L 7595.77,3346.06 L 7595.77,3353.65 L 7601.77,3353.65 L 7601.77,3353.65 L 7601.77,3353.65 L 7601.77,3361.24 L 7595.77,3361.24 L 7595.77,3368.91 L 7587.77,3368.91 L 7587.77,3346.06 M 6448.84,3338.39 L 6472.73,3338.39 L 6472.73,3346.06 L 6448.84,3346.06 L 6448.84,3338.39 M 6448.84,3368.91 L 6472.73,3368.91 L 6472.73,3376.54 L 6448.84,3376.54 L 6448.84,3368.91 M 6440.95,3346.06 L 6448.84,3346.06 L 6448.84,3353.65 L 6472.73,3353.65 L 6472.73,3346.06 L 6480.65,3346.06 L 6480.65,3361.24 L 6448.84,3361.24 L 6448.84,3368.91 L 6440.95,3368.91 L 6440.95,3346.06 M 6542.95,3361.24 L 6558.84,3361.24 L 6558.84,3375.32 L 6542.95,3375.32 L 6542.95,3361.24 M 7500.36,3255.61 L 7524.25,3255.61 L 7524.25,3263.2 L 7500.36,3263.2 L 7500.36,3255.61 M 7492.43,3263.2 L 7500.36,3263.2 L 7500.36,3285.98 L 7492.43,3285.98 L 7492.43,3263.2 M 7500.36,3285.98 L 7524.25,3285.98 L 7524.25,3293.61 L 7500.36,3293.61 L 7500.36,3285.98 M 7524.25,3278.39 L 7532.17,3278.39 L 7532.17,3285.98 L 7524.25,3285.98 L 7524.25,3278.39 M 7548.03,3255.61 L 7571.84,3255.61 L 7571.84,3263.2 L 7548.03,3263.2 L 7548.03,3255.61 M 7540.14,3278.39 L 7548.03,3278.39 L 7548.03,3285.98 L 7540.14,3285.98 L 7540.14,3278.39 M 6902.17,3278.39 L 6910.03,3278.39 L 6910.03,3285.98 L 6902.17,3285.98 L 6902.17,3278.39 M 6878.32,3285.98 L 6902.17,3285.98 L 6902.17,3293.61 L 6878.32,3293.61 L 6878.32,3285.98 M 6870.36,3263.2 L 6878.32,3263.2 L 6878.32,3285.98 L 6870.36,3285.98 L 6870.36,3263.2 M 6878.32,3255.61 L 6902.17,3255.61 L 6902.17,3263.2 L 6878.32,3263.2 L 6878.32,3255.61 M 7317.65,3240.35 L 7325.65,3240.35 L 7325.65,3247.94 L 7317.65,3247.94 L 7317.65,3240.35 M 7365.36,3270.8 L 7373.32,3270.8 L 7373.32,3278.39 L 7365.36,3278.39 L 7365.36,3270.8 M 7126.77,3255.61 L 7142.65,3255.61 L 7142.65,3263.2 L 7126.77,3263.2 L 7126.77,3255.61 M 7142.65,3263.2 L 7150.54,3263.2 L 7150.54,3293.61 L 7142.65,3293.61 L 7142.65,3263.2 M 6925.95,3255.61 L 6948.54,3255.61 L 6948.54,3263.2 L 6925.95,3263.2 L 6925.95,3255.61 M 6918.03,3263.2 L 6925.95,3263.2 L 6925.95,3285.98 L 6918.03,3285.98 L 6918.03,3263.2 M 6925.95,3285.98 L 6948.54,3285.98 L 6948.54,3293.61 L 6925.95,3293.61 L 6925.95,3285.98 M 6948.54,3263.2 L 6956.54,3263.2 L 6956.54,3285.98 L 6948.54,3285.98 L 6948.54,3263.2 M 7331.65,3346.06 L 7339.54,3346.06 L 7339.54,3368.91 L 7331.65,3368.91 L 7331.65,3346.06 M 7308.99,3368.91 L 7331.65,3368.91 L 7331.65,3376.54 L 7308.99,3376.54 L 7308.99,3368.91 M 7301.03,3346.06 L 7308.99,3346.06 L 7308.99,3368.91 L 7301.03,3368.91 L 7301.03,3346.06 M 7308.99,3338.39 L 7331.65,3338.39 L 7331.65,3346.06 L 7308.99,3346.06 L 7308.99,3338.39 M 7110.84,3255.61 L 7118.8,3255.61 L 7118.8,3263.2 L 7126.77,3263.2 L 7126.77,3270.8 L 7118.8,3270.8 L 7118.8,3293.61 L 7110.84,3293.61 L 7110.84,3255.61 M 7587.77,3255.61 L 7595.77,3255.61 L 7595.77,3263.2 L 7601.77,3263.2 L 7601.77,3270.8 L 7595.77,3270.8 L 7595.77,3293.61 L 7587.77,3293.61 L 7587.77,3255.61 M 7198.25,3293.61 L 7190.32,3293.61 L 7190.32,3285.98 L 7182.36,3285.98 L 7182.36,3278.39 L 7190.32,3278.39 L 7190.32,3255.61 L 7198.25,3255.61 L 7198.25,3293.61 M 7166.43,3285.98 L 7158.54,3285.98 L 7158.54,3255.61 L 7166.43,3255.61 L 7166.43,3285.98 M 7182.36,3293.61 L 7166.43,3293.61 L 7166.43,3285.98 L 7182.36,3285.98 L 7182.36,3293.61 M 6967.84,3255.61 L 6975.84,3255.61 L 6975.84,3263.2 L 6983.77,3263.2 L 6983.77,3270.8 L 6975.84,3270.8 L 6975.84,3293.61 L 6967.84,3293.61 L 6967.84,3255.61 M 6999.65,3263.2 L 7007.62,3263.2 L 7007.62,3293.61 L 6999.65,3293.61 L 6999.65,3263.2 M 6983.77,3255.61 L 6999.65,3255.61 L 6999.65,3263.2 L 6983.77,3263.2 L 6983.77,3255.61 M 7221.65,3338.39 L 7237.51,3338.39 L 7237.51,3346.06 L 7221.65,3346.06 L 7221.65,3338.39 M 7237.51,3346.06 L 7245.43,3346.06 L 7245.43,3376.54 L 7237.51,3376.54 L 7237.51,3346.06 M 7205.77,3338.39 L 7213.65,3338.39 L 7213.65,3346.06 L 7221.65,3346.06 L 7221.65,3353.65 L 7213.65,3353.65 L 7213.65,3376.54 L 7205.77,3376.54 L 7205.77,3338.39 M 7468.65,3376.54 L 7452.77,3376.54 L 7452.77,3368.91 L 7468.65,3368.91 L 7468.65,3376.54 M 7452.77,3368.91 L 7444.77,3368.91 L 7444.77,3338.39 L 7452.77,3338.39 L 7452.77,3368.91 M 7484.51,3376.54 L 7476.54,3376.54 L 7476.54,3368.91 L 7468.65,3368.91 L 7468.65,3361.24 L 7476.54,3361.24 L 7476.54,3338.39 L 7484.51,3338.39 L 7484.51,3376.54 M 7579.84,3376.54 L 7571.84,3376.54 L 7571.84,3368.91 L 7563.95,3368.91 L 7563.95,3361.24 L 7571.84,3361.24 L 7571.84,3338.39 L 7579.84,3338.39 L 7579.84,3376.54 M 7548.03,3368.91 L 7540.14,3368.91 L 7540.14,3338.39 L 7548.03,3338.39 L 7548.03,3368.91 M 7563.95,3376.54 L 7548.03,3376.54 L 7548.03,3368.91 L 7563.95,3368.91 L 7563.95,3376.54 M 7571.84,3263.2 L 7579.84,3263.2 L 7579.84,3293.61 L 7548.03,3293.61 L 7548.03,3285.98 L 7571.84,3285.98 L 7571.84,3278.39 L 7548.03,3278.39 L 7548.03,3270.8 L 7571.84,3270.8 L 7571.84,3263.2 M 7189.84,3346.06 L 7197.8,3346.06 L 7197.8,3376.54 L 7166.03,3376.54 L 7166.03,3368.91 L 7189.84,3368.91 L 7189.84,3361.24 L 7166.03,3361.24 L 7166.03,3353.65 L 7189.84,3353.65 L 7189.84,3346.06 M 7158.03,3361.24 L 7166.03,3361.24 L 7166.03,3368.91 L 7158.03,3368.91 L 7158.03,3361.24 M 7166.03,3338.39 L 7189.84,3338.39 L 7189.84,3346.06 L 7166.03,3346.06 L 7166.03,3338.39 M 6831.32,3338.39 L 6855.17,3338.39 L 6855.17,3346.06 L 6831.32,3346.06 L 6831.32,3338.39 M 6823.36,3361.24 L 6831.32,3361.24 L 6831.32,3368.91 L 6823.36,3368.91 L 6823.36,3361.24 M 6855.17,3346.06 L 6863.03,3346.06 L 6863.03,3376.54 L 6831.32,3376.54 L 6831.32,3368.91 L 6855.17,3368.91 L 6855.17,3361.24 L 6831.32,3361.24 L 6831.32,3353.65 L 6855.17,3353.65 L 6855.17,3346.06 M 7476.54,3157.54 L 7444.77,3157.54 L 7444.77,3210.76 L 7476.54,3210.76 L 7476.54,3203.17 L 7452.77,3203.17 L 7452.77,3187.91 L 7476.54,3187.91 L 7476.54,3180.32 L 7452.77,3180.32 L 7452.77,3165.13 L 7476.54,3165.13 L 7476.54,3157.54 M 7397.17,3157.54 L 7397.17,3210.76 L 7405.03,3210.76 L 7405.03,3172.72 L 7412.99,3172.72 L 7412.99,3165.13 L 7405.03,3165.13 L 7405.03,3157.54 L 7397.17,3157.54 M 7436.84,3157.54 L 7436.84,3210.76 L 7428.91,3210.76 L 7428.91,3172.72 L 7420.95,3172.72 L 7420.95,3165.13 L 7428.91,3165.13 L 7428.91,3157.54 L 7436.84,3157.54 M 7372.03,3157.54 L 7379.95,3157.54 L 7379.95,3187.91 L 7387.91,3187.91 L 7387.91,3195.54 L 7379.95,3195.54 L 7379.95,3210.76 L 7372.03,3210.76 L 7372.03,3195.54 L 7348.21,3195.54 L 7348.21,3180.32 L 7356.17,3180.32 L 7356.17,3187.91 L 7372.03,3187.91 L 7372.03,3172.72 L 7364.03,3172.72 L 7364.03,3165.13 L 7372.03,3165.13 L 7372.03,3157.54 M 7301.77,3157.54 L 7301.77,3165.13 L 7324.36,3165.13 L 7324.36,3172.72 L 7332.32,3172.72 L 7332.32,3165.13 L 7340.25,3165.13 L 7340.25,3157.54 L 7301.77,3157.54 M 7324.36,3172.72 L 7316.43,3172.72 L 7316.43,3180.32 L 7308.43,3180.32 L 7308.43,3187.91 L 7332.32,3187.91 L 7332.32,3180.32 L 7324.36,3180.32 L 7324.36,3172.72 M 7254.03,3165.13 L 7254.03,3203.17 L 7262.03,3203.17 L 7262.03,3195.54 L 7269.95,3195.54 L 7269.95,3187.91 L 7262.03,3187.91 L 7262.03,3165.13 L 7254.03,3165.13 M 7285.84,3165.13 L 7285.84,3172.72 L 7277.91,3172.72 L 7277.91,3180.32 L 7285.84,3180.32 L 7285.84,3203.17 L 7293.8,3203.17 L 7293.8,3165.13 L 7285.84,3165.13 M 7206.43,3172.72 L 7206.43,3203.17 L 7214.36,3203.17 L 7214.36,3187.91 L 7238.17,3187.91 L 7238.17,3180.32 L 7214.36,3180.32 L 7214.36,3172.72 L 7206.43,3172.72 M 7214.36,3203.17 L 7238.17,3203.17 L 7238.17,3210.76 L 7214.36,3210.76 L 7214.36,3203.17 M 6703.17,3338.39 L 6695.25,3338.39 L 6695.25,3346.06 L 6687.25,3346.06 L 6687.25,3353.65 L 6711.17,3353.65 L 6711.17,3346.06 L 6703.17,3346.06 L 6703.17,3338.39 M 6680.54,3323.2 L 6680.54,3330.8 L 6703.17,3330.8 L 6703.17,3338.39 L 6711.17,3338.39 L 6711.17,3330.8 L 6719.03,3330.8 L 6719.03,3323.2 L 6680.54,3323.2 M 6680.54,3368.91 L 6711.17,3368.91 L 6711.17,3376.54 L 6680.54,3376.54 L 6680.54,3368.91 M 6711.17,3353.65 L 6719.03,3353.65 L 6719.03,3368.91 L 6711.17,3368.91 L 6711.17,3353.65 M 7349.43,3255.61 L 7349.43,3263.2 L 7373.32,3263.2 L 7373.32,3270.8 L 7381.25,3270.8 L 7381.25,3263.2 L 7389.17,3263.2 L 7389.17,3255.61 L 7349.43,3255.61 M 7357.4,3278.39 L 7365.36,3278.39 L 7365.36,3285.98 L 7389.17,3285.98 L 7389.17,3293.61 L 7349.43,3293.61 L 7349.43,3285.98 L 7357.4,3285.98 L 7357.4,3278.39 M 7309.77,3255.61 L 7325.65,3255.61 L 7325.65,3285.98 L 7333.54,3285.98 L 7333.54,3293.61 L 7309.77,3293.61 L 7309.77,3285.98 L 7317.65,3285.98 L 7317.65,3263.2 L 7309.77,3263.2 L 7309.77,3255.61 M 7071.17,3255.61 L 7087.03,3255.61 L 7087.03,3285.98 L 7094.95,3285.98 L 7094.95,3293.61 L 7071.17,3293.61 L 7071.17,3285.98 L 7079.03,3285.98 L 7079.03,3263.2 L 7071.17,3263.2 L 7071.17,3255.61 M 7079.03,3240.35 L 7087.03,3240.35 L 7087.03,3247.94 L 7079.03,3247.94 L 7079.03,3240.35 M 6983.36,3323.2 L 6991.25,3323.2 L 6991.25,3330.8 L 6983.36,3330.8 L 6983.36,3323.2 M 6975.36,3338.39 L 6991.25,3338.39 L 6991.25,3368.91 L 6999.21,3368.91 L 6999.21,3376.54 L 6975.36,3376.54 L 6975.36,3368.91 L 6983.36,3368.91 L 6983.36,3346.06 L 6975.36,3346.06 L 6975.36,3338.39 M 7047.36,3278.39 L 7055.25,3278.39 L 7055.25,3285.98 L 7047.36,3285.98 L 7047.36,3278.39 M 7039.36,3285.98 L 7047.36,3285.98 L 7047.36,3293.61 L 7039.36,3293.61 L 7039.36,3285.98 M 7031.43,3240.35 L 7039.36,3240.35 L 7039.36,3255.61 L 7047.36,3255.61 L 7047.36,3263.2 L 7039.36,3263.2 L 7039.36,3285.98 L 7031.43,3285.98 L 7031.43,3263.2 L 7023.43,3263.2 L 7023.43,3255.61 L 7031.43,3255.61 L 7031.43,3240.35 M 7078.65,3323.2 L 7086.54,3323.2 L 7086.54,3338.39 L 7094.54,3338.39 L 7094.54,3346.06 L 7086.54,3346.06 L 7086.54,3368.91 L 7078.65,3368.91 L 7078.65,3346.06 L 7070.65,3346.06 L 7070.65,3338.39 L 7078.65,3338.39 L 7078.65,3323.2 M 7086.54,3368.91 L 7094.54,3368.91 L 7094.54,3376.54 L 7086.54,3376.54 L 7086.54,3368.91 M 7094.54,3361.24 L 7102.43,3361.24 L 7102.43,3368.91 L 7094.54,3368.91 L 7094.54,3361.24 M 7110.4,3338.39 L 7118.36,3338.39 L 7118.36,3346.06 L 7126.32,3346.06 L 7126.32,3353.65 L 7118.36,3353.65 L 7118.36,3376.54 L 7110.4,3376.54 L 7110.4,3338.39 M 7142.17,3346.06 L 7150.17,3346.06 L 7150.17,3354.8 L 7142.17,3354.8 L 7142.17,3346.06 M 7126.32,3338.39 L 7142.17,3338.39 L 7142.17,3346.06 L 7126.32,3346.06 L 7126.32,3338.39 M 6926.65,3323.2 L 6941.36,3323.2 L 6941.36,3368.91 L 6949.25,3368.91 L 6949.25,3375.32 L 6926.65,3375.32 L 6926.65,3368.91 L 6934.54,3368.91 L 6934.54,3330.8 L 6926.65,3330.8 L 6926.65,3323.2 M 6784.84,3323.2 L 6799.54,3323.2 L 6799.54,3368.91 L 6807.43,3368.91 L 6807.43,3375.32 L 6784.84,3375.32 L 6784.84,3368.91 L 6792.8,3368.91 L 6792.8,3330.8 L 6784.84,3330.8 L 6784.84,3323.2 M 7261.36,3338.39 L 7277.25,3338.39 L 7277.25,3346.06 L 7261.36,3346.06 L 7261.36,3338.39 M 7253.36,3346.06 L 7261.36,3346.06 L 7261.36,3368.91 L 7253.36,3368.91 L 7253.36,3346.06 M 7277.25,3346.06 L 7285.17,3346.06 L 7285.17,3323.2 L 7293.14,3323.2 L 7293.14,3375.32 L 7261.36,3375.32 L 7261.36,3368.91 L 7285.17,3368.91 L 7285.17,3353.65 L 7277.25,3353.65 L 7277.25,3346.06 M 7397.17,3346.06 L 7405.03,3346.06 L 7405.03,3368.91 L 7397.17,3368.91 L 7397.17,3346.06 M 7405.03,3338.39 L 7420.95,3338.39 L 7420.95,3346.06 L 7405.03,3346.06 L 7405.03,3338.39 M 7420.95,3346.06 L 7428.91,3346.06 L 7428.91,3338.39 L 7436.84,3338.39 L 7436.84,3390.54 L 7428.91,3390.54 L 7428.91,3375.32 L 7405.03,3375.32 L 7405.03,3368.91 L 7428.91,3368.91 L 7428.91,3353.65 L 7420.95,3353.65 L 7420.95,3346.06 M 6759.84,3338.39 L 6743.95,3338.39 L 6743.95,3346.06 L 6759.84,3346.06 L 6759.84,3338.39 M 6743.95,3346.06 L 6735.99,3346.06 L 6735.99,3338.39 L 6728.03,3338.39 L 6728.03,3390.54 L 6735.99,3390.54 L 6735.99,3375.32 L 6759.84,3375.32 L 6759.84,3368.91 L 6735.99,3368.91 L 6735.99,3353.65 L 6743.95,3353.65 L 6743.95,3346.06 M 6767.77,3346.06 L 6759.84,3346.06 L 6759.84,3368.91 L 6767.77,3368.91 L 6767.77,3346.06 M 6671.4,3346.06 L 6663.43,3346.06 L 6663.43,3368.91 L 6671.4,3368.91 L 6671.4,3346.06 M 6647.54,3346.06 L 6639.65,3346.06 L 6639.65,3338.39 L 6631.65,3338.39 L 6631.65,3390.54 L 6639.65,3390.54 L 6639.65,3375.32 L 6663.43,3375.32 L 6663.43,3368.91 L 6639.65,3368.91 L 6639.65,3353.65 L 6647.54,3353.65 L 6647.54,3346.06 M 6663.43,3338.39 L 6647.54,3338.39 L 6647.54,3346.06 L 6663.43,3346.06 L 6663.43,3338.39 M 6486.77,3391.06 L 6486.77,3391.06 z " />
   <path
   style="fill:#131516"
   id="path286"
   d="M 3742.77,2523.91 C 3671.03,2224.98 3485.32,2211.98 3441.65,2211.98 L 3441.65,2194.54 C 3538.43,2194.54 3694.99,2260.72 3751.84,2487.91 C 3824.77,2261.2 3949.17,2200.32 4036.54,2199.2 C 4119.77,2198.13 4171.14,2216.72 4249.95,2255.98 L 4249.95,2220.57 L 4477.77,2220.57 L 4477.77,2190.65 L 4495.95,2190.65 L 4495.95,2220.57 L 4534.54,2220.57 L 4534.54,2237.98 L 4495.95,2237.98 L 4495.95,2665.43 L 4659.77,2268.94 L 4816.65,2268.94 L 4830.36,2237.98 L 4634.8,2237.98 L 4634.8,2220.57 L 4838.03,2220.57 L 4859.54,2171.98 L 4876.36,2178.8 L 4857.84,2220.57 L 4901.17,2220.57 L 4901.17,2237.98 L 4850.17,2237.98 L 4722.54,2526.54 L 4891.54,2526.54 L 4891.54,2742.76 C 5049.77,2668.2 5239.03,2722.91 5334.43,2868.91 C 5429.03,2729.2 5613.95,2673.54 5774.99,2736.2 L 5768.62,2726.32 L 6040.84,2726.32 L 6095.25,2810.54 L 6148.36,2728.24 C 6149.17,2726.98 6150.54,2726.32 6151.99,2726.32 L 6151.99,2726.32 C 6153.54,2726.32 6154.99,2727.13 6155.77,2728.39 C 6156.54,2729.72 6156.51,2731.32 6155.65,2732.61 L 6100.32,2818.35 L 6107.36,2829.32 L 6172.65,2728.24 C 6173.43,2726.98 6174.84,2726.32 6176.36,2726.32 L 6176.36,2726.32 C 6177.91,2726.32 6179.36,2727.13 6180.14,2728.39 C 6180.84,2729.72 6180.84,2731.32 6179.99,2732.61 L 6112.43,2837.2 L 6119.54,2848.2 L 6198.25,2726.32 L 6470.51,2726.32 L 6255.65,3058.94 L 6262.77,3069.91 L 6489.43,2718.91 L 6206.65,2718.91 C 6205.03,2718.91 6203.65,2718.13 6202.84,2716.8 C 6202.17,2715.54 6202.17,2713.91 6202.95,2712.61 L 6202.95,2712.61 C 6203.77,2711.39 6205.17,2710.72 6206.65,2710.72 L 6504.95,2710.72 L 6279.99,3058.94 L 6490.4,3384.76 C 6491.25,3385.98 6491.25,3387.61 6490.54,3388.91 C 6489.77,3390.2 6488.32,3391.06 6486.77,3391.06 C 6485.25,3391.06 6483.84,3390.32 6483.03,3389.13 L 6274.95,3066.8 L 6267.84,3077.8 L 6470.17,3391.06 L 6197.95,3391.06 L 6145.95,3310.54 L 6095.17,3389.13 C 6094.36,3390.32 6092.99,3391.06 6091.51,3391.06 L 6091.51,3391.06 C 6090.8,3391.06 6090.14,3390.91 6089.43,3390.61 C 6088.84,3390.91 6088.17,3391.06 6087.43,3391.06 C 6085.84,3391.06 6084.43,3390.2 6083.65,3388.91 C 6082.95,3387.61 6082.95,3385.98 6083.77,3384.76 L 6138.84,3299.57 L 6131.77,3288.57 L 6066.8,3389.13 C 6065.99,3390.32 6064.65,3391.06 6063.17,3391.06 C 6061.54,3391.06 6060.17,3390.2 6059.36,3388.91 C 6058.62,3387.61 6058.65,3385.98 6059.43,3384.76 L 6126.65,3280.72 L 6119.54,3269.72 L 6041.21,3391.06 L 5768.95,3391.06 L 5776.95,3378.72 C 5615.77,3442.54 5429.95,3387.32 5334.77,3247.32 C 5239.51,3393.61 5049.95,3447.2 4891.54,3372.54 L 4891.54,3391.06 L 4660.25,3391.06 L 4660.25,3389.39 L 4622.03,3389.39 L 4638.77,3434.54 L 4621.54,3440.32 L 4602.73,3389.39 L 4529.36,3389.39 L 4529.36,3371.91 L 4596.25,3371.91 L 4459.99,3003.61 L 4451.95,3022.39 L 4451.95,3391.06 L 4301.03,3391.06 L 4301.03,2268.94 L 4451.95,2268.94 L 4451.95,2771.98 L 4477.77,2709.61 L 4477.77,2237.98 L 4268.25,2237.98 L 4268.25,2289.13 C 4177.36,2230.61 4116.43,2216.72 4036.54,2216.72 C 3973.25,2216.72 3834.43,2260.83 3760.99,2523.91 L 3742.77,2523.91 L 3742.77,2523.91 L 3742.77,2523.91 z M 4069.54,3414.61 L 3781.91,3414.65 L 3781.91,3397.2 L 3978.36,3397.2 C 3828.65,3333.54 3763.43,3103.13 3763.43,2829.98 C 3763.43,2507.98 3854.03,2245.35 4066.95,2245.35 C 4164.8,2245.35 4220.36,2293.54 4268.25,2337.35 L 4268.25,2365.94 C 4268.25,2365.98 4268.25,2365.98 4268.25,2366.06 L 4268.25,2608.54 L 4251.99,2608.54 C 4216.77,2546.98 4151.84,2460.54 4084.91,2460.54 C 3973.25,2460.54 3918.03,2626.13 3919.43,2829.98 C 3918.03,3033.91 3973.25,3199.54 4084.91,3199.54 C 4151.84,3199.54 4216.77,3112.98 4251.99,3051.54 L 4268.25,3051.54 L 4268.25,3293.94 C 4268.25,3293.98 4268.25,3293.98 4268.25,3293.98 L 4268.25,3322.65 C 4220.8,3366.13 4165.77,3413.8 4069.54,3414.61 z M 3439.43,2245.35 C 3650.51,2245.35 3740.36,2521.06 3740.36,2829.98 C 3740.36,3138.94 3650.51,3414.65 3439.43,3414.65 C 3228.36,3414.65 3138.43,3151.98 3138.43,2829.98 C 3138.43,2507.98 3228.36,2245.35 3439.43,2245.35 z M 2913.95,2268.94 L 2639.14,2268.94 L 2639.14,2920.61 C 2640.84,2925.17 2642.65,2929.72 2644.4,2934.32 C 2656.77,2930.98 2669.54,2929.72 2682.32,2930.39 C 2707.32,2931.65 2729.84,2945.2 2741.84,2966.32 C 2752.65,2985.32 2757.84,3006.8 2756.77,3028.39 C 2756.32,3037.54 2753.8,3046.32 2749.43,3054.35 C 2738.77,3074.13 2722.32,3090.39 2702.03,3101.32 C 2708.91,3123.61 2715.43,3145.91 2721.73,3168.35 C 2733.65,3211.32 2739.25,3255.61 2738.36,3299.98 C 2738.17,3311.39 2735.54,3322.72 2730.77,3333.2 C 2725.77,3343.98 2717.17,3352.8 2706.25,3358.13 C 2698.36,3362.06 2689.17,3362.72 2680.73,3359.91 C 2672.32,3357.2 2665.43,3351.2 2661.65,3343.54 C 2657.25,3334.54 2655.17,3324.72 2655.43,3314.8 C 2655.54,3309.2 2658.36,3303.98 2663.03,3300.65 C 2668.95,3296.39 2676.17,3294.32 2683.54,3294.65 C 2688.36,3294.91 2692.65,3297.61 2694.84,3301.72 C 2696.95,3305.8 2696.65,3310.8 2693.95,3314.61 C 2690.62,3319.32 2685.73,3322.8 2680.03,3324.61 L 2681.95,3328.61 C 2682.91,3330.91 2684.95,3332.61 2687.43,3333.2 C 2689.91,3333.8 2692.54,3333.2 2694.43,3331.61 C 2703.95,3323.83 2709.84,3312.8 2710.91,3300.94 C 2712.25,3280.43 2711.84,3259.91 2709.54,3239.54 C 2702.84,3195.91 2692.95,3152.8 2679.84,3110.54 C 2676.51,3111.61 2673.03,3112.43 2669.65,3113.2 C 2659.54,3115.32 2649.36,3116.98 2639.14,3118.2 L 2639.14,3391.06 L 2823.03,3391.06 L 2823.03,3427.57 L 2841.25,3427.57 L 2841.25,3391.06 L 2880.43,3391.06 L 2880.43,3373.61 L 2841.25,3373.61 L 2841.25,2980.13 L 2858.91,2980.13 L 3019.43,3391.06 L 3195.73,3391.06 L 3211.65,3429.98 L 3228.65,3423.61 L 3212.8,3384.91 L 3267.77,3384.91 L 3267.77,3367.39 L 3205.65,3367.39 L 3015.8,2903.39 C 3085.65,2834.39 3125.77,2730.54 3125.77,2598.57 C 3125.77,2421.72 3075.77,2268.94 2913.95,2268.94 L 2913.95,2268.94 L 2913.95,2268.94 z M 2671.84,3085.91 C 2661.36,3090.06 2650.36,3092.8 2639.14,3094.2 L 2639.14,2994.72 C 2650.43,3024.91 2661.32,3055.17 2671.77,3085.61 C 2671.77,3085.72 2671.8,3085.8 2671.84,3085.91 C 2671.84,3085.91 2671.84,3085.91 2671.84,3085.91 C 2671.84,3085.91 2671.84,3085.91 2671.84,3085.91 C 2671.84,3085.91 2671.84,3085.91 2671.84,3085.91 M 2654.62,2961.35 C 2658.17,2960.39 2661.84,2959.61 2665.43,2958.94 C 2676.95,2956.91 2688.77,2959.61 2698.14,2966.32 C 2706.54,2972.39 2712.73,2980.98 2715.43,2990.8 C 2721.65,3012.72 2720.25,3035.91 2711.65,3056.98 C 2709.84,3061.39 2706.84,3065.32 2702.95,3068.32 C 2699.95,3070.61 2696.91,3072.76 2693.77,3074.8 C 2681.54,3036.72 2668.54,2998.91 2654.62,2961.35 M 2639.14,3094.2 C 2636.25,3094.54 2633.36,3094.76 2630.43,3094.91 C 2598.84,3096.57 2569.43,3079.39 2556.51,3051.72 C 2533.54,3002.61 2530.25,2947.13 2547.17,2895.8 C 2553.03,2877.8 2559.21,2859.83 2565.54,2841.98 C 2567.25,2836.98 2569.03,2832.13 2570.84,2827.13 C 2587.8,2865.72 2604.03,2904.61 2619.43,2943.8 C 2597.43,2955.13 2579.65,2972.72 2568.65,2994.2 C 2566.84,2997.72 2567.54,3001.98 2570.43,3004.8 C 2573.36,3007.65 2577.77,3008.39 2581.51,3006.76 C 2584.77,3004.54 2587.77,3001.98 2590.54,2999.2 C 2601.65,2987.35 2614.99,2977.61 2629.84,2970.43 C 2632.95,2978.54 2636.03,2986.61 2639.14,2994.72 L 2639.14,2920.61 C 2624.43,2883.13 2608.95,2845.91 2592.62,2809.06 C 2589.84,2802.94 2587.17,2796.91 2584.32,2790.8 C 2587.73,2781.91 2591.17,2772.91 2594.65,2763.98 C 2599.73,2751.32 2603.54,2738.2 2606.17,2724.8 C 2609.03,2709.72 2607.77,2694.13 2602.32,2679.61 C 2589.95,2646.61 2566.03,2618.72 2534.65,2600.65 C 2520.84,2592.72 2504.95,2588.8 2488.84,2589.35 C 2475.36,2589.8 2464.43,2600.06 2463.65,2612.94 C 2462.95,2624.65 2465.8,2636.32 2471.84,2646.54 C 2477.43,2655.98 2483.43,2665.2 2489.84,2674.13 C 2509.77,2701.72 2526.91,2730.94 2541.17,2761.54 C 2543.95,2767.57 2546.77,2773.61 2549.51,2779.61 C 2545.17,2791.06 2540.91,2802.54 2536.77,2814.06 C 2517.36,2867.43 2504.95,2922.91 2499.54,2979.2 C 2497.03,3005.8 2499.54,3032.61 2506.84,3058.32 C 2516.95,3093.65 2549.77,3118.65 2587.95,3120.2 C 2604.99,3120.8 2622.17,3120.2 2639.14,3118.2 L 2639.14,3094.2 M 2889.03,2222.2 L 2604.84,2222.2 L 2604.84,2179.8 L 2586.65,2179.8 L 2586.65,2222.2 L 2544.17,2222.2 L 2544.17,2239.72 L 2586.65,2239.72 L 2586.65,2434.39 L 2604.84,2434.39 L 2604.84,2239.72 L 2889.03,2239.72 L 2889.03,2222.2 z " />
   <path
   style="fill:#a9becd"
   id="path288"
   d="M 6422.54,2751.91 L 6213.17,2751.91 L 6119.54,2896.8 L 6025.95,2751.91 L 5816.54,2751.91 L 5855.84,2812.72 C 5775.95,2747.72 5668.84,2722.2 5566.51,2743.76 C 5464.17,2765.32 5378.14,2831.39 5333.95,2922.54 C 5294.43,2837.76 5219.99,2774.35 5129.99,2748.72 C 5039.95,2722.98 4943.25,2737.61 4864.84,2788.72 L 4864.84,2548.13 L 4686.95,2548.13 L 4686.95,3361.43 L 4864.84,3361.43 L 4864.84,3328.65 C 4943.36,3379.8 5040.36,3394.39 5130.43,3368.57 C 5220.54,3342.72 5294.99,3278.98 5334.36,3193.98 C 5378.95,3285.39 5465.84,3351.54 5568.95,3372.39 C 5672.03,3393.35 5779.36,3366.72 5858.84,3300.54 L 5816.95,3365.43 L 6026.32,3365.43 L 6119.54,3221.06 L 6212.84,3365.43 L 6422.21,3365.43 L 6224.25,3058.94 L 6422.54,2751.91 L 6422.54,2751.91 L 6422.54,2751.91 z " />
   <path
   style="fill:#131516"
   id="path290"
   d="M 5180.95,3057.8 C 5180.95,2974.2 5110.21,2906.43 5022.91,2906.43 C 4935.62,2906.43 4864.84,2974.2 4864.84,3057.8 C 4864.84,3141.43 4935.62,3209.2 5022.91,3209.2 C 5110.21,3209.2 5180.95,3141.43 5180.95,3057.8 z M 5964.54,2981.13 C 5977.84,3032.8 5977.51,3086.8 5963.62,3138.32 L 6014.84,3058.94 L 5964.54,2981.13 M 5796.62,3057.8 C 5796.62,2974.2 5725.84,2906.43 5638.54,2906.43 C 5551.25,2906.43 5480.43,2974.2 5480.43,3057.8 C 5480.43,3141.43 5551.25,3209.2 5638.54,3209.2 C 5725.84,3209.2 5796.62,3141.43 5796.62,3057.8 z " />
   <path
   style="fill:#efaf04"
   id="path292"
   d="M 2789.95,3373.61 L 2823.03,3373.61 L 2823.03,2980.13 L 2789.95,2980.13 L 2789.95,3373.61 M 2858.25,2732.13 C 2913.95,2732.13 2922.77,2664.39 2922.65,2617.94 C 2922.62,2571.54 2915.54,2521.13 2866.95,2521.13 L 2789.95,2521.13 L 2789.95,2777.8 L 2823.03,2777.8 L 2823.03,2732.13 L 2858.25,2732.13 z M 2858.25,2749.61 L 2841.25,2749.61 L 2841.25,2777.8 L 2842.43,2777.8 C 2966.73,2777.8 2966.73,2671.24 2966.73,2634.2 L 2966.73,2610.32 C 2966.73,2574.39 2966.43,2475.39 2861.84,2475.39 L 2789.95,2475.39 L 2789.95,2503.61 L 2858.25,2503.61 C 2893.77,2503.61 2941.36,2508.39 2941.36,2622.54 C 2941.36,2736.54 2893.51,2748.61 2858.25,2749.61 L 2858.25,2749.61 L 2858.25,2749.61 z M 2562.36,2746.54 C 2548.03,2719.13 2532.54,2692.39 2515.95,2666.24 C 2510.73,2657.94 2505.95,2649.39 2501.65,2640.57 C 2498.91,2634.8 2497.25,2628.61 2496.84,2622.24 C 2496.77,2620.91 2497.25,2619.61 2498.25,2618.61 C 2499.25,2617.61 2500.62,2617.13 2502.03,2617.13 C 2508.84,2617.32 2515.54,2619.2 2521.43,2622.61 C 2546.77,2637.13 2564.84,2660.91 2571.43,2688.39 C 2573.36,2696.39 2573.43,2704.8 2571.62,2712.8 C 2569.03,2724.2 2565.95,2735.39 2562.36,2746.54 L 2562.36,2746.54 M 5634.25,3183.61 L 5642.84,3183.61 C 5714.51,3181.32 5771.03,3124.43 5769.84,3055.8 C 5768.65,2987.13 5710.25,2931.98 5638.54,2931.98 C 5566.84,2931.98 5508.36,2987.13 5507.21,3055.8 C 5506.03,3124.43 5562.54,3181.32 5634.25,3183.61 z M 5018.62,3183.61 L 5027.21,3183.61 C 5098.84,3181.32 5155.43,3124.43 5154.25,3055.8 C 5153.03,2987.13 5094.62,2931.98 5022.91,2931.98 C 4951.21,2931.98 4892.77,2987.13 4891.54,3055.8 C 4890.4,3124.43 4946.95,3181.32 5018.62,3183.61 z M 4606.8,2788.06 L 4660.25,2920.39 L 4660.25,2667.32 L 4606.8,2788.06 M 4615.54,3371.91 L 4470.36,2979.32 L 4487.4,2939.61 L 4655.21,3371.91 L 4615.54,3371.91 M 3439.4,2456.72 C 3541.03,2456.72 3584.25,2632.72 3584.25,2829.98 C 3584.25,3027.32 3541.03,3203.32 3439.4,3203.32 C 3337.77,3203.32 3294.54,3035.61 3294.54,2829.98 C 3294.54,2624.39 3337.77,2456.72 3439.4,2456.72 L 3439.4,2456.72 z " />
   <path
   style="fill:#131516"
   id="path294"
   d="M 5634.17,3183.61 C 5637.03,3183.8 5639.95,3183.76 5642.8,3183.61 L 5642.8,3171.98 C 5707.84,3169.76 5758.95,3117.98 5757.77,3055.76 C 5756.54,2993.43 5703.43,2943.57 5638.4,2943.61 C 5636.84,2943.61 5635.54,2944.35 5634.77,2945.61 C 5633.99,2946.91 5633.99,2948.54 5634.77,2949.8 C 5635.54,2951.13 5636.84,2951.91 5638.43,2951.83 C 5678.43,2951.8 5715.43,2972.54 5735.03,3005.98 C 5754.62,3039.54 5753.77,3080.54 5732.84,3113.2 C 5711.95,3145.91 5674.21,3165.2 5634.17,3163.72 L 5634.17,3183.61 L 5634.17,3183.61 L 5634.17,3183.61 z M 5022.84,3152.32 C 5020.51,3152.32 5018.54,3150.39 5018.54,3148.13 C 5018.54,3145.83 5020.51,3143.98 5022.84,3143.98 C 5072.54,3143.98 5112.84,3105.39 5112.84,3057.8 C 5112.84,3010.24 5072.54,2971.72 5022.84,2971.72 C 5020.51,2971.72 5018.54,2969.8 5018.54,2967.57 C 5018.54,2965.32 5020.51,2963.39 5022.84,2963.39 C 5077.36,2963.39 5121.43,3005.72 5121.43,3057.8 C 5121.43,3109.98 5077.36,3152.32 5022.84,3152.32 z M 5638.51,3152.32 C 5636.17,3152.32 5634.17,3150.39 5634.17,3148.13 C 5634.17,3145.83 5636.17,3143.98 5638.51,3143.98 C 5688.17,3143.98 5728.43,3105.39 5728.43,3057.8 C 5728.43,3010.24 5688.17,2971.72 5638.51,2971.72 C 5636.17,2971.72 5634.17,2969.8 5634.17,2967.57 C 5634.17,2965.32 5636.17,2963.39 5638.51,2963.39 C 5692.95,2963.39 5737.03,3005.72 5737.03,3057.8 C 5737.03,3109.98 5692.95,3152.32 5638.51,3152.32 z M 5018.54,3183.61 C 5021.43,3183.72 5024.32,3183.72 5027.21,3183.61 L 5027.21,3171.98 C 5092.21,3169.76 5143.36,3117.98 5142.17,3055.76 C 5140.95,2993.43 5087.84,2943.57 5022.8,2943.61 C 5021.25,2943.61 5019.95,2944.35 5019.17,2945.61 C 5018.36,2946.91 5018.36,2948.54 5019.17,2949.8 C 5019.95,2951.13 5021.25,2951.91 5022.8,2951.83 C 5062.84,2951.8 5099.8,2972.54 5119.4,3005.98 C 5138.99,3039.54 5138.17,3080.54 5117.25,3113.2 C 5096.36,3145.91 5058.62,3165.2 5018.54,3163.72 L 5018.54,3183.61 L 5018.54,3183.61 L 5018.54,3183.61 z M 3439.36,3150.72 L 3439.36,3107.61 L 3421.17,3107.61 L 3421.17,3153.57 L 3421.17,3170.98 C 3519.77,3170.98 3548.77,3010.61 3549.43,2838.72 L 3964.62,2838.72 C 3965.54,2959.72 3993.32,3144.8 4075.77,3157.61 L 4075.77,3203.32 L 4093.99,3203.32 L 4093.99,2838.72 L 4166.65,2838.72 L 4166.65,2821.24 L 4093.99,2821.24 L 4093.99,2758.2 L 4075.77,2758.2 L 4075.77,2821.24 L 3982.95,2821.24 C 3984.91,2701.39 4019.84,2526.13 4084.84,2523.2 L 4084.84,2505.76 C 3999.65,2508.91 3966.43,2695.98 3964.65,2821.24 L 3549.4,2821.24 C 3548.21,2650.2 3519.36,2491.13 3421.17,2491.13 L 3421.17,2507.91 L 3421.17,2821.24 L 3365.36,2821.24 L 3365.36,2838.72 L 3421.17,2838.72 L 3421.17,2899.8 L 3439.36,2899.8 L 3439.36,2838.72 L 3531.17,2838.72 C 3530.25,2948.72 3515.77,3126.43 3439.36,3150.72 L 3439.36,3150.72 z " />
   <path
   style="fill:#efaf04"
   id="path296"
   d="M 3982.91,2838.72 C 3984.03,2953.24 4014.36,3124.2 4075.77,3139.76 L 4075.77,2838.72 L 3982.91,2838.72 z M 3531.21,2821.24 L 3439.43,2821.24 L 3439.43,2510.72 C 3515.4,2534.91 3530.65,2711.13 3531.21,2821.24 z " />
  </g><path
   style="fill:white"
   id="path298"
   d="M 2124.14,15367.9 L 2124.14,15177.97 L 2183.33,15177.97 L 2183.33,15193.46 C 2195.5,15182.34 2214.18,15176.83 2239.47,15176.83 C 2257.31,15176.83 2269.8,15179.77 2277.04,15185.57 C 2284.28,15191.47 2288.48,15196.31 2289.75,15200.21 C 2289.85,15200.02 2291.84,15197.93 2295.93,15193.94 C 2299.92,15189.94 2305.9,15186.33 2313.88,15183.01 C 2321.75,15179.77 2331.72,15177.87 2343.99,15177.4 C 2366.35,15177.4 2383.25,15182.05 2394.48,15191.28 C 2405.7,15200.59 2411.27,15212.66 2411.27,15227.49 L 2411.27,15367.9 L 2365.93,15367.9 L 2365.93,15232.15 C 2365.93,15215.04 2354.59,15206.49 2331.93,15206.49 C 2320.07,15207.25 2311.57,15211.14 2306.54,15218.18 C 2301.49,15225.31 2298.46,15231.11 2297.4,15235.57 L 2297.4,15367.9 L 2252.07,15367.9 L 2252.07,15232.15 C 2252.07,15224.83 2249.34,15218.65 2243.78,15213.81 C 2238.21,15208.96 2229.61,15206.49 2217.96,15206.49 C 2205.47,15207.63 2196.66,15211.9 2191.83,15219.22 C 2186.9,15226.64 2184.07,15232.63 2183.33,15237.29 L 2183.33,15367.9 L 2124.14,15367.9 L 2124.14,15367.9 L 2124.14,15367.9 z " /><path
   style="fill:white"
   id="path300"
   d="M 2491.86,15282.4 C 2492.8,15292.38 2496.59,15305.02 2503.2,15320.33 C 2509.91,15335.63 2522.09,15343.62 2539.72,15344.38 C 2561.23,15344.38 2578.02,15341.91 2590.19,15336.96 C 2602.47,15332.02 2610.34,15327.84 2614.02,15324.51 L 2605.1,15357.5 C 2605.1,15359.49 2599.01,15362.06 2586.84,15365.2 C 2574.66,15368.43 2559.13,15370.05 2540.24,15370.05 C 2532.79,15370.05 2526.91,15369.86 2522.72,15369.57 C 2492.17,15367.57 2469.83,15359.59 2455.66,15345.71 C 2441.49,15331.83 2434.25,15309.49 2433.93,15278.88 C 2433.93,15243.8 2442.01,15218.04 2458.07,15201.69 C 2474.23,15185.34 2497.85,15177.07 2529.01,15176.79 C 2566.48,15176.79 2591.77,15185.72 2605.1,15203.5 C 2616.53,15218.33 2622.21,15238.29 2622.21,15263.48 C 2622.21,15268.24 2622.1,15272.23 2621.79,15275.46 C 2621.47,15278.79 2621.15,15281.07 2620.94,15282.4 L 2491.86,15282.4 L 2491.86,15282.4 L 2491.86,15282.4 z M 2534.79,15200.74 C 2506.14,15201.6 2491.86,15220.42 2491.86,15257.21 L 2583.16,15257.21 C 2583.16,15219.56 2567,15200.74 2534.79,15200.74 L 2534.79,15200.74 L 2534.79,15200.74 z " /><path
   style="fill:white"
   id="path302"
   d="M 2821.9,15221.8 L 2821.9,15367.91 L 2777.83,15367.91 L 2777.83,15228.74 C 2777.83,15212.77 2764.39,15204.78 2737.53,15204.78 C 2724.41,15206.21 2715.07,15209.82 2709.3,15215.81 C 2703.63,15221.9 2700.28,15226.74 2699.12,15230.45 L 2699.12,15367.91 L 2639.94,15367.91 L 2639.94,15177.98 L 2699.12,15177.98 L 2699.12,15193.38 C 2699.96,15192.9 2702.68,15191.29 2707.52,15188.34 C 2712.24,15185.49 2719.05,15182.82 2727.76,15180.45 C 2736.58,15178.07 2746.66,15176.84 2758.31,15176.84 C 2780.14,15176.84 2796.19,15181.4 2806.48,15190.43 C 2816.76,15199.46 2821.9,15209.92 2821.9,15221.8 z " /><path
   style="fill:white"
   id="path304"
   d="M 2906.9,15314.3 C 2906.9,15322.19 2910.15,15328.74 2916.56,15333.97 C 2922.96,15339.11 2930.83,15341.77 2940.27,15341.77 C 2955.8,15341.39 2966.93,15338.06 2973.64,15331.69 C 2980.25,15325.42 2984.24,15320.19 2985.61,15316.01 L 2985.61,15177.98 L 3029.68,15177.98 L 3029.68,15367.91 L 2985.61,15367.91 L 2985.61,15350.23 C 2981.62,15353.27 2972.91,15357.07 2959.58,15361.64 C 2946.25,15366.2 2927.88,15368.48 2904.49,15368.48 C 2887.07,15367.91 2873.22,15363.16 2863.04,15354.13 C 2852.86,15345.1 2847.72,15332.45 2847.72,15316.01 L 2847.72,15177.98 L 2906.9,15177.98 L 2906.9,15314.3 L 2906.9,15314.3 L 2906.9,15314.3 z " />
<g
   id="g3002"
   transform="translate(-5500.014,-6750.005)">
   <path
   style="fill:black"
   id="path3004"
   d="M 12206.9,18467.7 L 12030.14,18262.52 L 12030.14,18262.52 L 12037.47,18263.59 L 12044.74,18264.46 L 12051.95,18265.13 L 12059.09,18265.61 L 12066.17,18265.88 L 12073.18,18265.96 L 12080.14,18265.83 L 12087.03,18265.51 L 12093.86,18264.99 L 12100.62,18264.27 L 12107.33,18263.36 L 12113.97,18262.24 L 12120.54,18260.93 L 12127.06,18259.41 L 12133.51,18257.7 L 12139.9,18255.79 L 12146.22,18253.68 L 12152.49,18251.37 L 12158.69,18248.87 L 12164.82,18246.16 L 12170.9,18243.26 L 12176.91,18240.15 L 12182.86,18236.85 L 12188.75,18233.35 L 12194.57,18229.65 L 12200.33,18225.76 L 12206.03,18221.66 L 12211.66,18217.37 L 12217.24,18212.87 L 12222.74,18208.18 L 12228.19,18203.29 L 12233.57,18198.2 L 12206.9,18467.7 L 12206.9,18467.7 L 12206.9,18467.7 z " />
   <path
   style="fill:black"
   id="path3006"
   d="M 11026,17214.7 L 11076.25,17231.42 L 11125.8,17249.61 L 11174.61,17269.29 L 11222.7,17290.34 L 11270.02,17312.81 L 11316.53,17336.65 L 11362.26,17361.81 L 11407.1,17388.29 L 11451.1,17416.06 L 11494.15,17445.1 L 11536.32,17475.36 L 11577.53,17506.86 L 11617.76,17539.52 L 11656.98,17573.34 L 11695.19,17608.3 L 11732.33,17644.37 L 11768.39,17681.5 L 11803.35,17719.72 L 11837.18,17758.93 L 11869.84,17799.17 L 11901.33,17840.37 L 11931.59,17882.54 L 11960.63,17925.6 L 11988.4,17969.6 L 12014.89,18014.44 L 12040.05,18060.17 L 12063.89,18106.68 L 12086.35,18154.01 L 12107.4,18202.09 L 12127.08,18250.9 L 12145.27,18300.45 L 12161.99,18350.71 L 12176.29,18346.19 L 12159.39,18295.53 L 12141.02,18245.56 L 12121.22,18196.29 L 12099.95,18147.79 L 12077.31,18100.06 L 12053.29,18053.13 L 12027.89,18007.06 L 12001.18,17961.8 L 11973.17,17917.46 L 11943.89,17873.98 L 11913.35,17831.47 L 11881.62,17789.91 L 11848.66,17749.33 L 11814.55,17709.76 L 11779.29,17671.24 L 11742.93,17633.77 L 11705.45,17597.4 L 11666.94,17562.14 L 11627.36,17528.04 L 11586.79,17495.08 L 11545.22,17463.34 L 11502.71,17432.8 L 11459.24,17403.52 L 11414.9,17375.51 L 11369.64,17348.81 L 11323.57,17323.41 L 11276.64,17299.39 L 11228.92,17276.74 L 11180.41,17255.47 L 11131.14,17235.67 L 11081.17,17217.3 L 11030.52,17200.4 L 11026,17214.7 z " />
  </g><g
   id="g3008"
   transform="translate(-5500.014,-6750.005)">
   <path
   style="fill:black"
   id="path3010"
   d="M 8793.2,18467.7 L 8766.53,18198.2 L 8766.53,18198.2 L 8771.91,18203.29 L 8777.36,18208.18 L 8782.86,18212.87 L 8788.44,18217.37 L 8794.07,18221.66 L 8799.77,18225.76 L 8805.53,18229.65 L 8811.35,18233.35 L 8817.24,18236.85 L 8823.19,18240.15 L 8829.2,18243.26 L 8835.28,18246.16 L 8841.41,18248.87 L 8847.61,18251.37 L 8853.88,18253.68 L 8860.2,18255.79 L 8866.59,18257.7 L 8873.04,18259.41 L 8879.56,18260.93 L 8886.13,18262.24 L 8892.77,18263.36 L 8899.48,18264.27 L 8906.24,18264.99 L 8913.07,18265.51 L 8919.96,18265.83 L 8926.92,18265.96 L 8933.93,18265.88 L 8941.01,18265.61 L 8948.15,18265.13 L 8955.36,18264.46 L 8962.63,18263.59 L 8969.96,18262.52 L 8793.2,18467.7 L 8793.2,18467.7 L 8793.2,18467.7 z " />
   <path
   style="fill:black"
   id="path3012"
   d="M 9969.53,17200.4 L 9918.88,17217.3 L 9868.91,17235.67 L 9819.64,17255.47 L 9771.13,17276.74 L 9723.41,17299.39 L 9676.48,17323.41 L 9630.41,17348.81 L 9585.15,17375.51 L 9540.81,17403.52 L 9497.34,17432.8 L 9454.83,17463.34 L 9413.26,17495.08 L 9372.69,17528.04 L 9333.11,17562.14 L 9294.6,17597.4 L 9257.12,17633.77 L 9220.76,17671.24 L 9185.5,17709.76 L 9151.39,17749.33 L 9118.43,17789.91 L 9086.7,17831.47 L 9056.16,17873.98 L 9026.88,17917.46 L 8998.87,17961.8 L 8972.16,18007.06 L 8946.76,18053.13 L 8922.74,18100.06 L 8900.1,18147.79 L 8878.83,18196.29 L 8859.03,18245.56 L 8840.66,18295.53 L 8823.76,18346.19 L 8838.06,18350.71 L 8854.78,18300.45 L 8872.97,18250.9 L 8892.65,18202.09 L 8913.7,18154.01 L 8936.16,18106.68 L 8960,18060.17 L 8985.16,18014.44 L 9011.65,17969.6 L 9039.42,17925.6 L 9068.46,17882.54 L 9098.72,17840.37 L 9130.21,17799.17 L 9162.87,17758.93 L 9196.7,17719.72 L 9231.66,17681.5 L 9267.72,17644.37 L 9304.86,17608.3 L 9343.07,17573.34 L 9382.29,17539.52 L 9422.52,17506.86 L 9463.73,17475.36 L 9505.9,17445.1 L 9548.95,17416.06 L 9592.95,17388.29 L 9637.79,17361.81 L 9683.52,17336.65 L 9730.03,17312.81 L 9777.35,17290.34 L 9825.44,17269.29 L 9874.25,17249.61 L 9923.8,17231.42 L 9974.05,17214.7 L 9969.53,17200.4 z " />
  </g><g
   inkscape:groupmode="layer"
   id="layer1"
   inkscape:label="text"><text
     xml:space="preserve"
     style="font-size:790.222229px;font-style:normal;font-variant:normal;font-weight:normal;font-stretch:normal;text-align:start;line-height:100%;writing-mode:lr-tb;text-anchor:start;fill:black;fill-opacity:1;stroke:none;stroke-width:1px;stroke-linecap:butt;stroke-linejoin:miter;stroke-opacity:1;display:inline;font-family:URW Palladio L"
     x="9375.9043"
     y="6813.2549"
     id="text2027"
     sodipodi:linespacing="100%"><tspan
       sodipodi:role="line"
       id="tspan2029"
       x="9375.9043"
       y="6813.2549">Play</tspan></text>
<text
     xml:space="preserve"
     style="font-size:790.222229px;font-style:normal;font-variant:normal;font-weight:normal;font-stretch:normal;text-align:start;line-height:100%;writing-mode:lr-tb;text-anchor:start;fill:black;fill-opacity:1;stroke:none;stroke-width:1px;stroke-linecap:butt;stroke-linejoin:miter;stroke-opacity:1;display:inline;font-family:URW Palladio L"
     x="-2318.782"
     y="12239.819"
     id="text2031"
     sodipodi:linespacing="100%"><tspan
       sodipodi:role="line"
       id="tspan2033"
       x="-2318.782"
       y="12239.819">Left</tspan></text>
<text
     xml:space="preserve"
     style="font-size:790.222229px;font-style:normal;font-variant:normal;font-weight:normal;font-stretch:normal;text-align:start;line-height:100%;writing-mode:lr-tb;text-anchor:start;fill:black;fill-opacity:1;stroke:none;stroke-width:1px;stroke-linecap:butt;stroke-linejoin:miter;stroke-opacity:1;display:inline;font-family:URW Palladio L"
     x="9398.7744"
     y="12325.533"
     id="text2035"
     sodipodi:linespacing="100%"><tspan
       sodipodi:role="line"
       id="tspan2037"
       x="9398.7744"
       y="12325.533">Right</tspan></text>
<text
     xml:space="preserve"
     style="font-size:790.222229px;font-style:normal;font-variant:normal;font-weight:normal;font-stretch:normal;text-align:start;line-height:100%;writing-mode:lr-tb;text-anchor:start;fill:black;fill-opacity:1;stroke:none;stroke-width:1px;stroke-linecap:butt;stroke-linejoin:miter;stroke-opacity:1;font-family:URW Palladio L;display:inline"
     x="9199.9971"
     y="15389.438"
     id="text2039"
     sodipodi:linespacing="100%"><tspan
       sodipodi:role="line"
       id="tspan2041"
       x="9199.9971"
       y="15389.438">Submenu</tspan></text>
<text
     xml:space="preserve"
     style="font-size:790.222229px;font-style:normal;font-variant:normal;font-weight:normal;font-stretch:normal;text-align:start;line-height:100%;writing-mode:lr-tb;text-anchor:start;fill:black;fill-opacity:1;stroke:none;stroke-width:1px;stroke-linecap:butt;stroke-linejoin:miter;stroke-opacity:1;display:inline;font-family:URW Palladio L"
     x="-2347.9624"
     y="15403.114"
     id="text2043"
     sodipodi:linespacing="100%"><tspan
       sodipodi:role="line"
       id="tspan2045"
       x="-2347.9624"
       y="15403.114">Power</tspan></text>
<text
     xml:space="preserve"
     style="font-size:790.222229px;font-style:normal;font-variant:normal;font-weight:normal;font-stretch:normal;text-align:start;line-height:100%;writing-mode:lr-tb;text-anchor:start;fill:black;fill-opacity:1;stroke:none;stroke-width:1px;stroke-linecap:butt;stroke-linejoin:miter;stroke-opacity:1;display:inline;font-family:URW Palladio L"
     x="-2358.897"
     y="4449.6602"
     id="text2047"
     sodipodi:linespacing="100%"><tspan
       sodipodi:role="line"
       id="tspan2049"
       x="-2358.897"
       y="4449.6602">Rec</tspan></text>
<text
     xml:space="preserve"
     style="font-size:790.222229px;font-style:normal;font-variant:normal;font-weight:normal;font-stretch:normal;text-align:start;line-height:100%;writing-mode:lr-tb;text-anchor:start;fill:black;fill-opacity:1;stroke:none;stroke-width:1px;stroke-linecap:butt;stroke-linejoin:miter;stroke-opacity:1;font-family:URW Palladio L;display:inline"
     x="4502.0088"
     y="-265.66003"
     id="text2051"
     sodipodi:linespacing="100%"><tspan
       sodipodi:role="line"
       id="tspan2053"
       x="4502.0088"
       y="-265.66003">Hold</tspan></text>
<path
     style="fill:none;fill-opacity:0.75;fill-rule:evenodd;stroke:black;stroke-width:35.27777784;stroke-linecap:butt;stroke-linejoin:miter;stroke-miterlimit:4;stroke-dasharray:none;stroke-opacity:1;display:inline"
     d="M 233.04223,12110.911 L 2334.802,12118.675"
     id="path2070" /><path
     style="fill:none;fill-opacity:0.75;fill-rule:evenodd;stroke:black;stroke-width:35.27777784;stroke-linecap:butt;stroke-linejoin:miter;stroke-miterlimit:4;stroke-dasharray:none;stroke-opacity:1;display:inline"
     d="M 387.21504,15175.865 L 2535.8313,14714.65"
     id="path2072" /><path
     style="fill:none;fill-opacity:0.75;fill-rule:evenodd;stroke:black;stroke-width:35.27777784;stroke-linecap:butt;stroke-linejoin:miter;stroke-miterlimit:4;stroke-dasharray:none;stroke-opacity:1;display:inline"
     d="M 9104.176,15178.698 L 5515.0297,14536.737"
     id="path2074" /><path
     style="fill:none;fill-opacity:0.75;fill-rule:evenodd;stroke:black;stroke-width:35.27777784;stroke-linecap:butt;stroke-linejoin:miter;stroke-miterlimit:4;stroke-dasharray:none;stroke-opacity:1;display:inline"
     d="M 9205.608,12148 L 7650.8821,12161.374"
     id="path2076" /><path
     style="fill:none;fill-opacity:0.75;fill-rule:evenodd;stroke:black;stroke-width:35.27777784;stroke-linecap:butt;stroke-linejoin:miter;stroke-miterlimit:4;stroke-dasharray:none;stroke-opacity:1;display:inline"
     d="M 9222.1315,6622.5006 L 5361.9699,9652.9032"
     id="path2078" /><path
     style="fill:none;fill-opacity:0.75;fill-rule:evenodd;stroke:black;stroke-width:35.27777784;stroke-linecap:butt;stroke-linejoin:miter;stroke-miterlimit:4;stroke-dasharray:none;stroke-opacity:1;display:inline"
     d="M 9241.5437,8220.2317 L 6315.2806,10872.899"
     id="path3354" /><path
     style="fill:none;fill-opacity:0.75;fill-rule:evenodd;stroke:black;stroke-width:35.27777784;stroke-linecap:butt;stroke-linejoin:miter;stroke-miterlimit:4;stroke-dasharray:none;stroke-opacity:1;display:inline"
     d="M 565.25171,7862.6653 L 3634.662,10823.33"
     id="path3356" /><text
     xml:space="preserve"
     style="font-size:790.222229px;font-style:normal;font-variant:normal;font-weight:normal;font-stretch:normal;text-align:start;line-height:100%;writing-mode:lr-tb;text-anchor:start;fill:black;fill-opacity:1;stroke:none;stroke-width:1px;stroke-linecap:butt;stroke-linejoin:miter;stroke-opacity:1;display:inline;font-family:URW Palladio L"
     x="9361.5664"
     y="8407.417"
     id="text3363"
     sodipodi:linespacing="100%"><tspan
       sodipodi:role="line"
       id="tspan3365"
       x="9361.5664"
       y="8407.417">Scroll Down</tspan></text>
<text
     xml:space="preserve"
     style="font-size:790.222229px;font-style:normal;font-variant:normal;font-weight:normal;font-stretch:normal;text-align:start;line-height:100%;writing-mode:lr-tb;text-anchor:start;fill:black;fill-opacity:1;stroke:none;stroke-width:1px;stroke-linecap:butt;stroke-linejoin:miter;stroke-opacity:1;display:inline;font-family:URW Palladio L"
     x="-2423.9062"
     y="7464.5786"
     id="text3367"
     sodipodi:linespacing="100%"><tspan
       sodipodi:role="line"
       id="tspan3369"
       x="-2423.9062"
       y="7464.5786">Scroll Up</tspan></text>
<text
     xml:space="preserve"
     style="font-size:790.222229px;font-style:normal;font-variant:normal;font-weight:normal;font-stretch:normal;text-align:start;line-height:100%;writing-mode:lr-tb;text-anchor:start;fill:black;fill-opacity:1;stroke:none;stroke-width:1px;stroke-linecap:butt;stroke-linejoin:miter;stroke-opacity:1;display:inline;font-family:URW Palladio L"
     x="9275.8535"
     y="14021.587"
     id="text3371"
     sodipodi:linespacing="100%"><tspan
       sodipodi:role="line"
       id="tspan3373"
       x="9275.8535"
       y="14021.587">Select</tspan></text>
<path
     style="fill:none;fill-opacity:0.75;fill-rule:evenodd;stroke:black;stroke-width:35.27777784;stroke-linecap:butt;stroke-linejoin:miter;stroke-miterlimit:4;stroke-dasharray:none;stroke-opacity:1;display:inline"
     d="M -346.90707,4244.0416 L 1011.1789,4242.1622"
     id="path3375" /></g><path
   style="fill:none;fill-opacity:0.75;fill-rule:evenodd;stroke:black;stroke-width:35.27777784;stroke-linecap:butt;stroke-linejoin:miter;stroke-miterlimit:4;stroke-dasharray:none;stroke-opacity:1;display:inline"
   d="M 9129.3915,13802.706 L 5120.3168,12147.427"
   id="path3360" /></svg>