<?xml version="1.0" encoding="UTF-8" standalone="no"?>
<!-- Creator: CorelDRAW -->

<svg
   xmlns:dc="http://purl.org/dc/elements/1.1/"
   xmlns:cc="http://creativecommons.org/ns#"
   xmlns:rdf="http://www.w3.org/1999/02/22-rdf-syntax-ns#"
   xmlns:svg="http://www.w3.org/2000/svg"
   xmlns="http://www.w3.org/2000/svg"
   xmlns:xlink="http://www.w3.org/1999/xlink"
   xmlns:sodipodi="http://sodipodi.sourceforge.net/DTD/sodipodi-0.dtd"
   xmlns:inkscape="http://www.inkscape.org/namespaces/inkscape"
   xml:space="preserve"
   width="100mm"
   height="162mm"
   shape-rendering="geometricPrecision"
   text-rendering="geometricPrecision"
   image-rendering="optimizeQuality"
   viewBox="0 0 10000 16200"
   id="svg2"
   sodipodi:version="0.32"
   inkscape:version="0.47 r22583"
   sodipodi:docname="sansae200-front.svg"
   version="1.1"
   style="fill-rule:evenodd;display:inline"><metadata
   id="metadata309"><rdf:RDF><cc:Work
       rdf:about=""><dc:format>image/svg+xml</dc:format><dc:type
         rdf:resource="http://purl.org/dc/dcmitype/StillImage" /></cc:Work></rdf:RDF></metadata><defs
   id="defs307"><inkscape:perspective
   sodipodi:type="inkscape:persp3d"
   inkscape:vp_x="0 : 287.00787 : 1"
   inkscape:vp_y="0 : 1000 : 0"
   inkscape:vp_z="354.33072 : 287.00787 : 1"
   inkscape:persp3d-origin="177.16536 : 191.33858 : 1"
   id="perspective215" />
  <defs
   id="defs5">
   <linearGradient
   y2="4650.3999"
   x2="1145.34"
   y1="4650.3999"
   x1="1073.64"
   gradientUnits="userSpaceOnUse"
   id="id0">
    <stop
   id="stop8"
   stop-color="#F2F8FA"
   offset="0" />
    <stop
   id="stop10"
   stop-color="#BFC0C0"
   offset="0.290196" />
    <stop
   id="stop12"
   stop-color="#9FA0A0"
   offset="0.419608" />
    <stop
   id="stop14"
   stop-color="#828282"
   offset="1" />
    <stop
   id="stop16"
   stop-color="#828282"
   offset="1" />
   </linearGradient>
   <linearGradient
   y2="4015.3999"
   x2="1780.34"
   y1="4015.3999"
   x1="1708.64"
   gradientUnits="userSpaceOnUse"
   id="id1">
    <stop
   id="stop19"
   stop-color="#F2F8FA"
   offset="0" />
    <stop
   id="stop21"
   stop-color="#BFC0C0"
   offset="0.290196" />
    <stop
   id="stop23"
   stop-color="#9FA0A0"
   offset="0.419608" />
    <stop
   id="stop25"
   stop-color="#828282"
   offset="1" />
    <stop
   id="stop27"
   stop-color="#828282"
   offset="1" />
   </linearGradient>
   <linearGradient
   y2="159.96001"
   x2="5397.6201"
   y1="60.740002"
   x1="5397.6201"
   gradientUnits="userSpaceOnUse"
   id="id2">
    <stop
   id="stop30"
   stop-color="#F2F8FA"
   offset="0" />
    <stop
   id="stop32"
   stop-color="#BFC0C0"
   offset="0.290196" />
    <stop
   id="stop34"
   stop-color="#9FA0A0"
   offset="0.419608" />
    <stop
   id="stop36"
   stop-color="#828282"
   offset="1" />
    <stop
   id="stop38"
   stop-color="#828282"
   offset="1" />
   </linearGradient>
   <radialGradient
   fy="14780.4"
   fx="2502.49"
   r="1306.5699"
   cy="14780.4"
   cx="2502.49"
   gradientUnits="userSpaceOnUse"
   id="id3"
   gradientTransform="matrix(2.095066,0.07868034,-0.07543729,2.008706,-1625.391,-15105.98)">
    <stop
   id="stop41"
   stop-color="#000000"
   offset="0" />
    <stop
   id="stop43"
   stop-color="#000000"
   offset="0.239216"
   style="stop-color:#222;stop-opacity:1;" />
    <stop
   id="stop45"
   stop-color="#7D7D7D"
   offset="0.341176"
   style="stop-color:#5a5a5a;stop-opacity:1;" />
    <stop
   id="stop47"
   stop-color="#000000"
   offset="0.51196098" />
    <stop
   id="stop49"
   stop-color="#000000"
   offset="1" />
    <stop
   id="stop51"
   stop-color="#000000"
   offset="1" />
   </radialGradient>
   <radialGradient
   fy="1106.72"
   fx="2001.04"
   r="893.09998"
   cy="1106.72"
   cx="2001.04"
   gradientUnits="userSpaceOnUse"
   id="id4"
   gradientTransform="matrix(1.241975,0.03676859,-0.03999755,1.351079,-439.9381,-462.1222)">
    <stop
   id="stop54"
   stop-color="#000000"
   offset="0" />
    <stop
   id="stop56"
   stop-color="#2C2C2C"
   offset="0.25097999"
   style="stop-color:#343434;stop-opacity:1;" />
    <stop
   id="stop58"
   stop-color="#7D7D7D"
   offset="0.40000001"
   style="stop-color:#5a5a5a;stop-opacity:1;" />
    <stop
   id="stop60"
   stop-color="#1F1F1F"
   offset="0.670588" />
    <stop
   id="stop62"
   stop-color="#000000"
   offset="1" />
    <stop
   id="stop64"
   stop-color="#000000"
   offset="1" />
   </radialGradient>
   <linearGradient
   y2="7958.2998"
   x2="1692.8"
   y1="7958.2998"
   x1="1143.66"
   gradientUnits="userSpaceOnUse"
   id="id5">
    <stop
   id="stop67"
   stop-color="#000000"
   offset="0" />
    <stop
   id="stop69"
   stop-color="#7D7D7D"
   offset="0.76862699"
   style="stop-color:#5a5a5a;stop-opacity:1;" />
    <stop
   id="stop71"
   stop-color="#3C3C3C"
   offset="1" />
    <stop
   id="stop73"
   stop-color="#3C3C3C"
   offset="1" />
   </linearGradient>
   <radialGradient
   fy="14780.4"
   fx="7497.48"
   r="1306.5601"
   cy="14780.4"
   cx="7497.48"
   gradientUnits="userSpaceOnUse"
   id="id6"
   gradientTransform="matrix(2.091091,0.111281,-0.10712,2.012916,-6597.138,-15805.62)">
    <stop
   id="stop76"
   stop-color="#000000"
   offset="0" />
    <stop
   id="stop78"
   stop-color="#000000"
   offset="0.239216"
   style="stop-color:#222;stop-opacity:1;" />
    <stop
   id="stop80"
   stop-color="#7D7D7D"
   offset="0.341176"
   style="stop-color:#5a5a5a;stop-opacity:1;" />
    <stop
   id="stop82"
   stop-color="#000000"
   offset="0.51196098" />
    <stop
   id="stop84"
   stop-color="#000000"
   offset="1" />
    <stop
   id="stop86"
   stop-color="#000000"
   offset="1" />
   </radialGradient>
   <radialGradient
   fy="1106.72"
   fx="7998.9199"
   r="893.09998"
   cy="1106.72"
   cx="7998.9199"
   gradientUnits="userSpaceOnUse"
   id="id7"
   gradientTransform="matrix(1.220986,-0.07514309,0.08364683,1.359163,-1860.227,203.572)">
    <stop
   id="stop89"
   stop-color="#000000"
   offset="0" />
    <stop
   id="stop91"
   stop-color="#2C2C2C"
   offset="0.25097999"
   style="stop-color:#343434;stop-opacity:1;" />
    <stop
   id="stop93"
   stop-color="#7D7D7D"
   offset="0.40000001"
   style="stop-color:#5a5a5a;stop-opacity:1;" />
    <stop
   id="stop95"
   stop-color="#1F1F1F"
   offset="0.670588" />
    <stop
   id="stop97"
   stop-color="#000000"
   offset="1" />
    <stop
   id="stop99"
   stop-color="#000000"
   offset="1" />
   </radialGradient>
   <linearGradient
   y2="761.81"
   x2="5000"
   y1="162.77"
   x1="5000"
   gradientUnits="userSpaceOnUse"
   id="id8">
    <stop
   id="stop102"
   stop-color="#000000"
   offset="0" />
    <stop
   id="stop104"
   stop-color="#7D7D7D"
   offset="0.76862699"
   style="stop-color:#5a5a5a;stop-opacity:1;" />
    <stop
   id="stop106"
   stop-color="#3C3C3C"
   offset="1" />
    <stop
   id="stop108"
   stop-color="#3C3C3C"
   offset="1" />
   </linearGradient>
   <linearGradient
   y2="7958.2998"
   x2="8307.2002"
   y1="7958.2998"
   x1="8856.2998"
   gradientUnits="userSpaceOnUse"
   id="id9">
    <stop
   id="stop111"
   stop-color="#000000"
   offset="0" />
    <stop
   id="stop113"
   stop-color="#7D7D7D"
   offset="0.76862699"
   style="stop-color:#5a5a5a;stop-opacity:1;" />
    <stop
   id="stop115"
   stop-color="#3C3C3C"
   offset="1" />
    <stop
   id="stop117"
   stop-color="#3C3C3C"
   offset="1" />
   </linearGradient>
   <linearGradient
   y2="15538.2"
   x2="5000"
   y1="16137.2"
   x1="5000"
   gradientUnits="userSpaceOnUse"
   id="id10">
    <stop
   id="stop120"
   stop-color="#000000"
   offset="0" />
    <stop
   id="stop122"
   stop-color="#7D7D7D"
   offset="0.76862699"
   style="stop-color:#5a5a5a;stop-opacity:1;" />
    <stop
   id="stop124"
   stop-color="#3C3C3C"
   offset="1" />
    <stop
   id="stop126"
   stop-color="#3C3C3C"
   offset="1" />
   </linearGradient>
   <linearGradient
   y2="6768.9199"
   x2="-64.68"
   y1="9531.0195"
   x1="10064.7"
   gradientUnits="userSpaceOnUse"
   id="id11">
    <stop
   id="stop129"
   stop-color="#484A4C"
   offset="0" />
    <stop
   id="stop131"
   stop-color="#252425"
   offset="0.509804" />
    <stop
   id="stop133"
   stop-color="#494747"
   offset="1" />
    <stop
   id="stop135"
   stop-color="#494747"
   offset="1" />
   </linearGradient>
   <linearGradient
   y2="13252.3"
   x2="7388.8901"
   y1="11038.4"
   x1="2611.1101"
   gradientUnits="userSpaceOnUse"
   id="id12">
    <stop
   id="stop138"
   stop-color="#8AC9E4"
   offset="0" />
    <stop
   id="stop140"
   stop-color="#008DCD"
   offset="0.360784" />
    <stop
   id="stop142"
   stop-color="#54B6C6"
   offset="1" />
    <stop
   id="stop144"
   stop-color="#54B6C6"
   offset="1" />
   </linearGradient>
   <linearGradient
   y2="13701.3"
   x2="8286.0996"
   y1="10588.7"
   x1="1713.88"
   gradientUnits="userSpaceOnUse"
   id="id13">
    <stop
   id="stop147"
   stop-color="#4A4B4C"
   offset="0" />
    <stop
   id="stop149"
   stop-color="#252425"
   offset="0.360784" />
    <stop
   id="stop151"
   stop-color="#5A5C5D"
   offset="1" />
    <stop
   id="stop153"
   stop-color="#5A5C5D"
   offset="1" />
   </linearGradient>
   <linearGradient
   y2="13258.6"
   x2="7386.8599"
   y1="11031.9"
   x1="2613.1201"
   gradientUnits="userSpaceOnUse"
   id="id14">
    <stop
   id="stop156"
   stop-color="#5FA8BA"
   offset="0" />
    <stop
   id="stop158"
   stop-color="#2091B7"
   offset="0.360784" />
    <stop
   id="stop160"
   stop-color="#49A5B4"
   offset="1" />
    <stop
   id="stop162"
   stop-color="#49A5B4"
   offset="1" />
   </linearGradient>
   <radialGradient
   fy="14736.4"
   fx="2687.5901"
   r="298.39001"
   cy="14736.4"
   cx="2687.5901"
   gradientUnits="userSpaceOnUse"
   id="id15">
    <stop
   id="stop165"
   stop-color="#474B4D"
   offset="0" />
    <stop
   id="stop167"
   stop-color="#1B1D1E"
   offset="1" />
    <stop
   id="stop169"
   stop-color="#1B1D1E"
   offset="1" />
   </radialGradient>
  </defs>
  
  
  
  
  
  
  
  
  
  
  
  
  
  
  
  
  
  
  
  
  
  
  
  
  
  
  
  
  
  
  
  
  
  
  
  
  
  
  
  
  
  
 <linearGradient
   inkscape:collect="always"
   xlink:href="#id0"
   id="linearGradient12258"
   gradientUnits="userSpaceOnUse"
   x1="1073.64"
   y1="4650.3999"
   x2="1145.34"
   y2="4650.3999" /><linearGradient
   inkscape:collect="always"
   xlink:href="#id1"
   id="linearGradient12260"
   gradientUnits="userSpaceOnUse"
   x1="1708.64"
   y1="4015.3999"
   x2="1780.34"
   y2="4015.3999" /><linearGradient
   inkscape:collect="always"
   xlink:href="#id2"
   id="linearGradient12262"
   gradientUnits="userSpaceOnUse"
   x1="5397.6201"
   y1="60.740002"
   x2="5397.6201"
   y2="159.96001" /><radialGradient
   inkscape:collect="always"
   xlink:href="#id3"
   id="radialGradient12264"
   gradientUnits="userSpaceOnUse"
   gradientTransform="matrix(2.095066,0.07868034,-0.07543729,2.008706,-1625.391,-15105.98)"
   cx="2502.49"
   cy="14780.4"
   fx="2502.49"
   fy="14780.4"
   r="1306.5699" /><radialGradient
   inkscape:collect="always"
   xlink:href="#id4"
   id="radialGradient12266"
   gradientUnits="userSpaceOnUse"
   gradientTransform="matrix(1.241975,0.03676859,-0.03999755,1.351079,-439.9381,-462.1222)"
   cx="2001.04"
   cy="1106.72"
   fx="2001.04"
   fy="1106.72"
   r="893.09998" /><linearGradient
   inkscape:collect="always"
   xlink:href="#id5"
   id="linearGradient12268"
   gradientUnits="userSpaceOnUse"
   x1="1143.66"
   y1="7958.2998"
   x2="1692.8"
   y2="7958.2998" /><linearGradient
   inkscape:collect="always"
   xlink:href="#id0"
   id="linearGradient3035"
   gradientUnits="userSpaceOnUse"
   x1="1073.64"
   y1="4650.3999"
   x2="1145.34"
   y2="4650.3999" />
  <defs
   id="defs2989">
   <linearGradient
   y2="19883.4"
   x2="12632.3"
   y1="17907.199"
   x1="8367.7305"
   gradientUnits="userSpaceOnUse"
   id="linearGradient3022">
    <stop
   id="stop2992"
   stop-color="#8AC9E4"
   offset="0" />
    <stop
   id="stop2994"
   stop-color="#008DCD"
   offset="0.360784" />
    <stop
   id="stop2996"
   stop-color="#54B6C6"
   offset="1" />
    <stop
   id="stop2998"
   stop-color="#54B6C6"
   offset="1" />
   </linearGradient>
  </defs>
  
  
  
 <linearGradient
   inkscape:collect="always"
   xlink:href="#id0"
   id="linearGradient3050"
   gradientUnits="userSpaceOnUse"
   x1="1073.64"
   y1="4650.3999"
   x2="1145.34"
   y2="4650.3999"
   gradientTransform="translate(-5500.014,-6750.005)" /><inkscape:perspective
   id="perspective2910"
   inkscape:persp3d-origin="0.5 : 0.33333333 : 1"
   inkscape:vp_z="1 : 0.5 : 1"
   inkscape:vp_y="0 : 1000 : 0"
   inkscape:vp_x="0 : 0.5 : 1"
   sodipodi:type="inkscape:persp3d" /><inkscape:perspective
   id="perspective2910-5"
   inkscape:persp3d-origin="0.5 : 0.33333333 : 1"
   inkscape:vp_z="1 : 0.5 : 1"
   inkscape:vp_y="0 : 1000 : 0"
   inkscape:vp_x="0 : 0.5 : 1"
   sodipodi:type="inkscape:persp3d" /></defs><sodipodi:namedview
   inkscape:window-height="689"
   inkscape:window-width="1014"
   inkscape:pageshadow="2"
   inkscape:pageopacity="0.0"
   guidetolerance="10.0"
   gridtolerance="10.0"
   objecttolerance="10.0"
   borderopacity="1.0"
   bordercolor="#666666"
   pagecolor="#ffffff"
   id="base"
   inkscape:zoom="0.658532"
   inkscape:cx="273.54922"
   inkscape:cy="275.85132"
   inkscape:window-x="0"
   inkscape:window-y="26"
   inkscape:current-layer="layer1"
   showgrid="false"
   inkscape:window-maximized="0" />
 <path
   style="fill:url(#id0);stroke:#bdbdbd;stroke-width:15;stroke-linecap:round;stroke-linejoin:round"
   id="path171"
   d="m 1145.34,3318.6 -71.7,40 0,2583.64 71.7,39.96 0,-2663.6 z" /><path
   style="fill:url(#id1);stroke:#616161;stroke-width:20;stroke-linecap:round;stroke-linejoin:round"
   id="path173"
   d="m 1780.34,2683.6 -71.7,40 0,2583.64 71.7,39.96 0,-2663.6 z" /><path
   style="fill:none;stroke:#bdbdbd;stroke-width:30;stroke-linecap:round;stroke-linejoin:round"
   id="path175"
   d="m 6302.18,127.77 1687.94,0 c 495.67,0 901.21,374.24 901.21,831.66 l 0,13996.1 c 0,669.17 -593.3,1216.68 -1318.43,1216.68 l -5145.84,0 c -725.13,0 -1318.43,-547.5 -1318.43,-1216.68 l 0.01,-8917.26 m 0,-2755.91 -0.01,-2322.89 c 0,-457.42 405.54,-831.66 901.21,-831.66 l 2281.28,0" /><path
   style="fill:#b5b5b5"
   id="path177"
   d="m 5743.66,53.24 0.18,0 80,0 0,15 c -12.86,0 -24.4,5.83 -32.1,14.97 -1.56,1.85 -2.94,3.77 -4.06,5.68 -1.16,1.97 -2.2,4.13 -3.06,6.39 l -0.02,-0.01 -0.04,0.11 c -0.85,2.27 -4.58,4.89 -7,4.89 l -80,0 c -5.06,0 -8.78,-5.4 -7,-10.14 5.08,-13.49 15.15,-24.55 27.91,-30.92 2.45,-1.22 5.06,-2.3 7.78,-3.18 l 0.02,0 c 5.5,-1.78 11.37,-2.77 17.39,-2.79 l 0,0 0,0 z" /><path
   style="fill:#b5b5b5"
   id="path179"
   d="m 5543.66,53.24 0.18,0 80,0 0,15 c -12.86,0 -24.4,5.83 -32.1,14.97 -1.56,1.85 -2.94,3.77 -4.06,5.68 -1.16,1.97 -2.2,4.13 -3.06,6.39 l -0.02,-0.01 -0.04,0.11 c -0.85,2.27 -4.58,4.89 -7,4.89 l -80,0 c -5.06,0 -8.78,-5.4 -7,-10.14 5.08,-13.49 15.15,-24.55 27.91,-30.92 2.45,-1.22 5.06,-2.3 7.78,-3.18 l 0.02,0 c 5.5,-1.78 11.37,-2.77 17.39,-2.79 l 0,0 0,0 z" /><path
   style="fill:#b5b5b5"
   id="path181"
   d="m 5343.66,53.24 0.18,0 80,0 0,15 c -12.86,0 -24.4,5.83 -32.1,14.97 -1.56,1.85 -2.94,3.77 -4.06,5.68 -1.16,1.97 -2.2,4.13 -3.06,6.39 l -0.02,-0.01 -0.04,0.11 c -0.85,2.27 -4.58,4.89 -7,4.89 l -80,0 c -5.06,0 -8.78,-5.4 -7,-10.14 5.08,-13.49 15.15,-24.55 27.91,-30.92 2.45,-1.22 5.06,-2.3 7.78,-3.18 l 0.02,0 c 5.5,-1.78 11.37,-2.77 17.39,-2.79 l 0,0 0,0 z" /><path
   style="fill:#b5b5b5"
   id="path183"
   d="m 5143.66,53.24 0.18,0 80,0 0,15 c -12.86,0 -24.4,5.83 -32.1,14.97 -1.56,1.85 -2.94,3.77 -4.06,5.68 -1.16,1.97 -2.2,4.13 -3.06,6.39 l -0.02,-0.01 -0.04,0.11 c -0.85,2.27 -4.58,4.89 -7,4.89 l -80,0 c -5.06,0 -8.78,-5.4 -7,-10.14 5.08,-13.49 15.15,-24.55 27.91,-30.92 2.45,-1.22 5.06,-2.3 7.78,-3.18 l 0.02,0 c 5.5,-1.78 11.37,-2.77 17.39,-2.79 l 0,0 0,0 z" /><path
   style="fill:url(#id2);stroke:#bdbdbd;stroke-width:15;stroke-linecap:round;stroke-linejoin:round"
   id="path185"
   d="m 5870.13,92.77 275.62,0 0,67.18 -1496.25,0 0,-67.18 528.06,0 c 7.06,-18.71 25.13,-32.03 46.28,-32.03 21.16,0 39.22,13.32 46.29,32.03 l 107.43,0 c 7.06,-18.71 25.13,-32.03 46.28,-32.03 21.16,0 39.22,13.32 46.29,32.03 l 107.43,0 c 7.06,-18.71 25.13,-32.03 46.28,-32.03 21.16,0 39.22,13.32 46.29,32.03 l 107.43,0 c 7.06,-18.71 25.13,-32.03 46.28,-32.03 21.16,0 39.22,13.32 46.29,32.03 l 0,0 0,0 z" /><path
   style="fill:#dedede;stroke:#595959;stroke-width:15"
   id="path187"
   d="m 8881.33,14947 c 0,668.26 -591.77,1215.16 -1315.02,1215.16 l -5132.6,0 c -723.26,0 -1315.07,-546.82 -1315.07,-1215.16 l 0,-13978.6 c 0,-456.83 404.5,-830.63 898.91,-830.63 l 5964.88,0 c 494.4,0 898.9,373.8 898.9,830.63 l 0,13978.6 z" /><path
   style="fill:url(#id3)"
   id="path189"
   d="m 1143.66,14925.8 c 0,666.26 587.96,1211.37 1306.57,1211.37 718.61,0 1306.57,-545.11 1306.57,-1211.37 0,-666.26 -587.96,-1211.37 -1306.57,-1211.37 -718.61,0 -1306.57,545.11 -1306.57,1211.37 l 0,0 0,0 z" /><path
   style="fill:url(#id4);fill-opacity:1"
   id="path191"
   d="m 2929.86,990.8 c 0,-455.42 -401.89,-828.03 -893.1,-828.03 -491.21,0 -893.1,372.61 -893.1,828.03 0,455.42 401.89,828.03 893.1,828.03 491.21,0 893.1,-372.61 893.1,-828.03 z" /><path
   style="fill:url(#id5)"
   id="path193"
   d="m 1692.8,1105 -549.14,-114.2 0,13935 549.14,-134 0,-13686.8 0,0 0,0 z" /><path
   style="fill:url(#id6);fill-opacity:1"
   id="path195"
   d="m 6243.18,14925.8 c 0,666.25 587.96,1211.37 1306.57,1211.37 718.61,0 1306.55,-545.12 1306.55,-1211.37 0,-666.25 -587.94,-1211.37 -1306.55,-1211.37 -718.61,0 -1306.57,545.12 -1306.57,1211.37 l 0,0 0,0 z" /><path
   style="fill:url(#id7)"
   id="path197"
   d="m 7963.2,162.77 c 491.21,0 893.1,372.61 893.1,828.03 0,455.42 -401.89,828.03 -893.1,828.03 -491.21,0 -893.1,-372.61 -893.1,-828.03 0,-455.42 401.89,-828.03 893.1,-828.03 l 0,0 0,0 z" /><path
   style="fill:#444243;stroke:#444243;stroke-width:17.60000038"
   id="path199"
   d="m 8307.21,14791.8 c 0,410.52 -335.89,746.4 -746.41,746.4 l -5121.67,0 c -410.52,0 -746.33,-335.88 -746.33,-746.4 l 0,-13686.8 c 0,-188.74 154.41,-343.18 343.19,-343.18 l 5928,0 c 188.74,0 343.22,154.52 343.22,343.18 l 0,13686.8 z" /><path
   style="fill:url(#id8)"
   id="path201"
   d="m 2036.76,162.77 5926.44,0 0.8,599.03 -5928,0 0.76,-599.03 0,0 z" /><path
   style="fill:url(#id9)"
   id="path203"
   d="m 8856.3,990.8 0,13935 -549.1,-134 0,-13663.5 549.1,-137.51 0,0.01 0,0 z" /><path
   style="fill:url(#id10)"
   id="path205"
   d="m 2439.16,15538.2 5121.68,0 -11.09,599.01 -5099.52,0 -11.07,-599.01 0,0 0,0 z" /><path
   style="fill:url(#id11);stroke:none"
   id="path207"
   d="m 8307.21,14791.8 c 0,410.52 -335.89,746.4 -746.41,746.4 l -5121.67,0 c -410.52,0 -746.33,-335.88 -746.33,-746.4 l 0,-13686.8 c 0,-188.74 154.41,-343.18 343.19,-343.18 l 5928,0 c 188.74,0 343.22,154.52 343.22,343.18 l 0,13686.8 z" /><path
   style="fill:#131516"
   id="path209"
   d="m 2570,14138.6 c 270.15,0 489.24,219.09 489.24,489.24 0,270.15 -219.09,489.24 -489.24,489.24 -270.15,0 -489.24,-219.09 -489.24,-489.24 0,-270.15 219.09,-489.24 489.24,-489.24 z" /><path
   style="fill:#131516"
   id="path211"
   d="m 2175.93,12145.3 c 0,-619.35 200.32,-1194.68 543.14,-1671.92 62.92,-85.2 201.09,-117.74 307.98,-34.62 l 401.83,439.86 c 11.71,10.27 28.78,29.23 17.26,44.64 -266.93,357.29 -422.98,752.16 -422.98,1222.04 0,469.88 156.05,864.75 422.98,1222.04 11.52,15.41 -5.55,34.37 -17.26,44.64 l -401.83,439.86 c -106.89,83.12 -245.06,50.58 -307.98,-34.62 -342.82,-477.24 -543.14,-1052.57 -543.14,-1671.92 z" /><path
   style="fill:#131516"
   id="path213"
   d="m 7824.07,12145.3 c 0,619.35 -200.32,1194.68 -543.14,1671.92 -62.92,85.2 -201.09,117.74 -307.98,34.62 l -401.83,-439.86 c -11.71,-10.27 -28.78,-29.23 -17.26,-44.64 266.93,-357.29 422.98,-752.16 422.98,-1222.04 0,-469.88 -156.05,-864.75 -422.98,-1222.04 -11.52,-15.41 5.55,-34.37 17.26,-44.64 l 401.83,-439.86 c 106.89,-83.12 245.06,-50.58 307.98,34.62 342.82,477.24 543.14,1052.57 543.14,1671.92 l 0,0 z" /><path
   style="fill:#131516"
   id="path215"
   d="m 5000,9321.18 c 619.35,0 1194.68,200.32 1671.92,543.14 85.2,62.92 117.74,201.09 34.62,307.98 l -439.86,401.83 c -10.27,11.71 -29.23,28.78 -44.64,17.26 -357.29,-266.93 -752.16,-422.98 -1222.04,-422.98 -469.88,0 -864.75,156.05 -1222.04,422.98 -15.41,11.52 -34.37,-5.55 -44.64,-17.26 l -439.86,-401.83 c -83.12,-106.89 -50.58,-245.06 34.62,-307.98 C 3805.32,9521.5 4380.65,9321.18 5000,9321.18 z" /><path
   style="fill:#131516"
   id="path217"
   d="m 5000,14969.3 c -619.35,0 -1194.68,-200.32 -1671.92,-543.14 -85.2,-62.92 -117.74,-201.09 -34.62,-307.98 l 439.86,-401.83 c 10.27,-11.71 29.23,-28.78 44.64,-17.26 357.29,266.93 752.16,422.98 1222.04,422.98 469.88,0 864.75,-156.05 1222.04,-422.98 15.41,-11.52 34.37,5.55 44.64,17.26 l 439.86,401.83 c 83.12,106.89 50.58,245.06 -34.62,307.98 -477.24,342.82 -1052.57,543.14 -1671.92,543.14 z" /><path
   style="fill:#131516"
   id="path219"
   d="m 5000,13778.8 c 902.03,0 1633.55,-731.52 1633.55,-1633.55 0,-902.03 -731.52,-1633.55 -1633.55,-1633.55 -902.03,0 -1633.55,731.52 -1633.55,1633.55 0,902.03 731.52,1633.55 1633.55,1633.55 z" /><path
   style="fill:url(#id12);stroke:#5fb2bf;stroke-width:7.61999989"
   id="path221"
   d="m 5000,14122.2 c 1091.6,0 1976.85,-885.25 1976.85,-1976.85 0,-1091.6 -885.25,-1976.85 -1976.85,-1976.85 -1091.6,0 -1976.85,885.25 -1976.85,1976.85 0,1091.6 885.25,1976.85 1976.85,1976.85 z" /><path
   style="fill:#131516;stroke:#5fb2bf;stroke-width:7.61999989"
   id="path223"
   d="m 5000,13698.1 c 857.44,0 1552.83,-695.39 1552.83,-1552.83 0,-857.44 -695.39,-1552.83 -1552.83,-1552.83 -857.44,0 -1552.83,695.39 -1552.83,1552.83 0,857.44 695.39,1552.83 1552.83,1552.83 z" /><path
   style="fill:url(#id13);stroke:#666666;stroke-width:7.61999989"
   id="path225"
   d="m 4999.99,14870.3 c -592,0 -1139.85,-189 -1586.82,-509.78 -27.33,-28.71 -51.33,-81.11 -15,-131.22 l 420.67,-439.78 c 9.41,-10 16.19,-14.34 30.19,-4.41 325.74,229 722.62,363.59 1150.96,363.59 428.37,0 825.26,-134.59 1150.96,-363.59 14,-9.93 20.82,-5.59 30.22,4.41 l 420.67,439.78 c 36.37,50.11 12.33,102.51 -15,131.22 -446.93,320.78 -994.81,509.78 -1586.85,509.78 z m 0,-5450.15 c 592.04,0 1139.92,188.96 1586.85,509.74 27.33,28.7 51.37,81.07 15,131.22 l -420.67,439.78 c -9.4,10.03 -16.22,14.29 -30.22,4.41 -325.7,-229 -722.59,-363.52 -1150.96,-363.52 -428.34,0 -825.22,134.52 -1150.96,363.52 -14,9.88 -20.78,5.62 -30.19,-4.41 l -420.67,-439.78 c -36.33,-50.15 -12.33,-102.52 15,-131.22 446.97,-320.78 994.82,-509.74 1586.82,-509.74 z m 2725.04,2725.03 c 0,592 -188.89,1139.93 -509.67,1586.86 -28.71,27.29 -81.11,51.33 -131.33,15 l -439.67,-420.71 c -10.11,-9.37 -14.37,-16.15 -4.52,-30.22 229.11,-325.7 363.59,-722.56 363.59,-1150.93 0,-428.29 -134.48,-825.22 -363.59,-1150.88 -9.85,-14.08 -5.59,-20.93 4.52,-30.19 l 439.67,-420.74 c 50.22,-36.41 102.62,-12.26 131.33,15 320.78,446.93 509.67,994.81 509.67,1586.81 l 0,0 0,0 z m -5450.08,0 c 0,-592 188.96,-1139.88 509.78,-1586.81 28.63,-27.26 81.04,-51.41 131.22,-15 l 439.7,420.74 c 10.12,9.26 14.34,16.11 4.52,30.19 -229.14,325.66 -363.63,722.59 -363.63,1150.88 0,428.37 134.49,825.23 363.63,1150.93 9.82,14.07 5.6,20.85 -4.52,30.22 l -439.7,420.71 c -50.18,36.33 -102.59,12.29 -131.22,-15 -320.82,-446.93 -509.78,-994.86 -509.78,-1586.86 l 0,0 0,0 z m 2725.04,1487.34 c 821.26,0 1487.26,-666 1487.26,-1487.34 0,-821.22 -666,-1487.22 -1487.26,-1487.22 -821.22,0 -1487.22,666 -1487.22,1487.22 0,821.34 666,1487.34 1487.22,1487.34 z" /><path
   style="color:#000000;fill:#11161c;fill-opacity:1;fill-rule:nonzero;stroke:#000000;stroke-width:49.999897;stroke-linecap:butt;stroke-linejoin:bevel;stroke-miterlimit:4;stroke-opacity:1;stroke-dasharray:none;stroke-dashoffset:0;marker:none;visibility:visible;display:inline;overflow:visible;enable-background:accumulate"
   id="path227"
   d="m 7663.25,1551.91 c 0,-107.74 -88,-195.93 -195.6,-195.93 l -4935.29,0 c -107.52,0 -195.52,88.19 -195.52,195.93 l 0,6225.22 c 0,107.78 88,195.85 195.52,195.85 l 4935.29,0 c 107.6,0 195.6,-88.07 195.6,-195.85 l 0,-6225.22 0,0 0,0 z" /><path
   style="fill:url(#id14);stroke:#5fb2bf;stroke-width:7.61999989"
   id="path229"
   d="m 4964.65,10592.4 70.71,0 0,-423.67 -70.71,0 0,423.67 z m 70.71,3105.67 -70.71,0 0,423.7 70.71,0 0,-423.7 z m -1588.19,-1517.52 0,-70.63 -423.74,0 0,70.63 423.74,0 0,0 z m 3105.67,-70.63 0,70.63 423.7,0 0,-70.63 -423.7,0 z m -2675.81,-1037.71 49.92,-50 -299.59,-299.59 -49.96,50 299.63,299.59 z m 2245.96,2146.04 -49.96,49.96 299.62,299.6 49.97,-49.89 -299.63,-299.67 z m -49.96,-2196.04 49.96,50 299.63,-299.59 -49.97,-50 -299.62,299.59 z m -2146.08,2246 -49.92,-49.96 -299.63,299.67 49.96,49.89 299.59,-299.6 z m 875.59,-2663.59 70.3,-7.41 -44.3,-421.4 -70.29,7.4 44.29,421.41 z m 394.89,3081.22 -70.22,7.37 44.22,421.41 70.34,-7.41 -44.34,-421.37 z m -1738.07,-1343.18 -7.41,-70.26 -421.33,44.33 7.33,70.22 421.41,-44.29 0,0 0,0 z m 3081.29,-394.85 7.38,70.18 421.37,-44.26 -7.37,-70.18 -421.38,44.26 z m -2769.66,-752.41 44.44,-54.85 -329.26,-266.63 -44.4,54.89 329.22,266.59 z m 2458,1899.59 -44.45,54.93 329.3,266.66 44.48,-54.92 -329.33,-266.67 z m -279.22,-2178.78 54.88,44.52 266.71,-329.33 -54.93,-44.48 -266.66,329.29 0,0 z m -1899.52,2458 -54.89,-44.4 -266.71,329.26 54.89,44.48 266.71,-329.34 z m 1076.96,-2777 70.22,7.41 44.34,-421.41 -70.34,-7.4 -44.22,421.4 z m -254.37,3096 -70.3,-7.37 -44.29,421.37 70.29,7.41 44.3,-421.41 z m -1420.89,-1675.22 7.41,-70.18 -421.41,-44.26 -7.33,70.18 421.33,44.26 z m 3096.08,254.41 -7.38,70.26 421.38,44.29 7.37,-70.22 -421.37,-44.33 0,0 0,0 z m -2552.67,-1311.67 54.89,-44.52 -266.71,-329.29 -54.89,44.48 266.71,329.33 0,0 0,0 z m 2009.29,2369.08 -54.88,44.4 266.66,329.34 54.93,-44.48 -266.71,-329.26 z m 179.89,-2189.26 44.45,54.85 329.33,-266.59 -44.48,-54.89 -329.3,266.63 z m -2369.11,2009.37 -44.44,-54.93 -329.22,266.67 44.4,54.92 329.26,-266.66 0,0 0,0 z" /><path
   style="fill:url(#id15);stroke:#666666;stroke-width:7.61999989"
   id="path231"
   d="m 2569.99,14175.8 c 249.66,0 452.15,202.4 452.15,452.11 0,249.63 -202.49,452.07 -452.15,452.07 -249.63,0 -452.04,-202.44 -452.04,-452.07 0,-249.71 202.41,-452.11 452.04,-452.11 z" /><path
   style="fill:#ffffff"
   id="path233"
   d="m 5330.62,14310.6 -661.19,0 0,63.71 661.19,0 0,-63.71 0,0 z m 0,111.37 -330.59,0 0,63.63 330.59,0 0,-63.63 z m 0,111.34 -330.59,0 0,63.66 330.59,0 0,-63.66 z m 0,111.4 -330.59,0 0,63.6 330.59,0 0,-63.6 z" /><path
   style="fill:#ffffff"
   id="path235"
   d="m 2407.99,12042.6 0,205.11 50.55,0 0,-205.11 -50.55,0 z m 274.92,58.11 0,-58.11 -173.88,84.04 0,37.07 173.88,84 0,-58.07 -92,-44.45 92,-44.48 z m 180.52,0 0,-58.11 -173.78,84.04 0,37.07 173.78,84 0,-58.07 -92,-44.45 92,-44.48 z" /><path
   style="fill:#ffffff"
   id="path237"
   d="m 7592.03,12247.7 0,-205.11 -50.49,0 0,205.11 50.49,0 z m -274.86,-58.07 0,58.07 173.78,-84 0,-37.07 -173.78,-84.04 0,58.11 92,44.48 -92,44.45 z m -180.63,0 0,58.07 173.86,-84 0,-37.07 -173.86,-84.04 0,58.11 92,44.48 -92,44.45 z" /><path
   style="fill:#ffffff"
   id="path239"
   d="m 5108.4,9678.39 0,205.15 -50.56,0 0,-205.15 50.56,0 z m -296.63,58.15 0,-58.15 173.77,84.04 0,37.11 -173.77,84 0,-58.11 92,-44.45 -92,-44.44 0,0 z m 376.59,-58.15 0,205.15 -50.59,0 0,-205.15 50.59,0 z" /><path
   style="fill:#ffffff"
   id="path241"
   d="m 2570.03,14792.2 c 90.33,0 164.4,-74.07 164.4,-164.4 0,-48.04 -20.26,-90.63 -52.59,-120.19 -36.89,-33.81 9,-87.41 49.33,-49 44.67,42.59 72.6,102.71 72.6,169.19 0,129.03 -104.74,233.74 -233.74,233.74 -129.04,0 -233.67,-104.71 -233.67,-233.74 0,-66.48 27.85,-126.6 72.55,-169.19 40.34,-38.41 86.26,15.19 49.3,49 -32.3,29.56 -52.56,72.15 -52.56,120.19 0,90.33 74.12,164.4 164.38,164.4 l 0,0 z m -10,-431.4 20,0 c 15.14,0 27.4,12.4 27.4,27.52 l 0,300.07 c 0,15.15 -12.26,27.41 -27.4,27.41 l -20,0 c -15.08,0 -27.49,-12.26 -27.49,-27.41 l 0,-300.07 c 0,-15.12 12.41,-27.52 27.49,-27.52 z" /><g
   id="g243">
   <path
   style="fill:#ffffff"
   id="path245"
   d="m 4820.36,8678.13 -61,0 0,30.44 c -25.52,-19.18 -32.33,-30.44 -91.59,-30.44 -59.34,0 -152.6,68.26 -152.6,152.59 0,84.19 93.26,152.6 152.6,152.6 59.26,0 66.07,-11.41 91.59,-30.56 l 0,30.56 61,0 0,-305.19 z" />
   <path
   style="fill:#252425"
   id="path247"
   d="m 4667.77,8739.13 c 50.59,0 91.59,41 91.59,91.59 0,50.48 -41,91.48 -91.59,91.48 -50.52,0 -91.52,-41 -91.52,-91.48 0,-50.59 41,-91.59 91.52,-91.59 z" />
   <path
   style="fill:#ffffff"
   id="path249"
   d="m 4866.84,8678.13 61.07,0 0,30.44 c 25.49,-19.18 32.26,-30.44 91.52,-30.44 59.34,0 152.6,68.26 152.6,152.59 l 0,152.6 -61,0 0,-152.6 c 0,-50.59 -41,-91.59 -91.6,-91.59 -50.52,0 -91.52,41 -91.52,91.59 l 0,152.6 -61.07,0 0,-305.19 z" />
   <path
   style="fill:#ffffff"
   id="path251"
   d="m 4270.99,8678.13 183.18,0 0,61 -183.18,0 c -16.82,0 -30.56,13.67 -30.56,30.48 0,16.93 13.74,30.56 30.56,30.56 l 122.04,0 c 50.62,0 91.62,41 91.62,91.55 0,50.6 -41,91.6 -91.62,91.6 l -183.08,0 0,-61.12 183.08,0 c 16.92,0 30.59,-13.59 30.59,-30.48 0,-16.89 -13.67,-30.52 -30.59,-30.52 l -122.04,0 c -50.56,0 -91.56,-41 -91.56,-91.59 0,-50.48 41,-91.48 91.56,-91.48 l 0,0 0,0 z" />
   <path
   style="fill:#ffffff"
   id="path253"
   d="m 5285.84,8678.13 183.11,0 0,61 -183.11,0 c -16.89,0 -30.48,13.67 -30.48,30.48 0,16.93 13.59,30.56 30.48,30.56 l 122.11,0 c 50.48,0 91.48,41 91.48,91.55 0,50.6 -41,91.6 -91.48,91.6 l -183.15,0 0,-61.12 183.15,0 c 16.82,0 30.48,-13.59 30.48,-30.48 0,-16.89 -13.66,-30.52 -30.48,-30.52 l -122.11,0 c -50.59,0 -91.59,-41 -91.59,-91.59 0,-50.48 41,-91.48 91.59,-91.48 l 0,0 0,0 z" />
   <path
   style="fill:#ffffff"
   id="path255"
   d="m 5820.65,8678.13 -61.03,0 0,30.44 c -25.59,-19.18 -32.26,-30.44 -91.59,-30.44 -59.26,0 -152.6,68.26 -152.6,152.59 0,84.19 93.34,152.6 152.6,152.6 59.33,0 66,-11.41 91.59,-30.56 l 0,30.56 61.03,0 0,-305.19 z" />
   <path
   style="fill:#2b2b2c"
   id="path257"
   d="m 5668.03,8739.13 c 50.59,0 91.59,41 91.59,91.59 0,50.48 -41,91.48 -91.59,91.48 -50.6,0 -91.6,-41 -91.6,-91.48 0,-50.59 41,-91.59 91.6,-91.59 z" />
   <path
   style="fill:#ffffff"
   id="path259"
   d="m 5857.36,8680.32 0,-69.93 -24.96,0 0,-14.26 66.85,0 0,14.26 -24.89,0 0,69.93 -17,0 z" />
   <path
   style="fill:#ffffff"
   id="path261"
   d="m 5905.91,8680.32 0,-84.19 25.45,0 15.26,57.41 15.03,-57.41 25.52,0 0,84.19 -15.77,0 0,-66.34 -16.75,66.34 -16.29,0 -16.71,-66.34 0,66.34 -15.74,0 z" />
  </g><g
   id="g263">
   <defs
   id="defs265">
    <linearGradient
   y2="3416.01"
   x2="7021.3599"
   y1="3040.01"
   x1="7021.3599"
   gradientUnits="userSpaceOnUse"
   id="id16">
     <stop
   id="stop268"
   stop-color="#EFB000"
   offset="0" />
     <stop
   id="stop270"
   stop-color="#A5732B"
   offset="0.6" />
     <stop
   id="stop272"
   stop-color="#492A28"
   offset="1" />
     <stop
   id="stop274"
   stop-color="#492A28"
   offset="1" />
    </linearGradient>
   </defs>
   <path
   style="fill:#131516"
   id="path276"
   d="m 2361.84,3669.98 5276.41,0 0,-1564.44 -5276.41,0 0,1564.44 z" />
   <path
   style="fill:#ffffff"
   id="path278"
   d="m 2695.51,3579.39 c 0,-22 -18.6,-39.78 -41.56,-39.78 -22.96,0 -41.55,17.78 -41.55,39.78 0,22 18.59,39.81 41.55,39.81 22.96,0 41.56,-17.81 41.56,-39.81 z m 130.52,-33.26 c 16.74,-10.93 38.92,-7.81 51.96,7.19 13.15,15 13.15,37.4 0,52.4 -13.04,15 -35.22,18.08 -51.96,7.19 l 0,33 -22.04,0 0,-104.37 22.04,0 0,4.59 0,0 0,0 z m 251.33,33.26 c 0,-22 -18.63,-39.78 -41.59,-39.78 -22.93,0 -41.52,17.78 -41.52,39.78 0,22 18.59,39.81 41.52,39.81 11.85,0 22.48,-4.66 30.07,-12.29 l -15.89,-14.59 15.89,14.59 -15.89,-14.59 c -4.11,4.07 -9.92,6.25 -15.78,5.81 -5.92,-0.52 -11.22,-3.52 -14.55,-8.22 l 56.22,0 c 1,-3.3 1.52,-6.85 1.52,-10.52 l 0,0 0,0 z m 1380.07,0 c 0,-22 -18.59,-39.78 -41.52,-39.78 -22.96,0 -41.55,17.78 -41.55,39.78 0,22 18.59,39.81 41.55,39.81 11.86,0 22.49,-4.66 30.04,-12.29 l -15.92,-14.59 15.92,14.59 -15.92,-14.59 c -4.04,4.07 -9.82,6.25 -15.71,5.81 -5.89,-0.52 -11.29,-3.52 -14.55,-8.22 l 56.18,0 c 1,-3.3 1.48,-6.85 1.48,-10.52 l 0,0 0,0 z m 821.3,0 c 0,-22 -18.59,-39.78 -41.56,-39.78 -22.96,0 -41.55,17.78 -41.55,39.78 0,22 18.59,39.81 41.55,39.81 11.78,0 22.48,-4.66 30.08,-12.29 l -15.89,-14.59 15.89,14.59 -15.89,-14.59 c -4.11,4.07 -9.93,6.25 -15.82,5.81 -5.89,-0.52 -11.22,-3.52 -14.59,-8.22 l 56.3,0 c 0.96,-3.3 1.48,-6.85 1.48,-10.52 l 0,0 0,0 z m 2098.81,0 c 0,-22 -18.59,-39.78 -41.51,-39.78 -23,0 -41.6,17.78 -41.6,39.78 0,22 18.6,39.81 41.6,39.81 11.81,0 22.51,-4.66 30.11,-12.29 l -15.93,-14.59 15.93,14.59 -15.93,-14.59 c -4.07,4.07 -9.85,6.25 -15.78,5.81 -5.89,-0.52 -11.26,-3.52 -14.59,-8.22 l 56.3,0 c 0.89,-3.3 1.4,-6.85 1.4,-10.52 l 0,0 0,0 z m -4120.11,-5.85 c 0,-12.78 -6.44,-24.41 -16.7,-30.22 -10.33,-5.78 -22.7,-4.71 -32,2.81 l 0,-4.59 -22,0 0,76 22,0 0,-44 c 0,-7.15 6,-12.82 13.41,-12.82 7.29,0 13.29,5.67 13.29,12.82 l 0,44 22,0 0,-44 z m 318.34,-9.89 c 0,-10.04 -7.97,-19.04 -19.93,-22.52 -11.89,-3.52 -25.3,-0.74 -33.59,7 -8.22,7.63 -9.48,18.59 -3.3,27.41 3.22,4.18 7.7,7.26 12.82,8.85 5.88,1.85 11.88,3.41 17.88,4.52 5,1 7.6,3.29 6.15,5.63 -1.44,2.22 -6.55,3.66 -11.85,3.37 -5.41,-0.34 -9.33,-2.3 -9.33,-4.71 l 0,-2.22 -22,0 0,2.22 c 0,11.19 8.89,21.15 22.15,24.78 13.22,3.63 27.88,0.15 36.48,-8.66 8.59,-8.78 9.29,-21 1.59,-30.41 -4.41,-4.97 -10.48,-8.26 -17.22,-9.34 -5.37,-0.96 -10.59,-2.18 -15.78,-3.66 -2.89,-0.93 -3.59,-2.37 -1.85,-3.59 1.81,-1.26 5.66,-1.93 9.41,-1.56 3.77,0.37 6.37,1.56 6.37,2.89 l 0,1.07 22,0 0,-1.07 0,0 0,0 z m 191.4,15.74 c 0,-22 -18.63,-39.78 -41.52,-39.78 -23,0 -41.62,17.78 -41.62,39.78 0,22 18.62,39.81 41.62,39.81 22.89,0 41.52,-17.81 41.52,-39.81 z m 109,6.15 0,-44 22,0 0,44 c 0,7.07 6,12.78 13.37,12.78 7.41,0 13.41,-5.71 13.41,-12.78 l 0,-44 22,0 0,76 -22,0 0,-4.63 c -9.33,7.48 -21.7,8.63 -32,2.81 -10.3,-5.81 -16.78,-17.4 -16.78,-30.18 l 0,0 0,0 z m 203.6,-39.41 0,-4.59 -22,0 0,76 22,0 0,-38.15 c 0,-5 2.07,-9.67 5.74,-13.22 3.66,-3.56 8.66,-5.45 13.85,-5.45 l 0,-21 c -7,0.41 -13.71,2.6 -19.59,6.41 z m 193.66,5.78 c -7.59,-7.59 -18.26,-12.3 -30.07,-12.3 -22.96,0 -41.56,17.78 -41.56,39.78 0,0 0,0 0,0 0,22 18.6,39.81 41.56,39.81 11.81,0 22.48,-4.77 30.07,-12.37 l -15.89,-14.51 c -3.59,3.59 -8.59,5.81 -14.18,5.81 -10.82,0 -19.56,-8.41 -19.56,-18.74 0,0 0,0 0,0 0,-10.33 8.74,-18.67 19.56,-18.67 5.59,0 10.59,2.19 14.18,5.71 l 15.89,-14.52 z m 2547.34,27.44 -11.34,-37.81 -19.66,0 -11.34,37.81 -11.29,-37.81 -22.89,0 22.74,76 22.85,0 9.78,-32.48 9.74,32.48 22.85,0 22.78,-76 -22.82,0 -11.4,37.81 m -558.6,-62.55 -22.03,0 0,21.11 22.03,0 0,-21.11 m 0,24.74 -22.03,0 0,76 22.03,0 0,-76 m -456.14,38 24.51,38 -25.89,0 -11.51,-17.93 -11.6,17.93 -25.89,0 24.52,-38 -24.55,-38 25.92,0 11.6,18 11.51,-18 25.97,0 -24.59,38 m -737.19,-38 -20.19,31.26 0,-56 -22,0 0,100.74 22,0 0,-31.74 24.78,31.74 27.52,0 -30.3,-38.74 24.12,-37.26 -25.93,0 m -335.3,-24.74 -22,0 0,21.11 22,0 0,-21.11 m 0,104.4 0,-79.66 -22,0 0,79.66 c 0,2 -1.7,3.6 -3.77,3.6 l -6.34,0 0,21.11 6.34,0 c 14.18,0 25.77,-11.11 25.77,-24.71 m 926.71,-41.81 c 0,-22 -18.6,-39.78 -41.48,-39.78 -23,0 -41.6,17.78 -41.6,39.78 0,22 18.6,39.81 41.6,39.81 22.88,0 41.48,-17.81 41.48,-39.81 z m -766.41,33.52 0,4.63 22,0 0,-76 -22,0 0,44 c 0,7.07 -6,12.78 -13.41,12.78 -7.4,0 -13.4,-5.71 -13.4,-12.78 l 0,-44 -22,0 0,44 c 0,12.78 6.51,24.37 16.81,30.18 10.33,5.82 22.7,4.67 32,-2.81 l 0,0 0,0 z m 514.96,-66.78 0,-29.33 -22.03,0 0,100.74 22.03,0 0,-4.63 c 16.71,10.89 38.85,7.81 51.97,-7.19 13.07,-15 13.07,-37.4 0,-52.4 -13.12,-15 -35.26,-18.12 -51.97,-7.19 l 0,0 0,0 z m 722.19,-8.22 -18.22,0 c -0.52,-0.11 -1,0.07 -1.34,0.44 -0.4,0.37 -0.52,0.78 -0.48,1.26 l 0,1.93 0,0 10,0 0,21.07 -10,0 0,54.93 -22,0 0,-54.93 -10.04,0 0,-21.07 10.04,0 c 0,-13.63 11.48,-24.74 25.82,-24.74 l 16.22,0 0,21.11 0,0 0,0 z m 283.85,1.81 0,21 c -5.19,0 -10.11,1.89 -13.81,5.45 -3.67,3.55 -5.67,8.22 -5.67,13.22 l 0,38.15 -22.04,0 0,-76 22.04,0 0,4.59 c 5.81,-3.81 12.55,-6 19.48,-6.41 l 0,0 0,0 z m 129.07,6.41 0,-4.59 -22.07,0 0,76 22.07,0 0,-44 c 0,-7.15 5.93,-12.82 13.34,-12.82 7.4,0 13.4,5.67 13.4,12.82 l 0,44 22,0 0,-44 c 0,-7.15 6,-12.82 13.38,-12.82 7.4,0 13.4,5.67 13.4,12.82 l 0,44 22,0 0,-44 c 0,-13.41 -8.18,-25.56 -20.92,-31 -12.74,-5.41 -27.67,-3.22 -38.08,5.7 -10.78,-10.63 -26.81,-11.52 -38.52,-2.11 l 0,0 0,0 z m 470.86,0 0,-4.59 22,0 0,76 -22,0 0,-4.63 c -16.74,10.89 -38.93,7.81 -52,-7.19 -13.12,-15 -13.12,-37.4 0,-52.4 13.07,-15 35.26,-18.12 52,-7.19 l 0,0 0,0 z m 177.44,-6.41 0,21 c -5.18,0 -10.18,1.89 -13.85,5.45 -3.63,3.55 -5.71,8.22 -5.71,13.22 l 0,38.15 -22,0 0,-76 22,0 0,4.59 c 5.78,-3.81 12.6,-6 19.56,-6.41 z" />
   <path
   style="fill:#131516"
   id="path280"
   d="m 2673.51,3579.39 c 0,-10.33 -8.74,-18.67 -19.56,-18.67 -10.78,0 -19.59,8.34 -19.59,18.67 0,10.37 8.81,18.78 19.59,18.78 10.82,0 19.56,-8.41 19.56,-18.78 z m 2547.44,-10.48 32.41,0 c -3.63,-5.19 -9.71,-8.19 -16.19,-8.19 -6.52,0 -12.55,3 -16.22,8.19 m -821.18,0 32.37,0 c -3.71,-5.19 -9.74,-8.19 -16.19,-8.19 -6.52,0 -12.59,3 -16.18,8.19 m -654.6,10.48 c 0,-10.33 -8.74,-18.67 -19.52,-18.67 -10.81,0 -19.62,8.34 -19.62,18.67 0,10.37 8.81,18.78 19.62,18.78 10.78,0 19.52,-8.41 19.52,-18.78 z m 1893.08,0 c 0,-10.33 -8.71,-18.67 -19.48,-18.67 -10.86,0 -19.6,8.34 -19.6,18.67 0,10.37 8.74,18.78 19.6,18.78 10.77,0 19.48,-8.41 19.48,-18.78 z m -190.3,0 c 0,-10.33 -8.78,-18.67 -19.59,-18.67 -10.82,0 -19.59,8.34 -19.59,18.67 0,10.37 8.77,18.78 19.59,18.78 10.81,0 19.59,-8.41 19.59,-18.78 z m -2582.78,0.22 c 0,-10.37 -8.77,-18.7 -19.63,-18.7 -10.77,0 -19.51,8.33 -19.51,18.7 0,10.33 8.74,18.71 19.51,18.71 10.86,0 19.63,-8.38 19.63,-18.71 z m 154.45,-10.7 32.33,0 c -3.59,-5.19 -9.7,-8.19 -16.18,-8.19 -6.45,0 -12.52,3 -16.15,8.19 m 4300.22,0 32.41,0 c -3.71,-5.19 -9.71,-8.19 -16.22,-8.19 -6.49,0 -12.52,3 -16.19,8.19 m -305.07,10.48 c 0,-10.33 -8.78,-18.67 -19.56,-18.67 -10.81,0 -19.56,8.34 -19.56,18.67 0,10.37 8.75,18.78 19.56,18.78 10.78,0 19.56,-8.41 19.56,-18.78 z" />
   <path
   style="fill:#efaf04"
   id="path282"
   d="m 2393.03,2142.06 5208.77,0 0,1328.85 -5208.77,0 0,-1328.85 0,0 0,0 z" />
   <path
   style="fill:url(#id16)"
   id="path284"
   d="m 6486.77,3391.06 0,0 m 1101,-218.34 14,0 0,7.6 -6,0 0,30.44 -8,0 0,-38.04 m -39.74,0 23.81,0 0,7.6 -23.81,0 0,-7.6 m 0,30.45 23.81,0 0,7.59 -23.81,0 0,-7.59 m -55.6,-30.45 0,0 0,0 0,0 0,0 m 15.93,7.6 7.89,0 0,30.44 -7.89,0 0,-30.44 m 7.89,-7.6 8,0 0,7.6 -8,0 0,-7.6 m 8,7.6 7.92,0 0,30.44 -7.92,0 0,-30.44 m -31.82,-7.6 15.93,0 0,7.6 -8,0 0,30.44 -7.93,0 0,-38.04 m -15.89,-7.59 7.97,0 0,15.19 -7.97,0 0,-15.19 m 0,22.78 7.97,0 0,15.26 -7.97,0 0,-15.26 m -63.55,-15.19 7.96,0 0,15.19 -7.96,0 0,-15.19 m -56.82,0 7.86,0 0,7.6 -7.86,0 0,-7.6 m -23.85,15.19 7.93,0 0,15.26 -7.93,0 0,-15.26 m -30.55,15.26 30.55,0 0,7.59 -30.55,0 0,-7.59 m -31.82,-22.85 7.96,0 0,7.59 -7.96,0 0,-7.59 m -7.92,-22.78 23.81,0 0,7.59 -23.81,0 0,-7.59 m 0,45.63 23.81,0 0,7.59 -23.81,0 0,-7.59 m -39.71,-45.63 15.85,0 0,7.59 -15.85,0 0,-7.59 m -7.96,7.59 7.96,0 0,7.59 -7.96,0 0,-7.59 m 23.81,22.78 8,0 0,15.26 -8,0 0,-15.26 m 214.6,-98.08 31.74,0 0,7.71 -31.74,0 0,-7.71 m -8,7.71 8,0 0,7.59 -8,0 0,-7.59 m 8,7.59 23.77,0 0,7.59 -23.77,0 0,-7.59 m 23.77,7.59 7.97,0 0,7.6 -7.97,0 0,-7.6 m -31.77,7.6 31.77,0 0,7.59 -31.77,0 0,-7.59 m 47.66,-30.49 7.93,0 0,30.49 -7.93,0 0,-30.49 m 7.93,45.71 23.89,0 0,7.59 -23.89,0 0,-7.59 m 39.78,-15.22 31.7,0 0,7.59 -31.7,0 0,-7.59 m 31.7,-7.6 8,0 0,7.6 -8,0 0,-7.6 m -23.81,-7.59 23.81,0 0,7.59 -23.81,0 0,-7.59 m -7.89,-7.59 7.89,0 0,7.59 -7.89,0 0,-7.59 m 7.89,-7.71 31.81,0 0,7.71 -31.81,0 0,-7.71 m -95.26,165.78 31.74,0 0,7.59 -31.74,0 0,-7.59 m -8,7.59 8,0 0,7.6 -8,0 0,-7.6 m 8,7.6 23.77,0 0,7.59 -23.77,0 0,-7.59 m 23.77,7.59 7.97,0 0,7.59 -7.97,0 0,-7.59 m -31.77,7.59 31.77,0 0,7.63 -31.77,0 0,-7.63 m -190.93,0 31.81,0 0,7.63 -31.81,0 0,-7.63 m 31.81,-7.59 7.89,0 0,7.59 -7.89,0 0,-7.59 m -23.88,-7.59 23.88,0 0,7.59 -23.88,0 0,-7.59 m -7.93,-7.6 7.93,0 0,7.6 -7.93,0 0,-7.6 m 7.93,-7.59 31.77,0 0,7.59 -31.77,0 0,-7.59 m -238.74,82.78 31.77,0 0,7.67 -31.77,0 0,-7.67 m -7.89,7.67 7.89,0 0,7.59 -7.89,0 0,-7.59 m 7.89,7.59 23.81,0 0,7.59 -23.81,0 0,-7.59 m 23.81,7.59 7.96,0 0,7.67 -7.96,0 0,-7.67 m -31.7,7.67 31.7,0 0,7.63 -31.7,0 0,-7.63 m -527.74,0 31.77,0 0,7.63 -31.77,0 0,-7.63 m 31.77,-7.67 7.97,0 0,7.67 -7.97,0 0,-7.67 m -23.81,-7.59 23.81,0 0,7.59 -23.81,0 0,-7.59 m -7.96,-7.59 7.96,0 0,7.59 -7.96,0 0,-7.59 m 7.96,-7.67 31.78,0 0,7.67 -31.78,0 0,-7.67 m 854.07,0 15.93,0 0,7.67 -7.96,0 0,30.48 -7.97,0 0,-38.15 m 31.82,7.67 7.92,0 0,30.48 -7.92,0 0,-30.48 m -7.93,-7.67 7.93,0 0,7.67 -7.93,0 0,-7.67 m -7.96,7.67 7.96,0 0,30.48 -7.96,0 0,-30.48 m -15.93,-7.67 0,0 0,0 0,0 0,0 m -765.4,0 0,0 0,0 0,0 0,0 m 15.88,7.67 7.93,0 0,30.48 -7.93,0 0,-30.48 m 7.93,-7.67 7.93,0 0,7.67 -7.93,0 0,-7.67 m 7.93,7.67 8,0 0,30.48 -8,0 0,-30.48 m -31.74,-7.67 15.88,0 0,7.67 -7.96,0 0,30.48 -7.92,0 0,-38.15 m 940.22,-218.07 0,-30.49 7.92,0 0,45.71 -7.92,0 0,-7.63 -23.89,0 0,-7.59 23.89,0 m -621.45,247.4 0,-30.4 7.97,0 0,45.59 -7.97,0 0,-7.59 -23.85,0 0,-7.6 23.85,0 m -23.85,15.19 23.85,0 0,7.63 -23.85,0 0,-7.63 m -7.92,-45.59 7.92,0 0,30.4 -7.92,0 0,-30.4 m 669.11,-157 7.89,0 0,7.59 23.81,0 0,-7.59 8,0 0,15.22 -31.81,0 0,7.63 -7.89,0 0,-22.85 m -142.97,82.88 7.86,0 0,7.6 23.88,0 0,-7.6 7.93,0 0,15.19 -31.81,0 0,7.59 -7.86,0 0,-22.78 m 7.86,22.78 23.88,0 0,7.63 -23.88,0 0,-7.63 m 0,-30.37 23.88,0 0,7.59 -23.88,0 0,-7.59 m -190.86,0 23.78,0 0,7.59 -23.78,0 0,-7.59 m 0,30.37 23.78,0 0,7.63 -23.78,0 0,-7.63 m -8,-22.78 8,0 0,7.6 23.78,0 0,-7.6 7.96,0 0,15.19 -31.74,0 0,7.59 -8,0 0,-22.78 m 286.26,82.86 7.93,0 0,7.59 23.89,0 0,-7.59 7.92,0 0,15.18 -31.81,0 0,7.67 -7.93,0 0,-22.85 m 7.93,22.85 23.89,0 0,7.63 -23.89,0 0,-7.63 m 0,-30.52 23.89,0 0,7.67 -23.89,0 0,-7.67 m 95.41,0 6,0 0,7.67 -6,0 0,-7.67 m 0,30.52 6,0 0,7.63 -6,0 0,-7.63 m -8,-22.85 8,0 0,7.59 6,0 0,0 0,0 0,7.59 -6,0 0,7.67 -8,0 0,-22.85 m -1138.93,-7.67 23.89,0 0,7.67 -23.89,0 0,-7.67 m 0,30.52 23.89,0 0,7.63 -23.89,0 0,-7.63 m -7.89,-22.85 7.89,0 0,7.59 23.89,0 0,-7.59 7.92,0 0,15.18 -31.81,0 0,7.67 -7.89,0 0,-22.85 m 102,15.18 15.89,0 0,14.08 -15.89,0 0,-14.08 m 957.41,-105.63 23.89,0 0,7.59 -23.89,0 0,-7.59 m -7.93,7.59 7.93,0 0,22.78 -7.93,0 0,-22.78 m 7.93,22.78 23.89,0 0,7.63 -23.89,0 0,-7.63 m 23.89,-7.59 7.92,0 0,7.59 -7.92,0 0,-7.59 m 23.78,-22.78 23.81,0 0,7.59 -23.81,0 0,-7.59 m -7.89,22.78 7.89,0 0,7.59 -7.89,0 0,-7.59 m -637.97,0 7.86,0 0,7.59 -7.86,0 0,-7.59 m -23.85,7.59 23.85,0 0,7.63 -23.85,0 0,-7.63 m -7.96,-22.78 7.96,0 0,22.78 -7.96,0 0,-22.78 m 7.96,-7.59 23.85,0 0,7.59 -23.85,0 0,-7.59 m 439.33,-15.26 8,0 0,7.59 -8,0 0,-7.59 m 47.71,30.45 7.96,0 0,7.59 -7.96,0 0,-7.59 m -238.59,-15.19 15.88,0 0,7.59 -15.88,0 0,-7.59 m 15.88,7.59 7.89,0 0,30.41 -7.89,0 0,-30.41 m -216.7,-7.59 22.59,0 0,7.59 -22.59,0 0,-7.59 m -7.92,7.59 7.92,0 0,22.78 -7.92,0 0,-22.78 m 7.92,22.78 22.59,0 0,7.63 -22.59,0 0,-7.63 m 22.59,-22.78 8,0 0,22.78 -8,0 0,-22.78 m 383.11,82.86 7.89,0 0,22.85 -7.89,0 0,-22.85 m -22.66,22.85 22.66,0 0,7.63 -22.66,0 0,-7.63 m -7.96,-22.85 7.96,0 0,22.85 -7.96,0 0,-22.85 m 7.96,-7.67 22.66,0 0,7.67 -22.66,0 0,-7.67 m -198.15,-82.78 7.96,0 0,7.59 7.97,0 0,7.6 -7.97,0 0,22.81 -7.96,0 0,-38 m 476.93,0 8,0 0,7.59 6,0 0,7.6 -6,0 0,22.81 -8,0 0,-38 m -389.52,38 -7.93,0 0,-7.63 -7.96,0 0,-7.59 7.96,0 0,-22.78 7.93,0 0,38 m -31.82,-7.63 -7.89,0 0,-30.37 7.89,0 0,30.37 m 15.93,7.63 -15.93,0 0,-7.63 15.93,0 0,7.63 m -214.52,-38 8,0 0,7.59 7.93,0 0,7.6 -7.93,0 0,22.81 -8,0 0,-38 m 31.81,7.59 7.97,0 0,30.41 -7.97,0 0,-30.41 m -15.88,-7.59 15.88,0 0,7.59 -15.88,0 0,-7.59 m 237.88,82.78 15.86,0 0,7.67 -15.86,0 0,-7.67 m 15.86,7.67 7.92,0 0,30.48 -7.92,0 0,-30.48 m -31.74,-7.67 7.88,0 0,7.67 8,0 0,7.59 -8,0 0,22.89 -7.88,0 0,-38.15 m 262.88,38.15 -15.88,0 0,-7.63 15.88,0 0,7.63 m -15.88,-7.63 -8,0 0,-30.52 8,0 0,30.52 m 31.74,7.63 -7.97,0 0,-7.63 -7.89,0 0,-7.67 7.89,0 0,-22.85 7.97,0 0,38.15 m 95.33,0 -8,0 0,-7.63 -7.89,0 0,-7.67 7.89,0 0,-22.85 8,0 0,38.15 m -31.81,-7.63 -7.89,0 0,-30.52 7.89,0 0,30.52 m 15.92,7.63 -15.92,0 0,-7.63 15.92,0 0,7.63 m 7.89,-113.34 8,0 0,30.41 -31.81,0 0,-7.63 23.81,0 0,-7.59 -23.81,0 0,-7.59 23.81,0 0,-7.6 m -382,82.86 7.96,0 0,30.48 -31.77,0 0,-7.63 23.81,0 0,-7.67 -23.81,0 0,-7.59 23.81,0 0,-7.59 m -31.81,15.18 8,0 0,7.67 -8,0 0,-7.67 m 8,-22.85 23.81,0 0,7.67 -23.81,0 0,-7.67 m -334.71,0 23.85,0 0,7.67 -23.85,0 0,-7.67 m -7.96,22.85 7.96,0 0,7.67 -7.96,0 0,-7.67 m 31.81,-15.18 7.86,0 0,30.48 -31.71,0 0,-7.63 23.85,0 0,-7.67 -23.85,0 0,-7.59 23.85,0 0,-7.59 m 621.37,-188.52 -31.77,0 0,53.22 31.77,0 0,-7.59 -23.77,0 0,-15.26 23.77,0 0,-7.59 -23.77,0 0,-15.19 23.77,0 0,-7.59 m -79.37,0 0,53.22 7.86,0 0,-38.04 7.96,0 0,-7.59 -7.96,0 0,-7.59 -7.86,0 m 39.67,0 0,53.22 -7.93,0 0,-38.04 -7.96,0 0,-7.59 7.96,0 0,-7.59 7.93,0 m -64.81,0 7.92,0 0,30.37 7.96,0 0,7.63 -7.96,0 0,15.22 -7.92,0 0,-15.22 -23.82,0 0,-15.22 7.96,0 0,7.59 15.86,0 0,-15.19 -8,0 0,-7.59 8,0 0,-7.59 m -70.26,0 0,7.59 22.59,0 0,7.59 7.96,0 0,-7.59 7.93,0 0,-7.59 -38.48,0 m 22.59,15.18 -7.93,0 0,7.6 -8,0 0,7.59 23.89,0 0,-7.59 -7.96,0 0,-7.6 m -70.33,-7.59 0,38.04 8,0 0,-7.63 7.92,0 0,-7.63 -7.92,0 0,-22.78 -8,0 m 31.81,0 0,7.59 -7.93,0 0,7.6 7.93,0 0,22.85 7.96,0 0,-38.04 -7.96,0 m -79.41,7.59 0,30.45 7.93,0 0,-15.26 23.81,0 0,-7.59 -23.81,0 0,-7.6 -7.93,0 m 7.93,30.45 23.81,0 0,7.59 -23.81,0 0,-7.59 m -511.19,135.22 -7.92,0 0,7.67 -8,0 0,7.59 23.92,0 0,-7.59 -8,0 0,-7.67 m -22.63,-15.19 0,7.6 22.63,0 0,7.59 8,0 0,-7.59 7.86,0 0,-7.6 -38.49,0 m 0,45.71 30.63,0 0,7.63 -30.63,0 0,-7.63 m 30.63,-15.26 7.86,0 0,15.26 -7.86,0 0,-15.26 m 638.26,-98.04 0,7.59 23.89,0 0,7.6 7.93,0 0,-7.6 7.92,0 0,-7.59 -39.74,0 m 7.97,22.78 7.96,0 0,7.59 23.81,0 0,7.63 -39.74,0 0,-7.63 7.97,0 0,-7.59 m -47.63,-22.78 15.88,0 0,30.37 7.89,0 0,7.63 -23.77,0 0,-7.63 7.88,0 0,-22.78 -7.88,0 0,-7.59 m -238.6,0 15.86,0 0,30.37 7.92,0 0,7.63 -23.78,0 0,-7.63 7.86,0 0,-22.78 -7.86,0 0,-7.59 m 7.86,-15.26 8,0 0,7.59 -8,0 0,-7.59 m -95.67,82.85 7.89,0 0,7.6 -7.89,0 0,-7.6 m -8,15.19 15.89,0 0,30.52 7.96,0 0,7.63 -23.85,0 0,-7.63 8,0 0,-22.85 -8,0 0,-7.67 m 72,-60 7.89,0 0,7.59 -7.89,0 0,-7.59 m -8,7.59 8,0 0,7.63 -8,0 0,-7.63 m -7.93,-45.63 7.93,0 0,15.26 8,0 0,7.59 -8,0 0,22.78 -7.93,0 0,-22.78 -8,0 0,-7.59 8,0 0,-15.26 m 47.22,82.85 7.89,0 0,15.19 8,0 0,7.67 -8,0 0,22.85 -7.89,0 0,-22.85 -8,0 0,-7.67 8,0 0,-15.19 m 7.89,45.71 8,0 0,7.63 -8,0 0,-7.63 m 8,-7.67 7.89,0 0,7.67 -7.89,0 0,-7.67 m 15.86,-22.85 7.96,0 0,7.67 7.96,0 0,7.59 -7.96,0 0,22.89 -7.96,0 0,-38.15 m 31.77,7.67 8,0 0,8.74 -8,0 0,-8.74 m -15.85,-7.67 15.85,0 0,7.67 -15.85,0 0,-7.67 m -199.67,-15.19 14.71,0 0,45.71 7.89,0 0,6.41 -22.6,0 0,-6.41 7.89,0 0,-38.11 -7.89,0 0,-7.6 m -141.81,0 14.7,0 0,45.71 7.89,0 0,6.41 -22.59,0 0,-6.41 7.96,0 0,-38.11 -7.96,0 0,-7.6 m 476.52,15.19 15.89,0 0,7.67 -15.89,0 0,-7.67 m -8,7.67 8,0 0,22.85 -8,0 0,-22.85 m 23.89,0 7.92,0 0,-22.86 7.97,0 0,52.12 -31.78,0 0,-6.41 23.81,0 0,-15.26 -7.92,0 0,-7.59 m 119.92,0 7.86,0 0,22.85 -7.86,0 0,-22.85 m 7.86,-7.67 15.92,0 0,7.67 -15.92,0 0,-7.67 m 15.92,7.67 7.96,0 0,-7.67 7.93,0 0,52.15 -7.93,0 0,-15.22 -23.88,0 0,-6.41 23.88,0 0,-15.26 -7.96,0 0,-7.59 m -661.11,-7.67 -15.89,0 0,7.67 15.89,0 0,-7.67 m -15.89,7.67 -7.96,0 0,-7.67 -7.96,0 0,52.15 7.96,0 0,-15.22 23.85,0 0,-6.41 -23.85,0 0,-15.26 7.96,0 0,-7.59 m 23.82,0 -7.93,0 0,22.85 7.93,0 0,-22.85 m -96.37,0 -7.97,0 0,22.85 7.97,0 0,-22.85 m -23.86,0 -7.89,0 0,-7.67 -8,0 0,52.15 8,0 0,-15.22 23.78,0 0,-6.41 -23.78,0 0,-15.26 7.89,0 0,-7.59 m 15.89,-7.67 -15.89,0 0,7.67 15.89,0 0,-7.67 m -176.66,52.67 0,0 z" />
   <path
   style="fill:#131516"
   id="path286"
   d="m 3742.77,2523.91 c -71.74,-298.93 -257.45,-311.93 -301.12,-311.93 l 0,-17.44 c 96.78,0 253.34,66.18 310.19,293.37 72.93,-226.71 197.33,-287.59 284.7,-288.71 83.23,-1.07 134.6,17.52 213.41,56.78 l 0,-35.41 227.82,0 0,-29.92 18.18,0 0,29.92 38.59,0 0,17.41 -38.59,0 0,427.45 163.82,-396.49 156.88,0 13.71,-30.96 -195.56,0 0,-17.41 203.23,0 21.51,-48.59 16.82,6.82 -18.52,41.77 43.33,0 0,17.41 -51,0 -127.63,288.56 169,0 0,216.22 c 158.23,-74.56 347.49,-19.85 442.89,126.15 94.6,-139.71 279.52,-195.37 440.56,-132.71 l -6.37,-9.88 272.22,0 54.41,84.22 53.11,-82.3 c 0.81,-1.26 2.18,-1.92 3.63,-1.92 l 0,0 c 1.55,0 3,0.81 3.78,2.07 0.77,1.33 0.74,2.93 -0.12,4.22 l -55.33,85.74 7.04,10.97 65.29,-101.08 c 0.78,-1.26 2.19,-1.92 3.71,-1.92 l 0,0 c 1.55,0 3,0.81 3.78,2.07 0.7,1.33 0.7,2.93 -0.15,4.22 l -67.56,104.59 7.11,11 78.71,-121.88 272.26,0 -214.86,332.62 7.12,10.97 226.66,-351 -282.78,0 c -1.62,0 -3,-0.78 -3.81,-2.11 -0.67,-1.26 -0.67,-2.89 0.11,-4.19 l 0,0 c 0.82,-1.22 2.22,-1.89 3.7,-1.89 l 298.3,0 -224.96,348.22 210.41,325.82 c 0.85,1.22 0.85,2.85 0.14,4.15 -0.77,1.29 -2.22,2.15 -3.77,2.15 -1.52,0 -2.93,-0.74 -3.74,-1.93 l -208.08,-322.33 -7.11,11 202.33,313.26 -272.22,0 -52,-80.52 -50.78,78.59 c -0.81,1.19 -2.18,1.93 -3.66,1.93 l 0,0 c -0.71,0 -1.37,-0.15 -2.08,-0.45 -0.59,0.3 -1.26,0.45 -2,0.45 -1.59,0 -3,-0.86 -3.78,-2.15 -0.7,-1.3 -0.7,-2.93 0.12,-4.15 l 55.07,-85.19 -7.07,-11 -64.97,100.56 c -0.81,1.19 -2.15,1.93 -3.63,1.93 -1.63,0 -3,-0.86 -3.81,-2.15 -0.74,-1.3 -0.71,-2.93 0.07,-4.15 l 67.22,-104.04 -7.11,-11 -78.33,121.34 -272.26,0 8,-12.34 c -161.18,63.82 -347,8.6 -442.18,-131.4 -95.26,146.29 -284.82,199.88 -443.23,125.22 l 0,18.52 -231.29,0 0,-1.67 -38.22,0 16.74,45.15 -17.23,5.78 -18.81,-50.93 -73.37,0 0,-17.48 66.89,0 -136.26,-368.3 -8.04,18.78 0,368.67 -150.92,0 0,-1122.12 150.92,0 0,503.04 25.82,-62.37 0,-471.63 -209.52,0 0,51.15 c -90.89,-58.52 -151.82,-72.41 -231.71,-72.41 -63.29,0 -202.11,44.11 -275.55,307.19 l -18.22,0 0,0 0,0 z m 326.77,890.7 -287.63,0.04 0,-17.45 196.45,0 c -149.71,-63.66 -214.93,-294.07 -214.93,-567.22 0,-322 90.6,-584.63 303.52,-584.63 97.85,0 153.41,48.19 201.3,92 l 0,28.59 c 0,0.04 0,0.04 0,0.12 l 0,242.48 -16.26,0 c -35.22,-61.56 -100.15,-148 -167.08,-148 -111.66,0 -166.88,165.59 -165.48,369.44 -1.4,203.93 53.82,369.56 165.48,369.56 66.93,0 131.86,-86.56 167.08,-148 l 16.26,0 0,242.4 c 0,0.04 0,0.04 0,0.04 l 0,28.67 c -47.45,43.48 -102.48,91.15 -198.71,91.96 z M 3439.43,2245.35 c 211.08,0 300.93,275.71 300.93,584.63 0,308.96 -89.85,584.67 -300.93,584.67 -211.07,0 -301,-262.67 -301,-584.67 0,-322 89.93,-584.63 301,-584.63 z m -525.48,23.59 -274.81,0 0,651.67 c 1.7,4.56 3.51,9.11 5.26,13.71 12.37,-3.34 25.14,-4.6 37.92,-3.93 25,1.26 47.52,14.81 59.52,35.93 10.81,19 16,40.48 14.93,62.07 -0.45,9.15 -2.97,17.93 -7.34,25.96 -10.66,19.78 -27.11,36.04 -47.4,46.97 6.88,22.29 13.4,44.59 19.7,67.03 11.92,42.97 17.52,87.26 16.63,131.63 -0.19,11.41 -2.82,22.74 -7.59,33.22 -5,10.78 -13.6,19.6 -24.52,24.93 -7.89,3.93 -17.08,4.59 -25.52,1.78 -8.41,-2.71 -15.3,-8.71 -19.08,-16.37 -4.4,-9 -6.48,-18.82 -6.22,-28.74 0.11,-5.6 2.93,-10.82 7.6,-14.15 5.92,-4.26 13.14,-6.33 20.51,-6 4.82,0.26 9.11,2.96 11.3,7.07 2.11,4.08 1.81,9.08 -0.89,12.89 -3.33,4.71 -8.22,8.19 -13.92,10 l 1.92,4 c 0.96,2.3 3,4 5.48,4.59 2.48,0.6 5.11,0 7,-1.59 9.52,-7.78 15.41,-18.81 16.48,-30.67 1.34,-20.51 0.93,-41.03 -1.37,-61.4 -6.7,-43.63 -16.59,-86.74 -29.7,-129 -3.33,1.07 -6.81,1.89 -10.19,2.66 -10.11,2.12 -20.29,3.78 -30.51,5 l 0,272.86 183.89,0 0,36.51 18.22,0 0,-36.51 39.18,0 0,-17.45 -39.18,0 0,-393.48 17.66,0 160.52,410.93 176.3,0 15.92,38.92 17,-6.37 -15.85,-38.7 54.97,0 0,-17.52 -62.12,0 -189.85,-464 c 69.85,-69 109.97,-172.85 109.97,-304.82 0,-176.85 -50,-329.63 -211.82,-329.63 l 0,0 0,0 z m -242.11,816.97 c -10.48,4.15 -21.48,6.89 -32.7,8.29 l 0,-99.48 c 11.29,30.19 22.18,60.45 32.63,90.89 0,0.11 0.03,0.19 0.07,0.3 0,0 0,0 0,0 0,0 0,0 0,0 0,0 0,0 0,0 m -17.22,-124.56 c 3.55,-0.96 7.22,-1.74 10.81,-2.41 11.52,-2.03 23.34,0.67 32.71,7.38 8.4,6.07 14.59,14.66 17.29,24.48 6.22,21.92 4.82,45.11 -3.78,66.18 -1.81,4.41 -4.81,8.34 -8.7,11.34 -3,2.29 -6.04,4.44 -9.18,6.48 -12.23,-38.08 -25.23,-75.89 -39.15,-113.45 m -15.48,132.85 c -2.89,0.34 -5.78,0.56 -8.71,0.71 -31.59,1.66 -61,-15.52 -73.92,-43.19 -22.97,-49.11 -26.26,-104.59 -9.34,-155.92 5.86,-18 12.04,-35.97 18.37,-53.82 1.71,-5 3.49,-9.85 5.3,-14.85 16.96,38.59 33.19,77.48 48.59,116.67 -22,11.33 -39.78,28.92 -50.78,50.4 -1.81,3.52 -1.11,7.78 1.78,10.6 2.93,2.85 7.34,3.59 11.08,1.96 3.26,-2.22 6.26,-4.78 9.03,-7.56 11.11,-11.85 24.45,-21.59 39.3,-28.77 3.11,8.11 6.19,16.18 9.3,24.29 l 0,-74.11 c -14.71,-37.48 -30.19,-74.7 -46.52,-111.55 -2.78,-6.12 -5.45,-12.15 -8.3,-18.26 3.41,-8.89 6.85,-17.89 10.33,-26.82 5.08,-12.66 8.89,-25.78 11.52,-39.18 2.86,-15.08 1.6,-30.67 -3.85,-45.19 -12.37,-33 -36.29,-60.89 -67.67,-78.96 -13.81,-7.93 -29.7,-11.85 -45.81,-11.3 -13.48,0.45 -24.41,10.71 -25.19,23.59 -0.7,11.71 2.15,23.38 8.19,33.6 5.59,9.44 11.59,18.66 18,27.59 19.93,27.59 37.07,56.81 51.33,87.41 2.78,6.03 5.6,12.07 8.34,18.07 -4.34,11.45 -8.6,22.93 -12.74,34.45 -19.41,53.37 -31.82,108.85 -37.23,165.14 -2.51,26.6 0,53.41 7.3,79.12 10.11,35.33 42.93,60.33 81.11,61.88 17.04,0.6 34.22,0 51.19,-2 l 0,-24 m 249.89,-872 -284.19,0 0,-42.4 -18.19,0 0,42.4 -42.48,0 0,17.52 42.48,0 0,194.67 18.19,0 0,-194.67 284.19,0 0,-17.52 z" />
   <path
   style="fill:#a9becd"
   id="path288"
   d="m 6422.54,2751.91 -209.37,0 -93.63,144.89 -93.59,-144.89 -209.41,0 39.3,60.81 c -79.89,-65 -187,-90.52 -289.33,-68.96 -102.34,21.56 -188.37,87.63 -232.56,178.78 -39.52,-84.78 -113.96,-148.19 -203.96,-173.82 -90.04,-25.74 -186.74,-11.11 -265.15,40 l 0,-240.59 -177.89,0 0,813.3 177.89,0 0,-32.78 c 78.52,51.15 175.52,65.74 265.59,39.92 90.11,-25.85 164.56,-89.59 203.93,-174.59 44.59,91.41 131.48,157.56 234.59,178.41 103.08,20.96 210.41,-5.67 289.89,-71.85 l -41.89,64.89 209.37,0 93.22,-144.37 93.3,144.37 209.37,0 -197.96,-306.49 198.29,-307.03 0,0 0,0 z" />
   <path
   style="fill:#131516"
   id="path290"
   d="m 5180.95,3057.8 c 0,-83.6 -70.74,-151.37 -158.04,-151.37 -87.29,0 -158.07,67.77 -158.07,151.37 0,83.63 70.78,151.4 158.07,151.4 87.3,0 158.04,-67.77 158.04,-151.4 z m 783.59,-76.67 c 13.3,51.67 12.97,105.67 -0.92,157.19 l 51.22,-79.38 -50.3,-77.81 m -167.92,76.67 c 0,-83.6 -70.78,-151.37 -158.08,-151.37 -87.29,0 -158.11,67.77 -158.11,151.37 0,83.63 70.82,151.4 158.11,151.4 87.3,0 158.08,-67.77 158.08,-151.4 z" />
   <path
   style="fill:#efaf04"
   id="path292"
   d="m 2789.95,3373.61 33.08,0 0,-393.48 -33.08,0 0,393.48 m 68.3,-641.48 c 55.7,0 64.52,-67.74 64.4,-114.19 -0.03,-46.4 -7.11,-96.81 -55.7,-96.81 l -77,0 0,256.67 33.08,0 0,-45.67 35.22,0 z m 0,17.48 -17,0 0,28.19 1.18,0 c 124.3,0 124.3,-106.56 124.3,-143.6 l 0,-23.88 c 0,-35.93 -0.3,-134.93 -104.89,-134.93 l -71.89,0 0,28.22 68.3,0 c 35.52,0 83.11,4.78 83.11,118.93 0,114 -47.85,126.07 -83.11,127.07 l 0,0 0,0 z m -295.89,-3.07 c -14.33,-27.41 -29.82,-54.15 -46.41,-80.3 -5.22,-8.3 -10,-16.85 -14.3,-25.67 -2.74,-5.77 -4.4,-11.96 -4.81,-18.33 -0.07,-1.33 0.41,-2.63 1.41,-3.63 1,-1 2.37,-1.48 3.78,-1.48 6.81,0.19 13.51,2.07 19.4,5.48 25.34,14.52 43.41,38.3 50,65.78 1.93,8 2,16.41 0.19,24.41 -2.59,11.4 -5.67,22.59 -9.26,33.74 l 0,0 m 3071.89,437.07 8.59,0 c 71.67,-2.29 128.19,-59.18 127,-127.81 -1.19,-68.67 -59.59,-123.82 -131.3,-123.82 -71.7,0 -130.18,55.15 -131.33,123.82 -1.18,68.63 55.33,125.52 127.04,127.81 z m -615.63,0 8.59,0 c 71.63,-2.29 128.22,-59.18 127.04,-127.81 -1.22,-68.67 -59.63,-123.82 -131.34,-123.82 -71.7,0 -130.14,55.15 -131.37,123.82 -1.14,68.63 55.41,125.52 127.08,127.81 z m -411.82,-395.55 53.45,132.33 0,-253.07 -53.45,120.74 m 8.74,583.85 -145.18,-392.59 17.04,-39.71 167.81,432.3 -39.67,0 M 3439.4,2456.72 c 101.63,0 144.85,176 144.85,373.26 0,197.34 -43.22,373.34 -144.85,373.34 -101.63,0 -144.86,-167.71 -144.86,-373.34 0,-205.59 43.23,-373.26 144.86,-373.26 l 0,0 z" />
   <path
   style="fill:#131516"
   id="path294"
   d="m 5634.17,3183.61 c 2.86,0.19 5.78,0.15 8.63,0 l 0,-11.63 c 65.04,-2.22 116.15,-54 114.97,-116.22 -1.23,-62.33 -54.34,-112.19 -119.37,-112.15 -1.56,0 -2.86,0.74 -3.63,2 -0.78,1.3 -0.78,2.93 0,4.19 0.77,1.33 2.07,2.11 3.66,2.03 40,-0.03 77,20.71 96.6,54.15 19.59,33.56 18.74,74.56 -2.19,107.22 -20.89,32.71 -58.63,52 -98.67,50.52 l 0,19.89 0,0 0,0 z m -611.33,-31.29 c -2.33,0 -4.3,-1.93 -4.3,-4.19 0,-2.3 1.97,-4.15 4.3,-4.15 49.7,0 90,-38.59 90,-86.18 0,-47.56 -40.3,-86.08 -90,-86.08 -2.33,0 -4.3,-1.92 -4.3,-4.15 0,-2.25 1.97,-4.18 4.3,-4.18 54.52,0 98.59,42.33 98.59,94.41 0,52.18 -44.07,94.52 -98.59,94.52 z m 615.67,0 c -2.34,0 -4.34,-1.93 -4.34,-4.19 0,-2.3 2,-4.15 4.34,-4.15 49.66,0 89.92,-38.59 89.92,-86.18 0,-47.56 -40.26,-86.08 -89.92,-86.08 -2.34,0 -4.34,-1.92 -4.34,-4.15 0,-2.25 2,-4.18 4.34,-4.18 54.44,0 98.52,42.33 98.52,94.41 0,52.18 -44.08,94.52 -98.52,94.52 z m -619.97,31.29 c 2.89,0.11 5.78,0.11 8.67,0 l 0,-11.63 c 65,-2.22 116.15,-54 114.96,-116.22 -1.22,-62.33 -54.33,-112.19 -119.37,-112.15 -1.55,0 -2.85,0.74 -3.63,2 -0.81,1.3 -0.81,2.93 0,4.19 0.78,1.33 2.08,2.11 3.63,2.03 40.04,-0.03 77,20.71 96.6,54.15 19.59,33.56 18.77,74.56 -2.15,107.22 -20.89,32.71 -58.63,52 -98.71,50.52 l 0,19.89 0,0 0,0 z m -1579.18,-32.89 0,-43.11 -18.19,0 0,45.96 0,17.41 c 98.6,0 127.6,-160.37 128.26,-332.26 l 415.19,0 c 0.92,121 28.7,306.08 111.15,318.89 l 0,45.71 18.22,0 0,-364.6 72.66,0 0,-17.48 -72.66,0 0,-63.04 -18.22,0 0,63.04 -92.82,0 c 1.96,-119.85 36.89,-295.11 101.89,-298.04 l 0,-17.44 c -85.19,3.15 -118.41,190.22 -120.19,315.48 l -415.25,0 c -1.19,-171.04 -30.04,-330.11 -128.23,-330.11 l 0,16.78 0,313.33 -55.81,0 0,17.48 55.81,0 0,61.08 18.19,0 0,-61.08 91.81,0 c -0.92,110 -15.4,287.71 -91.81,312 l 0,0 z" />
   <path
   style="fill:#efaf04"
   id="path296"
   d="m 3982.91,2838.72 c 1.12,114.52 31.45,285.48 92.86,301.04 l 0,-301.04 -92.86,0 z m -451.7,-17.48 -91.78,0 0,-310.52 c 75.97,24.19 91.22,200.41 91.78,310.52 z" />
  </g><path
   style="fill:#ffffff"
   id="path298"
   d="m 2124.14,15367.9 0,-189.93 59.19,0 0,15.49 c 12.17,-11.12 30.85,-16.63 56.14,-16.63 17.84,0 30.33,2.94 37.57,8.74 7.24,5.9 11.44,10.74 12.71,14.64 0.1,-0.19 2.09,-2.28 6.18,-6.27 3.99,-4 9.97,-7.61 17.95,-10.93 7.87,-3.24 17.84,-5.14 30.11,-5.61 22.36,0 39.26,4.65 50.49,13.88 11.22,9.31 16.79,21.38 16.79,36.21 l 0,140.41 -45.34,0 0,-135.75 c 0,-17.11 -11.34,-25.66 -34,-25.66 -11.86,0.76 -20.36,4.65 -25.39,11.69 -5.05,7.13 -8.08,12.93 -9.14,17.39 l 0,132.33 -45.33,0 0,-135.75 c 0,-7.32 -2.73,-13.5 -8.29,-18.34 -5.57,-4.85 -14.17,-7.32 -25.82,-7.32 -12.49,1.14 -21.3,5.41 -26.13,12.73 -4.93,7.42 -7.76,13.41 -8.5,18.07 l 0,130.61 -59.19,0 0,0 0,0 z" /><path
   style="fill:#ffffff"
   id="path300"
   d="m 2491.86,15282.4 c 0.94,9.98 4.73,22.62 11.34,37.93 6.71,15.3 18.89,23.29 36.52,24.05 21.51,0 38.3,-2.47 50.47,-7.42 12.28,-4.94 20.15,-9.12 23.83,-12.45 l -8.92,32.99 c 0,1.99 -6.09,4.56 -18.26,7.7 -12.18,3.23 -27.71,4.85 -46.6,4.85 -7.45,0 -13.33,-0.19 -17.52,-0.48 -30.55,-2 -52.89,-9.98 -67.06,-23.86 -14.17,-13.88 -21.41,-36.22 -21.73,-66.83 0,-35.08 8.08,-60.84 24.14,-77.19 16.16,-16.35 39.78,-24.62 70.94,-24.9 37.47,0 62.76,8.93 76.09,26.71 11.43,14.83 17.11,34.79 17.11,59.98 0,4.76 -0.11,8.75 -0.42,11.98 -0.32,3.33 -0.64,5.61 -0.85,6.94 l -129.08,0 0,0 0,0 z m 42.93,-81.66 c -28.65,0.86 -42.93,19.68 -42.93,56.47 l 91.3,0 c 0,-37.65 -16.16,-56.47 -48.37,-56.47 l 0,0 0,0 z" /><path
   style="fill:#ffffff"
   id="path302"
   d="m 2821.9,15221.8 0,146.11 -44.07,0 0,-139.17 c 0,-15.97 -13.44,-23.96 -40.3,-23.96 -13.12,1.43 -22.46,5.04 -28.23,11.03 -5.67,6.09 -9.02,10.93 -10.18,14.64 l 0,137.46 -59.18,0 0,-189.93 59.18,0 0,15.4 c 0.84,-0.48 3.56,-2.09 8.4,-5.04 4.72,-2.85 11.53,-5.52 20.24,-7.89 8.82,-2.38 18.9,-3.61 30.55,-3.61 21.83,0 37.88,4.56 48.17,13.59 10.28,9.03 15.42,19.49 15.42,31.37 z" /><path
   style="fill:#ffffff"
   id="path304"
   d="m 2906.9,15314.3 c 0,7.89 3.25,14.44 9.66,19.67 6.4,5.14 14.27,7.8 23.71,7.8 15.53,-0.38 26.66,-3.71 33.37,-10.08 6.61,-6.27 10.6,-11.5 11.97,-15.68 l 0,-138.03 44.07,0 0,189.93 -44.07,0 0,-17.68 c -3.99,3.04 -12.7,6.84 -26.03,11.41 -13.33,4.56 -31.7,6.84 -55.09,6.84 -17.42,-0.57 -31.27,-5.32 -41.45,-14.35 -10.18,-9.03 -15.32,-21.68 -15.32,-38.12 l 0,-138.03 59.18,0 0,136.32 0,0 0,0 z" />
<g
   id="g3002"
   transform="translate(-5500.014,-6750.005)">
   
   
  </g><g
   id="g3008"
   transform="translate(-5500.014,-6750.005)">
   
   
  </g><g
   inkscape:groupmode="layer"
   id="layer1"
   inkscape:label="Text"
   style="display:inline"><text
   xml:space="preserve"
   style="font-size:790.222229px;font-style:normal;font-variant:normal;font-weight:normal;font-stretch:normal;text-align:start;line-height:100%;writing-mode:lr-tb;text-anchor:start;fill:#000000;fill-opacity:1;stroke:none;display:inline;font-family:URW Palladio L"
   x="9375.9043"
   y="6813.2549"
   id="text2027"
   sodipodi:linespacing="100%"><tspan
     sodipodi:role="line"
     id="tspan2029"
     x="9375.9043"
     y="6813.2549">Play</tspan></text>



<text
   xml:space="preserve"
   style="font-size:790.222229px;font-style:normal;font-variant:normal;font-weight:normal;font-stretch:normal;text-align:start;line-height:100%;writing-mode:lr-tb;text-anchor:start;fill:#000000;fill-opacity:1;stroke:none;display:inline;font-family:URW Palladio L"
   x="-2318.782"
   y="12239.819"
   id="text2031"
   sodipodi:linespacing="100%"><tspan
     sodipodi:role="line"
     id="tspan2033"
     x="-2318.782"
     y="12239.819">Left</tspan></text>



<text
   xml:space="preserve"
   style="font-size:790.222229px;font-style:normal;font-variant:normal;font-weight:normal;font-stretch:normal;text-align:start;line-height:100%;writing-mode:lr-tb;text-anchor:start;fill:#000000;fill-opacity:1;stroke:none;display:inline;font-family:URW Palladio L"
   x="9398.7744"
   y="12325.533"
   id="text2035"
   sodipodi:linespacing="100%"><tspan
     sodipodi:role="line"
     id="tspan2037"
     x="9398.7744"
     y="12325.533">Right</tspan></text>



<text
   xml:space="preserve"
   style="font-size:790.222229px;font-style:normal;font-variant:normal;font-weight:normal;font-stretch:normal;text-align:start;line-height:100%;writing-mode:lr-tb;text-anchor:start;fill:#000000;fill-opacity:1;stroke:none;display:inline;font-family:URW Palladio L"
   x="9199.9971"
   y="15389.438"
   id="text2039"
   sodipodi:linespacing="100%"><tspan
     sodipodi:role="line"
     id="tspan2041"
     x="9199.9971"
     y="15389.438">Submenu</tspan></text>



<text
   xml:space="preserve"
   style="font-size:790.222229px;font-style:normal;font-variant:normal;font-weight:normal;font-stretch:normal;text-align:start;line-height:100%;writing-mode:lr-tb;text-anchor:start;fill:#000000;fill-opacity:1;stroke:none;display:inline;font-family:URW Palladio L"
   x="-2347.9624"
   y="15403.114"
   id="text2043"
   sodipodi:linespacing="100%"><tspan
     sodipodi:role="line"
     id="tspan2045"
     x="-2347.9624"
     y="15403.114">Power</tspan></text>



<text
   xml:space="preserve"
   style="font-size:790.222229px;font-style:normal;font-variant:normal;font-weight:normal;font-stretch:normal;text-align:start;line-height:100%;writing-mode:lr-tb;text-anchor:start;fill:#000000;fill-opacity:1;stroke:none;display:inline;font-family:URW Palladio L"
   x="-2358.897"
   y="4449.6602"
   id="text2047"
   sodipodi:linespacing="100%"><tspan
     sodipodi:role="line"
     id="tspan2049"
     x="-2358.897"
     y="4449.6602">Rec</tspan></text>



<text
   xml:space="preserve"
   style="font-size:790.222229px;font-style:normal;font-variant:normal;font-weight:normal;font-stretch:normal;text-align:start;line-height:100%;writing-mode:lr-tb;text-anchor:start;fill:#000000;fill-opacity:1;stroke:none;display:inline;font-family:URW Palladio L"
   x="4502.0088"
   y="-265.66003"
   id="text2051"
   sodipodi:linespacing="100%"><tspan
     sodipodi:role="line"
     id="tspan2053"
     x="4502.0088"
     y="-265.66003">Hold</tspan></text>



<path
   style="fill:none;stroke:#000000;stroke-width:35.27777863;stroke-linecap:butt;stroke-linejoin:miter;stroke-miterlimit:4;stroke-opacity:1;stroke-dasharray:none;display:inline"
   d="m 233.04223,12110.911 2101.75977,7.764"
   id="path2070" /><path
   style="fill:none;stroke:#000000;stroke-width:35.27777863;stroke-linecap:butt;stroke-linejoin:miter;stroke-miterlimit:4;stroke-opacity:1;stroke-dasharray:none;display:inline"
   d="M 387.21504,15175.865 2535.8313,14714.65"
   id="path2072" /><path
   style="fill:none;stroke:#000000;stroke-width:35.27777863;stroke-linecap:butt;stroke-linejoin:miter;stroke-miterlimit:4;stroke-opacity:1;stroke-dasharray:none;display:inline"
   d="M 9104.176,15178.698 5515.0297,14536.737"
   id="path2074" /><path
   style="fill:none;stroke:#000000;stroke-width:35.27777863;stroke-linecap:butt;stroke-linejoin:miter;stroke-miterlimit:4;stroke-opacity:1;stroke-dasharray:none;display:inline"
   d="m 9205.608,12148 -1554.7259,13.374"
   id="path2076" /><path
   style="fill:none;stroke:#000000;stroke-width:35.27777863;stroke-linecap:butt;stroke-linejoin:miter;stroke-miterlimit:4;stroke-opacity:1;stroke-dasharray:none;display:inline"
   d="M 9222.1315,6622.5006 5361.9699,9652.9032"
   id="path2078" /><path
   style="fill:none;stroke:#000000;stroke-width:35.27777863;stroke-linecap:butt;stroke-linejoin:miter;stroke-miterlimit:4;stroke-opacity:1;stroke-dasharray:none;display:inline"
   d="M 9241.5437,8220.2317 6315.2806,10872.899"
   id="path3354" /><path
   style="fill:none;stroke:#000000;stroke-width:35.27777863;stroke-linecap:butt;stroke-linejoin:miter;stroke-miterlimit:4;stroke-opacity:1;stroke-dasharray:none;display:inline"
   d="M 565.25171,7862.6653 3634.662,10823.33"
   id="path3356" /><text
   xml:space="preserve"
   style="font-size:790.222229px;font-style:normal;font-variant:normal;font-weight:normal;font-stretch:normal;text-align:start;line-height:100%;writing-mode:lr-tb;text-anchor:start;fill:#000000;fill-opacity:1;stroke:none;display:inline;font-family:URW Palladio L"
   x="9361.5664"
   y="8407.417"
   id="text3363"
   sodipodi:linespacing="100%"><tspan
     sodipodi:role="line"
     id="tspan3365"
     x="9361.5664"
     y="8407.417">Scroll Down</tspan></text>



<text
   xml:space="preserve"
   style="font-size:790.222229px;font-style:normal;font-variant:normal;font-weight:normal;font-stretch:normal;text-align:start;line-height:100%;writing-mode:lr-tb;text-anchor:start;fill:#000000;fill-opacity:1;stroke:none;display:inline;font-family:URW Palladio L"
   x="-2423.9062"
   y="7464.5786"
   id="text3367"
   sodipodi:linespacing="100%"><tspan
     sodipodi:role="line"
     id="tspan3369"
     x="-2423.9062"
     y="7464.5786">Scroll Up</tspan></text>



<text
   xml:space="preserve"
   style="font-size:790.222229px;font-style:normal;font-variant:normal;font-weight:normal;font-stretch:normal;text-align:start;line-height:100%;writing-mode:lr-tb;text-anchor:start;fill:#000000;fill-opacity:1;stroke:none;display:inline;font-family:URW Palladio L"
   x="9275.8535"
   y="14021.587"
   id="text3371"
   sodipodi:linespacing="100%"><tspan
     sodipodi:role="line"
     id="tspan3373"
     x="9275.8535"
     y="14021.587">Select</tspan></text>



<path
   style="fill:none;stroke:#000000;stroke-width:35.27777863;stroke-linecap:butt;stroke-linejoin:miter;stroke-miterlimit:4;stroke-opacity:1;stroke-dasharray:none;display:inline"
   d="m -346.90707,4244.0416 1358.08597,-1.8794"
   id="path3375" /><path
   transform="translate(-5500.014,-6750.0051)"
   style="fill:#000000;fill-rule:evenodd;display:inline"
   id="path3012"
   d="m 9969.53,17200.4 -50.65,16.9 -49.97,18.37 -49.27,19.8 -48.51,21.27 -47.72,22.65 -46.93,24.02 -46.07,25.4 -45.26,26.7 -44.34,28.01 -43.47,29.28 -42.51,30.54 -41.57,31.74 -40.57,32.96 -39.58,34.1 -38.51,35.26 -37.48,36.37 -36.36,37.47 -35.26,38.52 -34.11,39.57 -32.96,40.58 -31.73,41.56 -30.54,42.51 -29.28,43.48 -28.01,44.34 -26.71,45.26 -25.4,46.07 -24.02,46.93 -22.64,47.73 -21.27,48.5 -19.8,49.27 -18.37,49.97 -16.9,50.66 14.3,4.52 16.72,-50.26 18.19,-49.55 19.68,-48.81 21.05,-48.08 22.46,-47.33 23.84,-46.51 25.16,-45.73 26.49,-44.84 27.77,-44 29.04,-43.06 30.26,-42.17 31.49,-41.2 32.66,-40.24 33.83,-39.21 34.96,-38.22 36.06,-37.13 37.14,-36.07 38.21,-34.96 39.22,-33.82 40.23,-32.66 41.21,-31.5 42.17,-30.26 43.05,-29.04 44,-27.77 44.84,-26.48 45.73,-25.16 46.51,-23.84 47.32,-22.47 48.09,-21.05 48.81,-19.68 49.55,-18.19 50.25,-16.72 -4.52,-14.3 z" /><path
   transform="translate(-5500.014,-6750.0051)"
   style="fill:#000000;fill-rule:evenodd;display:inline"
   id="path3006"
   d="m 11026,17214.7 50.25,16.72 49.55,18.19 48.81,19.68 48.09,21.05 47.32,22.47 46.51,23.84 45.73,25.16 44.84,26.48 44,27.77 43.05,29.04 42.17,30.26 41.21,31.5 40.23,32.66 39.22,33.82 38.21,34.96 37.14,36.07 36.06,37.13 34.96,38.22 33.83,39.21 32.66,40.24 31.49,41.2 30.26,42.17 29.04,43.06 27.77,44 26.49,44.84 25.16,45.73 23.84,46.51 22.46,47.33 21.05,48.08 19.68,48.81 18.19,49.55 16.72,50.26 14.3,-4.52 -16.9,-50.66 -18.37,-49.97 -19.8,-49.27 -21.27,-48.5 -22.64,-47.73 -24.02,-46.93 -25.4,-46.07 -26.71,-45.26 -28.01,-44.34 -29.28,-43.48 -30.54,-42.51 -31.73,-41.56 -32.96,-40.58 -34.11,-39.57 -35.26,-38.52 -36.36,-37.47 -37.48,-36.37 -38.51,-35.26 -39.58,-34.1 -40.57,-32.96 -41.57,-31.74 -42.51,-30.54 -43.47,-29.28 -44.34,-28.01 -45.26,-26.7 -46.07,-25.4 -46.93,-24.02 -47.72,-22.65 -48.51,-21.27 -49.27,-19.8 -49.97,-18.37 -50.65,-16.9 -4.52,14.3 z" /><path
   transform="translate(-5500.014,-6750.0051)"
   style="fill:#000000;fill-rule:evenodd;display:inline"
   id="path3010"
   d="m 8793.2,18467.7 -26.67,-269.5 0,0 5.38,5.09 5.45,4.89 5.5,4.69 5.58,4.5 5.63,4.29 5.7,4.1 5.76,3.89 5.82,3.7 5.89,3.5 5.95,3.3 6.01,3.11 6.08,2.9 6.13,2.71 6.2,2.5 6.27,2.31 6.32,2.11 6.39,1.91 6.45,1.71 6.52,1.52 6.57,1.31 6.64,1.12 6.71,0.91 6.76,0.72 6.83,0.52 6.89,0.32 6.96,0.13 7.01,-0.08 7.08,-0.27 7.14,-0.48 7.21,-0.67 7.27,-0.87 7.33,-1.07 -176.76,205.18 0,0 0,0 z" /><path
   transform="translate(-5500.014,-6750.0051)"
   style="fill:#000000;fill-rule:evenodd;display:inline"
   id="path3004"
   d="m 12206.9,18467.7 -176.76,-205.18 0,0 7.33,1.07 7.27,0.87 7.21,0.67 7.14,0.48 7.08,0.27 7.01,0.08 6.96,-0.13 6.89,-0.32 6.83,-0.52 6.76,-0.72 6.71,-0.91 6.64,-1.12 6.57,-1.31 6.52,-1.52 6.45,-1.71 6.39,-1.91 6.32,-2.11 6.27,-2.31 6.2,-2.5 6.13,-2.71 6.08,-2.9 6.01,-3.11 5.95,-3.3 5.89,-3.5 5.82,-3.7 5.76,-3.89 5.7,-4.1 5.63,-4.29 5.58,-4.5 5.5,-4.69 5.45,-4.89 5.38,-5.09 -26.67,269.5 0,0 0,0 z" /><path
   style="fill:none;stroke:#000000;stroke-width:35.27777863;stroke-linecap:butt;stroke-linejoin:miter;stroke-miterlimit:4;stroke-opacity:1;stroke-dasharray:none;display:inline"
   d="M 9129.3915,13802.706 5120.3168,12147.427"
   id="path3360" /></g></svg>