<?xml version="1.0" encoding="UTF-8" standalone="no"?>
<!-- Creator: CorelDRAW -->
<svg
   xmlns:dc="http://purl.org/dc/elements/1.1/"
   xmlns:cc="http://web.resource.org/cc/"
   xmlns:rdf="http://www.w3.org/1999/02/22-rdf-syntax-ns#"
   xmlns:svg="http://www.w3.org/2000/svg"
   xmlns="http://www.w3.org/2000/svg"
   xmlns:sodipodi="http://inkscape.sourceforge.net/DTD/sodipodi-0.dtd"
   xmlns:inkscape="http://www.inkscape.org/namespaces/inkscape"
   xml:space="preserve"
   width="90mm"
   height="152mm"
   shape-rendering="geometricPrecision"
   text-rendering="geometricPrecision"
   image-rendering="optimizeQuality"
   fill-rule="evenodd"
   viewBox="0 0 9000 15200"
   id="svg2"
   sodipodi:version="0.32"
   inkscape:version="0.43"
   sodipodi:docname="x5-front.svg"
   sodipodi:docbase="/home/martin/src/dev/pics/pixelma/three"><metadata
   id="metadata274"><rdf:RDF><cc:Work
       rdf:about=""><dc:format>image/svg+xml</dc:format><dc:type
         rdf:resource="http://purl.org/dc/dcmitype/StillImage" /></cc:Work></rdf:RDF></metadata><defs
   id="defs272" /><sodipodi:namedview
   inkscape:window-height="572"
   inkscape:window-width="746"
   inkscape:pageshadow="2"
   inkscape:pageopacity="0.0"
   borderopacity="1.0"
   bordercolor="#666666"
   pagecolor="#ffffff"
   id="base"
   showguides="true"
   inkscape:guide-bbox="true"
   inkscape:zoom="0.70710678"
   inkscape:cx="207.05818"
   inkscape:cy="307.11348"
   inkscape:window-x="274"
   inkscape:window-y="91"
   inkscape:current-layer="layer1" />
 <g
   id="Ebene_x0020_1">
  <defs
   id="defs5">
   <linearGradient
   id="id0"
   gradientUnits="userSpaceOnUse"
   x1="8754.94"
   y1="6612.93"
   x2="8754.94"
   y2="5508.73">
    <stop
   offset="0"
   stop-color="#000000"
   id="stop8" />
    <stop
   offset="0.121569"
   stop-color="#E8E8E8"
   id="stop10" />
    <stop
   offset="0.2"
   stop-color="#D6D6D6"
   id="stop12" />
    <stop
   offset="0.8"
   stop-color="#D6D6D6"
   id="stop14" />
    <stop
   offset="0.878431"
   stop-color="#E8E8E8"
   id="stop16" />
    <stop
   offset="1"
   stop-color="#000000"
   id="stop18" />
    <stop
   offset="1"
   stop-color="#000000"
   id="stop20" />
   </linearGradient>
   <linearGradient
   id="id1"
   gradientUnits="userSpaceOnUse"
   x1="8754.94"
   y1="4799.76"
   x2="8754.94"
   y2="3695.56">
    <stop
   offset="0"
   stop-color="#000000"
   id="stop23" />
    <stop
   offset="0.121569"
   stop-color="#E8E8E8"
   id="stop25" />
    <stop
   offset="0.2"
   stop-color="#D6D6D6"
   id="stop27" />
    <stop
   offset="0.8"
   stop-color="#D6D6D6"
   id="stop29" />
    <stop
   offset="0.878431"
   stop-color="#E8E8E8"
   id="stop31" />
    <stop
   offset="1"
   stop-color="#000000"
   id="stop33" />
    <stop
   offset="1"
   stop-color="#000000"
   id="stop35" />
   </linearGradient>
   <linearGradient
   id="id2"
   gradientUnits="userSpaceOnUse"
   x1="8754.94"
   y1="2750.85"
   x2="8754.94"
   y2="1334.45">
    <stop
   offset="0"
   stop-color="#000000"
   id="stop38" />
    <stop
   offset="0.121569"
   stop-color="#E8E8E8"
   id="stop40" />
    <stop
   offset="0.2"
   stop-color="#D6D6D6"
   id="stop42" />
    <stop
   offset="0.8"
   stop-color="#D6D6D6"
   id="stop44" />
    <stop
   offset="0.878431"
   stop-color="#E8E8E8"
   id="stop46" />
    <stop
   offset="1"
   stop-color="#000000"
   id="stop48" />
    <stop
   offset="1"
   stop-color="#000000"
   id="stop50" />
   </linearGradient>
   <linearGradient
   id="id3"
   gradientUnits="userSpaceOnUse"
   x1="8851.28"
   y1="2153.34"
   x2="8851.28"
   y2="1931.96">
    <stop
   offset="0"
   stop-color="#333333"
   id="stop53" />
    <stop
   offset="0.501961"
   stop-color="#E8E8E8"
   id="stop55" />
    <stop
   offset="1"
   stop-color="#333333"
   id="stop57" />
    <stop
   offset="1"
   stop-color="#333333"
   id="stop59" />
   </linearGradient>
   <linearGradient
   id="id4"
   gradientUnits="userSpaceOnUse"
   x1="4403.66"
   y1="100.02"
   x2="4403.66"
   y2="334.16">
    <stop
   offset="0"
   stop-color="#1D1D1D"
   id="stop62" />
    <stop
   offset="0.380392"
   stop-color="#C9C9C9"
   id="stop64" />
    <stop
   offset="1"
   stop-color="#C1C1C1"
   id="stop66" />
    <stop
   offset="1"
   stop-color="#C1C1C1"
   id="stop68" />
   </linearGradient>
   <radialGradient
   id="id5"
   gradientUnits="userSpaceOnUse"
   cx="6822.75"
   cy="8172.1"
   r="1686.5"
   fx="6822.75"
   fy="8172.1">
    <stop
   offset="0"
   stop-color="#FFFFFF"
   id="stop71" />
    <stop
   offset="0.619608"
   stop-color="#474747"
   id="stop73" />
    <stop
   offset="0.729412"
   stop-color="#1C1C1C"
   id="stop75" />
    <stop
   offset="0.94902"
   stop-color="#000000"
   id="stop77" />
    <stop
   offset="1"
   stop-color="#171717"
   id="stop79" />
    <stop
   offset="1"
   stop-color="#171717"
   id="stop81" />
   </radialGradient>
   <linearGradient
   id="id6"
   gradientUnits="userSpaceOnUse"
   x1="4403.65"
   y1="7309.49"
   x2="4403.65"
   y2="215.97">
    <stop
   offset="0"
   stop-color="#333333"
   id="stop84" />
    <stop
   offset="0.890196"
   stop-color="#333333"
   id="stop86" />
    <stop
   offset="0.921569"
   stop-color="#3D3D3D"
   id="stop88" />
    <stop
   offset="1"
   stop-color="#000000"
   id="stop90" />
    <stop
   offset="1"
   stop-color="#000000"
   id="stop92" />
   </linearGradient>
   <linearGradient
   id="id7"
   gradientUnits="userSpaceOnUse"
   x1="4403.65"
   y1="7309.48"
   x2="4403.65"
   y2="10255.4">
    <stop
   offset="0"
   stop-color="#333333"
   id="stop95" />
    <stop
   offset="0.380392"
   stop-color="#171717"
   id="stop97" />
    <stop
   offset="0.501961"
   stop-color="#000000"
   id="stop99" />
    <stop
   offset="1"
   stop-color="#171717"
   id="stop101" />
    <stop
   offset="1"
   stop-color="#171717"
   id="stop103" />
   </linearGradient>
   <linearGradient
   id="id8"
   gradientUnits="userSpaceOnUse"
   x1="8254.42"
   y1="215.97"
   x2="8254.42"
   y2="10255.5">
    <stop
   offset="0"
   stop-color="#1F1F1F"
   id="stop106" />
    <stop
   offset="0.0509804"
   stop-color="#545454"
   id="stop108" />
    <stop
   offset="0.109804"
   stop-color="#525252"
   id="stop110" />
    <stop
   offset="0.709804"
   stop-color="#525252"
   id="stop112" />
    <stop
   offset="0.870588"
   stop-color="#1F1F1F"
   id="stop114" />
    <stop
   offset="1"
   stop-color="#171717"
   id="stop116" />
    <stop
   offset="1"
   stop-color="#171717"
   id="stop118" />
   </linearGradient>
   <linearGradient
   id="id9"
   gradientUnits="userSpaceOnUse"
   x1="552.88"
   y1="215.97"
   x2="552.88"
   y2="10255.5">
    <stop
   offset="0"
   stop-color="#1F1F1F"
   id="stop121" />
    <stop
   offset="0.0509804"
   stop-color="#545454"
   id="stop123" />
    <stop
   offset="0.109804"
   stop-color="#525252"
   id="stop125" />
    <stop
   offset="0.709804"
   stop-color="#525252"
   id="stop127" />
    <stop
   offset="0.870588"
   stop-color="#1F1F1F"
   id="stop129" />
    <stop
   offset="1"
   stop-color="#171717"
   id="stop131" />
    <stop
   offset="1"
   stop-color="#171717"
   id="stop133" />
   </linearGradient>
   <radialGradient
   id="id10"
   gradientUnits="userSpaceOnUse"
   cx="6822.75"
   cy="8094.82"
   r="517.62"
   fx="6822.75"
   fy="8094.82">
    <stop
   offset="0"
   stop-color="#9B9B9B"
   id="stop136" />
    <stop
   offset="0.678431"
   stop-color="#999999"
   id="stop138" />
    <stop
   offset="1"
   stop-color="#292929"
   id="stop140" />
    <stop
   offset="1"
   stop-color="#292929"
   id="stop142" />
   </radialGradient>
   <linearGradient
   id="id11"
   gradientUnits="userSpaceOnUse"
   x1="1582.66"
   y1="5720.05"
   x2="1884.66"
   y2="2267.07">
    <stop
   offset="0"
   stop-color="#8091AD"
   id="stop145" />
    <stop
   offset="0.239216"
   stop-color="#B4E9ED"
   id="stop147" />
    <stop
   offset="0.411765"
   stop-color="#D4D4D4"
   id="stop149" />
    <stop
   offset="0.541176"
   stop-color="#DEDEDE"
   id="stop151" />
    <stop
   offset="0.65098"
   stop-color="#F0D1EA"
   id="stop153" />
    <stop
   offset="0.8"
   stop-color="#F59F8E"
   id="stop155" />
    <stop
   offset="1"
   stop-color="#F6F7D2"
   id="stop157" />
    <stop
   offset="1"
   stop-color="#F6F7D2"
   id="stop159" />
   </linearGradient>
  </defs>
  <path
   d="M8798.19 5645.8c-13.57,-53.71 -43.86,-101.71 -86.5,-137.07l0 1104.2c42.64,-35.36 72.93,-83.36 86.5,-137.07l0 -830.06 0 0 0 0 0 0 0 0 0 0 0 0z"
   id="path161"
   stroke-linejoin="bevel"
   stroke-width="18"
   stroke="#000000"
   fill="url(#id0)" />
  <path
   d="M8798.19 3832.63c-13.57,-53.7 -43.86,-101.71 -86.5,-137.07l0 1104.2c42.64,-35.36 72.93,-83.36 86.5,-137.07l0 -830.06 0 0 0 0 0 0 0 0 0 0 0 0z"
   id="path163"
   stroke-linejoin="bevel"
   stroke-width="18"
   stroke="#000000"
   fill="url(#id1)" />
  <path
   d="M8798.19 1471.52c-13.57,-53.71 -43.86,-101.71 -86.5,-137.07l0 1416.4c42.64,-35.36 72.93,-83.36 86.5,-137.07l0 -1142.26 0 0 0 0 0 0 0 0 0 0 0 0z"
   id="path165"
   stroke-linejoin="bevel"
   stroke-width="18"
   stroke="#000000"
   fill="url(#id2)" />
  <path
   d="M8798.19 1931.96l91.73 0c3.83,0 7.51,1.52 10.23,4.23 2.71,2.72 4.23,6.4 4.23,10.23l0 192.46c0,7.98 -6.47,14.46 -14.46,14.46l-91.73 0 0 -221.38z"
   id="path167"
   stroke-linejoin="bevel"
   stroke-width="0"
   stroke="#000000"
   fill="url(#id3)" />
  <path
   d="M5414.37 173.07c51.8,-30.81 109.43,-50.54 169.24,-57.94 77.87,-8.68 156.09,-13.73 234.43,-15.11l-2828.77 0c78.33,1.38 156.56,6.43 234.42,15.11 59.82,7.4 117.44,27.13 169.24,57.94 40.99,22.49 81.18,46.42 120.49,71.72 37.99,21.84 77.77,40.37 118.92,55.41 57.4,18.07 116.7,29.47 176.71,33.96l1189.21 0c60.01,-4.49 119.3,-15.89 176.7,-33.96 41.15,-15.04 80.94,-33.57 118.92,-55.41 39.32,-25.3 79.5,-49.23 120.49,-71.72z"
   id="path169"
   stroke-linejoin="bevel"
   stroke-width="0"
   stroke="#000000"
   fill="url(#id4)" />
  <path
   d="M5150.17 100.02l-1493.04 0 82.99 63c35.02,20.54 74.75,31.68 115.34,32.33l1096.38 0c40.59,-0.65 80.33,-11.79 115.34,-32.33l82.99 -63 0 0 0 0 0 0 0 0 0 0 0 0z"
   id="path171"
   stroke-linejoin="bevel"
   stroke-width="18"
   stroke="#000000"
   fill="#EB7373" />
  <path
   d="M8711.69 534.02c0,-239.69 -194.31,-434 -434,-434l-2459.65 0c-78.34,1.38 -156.56,6.43 -234.43,15.11 -59.81,7.4 -117.44,27.13 -169.24,57.94 -40.99,22.49 -81.17,46.42 -120.49,71.72 -37.98,21.84 -77.77,40.37 -118.92,55.41 -57.4,18.07 -116.69,29.47 -176.7,33.96l-1189.21 0c-60.01,-4.49 -119.31,-15.89 -176.71,-33.96 -41.15,-15.04 -80.93,-33.57 -118.92,-55.41 -39.31,-25.3 -79.5,-49.23 -120.49,-71.72 -51.8,-30.81 -109.42,-50.54 -169.24,-57.94 -77.86,-8.68 -156.09,-13.73 -234.42,-15.11l-2459.65 0c-239.7,0 -434,194.31 -434,434l0 13878.8c0,379.51 307.65,687.16 687.16,687.16l7241.74 0c379.51,0 687.17,-307.65 687.17,-687.16l0 -13878.8 0 0 0 0 0 0 0 0 0 0 0 0z"
   id="path173"
   stroke-linejoin="bevel"
   stroke-width="18"
   stroke="#000000"
   fill="#E8E8E8" />
  <path
   d="M8595.74 534.02c0,-84.36 -33.51,-165.25 -93.15,-224.9 -59.65,-59.65 -140.55,-93.15 -224.9,-93.15l-2527.34 0c-129.85,0.02 -257.5,33.51 -370.63,97.24 -19.89,11.2 -38.5,24.55 -55.49,39.79 -47.6,42.71 -105.19,72.75 -167.46,87.33 -80.44,22.51 -163.65,33.53 -247.18,32.74l-1011.88 0c-83.52,0.79 -166.74,-10.23 -247.18,-32.74 -62.26,-14.58 -119.85,-44.62 -167.45,-87.33 -16.99,-15.24 -35.6,-28.59 -55.49,-39.79 -113.14,-63.73 -240.79,-97.22 -370.64,-97.24l-2527.33 0c-84.36,0 -165.25,33.5 -224.9,93.15 -59.65,59.65 -93.16,140.54 -93.16,224.9l0 13878.8c0,315.47 255.75,571.21 571.22,571.21l7241.74 0c151.5,0 296.79,-60.18 403.91,-167.3 107.13,-107.13 167.31,-252.42 167.31,-403.91l0 -13878.8 0 0 0 0 0 0 0 0 0 0 0 0z"
   id="path175"
   stroke-linejoin="bevel"
   stroke-width="15"
   stroke="#FFFFFF"
   fill="#000000" />
  <path
   d="M8358.96 226.52c-26.52,-7.01 -53.84,-10.55 -81.27,-10.55l-2527.34 0c-129.85,0.02 -257.5,33.51 -370.63,97.24 -19.89,11.2 -38.5,24.55 -55.49,39.79 -47.6,42.71 -105.19,72.75 -167.46,87.33 -80.44,22.51 -163.65,33.53 -247.18,32.74l-1011.88 0c-83.52,0.79 -166.74,-10.23 -247.18,-32.74 -62.26,-14.58 -119.85,-44.62 -167.45,-87.33 -16.99,-15.24 -35.6,-28.59 -55.49,-39.79 -113.14,-63.73 -240.79,-97.22 -370.64,-97.24l-2527.33 0c-27.44,0 -54.75,3.54 -81.27,10.55l0 14186.3c0,184.7 149.73,334.43 334.43,334.43l7241.74 0c88.7,0 173.77,-35.24 236.48,-97.95 62.72,-62.72 97.96,-147.79 97.96,-236.48l0 -14186.3 0 0 0 0 0 0 0 0 0 0 0 0z"
   id="path177"
   stroke-linejoin="bevel"
   stroke-width="15"
   stroke="#9E9E9E"
   fill="#171717" />
  <path
   d="M5132.88 11940.5c0,104.6 115.54,189.4 258.07,189.4 142.53,0 258.07,-84.8 258.07,-189.4 0,-104.61 -115.54,-189.41 -258.07,-189.41 -142.53,0 -258.07,84.8 -258.07,189.41z"
   id="path179"
   stroke-linejoin="bevel"
   stroke-width="15"
   stroke="#FFFFFF"
   fill="#E8E8E8" />
  <path
   d="M4970.26 12108.1l0 -335.17c0,-3.84 1.52,-7.52 4.24,-10.23 2.71,-2.71 6.39,-4.24 10.23,-4.24l85.85 0c7.99,0 14.47,6.48 14.47,14.47l0 335.17c0,7.99 -6.48,14.47 -14.47,14.47l-85.85 0c-3.84,0 -7.52,-1.52 -10.23,-4.24 -2.72,-2.71 -4.24,-6.39 -4.24,-10.23z"
   id="path181"
   stroke-linejoin="bevel"
   stroke-width="15"
   stroke="#FFFFFF"
   fill="#E8E8E8" />
  <path
   d="M4702.14 12122.6l-212.19 0c-7.99,0 -14.46,-6.48 -14.46,-14.47l0 -335.17c0,-7.99 6.47,-14.47 14.46,-14.47l212.19 0c121.66,0 220.29,81.51 220.29,182.06 0,100.54 -98.63,182.05 -220.29,182.05z"
   id="path183"
   stroke-linejoin="bevel"
   stroke-width="15"
   stroke="#FFFFFF"
   fill="#E8E8E8" />
  <path
   d="M4312.88 11772.9l0 197.96c0,38.48 -48.66,69.66 -108.68,69.66 -60.03,0 -108.69,-31.18 -108.69,-69.66l0 -197.96c0,-7.99 -6.48,-14.47 -14.47,-14.47l-85.85 0c-7.99,0 -14.47,6.48 -14.47,14.47l0 197.96c0,87.83 100.06,159.03 223.48,159.03 123.41,0 223.47,-71.2 223.47,-159.03l0 -197.96c0,-7.99 -6.48,-14.47 -14.47,-14.47l-85.85 0c-7.99,0 -14.47,6.48 -14.47,14.47l0 0 0 0 0 0 0 0 0 0 0 0z"
   id="path185"
   stroke-linejoin="bevel"
   stroke-width="15"
   stroke="#FFFFFF"
   fill="#E8E8E8" />
  <path
   d="M3804.18 11766.2l176.46 335.17c2.37,4.49 2.21,9.88 -0.41,14.22 -2.62,4.34 -7.32,6.99 -12.39,6.99l-97.02 0c-5.37,0 -10.3,-2.97 -12.8,-7.73l-109.97 -208.87c-2.5,-4.75 -7.43,-7.73 -12.8,-7.73 -5.37,0 -10.3,2.98 -12.8,7.73l-109.97 208.87c-2.51,4.76 -7.44,7.73 -12.81,7.73l-97.02 0c-5.07,0 -9.77,-2.65 -12.39,-6.99 -2.61,-4.34 -2.77,-9.73 -0.41,-14.22l176.47 -335.17c2.5,-4.75 7.43,-7.73 12.8,-7.73l112.26 0 0 0c5.37,0 10.29,2.98 12.8,7.73l0 0 0 0 0 0 0 0 0 0 0 0z"
   id="path187"
   stroke-linejoin="bevel"
   stroke-width="15"
   stroke="#FFFFFF"
   fill="#E8E8E8" />
  <path
   d="M3224.63 11711.8l130.23 0c7.99,0 14.46,6.48 14.46,14.47l0 381.86c0,3.84 -1.52,7.52 -4.23,10.23 -2.72,2.72 -6.4,4.24 -10.23,4.24l-130.23 0c-7.99,0 -14.46,-6.48 -14.46,-14.47l0 -381.86c0,-7.99 6.47,-14.47 14.46,-14.47z"
   id="path189"
   stroke-linejoin="bevel"
   stroke-width="15"
   stroke="#FFFFFF"
   fill="#E8E8E8" />
  <path
   d="M3421.2 11449c0,-72.61 -58.85,-131.46 -131.46,-131.46 -72.6,0 -131.45,58.85 -131.45,131.46 0,72.6 58.85,131.45 131.45,131.45 72.61,0 131.46,-58.85 131.46,-131.45z"
   id="path191"
   stroke-linejoin="bevel"
   stroke-width="15"
   stroke="#FFFFFF"
   fill="#E8E8E8" />
  <path
   d="M5247.66 11940.5c0,54.34 64.15,98.4 143.29,98.4 79.13,0 143.28,-44.06 143.28,-98.4 0,-54.35 -64.15,-98.41 -143.28,-98.41 -79.14,0 -143.29,44.06 -143.29,98.41z"
   id="path193"
   stroke-linejoin="bevel"
   stroke-width="15"
   stroke="#FFFFFF"
   fill="#292929" />
  <path
   d="M4590.27 12024.5c0,7.99 6.48,14.46 14.47,14.46l97.4 0c58.27,0 105.5,-44.06 105.5,-98.4 0,-54.35 -47.23,-98.41 -105.5,-98.41l-97.4 0c-3.84,0 -7.53,1.53 -10.23,4.24 -2.7,2.7 -4.24,6.39 -4.24,10.22l0 167.89 0 0 0 0 0 0 0 0 0 0 0 0 0 0z"
   id="path195"
   stroke-linejoin="bevel"
   stroke-width="15"
   stroke="#FFFFFF"
   fill="#292929" />
  <path
   d="M8029.32 6413.83l-2413.13 0 0 3588.3 2413.13 0 0 -3588.3 0 0z"
   id="path197"
   stroke-linejoin="bevel"
   stroke-width="0"
   stroke="#000000"
   fill="url(#id5)" />
  <path
   d="M8254.42 215.97l-2504.07 0c-129.85,0.02 -257.5,33.51 -370.63,97.24 -19.89,11.2 -38.5,24.55 -55.49,39.79 -47.6,42.71 -105.19,72.75 -167.46,87.33 -80.44,22.51 -163.65,33.53 -247.18,32.74l-1011.88 0c-83.52,0.79 -166.74,-10.23 -247.18,-32.74 -62.26,-14.58 -119.85,-44.62 -167.45,-87.33 -16.99,-15.24 -35.6,-28.59 -55.49,-39.79 -113.14,-63.73 -240.79,-97.22 -370.64,-97.24l-2504.07 0 0 7093.51 5530.55 0c434.71,-338.63 1043.92,-338.63 1478.64,0l692.35 0 0 -7093.51 0 0 0 0 0 0 0 0 0 0 0 0z"
   id="path199"
   fill="url(#id6)" />
  <path
   d="M8254.42 7309.48l0 2945.96 -7701.54 0 0 -2945.96 5530.55 0c-21.86,17.04 -43.14,34.82 -63.77,53.33 -206.39,185.03 -342.12,435.98 -384.02,709.98 -97.78,639.55 177.29,1278.94 708.86,1647.73 287.61,199.54 668.88,199.54 956.5,0 531.57,-368.79 806.64,-1008.18 708.85,-1647.73 -41.89,-274 -177.62,-524.95 -384.01,-709.98 -20.63,-18.51 -41.91,-36.29 -63.77,-53.33l692.35 0 0 0 0 0 0 0 0 0 0 0 0 0z"
   id="path201"
   fill="url(#id7)" />
  <path
   d="M1242.94 1537.3l6321.42 0c139.82,0 253.17,113.35 253.17,253.17l0 4371.25c0,139.81 -113.35,253.16 -253.17,253.16l-6321.42 0c-139.82,0 -253.16,-113.35 -253.16,-253.16l0 -4371.25c0,-139.82 113.34,-253.17 253.16,-253.17l0 0 0 0 0 0 0 0 0 0 0 0z"
   id="path203"
   stroke-linejoin="bevel"
   stroke-width="18"
   stroke="#000000"
   fill="#E8E8E8" />
  <path
   d="M1370.01 1700.53l6067.29 0c71.91,0 130.2,58.29 130.2,130.2l0 4290.71c0,71.91 -58.29,130.2 -130.2,130.2l-6067.29 0c-71.91,0 -130.2,-58.29 -130.2,-130.2l0 -4290.71c0,-71.91 58.29,-130.2 130.2,-130.2l0 0 0 0 0 0 0 0 0 0 0 0z"
   id="path205"
   stroke-linejoin="bevel"
   stroke-width="15"
   stroke="#9E9E9E"
   fill="#000000" />
  <path
   d="M2185.96 1949.94l5059.94 0 0 4084.05 -5059.94 0 0 -4084.05 0 0 0 0 0 0 0 0 0 0 0 0z"
   id="path207"
   stroke-linejoin="bevel"
   stroke-width="25"
   stroke="#9E9E9E"
   fill="#D6DEE8" />
  <path
   d="M8254.42 215.97l0 8954.56m0 -8954.56z"
   id="path209"
   fill="none" />
  <path
   d="M552.88 215.97l0 8954.56m0 -8954.56z"
   id="path211"
   fill="none" />
  <path
   d="M8279.42 215.97l0 10039.5 -50 0 0 -10039.5 50 0 0 0 0 0 0 0 0 0 0 0 0 0 0 0z"
   id="path213"
   fill="url(#id8)" />
  <path
   d="M577.88 215.97l0 10039.5 -50 0 0 -10039.5 50 0 0 0 0 0 0 0 0 0 0 0 0 0 0 0z"
   id="path215"
   fill="url(#id9)" />
  <path
   d="M7800.11 8094.81c0,-539.77 -437.58,-977.35 -977.36,-977.35 -539.78,0 -977.36,437.58 -977.36,977.35 0,539.79 437.58,977.37 977.36,977.37 539.78,0 977.36,-437.58 977.36,-977.37l0 0z"
   id="path217"
   stroke-linejoin="bevel"
   stroke-width="15"
   stroke="#FFFFFF"
   fill="#E8E8E8" />
  <path
   d="M6107.83 8126.03l96.54 55.74c2.24,1.29 5,1.29 7.23,0 2.24,-1.29 3.62,-3.68 3.62,-6.26l0 -161.41c0,-2.58 -1.38,-4.97 -3.62,-6.26 -2.23,-1.29 -4.99,-1.29 -7.23,0l-96.54 55.74c-2.24,1.29 -5,1.29 -7.24,0 -2.23,-1.29 -3.61,-3.68 -3.61,-6.27l0 -43.21c0,-2.58 -1.38,-4.97 -3.62,-6.26 -2.24,-1.29 -4.99,-1.29 -7.23,0l-139.78 80.7c-2.24,1.29 -3.62,3.68 -3.62,6.27 0,2.58 1.38,4.97 3.62,6.26l139.78 80.7c2.24,1.29 4.99,1.29 7.23,0 2.24,-1.29 3.62,-3.68 3.62,-6.26l0 -43.21c0,-2.59 1.38,-4.97 3.61,-6.27 2.24,-1.29 5,-1.29 7.24,0l0 0 0 0 0 0 0 0 0 0 0 0z"
   id="path219"
   stroke-linejoin="bevel"
   stroke-width="18"
   stroke="#000000"
   fill="#787878" />
  <path
   d="M6686.41 8832.16l0 20.29c0,1.92 0.76,3.76 2.12,5.12 1.35,1.35 3.19,2.11 5.11,2.11l258.22 0c3.99,0 7.23,-3.23 7.23,-7.23l0 -20.29c0,-3.99 -3.24,-7.23 -7.23,-7.23l-258.22 0c-3.99,0 -7.23,3.24 -7.23,7.23l0 0 0 0 0 0 0 0 0 0 0 0z"
   id="path221"
   stroke-linejoin="bevel"
   stroke-width="18"
   stroke="#000000"
   fill="#787878" />
  <path
   d="M7537.77 8063.59l-96.54 -55.74c-2.24,-1.29 -5,-1.29 -7.23,0 -2.24,1.29 -3.62,3.68 -3.62,6.26l0 161.41c0,2.58 1.38,4.97 3.62,6.26 2.23,1.29 4.99,1.29 7.23,0l96.54 -55.74c2.24,-1.29 5,-1.29 7.24,0 2.23,1.29 3.61,3.68 3.61,6.27l0 43.21c0,2.58 1.38,4.97 3.62,6.26 2.24,1.29 4.99,1.29 7.23,0l139.78 -80.7c2.24,-1.29 3.62,-3.68 3.62,-6.27 0,-2.58 -1.38,-4.97 -3.62,-6.26l-139.78 -80.7c-2.24,-1.29 -4.99,-1.29 -7.23,0 -2.24,1.29 -3.62,3.68 -3.62,6.26l0 43.21c0,2.59 -1.38,4.97 -3.61,6.27 -2.24,1.29 -5,1.29 -7.24,0l0 0 0 0 0 0 0 0 0 0 0 0z"
   id="path223"
   stroke-linejoin="bevel"
   stroke-width="18"
   stroke="#000000"
   fill="#787878" />
  <path
   d="M6847.36 7364.71c-1.92,0 -3.76,0.76 -5.11,2.12 -1.36,1.35 -2.12,3.19 -2.12,5.11l0 104.5c0,4 -3.24,7.23 -7.24,7.23l-20.28 0c-4,0 -7.24,-3.23 -7.24,-7.23l0 -104.5c0,-1.92 -0.76,-3.76 -2.12,-5.11 -1.35,-1.36 -3.19,-2.12 -5.11,-2.12l-104.5 0c-1.92,0 -3.76,-0.76 -5.11,-2.12 -1.36,-1.36 -2.12,-3.2 -2.12,-5.11l0 -20.29c0,-4 3.24,-7.24 7.23,-7.24l104.5 0c1.92,0 3.76,-0.76 5.11,-2.11 1.36,-1.36 2.12,-3.2 2.12,-5.12l0 -104.5c0,-3.99 3.24,-7.23 7.24,-7.23l20.28 0c4,0 7.24,3.24 7.24,7.23l0 104.5c0,4 3.24,7.23 7.23,7.23l104.5 0c3.99,0 7.23,3.24 7.23,7.24l0 20.29c0,3.99 -3.24,7.23 -7.23,7.23l-104.5 0z"
   id="path225"
   stroke-linejoin="bevel"
   stroke-width="18"
   stroke="#000000"
   fill="#787878" />
  <path
   d="M7340.37 8094.81c0,-285.87 -231.74,-517.61 -517.62,-517.61 -285.88,0 -517.62,231.74 -517.62,517.61 0,285.88 231.74,517.63 517.62,517.63 285.88,0 517.62,-231.75 517.62,-517.63z"
   id="path227"
   stroke-linejoin="bevel"
   stroke-width="15"
   stroke="#FFFFFF"
   fill="url(#id10)" />
  <path
   d="M7103.64 8094.81c0,-155.13 -125.76,-280.89 -280.89,-280.89 -155.13,0 -280.89,125.76 -280.89,280.89 0,155.14 125.76,280.9 280.89,280.9 155.13,0 280.89,-125.76 280.89,-280.9l0 0 0 0 0 0 0 0 0 0 0 0 0 0z"
   id="path229"
   stroke-linejoin="bevel"
   stroke-width="15"
   stroke="#5C5C5C"
   fill="#E8E8E8" />
  <path
   d="M2148.55 12747.2l45.4 -216.91 28.89 0 -18.79 90.1 112.42 0 18.79 -90.1 28.99 0 -45.25 216.91 -28.99 0 21.31 -102.22 -112.32 0 -21.46 102.22 -28.99 0zm219.58 0l45.26 -216.91 65.4 0c15.7,0 27.67,1.16 35.96,3.38 11.81,3.08 21.91,8.54 30.35,16.36 8.38,7.83 14.69,17.63 18.94,29.4 4.19,11.71 6.31,24.9 6.31,39.49 0,17.48 -2.63,33.38 -7.88,47.73 -5.3,14.34 -12.17,26.97 -20.71,37.87 -8.53,10.91 -17.47,19.45 -26.81,25.61 -9.3,6.16 -20.36,10.71 -33.03,13.69 -9.7,2.27 -21.57,3.38 -35.71,3.38l-78.08 0zm34.14 -24.54l34.35 0c15.5,0 29.24,-1.47 41.26,-4.3 7.52,-1.77 13.94,-4.39 19.24,-7.88 7.02,-4.39 13.38,-10.3 19.09,-17.57 7.53,-9.7 13.48,-20.71 17.98,-33.08 4.49,-12.37 6.72,-26.46 6.72,-42.22 0,-17.58 -3.03,-31.06 -9.14,-40.51 -6.12,-9.39 -13.94,-15.65 -23.39,-18.68 -7.02,-2.27 -17.93,-3.44 -32.72,-3.44l-38.29 0 -35.1 167.68 0 0 0 0 0 0 0 0 0 0 0 0 0 0zm184.69 24.54l45.26 -216.91 65.4 0c15.7,0 27.67,1.16 35.96,3.38 11.81,3.08 21.91,8.54 30.35,16.36 8.38,7.83 14.69,17.63 18.94,29.4 4.19,11.71 6.31,24.9 6.31,39.49 0,17.48 -2.63,33.38 -7.88,47.73 -5.3,14.34 -12.17,26.97 -20.71,37.87 -8.53,10.91 -17.47,19.45 -26.81,25.61 -9.3,6.16 -20.36,10.71 -33.03,13.69 -9.7,2.27 -21.57,3.38 -35.71,3.38l-78.08 0zm34.14 -24.54l34.35 0c15.5,0 29.24,-1.47 41.26,-4.3 7.52,-1.77 13.94,-4.39 19.24,-7.88 7.02,-4.39 13.38,-10.3 19.09,-17.57 7.53,-9.7 13.48,-20.71 17.98,-33.08 4.49,-12.37 6.72,-26.46 6.72,-42.22 0,-17.58 -3.03,-31.06 -9.14,-40.51 -6.12,-9.39 -13.94,-15.65 -23.39,-18.68 -7.02,-2.27 -17.93,-3.44 -32.72,-3.44l-38.29 0 -35.1 167.68 0 0 0 0 0 0 0 0 0 0 0 0 0 0zm268.88 24.54l45.26 -216.91 65.4 0c15.7,0 27.67,1.16 35.96,3.38 11.81,3.08 21.91,8.54 30.35,16.36 8.38,7.83 14.69,17.63 18.94,29.4 4.19,11.71 6.31,24.9 6.31,39.49 0,17.48 -2.63,33.38 -7.88,47.73 -5.3,14.34 -12.17,26.97 -20.71,37.87 -8.53,10.91 -17.47,19.45 -26.81,25.61 -9.3,6.16 -20.36,10.71 -33.03,13.69 -9.7,2.27 -21.57,3.38 -35.71,3.38l-78.08 0zm34.14 -24.54l34.35 0c15.5,0 29.24,-1.47 41.26,-4.3 7.52,-1.77 13.94,-4.39 19.24,-7.88 7.02,-4.39 13.38,-10.3 19.09,-17.57 7.53,-9.7 13.48,-20.71 17.98,-33.08 4.49,-12.37 6.72,-26.46 6.72,-42.22 0,-17.58 -3.03,-31.06 -9.14,-40.51 -6.12,-9.39 -13.94,-15.65 -23.39,-18.68 -7.02,-2.27 -17.93,-3.44 -32.72,-3.44l-38.29 0 -35.1 167.68 0 0 0 0 0 0 0 0 0 0 0 0 0 0zm219.29 -161.96l6.36 -30.35 26.62 0 -6.32 30.35 -26.66 0zm-39.04 186.56l32.83 -157.12 26.76 0 -32.82 157.12 -26.77 0zm66.87 14.14l27.07 2.53c-0.21,6.11 0.55,10.7 2.22,13.78 1.66,3.03 4.34,5.41 7.98,7.07 4.85,2.18 11.11,3.29 18.78,3.29 16.22,0 27.83,-4.19 34.95,-12.58 4.6,-5.65 8.89,-17.88 12.88,-36.71l2.63 -12.73c-13.89,14.09 -28.69,21.16 -44.4,21.16 -15.85,0 -29.14,-5.86 -39.84,-17.52 -10.71,-11.72 -16.06,-28.24 -16.06,-49.65 0,-17.68 4.19,-33.89 12.62,-48.68 8.44,-14.8 18.49,-25.96 30.15,-33.54 11.62,-7.52 23.59,-11.31 35.96,-11.31 20.61,0 36.47,9.8 47.63,29.29l5.3 -25.71 24.59 0 -31.66 151.67c-3.49,16.66 -7.98,29.64 -13.64,38.98 -5.6,9.3 -13.43,16.52 -23.43,21.67 -10,5.1 -21.57,7.68 -34.7,7.68 -12.62,0 -23.48,-1.62 -32.62,-4.9 -9.14,-3.23 -15.96,-7.98 -20.4,-14.24 -4.5,-6.27 -6.77,-13.44 -6.77,-21.57 0,-2.42 0.25,-5.1 0.76,-7.98l0 0 0 0 0 0 0 0 0 0 0 0 0 0zm33.43 -83.73c0,10.75 1.06,18.83 3.13,24.29 2.93,7.57 7.17,13.38 12.63,17.37 5.45,3.99 11.56,5.96 18.28,5.96 8.79,0 17.52,-3.08 26.16,-9.24 8.69,-6.16 15.71,-15.71 21.11,-28.64 5.35,-12.87 8.08,-25.25 8.08,-36.96 0,-12.93 -3.59,-23.19 -10.76,-30.86 -7.12,-7.63 -16.01,-11.47 -26.56,-11.47 -6.52,0 -12.83,1.77 -18.94,5.26 -6.11,3.48 -11.82,8.83 -17.07,15.96 -5.3,7.17 -9.29,15.75 -11.97,25.7 -2.73,9.95 -4.09,17.48 -4.09,22.63l0 0 0 0 0 0 0 0 0 0 0 0 0 0zm174.59 -116.97l6.36 -30.35 26.62 0 -6.32 30.35 -26.66 0zm-39.04 186.56l32.83 -157.12 26.76 0 -32.82 157.12 -26.77 0zm130.9 -21.86l-4.39 21.92c-6.41,1.67 -12.63,2.53 -18.69,2.53 -10.6,0 -19.09,-2.63 -25.4,-7.88 -4.75,-3.94 -7.12,-9.29 -7.12,-16.11 0,-3.44 1.26,-11.37 3.84,-23.84l19.09 -91.26 -21.16 0 4.29 -20.71 21.16 0 8.13 -38.63 30.66 -18.49 -12.02 57.12 26.36 0 -4.44 20.71 -26.22 0 -18.18 86.87c-2.27,11.01 -3.38,17.62 -3.38,19.79 0,3.19 0.91,5.56 2.73,7.28 1.82,1.66 4.79,2.47 8.94,2.47 5.91,0 11.21,-0.55 15.8,-1.77l0 0 0 0 0 0 0 0 0 0 0 0 0 0zm123.29 2.3c-9.3,7.97 -18.19,13.83 -26.77,17.52 -8.59,3.74 -17.78,5.56 -27.52,5.56 -14.5,0 -26.22,-4.25 -35.1,-12.78 -8.84,-8.54 -13.29,-19.45 -13.29,-32.78 0,-8.79 1.97,-16.56 5.96,-23.28 3.99,-6.77 9.29,-12.22 15.91,-16.31 6.62,-4.09 14.7,-7.02 24.29,-8.79 6.01,-1.16 17.43,-2.12 34.24,-2.83 16.82,-0.66 28.89,-2.47 36.16,-5.3 2.08,-7.32 3.14,-13.39 3.14,-18.23 0,-6.22 -2.28,-11.06 -6.82,-14.65 -6.21,-4.9 -15.3,-7.37 -27.22,-7.37 -11.27,0 -20.46,2.47 -27.58,7.47 -7.17,5 -12.37,12.07 -15.6,21.21l-27.12 -2.37c5.55,-15.56 14.29,-27.47 26.26,-35.81 12.02,-8.28 27.12,-12.42 45.35,-12.42 19.44,0 34.85,4.64 46.16,13.94 8.69,6.87 13.03,15.86 13.03,26.92 0,8.38 -1.21,18.08 -3.69,29.14l-8.73 39.09c-2.78,12.42 -4.15,22.52 -4.15,30.3 0,4.95 1.12,12.02 3.29,21.31l-27.12 0c-1.47,-5.15 -2.48,-11.62 -3.08,-19.54l0 0 0 0 0 0 0 0 0 0 0 0 0 0zm9.89 -60.05c-3.73,1.46 -7.77,2.62 -12.07,3.38 -4.29,0.81 -11.46,1.62 -21.51,2.53 -15.55,1.36 -26.56,3.13 -32.98,5.25 -6.41,2.12 -11.26,5.5 -14.49,10.15 -3.29,4.59 -4.9,9.75 -4.9,15.35 0,7.53 2.57,13.69 7.78,18.54 5.15,4.79 12.52,7.22 22.12,7.22 8.88,0 17.42,-2.32 25.6,-7.02 8.18,-4.7 14.65,-11.21 19.34,-19.6 4.75,-8.38 8.44,-20.35 11.11,-35.8zm50.61 79.55l45.3 -216.91 26.77 0 -45.3 216.91 -26.77 0zm126.21 0l122.92 -216.91 34.2 0 35.8 216.91 -28.08 0 -10.5 -62.42 -87.78 0 -34.74 62.42 -31.82 0zm78.99 -84.8l71.76 0 -8.43 -54.44c-3.23,-21.61 -5.25,-39.59 -6.06,-53.99 -4.95,12.43 -12.12,27.18 -21.62,44.25l-35.65 64.18 0 0 0 0 0 0 0 0 0 0 0 0 0 0zm246.5 56.4c-18.84,21.31 -38.13,31.97 -57.83,31.97 -12.12,0 -21.92,-3.49 -29.39,-10.41 -7.42,-6.97 -11.16,-15.45 -11.16,-25.55 0,-6.57 1.67,-17.93 5.05,-33.99l18.94 -90.71 26.76 0 -21 100.46c-1.77,8.38 -2.68,14.89 -2.68,19.54 0,5.91 1.82,10.5 5.4,13.84 3.59,3.28 8.89,4.95 15.91,4.95 7.48,0 14.8,-1.82 21.97,-5.51 7.17,-3.63 13.33,-8.58 18.48,-14.8 5.21,-6.21 9.4,-13.53 12.68,-22.01 2.17,-5.46 4.7,-14.95 7.53,-28.59l14.19 -67.88 26.81 0 -32.87 157.12 -24.7 0 5.91 -28.43 0 0 0 0 0 0 0 0 0 0 0 0 0 0zm167.22 5.6c-15.31,17.53 -31.27,26.32 -47.93,26.32 -14.9,0 -27.32,-5.51 -37.22,-16.47 -9.9,-11.01 -14.9,-26.97 -14.9,-47.88 0,-19.14 3.94,-36.61 11.77,-52.47 7.87,-15.81 17.67,-27.67 29.44,-35.55 11.82,-7.93 23.64,-11.87 35.45,-11.87 19.55,0 34.29,9.44 44.24,28.28l17.78 -84.49 26.62 0 -45.31 216.91 -24.69 0 4.75 -22.78 0 0 0 0 0 0 0 0 0 0 0 0 0 0zm-73.39 -43.08c0,10.96 1.07,19.6 3.24,25.91 2.17,6.31 5.86,11.57 11.11,15.76 5.2,4.19 11.46,6.26 18.78,6.26 12.13,0 23.14,-6.31 32.98,-18.94 13.24,-16.76 19.85,-37.47 19.85,-62.12 0,-12.42 -3.28,-22.12 -9.75,-29.14 -6.51,-7.02 -14.69,-10.5 -24.59,-10.5 -6.41,0 -12.22,1.41 -17.53,4.29 -5.25,2.83 -10.5,7.73 -15.65,14.55 -5.2,6.86 -9.55,15.6 -13.13,26.16 -3.54,10.5 -5.31,19.79 -5.31,27.77l0 0 0 0 0 0 0 0 0 0 0 0 0 0zm173.99 -120.62l6.36 -30.35 26.62 0 -6.32 30.35 -26.66 0zm-39.04 186.56l32.83 -157.12 26.76 0 -32.82 157.12 -26.77 0zm73.08 -59.66c0,-30.66 9.04,-56.06 27.07,-76.16 14.9,-16.62 34.44,-24.9 58.58,-24.9 18.94,0 34.24,5.96 45.81,17.78 11.56,11.81 17.37,27.82 17.37,47.92 0,18.08 -3.64,34.85 -10.96,50.41 -7.27,15.5 -17.67,27.42 -31.11,35.7 -13.48,8.28 -27.67,12.43 -42.57,12.43 -12.22,0 -23.34,-2.58 -33.33,-7.83 -10,-5.2 -17.68,-12.63 -22.93,-22.17 -5.31,-9.6 -7.93,-20.66 -7.93,-33.18l0 0 0 0 0 0 0 0 0 0 0 0 0 0zm26.76 -2.63c0,14.8 3.59,26.01 10.66,33.63 7.12,7.63 16.16,11.47 27.07,11.47 5.76,0 11.41,-1.16 17.02,-3.49 5.66,-2.32 10.86,-5.8 15.71,-10.55 4.79,-4.75 8.94,-10.15 12.32,-16.21 3.43,-6.06 6.16,-12.58 8.23,-19.6 3.08,-9.8 4.6,-19.14 4.6,-28.13 0,-14.19 -3.59,-25.2 -10.76,-33.08 -7.12,-7.83 -16.11,-11.71 -26.97,-11.71 -8.38,0 -16.06,1.96 -22.93,5.95 -6.92,3.99 -13.18,9.85 -18.73,17.53 -5.56,7.73 -9.65,16.67 -12.28,26.87 -2.62,10.2 -3.94,19.29 -3.94,27.32l0 0 0 0 0 0 0 0 0 0 0 0 0 0zm361.51 41.13c-12.37,10.05 -22.93,16.92 -31.67,20.5 -8.78,3.59 -18.53,5.41 -29.19,5.41 -19.69,0 -35.6,-5.81 -47.62,-17.38 -12.02,-11.61 -18.03,-26.21 -18.03,-43.73 0,-11.47 2.22,-21.57 6.71,-30.35 4.5,-8.79 11.17,-16.72 20.05,-23.79 6.82,-5.35 16.87,-11.01 30.21,-17.02 -5.16,-11.36 -8.24,-18.94 -9.35,-22.83 -1.36,-5.5 -2.07,-11.41 -2.07,-17.73 0,-8.28 2.32,-16.71 6.97,-25.25 4.65,-8.53 11.16,-15.2 19.65,-20.05 8.48,-4.79 17.72,-7.22 27.67,-7.22 13.94,0 25.15,4.04 33.69,12.12 8.53,8.08 12.78,17.93 12.78,29.45 0,9.74 -3.64,19.44 -10.96,29.09 -7.28,9.59 -21.62,19.79 -43.03,30.55 12.93,23.38 25.35,42.57 37.27,57.52 7.22,-8.73 14.04,-19.09 20.55,-30.9l23.39 11.96c-6.52,13.74 -15.51,27.12 -27.07,40.26 6.41,8.18 14.74,18.08 25,29.59l-20.1 16.16c-10.05,-8.58 -18.39,-17.37 -24.85,-26.36l0 0 0 0 0 0 0 0 0 0 0 0 0 0zm-43.99 -118.23c14.54,-7.37 24.9,-15 31.11,-22.78 4.34,-5.3 6.52,-10.75 6.52,-16.26 0,-5.81 -2.03,-10.76 -6.01,-14.75 -3.99,-3.99 -8.84,-5.95 -14.6,-5.95 -6.87,0 -12.98,2.77 -18.23,8.33 -5.3,5.6 -7.93,12.22 -7.93,19.9 0,9.39 3.03,19.9 9.14,31.51l0 0 0 0 0 0 0 0 0 0 0 0 0 0zm28.43 97.67c-18.43,-24.19 -32.77,-45.8 -43.08,-64.94 -13.38,6.31 -22.97,12.42 -28.68,18.33 -7.98,8.28 -11.97,17.88 -11.97,28.84 0,11.26 3.79,20.75 11.46,28.48 7.63,7.78 16.97,11.62 28.03,11.62 14.9,0 29.65,-7.43 44.24,-22.33l0 0 0 0 0 0 0 0 0 0 0 0 0 0zm230.8 41.66l-41.72 -216.91 27.98 0 25.15 129.34c4.65,23.43 7.63,42.37 9.04,56.81 9.04,-18.58 16.52,-33.28 22.33,-44.09l77.37 -142.06 29.9 0 -118.94 216.91 -31.11 0 0 0 0 0 0 0 0 0 0 0 0 0 0 0zm165.45 -186.5l6.36 -30.35 26.62 0 -6.32 30.35 -26.66 0zm-39.04 186.56l32.83 -157.12 26.76 0 -32.82 157.12 -26.77 0zm174.29 -22.86c-15.31,17.53 -31.27,26.32 -47.93,26.32 -14.9,0 -27.32,-5.51 -37.22,-16.47 -9.9,-11.01 -14.9,-26.97 -14.9,-47.88 0,-19.14 3.94,-36.61 11.77,-52.47 7.87,-15.81 17.67,-27.67 29.44,-35.55 11.82,-7.93 23.64,-11.87 35.45,-11.87 19.55,0 34.29,9.44 44.24,28.28l17.78 -84.49 26.62 0 -45.31 216.91 -24.69 0 4.75 -22.78 0 0 0 0 0 0 0 0 0 0 0 0 0 0zm-73.39 -43.08c0,10.96 1.07,19.6 3.24,25.91 2.17,6.31 5.86,11.57 11.11,15.76 5.2,4.19 11.46,6.26 18.78,6.26 12.13,0 23.14,-6.31 32.98,-18.94 13.24,-16.76 19.85,-37.47 19.85,-62.12 0,-12.42 -3.28,-22.12 -9.75,-29.14 -6.51,-7.02 -14.69,-10.5 -24.59,-10.5 -6.41,0 -12.22,1.41 -17.53,4.29 -5.25,2.83 -10.5,7.73 -15.65,14.55 -5.2,6.86 -9.55,15.6 -13.13,26.16 -3.54,10.5 -5.31,19.79 -5.31,27.77l0 0 0 0 0 0 0 0 0 0 0 0 0 0zm251.36 12.48l26.06 2.67c-3.74,12.93 -12.37,25.21 -25.81,36.87 -13.48,11.62 -29.54,17.43 -48.18,17.43 -11.61,0 -22.32,-2.68 -32.02,-8.03 -9.69,-5.41 -17.12,-13.24 -22.22,-23.49 -5.05,-10.25 -7.57,-21.92 -7.57,-35.05 0,-17.17 3.94,-33.78 11.86,-49.95 7.98,-16.11 18.24,-28.08 30.86,-35.95 12.63,-7.83 26.31,-11.77 41.01,-11.77 18.74,0 33.69,5.86 44.9,17.47 11.21,11.67 16.77,27.53 16.77,47.63 0,7.72 -0.66,15.6 -2.08,23.68l-115.7 0c-0.35,3.08 -0.55,5.81 -0.55,8.29 0,14.69 3.38,25.9 10.1,33.68 6.76,7.73 15.05,11.62 24.79,11.62 9.2,0 18.19,-3.03 27.07,-9.04 8.89,-6.01 15.81,-14.7 20.71,-26.06l0 0 0 0 0 0 0 0 0 0 0 0 0 0zm-77.83 -38.89l88.18 0c0.1,-2.78 0.15,-4.75 0.15,-5.91 0,-13.43 -3.33,-23.74 -10.05,-30.86 -6.71,-7.17 -15.35,-10.75 -25.9,-10.75 -11.42,0 -21.87,3.99 -31.26,11.86 -9.45,7.88 -16.47,19.75 -21.12,35.66zm135.71 32.69c0,-30.66 9.04,-56.06 27.07,-76.16 14.9,-16.62 34.44,-24.9 58.58,-24.9 18.94,0 34.24,5.96 45.81,17.78 11.56,11.81 17.37,27.82 17.37,47.92 0,18.08 -3.64,34.85 -10.96,50.41 -7.27,15.5 -17.67,27.42 -31.11,35.7 -13.48,8.28 -27.67,12.43 -42.57,12.43 -12.22,0 -23.34,-2.58 -33.33,-7.83 -10,-5.2 -17.68,-12.63 -22.93,-22.17 -5.31,-9.6 -7.93,-20.66 -7.93,-33.18l0 0 0 0 0 0 0 0 0 0 0 0 0 0zm26.76 -2.63c0,14.8 3.59,26.01 10.66,33.63 7.12,7.63 16.16,11.47 27.07,11.47 5.76,0 11.41,-1.16 17.02,-3.49 5.66,-2.32 10.86,-5.8 15.71,-10.55 4.79,-4.75 8.94,-10.15 12.32,-16.21 3.43,-6.06 6.16,-12.58 8.23,-19.6 3.08,-9.8 4.6,-19.14 4.6,-28.13 0,-14.19 -3.59,-25.2 -10.76,-33.08 -7.12,-7.83 -16.11,-11.71 -26.97,-11.71 -8.38,0 -16.06,1.96 -22.93,5.95 -6.92,3.99 -13.18,9.85 -18.73,17.53 -5.56,7.73 -9.65,16.67 -12.28,26.87 -2.62,10.2 -3.94,19.29 -3.94,27.32l0 0 0 0 0 0 0 0 0 0 0 0 0 0zm224.19 62.23l45.4 -216.91 90.55 0c15.71,0 27.48,1.82 35.31,5.4 7.82,3.59 14.34,9.75 19.44,18.49 5.15,8.73 7.73,18.53 7.73,29.39 0,8.94 -1.87,18.08 -5.51,27.37 -3.63,9.24 -8.23,16.92 -13.84,22.93 -5.55,6.01 -11.21,10.56 -16.91,13.59 -5.76,3.08 -11.87,5.35 -18.39,6.81 -13.89,3.29 -27.93,4.9 -42.12,4.9l-54.34 0 -18.33 88.03 -28.99 0 0 0 0 0 0 0 0 0 0 0 0 0 0 0zm52.52 -112.62l47.78 0c18.53,0 32.17,-1.97 40.86,-5.96 8.68,-3.99 15.6,-10.1 20.85,-18.28 5.21,-8.19 7.83,-16.87 7.83,-26.06 0,-7.07 -1.36,-12.88 -4.14,-17.38 -2.78,-4.49 -6.67,-7.77 -11.66,-9.9 -5.06,-2.12 -14.7,-3.18 -29.04,-3.18l-55.61 0 -16.87 80.76 0 0 0 0 0 0 0 0 0 0 0 0 0 0zm144.54 112.62l45.3 -216.91 26.77 0 -45.3 216.91 -26.77 0zm175.35 -19.5c-9.3,7.97 -18.19,13.83 -26.77,17.52 -8.59,3.74 -17.78,5.56 -27.52,5.56 -14.5,0 -26.22,-4.25 -35.1,-12.78 -8.84,-8.54 -13.29,-19.45 -13.29,-32.78 0,-8.79 1.97,-16.56 5.96,-23.28 3.99,-6.77 9.29,-12.22 15.91,-16.31 6.62,-4.09 14.7,-7.02 24.29,-8.79 6.01,-1.16 17.43,-2.12 34.24,-2.83 16.82,-0.66 28.89,-2.47 36.16,-5.3 2.08,-7.32 3.14,-13.39 3.14,-18.23 0,-6.22 -2.28,-11.06 -6.82,-14.65 -6.21,-4.9 -15.3,-7.37 -27.22,-7.37 -11.27,0 -20.46,2.47 -27.58,7.47 -7.17,5 -12.37,12.07 -15.6,21.21l-27.12 -2.37c5.55,-15.56 14.29,-27.47 26.26,-35.81 12.02,-8.28 27.12,-12.42 45.35,-12.42 19.44,0 34.85,4.64 46.16,13.94 8.69,6.87 13.03,15.86 13.03,26.92 0,8.38 -1.21,18.08 -3.69,29.14l-8.73 39.09c-2.78,12.42 -4.15,22.52 -4.15,30.3 0,4.95 1.12,12.02 3.29,21.31l-27.12 0c-1.47,-5.15 -2.48,-11.62 -3.08,-19.54l0 0 0 0 0 0 0 0 0 0 0 0 0 0zm9.89 -60.05c-3.73,1.46 -7.77,2.62 -12.07,3.38 -4.29,0.81 -11.46,1.62 -21.51,2.53 -15.55,1.36 -26.56,3.13 -32.98,5.25 -6.41,2.12 -11.26,5.5 -14.49,10.15 -3.29,4.59 -4.9,9.75 -4.9,15.35 0,7.53 2.57,13.69 7.78,18.54 5.15,4.79 12.52,7.22 22.12,7.22 8.88,0 17.42,-2.32 25.6,-7.02 8.18,-4.7 14.65,-11.21 19.34,-19.6 4.75,-8.38 8.44,-20.35 11.11,-35.8l0 0 0 0 0 0 0 0 0 0 0 0 0 0zm42.63 140.25l1.62 -25.15c5.55,1.57 10.9,2.38 16.16,2.38 5.4,0 9.79,-1.21 13.13,-3.69 4.34,-3.28 9.09,-9.39 14.24,-18.38l8.54 -15.36 -26.17 -157.57 26.32 0 11.86 79.45c2.38,15.65 4.4,31.36 6.07,47.06l70.3 -126.51 27.92 0 -100.14 177.98c-9.7,17.37 -18.29,28.84 -25.76,34.49 -7.48,5.61 -16.11,8.44 -25.91,8.44 -6.21,0 -12.27,-1.06 -18.18,-3.14l0 0 0 0 0 0 0 0 0 0 0 0 0 0zm276.96 -114.1l26.06 2.67c-3.74,12.93 -12.37,25.21 -25.81,36.87 -13.48,11.62 -29.54,17.43 -48.18,17.43 -11.61,0 -22.32,-2.68 -32.02,-8.03 -9.69,-5.41 -17.12,-13.24 -22.22,-23.49 -5.05,-10.25 -7.57,-21.92 -7.57,-35.05 0,-17.17 3.94,-33.78 11.86,-49.95 7.98,-16.11 18.24,-28.08 30.86,-35.95 12.63,-7.83 26.31,-11.77 41.01,-11.77 18.74,0 33.69,5.86 44.9,17.47 11.21,11.67 16.77,27.53 16.77,47.63 0,7.72 -0.66,15.6 -2.08,23.68l-115.7 0c-0.35,3.08 -0.55,5.81 -0.55,8.29 0,14.69 3.38,25.9 10.1,33.68 6.76,7.73 15.05,11.62 24.79,11.62 9.2,0 18.19,-3.03 27.07,-9.04 8.89,-6.01 15.81,-14.7 20.71,-26.06l0 0 0 0 0 0 0 0 0 0 0 0 0 0zm-77.83 -38.89l88.18 0c0.1,-2.78 0.15,-4.75 0.15,-5.91 0,-13.43 -3.33,-23.74 -10.05,-30.86 -6.71,-7.17 -15.35,-10.75 -25.9,-10.75 -11.42,0 -21.87,3.99 -31.26,11.86 -9.45,7.88 -16.47,19.75 -21.12,35.66zm130.96 92.29l32.88 -157.12 23.63 0 -6.61 32.07c8.08,-12.12 15.96,-21.11 23.73,-26.91 7.73,-5.81 15.66,-8.74 23.74,-8.74 5.3,0 11.87,1.92 19.7,5.81l-10.96 24.84c-4.65,-3.38 -9.75,-5.05 -15.25,-5.05 -9.35,0 -18.99,5.26 -28.84,15.71 -9.9,10.45 -17.63,29.24 -23.23,56.36l-13.34 63.03 -25.45 0z"
   id="path231"
   fill="#7A7A7A" />
  <path
   d="M1713.54 5403.13l0 131.98 -54.67 0c-15.88,0 -25.82,1.5 -29.79,4.28 -3.9,2.78 -5.89,8.99 -5.89,18.62 0,10.92 2.39,17.77 7.15,20.76 4.83,2.89 15.16,4.39 31.04,4.39l145.81 0c15.28,0 25.21,-1.5 29.84,-4.39 4.7,-2.99 7.01,-9.52 7.01,-19.79 0,-9.85 -2.31,-16.27 -7.01,-19.27 -4.63,-2.99 -15.55,-4.6 -32.77,-4.6l-39.3 0 0 -131.98 12.17 0c32.44,0 55.47,3.75 69.03,11.13 13.56,7.4 25.49,23.88 35.68,49.24 10.19,25.36 15.35,56.74 15.35,93.87 0,38.74 -4.37,70.65 -13.04,95.69 -8.67,25.04 -20.64,41.75 -35.94,49.88 -15.35,8.13 -38.38,12.2 -69.16,12.2l-91.66 0c-22.63,0 -39.57,-1.28 -50.89,-3.74 -11.32,-2.57 -22.24,-9.96 -32.69,-22.5 -10.46,-12.41 -18.73,-29.64 -24.75,-51.68 -5.97,-22.05 -9.01,-47.43 -9.01,-76 0,-38.95 4.7,-71.07 13.97,-96.33 9.33,-25.25 20.91,-41.84 34.81,-49.88 13.89,-7.92 35.54,-11.88 64.85,-11.88l29.86 0 0 0 0 0 0 0 0 0 0 0 0 0 0 0zm46.92 -348.93c31.56,0 53.87,1.18 66.97,3.53 13.17,2.46 25.15,9.97 36.01,22.6 10.85,12.63 19.19,29.75 25.01,51.26 5.83,21.53 8.74,46.67 8.74,75.25 0,27.18 -2.78,51.59 -8.27,73.21 -5.5,21.72 -13.7,39.06 -24.69,52.22 -10.99,13.18 -22.97,20.99 -35.87,23.56 -12.97,2.46 -35.61,3.75 -67.9,3.75l-53.67 0c-31.58,0 -53.88,-1.18 -67.04,-3.64 -13.12,-2.36 -25.09,-9.85 -35.94,-22.6 -10.86,-12.63 -19.19,-29.64 -25.02,-51.26 -5.83,-21.51 -8.74,-46.56 -8.74,-75.24 0,-27.18 2.78,-51.58 8.27,-73.22 5.5,-21.61 13.71,-39.06 24.69,-52.22 10.99,-13.16 22.96,-20.99 35.88,-23.45 12.97,-2.57 35.53,-3.75 67.9,-3.75l53.67 0 0 0 0 0 0 0 0 0 0 0 0 0zm-103.11 131.98c-14.63,0 -23.97,1.29 -28.07,3.96 -4.04,2.57 -6.09,7.92 -6.09,16.05 0,6.96 1.66,12.2 4.97,15.84 3.24,3.75 12.98,5.57 29.19,5.57l146.52 0c18.27,0 29.52,-1.29 33.75,-3.64 4.3,-2.36 6.42,-8.03 6.42,-16.8 0,-8.99 -2.45,-14.66 -7.34,-17.23 -4.97,-2.46 -16.61,-3.75 -35.15,-3.75l-144.2 0 0 0 0 0 0 0 0 0 0 0 0 0 0 0zm-80.68 -313.29l251.09 0 0 -80.28 62.81 0 0 212.37 -313.9 0 0 -132.09zm183.79 -404.06c31.56,0 53.87,1.18 66.97,3.53 13.17,2.46 25.15,9.97 36.01,22.6 10.85,12.63 19.19,29.75 25.01,51.26 5.83,21.53 8.74,46.67 8.74,75.25 0,27.18 -2.78,51.59 -8.27,73.21 -5.5,21.72 -13.7,39.06 -24.69,52.22 -10.99,13.18 -22.97,20.99 -35.87,23.56 -12.97,2.46 -35.61,3.75 -67.9,3.75l-53.67 0c-31.58,0 -53.88,-1.18 -67.04,-3.64 -13.12,-2.36 -25.09,-9.85 -35.94,-22.6 -10.86,-12.63 -19.19,-29.64 -25.02,-51.26 -5.83,-21.51 -8.74,-46.57 -8.74,-75.24 0,-27.19 2.78,-51.58 8.27,-73.22 5.5,-21.61 13.71,-39.06 24.69,-52.22 10.99,-13.16 22.96,-20.99 35.88,-23.45 12.97,-2.57 35.53,-3.75 67.9,-3.75l53.67 0 0 0 0 0 0 0 0 0 0 0 0 0zm-103.11 131.98c-14.63,0 -23.97,1.29 -28.07,3.96 -4.04,2.57 -6.09,7.92 -6.09,16.05 0,6.96 1.66,12.2 4.97,15.84 3.24,3.75 12.98,5.57 29.19,5.57l146.52 0c18.27,0 29.52,-1.29 33.75,-3.64 4.3,-2.36 6.42,-8.03 6.42,-16.8 0,-8.99 -2.45,-14.66 -7.34,-17.23 -4.97,-2.46 -16.61,-3.75 -35.15,-3.75l-144.2 0 0 0 0 0 0 0 0 0 0 0 0 0 0 0zm-80.68 -181.2l0 -93.44c0,-62.3 1.45,-104.46 4.44,-126.53 2.98,-22.04 10.59,-40.02 22.76,-53.93 12.24,-13.91 31.71,-20.89 58.51,-20.89 24.41,0 40.82,4.98 49.24,14.79 8.36,9.74 15.22,12.97 16.87,41.86 0.73,-28.8 5.18,-30.26 11.76,-38.74 6.8,-8.76 15.47,-12.39 21.07,-14.57 5.63,-2.2 21.11,-3.34 46.46,-3.34l82.79 0 0 122.57 -104.3 0c-16.81,0 -27.2,2.25 -31.24,6.53 -3.97,4.28 -6.02,15.51 -6.02,33.6l141.56 0 0 132.09 -313.9 0zm53.67 -132.09l69.83 0c0,-14.77 -1.26,-25.15 -3.77,-31.14 -2.52,-5.99 -10.73,-8.99 -24.56,-8.99l-17.21 0c-9.99,0 -16.47,2.89 -19.59,8.67 -3.11,5.78 -4.7,16.26 -4.7,31.46zm41.3 -606.65l0 122.55 -23.23 0c-10.85,0 -17.81,1.6 -20.78,4.7 -2.98,3.11 -4.44,8.35 -4.44,15.74 0,7.91 1.99,13.91 6.02,17.97 3.97,4.07 10.07,6.1 18.21,6.1 10.46,0 18.4,-2.24 23.69,-6.85 5.29,-4.38 11.65,-16.9 19.19,-37.34 21.58,-58.77 39.25,-95.69 53.08,-110.99 13.84,-15.3 36.14,-22.9 66.92,-22.9 22.36,0 38.84,4.28 49.42,12.73 10.6,8.46 19.54,24.83 26.68,49.01 7.15,24.29 10.79,52.46 10.79,84.67 0,35.33 -4.17,65.51 -12.44,90.44 -8.27,25.04 -18.79,41.43 -31.58,49.14 -12.83,7.7 -30.96,11.55 -54.53,11.55l-20.51 0 0 -122.56 38.19 0c11.78,0 19.32,-1.71 22.69,-5.14 3.31,-3.53 5.03,-9.63 5.03,-18.4 0,-8.78 -2.12,-15.31 -6.42,-19.59 -4.23,-4.28 -10.58,-6.42 -18.99,-6.42 -18.47,0 -30.58,4.07 -36.27,12.2 -5.69,8.35 -15.15,29 -28.45,61.77 -13.51,32.85 -23.24,54.57 -29.32,65.27 -6.09,10.61 -14.5,19.5 -25.21,26.45 -10.73,7.07 -24.43,10.49 -41.11,10.49 -24.03,0 -41.63,-4.92 -52.74,-14.88 -11.12,-9.84 -19.79,-25.91 -26.07,-48.06 -6.24,-22.15 -9.41,-48.91 -9.41,-80.28 0,-34.35 3.44,-63.56 10.27,-87.66 6.88,-24.18 15.48,-40.13 25.93,-48.05 10.39,-7.81 28.06,-11.66 53.02,-11.66l12.37 0 0 0 0 0 0 0 0 0 0 0 0 0 0 0zm88.82 -354.08c31.56,0 53.87,1.17 66.97,3.53 13.17,2.46 25.15,9.97 36.01,22.6 10.85,12.62 19.19,29.74 25.01,51.25 5.83,21.53 8.74,46.68 8.74,75.25 0,27.18 -2.78,51.6 -8.27,73.21 -5.5,21.73 -13.7,39.06 -24.69,52.23 -10.99,13.18 -22.97,20.99 -35.87,23.56 -12.97,2.46 -35.61,3.74 -67.9,3.74l-53.67 0c-31.58,0 -53.88,-1.18 -67.04,-3.64 -13.12,-2.35 -25.09,-9.84 -35.94,-22.59 -10.86,-12.63 -19.19,-29.65 -25.02,-51.26 -5.83,-21.51 -8.74,-46.57 -8.74,-75.25 0,-27.18 2.78,-51.58 8.27,-73.21 5.5,-21.62 13.71,-39.06 24.69,-52.22 10.99,-13.17 22.96,-21 35.88,-23.46 12.97,-2.57 35.53,-3.74 67.9,-3.74l53.67 0 0 0 0 0 0 0 0 0 0 0 0 0zm-103.11 131.98c-14.63,0 -23.97,1.28 -28.07,3.96 -4.04,2.57 -6.09,7.92 -6.09,16.05 0,6.95 1.66,12.2 4.97,15.84 3.24,3.74 12.98,5.56 29.19,5.56l146.52 0c18.27,0 29.52,-1.28 33.75,-3.64 4.3,-2.35 6.42,-8.02 6.42,-16.8 0,-8.99 -2.45,-14.66 -7.34,-17.23 -4.97,-2.46 -16.61,-3.74 -35.15,-3.74l-144.2 0 0 0 0 0 0 0 0 0 0 0 0 0 0 0zm-80.68 -481.34l209.79 0c23.77,0 40.51,1.28 50.11,3.75 9.66,2.58 19.52,9.97 29.65,22.27 10.19,12.41 17.87,28.57 23.09,48.8 5.23,20.12 7.88,44 7.88,71.29 0,30.39 -3.11,57.16 -9.33,80.27 -6.22,23.22 -14.3,40.56 -24.22,52.12 -10,11.47 -20.46,18.31 -31.51,20.35 -11.05,2.14 -34.28,3.1 -69.75,3.1l-185.71 0 0 -131.98 235.35 0c13.69,0 22.49,-1.18 26.27,-3.64 3.83,-2.35 5.75,-7.17 5.75,-14.55 0,-8.35 -2.12,-13.7 -6.28,-16.16 -4.24,-2.36 -14.16,-3.53 -29.78,-3.53l-231.31 0 0 -132.09 0 0 0 0 0 0 0 0 0 0 0 0 0 0zm0 -345.83l313.9 0 0 115.72 -142.69 68.72 142.69 0 0 110.35 -313.9 0 0 -110.35 141.36 -74.07 -141.36 0 0 -110.37 0 0 0 0 0 0 0 0 0 0 0 0 0 0zm0 -52.97l0 -98.79c0,-63.79 1.78,-106.83 5.43,-129.3 3.64,-22.47 9.53,-39.6 17.8,-51.26 8.27,-11.77 17.54,-19.07 27.66,-22.06 10.14,-2.89 30.05,-4.39 59.83,-4.39l109.93 0c28.2,0 46.99,2.14 56.52,6.53 9.47,4.28 16.95,11.68 22.31,22.38 5.35,10.7 9.06,23.86 11.24,39.49 2.12,15.73 3.18,39.29 3.18,70.86l0 166.54 -313.9 0zm53.67 -132.08l206.49 0c0,-18.95 -2.32,-30.72 -7.01,-35.1 -4.77,-4.39 -17.6,-6.53 -38.53,-6.53l-121.97 0c-14.22,0 -23.29,0.75 -27.32,2.14 -3.97,1.5 -6.96,4.81 -8.82,10.06 -1.85,5.24 -2.84,15.09 -2.84,29.43l0 0 0 0 0 0 0 0 0 0 0 0 0 0z"
   id="path233"
   stroke-width="25"
   stroke="#000000"
   fill="url(#id11)" />
  <g
   id="g235">
   <defs
   id="defs237">
    <linearGradient
   id="id12"
   gradientUnits="userSpaceOnUse"
   x1="6621.3"
   y1="3357.87"
   x2="6706.4"
   y2="3845.43">
     <stop
   offset="0"
   stop-color="#FFC100"
   id="stop240" />
     <stop
   offset="0.6"
   stop-color="#997200"
   id="stop242" />
     <stop
   offset="1"
   stop-color="#332201"
   id="stop244" />
     <stop
   offset="1"
   stop-color="#332201"
   id="stop246" />
    </linearGradient>
   </defs>
   <path
   d="M2173.45 4033.88l5084.9 0 0 -1574.3 -5084.9 0 0 1574.3 0 0z"
   id="path248"
   fill="#000000" />
   <path
   d="M2495.02 3942.73c0,-22.12 -17.93,-40.05 -40.04,-40.05 -22.12,0 -40.05,17.93 -40.05,40.05 0,22.11 17.93,40.04 40.05,40.04 22.11,0 40.04,-17.93 40.04,-40.04zm125.79 -33.52c16.09,-10.96 37.47,-7.86 50.09,7.26 12.62,15.1 12.62,37.61 0,52.72 -12.62,15.12 -34,18.21 -50.09,7.26l0 33.19 -21.21 0 0 -105.01 21.21 0 0 4.58zm242.18 33.51c0,-22.12 -17.93,-40.04 -40.05,-40.04 -22.11,0 -40.04,17.92 -40.04,40.04 0,22.12 17.93,40.05 40.04,40.05 11.4,0 21.69,-4.76 28.98,-12.41l-15.32 -14.62 15.32 14.62 -15.32 -14.62c-3.93,4.12 -9.52,6.25 -15.2,5.78 -5.67,-0.47 -10.83,-3.48 -14.03,-8.2l54.2 0c0.93,-3.38 1.42,-6.92 1.42,-10.6l0 0 0 0 0 0 0 0 0 0 0 0zm1330.05 0c0,-22.12 -17.93,-40.04 -40.05,-40.04 -22.11,0 -40.04,17.92 -40.04,40.04 0,22.12 17.93,40.05 40.04,40.05 11.4,0 21.69,-4.76 28.98,-12.41l-15.32 -14.62 15.32 14.62 -15.32 -14.62c-3.93,4.12 -9.51,6.25 -15.19,5.78 -5.68,-0.47 -10.84,-3.48 -14.04,-8.2l54.2 0c0.93,-3.38 1.42,-6.92 1.42,-10.6l0 0 0 0 0 0 0 0 0 0 0 0zm791.44 0c0,-22.12 -17.93,-40.04 -40.05,-40.04 -22.11,0 -40.04,17.92 -40.04,40.04 0,22.12 17.93,40.05 40.04,40.05 11.4,0 21.69,-4.76 28.98,-12.41l-15.32 -14.62 15.32 14.62 -15.32 -14.62c-3.93,4.12 -9.51,6.25 -15.19,5.78 -5.68,-0.47 -10.84,-3.48 -14.04,-8.2l54.2 0c0.93,-3.38 1.42,-6.92 1.42,-10.6l0 0 0 0 0 0 0 0 0 0 0 0zm2022.7 0c0,-22.12 -17.92,-40.04 -40.04,-40.04 -22.12,0 -40.04,17.92 -40.04,40.04 0,22.12 17.92,40.05 40.04,40.05 11.39,0 21.69,-4.76 28.98,-12.41l-15.32 -14.62 15.32 14.62 -15.32 -14.62c-3.93,4.12 -9.52,6.25 -15.2,5.78 -5.67,-0.47 -10.83,-3.48 -14.04,-8.2l54.21 0c0.93,-3.38 1.41,-6.92 1.41,-10.6l0 0 0 0 0 0 0 0 0 0 0 0zm-3970.57 -5.95c0,-12.82 -6.25,-24.56 -16.17,-30.38 -9.92,-5.82 -21.83,-4.73 -30.84,2.82l0 -4.58 -21.21 0 0 76.4 21.21 0 0 -44.26c0,-7.12 5.78,-12.9 12.9,-12.9 7.12,0 12.9,5.78 12.9,12.9l0 44.26 21.21 0 0 -44.26zm306.71 -9.89c0,-10.14 -7.65,-19.21 -19.15,-22.71 -11.51,-3.5 -24.43,-0.7 -32.37,7.03 -7.94,7.73 -9.22,18.74 -3.2,27.57 3.04,4.25 7.38,7.39 12.36,8.96 5.65,1.89 11.41,3.42 17.24,4.6 4.78,0.93 7.3,3.32 5.91,5.58 -1.4,2.26 -6.29,3.71 -11.45,3.4 -5.15,-0.33 -9,-2.32 -9,-4.67l0 -2.25 -21.19 0 0 2.25c0,11.25 8.57,21.26 21.34,24.91 12.77,3.65 26.92,0.15 35.21,-8.73 8.29,-8.87 8.9,-21.16 1.52,-30.58 -4.27,-4.99 -10.16,-8.33 -16.63,-9.42 -5.13,-0.95 -10.19,-2.19 -15.18,-3.69 -2.77,-0.92 -3.5,-2.42 -1.78,-3.65 1.72,-1.22 5.46,-1.85 9.05,-1.52 3.6,0.33 6.13,1.54 6.13,2.92l0 1.06 21.19 0 0 -1.06 0 0 0 0 0 0 0 0 0 0 0 0zm184.49 15.85c0,-22.12 -17.93,-40.05 -40.05,-40.05 -22.11,0 -40.04,17.93 -40.04,40.05 0,22.11 17.93,40.04 40.04,40.04 22.12,0 40.05,-17.93 40.05,-40.04zm105.02 6.16l0 -44.26 21.21 0 0 44.26c0,7.12 5.78,12.9 12.9,12.9 7.13,0 12.9,-5.78 12.9,-12.9l0 -44.26 21.22 0 0 76.4 -21.22 0 0 -4.58c-9,7.55 -20.91,8.64 -30.84,2.82 -9.92,-5.82 -16.17,-17.56 -16.17,-30.38zm196.24 -39.68l0 -4.58 -21.22 0 0 76.4 21.22 0 0 -38.3c0,-5 1.98,-9.8 5.52,-13.33 3.53,-3.54 8.33,-5.53 13.33,-5.53l0 -21.13c-6.72,0.4 -13.22,2.63 -18.85,6.47l0 0 0 0 0 0 0 0 0 0 0 0zm186.61 5.87c-7.3,-7.64 -17.59,-12.4 -28.99,-12.4 -22.11,0 -40.03,17.92 -40.04,40.03 0,0.01 0,0.01 0,0.01 0.01,22.12 17.93,40.04 40.04,40.04 11.4,0 21.69,-4.77 28.99,-12.41l-15.33 -14.62c-3.43,3.59 -8.28,5.84 -13.64,5.84 -10.4,0 -18.84,-8.44 -18.85,-18.85 0,0 0,0 0,-0.01 0.01,-10.4 8.45,-18.84 18.85,-18.84 5.36,0 10.21,2.24 13.64,5.83l15.33 -14.62 0 0 0 0 0 0 0 0 0 0 0 0zm2454.91 27.59l-10.94 -38.04 -18.93 0 -10.93 38.04 -10.93 -38.04 -22.05 0 21.95 76.4 22.06 0 9.37 -32.61 9.37 32.61 22.05 0 21.96 -76.4 -22.05 0 -10.93 38.04m-538.39 -62.92l-21.21 0 0 21.19 21.21 0 0 -21.19m0 24.88l-21.21 0 0 76.4 21.21 0 0 -76.4m-439.5 38.23l23.61 38.17 -24.97 0 -11.12 -17.98 -11.12 17.98 -24.98 0 23.61 -38.17 -23.65 -38.23 24.98 0 11.16 18.05 11.16 -18.05 24.98 0 -23.66 38.23m-710.47 -38.23l-19.44 31.43 0 -56.31 -21.22 0 0 101.28 21.22 0 0 -31.86 23.88 31.86 26.49 0 -29.16 -38.89 23.2 -37.51 -24.97 0m-323.14 -24.88l-21.21 0 0 21.19 21.21 0 0 -21.19m0 105.01l0 -80.13 -21.21 0 0 80.15c0,2.02 -1.64,3.67 -3.66,3.67l-6.01 0 0 21.19 6.01 0c13.74,0 24.87,-11.14 24.87,-24.88m893.11 -42.03c0,-22.12 -17.93,-40.05 -40.05,-40.05 -22.12,0 -40.04,17.93 -40.04,40.05 0,22.11 17.92,40.04 40.04,40.04 22.12,0 40.05,-17.93 40.05,-40.04zm-738.6 33.72l0 4.58 21.21 0 0 -76.4 -21.21 0 0 44.26c0,7.12 -5.78,12.9 -12.9,12.9 -7.13,0 -12.9,-5.78 -12.9,-12.9l0 -44.26 -21.21 0 0 44.26c0,12.82 6.24,24.56 16.17,30.38 9.92,5.82 21.84,4.73 30.84,-2.82l0 0 0 0 0 0 0 0 0 0 0 0zm496.25 -67.24l0 -29.46 -21.21 0 0 101.28 21.21 0 0 -4.58c16.1,10.95 37.48,7.86 50.09,-7.26 12.63,-15.11 12.63,-37.61 0,-52.72 -12.61,-15.12 -33.99,-18.22 -50.09,-7.26zm696 -8.27l-17.6 0c-0.47,-0.04 -0.94,0.13 -1.28,0.46 -0.33,0.34 -0.5,0.81 -0.46,1.28l0 1.95 0 0 9.67 0 0 21.19 -9.67 0 0 55.21 -21.21 0 0 -55.21 -9.67 0 0 -21.19 9.67 0c0,-13.74 11.14,-24.88 24.87,-24.88l15.68 0 0 21.19zm273.57 1.8l0 21.13c-5,0 -9.8,1.99 -13.33,5.53 -3.54,3.53 -5.52,8.33 -5.52,13.33l0 38.3 -21.22 0 0 -76.4 21.22 0 0 4.58c5.63,-3.84 12.13,-6.07 18.85,-6.47l0 0 0 0 0 0 0 0 0 0 0 0zm124.34 6.47l0 -4.58 -21.21 0 0 76.4 21.21 0 0 -44.26c0,-7.12 5.78,-12.9 12.9,-12.9 7.12,0 12.9,5.78 12.9,12.9l0 44.26 21.21 0 0 -44.26c0,-7.12 5.78,-12.9 12.9,-12.9 7.12,0 12.9,5.78 12.9,12.9l0 44.26 21.21 0 0 -44.26c0,-13.45 -7.92,-25.65 -20.2,-31.14 -12.28,-5.48 -26.65,-3.24 -36.67,5.74 -10.39,-10.72 -25.87,-11.62 -37.15,-2.16l0 0 0 0 0 0 0 0 0 0 0 0zm453.77 0l0 -4.58 21.21 0 0 76.4 -21.21 0 0 -4.58c-16.1,10.95 -37.47,7.86 -50.09,-7.26 -12.62,-15.11 -12.62,-37.61 0,-52.72 12.62,-15.12 33.99,-18.22 50.09,-7.26zm171.01 -6.47l0 21.13c-5,0 -9.79,1.99 -13.33,5.53 -3.53,3.53 -5.52,8.33 -5.52,13.33l0 38.3 -21.21 0 0 -76.4 21.21 0 0 4.58c5.63,-3.84 12.14,-6.07 18.85,-6.47l0 0 0 0 0 0 0 0 0 0 0 0z"
   id="path250"
   fill="#FFFFFF" />
   <path
   d="M2473.83 3942.73c0,-10.42 -8.44,-18.86 -18.85,-18.86 -10.42,0 -18.86,8.44 -18.86,18.86 0,10.41 8.44,18.85 18.86,18.85 10.41,0 18.85,-8.44 18.85,-18.85zm2455.02 -10.6l31.19 0c-3.51,-5.17 -9.35,-8.26 -15.6,-8.26 -6.25,0 -12.08,3.09 -15.59,8.26m-791.43 0l31.19 0c-3.51,-5.17 -9.36,-8.26 -15.6,-8.26 -6.24,0 -12.08,3.09 -15.59,8.26m-630.8 10.6c0,-10.42 -8.44,-18.86 -18.86,-18.86 -10.41,0 -18.85,8.44 -18.85,18.86 0,10.41 8.44,18.85 18.85,18.85 10.42,0 18.86,-8.44 18.86,-18.85zm1824.38 0c0,-10.42 -8.44,-18.86 -18.85,-18.86 -10.41,0 -18.85,8.44 -18.85,18.86 0,10.41 8.44,18.85 18.85,18.85 10.41,0 18.85,-8.44 18.85,-18.85zm-183.44 0c0,-10.42 -8.44,-18.86 -18.85,-18.86 -10.42,0 -18.86,8.44 -18.86,18.86 0,10.41 8.44,18.85 18.86,18.85 10.41,0 18.85,-8.44 18.85,-18.85zm-2489.04 0.2c0,-10.41 -8.44,-18.85 -18.86,-18.85 -10.41,0 -18.85,8.44 -18.85,18.85 0,10.42 8.44,18.86 18.85,18.86 10.42,0 18.86,-8.44 18.86,-18.86zm148.85 -10.8l31.18 0c-3.5,-5.17 -9.34,-8.26 -15.59,-8.26 -6.25,0 -12.08,3.09 -15.59,8.26m4144.18 0l31.19 0c-3.51,-5.17 -9.35,-8.26 -15.59,-8.26 -6.25,0 -12.09,3.09 -15.6,8.26m-294.02 10.6c0,-10.42 -8.44,-18.86 -18.85,-18.86 -10.42,0 -18.86,8.44 -18.86,18.86 0,10.41 8.44,18.85 18.86,18.85 10.41,0 18.85,-8.44 18.85,-18.85z"
   id="path252"
   fill="#000000" />
   <path
   d="M2203.55 2496.37l5019.68 0 0 1337.17 -5019.68 0 0 -1337.17z"
   id="path254"
   fill="#FFC000" />
   <path
   d="M6148.68 3753.19l0 0m1061.07 -219.7l13.48 0 0 7.66 -5.82 0 0 30.62 -7.66 0 0 -38.28m-38.27 0l22.96 0 0 7.66 -22.96 0 0 -7.66m0 30.62l22.96 0 0 7.66 -22.96 0 0 -7.66m-53.59 -30.62l0 0 0 0 0 0 0 0m15.31 7.66l7.66 0 0 30.62 -7.66 0 0 -30.62m7.66 -7.66l7.65 0 0 7.66 -7.65 0 0 -7.66m7.65 7.66l7.66 0 0 30.62 -7.66 0 0 -30.62m-30.62 -7.66l15.31 0 0 7.66 -7.65 0 0 30.62 -7.66 0 0 -38.28m-15.31 -7.66l7.66 0 0 15.32 -7.66 0 0 -15.32m0 22.97l7.66 0 0 15.31 -7.66 0 0 -15.31m-61.24 -15.31l7.66 0 0 15.31 -7.66 0 0 -15.31m-54.81 0l7.66 0 0 7.66 -7.66 0 0 -7.66m-22.96 15.31l7.65 0 0 15.31 -7.65 0 0 -15.31m-29.47 15.31l29.47 0 0 7.66 -29.47 0 0 -7.66m-30.62 -22.96l7.66 0 0 7.65 -7.66 0 0 -7.65m-7.65 -22.97l22.96 0 0 7.65 -22.96 0 0 -7.65m0 45.93l22.96 0 0 7.66 -22.96 0 0 -7.66m-38.27 -45.93l15.31 0 0 7.65 -15.31 0 0 -7.65m-7.66 7.65l7.66 0 0 7.66 -7.66 0 0 -7.66m22.97 22.97l7.65 0 0 15.31 -7.65 0 0 -15.31m206.75 -98.69l30.62 0 0 7.66 -30.62 0 0 -7.66m-7.66 7.66l7.66 0 0 7.65 -7.66 0 0 -7.65m7.66 7.65l22.96 0 0 7.66 -22.96 0 0 -7.66m22.96 7.66l7.66 0 0 7.65 -7.66 0 0 -7.65m-30.62 7.65l30.62 0 0 7.66 -30.62 0 0 -7.66m45.93 -30.62l7.66 0 0 30.62 -7.66 0 0 -30.62m7.66 45.93l22.96 0 0 7.66 -22.96 0 0 -7.66m38.28 -15.31l30.61 0 0 7.66 -30.61 0 0 -7.66m30.61 -7.65l7.66 0 0 7.65 -7.66 0 0 -7.65m-22.96 -7.66l22.96 0 0 7.66 -22.96 0 0 -7.66m-7.65 -7.65l7.65 0 0 7.65 -7.65 0 0 -7.65m7.65 -7.66l30.62 0 0 7.66 -30.62 0 0 -7.66m-91.86 166.76l30.62 0 0 7.65 -30.62 0 0 -7.65m-7.66 7.65l7.66 0 0 7.66 -7.66 0 0 -7.66m7.66 7.66l22.96 0 0 7.65 -22.96 0 0 -7.65m22.96 7.65l7.66 0 0 7.66 -7.66 0 0 -7.66m-30.62 7.66l30.62 0 0 7.66 -30.62 0 0 -7.66m-184 0l30.61 0 0 7.66 -30.61 0 0 -7.66m30.61 -7.66l7.66 0 0 7.66 -7.66 0 0 -7.66m-22.96 -7.65l22.96 0 0 7.65 -22.96 0 0 -7.65m-7.65 -7.66l7.65 0 0 7.66 -7.65 0 0 -7.66m7.65 -7.65l30.62 0 0 7.65 -30.62 0 0 -7.65m-230.09 83.38l30.62 0 0 7.65 -30.62 0 0 -7.65m-7.66 7.65l7.66 0 0 7.66 -7.66 0 0 -7.66m7.66 7.66l22.96 0 0 7.65 -22.96 0 0 -7.65m22.96 7.65l7.66 0 0 7.66 -7.66 0 0 -7.66m-30.62 7.66l30.62 0 0 7.65 -30.62 0 0 -7.65m-508.54 0l30.61 0 0 7.65 -30.61 0 0 -7.65m30.61 -7.66l7.66 0 0 7.66 -7.66 0 0 -7.66m-22.96 -7.65l22.96 0 0 7.65 -22.96 0 0 -7.65m-7.65 -7.66l7.65 0 0 7.66 -7.65 0 0 -7.66m7.65 -7.65l30.62 0 0 7.65 -30.62 0 0 -7.65m823.13 0l15.31 0 0 7.65 -7.65 0 0 30.62 -7.66 0 0 -38.27m30.62 7.65l7.66 0 0 30.62 -7.66 0 0 -30.62m-7.65 -7.65l7.65 0 0 7.65 -7.65 0 0 -7.65m-7.66 7.65l7.66 0 0 30.62 -7.66 0 0 -30.62m-15.31 -7.65l0 0 0 0 0 0 0 0m-737.67 0l0 0 0 0 0 0 0 0m15.31 7.65l7.66 0 0 30.62 -7.66 0 0 -30.62m7.66 -7.65l7.65 0 0 7.65 -7.65 0 0 -7.65m7.65 7.65l7.66 0 0 30.62 -7.66 0 0 -30.62m-30.62 -7.65l15.31 0 0 7.65 -7.65 0 0 30.62 -7.66 0 0 -38.27m906.08 -219.52l0 -30.62 7.66 0 0 45.93 -7.66 0 0 -7.65 -22.96 0 0 -7.66 22.96 0m-598.86 248.98l0 -30.62 7.65 0 0 45.93 -7.65 0 0 -7.65 -22.97 0 0 -7.66 22.97 0m-22.97 15.31l22.97 0 0 7.66 -22.97 0 0 -7.66m-7.65 -45.93l7.65 0 0 30.62 -7.65 0 0 -30.62m644.8 -157.94l7.65 0 0 7.65 22.96 0 0 -7.65 7.66 0 0 15.31 -30.62 0 0 7.65 -7.65 0 0 -22.96m-137.8 83.37l7.66 0 0 7.66 22.96 0 0 -7.66 7.66 0 0 15.31 -30.62 0 0 7.66 -7.66 0 0 -22.97m7.66 22.97l22.96 0 0 7.66 -22.96 0 0 -7.66m0 -30.62l22.96 0 0 7.65 -22.96 0 0 -7.65m-184.01 0l22.96 0 0 7.65 -22.96 0 0 -7.65m0 30.62l22.96 0 0 7.66 -22.96 0 0 -7.66m-7.66 -22.97l7.66 0 0 7.66 22.96 0 0 -7.66 7.66 0 0 15.31 -30.62 0 0 7.66 -7.66 0 0 -22.97m275.87 83.38l7.66 0 0 7.66 22.96 0 0 -7.66 7.66 0 0 15.31 -30.62 0 0 7.66 -7.66 0 0 -22.97m7.66 22.97l22.96 0 0 7.65 -22.96 0 0 -7.65m0 -30.62l22.96 0 0 7.65 -22.96 0 0 -7.65m91.86 0l5.82 0 0 7.65 -5.82 0 0 -7.65m0 30.62l5.82 0 0 7.65 -5.82 0 0 -7.65m-7.66 -22.97l7.66 0 0 7.66 5.82 0 0 0 0 0 0 7.65 -5.82 0 0 7.66 -7.66 0 0 -22.97m-1097.55 -7.65l22.96 0 0 7.65 -22.96 0 0 -7.65m0 30.62l22.96 0 0 7.65 -22.96 0 0 -7.65m-7.66 -22.97l7.66 0 0 7.66 22.96 0 0 -7.66 7.66 0 0 15.31 -30.62 0 0 7.66 -7.66 0 0 -22.97m98.36 15.31l15.31 0 0 14.16 -15.31 0 0 -14.16m922.65 -106.34l22.96 0 0 7.65 -22.96 0 0 -7.65m-7.66 7.65l7.66 0 0 22.97 -7.66 0 0 -22.97m7.66 22.97l22.96 0 0 7.66 -22.96 0 0 -7.66m22.96 -7.66l7.66 0 0 7.66 -7.66 0 0 -7.66m22.97 -22.96l22.96 0 0 7.65 -22.96 0 0 -7.65m-7.65 22.96l7.65 0 0 7.66 -7.65 0 0 -7.66m-614.83 0l7.65 0 0 7.66 -7.65 0 0 -7.66m-22.97 7.66l22.97 0 0 7.66 -22.97 0 0 -7.66m-7.66 -22.97l7.66 0 0 22.97 -7.66 0 0 -22.97m7.66 -7.65l22.97 0 0 7.65 -22.97 0 0 -7.65m423.45 -15.31l7.66 0 0 7.65 -7.66 0 0 -7.65m45.93 30.62l7.66 0 0 7.65 -7.66 0 0 -7.65m-229.94 -15.31l15.31 0 0 7.65 -15.31 0 0 -7.65m15.31 7.65l7.66 0 0 30.63 -7.66 0 0 -30.63m-208.82 -7.65l21.81 0 0 7.65 -21.81 0 0 -7.65m-7.65 7.65l7.65 0 0 22.97 -7.65 0 0 -22.97m7.65 22.97l21.81 0 0 7.66 -21.81 0 0 -7.66m21.81 -22.97l7.66 0 0 22.97 -7.66 0 0 -22.97m369.14 83.38l7.65 0 0 22.97 -7.65 0 0 -22.97m-21.81 22.97l21.81 0 0 7.65 -21.81 0 0 -7.65m-7.65 -22.97l7.65 0 0 22.97 -7.65 0 0 -22.97m7.65 -7.65l21.81 0 0 7.65 -21.81 0 0 -7.65m-190.94 -83.38l7.66 0 0 7.65 7.65 0 0 7.66 -7.65 0 0 22.97 -7.66 0 0 -38.28m459.59 0l7.66 0 0 7.65 5.82 0 0 7.66 -5.82 0 0 22.97 -7.66 0 0 -38.28m-375.38 38.28l-7.66 0 0 -7.66 -7.65 0 0 -7.66 7.65 0 0 -22.96 7.66 0 0 38.28m-30.62 -7.66l-7.66 0 0 -30.62 7.66 0 0 30.62m15.31 7.66l-15.31 0 0 -7.66 15.31 0 0 7.66m-206.69 -38.28l7.65 0 0 7.65 7.66 0 0 7.66 -7.66 0 0 22.97 -7.65 0 0 -38.28m30.62 7.65l7.65 0 0 30.63 -7.65 0 0 -30.63m-15.31 -7.65l15.31 0 0 7.65 -15.31 0 0 -7.65m229.22 83.38l15.31 0 0 7.65 -15.31 0 0 -7.65m15.31 7.65l7.65 0 0 30.62 -7.65 0 0 -30.62m-30.62 -7.65l7.65 0 0 7.65 7.66 0 0 7.66 -7.66 0 0 22.96 -7.65 0 0 -38.27m253.34 38.27l-15.31 0 0 -7.65 15.31 0 0 7.65m-15.31 -7.65l-7.66 0 0 -30.62 7.66 0 0 30.62m30.62 7.65l-7.66 0 0 -7.65 -7.65 0 0 -7.66 7.65 0 0 -22.96 7.66 0 0 38.27m91.86 0l-7.66 0 0 -7.65 -7.65 0 0 -7.66 7.65 0 0 -22.96 7.66 0 0 38.27m-30.62 -7.65l-7.65 0 0 -30.62 7.65 0 0 30.62m15.31 7.65l-15.31 0 0 -7.65 15.31 0 0 7.65m7.65 -114l7.66 0 0 30.63 -30.62 0 0 -7.66 22.96 0 0 -7.66 -22.96 0 0 -7.65 22.96 0 0 -7.66m-368.16 83.38l7.65 0 0 30.62 -30.62 0 0 -7.65 22.97 0 0 -7.66 -22.97 0 0 -7.65 22.97 0 0 -7.66m-30.63 15.31l7.66 0 0 7.66 -7.66 0 0 -7.66m7.66 -22.96l22.97 0 0 7.65 -22.97 0 0 -7.65m-322.56 0l22.97 0 0 7.65 -22.97 0 0 -7.65m-7.65 22.96l7.65 0 0 7.66 -7.65 0 0 -7.66m30.62 -15.31l7.66 0 0 30.62 -30.63 0 0 -7.65 22.97 0 0 -7.66 -22.97 0 0 -7.65 22.97 0 0 -7.66m598.86 -189.72l-30.62 0 0 53.59 30.62 0 0 -7.66 -22.96 0 0 -15.31 22.96 0 0 -7.65 -22.96 0 0 -15.32 22.96 0 0 -7.65m-76.55 0l0 53.59 7.66 0 0 -38.28 7.65 0 0 -7.66 -7.65 0 0 -7.65 -7.66 0m38.28 0l0 53.59 -7.66 0 0 -38.28 -7.65 0 0 -7.66 7.65 0 0 -7.65 7.66 0m-62.47 0l7.66 0 0 30.62 7.65 0 0 7.66 -7.65 0 0 15.31 -7.66 0 0 -15.31 -22.96 0 0 -15.31 7.65 0 0 7.65 15.31 0 0 -15.31 -7.65 0 0 -7.66 7.65 0 0 -7.65m-67.74 0l0 7.65 21.81 0 0 7.66 7.66 0 0 -7.66 7.65 0 0 -7.65 -37.12 0m21.81 15.31l-7.65 0 0 7.66 -7.66 0 0 7.65 22.97 0 0 -7.65 -7.66 0 0 -7.66m-67.73 -7.66l0 38.28 7.65 0 0 -7.65 7.65 0 0 -7.66 -7.65 0 0 -22.97 -7.65 0m30.61 0l0 7.66 -7.65 0 0 7.66 7.65 0 0 22.96 7.66 0 0 -38.28 -7.66 0m-76.55 7.66l0 30.62 7.66 0 0 -15.31 22.97 0 0 -7.65 -22.97 0 0 -7.66 -7.66 0m7.66 30.62l22.97 0 0 7.66 -22.97 0 0 -7.66m-492.64 136.14l-7.66 0 0 7.65 -7.65 0 0 7.66 22.96 0 0 -7.66 -7.65 0 0 -7.65m-21.81 -15.31l0 7.65 21.81 0 0 7.66 7.65 0 0 -7.66 7.66 0 0 -7.65 -37.12 0m0 45.93l29.46 0 0 7.65 -29.46 0 0 -7.65m29.46 -15.31l7.66 0 0 15.31 -7.66 0 0 -15.31m615.19 -98.69l0 7.65 22.97 0 0 7.66 7.65 0 0 -7.66 7.66 0 0 -7.65 -38.28 0m7.66 22.96l7.65 0 0 7.66 22.97 0 0 7.66 -38.28 0 0 -7.66 7.66 0 0 -7.66m-45.93 -22.96l15.31 0 0 30.62 7.65 0 0 7.66 -22.96 0 0 -7.66 7.65 0 0 -22.97 -7.65 0 0 -7.65m-229.94 0l15.31 0 0 30.62 7.65 0 0 7.66 -22.96 0 0 -7.66 7.65 0 0 -22.97 -7.65 0 0 -7.65m7.65 -15.31l7.66 0 0 7.65 -7.66 0 0 -7.65m-92.3 83.38l7.66 0 0 7.65 -7.66 0 0 -7.65m-7.65 15.31l15.31 0 0 30.62 7.65 0 0 7.65 -22.96 0 0 -7.65 7.65 0 0 -22.97 -7.65 0 0 -7.65m69.33 -60.42l7.66 0 0 7.66 -7.66 0 0 -7.66m-7.65 7.66l7.65 0 0 7.66 -7.65 0 0 -7.66m-7.66 -45.93l7.66 0 0 15.31 7.65 0 0 7.65 -7.65 0 0 22.97 -7.66 0 0 -22.97 -7.66 0 0 -7.65 7.66 0 0 -15.31m45.5 83.38l7.65 0 0 15.31 7.66 0 0 7.65 -7.66 0 0 22.97 -7.65 0 0 -22.97 -7.66 0 0 -7.65 7.66 0 0 -15.31m7.65 45.93l7.66 0 0 7.65 -7.66 0 0 -7.65m7.66 -7.66l7.65 0 0 7.66 -7.65 0 0 -7.66m15.3 -22.96l7.66 0 0 7.65 7.65 0 0 7.66 -7.65 0 0 22.96 -7.66 0 0 -38.27m30.62 7.65l7.66 0 0 8.82 -7.66 0 0 -8.82m-15.31 -7.65l15.31 0 0 7.65 -15.31 0 0 -7.65m-192.42 -15.31l14.16 0 0 45.93 7.65 0 0 6.5 -21.81 0 0 -6.5 7.66 0 0 -38.28 -7.66 0 0 -7.65m-136.63 0l14.15 0 0 45.93 7.66 0 0 6.5 -21.81 0 0 -6.5 7.65 0 0 -38.28 -7.65 0 0 -7.65m459.19 15.31l15.31 0 0 7.65 -15.31 0 0 -7.65m-7.65 7.65l7.65 0 0 22.97 -7.65 0 0 -22.97m22.96 0l7.65 0 0 -22.96 7.66 0 0 52.43 -30.62 0 0 -6.5 22.96 0 0 -15.31 -7.65 0 0 -7.66m115.55 0l7.66 0 0 22.97 -7.66 0 0 -22.97m7.66 -7.65l15.31 0 0 7.65 -15.31 0 0 -7.65m15.31 7.65l7.65 0 0 -7.65 7.66 0 0 52.43 -7.66 0 0 -15.31 -22.96 0 0 -6.5 22.96 0 0 -15.31 -7.65 0 0 -7.66m-637.14 -7.65l-15.31 0 0 7.65 15.31 0 0 -7.65m-15.31 7.65l-7.66 0 0 -7.65 -7.65 0 0 52.43 7.65 0 0 -15.31 22.97 0 0 -6.5 -22.97 0 0 -15.31 7.66 0 0 -7.66m22.96 0l-7.65 0 0 22.97 7.65 0 0 -22.97m-92.87 0l-7.66 0 0 22.97 7.66 0 0 -22.97m-22.97 0l-7.66 0 0 -7.65 -7.65 0 0 52.43 7.65 0 0 -15.31 22.97 0 0 -6.5 -22.97 0 0 -15.31 7.66 0 0 -7.66m15.31 -7.65l-15.31 0 0 7.65 15.31 0 0 -7.65m-170.3 52.94l0 0z"
   id="path256"
   fill="url(#id12)" />
   <path
   d="M3504.27 2880.64c-69.12,-300.79 -248.11,-313.88 -290.19,-313.88l0 -17.59c93.33,0 244.17,66.6 298.99,295.21 70.22,-228.12 190.15,-289.35 274.32,-290.51 80.21,-1.11 129.68,17.59 205.7,57.2l0 -35.7 219.47 0 0 -30.09 17.59 0 0 30.09 37.22 0 0 17.58 -37.22 0 0 430.09 157.84 -398.98 151.22 0 13.18 -31.11 -188.44 0 0 -17.58 195.89 0 20.71 -48.88 16.2 6.87 -17.81 42.01 41.69 0 0 17.58 -49.14 0 -123.01 290.31 162.91 0 0 217.58c152.46,-75.04 334.87,-19.98 426.81,126.92 91.19,-140.57 269.35,-196.59 424.58,-133.5l-6.18 -9.99 262.36 0 52.41 84.74 51.19 -82.77c0.76,-1.22 2.1,-1.97 3.54,-1.97l0 0c1.5,0 2.89,0.82 3.62,2.14 0.74,1.31 0.7,2.92 -0.09,4.2l-53.37 86.3 6.83 11.05 62.92 -101.72c0.76,-1.22 2.09,-1.97 3.53,-1.97l0 0c1.51,0 2.9,0.82 3.63,2.14 0.73,1.31 0.7,2.92 -0.1,4.2l-65.09 105.25 6.84 11.06 75.86 -122.65 262.35 0 -207.04 334.74 6.84 11.05 218.46 -353.2 -272.54 0c-1.51,0 -2.9,-0.81 -3.63,-2.13 -0.73,-1.32 -0.7,-2.93 0.1,-4.21l0 0c0.75,-1.22 2.09,-1.97 3.53,-1.97l287.45 0 -216.76 350.46 202.77 327.84c0.8,1.28 0.83,2.89 0.1,4.21 -0.73,1.31 -2.12,2.13 -3.63,2.13 -1.44,0 -2.77,-0.74 -3.53,-1.97l-200.59 -324.32 -6.84 11.06 194.97 315.23 -262.36 0 -50.11 -81.02 -48.9 79.05c-0.75,1.23 -2.09,1.97 -3.53,1.97l0 0c-0.68,0 -1.35,-0.16 -1.95,-0.49 -0.6,0.33 -1.28,0.49 -1.96,0.49 -1.5,0 -2.89,-0.82 -3.63,-2.13 -0.73,-1.32 -0.69,-2.93 0.1,-4.21l53.03 -85.74 -6.84 -11.05 -62.57 101.16c-0.76,1.23 -2.09,1.97 -3.54,1.97 -1.5,0 -2.89,-0.82 -3.62,-2.13 -0.74,-1.32 -0.7,-2.93 0.09,-4.21l64.76 -104.69 -6.84 -11.06 -75.52 122.09 -262.36 0 7.68 -12.41c-155.35,64.17 -334.38,8.61 -426.1,-132.26 -91.82,147.26 -274.46,201.15 -427.13,126.01l0 18.66 -222.92 0 0 -1.67 -36.8 0 16.07 45.37 -16.57 5.87 -18.15 -51.24 -70.67 0 0 -17.59 64.44 0 -131.3 -370.63 -7.76 18.9 0 370.99 -145.4 0 0 -1129.13 145.4 0 0 506.21 24.83 -62.77 0 -474.55 -201.89 0 0 51.41c-87.58,-58.9 -146.27,-72.9 -223.28,-72.9 -60.98,0 -194.79,44.44 -265.53,309.18l-17.59 0 0 0 0 0 0 0 0 0 0 0 0 0zm314.95 896.28l-277.22 0.02 0 -17.59 189.32 0c-144.27,-64.06 -207.13,-295.89 -207.13,-570.72 0,-324.04 87.34,-588.32 292.51,-588.32 94.29,0 147.86,48.44 193.97,92.58l0 28.79c0.02,0.03 0.04,0.06 0.05,0.08l-0.01 244 -15.66 0c-34,-61.94 -96.49,-148.93 -161.04,-148.93 -107.58,0 -160.79,166.62 -159.44,371.8 -1.35,205.17 51.86,371.79 159.44,371.79 64.55,0 127.04,-86.99 161.04,-148.93l15.66 0 0.01 244c-0.01,0.03 -0.03,0.05 -0.05,0.08l0 28.79c-45.69,43.75 -98.73,91.71 -191.45,92.56l0 0zm-607.27 -1176.61c203.41,0 290,277.43 290,588.32 0,310.88 -86.59,588.31 -290,588.31 -203.42,0 -290.01,-264.28 -290.01,-588.31 0,-324.04 86.59,-588.32 290.01,-588.32zm-506.42 23.75l-264.86 0 0 655.72c1.72,4.59 3.41,9.17 5.1,13.77 11.89,-3.26 24.23,-4.58 36.54,-3.92 24.09,1.29 45.79,14.95 57.36,36.12 10.45,19.13 15.43,40.77 14.38,62.54 -0.44,9.11 -2.84,18 -7.03,26.09 -10.28,19.88 -26.16,36.3 -45.68,47.26 6.6,22.4 12.91,44.89 18.93,67.46 11.51,43.19 16.92,87.77 16.05,132.45 -0.22,11.52 -2.72,22.89 -7.35,33.45 -4.75,10.81 -13.08,19.67 -23.58,25.08 -7.62,3.93 -16.52,4.57 -24.62,1.8 -8.11,-2.78 -14.74,-8.74 -18.36,-16.52 -4.21,-9.05 -6.27,-18.95 -6.02,-28.93 0.14,-5.61 2.85,-10.85 7.36,-14.21 5.68,-4.24 12.66,-6.36 19.73,-6.02 4.65,0.22 8.81,2.94 10.89,7.1 2.08,4.15 1.75,9.11 -0.86,12.97 -3.21,4.74 -7.92,8.27 -13.38,10.03l1.87 4.07c0.88,2.31 2.84,4.04 5.24,4.64 2.4,0.59 4.94,-0.03 6.8,-1.66 9.13,-7.78 14.82,-18.86 15.83,-30.83 1.32,-20.61 0.88,-41.3 -1.31,-61.84 -6.42,-43.88 -15.98,-87.24 -28.61,-129.75 -3.24,1.03 -6.53,1.91 -9.85,2.65 -9.72,2.17 -19.54,3.85 -29.43,5.05l0 274.56 177.26 0 0 36.72 17.59 0 0 -36.72 37.76 0 0 -17.58 -37.76 0 0 -395.93 16.98 0 154.69 413.51 169.89 0 15.35 39.19 16.38 -6.42 -15.27 -38.96 53.01 0 0 -17.58 -59.9 0 -182.94 -466.92c67.34,-69.46 105.97,-174 105.97,-306.77 0,-177.95 -48.17,-331.67 -204.15,-331.67l0 0 0 0 0 0 0 0 0 0 0 0zm-233.31 822.1c-10.1,4.16 -20.71,6.95 -31.55,8.29l0 -100.06c10.91,30.33 21.39,60.81 31.44,91.43 0.04,0.12 0.07,0.23 0.11,0.34 0,0 0,0 0,0 0,0 0,0 0,0 0,0 0,0 0,0m-16.6 -125.36c3.45,-0.95 6.95,-1.75 10.47,-2.41 11.05,-2.05 22.45,0.62 31.44,7.36 8.18,6.14 14.07,14.84 16.73,24.72 5.94,22.02 4.65,45.36 -3.69,66.59 -1.75,4.45 -4.63,8.37 -8.36,11.37 -2.86,2.3 -5.82,4.47 -8.88,6.5 -11.73,-38.32 -24.3,-76.37 -37.71,-114.13m-14.95 133.65c-2.77,0.34 -5.56,0.59 -8.36,0.74 -30.45,1.65 -58.78,-15.64 -71.24,-43.48 -22.1,-49.42 -25.31,-105.23 -9.03,-156.86 5.72,-18.13 11.63,-36.19 17.73,-54.19 1.69,-4.98 3.39,-9.95 5.12,-14.93 16.34,38.84 31.97,77.97 46.87,117.39 -21.23,11.37 -38.36,29.11 -48.98,50.73 -1.75,3.57 -1.07,7.86 1.72,10.7 2.78,2.84 7.06,3.62 10.67,1.94 3.13,-2.26 6.04,-4.81 8.68,-7.63 10.73,-11.91 23.6,-21.71 37.93,-28.91 2.99,8.13 5.96,16.28 8.89,24.44l0 -74.61c-14.1,-37.74 -29.04,-75.16 -44.81,-112.23 -2.62,-6.14 -5.28,-12.25 -8,-18.34 3.28,-9.01 6.61,-18.01 10,-26.98 4.84,-12.8 8.53,-26.01 11.04,-39.47 2.83,-15.21 1.56,-30.91 -3.68,-45.48 -11.95,-33.19 -34.98,-61.25 -65.22,-79.43 -13.3,-8 -28.63,-11.95 -44.14,-11.38 -13,0.49 -23.49,10.77 -24.25,23.75 -0.69,11.78 2.04,23.51 7.86,33.78 5.39,9.51 11.19,18.77 17.39,27.76 19.14,27.74 35.68,57.19 49.41,87.97 2.7,6.05 5.38,12.11 8.05,18.18 -4.19,11.52 -8.29,23.08 -12.31,34.66 -18.63,53.75 -30.65,109.57 -35.79,166.23 -2.42,26.74 -0.04,53.69 7.03,79.6 9.7,35.53 41.29,60.7 78.09,62.21 16.47,0.67 32.97,0.01 49.33,-1.98l0 -24.18m240.86 -877.41l-273.83 0 0 -42.66 -17.58 0 0 42.66 -40.96 0 0 17.59 40.96 0 0 195.9 17.58 0 0 -195.9 273.83 0 0 -17.59z"
   id="path258"
   fill="#000000" />
   <path
   d="M6086.81 3110.03l-201.78 0 -90.21 145.85 -90.21 -145.85 -201.79 0 37.84 61.18c-77.02,-65.39 -180.16,-91.04 -278.83,-69.36 -98.68,21.67 -181.57,88.2 -224.09,179.85 -38.11,-85.26 -109.83,-149.08 -196.57,-174.91 -86.75,-25.83 -179.99,-11.15 -255.54,40.27l0 -242.06 -171.4 0 0 818.42 171.4 0 0 -33.01c75.69,51.5 169.11,66.15 255.97,40.13 86.86,-26.01 158.59,-90.11 196.52,-175.63 43,92 126.69,158.48 226.04,179.54 99.34,21.06 202.81,-5.75 279.44,-72.39l-40.44 65.37 201.79 0 89.87 -145.3 89.87 145.3 201.78 0 -190.76 -308.42 191.1 -308.98 0 0 0 0 0 0 0 0 0 0 0 0z"
   id="path260"
   fill="#B4C3D3" />
   <path
   d="M4890.32 3417.9c0,-84.14 -68.21,-152.35 -152.34,-152.35 -84.14,0 -152.34,68.21 -152.34,152.35 0,84.13 68.2,152.34 152.34,152.34 84.13,0 152.34,-68.21 152.34,-152.34zm755.16 -77.22c12.78,52 12.45,106.35 -0.95,158.18l49.39 -79.85 -48.44 -78.33m-161.88 77.22c0,-84.14 -68.21,-152.35 -152.34,-152.35 -84.14,0 -152.35,68.21 -152.35,152.35 0,84.13 68.21,152.34 152.35,152.34 84.13,0 152.34,-68.21 152.34,-152.34z"
   id="path262"
   fill="#000000" />
   <path
   d="M2586.07 3735.61l31.86 0 0 -395.93 -31.86 0 0 395.93m65.78 -645.49c53.73,0 62.15,-68.12 62.1,-114.87 -0.05,-46.75 -6.84,-97.48 -53.73,-97.48l-74.15 0 0 258.34 31.86 0 0 -45.99 33.92 0 0 0 0 0 0 0 0 0 0 0 0 0zm0 17.59l-16.33 0 0 28.4 1.12 0c119.74,0 119.74,-107.22 119.74,-144.48l0 -24.05c0,-36.11 -0.24,-135.8 -101.07,-135.8l-69.24 0 0 28.4 65.78 0c34.22,0 80.12,4.87 80.12,119.62 0,114.74 -46.13,126.95 -80.12,127.91l0 0 0 0 0 0 0 0 0 0 0 0zm-285.14 -3.14c-13.78,-27.51 -28.69,-54.44 -44.7,-80.71 -5.09,-8.36 -9.69,-16.99 -13.78,-25.88 -2.67,-5.79 -4.25,-12.03 -4.68,-18.39 -0.09,-1.37 0.4,-2.72 1.36,-3.71 0.95,-0.99 2.28,-1.52 3.66,-1.48 6.61,0.23 13.05,2.13 18.73,5.52 24.4,14.6 41.79,38.51 48.16,66.22 1.85,8.09 1.91,16.48 0.16,24.58 -2.46,11.42 -5.43,22.71 -8.91,33.85l0 0m2960.39 439.84l8.31 0c69.06,-2.26 123.55,-59.5 122.41,-128.59 -1.13,-69.1 -57.46,-124.51 -126.56,-124.51 -69.1,0 -125.44,55.41 -126.57,124.51 -1.13,69.09 53.35,126.33 122.41,128.59zm-593.28 0l8.31 0c69.06,-2.26 123.55,-59.5 122.41,-128.59 -1.13,-69.1 -57.46,-124.51 -126.56,-124.51 -69.1,0 -125.44,55.41 -126.57,124.51 -1.13,69.09 53.35,126.33 122.41,128.59zm-396.84 -398l51.49 133.21 0 -254.75 -51.49 121.54m8.46 587.52l-139.93 -395.03 16.4 -39.97 161.71 435 -38.18 0m-1133.5 -920.91c97.96,0 139.63,177.11 139.63,375.61 0,198.49 -41.67,375.6 -139.63,375.6 -97.95,0 -139.62,-168.73 -139.62,-375.6 0,-206.88 41.67,-375.61 139.62,-375.61z"
   id="path264"
   fill="#FFC000" />
   <path
   d="M5327.1 3544.41c2.77,0.2 5.54,0.19 8.31,0l0 -11.63c62.65,-2.27 111.93,-54.32 110.78,-117 -1.15,-62.68 -52.32,-112.88 -115.01,-112.84 -1.51,-0.03 -2.75,0.76 -3.51,2.05 -0.75,1.3 -0.76,2.91 0,4.2 0.76,1.3 2.01,2.08 3.51,2.06 38.6,-0.03 74.21,20.81 93.09,54.48 18.89,33.67 18.09,74.93 -2.06,107.85 -20.15,32.92 -56.54,52.39 -95.11,50.88l0 19.95 0 0 0 0 0 0 0 0 0 0 0 0zm-589.12 -31.5c-2.3,0 -4.16,-1.86 -4.16,-4.15 0,-2.3 1.86,-4.16 4.16,-4.16 47.88,0 86.7,-38.82 86.7,-86.7 0,-47.89 -38.82,-86.71 -86.7,-86.71 -2.3,0 -4.16,-1.86 -4.16,-4.15 0,-2.3 1.86,-4.16 4.16,-4.16 52.47,0 95.01,42.54 95.01,95.02 0,52.47 -42.54,95.01 -95.01,95.01l0 0 0 0 0 0 0 0 0 0 0 0zm593.28 0c-2.3,0 -4.16,-1.86 -4.16,-4.15 0,-2.3 1.86,-4.16 4.16,-4.16 47.88,0 86.7,-38.82 86.7,-86.7 0,-47.89 -38.82,-86.71 -86.7,-86.71 -2.3,0 -4.16,-1.86 -4.16,-4.15 0,-2.3 1.86,-4.16 4.16,-4.16 52.47,0 95.01,42.54 95.01,95.02 0,52.47 -42.54,95.01 -95.01,95.01l0 0 0 0 0 0 0 0 0 0 0 0zm-597.44 31.5c2.77,0.14 5.54,0.11 8.31,0l0 -11.63c62.65,-2.27 111.93,-54.32 110.78,-117 -1.15,-62.68 -52.32,-112.88 -115.01,-112.84 -1.51,-0.03 -2.75,0.76 -3.51,2.05 -0.75,1.3 -0.76,2.91 0,4.2 0.76,1.3 2.01,2.08 3.51,2.06 38.6,-0.03 74.21,20.81 93.09,54.48 18.89,33.67 18.09,74.93 -2.06,107.85 -20.15,32.92 -56.54,52.39 -95.11,50.88l0 19.95 0 0 0 0 0 0 0 0 0 0 0 0zm-1521.87 -33.04l0 -43.44 -17.59 0 0 46.26 0 17.59c95.07,0 122.97,-161.45 123.63,-334.36l400.12 0c0.95,121.72 27.65,308.02 107.11,320.87l0 45.94 17.58 0 0 -366.81 70.02 0 0 -17.59 -70.02 0 0 -63.45 -17.58 0 0 63.45 -89.46 0c1.9,-120.65 35.61,-297.03 98.25,-299.89l0 -17.59c-82.17,3.18 -114.11,191.44 -115.85,317.48l-400.2 0c-1.14,-172.1 -28.92,-332.23 -123.6,-332.23l0 16.88 0 315.35 -53.75 0 0 17.59 53.75 0 0 61.42 17.59 0 0 -61.42 88.43 0c-0.88,110.67 -14.83,289.52 -88.43,313.95l0 0 0 0 0 0 0 0 0 0 0 0z"
   id="path266"
   fill="#000000" />
   <path
   d="M3735.7 3197.42c1.14,115.23 30.32,287.27 89.52,302.9l0 -302.9 -89.52 0zm-435.3 -17.59l-88.45 0 0 -312.51c73.23,24.34 87.93,201.64 88.45,312.51z"
   id="path268"
   fill="#FFC000" />
  </g>
 </g>
 <g
   id="Haupt_x0020_Desktop">
 </g>
<g
   inkscape:groupmode="layer"
   id="layer1"
   inkscape:label="Text"><text
     xml:space="preserve"
     style="font-size:790.222229px;font-style:normal;font-variant:normal;font-weight:normal;font-stretch:normal;text-align:start;line-height:100%;writing-mode:lr-tb;text-anchor:start;fill:#000000;fill-opacity:1;stroke:none;stroke-width:1px;stroke-linecap:butt;stroke-linejoin:miter;stroke-opacity:1;font-family:URW Palladio L"
     x="9476.6211"
     y="8343.1211"
     id="text1573"
     sodipodi:linespacing="100%"><tspan
       sodipodi:role="line"
       id="tspan1575"
       x="9476.6211"
       y="8343.1211">Right</tspan></text>
<text
     xml:space="preserve"
     style="font-size:790.222229px;font-style:normal;font-variant:normal;font-weight:normal;font-stretch:normal;text-align:start;line-height:100%;writing-mode:lr-tb;text-anchor:start;fill:#000000;fill-opacity:1;stroke:none;stroke-width:1px;stroke-linecap:butt;stroke-linejoin:miter;stroke-opacity:1;font-family:URW Palladio L"
     x="-2340.8987"
     y="8427.5869"
     id="text1577"
     sodipodi:linespacing="100%"><tspan
       sodipodi:role="line"
       id="tspan1579"
       x="-2340.8987"
       y="8427.5869">Left</tspan></text>
<text
     xml:space="preserve"
     style="font-size:790.222229px;font-style:normal;font-variant:normal;font-weight:normal;font-stretch:normal;text-align:start;line-height:100%;writing-mode:lr-tb;text-anchor:start;fill:#000000;fill-opacity:1;stroke:none;stroke-width:1px;stroke-linecap:butt;stroke-linejoin:miter;stroke-opacity:1;font-family:URW Palladio L"
     x="9436.3379"
     y="12829.944"
     id="text1581"
     sodipodi:linespacing="100%"><tspan
       sodipodi:role="line"
       id="tspan1583"
       x="9436.3379"
       y="12829.944">Down</tspan></text>
<text
     xml:space="preserve"
     style="font-size:790.222229px;font-style:normal;font-variant:normal;font-weight:normal;font-stretch:normal;text-align:start;line-height:100%;writing-mode:lr-tb;text-anchor:start;fill:#000000;fill-opacity:1;stroke:none;stroke-width:1px;stroke-linecap:butt;stroke-linejoin:miter;stroke-opacity:1;font-family:URW Palladio L"
     x="-2368.3333"
     y="5739.6509"
     id="text1585"
     sodipodi:linespacing="100%"><tspan
       sodipodi:role="line"
       id="tspan1587"
       x="-2368.3333"
       y="5739.6509">Up</tspan></text>
<text
     xml:space="preserve"
     style="font-size:790.222229px;font-style:normal;font-variant:normal;font-weight:normal;font-stretch:normal;text-align:start;line-height:100%;writing-mode:lr-tb;text-anchor:start;fill:#000000;fill-opacity:1;stroke:none;stroke-width:1px;stroke-linecap:butt;stroke-linejoin:miter;stroke-opacity:1;font-family:URW Palladio L"
     x="9539.9951"
     y="10906.634"
     id="text1589"
     sodipodi:linespacing="100%"><tspan
       sodipodi:role="line"
       id="tspan1591"
       x="9539.9951"
       y="10906.634">Select</tspan></text>
<text
     xml:space="preserve"
     style="font-size:790.222229px;font-style:normal;font-variant:normal;font-weight:normal;font-stretch:normal;text-align:start;line-height:100%;writing-mode:lr-tb;text-anchor:start;fill:#000000;fill-opacity:1;stroke:none;stroke-width:1px;stroke-linecap:butt;stroke-linejoin:miter;stroke-opacity:1;font-family:URW Palladio L"
     x="9435.876"
     y="2302.2393"
     id="text1593"
     sodipodi:linespacing="100%"><tspan
       sodipodi:role="line"
       id="tspan1595"
       x="9435.876"
       y="2302.2393">Power/Hold</tspan></text>
<text
     xml:space="preserve"
     style="font-size:790.222229px;font-style:normal;font-variant:normal;font-weight:normal;font-stretch:normal;text-align:start;line-height:100%;writing-mode:lr-tb;text-anchor:start;fill:#000000;fill-opacity:1;stroke:none;stroke-width:1px;stroke-linecap:butt;stroke-linejoin:miter;stroke-opacity:1;font-family:URW Palladio L"
     x="9398.1582"
     y="4376.6807"
     id="text1597"
     sodipodi:linespacing="100%"><tspan
       sodipodi:role="line"
       id="tspan1599"
       x="9398.1582"
       y="4376.6807">Rec</tspan></text>
<text
     xml:space="preserve"
     style="font-size:790.222229px;font-style:normal;font-variant:normal;font-weight:normal;font-stretch:normal;text-align:start;line-height:100%;writing-mode:lr-tb;text-anchor:start;fill:#000000;fill-opacity:1;stroke:none;stroke-width:1px;stroke-linecap:butt;stroke-linejoin:miter;stroke-opacity:1;font-family:URW Palladio L"
     x="9473.5928"
     y="6187.1025"
     id="text1601"
     sodipodi:linespacing="100%"><tspan
       sodipodi:role="line"
       id="tspan1603"
       x="9473.5928"
       y="6187.1025">Play</tspan></text>
<path
     style="fill:none;fill-opacity:0.75;fill-rule:evenodd;stroke:#737373;stroke-width:28.22222167;stroke-linecap:butt;stroke-linejoin:miter;stroke-opacity:1;stroke-miterlimit:4;stroke-dasharray:none"
     d="M 7882.8786,8090.3226 L 9259.5536,8090.3226"
     id="path1622" /><path
     style="fill:none;fill-opacity:0.75;fill-rule:evenodd;stroke:#737373;stroke-width:28.22222167;stroke-linecap:butt;stroke-linejoin:miter;stroke-opacity:1;stroke-miterlimit:4;stroke-dasharray:none"
     d="M 6826.7992,8109.1812 L 9334.9879,10598.511"
     id="path2497" /><path
     style="fill:none;fill-opacity:0.75;fill-rule:evenodd;stroke:#737373;stroke-width:28.22222137;stroke-linecap:butt;stroke-linejoin:miter;stroke-miterlimit:4;stroke-dasharray:none;stroke-opacity:1"
     d="M 6816.833,9134.2393 L 9213.3889,12488.651"
     id="path2499" /></g><path
   style="fill:none;fill-opacity:0.75;fill-rule:evenodd;stroke:#737373;stroke-width:28.22222137;stroke-linecap:butt;stroke-linejoin:miter;stroke-miterlimit:4;stroke-dasharray:none;stroke-opacity:1"
   d="M -382.2766,5765.0203 L 6816.9433,7052.5357"
   id="path2501" /><path
   style="fill:none;fill-opacity:0.75;fill-rule:evenodd;stroke:#737373;stroke-width:28.22222167;stroke-linecap:butt;stroke-linejoin:miter;stroke-miterlimit:4;stroke-dasharray:none;stroke-opacity:1"
   d="M -863.6984,8078.0184 L 5689.6983,8069.76"
   id="path2503" /></svg>