STARTFONT 2.1
FONT -nil-ProFont-medium-r-normal--10-100-72-72-c-50-ISO10646-1
SIZE -1 72 72
FONTBOUNDINGBOX 5 10 0 -2

STARTPROPERTIES 15
CAP_HEIGHT 8
POINT_SIZE 100
WEIGHT 10
RESOLUTION_X 72
RESOLUTION_Y 72
X_HEIGHT 4
QUAD_WIDTH 5
FAMILY_NAME "ProFont"
WEIGHT_NAME "Medium"
SLANT "R"
CHARSET_REGISTRY "ISO10646"
CHARSET_ENCODING "1"
DEFAULT_CHAR -256
FONT_DESCENT 2
FONT_ASCENT 8
ENDPROPERTIES

CHARS 256

STARTCHAR 0
ENCODING 0
SWIDTH 5000 0
DWIDTH 5 0
BBX 5 10 0 -2
BITMAP
00
00
00
00
00
00
00
00
00
00
ENDCHAR

STARTCHAR 1
ENCODING 1
SWIDTH 5000 0
DWIDTH 5 0
BBX 5 10 0 -2
BITMAP
00
00
00
00
00
00
00
00
00
00
ENDCHAR

STARTCHAR 2
ENCODING 2
SWIDTH 5000 0
DWIDTH 5 0
BBX 5 10 0 -2
BITMAP
00
00
00
00
00
00
00
00
00
00
ENDCHAR

STARTCHAR 3
ENCODING 3
SWIDTH 5000 0
DWIDTH 5 0
BBX 5 10 0 -2
BITMAP
00
00
00
00
00
00
00
00
00
00
ENDCHAR

STARTCHAR 4
ENCODING 4
SWIDTH 5000 0
DWIDTH 5 0
BBX 5 10 0 -2
BITMAP
00
00
00
00
00
00
00
00
00
00
ENDCHAR

STARTCHAR 5
ENCODING 5
SWIDTH 5000 0
DWIDTH 5 0
BBX 5 10 0 -2
BITMAP
00
00
00
00
00
00
00
00
00
00
ENDCHAR

STARTCHAR 6
ENCODING 6
SWIDTH 5000 0
DWIDTH 5 0
BBX 5 10 0 -2
BITMAP
00
00
00
00
00
00
00
00
00
00
ENDCHAR

STARTCHAR 7
ENCODING 7
SWIDTH 5000 0
DWIDTH 5 0
BBX 5 10 0 -2
BITMAP
00
00
00
00
00
00
00
00
00
00
ENDCHAR

STARTCHAR 8
ENCODING 8
SWIDTH 5000 0
DWIDTH 5 0
BBX 5 10 0 -2
BITMAP
00
00
00
00
00
00
00
00
00
00
ENDCHAR

STARTCHAR 9
ENCODING 9
SWIDTH 5000 0
DWIDTH 5 0
BBX 5 10 0 -2
BITMAP
00
00
00
00
00
00
00
00
00
00
ENDCHAR

STARTCHAR 10
ENCODING 10
SWIDTH 5000 0
DWIDTH 5 0
BBX 5 10 0 -2
BITMAP
00
00
00
00
00
00
00
00
00
00
ENDCHAR

STARTCHAR 11
ENCODING 11
SWIDTH 5000 0
DWIDTH 5 0
BBX 5 10 0 -2
BITMAP
00
00
00
00
00
00
00
00
00
00
ENDCHAR

STARTCHAR 12
ENCODING 12
SWIDTH 5000 0
DWIDTH 5 0
BBX 5 10 0 -2
BITMAP
00
00
00
00
00
00
00
00
00
00
ENDCHAR

STARTCHAR 13
ENCODING 13
SWIDTH 5000 0
DWIDTH 5 0
BBX 5 10 0 -2
BITMAP
00
00
00
00
00
00
00
00
00
00
ENDCHAR

STARTCHAR 14
ENCODING 14
SWIDTH 5000 0
DWIDTH 5 0
BBX 5 10 0 -2
BITMAP
00
00
00
00
00
00
00
00
00
00
ENDCHAR

STARTCHAR 15
ENCODING 15
SWIDTH 5000 0
DWIDTH 5 0
BBX 5 10 0 -2
BITMAP
00
00
00
00
00
00
00
00
00
00
ENDCHAR

STARTCHAR 16
ENCODING 16
SWIDTH 5000 0
DWIDTH 5 0
BBX 5 10 0 -2
BITMAP
00
00
00
00
00
00
00
00
00
00
ENDCHAR

STARTCHAR 17
ENCODING 17
SWIDTH 5000 0
DWIDTH 5 0
BBX 5 10 0 -2
BITMAP
00
00
00
00
00
00
00
00
00
00
ENDCHAR

STARTCHAR 18
ENCODING 18
SWIDTH 5000 0
DWIDTH 5 0
BBX 5 10 0 -2
BITMAP
00
00
00
00
00
00
00
00
00
00
ENDCHAR

STARTCHAR 19
ENCODING 19
SWIDTH 5000 0
DWIDTH 5 0
BBX 5 10 0 -2
BITMAP
00
00
00
00
00
00
00
00
00
00
ENDCHAR

STARTCHAR 20
ENCODING 20
SWIDTH 5000 0
DWIDTH 5 0
BBX 5 10 0 -2
BITMAP
00
00
00
00
00
00
00
00
00
00
ENDCHAR

STARTCHAR 21
ENCODING 21
SWIDTH 5000 0
DWIDTH 5 0
BBX 5 10 0 -2
BITMAP
00
00
00
00
00
00
00
00
00
00
ENDCHAR

STARTCHAR 22
ENCODING 22
SWIDTH 5000 0
DWIDTH 5 0
BBX 5 10 0 -2
BITMAP
00
00
00
00
00
00
00
00
00
00
ENDCHAR

STARTCHAR 23
ENCODING 23
SWIDTH 5000 0
DWIDTH 5 0
BBX 5 10 0 -2
BITMAP
00
00
00
00
00
00
00
00
00
00
ENDCHAR

STARTCHAR 24
ENCODING 24
SWIDTH 5000 0
DWIDTH 5 0
BBX 5 10 0 -2
BITMAP
00
00
00
00
00
00
00
00
00
00
ENDCHAR

STARTCHAR 25
ENCODING 25
SWIDTH 5000 0
DWIDTH 5 0
BBX 5 10 0 -2
BITMAP
00
00
00
00
00
00
00
00
00
00
ENDCHAR

STARTCHAR 26
ENCODING 26
SWIDTH 5000 0
DWIDTH 5 0
BBX 5 10 0 -2
BITMAP
00
00
00
00
00
00
00
00
00
00
ENDCHAR

STARTCHAR 27
ENCODING 27
SWIDTH 5000 0
DWIDTH 5 0
BBX 5 10 0 -2
BITMAP
00
00
00
00
00
00
00
00
00
00
ENDCHAR

STARTCHAR 28
ENCODING 28
SWIDTH 5000 0
DWIDTH 5 0
BBX 5 10 0 -2
BITMAP
00
00
00
00
00
00
00
00
00
00
ENDCHAR

STARTCHAR 29
ENCODING 29
SWIDTH 5000 0
DWIDTH 5 0
BBX 5 10 0 -2
BITMAP
00
00
00
00
00
00
00
00
00
00
ENDCHAR

STARTCHAR 30
ENCODING 30
SWIDTH 5000 0
DWIDTH 5 0
BBX 5 10 0 -2
BITMAP
00
00
00
00
00
00
00
00
00
00
ENDCHAR

STARTCHAR 31
ENCODING 31
SWIDTH 5000 0
DWIDTH 5 0
BBX 5 10 0 -2
BITMAP
00
00
00
00
00
00
00
00
00
00
ENDCHAR

STARTCHAR 32
ENCODING 32
SWIDTH 5000 0
DWIDTH 5 0
BBX 5 10 0 -2
BITMAP
00
00
00
00
00
00
00
00
00
00
ENDCHAR

STARTCHAR 33
ENCODING 33
SWIDTH 5000 0
DWIDTH 5 0
BBX 5 10 0 -2
BITMAP
00
00
20
20
20
20
00
20
00
00
ENDCHAR

STARTCHAR 34
ENCODING 34
SWIDTH 5000 0
DWIDTH 5 0
BBX 5 10 0 -2
BITMAP
00
50
50
00
00
00
00
00
00
00
ENDCHAR

STARTCHAR 35
ENCODING 35
SWIDTH 5000 0
DWIDTH 5 0
BBX 5 10 0 -2
BITMAP
00
00
50
F8
50
F8
50
00
00
00
ENDCHAR

STARTCHAR 36
ENCODING 36
SWIDTH 5000 0
DWIDTH 5 0
BBX 5 10 0 -2
BITMAP
00
20
78
A0
70
28
A8
70
20
00
ENDCHAR

STARTCHAR 37
ENCODING 37
SWIDTH 5000 0
DWIDTH 5 0
BBX 5 10 0 -2
BITMAP
00
00
78
A8
B0
68
A8
90
00
00
ENDCHAR

STARTCHAR 38
ENCODING 38
SWIDTH 5000 0
DWIDTH 5 0
BBX 5 10 0 -2
BITMAP
00
00
40
A0
40
50
A0
50
00
00
ENDCHAR

STARTCHAR 39
ENCODING 39
SWIDTH 5000 0
DWIDTH 5 0
BBX 5 10 0 -2
BITMAP
00
00
20
20
00
00
00
00
00
00
ENDCHAR

STARTCHAR 40
ENCODING 40
SWIDTH 5000 0
DWIDTH 5 0
BBX 5 10 0 -2
BITMAP
00
10
20
40
40
40
40
20
10
00
ENDCHAR

STARTCHAR 41
ENCODING 41
SWIDTH 5000 0
DWIDTH 5 0
BBX 5 10 0 -2
BITMAP
00
80
40
20
20
20
20
40
80
00
ENDCHAR

STARTCHAR 42
ENCODING 42
SWIDTH 5000 0
DWIDTH 5 0
BBX 5 10 0 -2
BITMAP
00
00
40
90
60
90
20
00
00
00
ENDCHAR

STARTCHAR 43
ENCODING 43
SWIDTH 5000 0
DWIDTH 5 0
BBX 5 10 0 -2
BITMAP
00
00
00
00
40
E0
40
00
00
00
ENDCHAR

STARTCHAR 44
ENCODING 44
SWIDTH 5000 0
DWIDTH 5 0
BBX 5 10 0 -2
BITMAP
00
00
00
00
00
00
00
40
40
80
ENDCHAR

STARTCHAR 45
ENCODING 45
SWIDTH 5000 0
DWIDTH 5 0
BBX 5 10 0 -2
BITMAP
00
00
00
00
00
60
00
00
00
00
ENDCHAR

STARTCHAR 46
ENCODING 46
SWIDTH 5000 0
DWIDTH 5 0
BBX 5 10 0 -2
BITMAP
00
00
00
00
00
00
00
20
00
00
ENDCHAR

STARTCHAR 47
ENCODING 47
SWIDTH 5000 0
DWIDTH 5 0
BBX 5 10 0 -2
BITMAP
00
00
10
10
20
20
40
40
80
80
ENDCHAR

STARTCHAR 48
ENCODING 48
SWIDTH 5000 0
DWIDTH 5 0
BBX 5 10 0 -2
BITMAP
00
00
60
90
B0
D0
90
60
00
00
ENDCHAR

STARTCHAR 49
ENCODING 49
SWIDTH 5000 0
DWIDTH 5 0
BBX 5 10 0 -2
BITMAP
00
00
20
60
20
20
20
70
00
00
ENDCHAR

STARTCHAR 50
ENCODING 50
SWIDTH 5000 0
DWIDTH 5 0
BBX 5 10 0 -2
BITMAP
00
00
60
90
10
20
40
F0
00
00
ENDCHAR

STARTCHAR 51
ENCODING 51
SWIDTH 5000 0
DWIDTH 5 0
BBX 5 10 0 -2
BITMAP
00
00
60
90
20
10
90
60
00
00
ENDCHAR

STARTCHAR 52
ENCODING 52
SWIDTH 5000 0
DWIDTH 5 0
BBX 5 10 0 -2
BITMAP
00
00
20
60
A0
F0
20
70
00
00
ENDCHAR

STARTCHAR 53
ENCODING 53
SWIDTH 5000 0
DWIDTH 5 0
BBX 5 10 0 -2
BITMAP
00
00
F0
80
E0
10
90
60
00
00
ENDCHAR

STARTCHAR 54
ENCODING 54
SWIDTH 5000 0
DWIDTH 5 0
BBX 5 10 0 -2
BITMAP
00
00
60
80
E0
90
90
60
00
00
ENDCHAR

STARTCHAR 55
ENCODING 55
SWIDTH 5000 0
DWIDTH 5 0
BBX 5 10 0 -2
BITMAP
00
00
F0
10
20
40
40
40
00
00
ENDCHAR

STARTCHAR 56
ENCODING 56
SWIDTH 5000 0
DWIDTH 5 0
BBX 5 10 0 -2
BITMAP
00
00
60
90
60
90
90
60
00
00
ENDCHAR

STARTCHAR 57
ENCODING 57
SWIDTH 5000 0
DWIDTH 5 0
BBX 5 10 0 -2
BITMAP
00
00
60
90
90
70
10
60
00
00
ENDCHAR

STARTCHAR 58
ENCODING 58
SWIDTH 5000 0
DWIDTH 5 0
BBX 5 10 0 -2
BITMAP
00
00
00
00
20
00
00
20
00
00
ENDCHAR

STARTCHAR 59
ENCODING 59
SWIDTH 5000 0
DWIDTH 5 0
BBX 5 10 0 -2
BITMAP
00
00
00
00
40
00
00
40
40
80
ENDCHAR

STARTCHAR 60
ENCODING 60
SWIDTH 5000 0
DWIDTH 5 0
BBX 5 10 0 -2
BITMAP
00
00
00
10
20
40
20
10
00
00
ENDCHAR

STARTCHAR 61
ENCODING 61
SWIDTH 5000 0
DWIDTH 5 0
BBX 5 10 0 -2
BITMAP
00
00
00
00
F0
00
F0
00
00
00
ENDCHAR

STARTCHAR 62
ENCODING 62
SWIDTH 5000 0
DWIDTH 5 0
BBX 5 10 0 -2
BITMAP
00
00
00
40
20
10
20
40
00
00
ENDCHAR

STARTCHAR 63
ENCODING 63
SWIDTH 5000 0
DWIDTH 5 0
BBX 5 10 0 -2
BITMAP
00
00
60
90
20
40
00
40
00
00
ENDCHAR

STARTCHAR 64
ENCODING 64
SWIDTH 5000 0
DWIDTH 5 0
BBX 5 10 0 -2
BITMAP
00
00
60
90
B0
B0
80
70
00
00
ENDCHAR

STARTCHAR 65
ENCODING 65
SWIDTH 5000 0
DWIDTH 5 0
BBX 5 10 0 -2
BITMAP
00
00
60
90
90
F0
90
90
00
00
ENDCHAR

STARTCHAR 66
ENCODING 66
SWIDTH 5000 0
DWIDTH 5 0
BBX 5 10 0 -2
BITMAP
00
00
E0
90
E0
90
90
E0
00
00
ENDCHAR

STARTCHAR 67
ENCODING 67
SWIDTH 5000 0
DWIDTH 5 0
BBX 5 10 0 -2
BITMAP
00
00
60
90
80
80
90
60
00
00
ENDCHAR

STARTCHAR 68
ENCODING 68
SWIDTH 5000 0
DWIDTH 5 0
BBX 5 10 0 -2
BITMAP
00
00
E0
90
90
90
90
E0
00
00
ENDCHAR

STARTCHAR 69
ENCODING 69
SWIDTH 5000 0
DWIDTH 5 0
BBX 5 10 0 -2
BITMAP
00
00
F0
80
E0
80
80
F0
00
00
ENDCHAR

STARTCHAR 70
ENCODING 70
SWIDTH 5000 0
DWIDTH 5 0
BBX 5 10 0 -2
BITMAP
00
00
F0
80
E0
80
80
80
00
00
ENDCHAR

STARTCHAR 71
ENCODING 71
SWIDTH 5000 0
DWIDTH 5 0
BBX 5 10 0 -2
BITMAP
00
00
60
90
80
B0
90
60
00
00
ENDCHAR

STARTCHAR 72
ENCODING 72
SWIDTH 5000 0
DWIDTH 5 0
BBX 5 10 0 -2
BITMAP
00
00
90
90
F0
90
90
90
00
00
ENDCHAR

STARTCHAR 73
ENCODING 73
SWIDTH 5000 0
DWIDTH 5 0
BBX 5 10 0 -2
BITMAP
00
00
70
20
20
20
20
70
00
00
ENDCHAR

STARTCHAR 74
ENCODING 74
SWIDTH 5000 0
DWIDTH 5 0
BBX 5 10 0 -2
BITMAP
00
00
10
10
10
10
90
60
00
00
ENDCHAR

STARTCHAR 75
ENCODING 75
SWIDTH 5000 0
DWIDTH 5 0
BBX 5 10 0 -2
BITMAP
00
00
90
A0
C0
C0
A0
90
00
00
ENDCHAR

STARTCHAR 76
ENCODING 76
SWIDTH 5000 0
DWIDTH 5 0
BBX 5 10 0 -2
BITMAP
00
00
80
80
80
80
80
F0
00
00
ENDCHAR

STARTCHAR 77
ENCODING 77
SWIDTH 5000 0
DWIDTH 5 0
BBX 5 10 0 -2
BITMAP
00
00
90
F0
F0
90
90
90
00
00
ENDCHAR

STARTCHAR 78
ENCODING 78
SWIDTH 5000 0
DWIDTH 5 0
BBX 5 10 0 -2
BITMAP
00
00
90
D0
B0
90
90
90
00
00
ENDCHAR

STARTCHAR 79
ENCODING 79
SWIDTH 5000 0
DWIDTH 5 0
BBX 5 10 0 -2
BITMAP
00
00
60
90
90
90
90
60
00
00
ENDCHAR

STARTCHAR 80
ENCODING 80
SWIDTH 5000 0
DWIDTH 5 0
BBX 5 10 0 -2
BITMAP
00
00
E0
90
90
E0
80
80
00
00
ENDCHAR

STARTCHAR 81
ENCODING 81
SWIDTH 5000 0
DWIDTH 5 0
BBX 5 10 0 -2
BITMAP
00
00
60
90
90
90
B0
60
10
00
ENDCHAR

STARTCHAR 82
ENCODING 82
SWIDTH 5000 0
DWIDTH 5 0
BBX 5 10 0 -2
BITMAP
00
00
E0
90
90
E0
90
90
00
00
ENDCHAR

STARTCHAR 83
ENCODING 83
SWIDTH 5000 0
DWIDTH 5 0
BBX 5 10 0 -2
BITMAP
00
00
60
90
60
10
90
60
00
00
ENDCHAR

STARTCHAR 84
ENCODING 84
SWIDTH 5000 0
DWIDTH 5 0
BBX 5 10 0 -2
BITMAP
00
00
70
20
20
20
20
20
00
00
ENDCHAR

STARTCHAR 85
ENCODING 85
SWIDTH 5000 0
DWIDTH 5 0
BBX 5 10 0 -2
BITMAP
00
00
90
90
90
90
90
60
00
00
ENDCHAR

STARTCHAR 86
ENCODING 86
SWIDTH 5000 0
DWIDTH 5 0
BBX 5 10 0 -2
BITMAP
00
00
90
90
90
90
A0
40
00
00
ENDCHAR

STARTCHAR 87
ENCODING 87
SWIDTH 5000 0
DWIDTH 5 0
BBX 5 10 0 -2
BITMAP
00
00
90
90
90
F0
F0
90
00
00
ENDCHAR

STARTCHAR 88
ENCODING 88
SWIDTH 5000 0
DWIDTH 5 0
BBX 5 10 0 -2
BITMAP
00
00
90
90
60
60
90
90
00
00
ENDCHAR

STARTCHAR 89
ENCODING 89
SWIDTH 5000 0
DWIDTH 5 0
BBX 5 10 0 -2
BITMAP
00
00
90
90
A0
40
40
40
00
00
ENDCHAR

STARTCHAR 90
ENCODING 90
SWIDTH 5000 0
DWIDTH 5 0
BBX 5 10 0 -2
BITMAP
00
00
F0
10
20
40
80
F0
00
00
ENDCHAR

STARTCHAR 91
ENCODING 91
SWIDTH 5000 0
DWIDTH 5 0
BBX 5 10 0 -2
BITMAP
00
30
20
20
20
20
20
20
30
00
ENDCHAR

STARTCHAR 92
ENCODING 92
SWIDTH 5000 0
DWIDTH 5 0
BBX 5 10 0 -2
BITMAP
00
00
40
40
20
20
10
10
08
08
ENDCHAR

STARTCHAR 93
ENCODING 93
SWIDTH 5000 0
DWIDTH 5 0
BBX 5 10 0 -2
BITMAP
00
60
20
20
20
20
20
20
60
00
ENDCHAR

STARTCHAR 94
ENCODING 94
SWIDTH 5000 0
DWIDTH 5 0
BBX 5 10 0 -2
BITMAP
00
00
20
50
00
00
00
00
00
00
ENDCHAR

STARTCHAR 95
ENCODING 95
SWIDTH 5000 0
DWIDTH 5 0
BBX 5 10 0 -2
BITMAP
00
00
00
00
00
00
00
00
00
F8
ENDCHAR

STARTCHAR 96
ENCODING 96
SWIDTH 5000 0
DWIDTH 5 0
BBX 5 10 0 -2
BITMAP
00
40
20
00
00
00
00
00
00
00
ENDCHAR

STARTCHAR 97
ENCODING 97
SWIDTH 5000 0
DWIDTH 5 0
BBX 5 10 0 -2
BITMAP
00
00
00
00
70
90
B0
50
00
00
ENDCHAR

STARTCHAR 98
ENCODING 98
SWIDTH 5000 0
DWIDTH 5 0
BBX 5 10 0 -2
BITMAP
00
00
80
80
E0
90
90
E0
00
00
ENDCHAR

STARTCHAR 99
ENCODING 99
SWIDTH 5000 0
DWIDTH 5 0
BBX 5 10 0 -2
BITMAP
00
00
00
00
60
90
80
70
00
00
ENDCHAR

STARTCHAR 100
ENCODING 100
SWIDTH 5000 0
DWIDTH 5 0
BBX 5 10 0 -2
BITMAP
00
00
10
10
70
90
90
70
00
00
ENDCHAR

STARTCHAR 101
ENCODING 101
SWIDTH 5000 0
DWIDTH 5 0
BBX 5 10 0 -2
BITMAP
00
00
00
00
60
F0
80
70
00
00
ENDCHAR

STARTCHAR 102
ENCODING 102
SWIDTH 5000 0
DWIDTH 5 0
BBX 5 10 0 -2
BITMAP
00
00
10
20
70
20
20
20
00
00
ENDCHAR

STARTCHAR 103
ENCODING 103
SWIDTH 5000 0
DWIDTH 5 0
BBX 5 10 0 -2
BITMAP
00
00
00
00
70
90
90
70
10
60
ENDCHAR

STARTCHAR 104
ENCODING 104
SWIDTH 5000 0
DWIDTH 5 0
BBX 5 10 0 -2
BITMAP
00
00
80
80
E0
90
90
90
00
00
ENDCHAR

STARTCHAR 105
ENCODING 105
SWIDTH 5000 0
DWIDTH 5 0
BBX 5 10 0 -2
BITMAP
00
00
20
00
60
20
20
70
00
00
ENDCHAR

STARTCHAR 106
ENCODING 106
SWIDTH 5000 0
DWIDTH 5 0
BBX 5 10 0 -2
BITMAP
00
00
20
00
60
20
20
20
20
40
ENDCHAR

STARTCHAR 107
ENCODING 107
SWIDTH 5000 0
DWIDTH 5 0
BBX 5 10 0 -2
BITMAP
00
00
80
80
A0
C0
A0
90
00
00
ENDCHAR

STARTCHAR 108
ENCODING 108
SWIDTH 5000 0
DWIDTH 5 0
BBX 5 10 0 -2
BITMAP
00
00
60
20
20
20
20
70
00
00
ENDCHAR

STARTCHAR 109
ENCODING 109
SWIDTH 5000 0
DWIDTH 5 0
BBX 5 10 0 -2
BITMAP
00
00
00
00
F0
A8
A8
A8
00
00
ENDCHAR

STARTCHAR 110
ENCODING 110
SWIDTH 5000 0
DWIDTH 5 0
BBX 5 10 0 -2
BITMAP
00
00
00
00
A0
D0
90
90
00
00
ENDCHAR

STARTCHAR 111
ENCODING 111
SWIDTH 5000 0
DWIDTH 5 0
BBX 5 10 0 -2
BITMAP
00
00
00
00
60
90
90
60
00
00
ENDCHAR

STARTCHAR 112
ENCODING 112
SWIDTH 5000 0
DWIDTH 5 0
BBX 5 10 0 -2
BITMAP
00
00
00
00
E0
90
90
E0
80
80
ENDCHAR

STARTCHAR 113
ENCODING 113
SWIDTH 5000 0
DWIDTH 5 0
BBX 5 10 0 -2
BITMAP
00
00
00
00
70
90
90
70
10
10
ENDCHAR

STARTCHAR 114
ENCODING 114
SWIDTH 5000 0
DWIDTH 5 0
BBX 5 10 0 -2
BITMAP
00
00
00
00
A0
D0
80
80
00
00
ENDCHAR

STARTCHAR 115
ENCODING 115
SWIDTH 5000 0
DWIDTH 5 0
BBX 5 10 0 -2
BITMAP
00
00
00
00
70
E0
10
E0
00
00
ENDCHAR

STARTCHAR 116
ENCODING 116
SWIDTH 5000 0
DWIDTH 5 0
BBX 5 10 0 -2
BITMAP
00
00
20
20
70
20
20
10
00
00
ENDCHAR

STARTCHAR 117
ENCODING 117
SWIDTH 5000 0
DWIDTH 5 0
BBX 5 10 0 -2
BITMAP
00
00
00
00
90
90
B0
50
00
00
ENDCHAR

STARTCHAR 118
ENCODING 118
SWIDTH 5000 0
DWIDTH 5 0
BBX 5 10 0 -2
BITMAP
00
00
00
00
90
90
A0
40
00
00
ENDCHAR

STARTCHAR 119
ENCODING 119
SWIDTH 5000 0
DWIDTH 5 0
BBX 5 10 0 -2
BITMAP
00
00
00
00
A8
A8
A8
50
00
00
ENDCHAR

STARTCHAR 120
ENCODING 120
SWIDTH 5000 0
DWIDTH 5 0
BBX 5 10 0 -2
BITMAP
00
00
00
00
90
60
60
90
00
00
ENDCHAR

STARTCHAR 121
ENCODING 121
SWIDTH 5000 0
DWIDTH 5 0
BBX 5 10 0 -2
BITMAP
00
00
00
00
90
90
90
70
10
60
ENDCHAR

STARTCHAR 122
ENCODING 122
SWIDTH 5000 0
DWIDTH 5 0
BBX 5 10 0 -2
BITMAP
00
00
00
00
F0
20
40
F0
00
00
ENDCHAR

STARTCHAR 123
ENCODING 123
SWIDTH 5000 0
DWIDTH 5 0
BBX 5 10 0 -2
BITMAP
00
10
20
20
20
40
20
20
20
10
ENDCHAR

STARTCHAR 124
ENCODING 124
SWIDTH 5000 0
DWIDTH 5 0
BBX 5 10 0 -2
BITMAP
00
20
20
20
20
20
20
20
20
00
ENDCHAR

STARTCHAR 125
ENCODING 125
SWIDTH 5000 0
DWIDTH 5 0
BBX 5 10 0 -2
BITMAP
00
40
20
20
20
10
20
20
20
40
ENDCHAR

STARTCHAR 126
ENCODING 126
SWIDTH 5000 0
DWIDTH 5 0
BBX 5 10 0 -2
BITMAP
00
00
00
00
50
A0
00
00
00
00
ENDCHAR

STARTCHAR 127
ENCODING 127
SWIDTH 5000 0
DWIDTH 5 0
BBX 5 10 0 -2
BITMAP
00
00
00
00
00
00
00
00
00
00
ENDCHAR

STARTCHAR 128
ENCODING 128
SWIDTH 5000 0
DWIDTH 5 0
BBX 5 10 0 -2
BITMAP
00
00
00
00
00
00
00
00
00
00
ENDCHAR

STARTCHAR 129
ENCODING 129
SWIDTH 5000 0
DWIDTH 5 0
BBX 5 10 0 -2
BITMAP
00
00
00
00
00
00
00
00
00
00
ENDCHAR

STARTCHAR 130
ENCODING 130
SWIDTH 5000 0
DWIDTH 5 0
BBX 5 10 0 -2
BITMAP
00
00
00
00
00
00
40
40
80
00
ENDCHAR

STARTCHAR 131
ENCODING 131
SWIDTH 5000 0
DWIDTH 5 0
BBX 5 10 0 -2
BITMAP
00
10
20
20
70
20
20
20
20
40
ENDCHAR

STARTCHAR 132
ENCODING 132
SWIDTH 5000 0
DWIDTH 5 0
BBX 5 10 0 -2
BITMAP
00
00
00
00
00
00
50
50
A0
00
ENDCHAR

STARTCHAR 133
ENCODING 133
SWIDTH 5000 0
DWIDTH 5 0
BBX 5 10 0 -2
BITMAP
00
00
00
00
00
00
00
A8
00
00
ENDCHAR

STARTCHAR 134
ENCODING 134
SWIDTH 5000 0
DWIDTH 5 0
BBX 5 10 0 -2
BITMAP
00
00
20
70
20
20
20
00
00
00
ENDCHAR

STARTCHAR 135
ENCODING 135
SWIDTH 5000 0
DWIDTH 5 0
BBX 5 10 0 -2
BITMAP
00
00
20
70
20
70
20
00
00
00
ENDCHAR

STARTCHAR 136
ENCODING 136
SWIDTH 5000 0
DWIDTH 5 0
BBX 5 10 0 -2
BITMAP
00
20
50
00
00
00
00
00
00
00
ENDCHAR

STARTCHAR 137
ENCODING 137
SWIDTH 5000 0
DWIDTH 5 0
BBX 5 10 0 -2
BITMAP
00
00
78
D0
E0
70
F8
70
00
00
ENDCHAR

STARTCHAR 138
ENCODING 138
SWIDTH 5000 0
DWIDTH 5 0
BBX 5 10 0 -2
BITMAP
50
20
70
80
60
10
90
60
00
00
ENDCHAR

STARTCHAR 139
ENCODING 139
SWIDTH 5000 0
DWIDTH 5 0
BBX 5 10 0 -2
BITMAP
00
00
00
00
00
40
80
40
00
00
ENDCHAR

STARTCHAR 140
ENCODING 140
SWIDTH 5000 0
DWIDTH 5 0
BBX 5 10 0 -2
BITMAP
00
00
70
A0
B0
A0
A0
70
00
00
ENDCHAR

STARTCHAR 141
ENCODING 141
SWIDTH 5000 0
DWIDTH 5 0
BBX 5 10 0 -2
BITMAP
00
00
00
00
00
00
00
00
00
00
ENDCHAR

STARTCHAR 142
ENCODING 142
SWIDTH 5000 0
DWIDTH 5 0
BBX 5 10 0 -2
BITMAP
00
00
00
00
00
00
00
00
00
00
ENDCHAR

STARTCHAR 143
ENCODING 143
SWIDTH 5000 0
DWIDTH 5 0
BBX 5 10 0 -2
BITMAP
00
00
00
00
00
00
00
00
00
00
ENDCHAR

STARTCHAR 144
ENCODING 144
SWIDTH 5000 0
DWIDTH 5 0
BBX 5 10 0 -2
BITMAP
00
00
00
00
00
00
00
00
00
00
ENDCHAR

STARTCHAR 145
ENCODING 145
SWIDTH 5000 0
DWIDTH 5 0
BBX 5 10 0 -2
BITMAP
00
00
10
20
20
00
00
00
00
00
ENDCHAR

STARTCHAR 146
ENCODING 146
SWIDTH 5000 0
DWIDTH 5 0
BBX 5 10 0 -2
BITMAP
00
00
20
20
40
00
00
00
00
00
ENDCHAR

STARTCHAR 147
ENCODING 147
SWIDTH 5000 0
DWIDTH 5 0
BBX 5 10 0 -2
BITMAP
00
00
50
A0
A0
00
00
00
00
00
ENDCHAR

STARTCHAR 148
ENCODING 148
SWIDTH 5000 0
DWIDTH 5 0
BBX 5 10 0 -2
BITMAP
00
00
50
50
A0
00
00
00
00
00
ENDCHAR

STARTCHAR 149
ENCODING 149
SWIDTH 5000 0
DWIDTH 5 0
BBX 5 10 0 -2
BITMAP
00
00
00
60
F0
F0
60
00
00
00
ENDCHAR

STARTCHAR 150
ENCODING 150
SWIDTH 5000 0
DWIDTH 5 0
BBX 5 10 0 -2
BITMAP
00
00
00
00
00
60
00
00
00
00
ENDCHAR

STARTCHAR 151
ENCODING 151
SWIDTH 5000 0
DWIDTH 5 0
BBX 5 10 0 -2
BITMAP
00
00
00
00
00
F8
00
00
00
00
ENDCHAR

STARTCHAR 152
ENCODING 152
SWIDTH 5000 0
DWIDTH 5 0
BBX 5 10 0 -2
BITMAP
00
50
A0
00
00
00
00
00
00
00
ENDCHAR

STARTCHAR 153
ENCODING 153
SWIDTH 5000 0
DWIDTH 5 0
BBX 5 10 0 -2
BITMAP
00
00
F8
58
58
00
00
00
00
00
ENDCHAR

STARTCHAR 154
ENCODING 154
SWIDTH 5000 0
DWIDTH 5 0
BBX 5 10 0 -2
BITMAP
00
50
20
00
70
E0
10
E0
00
00
ENDCHAR

STARTCHAR 155
ENCODING 155
SWIDTH 5000 0
DWIDTH 5 0
BBX 5 10 0 -2
BITMAP
00
00
00
00
00
80
40
80
00
00
ENDCHAR

STARTCHAR 156
ENCODING 156
SWIDTH 5000 0
DWIDTH 5 0
BBX 5 10 0 -2
BITMAP
00
00
00
00
70
B0
A0
50
00
00
ENDCHAR

STARTCHAR 157
ENCODING 157
SWIDTH 5000 0
DWIDTH 5 0
BBX 5 10 0 -2
BITMAP
00
00
00
00
00
00
00
00
00
00
ENDCHAR

STARTCHAR 158
ENCODING 158
SWIDTH 5000 0
DWIDTH 5 0
BBX 5 10 0 -2
BITMAP
00
00
00
00
00
00
00
00
00
00
ENDCHAR

STARTCHAR 159
ENCODING 159
SWIDTH 5000 0
DWIDTH 5 0
BBX 5 10 0 -2
BITMAP
50
00
90
90
A0
40
40
40
00
00
ENDCHAR

STARTCHAR 160
ENCODING 160
SWIDTH 5000 0
DWIDTH 5 0
BBX 5 10 0 -2
BITMAP
00
00
00
00
00
00
00
00
00
00
ENDCHAR

STARTCHAR 161
ENCODING 161
SWIDTH 5000 0
DWIDTH 5 0
BBX 5 10 0 -2
BITMAP
00
00
20
00
20
20
20
20
00
00
ENDCHAR

STARTCHAR 162
ENCODING 162
SWIDTH 5000 0
DWIDTH 5 0
BBX 5 10 0 -2
BITMAP
00
00
00
20
60
B0
C0
70
40
00
ENDCHAR

STARTCHAR 163
ENCODING 163
SWIDTH 5000 0
DWIDTH 5 0
BBX 5 10 0 -2
BITMAP
00
00
60
80
C0
80
90
E0
00
00
ENDCHAR

STARTCHAR 164
ENCODING 164
SWIDTH 5000 0
DWIDTH 5 0
BBX 5 10 0 -2
BITMAP
00
00
00
00
90
60
60
90
00
00
ENDCHAR

STARTCHAR 165
ENCODING 165
SWIDTH 5000 0
DWIDTH 5 0
BBX 5 10 0 -2
BITMAP
00
00
50
20
70
20
70
20
00
00
ENDCHAR

STARTCHAR 166
ENCODING 166
SWIDTH 5000 0
DWIDTH 5 0
BBX 5 10 0 -2
BITMAP
00
20
20
20
00
00
20
20
20
00
ENDCHAR

STARTCHAR 167
ENCODING 167
SWIDTH 5000 0
DWIDTH 5 0
BBX 5 10 0 -2
BITMAP
00
60
90
40
A0
50
20
90
60
00
ENDCHAR

STARTCHAR 168
ENCODING 168
SWIDTH 5000 0
DWIDTH 5 0
BBX 5 10 0 -2
BITMAP
00
00
60
00
00
00
00
00
00
00
ENDCHAR

STARTCHAR 169
ENCODING 169
SWIDTH 5000 0
DWIDTH 5 0
BBX 5 10 0 -2
BITMAP
00
00
C0
20
D0
D0
20
C0
00
00
ENDCHAR

STARTCHAR 170
ENCODING 170
SWIDTH 5000 0
DWIDTH 5 0
BBX 5 10 0 -2
BITMAP
00
30
50
30
00
70
00
00
00
00
ENDCHAR

STARTCHAR 171
ENCODING 171
SWIDTH 5000 0
DWIDTH 5 0
BBX 5 10 0 -2
BITMAP
00
00
00
00
00
48
90
48
00
00
ENDCHAR

STARTCHAR 172
ENCODING 172
SWIDTH 5000 0
DWIDTH 5 0
BBX 5 10 0 -2
BITMAP
00
00
00
00
00
F0
10
00
00
00
ENDCHAR

STARTCHAR 173
ENCODING 173
SWIDTH 5000 0
DWIDTH 5 0
BBX 5 10 0 -2
BITMAP
00
00
00
00
00
E0
00
00
00
00
ENDCHAR

STARTCHAR 174
ENCODING 174
SWIDTH 5000 0
DWIDTH 5 0
BBX 5 10 0 -2
BITMAP
00
00
C0
20
D0
D0
B0
00
00
00
ENDCHAR

STARTCHAR 175
ENCODING 175
SWIDTH 5000 0
DWIDTH 5 0
BBX 5 10 0 -2
BITMAP
00
00
60
00
00
00
00
00
00
00
ENDCHAR

STARTCHAR 176
ENCODING 176
SWIDTH 5000 0
DWIDTH 5 0
BBX 5 10 0 -2
BITMAP
00
00
20
50
20
00
00
00
00
00
ENDCHAR

STARTCHAR 177
ENCODING 177
SWIDTH 5000 0
DWIDTH 5 0
BBX 5 10 0 -2
BITMAP
00
00
00
00
40
E0
40
E0
00
00
ENDCHAR

STARTCHAR 178
ENCODING 178
SWIDTH 5000 0
DWIDTH 5 0
BBX 5 10 0 -2
BITMAP
00
40
20
60
00
00
00
00
00
00
ENDCHAR

STARTCHAR 179
ENCODING 179
SWIDTH 5000 0
DWIDTH 5 0
BBX 5 10 0 -2
BITMAP
00
60
20
60
00
00
00
00
00
00
ENDCHAR

STARTCHAR 180
ENCODING 180
SWIDTH 5000 0
DWIDTH 5 0
BBX 5 10 0 -2
BITMAP
00
00
30
00
00
00
00
00
00
00
ENDCHAR

STARTCHAR 181
ENCODING 181
SWIDTH 5000 0
DWIDTH 5 0
BBX 5 10 0 -2
BITMAP
00
00
00
00
A0
A0
A0
D0
80
00
ENDCHAR

STARTCHAR 182
ENCODING 182
SWIDTH 5000 0
DWIDTH 5 0
BBX 5 10 0 -2
BITMAP
00
00
70
B0
B0
70
30
30
00
00
ENDCHAR

STARTCHAR 183
ENCODING 183
SWIDTH 5000 0
DWIDTH 5 0
BBX 5 10 0 -2
BITMAP
00
00
00
00
00
20
00
00
00
00
ENDCHAR

STARTCHAR 184
ENCODING 184
SWIDTH 5000 0
DWIDTH 5 0
BBX 5 10 0 -2
BITMAP
00
00
00
00
00
00
00
00
60
60
ENDCHAR

STARTCHAR 185
ENCODING 185
SWIDTH 5000 0
DWIDTH 5 0
BBX 5 10 0 -2
BITMAP
00
60
20
20
00
00
00
00
00
00
ENDCHAR

STARTCHAR 186
ENCODING 186
SWIDTH 5000 0
DWIDTH 5 0
BBX 5 10 0 -2
BITMAP
00
20
50
20
00
70
00
00
00
00
ENDCHAR

STARTCHAR 187
ENCODING 187
SWIDTH 5000 0
DWIDTH 5 0
BBX 5 10 0 -2
BITMAP
00
00
00
00
00
90
48
90
00
00
ENDCHAR

STARTCHAR 188
ENCODING 188
SWIDTH 5000 0
DWIDTH 5 0
BBX 5 10 0 -2
BITMAP
00
C0
48
50
20
48
98
08
00
00
ENDCHAR

STARTCHAR 189
ENCODING 189
SWIDTH 5000 0
DWIDTH 5 0
BBX 5 10 0 -2
BITMAP
00
C0
48
50
20
50
88
18
00
00
ENDCHAR

STARTCHAR 190
ENCODING 190
SWIDTH 5000 0
DWIDTH 5 0
BBX 5 10 0 -2
BITMAP
00
C0
48
D0
20
48
98
08
00
00
ENDCHAR

STARTCHAR 191
ENCODING 191
SWIDTH 5000 0
DWIDTH 5 0
BBX 5 10 0 -2
BITMAP
00
00
20
00
20
40
90
60
00
00
ENDCHAR

STARTCHAR 192
ENCODING 192
SWIDTH 5000 0
DWIDTH 5 0
BBX 5 10 0 -2
BITMAP
40
20
60
90
90
F0
90
90
00
00
ENDCHAR

STARTCHAR 193
ENCODING 193
SWIDTH 5000 0
DWIDTH 5 0
BBX 5 10 0 -2
BITMAP
20
40
60
90
90
F0
90
90
00
00
ENDCHAR

STARTCHAR 194
ENCODING 194
SWIDTH 5000 0
DWIDTH 5 0
BBX 5 10 0 -2
BITMAP
20
50
00
60
90
F0
90
90
00
00
ENDCHAR

STARTCHAR 195
ENCODING 195
SWIDTH 5000 0
DWIDTH 5 0
BBX 5 10 0 -2
BITMAP
50
A0
00
60
90
F0
90
90
00
00
ENDCHAR

STARTCHAR 196
ENCODING 196
SWIDTH 5000 0
DWIDTH 5 0
BBX 5 10 0 -2
BITMAP
50
00
60
90
90
F0
90
90
00
00
ENDCHAR

STARTCHAR 197
ENCODING 197
SWIDTH 5000 0
DWIDTH 5 0
BBX 5 10 0 -2
BITMAP
20
50
20
60
90
F0
90
90
00
00
ENDCHAR

STARTCHAR 198
ENCODING 198
SWIDTH 5000 0
DWIDTH 5 0
BBX 5 10 0 -2
BITMAP
00
00
70
A0
F0
A0
A0
B0
00
00
ENDCHAR

STARTCHAR 199
ENCODING 199
SWIDTH 5000 0
DWIDTH 5 0
BBX 5 10 0 -2
BITMAP
00
00
60
90
80
80
90
60
20
40
ENDCHAR

STARTCHAR 200
ENCODING 200
SWIDTH 5000 0
DWIDTH 5 0
BBX 5 10 0 -2
BITMAP
40
20
F0
80
E0
80
80
F0
00
00
ENDCHAR

STARTCHAR 201
ENCODING 201
SWIDTH 5000 0
DWIDTH 5 0
BBX 5 10 0 -2
BITMAP
20
40
F0
80
E0
80
80
F0
00
00
ENDCHAR

STARTCHAR 202
ENCODING 202
SWIDTH 5000 0
DWIDTH 5 0
BBX 5 10 0 -2
BITMAP
20
50
F0
80
E0
80
80
F0
00
00
ENDCHAR

STARTCHAR 203
ENCODING 203
SWIDTH 5000 0
DWIDTH 5 0
BBX 5 10 0 -2
BITMAP
50
00
F0
80
E0
80
80
F0
00
00
ENDCHAR

STARTCHAR 204
ENCODING 204
SWIDTH 5000 0
DWIDTH 5 0
BBX 5 10 0 -2
BITMAP
40
20
70
20
20
20
20
70
00
00
ENDCHAR

STARTCHAR 205
ENCODING 205
SWIDTH 5000 0
DWIDTH 5 0
BBX 5 10 0 -2
BITMAP
10
20
70
20
20
20
20
70
00
00
ENDCHAR

STARTCHAR 206
ENCODING 206
SWIDTH 5000 0
DWIDTH 5 0
BBX 5 10 0 -2
BITMAP
20
50
00
70
20
20
20
70
00
00
ENDCHAR

STARTCHAR 207
ENCODING 207
SWIDTH 5000 0
DWIDTH 5 0
BBX 5 10 0 -2
BITMAP
50
00
70
20
20
20
20
70
00
00
ENDCHAR

STARTCHAR 208
ENCODING 208
SWIDTH 5000 0
DWIDTH 5 0
BBX 5 10 0 -2
BITMAP
00
00
60
50
D0
50
50
60
00
00
ENDCHAR

STARTCHAR 209
ENCODING 209
SWIDTH 5000 0
DWIDTH 5 0
BBX 5 10 0 -2
BITMAP
50
A0
90
D0
B0
90
90
90
00
00
ENDCHAR

STARTCHAR 210
ENCODING 210
SWIDTH 5000 0
DWIDTH 5 0
BBX 5 10 0 -2
BITMAP
40
20
60
90
90
90
90
60
00
00
ENDCHAR

STARTCHAR 211
ENCODING 211
SWIDTH 5000 0
DWIDTH 5 0
BBX 5 10 0 -2
BITMAP
20
40
60
90
90
90
90
60
00
00
ENDCHAR

STARTCHAR 212
ENCODING 212
SWIDTH 5000 0
DWIDTH 5 0
BBX 5 10 0 -2
BITMAP
20
50
00
60
90
90
90
60
00
00
ENDCHAR

STARTCHAR 213
ENCODING 213
SWIDTH 5000 0
DWIDTH 5 0
BBX 5 10 0 -2
BITMAP
50
A0
00
60
90
90
90
60
00
00
ENDCHAR

STARTCHAR 214
ENCODING 214
SWIDTH 5000 0
DWIDTH 5 0
BBX 5 10 0 -2
BITMAP
50
00
60
90
90
90
90
60
00
00
ENDCHAR

STARTCHAR 215
ENCODING 215
SWIDTH 5000 0
DWIDTH 5 0
BBX 5 10 0 -2
BITMAP
00
00
00
00
A0
40
A0
00
00
00
ENDCHAR

STARTCHAR 216
ENCODING 216
SWIDTH 5000 0
DWIDTH 5 0
BBX 5 10 0 -2
BITMAP
00
00
60
90
B0
D0
90
60
00
00
ENDCHAR

STARTCHAR 217
ENCODING 217
SWIDTH 5000 0
DWIDTH 5 0
BBX 5 10 0 -2
BITMAP
40
20
90
90
90
90
90
60
00
00
ENDCHAR

STARTCHAR 218
ENCODING 218
SWIDTH 5000 0
DWIDTH 5 0
BBX 5 10 0 -2
BITMAP
20
40
90
90
90
90
90
60
00
00
ENDCHAR

STARTCHAR 219
ENCODING 219
SWIDTH 5000 0
DWIDTH 5 0
BBX 5 10 0 -2
BITMAP
20
50
00
90
90
90
90
60
00
00
ENDCHAR

STARTCHAR 220
ENCODING 220
SWIDTH 5000 0
DWIDTH 5 0
BBX 5 10 0 -2
BITMAP
50
00
90
90
90
90
90
60
00
00
ENDCHAR

STARTCHAR 221
ENCODING 221
SWIDTH 5000 0
DWIDTH 5 0
BBX 5 10 0 -2
BITMAP
20
40
00
90
90
A0
40
40
00
00
ENDCHAR

STARTCHAR 222
ENCODING 222
SWIDTH 5000 0
DWIDTH 5 0
BBX 5 10 0 -2
BITMAP
00
00
80
E0
90
E0
80
80
00
00
ENDCHAR

STARTCHAR 223
ENCODING 223
SWIDTH 5000 0
DWIDTH 5 0
BBX 5 10 0 -2
BITMAP
00
00
60
90
A0
A0
90
A0
80
00
ENDCHAR

STARTCHAR 224
ENCODING 224
SWIDTH 5000 0
DWIDTH 5 0
BBX 5 10 0 -2
BITMAP
00
40
20
00
70
90
B0
50
00
00
ENDCHAR

STARTCHAR 225
ENCODING 225
SWIDTH 5000 0
DWIDTH 5 0
BBX 5 10 0 -2
BITMAP
00
20
40
00
70
90
B0
50
00
00
ENDCHAR

STARTCHAR 226
ENCODING 226
SWIDTH 5000 0
DWIDTH 5 0
BBX 5 10 0 -2
BITMAP
00
20
50
00
70
90
B0
50
00
00
ENDCHAR

STARTCHAR 227
ENCODING 227
SWIDTH 5000 0
DWIDTH 5 0
BBX 5 10 0 -2
BITMAP
00
50
A0
00
70
90
B0
50
00
00
ENDCHAR

STARTCHAR 228
ENCODING 228
SWIDTH 5000 0
DWIDTH 5 0
BBX 5 10 0 -2
BITMAP
00
00
50
00
70
90
B0
50
00
00
ENDCHAR

STARTCHAR 229
ENCODING 229
SWIDTH 5000 0
DWIDTH 5 0
BBX 5 10 0 -2
BITMAP
00
20
50
20
70
90
B0
50
00
00
ENDCHAR

STARTCHAR 230
ENCODING 230
SWIDTH 5000 0
DWIDTH 5 0
BBX 5 10 0 -2
BITMAP
00
00
00
00
70
B0
A0
70
00
00
ENDCHAR

STARTCHAR 231
ENCODING 231
SWIDTH 5000 0
DWIDTH 5 0
BBX 5 10 0 -2
BITMAP
00
00
00
00
60
90
80
70
20
40
ENDCHAR

STARTCHAR 232
ENCODING 232
SWIDTH 5000 0
DWIDTH 5 0
BBX 5 10 0 -2
BITMAP
00
40
20
00
60
F0
80
70
00
00
ENDCHAR

STARTCHAR 233
ENCODING 233
SWIDTH 5000 0
DWIDTH 5 0
BBX 5 10 0 -2
BITMAP
00
20
40
00
60
F0
80
70
00
00
ENDCHAR

STARTCHAR 234
ENCODING 234
SWIDTH 5000 0
DWIDTH 5 0
BBX 5 10 0 -2
BITMAP
00
20
50
00
60
F0
80
70
00
00
ENDCHAR

STARTCHAR 235
ENCODING 235
SWIDTH 5000 0
DWIDTH 5 0
BBX 5 10 0 -2
BITMAP
00
00
50
00
60
F0
80
70
00
00
ENDCHAR

STARTCHAR 236
ENCODING 236
SWIDTH 5000 0
DWIDTH 5 0
BBX 5 10 0 -2
BITMAP
00
40
20
00
60
20
20
70
00
00
ENDCHAR

STARTCHAR 237
ENCODING 237
SWIDTH 5000 0
DWIDTH 5 0
BBX 5 10 0 -2
BITMAP
00
20
40
00
60
20
20
70
00
00
ENDCHAR

STARTCHAR 238
ENCODING 238
SWIDTH 5000 0
DWIDTH 5 0
BBX 5 10 0 -2
BITMAP
00
20
50
00
60
20
20
70
00
00
ENDCHAR

STARTCHAR 239
ENCODING 239
SWIDTH 5000 0
DWIDTH 5 0
BBX 5 10 0 -2
BITMAP
00
00
50
00
60
20
20
70
00
00
ENDCHAR

STARTCHAR 240
ENCODING 240
SWIDTH 5000 0
DWIDTH 5 0
BBX 5 10 0 -2
BITMAP
00
C0
C0
20
70
90
90
60
00
00
ENDCHAR

STARTCHAR 241
ENCODING 241
SWIDTH 5000 0
DWIDTH 5 0
BBX 5 10 0 -2
BITMAP
00
50
A0
00
A0
D0
90
90
00
00
ENDCHAR

STARTCHAR 242
ENCODING 242
SWIDTH 5000 0
DWIDTH 5 0
BBX 5 10 0 -2
BITMAP
00
40
20
00
60
90
90
60
00
00
ENDCHAR

STARTCHAR 243
ENCODING 243
SWIDTH 5000 0
DWIDTH 5 0
BBX 5 10 0 -2
BITMAP
00
20
40
00
60
90
90
60
00
00
ENDCHAR

STARTCHAR 244
ENCODING 244
SWIDTH 5000 0
DWIDTH 5 0
BBX 5 10 0 -2
BITMAP
00
20
50
00
60
90
90
60
00
00
ENDCHAR

STARTCHAR 245
ENCODING 245
SWIDTH 5000 0
DWIDTH 5 0
BBX 5 10 0 -2
BITMAP
00
50
A0
00
60
90
90
60
00
00
ENDCHAR

STARTCHAR 246
ENCODING 246
SWIDTH 5000 0
DWIDTH 5 0
BBX 5 10 0 -2
BITMAP
00
00
50
00
60
90
90
60
00
00
ENDCHAR

STARTCHAR 247
ENCODING 247
SWIDTH 5000 0
DWIDTH 5 0
BBX 5 10 0 -2
BITMAP
00
00
00
40
00
E0
00
40
00
00
ENDCHAR

STARTCHAR 248
ENCODING 248
SWIDTH 5000 0
DWIDTH 5 0
BBX 5 10 0 -2
BITMAP
00
00
00
00
60
B0
D0
60
00
00
ENDCHAR

STARTCHAR 249
ENCODING 249
SWIDTH 5000 0
DWIDTH 5 0
BBX 5 10 0 -2
BITMAP
00
40
20
00
90
90
B0
50
00
00
ENDCHAR

STARTCHAR 250
ENCODING 250
SWIDTH 5000 0
DWIDTH 5 0
BBX 5 10 0 -2
BITMAP
00
20
40
00
90
90
B0
50
00
00
ENDCHAR

STARTCHAR 251
ENCODING 251
SWIDTH 5000 0
DWIDTH 5 0
BBX 5 10 0 -2
BITMAP
00
20
50
00
90
90
B0
50
00
00
ENDCHAR

STARTCHAR 252
ENCODING 252
SWIDTH 5000 0
DWIDTH 5 0
BBX 5 10 0 -2
BITMAP
00
00
50
00
90
90
B0
50
00
00
ENDCHAR

STARTCHAR 253
ENCODING 253
SWIDTH 5000 0
DWIDTH 5 0
BBX 5 10 0 -2
BITMAP
00
10
20
00
90
90
90
70
10
60
ENDCHAR

STARTCHAR 254
ENCODING 254
SWIDTH 5000 0
DWIDTH 5 0
BBX 5 10 0 -2
BITMAP
00
00
80
80
E0
90
90
E0
80
80
ENDCHAR

STARTCHAR 255
ENCODING 255
SWIDTH 5000 0
DWIDTH 5 0
BBX 5 10 0 -2
BITMAP
00
00
50
00
90
90
90
70
10
60
ENDCHAR

ENDFONT
