STARTFONT 2.1
FONT -nil-ProFont-medium-r-normal--15-150-72-72-c-70-ISO10646-1
SIZE -1 72 72
FONTBOUNDINGBOX 7 15 0 -3

STARTPROPERTIES 15
CAP_HEIGHT 12
POINT_SIZE 150
WEIGHT 10
RESOLUTION_X 72
RESOLUTION_Y 72
X_HEIGHT 6
QUAD_WIDTH 7
FAMILY_NAME "ProFont"
WEIGHT_NAME "Medium"
SLANT "R"
CHARSET_REGISTRY "ISO10646"
CHARSET_ENCODING "1"
DEFAULT_CHAR -256
FONT_DESCENT 3
FONT_ASCENT 12
ENDPROPERTIES

CHARS 256

STARTCHAR 0
ENCODING 0
SWIDTH 7000 0
DWIDTH 7 0
BBX 7 15 0 -3
BITMAP
00
00
00
00
00
00
00
00
00
00
00
00
00
00
00
ENDCHAR

STARTCHAR 1
ENCODING 1
SWIDTH 7000 0
DWIDTH 7 0
BBX 7 15 0 -3
BITMAP
00
00
00
00
00
00
00
00
00
00
00
00
00
00
00
ENDCHAR

STARTCHAR 2
ENCODING 2
SWIDTH 7000 0
DWIDTH 7 0
BBX 7 15 0 -3
BITMAP
00
00
00
00
00
00
00
00
00
00
00
00
00
00
00
ENDCHAR

STARTCHAR 3
ENCODING 3
SWIDTH 7000 0
DWIDTH 7 0
BBX 7 15 0 -3
BITMAP
00
00
00
00
00
00
00
00
00
00
00
00
00
00
00
ENDCHAR

STARTCHAR 4
ENCODING 4
SWIDTH 7000 0
DWIDTH 7 0
BBX 7 15 0 -3
BITMAP
00
00
00
00
00
00
00
00
00
00
00
00
00
00
00
ENDCHAR

STARTCHAR 5
ENCODING 5
SWIDTH 7000 0
DWIDTH 7 0
BBX 7 15 0 -3
BITMAP
00
00
00
00
00
00
00
00
00
00
00
00
00
00
00
ENDCHAR

STARTCHAR 6
ENCODING 6
SWIDTH 7000 0
DWIDTH 7 0
BBX 7 15 0 -3
BITMAP
00
00
00
00
00
00
00
00
00
00
00
00
00
00
00
ENDCHAR

STARTCHAR 7
ENCODING 7
SWIDTH 7000 0
DWIDTH 7 0
BBX 7 15 0 -3
BITMAP
00
00
00
00
00
00
00
00
00
00
00
00
00
00
00
ENDCHAR

STARTCHAR 8
ENCODING 8
SWIDTH 7000 0
DWIDTH 7 0
BBX 7 15 0 -3
BITMAP
00
00
00
00
00
00
00
00
00
00
00
00
00
00
00
ENDCHAR

STARTCHAR 9
ENCODING 9
SWIDTH 7000 0
DWIDTH 7 0
BBX 7 15 0 -3
BITMAP
00
00
00
00
00
00
00
00
00
00
00
00
00
00
00
ENDCHAR

STARTCHAR 10
ENCODING 10
SWIDTH 7000 0
DWIDTH 7 0
BBX 7 15 0 -3
BITMAP
00
00
00
00
00
00
00
00
00
00
00
00
00
00
00
ENDCHAR

STARTCHAR 11
ENCODING 11
SWIDTH 7000 0
DWIDTH 7 0
BBX 7 15 0 -3
BITMAP
00
00
00
00
00
00
00
00
00
00
00
00
00
00
00
ENDCHAR

STARTCHAR 12
ENCODING 12
SWIDTH 7000 0
DWIDTH 7 0
BBX 7 15 0 -3
BITMAP
00
00
00
00
00
00
00
00
00
00
00
00
00
00
00
ENDCHAR

STARTCHAR 13
ENCODING 13
SWIDTH 7000 0
DWIDTH 7 0
BBX 7 15 0 -3
BITMAP
00
00
00
00
00
00
00
00
00
00
00
00
00
00
00
ENDCHAR

STARTCHAR 14
ENCODING 14
SWIDTH 7000 0
DWIDTH 7 0
BBX 7 15 0 -3
BITMAP
00
00
00
00
00
00
00
00
00
00
00
00
00
00
00
ENDCHAR

STARTCHAR 15
ENCODING 15
SWIDTH 7000 0
DWIDTH 7 0
BBX 7 15 0 -3
BITMAP
00
00
00
00
00
00
00
00
00
00
00
00
00
00
00
ENDCHAR

STARTCHAR 16
ENCODING 16
SWIDTH 7000 0
DWIDTH 7 0
BBX 7 15 0 -3
BITMAP
00
00
00
00
00
00
00
00
00
00
00
00
00
00
00
ENDCHAR

STARTCHAR 17
ENCODING 17
SWIDTH 7000 0
DWIDTH 7 0
BBX 7 15 0 -3
BITMAP
00
00
00
00
00
00
00
00
00
00
00
00
00
00
00
ENDCHAR

STARTCHAR 18
ENCODING 18
SWIDTH 7000 0
DWIDTH 7 0
BBX 7 15 0 -3
BITMAP
00
00
00
00
00
00
00
00
00
00
00
00
00
00
00
ENDCHAR

STARTCHAR 19
ENCODING 19
SWIDTH 7000 0
DWIDTH 7 0
BBX 7 15 0 -3
BITMAP
00
00
00
00
00
00
00
00
00
00
00
00
00
00
00
ENDCHAR

STARTCHAR 20
ENCODING 20
SWIDTH 7000 0
DWIDTH 7 0
BBX 7 15 0 -3
BITMAP
00
00
00
00
00
00
00
00
00
00
00
00
00
00
00
ENDCHAR

STARTCHAR 21
ENCODING 21
SWIDTH 7000 0
DWIDTH 7 0
BBX 7 15 0 -3
BITMAP
00
00
00
00
00
00
00
00
00
00
00
00
00
00
00
ENDCHAR

STARTCHAR 22
ENCODING 22
SWIDTH 7000 0
DWIDTH 7 0
BBX 7 15 0 -3
BITMAP
00
00
00
00
00
00
00
00
00
00
00
00
00
00
00
ENDCHAR

STARTCHAR 23
ENCODING 23
SWIDTH 7000 0
DWIDTH 7 0
BBX 7 15 0 -3
BITMAP
00
00
00
00
00
00
00
00
00
00
00
00
00
00
00
ENDCHAR

STARTCHAR 24
ENCODING 24
SWIDTH 7000 0
DWIDTH 7 0
BBX 7 15 0 -3
BITMAP
00
00
00
00
00
00
00
00
00
00
00
00
00
00
00
ENDCHAR

STARTCHAR 25
ENCODING 25
SWIDTH 7000 0
DWIDTH 7 0
BBX 7 15 0 -3
BITMAP
00
00
00
00
00
00
00
00
00
00
00
00
00
00
00
ENDCHAR

STARTCHAR 26
ENCODING 26
SWIDTH 7000 0
DWIDTH 7 0
BBX 7 15 0 -3
BITMAP
00
00
00
00
00
00
00
00
00
00
00
00
00
00
00
ENDCHAR

STARTCHAR 27
ENCODING 27
SWIDTH 7000 0
DWIDTH 7 0
BBX 7 15 0 -3
BITMAP
00
00
00
00
00
00
00
00
00
00
00
00
00
00
00
ENDCHAR

STARTCHAR 28
ENCODING 28
SWIDTH 7000 0
DWIDTH 7 0
BBX 7 15 0 -3
BITMAP
00
00
00
00
00
00
00
00
00
00
00
00
00
00
00
ENDCHAR

STARTCHAR 29
ENCODING 29
SWIDTH 7000 0
DWIDTH 7 0
BBX 7 15 0 -3
BITMAP
00
00
00
00
00
00
00
00
00
00
00
00
00
00
00
ENDCHAR

STARTCHAR 30
ENCODING 30
SWIDTH 7000 0
DWIDTH 7 0
BBX 7 15 0 -3
BITMAP
00
00
00
00
00
00
00
00
00
00
00
00
00
00
00
ENDCHAR

STARTCHAR 31
ENCODING 31
SWIDTH 7000 0
DWIDTH 7 0
BBX 7 15 0 -3
BITMAP
00
00
00
00
00
00
00
00
00
00
00
00
00
00
00
ENDCHAR

STARTCHAR 32
ENCODING 32
SWIDTH 7000 0
DWIDTH 7 0
BBX 7 15 0 -3
BITMAP
00
00
00
00
00
00
00
00
00
00
00
00
00
00
00
ENDCHAR

STARTCHAR 33
ENCODING 33
SWIDTH 7000 0
DWIDTH 7 0
BBX 7 15 0 -3
BITMAP
00
00
00
10
10
10
10
10
10
10
00
10
00
00
00
ENDCHAR

STARTCHAR 34
ENCODING 34
SWIDTH 7000 0
DWIDTH 7 0
BBX 7 15 0 -3
BITMAP
00
48
48
48
48
00
00
00
00
00
00
00
00
00
00
ENDCHAR

STARTCHAR 35
ENCODING 35
SWIDTH 7000 0
DWIDTH 7 0
BBX 7 15 0 -3
BITMAP
00
00
00
48
FC
48
48
FC
48
00
00
00
00
00
00
ENDCHAR

STARTCHAR 36
ENCODING 36
SWIDTH 7000 0
DWIDTH 7 0
BBX 7 15 0 -3
BITMAP
00
20
20
70
A8
A0
A0
70
28
28
A8
70
20
20
00
ENDCHAR

STARTCHAR 37
ENCODING 37
SWIDTH 7000 0
DWIDTH 7 0
BBX 7 15 0 -3
BITMAP
00
00
00
7E
A2
A4
A8
54
2A
4A
8A
84
00
00
00
ENDCHAR

STARTCHAR 38
ENCODING 38
SWIDTH 7000 0
DWIDTH 7 0
BBX 7 15 0 -3
BITMAP
00
00
00
70
88
90
A0
40
A0
94
88
74
00
00
00
ENDCHAR

STARTCHAR 39
ENCODING 39
SWIDTH 7000 0
DWIDTH 7 0
BBX 7 15 0 -3
BITMAP
00
10
10
10
10
00
00
00
00
00
00
00
00
00
00
ENDCHAR

STARTCHAR 40
ENCODING 40
SWIDTH 7000 0
DWIDTH 7 0
BBX 7 15 0 -3
BITMAP
00
08
10
20
40
40
40
40
40
40
40
20
10
08
00
ENDCHAR

STARTCHAR 41
ENCODING 41
SWIDTH 7000 0
DWIDTH 7 0
BBX 7 15 0 -3
BITMAP
00
40
20
10
08
08
08
08
08
08
08
10
20
40
00
ENDCHAR

STARTCHAR 42
ENCODING 42
SWIDTH 7000 0
DWIDTH 7 0
BBX 7 15 0 -3
BITMAP
00
00
00
20
A8
70
70
A8
20
00
00
00
00
00
00
ENDCHAR

STARTCHAR 43
ENCODING 43
SWIDTH 7000 0
DWIDTH 7 0
BBX 7 15 0 -3
BITMAP
00
00
00
00
00
00
20
20
F8
20
20
00
00
00
00
ENDCHAR

STARTCHAR 44
ENCODING 44
SWIDTH 7000 0
DWIDTH 7 0
BBX 7 15 0 -3
BITMAP
00
00
00
00
00
00
00
00
00
00
30
30
10
20
40
ENDCHAR

STARTCHAR 45
ENCODING 45
SWIDTH 7000 0
DWIDTH 7 0
BBX 7 15 0 -3
BITMAP
00
00
00
00
00
00
00
00
78
00
00
00
00
00
00
ENDCHAR

STARTCHAR 46
ENCODING 46
SWIDTH 7000 0
DWIDTH 7 0
BBX 7 15 0 -3
BITMAP
00
00
00
00
00
00
00
00
00
00
30
30
00
00
00
ENDCHAR

STARTCHAR 47
ENCODING 47
SWIDTH 7000 0
DWIDTH 7 0
BBX 7 15 0 -3
BITMAP
00
00
04
04
08
08
10
10
20
20
40
40
80
80
00
ENDCHAR

STARTCHAR 48
ENCODING 48
SWIDTH 7000 0
DWIDTH 7 0
BBX 7 15 0 -3
BITMAP
00
00
00
78
84
8C
94
A4
C4
84
84
78
00
00
00
ENDCHAR

STARTCHAR 49
ENCODING 49
SWIDTH 7000 0
DWIDTH 7 0
BBX 7 15 0 -3
BITMAP
00
00
00
10
70
10
10
10
10
10
10
FE
00
00
00
ENDCHAR

STARTCHAR 50
ENCODING 50
SWIDTH 7000 0
DWIDTH 7 0
BBX 7 15 0 -3
BITMAP
00
00
00
78
84
04
04
08
10
20
40
FC
00
00
00
ENDCHAR

STARTCHAR 51
ENCODING 51
SWIDTH 7000 0
DWIDTH 7 0
BBX 7 15 0 -3
BITMAP
00
00
00
78
84
04
04
38
04
04
84
78
00
00
00
ENDCHAR

STARTCHAR 52
ENCODING 52
SWIDTH 7000 0
DWIDTH 7 0
BBX 7 15 0 -3
BITMAP
00
00
00
08
18
28
48
88
FC
08
08
1C
00
00
00
ENDCHAR

STARTCHAR 53
ENCODING 53
SWIDTH 7000 0
DWIDTH 7 0
BBX 7 15 0 -3
BITMAP
00
00
00
FC
80
80
F8
04
04
04
84
78
00
00
00
ENDCHAR

STARTCHAR 54
ENCODING 54
SWIDTH 7000 0
DWIDTH 7 0
BBX 7 15 0 -3
BITMAP
00
00
00
78
80
80
F8
84
84
84
84
78
00
00
00
ENDCHAR

STARTCHAR 55
ENCODING 55
SWIDTH 7000 0
DWIDTH 7 0
BBX 7 15 0 -3
BITMAP
00
00
00
FC
04
04
08
10
20
20
20
20
00
00
00
ENDCHAR

STARTCHAR 56
ENCODING 56
SWIDTH 7000 0
DWIDTH 7 0
BBX 7 15 0 -3
BITMAP
00
00
00
78
84
84
84
78
84
84
84
78
00
00
00
ENDCHAR

STARTCHAR 57
ENCODING 57
SWIDTH 7000 0
DWIDTH 7 0
BBX 7 15 0 -3
BITMAP
00
00
00
78
84
84
84
84
7C
04
04
78
00
00
00
ENDCHAR

STARTCHAR 58
ENCODING 58
SWIDTH 7000 0
DWIDTH 7 0
BBX 7 15 0 -3
BITMAP
00
00
00
00
00
30
30
00
00
00
30
30
00
00
00
ENDCHAR

STARTCHAR 59
ENCODING 59
SWIDTH 7000 0
DWIDTH 7 0
BBX 7 15 0 -3
BITMAP
00
00
00
00
00
30
30
00
00
00
30
30
10
20
40
ENDCHAR

STARTCHAR 60
ENCODING 60
SWIDTH 7000 0
DWIDTH 7 0
BBX 7 15 0 -3
BITMAP
00
00
00
04
08
10
20
40
20
10
08
04
00
00
00
ENDCHAR

STARTCHAR 61
ENCODING 61
SWIDTH 7000 0
DWIDTH 7 0
BBX 7 15 0 -3
BITMAP
00
00
00
00
00
FC
00
00
FC
00
00
00
00
00
00
ENDCHAR

STARTCHAR 62
ENCODING 62
SWIDTH 7000 0
DWIDTH 7 0
BBX 7 15 0 -3
BITMAP
00
00
00
40
20
10
08
04
08
10
20
40
00
00
00
ENDCHAR

STARTCHAR 63
ENCODING 63
SWIDTH 7000 0
DWIDTH 7 0
BBX 7 15 0 -3
BITMAP
00
00
00
78
84
04
04
08
10
20
00
20
00
00
00
ENDCHAR

STARTCHAR 64
ENCODING 64
SWIDTH 7000 0
DWIDTH 7 0
BBX 7 15 0 -3
BITMAP
00
00
00
78
84
9C
A4
A4
98
80
80
7C
00
00
00
ENDCHAR

STARTCHAR 65
ENCODING 65
SWIDTH 7000 0
DWIDTH 7 0
BBX 7 15 0 -3
BITMAP
00
00
00
30
30
48
48
84
FC
84
84
84
00
00
00
ENDCHAR

STARTCHAR 66
ENCODING 66
SWIDTH 7000 0
DWIDTH 7 0
BBX 7 15 0 -3
BITMAP
00
00
00
F8
84
84
84
F8
84
84
84
F8
00
00
00
ENDCHAR

STARTCHAR 67
ENCODING 67
SWIDTH 7000 0
DWIDTH 7 0
BBX 7 15 0 -3
BITMAP
00
00
00
78
84
80
80
80
80
80
84
78
00
00
00
ENDCHAR

STARTCHAR 68
ENCODING 68
SWIDTH 7000 0
DWIDTH 7 0
BBX 7 15 0 -3
BITMAP
00
00
00
F8
84
84
84
84
84
84
84
F8
00
00
00
ENDCHAR

STARTCHAR 69
ENCODING 69
SWIDTH 7000 0
DWIDTH 7 0
BBX 7 15 0 -3
BITMAP
00
00
00
FC
80
80
80
F8
80
80
80
FC
00
00
00
ENDCHAR

STARTCHAR 70
ENCODING 70
SWIDTH 7000 0
DWIDTH 7 0
BBX 7 15 0 -3
BITMAP
00
00
00
FC
80
80
80
F8
80
80
80
80
00
00
00
ENDCHAR

STARTCHAR 71
ENCODING 71
SWIDTH 7000 0
DWIDTH 7 0
BBX 7 15 0 -3
BITMAP
00
00
00
78
84
80
80
8C
84
84
84
78
00
00
00
ENDCHAR

STARTCHAR 72
ENCODING 72
SWIDTH 7000 0
DWIDTH 7 0
BBX 7 15 0 -3
BITMAP
00
00
00
84
84
84
84
FC
84
84
84
84
00
00
00
ENDCHAR

STARTCHAR 73
ENCODING 73
SWIDTH 7000 0
DWIDTH 7 0
BBX 7 15 0 -3
BITMAP
00
00
00
FE
10
10
10
10
10
10
10
FE
00
00
00
ENDCHAR

STARTCHAR 74
ENCODING 74
SWIDTH 7000 0
DWIDTH 7 0
BBX 7 15 0 -3
BITMAP
00
00
00
04
04
04
04
04
84
84
84
78
00
00
00
ENDCHAR

STARTCHAR 75
ENCODING 75
SWIDTH 7000 0
DWIDTH 7 0
BBX 7 15 0 -3
BITMAP
00
00
00
84
88
90
A0
C0
A0
90
88
84
00
00
00
ENDCHAR

STARTCHAR 76
ENCODING 76
SWIDTH 7000 0
DWIDTH 7 0
BBX 7 15 0 -3
BITMAP
00
00
00
80
80
80
80
80
80
80
80
FC
00
00
00
ENDCHAR

STARTCHAR 77
ENCODING 77
SWIDTH 7000 0
DWIDTH 7 0
BBX 7 15 0 -3
BITMAP
00
00
00
82
C6
AA
92
92
82
82
82
82
00
00
00
ENDCHAR

STARTCHAR 78
ENCODING 78
SWIDTH 7000 0
DWIDTH 7 0
BBX 7 15 0 -3
BITMAP
00
00
00
84
C4
A4
94
8C
84
84
84
84
00
00
00
ENDCHAR

STARTCHAR 79
ENCODING 79
SWIDTH 7000 0
DWIDTH 7 0
BBX 7 15 0 -3
BITMAP
00
00
00
78
84
84
84
84
84
84
84
78
00
00
00
ENDCHAR

STARTCHAR 80
ENCODING 80
SWIDTH 7000 0
DWIDTH 7 0
BBX 7 15 0 -3
BITMAP
00
00
00
F8
84
84
84
F8
80
80
80
80
00
00
00
ENDCHAR

STARTCHAR 81
ENCODING 81
SWIDTH 7000 0
DWIDTH 7 0
BBX 7 15 0 -3
BITMAP
00
00
00
78
84
84
84
84
84
A4
94
78
04
00
00
ENDCHAR

STARTCHAR 82
ENCODING 82
SWIDTH 7000 0
DWIDTH 7 0
BBX 7 15 0 -3
BITMAP
00
00
00
F8
84
84
84
F8
84
84
84
84
00
00
00
ENDCHAR

STARTCHAR 83
ENCODING 83
SWIDTH 7000 0
DWIDTH 7 0
BBX 7 15 0 -3
BITMAP
00
00
00
78
84
80
80
78
04
04
84
78
00
00
00
ENDCHAR

STARTCHAR 84
ENCODING 84
SWIDTH 7000 0
DWIDTH 7 0
BBX 7 15 0 -3
BITMAP
00
00
00
FE
10
10
10
10
10
10
10
10
00
00
00
ENDCHAR

STARTCHAR 85
ENCODING 85
SWIDTH 7000 0
DWIDTH 7 0
BBX 7 15 0 -3
BITMAP
00
00
00
84
84
84
84
84
84
84
84
78
00
00
00
ENDCHAR

STARTCHAR 86
ENCODING 86
SWIDTH 7000 0
DWIDTH 7 0
BBX 7 15 0 -3
BITMAP
00
00
00
82
82
82
44
44
28
28
10
10
00
00
00
ENDCHAR

STARTCHAR 87
ENCODING 87
SWIDTH 7000 0
DWIDTH 7 0
BBX 7 15 0 -3
BITMAP
00
00
00
82
82
82
82
92
92
AA
C6
82
00
00
00
ENDCHAR

STARTCHAR 88
ENCODING 88
SWIDTH 7000 0
DWIDTH 7 0
BBX 7 15 0 -3
BITMAP
00
00
00
84
84
84
48
30
30
48
84
84
00
00
00
ENDCHAR

STARTCHAR 89
ENCODING 89
SWIDTH 7000 0
DWIDTH 7 0
BBX 7 15 0 -3
BITMAP
00
00
00
82
82
82
44
28
10
10
10
10
00
00
00
ENDCHAR

STARTCHAR 90
ENCODING 90
SWIDTH 7000 0
DWIDTH 7 0
BBX 7 15 0 -3
BITMAP
00
00
00
FC
04
08
10
20
40
80
80
FC
00
00
00
ENDCHAR

STARTCHAR 91
ENCODING 91
SWIDTH 7000 0
DWIDTH 7 0
BBX 7 15 0 -3
BITMAP
00
38
20
20
20
20
20
20
20
20
20
20
38
00
00
ENDCHAR

STARTCHAR 92
ENCODING 92
SWIDTH 7000 0
DWIDTH 7 0
BBX 7 15 0 -3
BITMAP
00
00
40
40
20
20
10
10
08
08
04
04
02
02
00
ENDCHAR

STARTCHAR 93
ENCODING 93
SWIDTH 7000 0
DWIDTH 7 0
BBX 7 15 0 -3
BITMAP
00
70
10
10
10
10
10
10
10
10
10
10
70
00
00
ENDCHAR

STARTCHAR 94
ENCODING 94
SWIDTH 7000 0
DWIDTH 7 0
BBX 7 15 0 -3
BITMAP
00
00
00
10
28
44
00
00
00
00
00
00
00
00
00
ENDCHAR

STARTCHAR 95
ENCODING 95
SWIDTH 7000 0
DWIDTH 7 0
BBX 7 15 0 -3
BITMAP
00
00
00
00
00
00
00
00
00
00
00
00
00
FE
00
ENDCHAR

STARTCHAR 96
ENCODING 96
SWIDTH 7000 0
DWIDTH 7 0
BBX 7 15 0 -3
BITMAP
00
40
20
10
00
00
00
00
00
00
00
00
00
00
00
ENDCHAR

STARTCHAR 97
ENCODING 97
SWIDTH 7000 0
DWIDTH 7 0
BBX 7 15 0 -3
BITMAP
00
00
00
00
00
00
7C
84
84
8C
94
64
00
00
00
ENDCHAR

STARTCHAR 98
ENCODING 98
SWIDTH 7000 0
DWIDTH 7 0
BBX 7 15 0 -3
BITMAP
00
00
00
80
80
80
F8
84
84
84
84
F8
00
00
00
ENDCHAR

STARTCHAR 99
ENCODING 99
SWIDTH 7000 0
DWIDTH 7 0
BBX 7 15 0 -3
BITMAP
00
00
00
00
00
00
78
84
80
80
80
7C
00
00
00
ENDCHAR

STARTCHAR 100
ENCODING 100
SWIDTH 7000 0
DWIDTH 7 0
BBX 7 15 0 -3
BITMAP
00
00
00
04
04
04
7C
84
84
84
84
7C
00
00
00
ENDCHAR

STARTCHAR 101
ENCODING 101
SWIDTH 7000 0
DWIDTH 7 0
BBX 7 15 0 -3
BITMAP
00
00
00
00
00
00
78
84
FC
80
80
7C
00
00
00
ENDCHAR

STARTCHAR 102
ENCODING 102
SWIDTH 7000 0
DWIDTH 7 0
BBX 7 15 0 -3
BITMAP
00
00
00
18
20
20
70
20
20
20
20
20
00
00
00
ENDCHAR

STARTCHAR 103
ENCODING 103
SWIDTH 7000 0
DWIDTH 7 0
BBX 7 15 0 -3
BITMAP
00
00
00
00
00
00
7C
84
84
84
84
7C
04
04
78
ENDCHAR

STARTCHAR 104
ENCODING 104
SWIDTH 7000 0
DWIDTH 7 0
BBX 7 15 0 -3
BITMAP
00
00
00
80
80
80
F8
84
84
84
84
84
00
00
00
ENDCHAR

STARTCHAR 105
ENCODING 105
SWIDTH 7000 0
DWIDTH 7 0
BBX 7 15 0 -3
BITMAP
00
00
00
10
00
00
30
10
10
10
10
38
00
00
00
ENDCHAR

STARTCHAR 106
ENCODING 106
SWIDTH 7000 0
DWIDTH 7 0
BBX 7 15 0 -3
BITMAP
00
00
00
10
00
00
30
10
10
10
10
10
10
10
60
ENDCHAR

STARTCHAR 107
ENCODING 107
SWIDTH 7000 0
DWIDTH 7 0
BBX 7 15 0 -3
BITMAP
00
00
00
80
80
80
88
90
A0
D0
88
84
00
00
00
ENDCHAR

STARTCHAR 108
ENCODING 108
SWIDTH 7000 0
DWIDTH 7 0
BBX 7 15 0 -3
BITMAP
00
00
00
30
10
10
10
10
10
10
10
38
00
00
00
ENDCHAR

STARTCHAR 109
ENCODING 109
SWIDTH 7000 0
DWIDTH 7 0
BBX 7 15 0 -3
BITMAP
00
00
00
00
00
00
FC
92
92
92
92
92
00
00
00
ENDCHAR

STARTCHAR 110
ENCODING 110
SWIDTH 7000 0
DWIDTH 7 0
BBX 7 15 0 -3
BITMAP
00
00
00
00
00
00
98
A4
C4
84
84
84
00
00
00
ENDCHAR

STARTCHAR 111
ENCODING 111
SWIDTH 7000 0
DWIDTH 7 0
BBX 7 15 0 -3
BITMAP
00
00
00
00
00
00
78
84
84
84
84
78
00
00
00
ENDCHAR

STARTCHAR 112
ENCODING 112
SWIDTH 7000 0
DWIDTH 7 0
BBX 7 15 0 -3
BITMAP
00
00
00
00
00
00
F8
84
84
84
84
F8
80
80
80
ENDCHAR

STARTCHAR 113
ENCODING 113
SWIDTH 7000 0
DWIDTH 7 0
BBX 7 15 0 -3
BITMAP
00
00
00
00
00
00
7C
84
84
84
84
7C
04
04
04
ENDCHAR

STARTCHAR 114
ENCODING 114
SWIDTH 7000 0
DWIDTH 7 0
BBX 7 15 0 -3
BITMAP
00
00
00
00
00
00
98
A4
C0
80
80
80
00
00
00
ENDCHAR

STARTCHAR 115
ENCODING 115
SWIDTH 7000 0
DWIDTH 7 0
BBX 7 15 0 -3
BITMAP
00
00
00
00
00
00
7C
80
78
04
04
F8
00
00
00
ENDCHAR

STARTCHAR 116
ENCODING 116
SWIDTH 7000 0
DWIDTH 7 0
BBX 7 15 0 -3
BITMAP
00
00
00
20
20
20
70
20
20
20
20
18
00
00
00
ENDCHAR

STARTCHAR 117
ENCODING 117
SWIDTH 7000 0
DWIDTH 7 0
BBX 7 15 0 -3
BITMAP
00
00
00
00
00
00
84
84
84
8C
94
64
00
00
00
ENDCHAR

STARTCHAR 118
ENCODING 118
SWIDTH 7000 0
DWIDTH 7 0
BBX 7 15 0 -3
BITMAP
00
00
00
00
00
00
84
84
48
48
30
30
00
00
00
ENDCHAR

STARTCHAR 119
ENCODING 119
SWIDTH 7000 0
DWIDTH 7 0
BBX 7 15 0 -3
BITMAP
00
00
00
00
00
00
92
92
92
92
92
6C
00
00
00
ENDCHAR

STARTCHAR 120
ENCODING 120
SWIDTH 7000 0
DWIDTH 7 0
BBX 7 15 0 -3
BITMAP
00
00
00
00
00
00
84
48
30
30
48
84
00
00
00
ENDCHAR

STARTCHAR 121
ENCODING 121
SWIDTH 7000 0
DWIDTH 7 0
BBX 7 15 0 -3
BITMAP
00
00
00
00
00
00
84
84
84
84
84
7C
04
04
78
ENDCHAR

STARTCHAR 122
ENCODING 122
SWIDTH 7000 0
DWIDTH 7 0
BBX 7 15 0 -3
BITMAP
00
00
00
00
00
00
FC
08
10
20
40
FC
00
00
00
ENDCHAR

STARTCHAR 123
ENCODING 123
SWIDTH 7000 0
DWIDTH 7 0
BBX 7 15 0 -3
BITMAP
18
20
20
20
20
20
20
40
20
20
20
20
20
20
18
ENDCHAR

STARTCHAR 124
ENCODING 124
SWIDTH 7000 0
DWIDTH 7 0
BBX 7 15 0 -3
BITMAP
00
10
10
10
10
10
10
10
10
10
10
10
10
10
00
ENDCHAR

STARTCHAR 125
ENCODING 125
SWIDTH 7000 0
DWIDTH 7 0
BBX 7 15 0 -3
BITMAP
60
10
10
10
10
10
10
08
10
10
10
10
10
10
60
ENDCHAR

STARTCHAR 126
ENCODING 126
SWIDTH 7000 0
DWIDTH 7 0
BBX 7 15 0 -3
BITMAP
00
00
00
00
00
00
64
98
00
00
00
00
00
00
00
ENDCHAR

STARTCHAR 127
ENCODING 127
SWIDTH 7000 0
DWIDTH 7 0
BBX 7 15 0 -3
BITMAP
00
00
00
00
00
00
00
00
00
00
00
00
00
00
00
ENDCHAR

STARTCHAR 128
ENCODING 128
SWIDTH 7000 0
DWIDTH 7 0
BBX 7 15 0 -3
BITMAP
00
00
00
00
00
00
00
00
00
00
00
00
00
00
00
ENDCHAR

STARTCHAR 129
ENCODING 129
SWIDTH 7000 0
DWIDTH 7 0
BBX 7 15 0 -3
BITMAP
00
00
00
00
00
00
00
00
00
00
00
00
00
00
00
ENDCHAR

STARTCHAR 130
ENCODING 130
SWIDTH 7000 0
DWIDTH 7 0
BBX 7 15 0 -3
BITMAP
00
00
00
00
00
00
00
00
00
40
40
40
80
00
00
ENDCHAR

STARTCHAR 131
ENCODING 131
SWIDTH 7000 0
DWIDTH 7 0
BBX 7 15 0 -3
BITMAP
06
08
10
10
10
38
10
10
10
10
10
10
20
C0
00
ENDCHAR

STARTCHAR 132
ENCODING 132
SWIDTH 7000 0
DWIDTH 7 0
BBX 7 15 0 -3
BITMAP
00
00
00
00
00
00
00
00
00
48
48
48
90
00
00
ENDCHAR

STARTCHAR 133
ENCODING 133
SWIDTH 7000 0
DWIDTH 7 0
BBX 7 15 0 -3
BITMAP
00
00
00
00
00
00
00
00
00
00
00
92
00
00
00
ENDCHAR

STARTCHAR 134
ENCODING 134
SWIDTH 7000 0
DWIDTH 7 0
BBX 7 15 0 -3
BITMAP
00
00
00
10
38
10
10
10
10
00
00
00
00
00
00
ENDCHAR

STARTCHAR 135
ENCODING 135
SWIDTH 7000 0
DWIDTH 7 0
BBX 7 15 0 -3
BITMAP
00
00
00
10
38
10
10
38
10
00
00
00
00
00
00
ENDCHAR

STARTCHAR 136
ENCODING 136
SWIDTH 7000 0
DWIDTH 7 0
BBX 7 15 0 -3
BITMAP
00
10
28
44
00
00
00
00
00
00
00
00
00
00
00
ENDCHAR

STARTCHAR 137
ENCODING 137
SWIDTH 7000 0
DWIDTH 7 0
BBX 7 15 0 -3
BITMAP
00
00
7E
A4
A8
B0
60
54
AA
2A
2A
14
00
00
00
ENDCHAR

STARTCHAR 138
ENCODING 138
SWIDTH 7000 0
DWIDTH 7 0
BBX 7 15 0 -3
BITMAP
44
28
10
78
84
80
80
78
04
04
84
78
00
00
00
ENDCHAR

STARTCHAR 139
ENCODING 139
SWIDTH 7000 0
DWIDTH 7 0
BBX 7 15 0 -3
BITMAP
00
00
00
00
00
00
00
40
80
80
80
40
00
00
00
ENDCHAR

STARTCHAR 140
ENCODING 140
SWIDTH 7000 0
DWIDTH 7 0
BBX 7 15 0 -3
BITMAP
00
00
00
7C
90
90
90
98
90
90
90
7C
00
00
00
ENDCHAR

STARTCHAR 141
ENCODING 141
SWIDTH 7000 0
DWIDTH 7 0
BBX 7 15 0 -3
BITMAP
00
00
00
00
00
00
00
00
00
00
00
00
00
00
00
ENDCHAR

STARTCHAR 142
ENCODING 142
SWIDTH 7000 0
DWIDTH 7 0
BBX 7 15 0 -3
BITMAP
00
00
00
00
00
00
00
00
00
00
00
00
00
00
00
ENDCHAR

STARTCHAR 143
ENCODING 143
SWIDTH 7000 0
DWIDTH 7 0
BBX 7 15 0 -3
BITMAP
00
00
00
00
00
00
00
00
00
00
00
00
00
00
00
ENDCHAR

STARTCHAR 144
ENCODING 144
SWIDTH 7000 0
DWIDTH 7 0
BBX 7 15 0 -3
BITMAP
00
00
00
00
00
00
00
00
00
00
00
00
00
00
00
ENDCHAR

STARTCHAR 145
ENCODING 145
SWIDTH 7000 0
DWIDTH 7 0
BBX 7 15 0 -3
BITMAP
00
00
00
08
10
10
10
00
00
00
00
00
00
00
00
ENDCHAR

STARTCHAR 146
ENCODING 146
SWIDTH 7000 0
DWIDTH 7 0
BBX 7 15 0 -3
BITMAP
00
00
00
08
08
08
10
00
00
00
00
00
00
00
00
ENDCHAR

STARTCHAR 147
ENCODING 147
SWIDTH 7000 0
DWIDTH 7 0
BBX 7 15 0 -3
BITMAP
00
00
00
24
48
48
48
00
00
00
00
00
00
00
00
ENDCHAR

STARTCHAR 148
ENCODING 148
SWIDTH 7000 0
DWIDTH 7 0
BBX 7 15 0 -3
BITMAP
00
00
00
24
24
24
48
00
00
00
00
00
00
00
00
ENDCHAR

STARTCHAR 149
ENCODING 149
SWIDTH 7000 0
DWIDTH 7 0
BBX 7 15 0 -3
BITMAP
00
00
00
00
30
78
FC
FC
78
30
00
00
00
00
00
ENDCHAR

STARTCHAR 150
ENCODING 150
SWIDTH 7000 0
DWIDTH 7 0
BBX 7 15 0 -3
BITMAP
00
00
00
00
00
00
00
00
78
00
00
00
00
00
00
ENDCHAR

STARTCHAR 151
ENCODING 151
SWIDTH 7000 0
DWIDTH 7 0
BBX 7 15 0 -3
BITMAP
00
00
00
00
00
00
00
00
FE
00
00
00
00
00
00
ENDCHAR

STARTCHAR 152
ENCODING 152
SWIDTH 7000 0
DWIDTH 7 0
BBX 7 15 0 -3
BITMAP
00
00
64
98
00
00
00
00
00
00
00
00
00
00
00
ENDCHAR

STARTCHAR 153
ENCODING 153
SWIDTH 7000 0
DWIDTH 7 0
BBX 7 15 0 -3
BITMAP
00
00
00
F2
5E
52
52
00
00
00
00
00
00
00
00
ENDCHAR

STARTCHAR 154
ENCODING 154
SWIDTH 7000 0
DWIDTH 7 0
BBX 7 15 0 -3
BITMAP
00
44
28
10
00
00
7C
80
78
04
04
F8
00
00
00
ENDCHAR

STARTCHAR 155
ENCODING 155
SWIDTH 7000 0
DWIDTH 7 0
BBX 7 15 0 -3
BITMAP
00
00
00
00
00
00
00
80
40
40
40
80
00
00
00
ENDCHAR

STARTCHAR 156
ENCODING 156
SWIDTH 7000 0
DWIDTH 7 0
BBX 7 15 0 -3
BITMAP
00
00
00
00
00
00
68
94
9C
90
90
6C
00
00
00
ENDCHAR

STARTCHAR 157
ENCODING 157
SWIDTH 7000 0
DWIDTH 7 0
BBX 7 15 0 -3
BITMAP
00
00
00
00
00
00
00
00
00
00
00
00
00
00
00
ENDCHAR

STARTCHAR 158
ENCODING 158
SWIDTH 7000 0
DWIDTH 7 0
BBX 7 15 0 -3
BITMAP
00
00
00
00
00
00
00
00
00
00
00
00
00
00
00
ENDCHAR

STARTCHAR 159
ENCODING 159
SWIDTH 7000 0
DWIDTH 7 0
BBX 7 15 0 -3
BITMAP
44
00
00
82
82
82
44
28
10
10
10
10
00
00
00
ENDCHAR

STARTCHAR 160
ENCODING 160
SWIDTH 7000 0
DWIDTH 7 0
BBX 7 15 0 -3
BITMAP
00
00
00
00
00
00
00
00
00
00
00
00
00
00
00
ENDCHAR

STARTCHAR 161
ENCODING 161
SWIDTH 7000 0
DWIDTH 7 0
BBX 7 15 0 -3
BITMAP
00
00
00
08
00
08
08
08
08
08
08
08
00
00
00
ENDCHAR

STARTCHAR 162
ENCODING 162
SWIDTH 7000 0
DWIDTH 7 0
BBX 7 15 0 -3
BITMAP
00
00
00
00
20
20
70
A8
A0
A0
A0
78
20
20
00
ENDCHAR

STARTCHAR 163
ENCODING 163
SWIDTH 7000 0
DWIDTH 7 0
BBX 7 15 0 -3
BITMAP
00
60
90
80
80
F0
80
80
80
84
88
F0
00
00
00
ENDCHAR

STARTCHAR 164
ENCODING 164
SWIDTH 7000 0
DWIDTH 7 0
BBX 7 15 0 -3
BITMAP
00
00
00
00
00
82
44
38
28
38
44
82
00
00
00
ENDCHAR

STARTCHAR 165
ENCODING 165
SWIDTH 7000 0
DWIDTH 7 0
BBX 7 15 0 -3
BITMAP
00
00
82
44
28
FE
10
10
FE
10
10
10
00
00
00
ENDCHAR

STARTCHAR 166
ENCODING 166
SWIDTH 7000 0
DWIDTH 7 0
BBX 7 15 0 -3
BITMAP
00
10
10
10
10
10
00
00
00
10
10
10
10
10
00
ENDCHAR

STARTCHAR 167
ENCODING 167
SWIDTH 7000 0
DWIDTH 7 0
BBX 7 15 0 -3
BITMAP
78
84
84
44
A0
90
48
24
14
88
84
84
78
00
00
ENDCHAR

STARTCHAR 168
ENCODING 168
SWIDTH 7000 0
DWIDTH 7 0
BBX 7 15 0 -3
BITMAP
00
00
00
48
00
00
00
00
00
00
00
00
00
00
00
ENDCHAR

STARTCHAR 169
ENCODING 169
SWIDTH 7000 0
DWIDTH 7 0
BBX 7 15 0 -3
BITMAP
00
00
00
F0
08
74
84
84
84
74
08
F0
00
00
00
ENDCHAR

STARTCHAR 170
ENCODING 170
SWIDTH 7000 0
DWIDTH 7 0
BBX 7 15 0 -3
BITMAP
3C
44
44
44
3C
00
00
7C
00
00
00
00
00
00
00
ENDCHAR

STARTCHAR 171
ENCODING 171
SWIDTH 7000 0
DWIDTH 7 0
BBX 7 15 0 -3
BITMAP
00
00
00
00
00
00
00
44
88
88
88
44
00
00
00
ENDCHAR

STARTCHAR 172
ENCODING 172
SWIDTH 7000 0
DWIDTH 7 0
BBX 7 15 0 -3
BITMAP
00
00
00
00
00
00
00
FC
04
04
04
00
00
00
00
ENDCHAR

STARTCHAR 173
ENCODING 173
SWIDTH 7000 0
DWIDTH 7 0
BBX 7 15 0 -3
BITMAP
00
00
00
00
00
00
00
00
F8
00
00
00
00
00
00
ENDCHAR

STARTCHAR 174
ENCODING 174
SWIDTH 7000 0
DWIDTH 7 0
BBX 7 15 0 -3
BITMAP
00
00
00
F0
08
64
94
94
E4
94
88
00
00
00
00
ENDCHAR

STARTCHAR 175
ENCODING 175
SWIDTH 7000 0
DWIDTH 7 0
BBX 7 15 0 -3
BITMAP
00
00
00
78
00
00
00
00
00
00
00
00
00
00
00
ENDCHAR

STARTCHAR 176
ENCODING 176
SWIDTH 7000 0
DWIDTH 7 0
BBX 7 15 0 -3
BITMAP
00
38
44
44
44
38
00
00
00
00
00
00
00
00
00
ENDCHAR

STARTCHAR 177
ENCODING 177
SWIDTH 7000 0
DWIDTH 7 0
BBX 7 15 0 -3
BITMAP
00
00
00
00
00
20
20
F8
20
20
F8
00
00
00
00
ENDCHAR

STARTCHAR 178
ENCODING 178
SWIDTH 7000 0
DWIDTH 7 0
BBX 7 15 0 -3
BITMAP
30
48
10
20
78
00
00
00
00
00
00
00
00
00
00
ENDCHAR

STARTCHAR 179
ENCODING 179
SWIDTH 7000 0
DWIDTH 7 0
BBX 7 15 0 -3
BITMAP
30
48
10
48
30
00
00
00
00
00
00
00
00
00
00
ENDCHAR

STARTCHAR 180
ENCODING 180
SWIDTH 7000 0
DWIDTH 7 0
BBX 7 15 0 -3
BITMAP
00
0C
1C
18
00
00
00
00
00
00
00
00
00
00
00
ENDCHAR

STARTCHAR 181
ENCODING 181
SWIDTH 7000 0
DWIDTH 7 0
BBX 7 15 0 -3
BITMAP
00
00
00
00
00
00
88
88
88
88
88
F4
80
80
80
ENDCHAR

STARTCHAR 182
ENCODING 182
SWIDTH 7000 0
DWIDTH 7 0
BBX 7 15 0 -3
BITMAP
00
00
3C
54
94
94
54
3C
14
14
14
14
00
00
00
ENDCHAR

STARTCHAR 183
ENCODING 183
SWIDTH 7000 0
DWIDTH 7 0
BBX 7 15 0 -3
BITMAP
00
00
00
00
00
00
00
18
18
00
00
00
00
00
00
ENDCHAR

STARTCHAR 184
ENCODING 184
SWIDTH 7000 0
DWIDTH 7 0
BBX 7 15 0 -3
BITMAP
00
00
00
00
00
00
00
00
00
00
00
30
10
20
00
ENDCHAR

STARTCHAR 185
ENCODING 185
SWIDTH 7000 0
DWIDTH 7 0
BBX 7 15 0 -3
BITMAP
30
10
10
10
38
00
00
00
00
00
00
00
00
00
00
ENDCHAR

STARTCHAR 186
ENCODING 186
SWIDTH 7000 0
DWIDTH 7 0
BBX 7 15 0 -3
BITMAP
38
44
44
44
38
00
00
7C
00
00
00
00
00
00
00
ENDCHAR

STARTCHAR 187
ENCODING 187
SWIDTH 7000 0
DWIDTH 7 0
BBX 7 15 0 -3
BITMAP
00
00
00
00
00
00
00
88
44
44
44
88
00
00
00
ENDCHAR

STARTCHAR 188
ENCODING 188
SWIDTH 7000 0
DWIDTH 7 0
BBX 7 15 0 -3
BITMAP
60
20
20
22
74
08
10
24
4C
94
1E
04
00
00
00
ENDCHAR

STARTCHAR 189
ENCODING 189
SWIDTH 7000 0
DWIDTH 7 0
BBX 7 15 0 -3
BITMAP
60
20
20
22
74
08
10
2C
52
84
08
1E
00
00
00
ENDCHAR

STARTCHAR 190
ENCODING 190
SWIDTH 7000 0
DWIDTH 7 0
BBX 7 15 0 -3
BITMAP
60
90
20
92
64
08
10
24
4C
94
1E
04
00
00
00
ENDCHAR

STARTCHAR 191
ENCODING 191
SWIDTH 7000 0
DWIDTH 7 0
BBX 7 15 0 -3
BITMAP
00
00
00
10
00
10
20
40
80
80
84
78
00
00
00
ENDCHAR

STARTCHAR 192
ENCODING 192
SWIDTH 7000 0
DWIDTH 7 0
BBX 7 15 0 -3
BITMAP
40
20
10
30
30
48
48
84
FC
84
84
84
00
00
00
ENDCHAR

STARTCHAR 193
ENCODING 193
SWIDTH 7000 0
DWIDTH 7 0
BBX 7 15 0 -3
BITMAP
08
10
20
30
30
48
48
84
FC
84
84
84
00
00
00
ENDCHAR

STARTCHAR 194
ENCODING 194
SWIDTH 7000 0
DWIDTH 7 0
BBX 7 15 0 -3
BITMAP
10
28
44
30
30
48
48
84
FC
84
84
84
00
00
00
ENDCHAR

STARTCHAR 195
ENCODING 195
SWIDTH 7000 0
DWIDTH 7 0
BBX 7 15 0 -3
BITMAP
64
98
00
30
30
48
48
84
FC
84
84
84
00
00
00
ENDCHAR

STARTCHAR 196
ENCODING 196
SWIDTH 7000 0
DWIDTH 7 0
BBX 7 15 0 -3
BITMAP
48
00
00
30
30
48
48
84
FC
84
84
84
00
00
00
ENDCHAR

STARTCHAR 197
ENCODING 197
SWIDTH 7000 0
DWIDTH 7 0
BBX 7 15 0 -3
BITMAP
30
48
48
30
30
48
48
84
FC
84
84
84
00
00
00
ENDCHAR

STARTCHAR 198
ENCODING 198
SWIDTH 7000 0
DWIDTH 7 0
BBX 7 15 0 -3
BITMAP
00
00
00
7C
90
90
90
F8
90
90
90
9C
00
00
00
ENDCHAR

STARTCHAR 199
ENCODING 199
SWIDTH 7000 0
DWIDTH 7 0
BBX 7 15 0 -3
BITMAP
00
00
00
78
84
80
80
80
80
80
84
78
10
20
00
ENDCHAR

STARTCHAR 200
ENCODING 200
SWIDTH 7000 0
DWIDTH 7 0
BBX 7 15 0 -3
BITMAP
40
20
10
FC
80
80
80
F8
80
80
80
FC
00
00
00
ENDCHAR

STARTCHAR 201
ENCODING 201
SWIDTH 7000 0
DWIDTH 7 0
BBX 7 15 0 -3
BITMAP
08
10
20
FC
80
80
80
F8
80
80
80
FC
00
00
00
ENDCHAR

STARTCHAR 202
ENCODING 202
SWIDTH 7000 0
DWIDTH 7 0
BBX 7 15 0 -3
BITMAP
10
28
44
FC
80
80
80
F8
80
80
80
FC
00
00
00
ENDCHAR

STARTCHAR 203
ENCODING 203
SWIDTH 7000 0
DWIDTH 7 0
BBX 7 15 0 -3
BITMAP
48
00
00
FC
80
80
80
F8
80
80
80
FC
00
00
00
ENDCHAR

STARTCHAR 204
ENCODING 204
SWIDTH 7000 0
DWIDTH 7 0
BBX 7 15 0 -3
BITMAP
40
20
10
FE
10
10
10
10
10
10
10
FE
00
00
00
ENDCHAR

STARTCHAR 205
ENCODING 205
SWIDTH 7000 0
DWIDTH 7 0
BBX 7 15 0 -3
BITMAP
04
08
10
FE
10
10
10
10
10
10
10
FE
00
00
00
ENDCHAR

STARTCHAR 206
ENCODING 206
SWIDTH 7000 0
DWIDTH 7 0
BBX 7 15 0 -3
BITMAP
10
28
44
FE
10
10
10
10
10
10
10
FE
00
00
00
ENDCHAR

STARTCHAR 207
ENCODING 207
SWIDTH 7000 0
DWIDTH 7 0
BBX 7 15 0 -3
BITMAP
48
00
00
FE
10
10
10
10
10
10
10
FE
00
00
00
ENDCHAR

STARTCHAR 208
ENCODING 208
SWIDTH 7000 0
DWIDTH 7 0
BBX 7 15 0 -3
BITMAP
00
00
00
78
44
44
44
E4
44
44
44
78
00
00
00
ENDCHAR

STARTCHAR 209
ENCODING 209
SWIDTH 7000 0
DWIDTH 7 0
BBX 7 15 0 -3
BITMAP
64
98
00
84
C4
A4
94
8C
84
84
84
84
00
00
00
ENDCHAR

STARTCHAR 210
ENCODING 210
SWIDTH 7000 0
DWIDTH 7 0
BBX 7 15 0 -3
BITMAP
40
20
10
78
84
84
84
84
84
84
84
78
00
00
00
ENDCHAR

STARTCHAR 211
ENCODING 211
SWIDTH 7000 0
DWIDTH 7 0
BBX 7 15 0 -3
BITMAP
08
10
20
78
84
84
84
84
84
84
84
78
00
00
00
ENDCHAR

STARTCHAR 212
ENCODING 212
SWIDTH 7000 0
DWIDTH 7 0
BBX 7 15 0 -3
BITMAP
10
28
44
78
84
84
84
84
84
84
84
78
00
00
00
ENDCHAR

STARTCHAR 213
ENCODING 213
SWIDTH 7000 0
DWIDTH 7 0
BBX 7 15 0 -3
BITMAP
64
98
00
78
84
84
84
84
84
84
84
78
00
00
00
ENDCHAR

STARTCHAR 214
ENCODING 214
SWIDTH 7000 0
DWIDTH 7 0
BBX 7 15 0 -3
BITMAP
48
00
00
78
84
84
84
84
84
84
84
78
00
00
00
ENDCHAR

STARTCHAR 215
ENCODING 215
SWIDTH 7000 0
DWIDTH 7 0
BBX 7 15 0 -3
BITMAP
00
00
00
00
00
88
50
20
50
88
00
00
00
00
00
ENDCHAR

STARTCHAR 216
ENCODING 216
SWIDTH 7000 0
DWIDTH 7 0
BBX 7 15 0 -3
BITMAP
00
00
00
78
84
8C
94
A4
C4
84
84
78
00
00
00
ENDCHAR

STARTCHAR 217
ENCODING 217
SWIDTH 7000 0
DWIDTH 7 0
BBX 7 15 0 -3
BITMAP
40
20
10
84
84
84
84
84
84
84
84
78
00
00
00
ENDCHAR

STARTCHAR 218
ENCODING 218
SWIDTH 7000 0
DWIDTH 7 0
BBX 7 15 0 -3
BITMAP
08
10
20
84
84
84
84
84
84
84
84
78
00
00
00
ENDCHAR

STARTCHAR 219
ENCODING 219
SWIDTH 7000 0
DWIDTH 7 0
BBX 7 15 0 -3
BITMAP
10
28
44
00
84
84
84
84
84
84
84
78
00
00
00
ENDCHAR

STARTCHAR 220
ENCODING 220
SWIDTH 7000 0
DWIDTH 7 0
BBX 7 15 0 -3
BITMAP
48
00
00
84
84
84
84
84
84
84
84
78
00
00
00
ENDCHAR

STARTCHAR 221
ENCODING 221
SWIDTH 7000 0
DWIDTH 7 0
BBX 7 15 0 -3
BITMAP
04
08
10
82
82
82
44
28
10
10
10
10
00
00
00
ENDCHAR

STARTCHAR 222
ENCODING 222
SWIDTH 7000 0
DWIDTH 7 0
BBX 7 15 0 -3
BITMAP
00
00
00
80
F8
84
84
84
F8
80
80
80
00
00
00
ENDCHAR

STARTCHAR 223
ENCODING 223
SWIDTH 7000 0
DWIDTH 7 0
BBX 7 15 0 -3
BITMAP
00
00
38
44
84
88
90
90
88
84
84
98
80
00
00
ENDCHAR

STARTCHAR 224
ENCODING 224
SWIDTH 7000 0
DWIDTH 7 0
BBX 7 15 0 -3
BITMAP
00
40
20
10
00
00
7C
84
84
8C
94
64
00
00
00
ENDCHAR

STARTCHAR 225
ENCODING 225
SWIDTH 7000 0
DWIDTH 7 0
BBX 7 15 0 -3
BITMAP
00
04
08
10
00
00
7C
84
84
8C
94
64
00
00
00
ENDCHAR

STARTCHAR 226
ENCODING 226
SWIDTH 7000 0
DWIDTH 7 0
BBX 7 15 0 -3
BITMAP
00
10
28
44
00
00
7C
84
84
8C
94
64
00
00
00
ENDCHAR

STARTCHAR 227
ENCODING 227
SWIDTH 7000 0
DWIDTH 7 0
BBX 7 15 0 -3
BITMAP
00
00
64
98
00
00
7C
84
84
8C
94
64
00
00
00
ENDCHAR

STARTCHAR 228
ENCODING 228
SWIDTH 7000 0
DWIDTH 7 0
BBX 7 15 0 -3
BITMAP
00
00
00
48
00
00
7C
84
84
8C
94
64
00
00
00
ENDCHAR

STARTCHAR 229
ENCODING 229
SWIDTH 7000 0
DWIDTH 7 0
BBX 7 15 0 -3
BITMAP
00
00
30
48
48
30
7C
84
84
8C
94
64
00
00
00
ENDCHAR

STARTCHAR 230
ENCODING 230
SWIDTH 7000 0
DWIDTH 7 0
BBX 7 15 0 -3
BITMAP
00
00
00
00
00
00
78
A4
BC
A0
A0
7C
00
00
00
ENDCHAR

STARTCHAR 231
ENCODING 231
SWIDTH 7000 0
DWIDTH 7 0
BBX 7 15 0 -3
BITMAP
00
00
00
00
00
00
78
84
80
80
80
7C
10
20
00
ENDCHAR

STARTCHAR 232
ENCODING 232
SWIDTH 7000 0
DWIDTH 7 0
BBX 7 15 0 -3
BITMAP
00
40
20
10
00
00
78
84
FC
80
80
7C
00
00
00
ENDCHAR

STARTCHAR 233
ENCODING 233
SWIDTH 7000 0
DWIDTH 7 0
BBX 7 15 0 -3
BITMAP
00
04
08
10
00
00
78
84
FC
80
80
7C
00
00
00
ENDCHAR

STARTCHAR 234
ENCODING 234
SWIDTH 7000 0
DWIDTH 7 0
BBX 7 15 0 -3
BITMAP
00
10
28
44
00
00
78
84
FC
80
80
7C
00
00
00
ENDCHAR

STARTCHAR 235
ENCODING 235
SWIDTH 7000 0
DWIDTH 7 0
BBX 7 15 0 -3
BITMAP
00
00
00
48
00
00
78
84
FC
80
80
7C
00
00
00
ENDCHAR

STARTCHAR 236
ENCODING 236
SWIDTH 7000 0
DWIDTH 7 0
BBX 7 15 0 -3
BITMAP
00
40
20
10
00
00
30
10
10
10
10
38
00
00
00
ENDCHAR

STARTCHAR 237
ENCODING 237
SWIDTH 7000 0
DWIDTH 7 0
BBX 7 15 0 -3
BITMAP
00
04
08
10
00
00
30
10
10
10
10
38
00
00
00
ENDCHAR

STARTCHAR 238
ENCODING 238
SWIDTH 7000 0
DWIDTH 7 0
BBX 7 15 0 -3
BITMAP
00
10
28
44
00
00
30
10
10
10
10
38
00
00
00
ENDCHAR

STARTCHAR 239
ENCODING 239
SWIDTH 7000 0
DWIDTH 7 0
BBX 7 15 0 -3
BITMAP
00
00
00
48
00
00
30
10
10
10
10
38
00
00
00
ENDCHAR

STARTCHAR 240
ENCODING 240
SWIDTH 7000 0
DWIDTH 7 0
BBX 7 15 0 -3
BITMAP
00
50
20
50
08
04
7C
84
84
84
84
78
00
00
00
ENDCHAR

STARTCHAR 241
ENCODING 241
SWIDTH 7000 0
DWIDTH 7 0
BBX 7 15 0 -3
BITMAP
00
00
64
98
00
00
98
A4
C4
84
84
84
00
00
00
ENDCHAR

STARTCHAR 242
ENCODING 242
SWIDTH 7000 0
DWIDTH 7 0
BBX 7 15 0 -3
BITMAP
00
40
20
10
00
00
78
84
84
84
84
78
00
00
00
ENDCHAR

STARTCHAR 243
ENCODING 243
SWIDTH 7000 0
DWIDTH 7 0
BBX 7 15 0 -3
BITMAP
00
04
08
10
00
00
78
84
84
84
84
78
00
00
00
ENDCHAR

STARTCHAR 244
ENCODING 244
SWIDTH 7000 0
DWIDTH 7 0
BBX 7 15 0 -3
BITMAP
00
10
28
44
00
00
78
84
84
84
84
78
00
00
00
ENDCHAR

STARTCHAR 245
ENCODING 245
SWIDTH 7000 0
DWIDTH 7 0
BBX 7 15 0 -3
BITMAP
00
00
64
98
00
00
78
84
84
84
84
78
00
00
00
ENDCHAR

STARTCHAR 246
ENCODING 246
SWIDTH 7000 0
DWIDTH 7 0
BBX 7 15 0 -3
BITMAP
00
00
00
48
00
00
78
84
84
84
84
78
00
00
00
ENDCHAR

STARTCHAR 247
ENCODING 247
SWIDTH 7000 0
DWIDTH 7 0
BBX 7 15 0 -3
BITMAP
00
00
00
00
00
00
20
00
F8
00
20
00
00
00
00
ENDCHAR

STARTCHAR 248
ENCODING 248
SWIDTH 7000 0
DWIDTH 7 0
BBX 7 15 0 -3
BITMAP
00
00
00
00
00
00
78
8C
94
A4
C4
78
00
00
00
ENDCHAR

STARTCHAR 249
ENCODING 249
SWIDTH 7000 0
DWIDTH 7 0
BBX 7 15 0 -3
BITMAP
00
40
20
10
00
00
84
84
84
8C
94
64
00
00
00
ENDCHAR

STARTCHAR 250
ENCODING 250
SWIDTH 7000 0
DWIDTH 7 0
BBX 7 15 0 -3
BITMAP
00
04
08
10
00
00
84
84
84
8C
94
64
00
00
00
ENDCHAR

STARTCHAR 251
ENCODING 251
SWIDTH 7000 0
DWIDTH 7 0
BBX 7 15 0 -3
BITMAP
00
10
28
44
00
00
84
84
84
8C
94
64
00
00
00
ENDCHAR

STARTCHAR 252
ENCODING 252
SWIDTH 7000 0
DWIDTH 7 0
BBX 7 15 0 -3
BITMAP
00
00
00
48
00
00
84
84
84
8C
94
64
00
00
00
ENDCHAR

STARTCHAR 253
ENCODING 253
SWIDTH 7000 0
DWIDTH 7 0
BBX 7 15 0 -3
BITMAP
00
04
08
10
00
00
84
84
84
84
84
7C
04
04
78
ENDCHAR

STARTCHAR 254
ENCODING 254
SWIDTH 7000 0
DWIDTH 7 0
BBX 7 15 0 -3
BITMAP
00
00
00
80
80
80
F8
84
84
84
84
F8
80
80
80
ENDCHAR

STARTCHAR 255
ENCODING 255
SWIDTH 7000 0
DWIDTH 7 0
BBX 7 15 0 -3
BITMAP
00
00
00
48
00
00
84
84
84
84
84
7C
04
04
78
ENDCHAR

ENDFONT
