STARTFONT 2.1
FONT -nil-ProFont-medium-r-normal--17-170-72-72-c-140-ISO10646-1
SIZE -1 72 72
FONTBOUNDINGBOX 14 17 0 -3

STARTPROPERTIES 15
CAP_HEIGHT 14
POINT_SIZE 170
WEIGHT 10
RESOLUTION_X 72
RESOLUTION_Y 72
X_HEIGHT 8
QUAD_WIDTH 14
FAMILY_NAME "ProFont"
WEIGHT_NAME "Medium"
SLANT "R"
CHARSET_REGISTRY "ISO10646"
CHARSET_ENCODING "1"
DEFAULT_CHAR -256
FONT_DESCENT 3
FONT_ASCENT 14
ENDPROPERTIES

CHARS 256

STARTCHAR 0
ENCODING 0
SWIDTH 14000 0
DWIDTH 14 0
BBX 14 17 0 -3
BITMAP
0000
0000
0000
0000
0000
0000
0000
0000
0000
0000
0000
0000
0000
0000
0000
0000
0000
ENDCHAR

STARTCHAR 1
ENCODING 1
SWIDTH 14000 0
DWIDTH 14 0
BBX 14 17 0 -3
BITMAP
0000
0000
0000
0000
0000
0000
0000
0000
0000
0000
0000
0000
0000
0000
0000
0000
0000
ENDCHAR

STARTCHAR 2
ENCODING 2
SWIDTH 14000 0
DWIDTH 14 0
BBX 14 17 0 -3
BITMAP
0000
0000
0000
0000
0000
0000
0000
0000
0000
0000
0000
0000
0000
0000
0000
0000
0000
ENDCHAR

STARTCHAR 3
ENCODING 3
SWIDTH 14000 0
DWIDTH 14 0
BBX 14 17 0 -3
BITMAP
0000
0000
0000
0000
0000
0000
0000
0000
0000
0000
0000
0000
0000
0000
0000
0000
0000
ENDCHAR

STARTCHAR 4
ENCODING 4
SWIDTH 14000 0
DWIDTH 14 0
BBX 14 17 0 -3
BITMAP
0000
0000
0000
0000
0000
0000
0000
0000
0000
0000
0000
0000
0000
0000
0000
0000
0000
ENDCHAR

STARTCHAR 5
ENCODING 5
SWIDTH 14000 0
DWIDTH 14 0
BBX 14 17 0 -3
BITMAP
0000
0000
0000
0000
0000
0000
0000
0000
0000
0000
0000
0000
0000
0000
0000
0000
0000
ENDCHAR

STARTCHAR 6
ENCODING 6
SWIDTH 14000 0
DWIDTH 14 0
BBX 14 17 0 -3
BITMAP
0000
0000
0000
0000
0000
0000
0000
0000
0000
0000
0000
0000
0000
0000
0000
0000
0000
ENDCHAR

STARTCHAR 7
ENCODING 7
SWIDTH 14000 0
DWIDTH 14 0
BBX 14 17 0 -3
BITMAP
0000
0000
0000
0000
0000
0000
0000
0000
0000
0000
0000
0000
0000
0000
0000
0000
0000
ENDCHAR

STARTCHAR 8
ENCODING 8
SWIDTH 14000 0
DWIDTH 14 0
BBX 14 17 0 -3
BITMAP
0000
0000
0000
0000
0000
0000
0000
0000
0000
0000
0000
0000
0000
0000
0000
0000
0000
ENDCHAR

STARTCHAR 9
ENCODING 9
SWIDTH 14000 0
DWIDTH 14 0
BBX 14 17 0 -3
BITMAP
0000
0000
0000
0000
0000
0000
0000
0000
0000
0000
0000
0000
0000
0000
0000
0000
0000
ENDCHAR

STARTCHAR 10
ENCODING 10
SWIDTH 14000 0
DWIDTH 14 0
BBX 14 17 0 -3
BITMAP
0000
0000
0000
0000
0000
0000
0000
0000
0000
0000
0000
0000
0000
0000
0000
0000
0000
ENDCHAR

STARTCHAR 11
ENCODING 11
SWIDTH 14000 0
DWIDTH 14 0
BBX 14 17 0 -3
BITMAP
0000
0000
0000
0000
0000
0000
0000
0000
0000
0000
0000
0000
0000
0000
0000
0000
0000
ENDCHAR

STARTCHAR 12
ENCODING 12
SWIDTH 14000 0
DWIDTH 14 0
BBX 14 17 0 -3
BITMAP
0000
0000
0000
0000
0000
0000
0000
0000
0000
0000
0000
0000
0000
0000
0000
0000
0000
ENDCHAR

STARTCHAR 13
ENCODING 13
SWIDTH 14000 0
DWIDTH 14 0
BBX 14 17 0 -3
BITMAP
0000
0000
0000
0000
0000
0000
0000
0000
0000
0000
0000
0000
0000
0000
0000
0000
0000
ENDCHAR

STARTCHAR 14
ENCODING 14
SWIDTH 14000 0
DWIDTH 14 0
BBX 14 17 0 -3
BITMAP
0000
0000
0000
0000
0000
0000
0000
0000
0000
0000
0000
0000
0000
0000
0000
0000
0000
ENDCHAR

STARTCHAR 15
ENCODING 15
SWIDTH 14000 0
DWIDTH 14 0
BBX 14 17 0 -3
BITMAP
0000
0000
0000
0000
0000
0000
0000
0000
0000
0000
0000
0000
0000
0000
0000
0000
0000
ENDCHAR

STARTCHAR 16
ENCODING 16
SWIDTH 14000 0
DWIDTH 14 0
BBX 14 17 0 -3
BITMAP
0000
0000
0000
0000
0000
0000
0000
0000
0000
0000
0000
0000
0000
0000
0000
0000
0000
ENDCHAR

STARTCHAR 17
ENCODING 17
SWIDTH 14000 0
DWIDTH 14 0
BBX 14 17 0 -3
BITMAP
0000
0000
0000
0000
0000
0000
0000
0000
0000
0000
0000
0000
0000
0000
0000
0000
0000
ENDCHAR

STARTCHAR 18
ENCODING 18
SWIDTH 14000 0
DWIDTH 14 0
BBX 14 17 0 -3
BITMAP
0000
0000
0000
0000
0000
0000
0000
0000
0000
0000
0000
0000
0000
0000
0000
0000
0000
ENDCHAR

STARTCHAR 19
ENCODING 19
SWIDTH 14000 0
DWIDTH 14 0
BBX 14 17 0 -3
BITMAP
0000
0000
0000
0000
0000
0000
0000
0000
0000
0000
0000
0000
0000
0000
0000
0000
0000
ENDCHAR

STARTCHAR 20
ENCODING 20
SWIDTH 14000 0
DWIDTH 14 0
BBX 14 17 0 -3
BITMAP
0000
0000
0000
0000
0000
0000
0000
0000
0000
0000
0000
0000
0000
0000
0000
0000
0000
ENDCHAR

STARTCHAR 21
ENCODING 21
SWIDTH 14000 0
DWIDTH 14 0
BBX 14 17 0 -3
BITMAP
0000
0000
0000
0000
0000
0000
0000
0000
0000
0000
0000
0000
0000
0000
0000
0000
0000
ENDCHAR

STARTCHAR 22
ENCODING 22
SWIDTH 14000 0
DWIDTH 14 0
BBX 14 17 0 -3
BITMAP
0000
0000
0000
0000
0000
0000
0000
0000
0000
0000
0000
0000
0000
0000
0000
0000
0000
ENDCHAR

STARTCHAR 23
ENCODING 23
SWIDTH 14000 0
DWIDTH 14 0
BBX 14 17 0 -3
BITMAP
0000
0000
0000
0000
0000
0000
0000
0000
0000
0000
0000
0000
0000
0000
0000
0000
0000
ENDCHAR

STARTCHAR 24
ENCODING 24
SWIDTH 14000 0
DWIDTH 14 0
BBX 14 17 0 -3
BITMAP
0000
0000
0000
0000
0000
0000
0000
0000
0000
0000
0000
0000
0000
0000
0000
0000
0000
ENDCHAR

STARTCHAR 25
ENCODING 25
SWIDTH 14000 0
DWIDTH 14 0
BBX 14 17 0 -3
BITMAP
0000
0000
0000
0000
0000
0000
0000
0000
0000
0000
0000
0000
0000
0000
0000
0000
0000
ENDCHAR

STARTCHAR 26
ENCODING 26
SWIDTH 14000 0
DWIDTH 14 0
BBX 14 17 0 -3
BITMAP
0000
0000
0000
0000
0000
0000
0000
0000
0000
0000
0000
0000
0000
0000
0000
0000
0000
ENDCHAR

STARTCHAR 27
ENCODING 27
SWIDTH 14000 0
DWIDTH 14 0
BBX 14 17 0 -3
BITMAP
0000
0000
0000
0000
0000
0000
0000
0000
0000
0000
0000
0000
0000
0000
0000
0000
0000
ENDCHAR

STARTCHAR 28
ENCODING 28
SWIDTH 14000 0
DWIDTH 14 0
BBX 14 17 0 -3
BITMAP
0000
0000
0000
0000
0000
0000
0000
0000
0000
0000
0000
0000
0000
0000
0000
0000
0000
ENDCHAR

STARTCHAR 29
ENCODING 29
SWIDTH 14000 0
DWIDTH 14 0
BBX 14 17 0 -3
BITMAP
0000
0000
0000
0000
0000
0000
0000
0000
0000
0000
0000
0000
0000
0000
0000
0000
0000
ENDCHAR

STARTCHAR 30
ENCODING 30
SWIDTH 14000 0
DWIDTH 14 0
BBX 14 17 0 -3
BITMAP
0000
0000
0000
0000
0000
0000
0000
0000
0000
0000
0000
0000
0000
0000
0000
0000
0000
ENDCHAR

STARTCHAR 31
ENCODING 31
SWIDTH 14000 0
DWIDTH 14 0
BBX 14 17 0 -3
BITMAP
0000
0000
0000
0000
0000
0000
0000
0000
0000
0000
0000
0000
0000
0000
0000
0000
0000
ENDCHAR

STARTCHAR 32
ENCODING 32
SWIDTH 14000 0
DWIDTH 14 0
BBX 14 17 0 -3
BITMAP
0000
0000
0000
0000
0000
0000
0000
0000
0000
0000
0000
0000
0000
0000
0000
0000
0000
ENDCHAR

STARTCHAR 33
ENCODING 33
SWIDTH 14000 0
DWIDTH 14 0
BBX 14 17 0 -3
BITMAP
0000
0000
0000
1800
1800
1800
1800
1800
1800
1800
1800
0000
1800
1800
0000
0000
0000
ENDCHAR

STARTCHAR 34
ENCODING 34
SWIDTH 14000 0
DWIDTH 14 0
BBX 14 17 0 -3
BITMAP
0000
6C00
6C00
6C00
6C00
6C00
0000
0000
0000
0000
0000
0000
0000
0000
0000
0000
0000
ENDCHAR

STARTCHAR 35
ENCODING 35
SWIDTH 14000 0
DWIDTH 14 0
BBX 14 17 0 -3
BITMAP
0000
0000
0000
0000
3600
7F00
7F00
3600
7F00
7F00
3600
0000
0000
0000
0000
0000
0000
ENDCHAR

STARTCHAR 36
ENCODING 36
SWIDTH 14000 0
DWIDTH 14 0
BBX 14 17 0 -3
BITMAP
0000
1800
1800
3C00
7E00
DB00
D800
7C00
3E00
1F00
DB00
DB00
7E00
3C00
1800
1800
0000
ENDCHAR

STARTCHAR 37
ENCODING 37
SWIDTH 14000 0
DWIDTH 14 0
BBX 14 17 0 -3
BITMAP
0000
0000
0000
3F00
7F00
DB00
DE00
7C00
3C00
3E00
7B00
DB00
CE00
C400
0000
0000
0000
ENDCHAR

STARTCHAR 38
ENCODING 38
SWIDTH 14000 0
DWIDTH 14 0
BBX 14 17 0 -3
BITMAP
0000
0000
0000
3000
7800
CC00
CC00
D800
7000
F300
DE00
CC00
FE00
7B00
0000
0000
0000
ENDCHAR

STARTCHAR 39
ENCODING 39
SWIDTH 14000 0
DWIDTH 14 0
BBX 14 17 0 -3
BITMAP
0000
1800
1800
1800
1800
1800
0000
0000
0000
0000
0000
0000
0000
0000
0000
0000
0000
ENDCHAR

STARTCHAR 40
ENCODING 40
SWIDTH 14000 0
DWIDTH 14 0
BBX 14 17 0 -3
BITMAP
0000
0600
0C00
1800
3000
6000
6000
6000
6000
6000
6000
6000
3000
1800
0C00
0600
0000
ENDCHAR

STARTCHAR 41
ENCODING 41
SWIDTH 14000 0
DWIDTH 14 0
BBX 14 17 0 -3
BITMAP
0000
6000
3000
1800
0C00
0600
0600
0600
0600
0600
0600
0600
0C00
1800
3000
6000
0000
ENDCHAR

STARTCHAR 42
ENCODING 42
SWIDTH 14000 0
DWIDTH 14 0
BBX 14 17 0 -3
BITMAP
0000
0000
0000
1800
DB00
FF00
3C00
3C00
FF00
DB00
1800
0000
0000
0000
0000
0000
0000
ENDCHAR

STARTCHAR 43
ENCODING 43
SWIDTH 14000 0
DWIDTH 14 0
BBX 14 17 0 -3
BITMAP
0000
0000
0000
0000
0000
1800
1800
1800
FF00
FF00
1800
1800
1800
0000
0000
0000
0000
ENDCHAR

STARTCHAR 44
ENCODING 44
SWIDTH 14000 0
DWIDTH 14 0
BBX 14 17 0 -3
BITMAP
0000
0000
0000
0000
0000
0000
0000
0000
0000
0000
0000
3800
3800
3800
1800
3000
6000
ENDCHAR

STARTCHAR 45
ENCODING 45
SWIDTH 14000 0
DWIDTH 14 0
BBX 14 17 0 -3
BITMAP
0000
0000
0000
0000
0000
0000
0000
0000
7C00
7C00
0000
0000
0000
0000
0000
0000
0000
ENDCHAR

STARTCHAR 46
ENCODING 46
SWIDTH 14000 0
DWIDTH 14 0
BBX 14 17 0 -3
BITMAP
0000
0000
0000
0000
0000
0000
0000
0000
0000
0000
0000
3800
3800
3800
0000
0000
0000
ENDCHAR

STARTCHAR 47
ENCODING 47
SWIDTH 14000 0
DWIDTH 14 0
BBX 14 17 0 -3
BITMAP
0000
0180
0180
0300
0300
0600
0600
0C00
0C00
1800
1800
3000
3000
6000
6000
C000
C000
ENDCHAR

STARTCHAR 48
ENCODING 48
SWIDTH 14000 0
DWIDTH 14 0
BBX 14 17 0 -3
BITMAP
0000
0000
0000
3C00
7E00
C300
C700
CF00
DB00
F300
E300
C300
7E00
3C00
0000
0000
0000
ENDCHAR

STARTCHAR 49
ENCODING 49
SWIDTH 14000 0
DWIDTH 14 0
BBX 14 17 0 -3
BITMAP
0000
0000
0000
1800
7800
7800
1800
1800
1800
1800
1800
1800
FF00
FF00
0000
0000
0000
ENDCHAR

STARTCHAR 50
ENCODING 50
SWIDTH 14000 0
DWIDTH 14 0
BBX 14 17 0 -3
BITMAP
0000
0000
0000
3C00
7E00
C300
C300
0600
0C00
1800
3000
6000
FF00
FF00
0000
0000
0000
ENDCHAR

STARTCHAR 51
ENCODING 51
SWIDTH 14000 0
DWIDTH 14 0
BBX 14 17 0 -3
BITMAP
0000
0000
0000
3C00
7E00
C300
C300
1E00
1C00
0600
C300
C300
7E00
3C00
0000
0000
0000
ENDCHAR

STARTCHAR 52
ENCODING 52
SWIDTH 14000 0
DWIDTH 14 0
BBX 14 17 0 -3
BITMAP
0000
0000
0000
0600
0E00
1E00
3600
6600
C600
FF00
FF00
0600
0F00
0F00
0000
0000
0000
ENDCHAR

STARTCHAR 53
ENCODING 53
SWIDTH 14000 0
DWIDTH 14 0
BBX 14 17 0 -3
BITMAP
0000
0000
0000
FF00
FF00
C000
FC00
FE00
0300
0300
0300
C300
7E00
3C00
0000
0000
0000
ENDCHAR

STARTCHAR 54
ENCODING 54
SWIDTH 14000 0
DWIDTH 14 0
BBX 14 17 0 -3
BITMAP
0000
0000
0000
3E00
7E00
C000
FC00
FE00
C300
C300
C300
C300
7E00
3C00
0000
0000
0000
ENDCHAR

STARTCHAR 55
ENCODING 55
SWIDTH 14000 0
DWIDTH 14 0
BBX 14 17 0 -3
BITMAP
0000
0000
0000
FF00
FF00
0300
0300
0600
0C00
1800
1800
1800
1800
1800
0000
0000
0000
ENDCHAR

STARTCHAR 56
ENCODING 56
SWIDTH 14000 0
DWIDTH 14 0
BBX 14 17 0 -3
BITMAP
0000
0000
0000
3C00
7E00
C300
C300
7E00
3C00
7E00
C300
C300
7E00
3C00
0000
0000
0000
ENDCHAR

STARTCHAR 57
ENCODING 57
SWIDTH 14000 0
DWIDTH 14 0
BBX 14 17 0 -3
BITMAP
0000
0000
0000
3C00
7E00
C300
C300
C300
C300
7F00
3F00
0300
7E00
7C00
0000
0000
0000
ENDCHAR

STARTCHAR 58
ENCODING 58
SWIDTH 14000 0
DWIDTH 14 0
BBX 14 17 0 -3
BITMAP
0000
0000
0000
0000
0000
0000
3800
3800
3800
0000
0000
3800
3800
3800
0000
0000
0000
ENDCHAR

STARTCHAR 59
ENCODING 59
SWIDTH 14000 0
DWIDTH 14 0
BBX 14 17 0 -3
BITMAP
0000
0000
0000
0000
0000
0000
3800
3800
3800
0000
0000
3800
3800
3800
1800
3000
6000
ENDCHAR

STARTCHAR 60
ENCODING 60
SWIDTH 14000 0
DWIDTH 14 0
BBX 14 17 0 -3
BITMAP
0000
0000
0000
0300
0600
0C00
1800
3000
6000
3000
1800
0C00
0600
0300
0000
0000
0000
ENDCHAR

STARTCHAR 61
ENCODING 61
SWIDTH 14000 0
DWIDTH 14 0
BBX 14 17 0 -3
BITMAP
0000
0000
0000
0000
0000
0000
FF00
FF00
0000
FF00
FF00
0000
0000
0000
0000
0000
0000
ENDCHAR

STARTCHAR 62
ENCODING 62
SWIDTH 14000 0
DWIDTH 14 0
BBX 14 17 0 -3
BITMAP
0000
0000
0000
6000
3000
1800
0C00
0600
0300
0600
0C00
1800
3000
6000
0000
0000
0000
ENDCHAR

STARTCHAR 63
ENCODING 63
SWIDTH 14000 0
DWIDTH 14 0
BBX 14 17 0 -3
BITMAP
0000
0000
0000
3C00
7E00
C300
C300
0600
0C00
1800
1000
0000
1800
1800
0000
0000
0000
ENDCHAR

STARTCHAR 64
ENCODING 64
SWIDTH 14000 0
DWIDTH 14 0
BBX 14 17 0 -3
BITMAP
0000
0000
0000
3C00
7E00
C300
CF00
DF00
DB00
DF00
CE00
C000
7F00
3F00
0000
0000
0000
ENDCHAR

STARTCHAR 65
ENCODING 65
SWIDTH 14000 0
DWIDTH 14 0
BBX 14 17 0 -3
BITMAP
0000
0000
0000
1800
3C00
3C00
6600
6600
C300
FF00
FF00
C300
C300
C300
0000
0000
0000
ENDCHAR

STARTCHAR 66
ENCODING 66
SWIDTH 14000 0
DWIDTH 14 0
BBX 14 17 0 -3
BITMAP
0000
0000
0000
FC00
FE00
C300
C300
FE00
FC00
C600
C300
C300
FE00
FC00
0000
0000
0000
ENDCHAR

STARTCHAR 67
ENCODING 67
SWIDTH 14000 0
DWIDTH 14 0
BBX 14 17 0 -3
BITMAP
0000
0000
0000
3C00
7E00
C300
C300
C000
C000
C000
C300
C300
7E00
3C00
0000
0000
0000
ENDCHAR

STARTCHAR 68
ENCODING 68
SWIDTH 14000 0
DWIDTH 14 0
BBX 14 17 0 -3
BITMAP
0000
0000
0000
FC00
FE00
C300
C300
C300
C300
C300
C300
C300
FE00
FC00
0000
0000
0000
ENDCHAR

STARTCHAR 69
ENCODING 69
SWIDTH 14000 0
DWIDTH 14 0
BBX 14 17 0 -3
BITMAP
0000
0000
0000
FF00
FF00
C000
C000
FC00
FC00
C000
C000
C000
FF00
FF00
0000
0000
0000
ENDCHAR

STARTCHAR 70
ENCODING 70
SWIDTH 14000 0
DWIDTH 14 0
BBX 14 17 0 -3
BITMAP
0000
0000
0000
FF00
FF00
C000
C000
FC00
FC00
C000
C000
C000
C000
C000
0000
0000
0000
ENDCHAR

STARTCHAR 71
ENCODING 71
SWIDTH 14000 0
DWIDTH 14 0
BBX 14 17 0 -3
BITMAP
0000
0000
0000
3C00
7E00
C300
C300
C000
CF00
CF00
C300
C300
7E00
3C00
0000
0000
0000
ENDCHAR

STARTCHAR 72
ENCODING 72
SWIDTH 14000 0
DWIDTH 14 0
BBX 14 17 0 -3
BITMAP
0000
0000
0000
C300
C300
C300
C300
FF00
FF00
C300
C300
C300
C300
C300
0000
0000
0000
ENDCHAR

STARTCHAR 73
ENCODING 73
SWIDTH 14000 0
DWIDTH 14 0
BBX 14 17 0 -3
BITMAP
0000
0000
0000
FF00
FF00
1800
1800
1800
1800
1800
1800
1800
FF00
FF00
0000
0000
0000
ENDCHAR

STARTCHAR 74
ENCODING 74
SWIDTH 14000 0
DWIDTH 14 0
BBX 14 17 0 -3
BITMAP
0000
0000
0000
0300
0300
0300
0300
0300
0300
C300
C300
C300
7E00
3C00
0000
0000
0000
ENDCHAR

STARTCHAR 75
ENCODING 75
SWIDTH 14000 0
DWIDTH 14 0
BBX 14 17 0 -3
BITMAP
0000
0000
0000
C300
C600
CC00
D800
F000
E000
F000
D800
CC00
C600
C300
0000
0000
0000
ENDCHAR

STARTCHAR 76
ENCODING 76
SWIDTH 14000 0
DWIDTH 14 0
BBX 14 17 0 -3
BITMAP
0000
0000
0000
C000
C000
C000
C000
C000
C000
C000
C000
C000
FF00
FF00
0000
0000
0000
ENDCHAR

STARTCHAR 77
ENCODING 77
SWIDTH 14000 0
DWIDTH 14 0
BBX 14 17 0 -3
BITMAP
0000
0000
0000
C300
E700
FF00
FF00
DB00
DB00
DB00
C300
C300
C300
C300
0000
0000
0000
ENDCHAR

STARTCHAR 78
ENCODING 78
SWIDTH 14000 0
DWIDTH 14 0
BBX 14 17 0 -3
BITMAP
0000
0000
0000
C300
E300
F300
DB00
CF00
C700
C300
C300
C300
C300
C300
0000
0000
0000
ENDCHAR

STARTCHAR 79
ENCODING 79
SWIDTH 14000 0
DWIDTH 14 0
BBX 14 17 0 -3
BITMAP
0000
0000
0000
3C00
7E00
C300
C300
C300
C300
C300
C300
C300
7E00
3C00
0000
0000
0000
ENDCHAR

STARTCHAR 80
ENCODING 80
SWIDTH 14000 0
DWIDTH 14 0
BBX 14 17 0 -3
BITMAP
0000
0000
0000
FC00
FE00
C300
C300
FE00
FC00
C000
C000
C000
C000
C000
0000
0000
0000
ENDCHAR

STARTCHAR 81
ENCODING 81
SWIDTH 14000 0
DWIDTH 14 0
BBX 14 17 0 -3
BITMAP
0000
0000
0000
3C00
7E00
C300
C300
C300
C300
C300
DB00
CF00
7E00
3E00
0600
0300
0000
ENDCHAR

STARTCHAR 82
ENCODING 82
SWIDTH 14000 0
DWIDTH 14 0
BBX 14 17 0 -3
BITMAP
0000
0000
0000
FC00
FE00
C300
C300
FE00
FC00
C600
C300
C300
C300
C300
0000
0000
0000
ENDCHAR

STARTCHAR 83
ENCODING 83
SWIDTH 14000 0
DWIDTH 14 0
BBX 14 17 0 -3
BITMAP
0000
0000
0000
3C00
7E00
C300
C000
7C00
3E00
0700
C300
C300
7E00
3C00
0000
0000
0000
ENDCHAR

STARTCHAR 84
ENCODING 84
SWIDTH 14000 0
DWIDTH 14 0
BBX 14 17 0 -3
BITMAP
0000
0000
0000
FF00
FF00
1800
1800
1800
1800
1800
1800
1800
1800
1800
0000
0000
0000
ENDCHAR

STARTCHAR 85
ENCODING 85
SWIDTH 14000 0
DWIDTH 14 0
BBX 14 17 0 -3
BITMAP
0000
0000
0000
C300
C300
C300
C300
C300
C300
C300
C300
C300
7E00
3C00
0000
0000
0000
ENDCHAR

STARTCHAR 86
ENCODING 86
SWIDTH 14000 0
DWIDTH 14 0
BBX 14 17 0 -3
BITMAP
0000
0000
0000
C300
C300
C300
C300
C300
6600
6600
3C00
3C00
1800
1800
0000
0000
0000
ENDCHAR

STARTCHAR 87
ENCODING 87
SWIDTH 14000 0
DWIDTH 14 0
BBX 14 17 0 -3
BITMAP
0000
0000
0000
C300
C300
C300
C300
DB00
DB00
DB00
FF00
FF00
E700
C300
0000
0000
0000
ENDCHAR

STARTCHAR 88
ENCODING 88
SWIDTH 14000 0
DWIDTH 14 0
BBX 14 17 0 -3
BITMAP
0000
0000
0000
C300
C300
C300
6600
3C00
1800
3C00
6600
C300
C300
C300
0000
0000
0000
ENDCHAR

STARTCHAR 89
ENCODING 89
SWIDTH 14000 0
DWIDTH 14 0
BBX 14 17 0 -3
BITMAP
0000
0000
0000
C300
C300
C300
C300
E700
7E00
3C00
1800
1800
1800
1800
0000
0000
0000
ENDCHAR

STARTCHAR 90
ENCODING 90
SWIDTH 14000 0
DWIDTH 14 0
BBX 14 17 0 -3
BITMAP
0000
0000
0000
FF00
FF00
0300
0600
0C00
1800
3000
6000
C000
FF00
FF00
0000
0000
0000
ENDCHAR

STARTCHAR 91
ENCODING 91
SWIDTH 14000 0
DWIDTH 14 0
BBX 14 17 0 -3
BITMAP
0000
1E00
1E00
1800
1800
1800
1800
1800
1800
1800
1800
1800
1800
1800
1E00
1E00
0000
ENDCHAR

STARTCHAR 92
ENCODING 92
SWIDTH 14000 0
DWIDTH 14 0
BBX 14 17 0 -3
BITMAP
0000
C000
C000
6000
6000
3000
3000
1800
1800
0C00
0C00
0600
0600
0300
0300
0180
0180
ENDCHAR

STARTCHAR 93
ENCODING 93
SWIDTH 14000 0
DWIDTH 14 0
BBX 14 17 0 -3
BITMAP
0000
7800
7800
1800
1800
1800
1800
1800
1800
1800
1800
1800
1800
1800
7800
7800
0000
ENDCHAR

STARTCHAR 94
ENCODING 94
SWIDTH 14000 0
DWIDTH 14 0
BBX 14 17 0 -3
BITMAP
0000
0000
0000
0800
1C00
3600
6300
4100
0000
0000
0000
0000
0000
0000
0000
0000
0000
ENDCHAR

STARTCHAR 95
ENCODING 95
SWIDTH 14000 0
DWIDTH 14 0
BBX 14 17 0 -3
BITMAP
0000
0000
0000
0000
0000
0000
0000
0000
0000
0000
0000
0000
0000
0000
0000
FF80
FF80
ENDCHAR

STARTCHAR 96
ENCODING 96
SWIDTH 14000 0
DWIDTH 14 0
BBX 14 17 0 -3
BITMAP
0000
4000
6000
3000
1000
0000
0000
0000
0000
0000
0000
0000
0000
0000
0000
0000
0000
ENDCHAR

STARTCHAR 97
ENCODING 97
SWIDTH 14000 0
DWIDTH 14 0
BBX 14 17 0 -3
BITMAP
0000
0000
0000
0000
0000
0000
3F00
7F00
C300
C300
C700
CF00
7B00
3300
0000
0000
0000
ENDCHAR

STARTCHAR 98
ENCODING 98
SWIDTH 14000 0
DWIDTH 14 0
BBX 14 17 0 -3
BITMAP
0000
0000
0000
C000
C000
C000
FC00
FE00
C300
C300
C300
C300
FE00
FC00
0000
0000
0000
ENDCHAR

STARTCHAR 99
ENCODING 99
SWIDTH 14000 0
DWIDTH 14 0
BBX 14 17 0 -3
BITMAP
0000
0000
0000
0000
0000
0000
3C00
7E00
C300
C300
C000
C000
7F00
3F00
0000
0000
0000
ENDCHAR

STARTCHAR 100
ENCODING 100
SWIDTH 14000 0
DWIDTH 14 0
BBX 14 17 0 -3
BITMAP
0000
0000
0000
0300
0300
0300
3F00
7F00
C300
C300
C300
C300
7F00
3F00
0000
0000
0000
ENDCHAR

STARTCHAR 101
ENCODING 101
SWIDTH 14000 0
DWIDTH 14 0
BBX 14 17 0 -3
BITMAP
0000
0000
0000
0000
0000
0000
3C00
7E00
C300
FF00
FF00
C000
7F00
3F00
0000
0000
0000
ENDCHAR

STARTCHAR 102
ENCODING 102
SWIDTH 14000 0
DWIDTH 14 0
BBX 14 17 0 -3
BITMAP
0000
0000
0000
0700
0F00
1800
3C00
3C00
1800
1800
1800
1800
1800
1800
0000
0000
0000
ENDCHAR

STARTCHAR 103
ENCODING 103
SWIDTH 14000 0
DWIDTH 14 0
BBX 14 17 0 -3
BITMAP
0000
0000
0000
0000
0000
0000
3F00
7F00
C300
C300
C300
C300
7F00
3F00
0300
3E00
3C00
ENDCHAR

STARTCHAR 104
ENCODING 104
SWIDTH 14000 0
DWIDTH 14 0
BBX 14 17 0 -3
BITMAP
0000
0000
0000
C000
C000
C000
FC00
FE00
C300
C300
C300
C300
C300
C300
0000
0000
0000
ENDCHAR

STARTCHAR 105
ENCODING 105
SWIDTH 14000 0
DWIDTH 14 0
BBX 14 17 0 -3
BITMAP
0000
0000
0000
1800
1800
0000
7800
7800
1800
1800
1800
1800
7E00
7E00
0000
0000
0000
ENDCHAR

STARTCHAR 106
ENCODING 106
SWIDTH 14000 0
DWIDTH 14 0
BBX 14 17 0 -3
BITMAP
0000
0000
0000
1800
1800
0000
7800
7800
1800
1800
1800
1800
1800
1800
1800
F000
E000
ENDCHAR

STARTCHAR 107
ENCODING 107
SWIDTH 14000 0
DWIDTH 14 0
BBX 14 17 0 -3
BITMAP
0000
0000
0000
C000
C000
C000
C600
CC00
D800
F000
F800
CC00
C600
C300
0000
0000
0000
ENDCHAR

STARTCHAR 108
ENCODING 108
SWIDTH 14000 0
DWIDTH 14 0
BBX 14 17 0 -3
BITMAP
0000
0000
0000
7800
7800
1800
1800
1800
1800
1800
1800
1800
7E00
7E00
0000
0000
0000
ENDCHAR

STARTCHAR 109
ENCODING 109
SWIDTH 14000 0
DWIDTH 14 0
BBX 14 17 0 -3
BITMAP
0000
0000
0000
0000
0000
0000
FC00
FE00
DB00
DB00
DB00
DB00
DB00
DB00
0000
0000
0000
ENDCHAR

STARTCHAR 110
ENCODING 110
SWIDTH 14000 0
DWIDTH 14 0
BBX 14 17 0 -3
BITMAP
0000
0000
0000
0000
0000
0000
CC00
DE00
F300
E300
C300
C300
C300
C300
0000
0000
0000
ENDCHAR

STARTCHAR 111
ENCODING 111
SWIDTH 14000 0
DWIDTH 14 0
BBX 14 17 0 -3
BITMAP
0000
0000
0000
0000
0000
0000
3C00
7E00
C300
C300
C300
C300
7E00
3C00
0000
0000
0000
ENDCHAR

STARTCHAR 112
ENCODING 112
SWIDTH 14000 0
DWIDTH 14 0
BBX 14 17 0 -3
BITMAP
0000
0000
0000
0000
0000
0000
FC00
FE00
C300
C300
C300
C300
FE00
FC00
C000
C000
C000
ENDCHAR

STARTCHAR 113
ENCODING 113
SWIDTH 14000 0
DWIDTH 14 0
BBX 14 17 0 -3
BITMAP
0000
0000
0000
0000
0000
0000
3F00
7F00
C300
C300
C300
C300
7F00
3F00
0300
0300
0300
ENDCHAR

STARTCHAR 114
ENCODING 114
SWIDTH 14000 0
DWIDTH 14 0
BBX 14 17 0 -3
BITMAP
0000
0000
0000
0000
0000
0000
CC00
DE00
F300
E300
C000
C000
C000
C000
0000
0000
0000
ENDCHAR

STARTCHAR 115
ENCODING 115
SWIDTH 14000 0
DWIDTH 14 0
BBX 14 17 0 -3
BITMAP
0000
0000
0000
0000
0000
0000
3F00
FF00
C000
FC00
3F00
0300
FF00
FC00
0000
0000
0000
ENDCHAR

STARTCHAR 116
ENCODING 116
SWIDTH 14000 0
DWIDTH 14 0
BBX 14 17 0 -3
BITMAP
0000
0000
0000
1800
1800
1800
3C00
3C00
1800
1800
1800
1800
0F00
0700
0000
0000
0000
ENDCHAR

STARTCHAR 117
ENCODING 117
SWIDTH 14000 0
DWIDTH 14 0
BBX 14 17 0 -3
BITMAP
0000
0000
0000
0000
0000
0000
C300
C300
C300
C300
C700
CF00
7B00
3300
0000
0000
0000
ENDCHAR

STARTCHAR 118
ENCODING 118
SWIDTH 14000 0
DWIDTH 14 0
BBX 14 17 0 -3
BITMAP
0000
0000
0000
0000
0000
0000
C300
C300
C300
6600
6600
3C00
3C00
1800
0000
0000
0000
ENDCHAR

STARTCHAR 119
ENCODING 119
SWIDTH 14000 0
DWIDTH 14 0
BBX 14 17 0 -3
BITMAP
0000
0000
0000
0000
0000
0000
DB00
DB00
DB00
DB00
DB00
DB00
FF00
6600
0000
0000
0000
ENDCHAR

STARTCHAR 120
ENCODING 120
SWIDTH 14000 0
DWIDTH 14 0
BBX 14 17 0 -3
BITMAP
0000
0000
0000
0000
0000
0000
C300
6600
3C00
1800
1800
3C00
6600
C300
0000
0000
0000
ENDCHAR

STARTCHAR 121
ENCODING 121
SWIDTH 14000 0
DWIDTH 14 0
BBX 14 17 0 -3
BITMAP
0000
0000
0000
0000
0000
0000
C300
C300
C300
C300
C300
C300
7F00
3F00
0300
3E00
3C00
ENDCHAR

STARTCHAR 122
ENCODING 122
SWIDTH 14000 0
DWIDTH 14 0
BBX 14 17 0 -3
BITMAP
0000
0000
0000
0000
0000
0000
FE00
FE00
0C00
1800
3000
6000
FE00
FE00
0000
0000
0000
ENDCHAR

STARTCHAR 123
ENCODING 123
SWIDTH 14000 0
DWIDTH 14 0
BBX 14 17 0 -3
BITMAP
0C00
1C00
1800
1800
1800
1800
1800
3000
6000
3000
1800
1800
1800
1800
1800
1C00
0C00
ENDCHAR

STARTCHAR 124
ENCODING 124
SWIDTH 14000 0
DWIDTH 14 0
BBX 14 17 0 -3
BITMAP
0000
1800
1800
1800
1800
1800
1800
1800
1800
1800
1800
1800
1800
1800
1800
1800
0000
ENDCHAR

STARTCHAR 125
ENCODING 125
SWIDTH 14000 0
DWIDTH 14 0
BBX 14 17 0 -3
BITMAP
3000
3800
1800
1800
1800
1800
1800
0C00
0600
0C00
1800
1800
1800
1800
1800
3800
3000
ENDCHAR

STARTCHAR 126
ENCODING 126
SWIDTH 14000 0
DWIDTH 14 0
BBX 14 17 0 -3
BITMAP
0000
0000
0000
0000
0000
0000
7100
DB00
8E00
0000
0000
0000
0000
0000
0000
0000
0000
ENDCHAR

STARTCHAR 127
ENCODING 127
SWIDTH 14000 0
DWIDTH 14 0
BBX 14 17 0 -3
BITMAP
0000
0000
0000
0000
0000
0000
0000
0000
0000
0000
0000
0000
0000
0000
0000
0000
0000
ENDCHAR

STARTCHAR 128
ENCODING 128
SWIDTH 14000 0
DWIDTH 14 0
BBX 14 17 0 -3
BITMAP
0000
0000
0000
0000
0000
0000
0000
0000
0000
0000
0000
0000
0000
0000
0000
0000
0000
ENDCHAR

STARTCHAR 129
ENCODING 129
SWIDTH 14000 0
DWIDTH 14 0
BBX 14 17 0 -3
BITMAP
0000
0000
0000
0000
0000
0000
0000
0000
0000
0000
0000
0000
0000
0000
0000
0000
0000
ENDCHAR

STARTCHAR 130
ENCODING 130
SWIDTH 14000 0
DWIDTH 14 0
BBX 14 17 0 -3
BITMAP
0000
0000
0000
0000
0000
0000
0000
0000
0000
0000
0000
3000
3000
3000
6000
C000
0000
ENDCHAR

STARTCHAR 131
ENCODING 131
SWIDTH 14000 0
DWIDTH 14 0
BBX 14 17 0 -3
BITMAP
0700
0F00
1800
1800
1800
1800
3C00
3C00
1800
1800
1800
1800
1800
1800
1800
F000
E000
ENDCHAR

STARTCHAR 132
ENCODING 132
SWIDTH 14000 0
DWIDTH 14 0
BBX 14 17 0 -3
BITMAP
0000
0000
0000
0000
0000
0000
0000
0000
0000
0000
0000
3600
3600
3600
6C00
D800
0000
ENDCHAR

STARTCHAR 133
ENCODING 133
SWIDTH 14000 0
DWIDTH 14 0
BBX 14 17 0 -3
BITMAP
0000
0000
0000
0000
0000
0000
0000
0000
0000
0000
0000
0000
DB00
DB00
0000
0000
0000
ENDCHAR

STARTCHAR 134
ENCODING 134
SWIDTH 14000 0
DWIDTH 14 0
BBX 14 17 0 -3
BITMAP
0000
0000
0000
1800
1800
3C00
3C00
1800
1800
1800
1800
1800
0000
0000
0000
0000
0000
ENDCHAR

STARTCHAR 135
ENCODING 135
SWIDTH 14000 0
DWIDTH 14 0
BBX 14 17 0 -3
BITMAP
0000
0000
0000
1800
1800
3C00
3C00
1800
3C00
3C00
1800
1800
0000
0000
0000
0000
0000
ENDCHAR

STARTCHAR 136
ENCODING 136
SWIDTH 14000 0
DWIDTH 14 0
BBX 14 17 0 -3
BITMAP
0000
1800
3C00
6600
0000
0000
0000
0000
0000
0000
0000
0000
0000
0000
0000
0000
0000
ENDCHAR

STARTCHAR 137
ENCODING 137
SWIDTH 14000 0
DWIDTH 14 0
BBX 14 17 0 -3
BITMAP
0000
3F80
7F80
D980
DB00
DE00
7C00
3800
3F00
7F80
D680
9680
1F80
0F00
0000
0000
0000
ENDCHAR

STARTCHAR 138
ENCODING 138
SWIDTH 14000 0
DWIDTH 14 0
BBX 14 17 0 -3
BITMAP
6600
3C00
1800
3C00
7E00
C300
C000
7C00
3E00
0700
C300
C300
7E00
3C00
0000
0000
0000
ENDCHAR

STARTCHAR 139
ENCODING 139
SWIDTH 14000 0
DWIDTH 14 0
BBX 14 17 0 -3
BITMAP
0000
0000
0000
0000
0000
0000
0000
3000
6000
C000
C000
C000
6000
3000
0000
0000
0000
ENDCHAR

STARTCHAR 140
ENCODING 140
SWIDTH 14000 0
DWIDTH 14 0
BBX 14 17 0 -3
BITMAP
0000
0000
0000
3F00
7F00
D800
D800
DC00
DC00
D800
D800
D800
7F00
3F00
0000
0000
0000
ENDCHAR

STARTCHAR 141
ENCODING 141
SWIDTH 14000 0
DWIDTH 14 0
BBX 14 17 0 -3
BITMAP
0000
0000
0000
0000
0000
0000
0000
0000
0000
0000
0000
0000
0000
0000
0000
0000
0000
ENDCHAR

STARTCHAR 142
ENCODING 142
SWIDTH 14000 0
DWIDTH 14 0
BBX 14 17 0 -3
BITMAP
0000
0000
0000
0000
0000
0000
0000
0000
0000
0000
0000
0000
0000
0000
0000
0000
0000
ENDCHAR

STARTCHAR 143
ENCODING 143
SWIDTH 14000 0
DWIDTH 14 0
BBX 14 17 0 -3
BITMAP
0000
0000
0000
0000
0000
0000
0000
0000
0000
0000
0000
0000
0000
0000
0000
0000
0000
ENDCHAR

STARTCHAR 144
ENCODING 144
SWIDTH 14000 0
DWIDTH 14 0
BBX 14 17 0 -3
BITMAP
0000
0000
0000
0000
0000
0000
0000
0000
0000
0000
0000
0000
0000
0000
0000
0000
0000
ENDCHAR

STARTCHAR 145
ENCODING 145
SWIDTH 14000 0
DWIDTH 14 0
BBX 14 17 0 -3
BITMAP
0000
0000
0000
0600
0C00
1800
1800
1800
0000
0000
0000
0000
0000
0000
0000
0000
0000
ENDCHAR

STARTCHAR 146
ENCODING 146
SWIDTH 14000 0
DWIDTH 14 0
BBX 14 17 0 -3
BITMAP
0000
0000
0000
0600
0600
0600
0C00
1800
0000
0000
0000
0000
0000
0000
0000
0000
0000
ENDCHAR

STARTCHAR 147
ENCODING 147
SWIDTH 14000 0
DWIDTH 14 0
BBX 14 17 0 -3
BITMAP
0000
0000
0000
1B00
3600
6C00
6C00
6C00
0000
0000
0000
0000
0000
0000
0000
0000
0000
ENDCHAR

STARTCHAR 148
ENCODING 148
SWIDTH 14000 0
DWIDTH 14 0
BBX 14 17 0 -3
BITMAP
0000
0000
0000
1B00
1B00
1B00
3600
6C00
0000
0000
0000
0000
0000
0000
0000
0000
0000
ENDCHAR

STARTCHAR 149
ENCODING 149
SWIDTH 14000 0
DWIDTH 14 0
BBX 14 17 0 -3
BITMAP
0000
0000
0000
0000
0000
3800
7C00
FE00
FE00
FE00
7C00
3800
0000
0000
0000
0000
0000
ENDCHAR

STARTCHAR 150
ENCODING 150
SWIDTH 14000 0
DWIDTH 14 0
BBX 14 17 0 -3
BITMAP
0000
0000
0000
0000
0000
0000
0000
3E00
3E00
0000
0000
0000
0000
0000
0000
0000
0000
ENDCHAR

STARTCHAR 151
ENCODING 151
SWIDTH 14000 0
DWIDTH 14 0
BBX 14 17 0 -3
BITMAP
0000
0000
0000
0000
0000
0000
0000
FF80
FF80
0000
0000
0000
0000
0000
0000
0000
0000
ENDCHAR

STARTCHAR 152
ENCODING 152
SWIDTH 14000 0
DWIDTH 14 0
BBX 14 17 0 -3
BITMAP
0000
0000
7100
DB00
8E00
0000
0000
0000
0000
0000
0000
0000
0000
0000
0000
0000
0000
ENDCHAR

STARTCHAR 153
ENCODING 153
SWIDTH 14000 0
DWIDTH 14 0
BBX 14 17 0 -3
BITMAP
0000
0000
0000
FC80
2780
2780
2480
2480
0000
0000
0000
0000
0000
0000
0000
0000
0000
ENDCHAR

STARTCHAR 154
ENCODING 154
SWIDTH 14000 0
DWIDTH 14 0
BBX 14 17 0 -3
BITMAP
0000
6600
3C00
1800
0000
0000
3F00
FF00
C000
FC00
3F00
0300
FF00
FC00
0000
0000
0000
ENDCHAR

STARTCHAR 155
ENCODING 155
SWIDTH 14000 0
DWIDTH 14 0
BBX 14 17 0 -3
BITMAP
0000
0000
0000
0000
0000
0000
0000
C000
6000
3000
3000
3000
6000
C000
0000
0000
0000
ENDCHAR

STARTCHAR 156
ENCODING 156
SWIDTH 14000 0
DWIDTH 14 0
BBX 14 17 0 -3
BITMAP
0000
0000
0000
0000
0000
0000
2400
7E00
DB00
DF00
DF00
D800
7F00
2700
0000
0000
0000
ENDCHAR

STARTCHAR 157
ENCODING 157
SWIDTH 14000 0
DWIDTH 14 0
BBX 14 17 0 -3
BITMAP
0000
0000
0000
0000
0000
0000
0000
0000
0000
0000
0000
0000
0000
0000
0000
0000
0000
ENDCHAR

STARTCHAR 158
ENCODING 158
SWIDTH 14000 0
DWIDTH 14 0
BBX 14 17 0 -3
BITMAP
0000
0000
0000
0000
0000
0000
0000
0000
0000
0000
0000
0000
0000
0000
0000
0000
0000
ENDCHAR

STARTCHAR 159
ENCODING 159
SWIDTH 14000 0
DWIDTH 14 0
BBX 14 17 0 -3
BITMAP
6600
6600
0000
C300
C300
C300
C300
E700
7E00
3C00
1800
1800
1800
1800
0000
0000
0000
ENDCHAR

STARTCHAR 160
ENCODING 160
SWIDTH 14000 0
DWIDTH 14 0
BBX 14 17 0 -3
BITMAP
0000
0000
0000
0000
0000
0000
0000
0000
0000
0000
0000
0000
0000
0000
0000
0000
0000
ENDCHAR

STARTCHAR 161
ENCODING 161
SWIDTH 14000 0
DWIDTH 14 0
BBX 14 17 0 -3
BITMAP
0000
0000
0000
0600
0600
0000
0600
0600
0600
0600
0600
0600
0600
0600
0000
0000
0000
ENDCHAR

STARTCHAR 162
ENCODING 162
SWIDTH 14000 0
DWIDTH 14 0
BBX 14 17 0 -3
BITMAP
0000
0000
0000
0000
1800
1800
3C00
7E00
DB00
DB00
D800
D800
7F00
3F00
1800
1800
0000
ENDCHAR

STARTCHAR 163
ENCODING 163
SWIDTH 14000 0
DWIDTH 14 0
BBX 14 17 0 -3
BITMAP
0000
0000
7800
FC00
CC00
C000
F000
F000
C000
C000
C000
C700
FE00
FC00
0000
0000
0000
ENDCHAR

STARTCHAR 164
ENCODING 164
SWIDTH 14000 0
DWIDTH 14 0
BBX 14 17 0 -3
BITMAP
0000
0000
0000
0000
0000
0000
8100
4200
3C00
2400
2400
3C00
4200
8100
0000
0000
0000
ENDCHAR

STARTCHAR 165
ENCODING 165
SWIDTH 14000 0
DWIDTH 14 0
BBX 14 17 0 -3
BITMAP
0000
0000
0000
C300
6600
3C00
FF00
FF00
1800
FF00
FF00
1800
1800
1800
0000
0000
0000
ENDCHAR

STARTCHAR 166
ENCODING 166
SWIDTH 14000 0
DWIDTH 14 0
BBX 14 17 0 -3
BITMAP
0000
1800
1800
1800
1800
1800
1800
0000
0000
0000
1800
1800
1800
1800
1800
1800
0000
ENDCHAR

STARTCHAR 167
ENCODING 167
SWIDTH 14000 0
DWIDTH 14 0
BBX 14 17 0 -3
BITMAP
3C00
7E00
6300
6300
3300
D800
CC00
C600
6300
3300
1B00
CC00
C600
C600
7E00
3C00
0000
ENDCHAR

STARTCHAR 168
ENCODING 168
SWIDTH 14000 0
DWIDTH 14 0
BBX 14 17 0 -3
BITMAP
0000
0000
0000
2400
3C00
0000
0000
0000
0000
0000
0000
0000
0000
0000
0000
0000
0000
ENDCHAR

STARTCHAR 169
ENCODING 169
SWIDTH 14000 0
DWIDTH 14 0
BBX 14 17 0 -3
BITMAP
0000
0000
0000
7800
FC00
8600
7B00
FB00
C300
FB00
7B00
8600
FC00
7800
0000
0000
0000
ENDCHAR

STARTCHAR 170
ENCODING 170
SWIDTH 14000 0
DWIDTH 14 0
BBX 14 17 0 -3
BITMAP
0F00
1F00
3300
3300
1F00
0F00
0000
3F00
3F00
0000
0000
0000
0000
0000
0000
0000
0000
ENDCHAR

STARTCHAR 171
ENCODING 171
SWIDTH 14000 0
DWIDTH 14 0
BBX 14 17 0 -3
BITMAP
0000
0000
0000
0000
0000
0000
0000
3300
6600
CC00
CC00
CC00
6600
3300
0000
0000
0000
ENDCHAR

STARTCHAR 172
ENCODING 172
SWIDTH 14000 0
DWIDTH 14 0
BBX 14 17 0 -3
BITMAP
0000
0000
0000
0000
0000
0000
0000
0000
FF00
FF00
0300
0300
0000
0000
0000
0000
0000
ENDCHAR

STARTCHAR 173
ENCODING 173
SWIDTH 14000 0
DWIDTH 14 0
BBX 14 17 0 -3
BITMAP
0000
0000
0000
0000
0000
0000
0000
0000
FF00
FF00
0000
0000
0000
0000
0000
0000
0000
ENDCHAR

STARTCHAR 174
ENCODING 174
SWIDTH 14000 0
DWIDTH 14 0
BBX 14 17 0 -3
BITMAP
0000
0000
0000
F800
FC00
0600
F300
FB00
DB00
F300
FB00
DE00
CC00
0000
0000
0000
0000
ENDCHAR

STARTCHAR 175
ENCODING 175
SWIDTH 14000 0
DWIDTH 14 0
BBX 14 17 0 -3
BITMAP
0000
0000
0000
3E00
3E00
0000
0000
0000
0000
0000
0000
0000
0000
0000
0000
0000
0000
ENDCHAR

STARTCHAR 176
ENCODING 176
SWIDTH 14000 0
DWIDTH 14 0
BBX 14 17 0 -3
BITMAP
0000
0000
0C00
1E00
3300
3300
1E00
0C00
0000
0000
0000
0000
0000
0000
0000
0000
0000
ENDCHAR

STARTCHAR 177
ENCODING 177
SWIDTH 14000 0
DWIDTH 14 0
BBX 14 17 0 -3
BITMAP
0000
0000
0000
0000
0000
1800
1800
1800
FF00
FF00
1800
1800
FF00
FF00
0000
0000
0000
ENDCHAR

STARTCHAR 178
ENCODING 178
SWIDTH 14000 0
DWIDTH 14 0
BBX 14 17 0 -3
BITMAP
1800
2400
0400
0800
1000
3C00
0000
0000
0000
0000
0000
0000
0000
0000
0000
0000
0000
ENDCHAR

STARTCHAR 179
ENCODING 179
SWIDTH 14000 0
DWIDTH 14 0
BBX 14 17 0 -3
BITMAP
1800
2400
0800
0400
2400
1800
0000
0000
0000
0000
0000
0000
0000
0000
0000
0000
0000
ENDCHAR

STARTCHAR 180
ENCODING 180
SWIDTH 14000 0
DWIDTH 14 0
BBX 14 17 0 -3
BITMAP
0000
0600
0E00
1C00
1800
0000
0000
0000
0000
0000
0000
0000
0000
0000
0000
0000
0000
ENDCHAR

STARTCHAR 181
ENCODING 181
SWIDTH 14000 0
DWIDTH 14 0
BBX 14 17 0 -3
BITMAP
0000
0000
0000
0000
0000
0000
CC00
CC00
CC00
CC00
CC00
CC00
FF00
F300
C000
C000
C000
ENDCHAR

STARTCHAR 182
ENCODING 182
SWIDTH 14000 0
DWIDTH 14 0
BBX 14 17 0 -3
BITMAP
0000
3F00
7F00
DB00
DB00
DB00
DB00
7F00
3F00
1B00
1B00
1B00
1B00
1B00
0000
0000
0000
ENDCHAR

STARTCHAR 183
ENCODING 183
SWIDTH 14000 0
DWIDTH 14 0
BBX 14 17 0 -3
BITMAP
0000
0000
0000
0000
0000
0000
0000
1C00
1C00
1C00
0000
0000
0000
0000
0000
0000
0000
ENDCHAR

STARTCHAR 184
ENCODING 184
SWIDTH 14000 0
DWIDTH 14 0
BBX 14 17 0 -3
BITMAP
0000
0000
0000
0000
0000
0000
0000
0000
0000
0000
0000
0000
3800
3800
1800
3000
6000
ENDCHAR

STARTCHAR 185
ENCODING 185
SWIDTH 14000 0
DWIDTH 14 0
BBX 14 17 0 -3
BITMAP
1800
0800
0800
0800
0800
1C00
0000
0000
0000
0000
0000
0000
0000
0000
0000
0000
0000
ENDCHAR

STARTCHAR 186
ENCODING 186
SWIDTH 14000 0
DWIDTH 14 0
BBX 14 17 0 -3
BITMAP
0C00
1E00
3300
3300
1E00
0C00
0000
3F00
3F00
0000
0000
0000
0000
0000
0000
0000
0000
ENDCHAR

STARTCHAR 187
ENCODING 187
SWIDTH 14000 0
DWIDTH 14 0
BBX 14 17 0 -3
BITMAP
0000
0000
0000
0000
0000
0000
0000
CC00
6600
3300
3300
3300
6600
CC00
0000
0000
0000
ENDCHAR

STARTCHAR 188
ENCODING 188
SWIDTH 14000 0
DWIDTH 14 0
BBX 14 17 0 -3
BITMAP
6000
2000
2000
2080
2100
7200
0400
0800
1100
2300
4500
8900
0F80
0100
0000
0000
0000
ENDCHAR

STARTCHAR 189
ENCODING 189
SWIDTH 14000 0
DWIDTH 14 0
BBX 14 17 0 -3
BITMAP
6000
2000
2000
2080
2100
7200
0400
0800
1300
2480
4080
8100
0200
0780
0000
0000
0000
ENDCHAR

STARTCHAR 190
ENCODING 190
SWIDTH 14000 0
DWIDTH 14 0
BBX 14 17 0 -3
BITMAP
3000
4800
1000
0880
4900
3200
0400
0800
1100
2300
4500
8900
0F80
0100
0000
0000
0000
ENDCHAR

STARTCHAR 191
ENCODING 191
SWIDTH 14000 0
DWIDTH 14 0
BBX 14 17 0 -3
BITMAP
0000
0000
0000
1800
1800
0000
0800
1800
3000
6000
C300
C300
7E00
3C00
0000
0000
0000
ENDCHAR

STARTCHAR 192
ENCODING 192
SWIDTH 14000 0
DWIDTH 14 0
BBX 14 17 0 -3
BITMAP
6000
3000
1800
1800
3C00
3C00
6600
6600
C300
FF00
FF00
C300
C300
C300
0000
0000
0000
ENDCHAR

STARTCHAR 193
ENCODING 193
SWIDTH 14000 0
DWIDTH 14 0
BBX 14 17 0 -3
BITMAP
0600
0C00
1800
1800
3C00
3C00
6600
6600
C300
FF00
FF00
C300
C300
C300
0000
0000
0000
ENDCHAR

STARTCHAR 194
ENCODING 194
SWIDTH 14000 0
DWIDTH 14 0
BBX 14 17 0 -3
BITMAP
1800
3C00
6600
1800
3C00
3C00
6600
6600
C300
FF00
FF00
C300
C300
C300
0000
0000
0000
ENDCHAR

STARTCHAR 195
ENCODING 195
SWIDTH 14000 0
DWIDTH 14 0
BBX 14 17 0 -3
BITMAP
7300
DB00
8E00
1800
3C00
3C00
6600
6600
C300
FF00
FF00
C300
C300
C300
0000
0000
0000
ENDCHAR

STARTCHAR 196
ENCODING 196
SWIDTH 14000 0
DWIDTH 14 0
BBX 14 17 0 -3
BITMAP
6600
6600
0000
1800
3C00
3C00
6600
6600
C300
FF00
FF00
C300
C300
C300
0000
0000
0000
ENDCHAR

STARTCHAR 197
ENCODING 197
SWIDTH 14000 0
DWIDTH 14 0
BBX 14 17 0 -3
BITMAP
1800
3C00
2400
3C00
1800
3C00
6600
6600
C300
FF00
FF00
C300
C300
C300
0000
0000
0000
ENDCHAR

STARTCHAR 198
ENCODING 198
SWIDTH 14000 0
DWIDTH 14 0
BBX 14 17 0 -3
BITMAP
0000
0000
0000
3F00
7F00
D800
D800
FC00
FC00
D800
D800
D800
DF00
DF00
0000
0000
0000
ENDCHAR

STARTCHAR 199
ENCODING 199
SWIDTH 14000 0
DWIDTH 14 0
BBX 14 17 0 -3
BITMAP
0000
0000
0000
3C00
7E00
C300
C300
C000
C000
C000
C300
C300
7E00
3C00
1800
3000
6000
ENDCHAR

STARTCHAR 200
ENCODING 200
SWIDTH 14000 0
DWIDTH 14 0
BBX 14 17 0 -3
BITMAP
6000
3000
1800
FF00
FF00
C000
C000
FC00
FC00
C000
C000
C000
FF00
FF00
0000
0000
0000
ENDCHAR

STARTCHAR 201
ENCODING 201
SWIDTH 14000 0
DWIDTH 14 0
BBX 14 17 0 -3
BITMAP
0600
0C00
1800
FF00
FF00
C000
C000
FC00
FC00
C000
C000
C000
FF00
FF00
0000
0000
0000
ENDCHAR

STARTCHAR 202
ENCODING 202
SWIDTH 14000 0
DWIDTH 14 0
BBX 14 17 0 -3
BITMAP
1800
3C00
6600
FF00
FF00
C000
C000
FC00
FC00
C000
C000
C000
FF00
FF00
0000
0000
0000
ENDCHAR

STARTCHAR 203
ENCODING 203
SWIDTH 14000 0
DWIDTH 14 0
BBX 14 17 0 -3
BITMAP
6600
6600
0000
FF00
FF00
C000
C000
FC00
FC00
C000
C000
C000
FF00
FF00
0000
0000
0000
ENDCHAR

STARTCHAR 204
ENCODING 204
SWIDTH 14000 0
DWIDTH 14 0
BBX 14 17 0 -3
BITMAP
6000
3000
1800
FF00
FF00
1800
1800
1800
1800
1800
1800
1800
FF00
FF00
0000
0000
0000
ENDCHAR

STARTCHAR 205
ENCODING 205
SWIDTH 14000 0
DWIDTH 14 0
BBX 14 17 0 -3
BITMAP
0600
0C00
1800
FF00
FF00
1800
1800
1800
1800
1800
1800
1800
FF00
FF00
0000
0000
0000
ENDCHAR

STARTCHAR 206
ENCODING 206
SWIDTH 14000 0
DWIDTH 14 0
BBX 14 17 0 -3
BITMAP
1800
3C00
6600
FF00
FF00
1800
1800
1800
1800
1800
1800
1800
FF00
FF00
0000
0000
0000
ENDCHAR

STARTCHAR 207
ENCODING 207
SWIDTH 14000 0
DWIDTH 14 0
BBX 14 17 0 -3
BITMAP
6600
6600
0000
FF00
FF00
1800
1800
1800
1800
1800
1800
1800
FF00
FF00
0000
0000
0000
ENDCHAR

STARTCHAR 208
ENCODING 208
SWIDTH 14000 0
DWIDTH 14 0
BBX 14 17 0 -3
BITMAP
0000
0000
0000
7C00
7E00
6300
6300
F300
F300
6300
6300
6300
7E00
7C00
0000
0000
0000
ENDCHAR

STARTCHAR 209
ENCODING 209
SWIDTH 14000 0
DWIDTH 14 0
BBX 14 17 0 -3
BITMAP
7100
DB00
8E00
C300
E300
F300
DB00
CF00
C700
C300
C300
C300
C300
C300
0000
0000
0000
ENDCHAR

STARTCHAR 210
ENCODING 210
SWIDTH 14000 0
DWIDTH 14 0
BBX 14 17 0 -3
BITMAP
6000
3000
1800
3C00
7E00
C300
C300
C300
C300
C300
C300
C300
7E00
3C00
0000
0000
0000
ENDCHAR

STARTCHAR 211
ENCODING 211
SWIDTH 14000 0
DWIDTH 14 0
BBX 14 17 0 -3
BITMAP
0600
0C00
1800
3C00
7E00
C300
C300
C300
C300
C300
C300
C300
7E00
3C00
0000
0000
0000
ENDCHAR

STARTCHAR 212
ENCODING 212
SWIDTH 14000 0
DWIDTH 14 0
BBX 14 17 0 -3
BITMAP
1800
3C00
6600
0000
3C00
7E00
C300
C300
C300
C300
C300
C300
7E00
3C00
0000
0000
0000
ENDCHAR

STARTCHAR 213
ENCODING 213
SWIDTH 14000 0
DWIDTH 14 0
BBX 14 17 0 -3
BITMAP
7100
DB00
8E00
3C00
7E00
C300
C300
C300
C300
C300
C300
C300
7E00
3C00
0000
0000
0000
ENDCHAR

STARTCHAR 214
ENCODING 214
SWIDTH 14000 0
DWIDTH 14 0
BBX 14 17 0 -3
BITMAP
6600
6600
0000
3C00
7E00
C300
C300
C300
C300
C300
C300
C300
7E00
3C00
0000
0000
0000
ENDCHAR

STARTCHAR 215
ENCODING 215
SWIDTH 14000 0
DWIDTH 14 0
BBX 14 17 0 -3
BITMAP
0000
0000
0000
0000
0000
C300
6600
3C00
1800
3C00
6600
C300
0000
0000
0000
0000
0000
ENDCHAR

STARTCHAR 216
ENCODING 216
SWIDTH 14000 0
DWIDTH 14 0
BBX 14 17 0 -3
BITMAP
0000
0000
0000
3C00
7E00
C300
C700
CF00
DB00
F300
E300
C300
7E00
3C00
0000
0000
0000
ENDCHAR

STARTCHAR 217
ENCODING 217
SWIDTH 14000 0
DWIDTH 14 0
BBX 14 17 0 -3
BITMAP
6000
3000
1800
C300
C300
C300
C300
C300
C300
C300
C300
C300
7E00
3C00
0000
0000
0000
ENDCHAR

STARTCHAR 218
ENCODING 218
SWIDTH 14000 0
DWIDTH 14 0
BBX 14 17 0 -3
BITMAP
0600
0C00
1800
C300
C300
C300
C300
C300
C300
C300
C300
C300
7E00
3C00
0000
0000
0000
ENDCHAR

STARTCHAR 219
ENCODING 219
SWIDTH 14000 0
DWIDTH 14 0
BBX 14 17 0 -3
BITMAP
1800
3C00
6600
0000
C300
C300
C300
C300
C300
C300
C300
C300
7E00
3C00
0000
0000
0000
ENDCHAR

STARTCHAR 220
ENCODING 220
SWIDTH 14000 0
DWIDTH 14 0
BBX 14 17 0 -3
BITMAP
6600
6600
0000
C300
C300
C300
C300
C300
C300
C300
C300
C300
7E00
3C00
0000
0000
0000
ENDCHAR

STARTCHAR 221
ENCODING 221
SWIDTH 14000 0
DWIDTH 14 0
BBX 14 17 0 -3
BITMAP
0600
0C00
1800
C300
C300
C300
C300
E700
7E00
3C00
1800
1800
1800
1800
0000
0000
0000
ENDCHAR

STARTCHAR 222
ENCODING 222
SWIDTH 14000 0
DWIDTH 14 0
BBX 14 17 0 -3
BITMAP
0000
0000
0000
C000
C000
FC00
FE00
C300
C300
FE00
FC00
C000
C000
C000
0000
0000
0000
ENDCHAR

STARTCHAR 223
ENCODING 223
SWIDTH 14000 0
DWIDTH 14 0
BBX 14 17 0 -3
BITMAP
0000
1C00
3E00
6300
C300
C300
C600
CC00
CC00
C600
C300
C300
DE00
DC00
C000
C000
0000
ENDCHAR

STARTCHAR 224
ENCODING 224
SWIDTH 14000 0
DWIDTH 14 0
BBX 14 17 0 -3
BITMAP
0000
1000
1800
0C00
0400
0000
3F00
7F00
C300
C300
C700
CF00
7B00
3300
0000
0000
0000
ENDCHAR

STARTCHAR 225
ENCODING 225
SWIDTH 14000 0
DWIDTH 14 0
BBX 14 17 0 -3
BITMAP
0000
0400
0C00
1800
1000
0000
3F00
7F00
C300
C300
C700
CF00
7B00
3300
0000
0000
0000
ENDCHAR

STARTCHAR 226
ENCODING 226
SWIDTH 14000 0
DWIDTH 14 0
BBX 14 17 0 -3
BITMAP
0000
0000
1800
3C00
6600
0000
3F00
7F00
C300
C300
C700
CF00
7B00
3300
0000
0000
0000
ENDCHAR

STARTCHAR 227
ENCODING 227
SWIDTH 14000 0
DWIDTH 14 0
BBX 14 17 0 -3
BITMAP
0000
0000
7100
DB00
8E00
0000
3F00
7F00
C300
C300
C700
CF00
7B00
3300
0000
0000
0000
ENDCHAR

STARTCHAR 228
ENCODING 228
SWIDTH 14000 0
DWIDTH 14 0
BBX 14 17 0 -3
BITMAP
0000
0000
0000
6600
6600
0000
3F00
7F00
C300
C300
C700
CF00
7B00
3300
0000
0000
0000
ENDCHAR

STARTCHAR 229
ENCODING 229
SWIDTH 14000 0
DWIDTH 14 0
BBX 14 17 0 -3
BITMAP
0000
0000
1800
2400
2400
1800
3F00
7F00
C300
C300
C700
CF00
7B00
3300
0000
0000
0000
ENDCHAR

STARTCHAR 230
ENCODING 230
SWIDTH 14000 0
DWIDTH 14 0
BBX 14 17 0 -3
BITMAP
0000
0000
0000
0000
0000
0000
3C00
7E00
DB00
DF00
DF00
D800
7F00
3F00
0000
0000
0000
ENDCHAR

STARTCHAR 231
ENCODING 231
SWIDTH 14000 0
DWIDTH 14 0
BBX 14 17 0 -3
BITMAP
0000
0000
0000
0000
0000
0000
3C00
7E00
C300
C300
C000
C000
7F00
3F00
1800
3000
6000
ENDCHAR

STARTCHAR 232
ENCODING 232
SWIDTH 14000 0
DWIDTH 14 0
BBX 14 17 0 -3
BITMAP
0000
2000
3000
1800
0800
0000
3C00
7E00
C300
FF00
FF00
C000
7F00
3F00
0000
0000
0000
ENDCHAR

STARTCHAR 233
ENCODING 233
SWIDTH 14000 0
DWIDTH 14 0
BBX 14 17 0 -3
BITMAP
0000
0400
0C00
1800
1000
0000
3C00
7E00
C300
FF00
FF00
C000
7F00
3F00
0000
0000
0000
ENDCHAR

STARTCHAR 234
ENCODING 234
SWIDTH 14000 0
DWIDTH 14 0
BBX 14 17 0 -3
BITMAP
0000
0000
1800
3C00
6600
0000
3C00
7E00
C300
FF00
FF00
C000
7F00
3F00
0000
0000
0000
ENDCHAR

STARTCHAR 235
ENCODING 235
SWIDTH 14000 0
DWIDTH 14 0
BBX 14 17 0 -3
BITMAP
0000
0000
0000
6600
6600
0000
3C00
7E00
C300
FF00
FF00
C000
7F00
3F00
0000
0000
0000
ENDCHAR

STARTCHAR 236
ENCODING 236
SWIDTH 14000 0
DWIDTH 14 0
BBX 14 17 0 -3
BITMAP
0000
4000
6000
3000
1000
0000
7800
7800
1800
1800
1800
1800
7E00
7E00
0000
0000
0000
ENDCHAR

STARTCHAR 237
ENCODING 237
SWIDTH 14000 0
DWIDTH 14 0
BBX 14 17 0 -3
BITMAP
0000
0400
0C00
1800
1000
0000
7800
7800
1800
1800
1800
1800
7E00
7E00
0000
0000
0000
ENDCHAR

STARTCHAR 238
ENCODING 238
SWIDTH 14000 0
DWIDTH 14 0
BBX 14 17 0 -3
BITMAP
0000
0000
1800
3C00
6600
0000
7800
7800
1800
1800
1800
1800
7E00
7E00
0000
0000
0000
ENDCHAR

STARTCHAR 239
ENCODING 239
SWIDTH 14000 0
DWIDTH 14 0
BBX 14 17 0 -3
BITMAP
0000
0000
0000
6600
6600
0000
7800
7800
1800
1800
1800
1800
7E00
7E00
0000
0000
0000
ENDCHAR

STARTCHAR 240
ENCODING 240
SWIDTH 14000 0
DWIDTH 14 0
BBX 14 17 0 -3
BITMAP
0000
4800
3000
3000
4800
0400
3E00
7F00
C300
C300
C300
C300
7E00
3C00
0000
0000
0000
ENDCHAR

STARTCHAR 241
ENCODING 241
SWIDTH 14000 0
DWIDTH 14 0
BBX 14 17 0 -3
BITMAP
0000
0000
7100
DB00
8E00
0000
CC00
DE00
F300
E300
C300
C300
C300
C300
0000
0000
0000
ENDCHAR

STARTCHAR 242
ENCODING 242
SWIDTH 14000 0
DWIDTH 14 0
BBX 14 17 0 -3
BITMAP
0000
2000
3000
1800
0800
0000
3C00
7E00
C300
C300
C300
C300
7E00
3C00
0000
0000
0000
ENDCHAR

STARTCHAR 243
ENCODING 243
SWIDTH 14000 0
DWIDTH 14 0
BBX 14 17 0 -3
BITMAP
0000
0400
0C00
1800
1000
0000
3C00
7E00
C300
C300
C300
C300
7E00
3C00
0000
0000
0000
ENDCHAR

STARTCHAR 244
ENCODING 244
SWIDTH 14000 0
DWIDTH 14 0
BBX 14 17 0 -3
BITMAP
0000
0000
1800
3C00
6600
0000
3C00
7E00
C300
C300
C300
C300
7E00
3C00
0000
0000
0000
ENDCHAR

STARTCHAR 245
ENCODING 245
SWIDTH 14000 0
DWIDTH 14 0
BBX 14 17 0 -3
BITMAP
0000
0000
7100
DB00
8E00
0000
3C00
7E00
C300
C300
C300
C300
7E00
3C00
0000
0000
0000
ENDCHAR

STARTCHAR 246
ENCODING 246
SWIDTH 14000 0
DWIDTH 14 0
BBX 14 17 0 -3
BITMAP
0000
0000
0000
6600
6600
0000
3C00
7E00
C300
C300
C300
C300
7E00
3C00
0000
0000
0000
ENDCHAR

STARTCHAR 247
ENCODING 247
SWIDTH 14000 0
DWIDTH 14 0
BBX 14 17 0 -3
BITMAP
0000
0000
0000
0000
1800
1800
0000
FF00
FF00
0000
1800
1800
0000
0000
0000
0000
0000
ENDCHAR

STARTCHAR 248
ENCODING 248
SWIDTH 14000 0
DWIDTH 14 0
BBX 14 17 0 -3
BITMAP
0000
0000
0000
0000
0000
0000
3C00
7E00
C700
CF00
F300
E300
7E00
3C00
0000
0000
0000
ENDCHAR

STARTCHAR 249
ENCODING 249
SWIDTH 14000 0
DWIDTH 14 0
BBX 14 17 0 -3
BITMAP
0000
2000
3000
1800
0800
0000
C300
C300
C300
C300
C700
CF00
7B00
3300
0000
0000
0000
ENDCHAR

STARTCHAR 250
ENCODING 250
SWIDTH 14000 0
DWIDTH 14 0
BBX 14 17 0 -3
BITMAP
0000
0400
0C00
1800
1000
0000
C300
C300
C300
C300
C700
CF00
7B00
3300
0000
0000
0000
ENDCHAR

STARTCHAR 251
ENCODING 251
SWIDTH 14000 0
DWIDTH 14 0
BBX 14 17 0 -3
BITMAP
0000
0000
1800
3C00
6600
0000
C300
C300
C300
C300
C700
CF00
7B00
3300
0000
0000
0000
ENDCHAR

STARTCHAR 252
ENCODING 252
SWIDTH 14000 0
DWIDTH 14 0
BBX 14 17 0 -3
BITMAP
0000
0000
0000
6600
6600
0000
C300
C300
C300
C300
C700
CF00
7B00
3300
0000
0000
0000
ENDCHAR

STARTCHAR 253
ENCODING 253
SWIDTH 14000 0
DWIDTH 14 0
BBX 14 17 0 -3
BITMAP
0000
0400
0C00
1800
1000
0000
C300
C300
C300
C300
C300
C300
7F00
3F00
0300
3E00
3C00
ENDCHAR

STARTCHAR 254
ENCODING 254
SWIDTH 14000 0
DWIDTH 14 0
BBX 14 17 0 -3
BITMAP
0000
0000
0000
C000
C000
C000
FC00
FE00
C300
C300
C300
C300
FE00
FC00
C000
C000
C000
ENDCHAR

STARTCHAR 255
ENCODING 255
SWIDTH 14000 0
DWIDTH 14 0
BBX 14 17 0 -3
BITMAP
0000
0000
0000
6600
6600
0000
C300
C300
C300
C300
C300
C300
7F00
3F00
0300
3E00
3C00
ENDCHAR

ENDFONT
