STARTFONT 2.1
COMMENT by Uwe Freese, mail@uwe-freese.de 09/2002. V1.1
COMMENT
COMMENT This font was originally converted from the old RockBox
COMMENT proportional font that was saved in arrays of columns.
COMMENT After conversion, many characters have changed for better
COMMENT readability, some characters were added and the digits
COMMENT changed to have the same width.
COMMENT
COMMENT If someone finds errors (especially in the first font definition
COMMENT lines), please let me know it.
COMMENT  
COMMENT Permission to use, copy, modify, and distribute this 
COMMENT software for any purpose and without fee is hereby granted, 
COMMENT provided that the above copyright notice appear in all 
COMMENT copies and that both that copyright notice and this 
COMMENT permission notice appear in supporting documentation, and 
COMMENT that the name of Uwe Freese not be used in advertising or 
COMMENT publicity pertaining to distribution of the software without 
COMMENT specific, written prior permission. Uwe Freese makes no 
COMMENT representations about the suitability of this software for 
COMMENT any purpose. It is provided "as is" without express or 
COMMENT implied warranty.
COMMENT
FONT -rockbox-prop-font-iso8859-1
SIZE 8 100 100
FONTBOUNDINGBOX 8 8 0 0
STARTPROPERTIES 20
SPACING "P"
CHARSET_REGISTRY "iso8859-1"
CHARSET_ENCODING "1"
POINT_SIZE 90
WEIGHT 10
RESOLUTION_X 100
RESOLUTION_Y 100
DEFAULT_CHAR 32
FONT_DESCENT 0
FONT_ASCENT 8
_XMBDFED_INFO "Edited with UltraEdit ;)"
AVERAGE_WIDTH 80
FOUNDRY "classic"
FAMILY_NAME "rockbox-prop-font"
WEIGHT_NAME "medium"
SLANT "R"
SETWIDTH_NAME "normal"
ADD_STYLE_NAME ""
PIXEL_SIZE 8
ENDPROPERTIES
CHARS 190
STARTCHAR space
ENCODING 32
SWIDTH 720 0
DWIDTH 5 0
BBX 5 8 0 0
BITMAP
00
00
00
00
00
00
00
00
ENDCHAR
STARTCHAR exclamation mark
ENCODING 33
SWIDTH 720 0
DWIDTH 2 0
BBX 2 8 0 0
BITMAP
00
40
40
40
40
40
00
40
ENDCHAR
STARTCHAR double quote
ENCODING 34
SWIDTH 720 0
DWIDTH 4 0
BBX 4 8 0 0
BITMAP
00
50
50
50
00
00
00
00
ENDCHAR
STARTCHAR hash
ENCODING 35
SWIDTH 720 0
DWIDTH 6 0
BBX 6 8 0 0
BITMAP
00
00
28
7c
28
7c
28
00
ENDCHAR
STARTCHAR dollar sign
ENCODING 36
SWIDTH 720 0
DWIDTH 6 0
BBX 6 8 0 0
BITMAP
00
10
3c
50
38
14
78
10
ENDCHAR
STARTCHAR percent sign
ENCODING 37
SWIDTH 720 0
DWIDTH 6 0
BBX 6 8 0 0
BITMAP
00
00
00
44
08
10
20
44
ENDCHAR
STARTCHAR ampersand
ENCODING 38
SWIDTH 720 0
DWIDTH 7 0
BBX 7 8 0 0
BITMAP
00
38
44
48
30
4a
44
3a
ENDCHAR
STARTCHAR apostrophe
ENCODING 39
SWIDTH 720 0
DWIDTH 2 0
BBX 2 8 0 0
BITMAP
00
40
40
40
00
00
00
00
ENDCHAR
STARTCHAR open bracket
ENCODING 40
SWIDTH 720 0
DWIDTH 3 0
BBX 3 8 0 0
BITMAP
00
20
40
40
40
40
40
20
ENDCHAR
STARTCHAR close bracket
ENCODING 41
SWIDTH 720 0
DWIDTH 3 0
BBX 3 8 0 0
BITMAP
00
40
20
20
20
20
20
40
ENDCHAR
STARTCHAR asterisk
ENCODING 42
SWIDTH 720 0
DWIDTH 6 0
BBX 6 8 0 0
BITMAP
00
00
54
38
7c
38
54
00
ENDCHAR
STARTCHAR plus sign
ENCODING 43
SWIDTH 720 0
DWIDTH 6 0
BBX 6 8 0 0
BITMAP
00
00
10
10
7c
10
10
00
ENDCHAR
STARTCHAR comma
ENCODING 44
SWIDTH 720 0
DWIDTH 3 0
BBX 3 8 0 0
BITMAP
00
00
00
00
00
00
20
40
ENDCHAR
STARTCHAR minus sign
ENCODING 45
SWIDTH 720 0
DWIDTH 6 0
BBX 6 8 0 0
BITMAP
00
00
00
00
7c
00
00
00
ENDCHAR
STARTCHAR full stop
ENCODING 46
SWIDTH 720 0
DWIDTH 2 0
BBX 2 8 0 0
BITMAP
00
00
00
00
00
00
00
40
ENDCHAR
STARTCHAR slash
ENCODING 47
SWIDTH 720 0
DWIDTH 5 0
BBX 5 8 0 0
BITMAP
08
08
10
10
20
20
40
40
ENDCHAR
STARTCHAR digit zero
ENCODING 48
SWIDTH 720 0
DWIDTH 5 0
BBX 5 8 0 0
BITMAP
00
30
48
58
68
48
48
30
ENDCHAR
STARTCHAR digit one
ENCODING 49
SWIDTH 720 0
DWIDTH 5 0
BBX 5 8 0 0
BITMAP
00
10
30
50
10
10
10
10
ENDCHAR
STARTCHAR digit two
ENCODING 50
SWIDTH 720 0
DWIDTH 5 0
BBX 5 8 0 0
BITMAP
00
30
48
08
30
40
40
78
ENDCHAR
STARTCHAR digit three
ENCODING 51
SWIDTH 720 0
DWIDTH 5 0
BBX 5 8 0 0
BITMAP
00
30
48
08
30
08
48
30
ENDCHAR
STARTCHAR digit four
ENCODING 52
SWIDTH 720 0
DWIDTH 5 0
BBX 5 8 0 0
BITMAP
00
10
30
50
78
10
10
10
ENDCHAR
STARTCHAR digit five
ENCODING 53
SWIDTH 720 0
DWIDTH 5 0
BBX 5 8 0 0
BITMAP
00
78
40
40
30
08
48
30
ENDCHAR
STARTCHAR digit six
ENCODING 54
SWIDTH 720 0
DWIDTH 5 0
BBX 5 8 0 0
BITMAP
00
30
40
40
70
48
48
30
ENDCHAR
STARTCHAR digit seven
ENCODING 55
SWIDTH 720 0
DWIDTH 5 0
BBX 5 8 0 0
BITMAP
00
78
08
08
10
10
10
10
ENDCHAR
STARTCHAR digit eight
ENCODING 56
SWIDTH 720 0
DWIDTH 5 0
BBX 5 8 0 0
BITMAP
00
30
48
48
30
48
48
30
ENDCHAR
STARTCHAR digit nine
ENCODING 57
SWIDTH 720 0
DWIDTH 5 0
BBX 5 8 0 0
BITMAP
00
30
48
48
38
08
08
30
ENDCHAR
STARTCHAR colon
ENCODING 58
SWIDTH 720 0
DWIDTH 2 0
BBX 2 8 0 0
BITMAP
00
00
40
00
00
00
40
00
ENDCHAR
STARTCHAR semicolon
ENCODING 59
SWIDTH 720 0
DWIDTH 3 0
BBX 3 8 0 0
BITMAP
00
00
20
00
00
00
20
40
ENDCHAR
STARTCHAR less-than sign
ENCODING 60
SWIDTH 720 0
DWIDTH 4 0
BBX 4 8 0 0
BITMAP
00
00
10
20
40
20
10
00
ENDCHAR
STARTCHAR equal sign
ENCODING 61
SWIDTH 720 0
DWIDTH 5 0
BBX 5 8 0 0
BITMAP
00
00
00
78
00
78
00
00
ENDCHAR
STARTCHAR greater-than sign
ENCODING 62
SWIDTH 720 0
DWIDTH 4 0
BBX 4 8 0 0
BITMAP
00
00
40
20
10
20
40
00
ENDCHAR
STARTCHAR question mark
ENCODING 63
SWIDTH 720 0
DWIDTH 5 0
BBX 5 8 0 0
BITMAP
00
30
48
08
30
20
00
20
ENDCHAR
STARTCHAR commercial at
ENCODING 64
SWIDTH 720 0
DWIDTH 6 0
BBX 6 8 0 0
BITMAP
00
38
44
5c
58
40
38
00
ENDCHAR
STARTCHAR A
ENCODING 65
SWIDTH 720 0
DWIDTH 5 0
BBX 5 8 0 0
BITMAP
00
30
48
48
78
48
48
48
ENDCHAR
STARTCHAR B
ENCODING 66
SWIDTH 720 0
DWIDTH 5 0
BBX 5 8 0 0
BITMAP
00
70
48
48
70
48
48
70
ENDCHAR
STARTCHAR C
ENCODING 67
SWIDTH 720 0
DWIDTH 5 0
BBX 5 8 0 0
BITMAP
00
30
48
40
40
40
48
30
ENDCHAR
STARTCHAR D
ENCODING 68
SWIDTH 720 0
DWIDTH 5 0
BBX 5 8 0 0
BITMAP
00
70
48
48
48
48
48
70
ENDCHAR
STARTCHAR E
ENCODING 69
SWIDTH 720 0
DWIDTH 5 0
BBX 5 8 0 0
BITMAP
00
38
40
40
70
40
40
38
ENDCHAR
STARTCHAR F
ENCODING 70
SWIDTH 720 0
DWIDTH 5 0
BBX 5 8 0 0
BITMAP
00
38
40
40
70
40
40
40
ENDCHAR
STARTCHAR G
ENCODING 71
SWIDTH 720 0
DWIDTH 5 0
BBX 5 8 0 0
BITMAP
00
38
40
40
58
48
48
38
ENDCHAR
STARTCHAR H
ENCODING 72
SWIDTH 720 0
DWIDTH 5 0
BBX 5 8 0 0
BITMAP
00
48
48
48
78
48
48
48
ENDCHAR
STARTCHAR I
ENCODING 73
SWIDTH 720 0
DWIDTH 4 0
BBX 4 8 0 0
BITMAP
00
70
20
20
20
20
20
70
ENDCHAR
STARTCHAR J
ENCODING 74
SWIDTH 720 0
DWIDTH 5 0
BBX 5 8 0 0
BITMAP
00
08
08
08
08
08
48
30
ENDCHAR
STARTCHAR K
ENCODING 75
SWIDTH 720 0
DWIDTH 5 0
BBX 5 8 0 0
BITMAP
00
48
48
50
60
50
48
48
ENDCHAR
STARTCHAR L
ENCODING 76
SWIDTH 720 0
DWIDTH 5 0
BBX 5 8 0 0
BITMAP
00
40
40
40
40
40
40
38
ENDCHAR
STARTCHAR M
ENCODING 77
SWIDTH 720 0
DWIDTH 6 0
BBX 6 8 0 0
BITMAP
00
28
54
54
54
44
44
44
ENDCHAR
STARTCHAR N
ENCODING 78
SWIDTH 720 0
DWIDTH 5 0
BBX 5 8 0 0
BITMAP
00
70
48
48
48
48
48
48
ENDCHAR
STARTCHAR O
ENCODING 79
SWIDTH 720 0
DWIDTH 5 0
BBX 5 8 0 0
BITMAP
00
30
48
48
48
48
48
30
ENDCHAR
STARTCHAR P
ENCODING 80
SWIDTH 720 0
DWIDTH 5 0
BBX 5 8 0 0
BITMAP
00
70
48
48
70
40
40
40
ENDCHAR
STARTCHAR Q
ENCODING 81
SWIDTH 720 0
DWIDTH 6 0
BBX 6 8 0 0
BITMAP
00
30
48
48
48
58
48
34
ENDCHAR
STARTCHAR R
ENCODING 82
SWIDTH 720 0
DWIDTH 5 0
BBX 5 8 0 0
BITMAP
00
70
48
48
70
48
48
48
ENDCHAR
STARTCHAR S
ENCODING 83
SWIDTH 720 0
DWIDTH 5 0
BBX 5 8 0 0
BITMAP
00
38
40
40
30
08
08
70
ENDCHAR
STARTCHAR T
ENCODING 84
SWIDTH 720 0
DWIDTH 6 0
BBX 6 8 0 0
BITMAP
00
7c
10
10
10
10
10
10
ENDCHAR
STARTCHAR U
ENCODING 85
SWIDTH 720 0
DWIDTH 5 0
BBX 5 8 0 0
BITMAP
00
48
48
48
48
48
48
30
ENDCHAR
STARTCHAR V
ENCODING 86
SWIDTH 720 0
DWIDTH 6 0
BBX 6 8 0 0
BITMAP
00
44
44
44
44
44
28
10
ENDCHAR
STARTCHAR W
ENCODING 87
SWIDTH 720 0
DWIDTH 6 0
BBX 6 8 0 0
BITMAP
00
44
44
44
54
54
54
28
ENDCHAR
STARTCHAR X
ENCODING 88
SWIDTH 720 0
DWIDTH 6 0
BBX 6 8 0 0
BITMAP
00
44
44
28
10
28
44
44
ENDCHAR
STARTCHAR Y
ENCODING 89
SWIDTH 720 0
DWIDTH 6 0
BBX 6 8 0 0
BITMAP
00
44
44
44
28
10
10
10
ENDCHAR
STARTCHAR Z
ENCODING 90
SWIDTH 720 0
DWIDTH 6 0
BBX 6 8 0 0
BITMAP
00
7c
04
08
10
20
40
7c
ENDCHAR
STARTCHAR left square bracket
ENCODING 91
SWIDTH 720 0
DWIDTH 3 0
BBX 3 8 0 0
BITMAP
00
60
40
40
40
40
40
60
ENDCHAR
STARTCHAR backslash
ENCODING 92
SWIDTH 720 0
DWIDTH 5 0
BBX 5 8 0 0
BITMAP
40
40
20
20
10
10
08
08
ENDCHAR
STARTCHAR right square bracket
ENCODING 93
SWIDTH 720 0
DWIDTH 3 0
BBX 3 8 0 0
BITMAP
00
60
20
20
20
20
20
60
ENDCHAR
STARTCHAR circumflex accent
ENCODING 94
SWIDTH 720 0
DWIDTH 6 0
BBX 6 8 0 0
BITMAP
00
10
28
44
00
00
00
00
ENDCHAR
STARTCHAR underscore
ENCODING 95
SWIDTH 720 0
DWIDTH 6 0
BBX 6 8 0 0
BITMAP
00
00
00
00
00
00
00
7c
ENDCHAR
STARTCHAR grave accent
ENCODING 96
SWIDTH 720 0
DWIDTH 3 0
BBX 3 8 0 0
BITMAP
00
40
40
20
00
00
00
00
ENDCHAR
STARTCHAR a
ENCODING 97
SWIDTH 720 0
DWIDTH 5 0
BBX 5 8 0 0
BITMAP
00
00
00
30
08
38
48
38
ENDCHAR
STARTCHAR b
ENCODING 98
SWIDTH 720 0
DWIDTH 5 0
BBX 5 8 0 0
BITMAP
00
40
40
70
48
48
48
70
ENDCHAR
STARTCHAR c
ENCODING 99
SWIDTH 720 0
DWIDTH 5 0
BBX 5 8 0 0
BITMAP
00
00
00
38
40
40
40
38
ENDCHAR
STARTCHAR d
ENCODING 100
SWIDTH 720 0
DWIDTH 5 0
BBX 5 8 0 0
BITMAP
00
08
08
38
48
48
48
38
ENDCHAR
STARTCHAR e
ENCODING 101
SWIDTH 720 0
DWIDTH 5 0
BBX 5 8 0 0
BITMAP
00
00
00
30
48
78
40
38
ENDCHAR
STARTCHAR f
ENCODING 102
SWIDTH 720 0
DWIDTH 5 0
BBX 5 8 0 0
BITMAP
00
18
20
20
70
20
20
20
ENDCHAR
STARTCHAR g
ENCODING 103
SWIDTH 720 0
DWIDTH 5 0
BBX 5 8 0 0
BITMAP
00
00
00
38
48
38
08
70
ENDCHAR
STARTCHAR h
ENCODING 104
SWIDTH 720 0
DWIDTH 5 0
BBX 5 8 0 0
BITMAP
00
40
40
70
48
48
48
48
ENDCHAR
STARTCHAR i
ENCODING 105
SWIDTH 720 0
DWIDTH 2 0
BBX 2 8 0 0
BITMAP
00
40
00
40
40
40
40
40
ENDCHAR
STARTCHAR j
ENCODING 106
SWIDTH 720 0
DWIDTH 5 0
BBX 5 8 0 0
BITMAP
00
08
00
18
08
08
48
30
ENDCHAR
STARTCHAR k
ENCODING 107
SWIDTH 720 0
DWIDTH 5 0
BBX 5 8 0 0
BITMAP
00
40
40
48
50
60
50
48
ENDCHAR
STARTCHAR l
ENCODING 108
SWIDTH 720 0
DWIDTH 2 0
BBX 2 8 0 0
BITMAP
00
40
40
40
40
40
40
40
ENDCHAR
STARTCHAR m
ENCODING 109
SWIDTH 720 0
DWIDTH 6 0
BBX 6 8 0 0
BITMAP
00
00
00
28
54
54
44
44
ENDCHAR
STARTCHAR n
ENCODING 110
SWIDTH 720 0
DWIDTH 5 0
BBX 5 8 0 0
BITMAP
00
00
00
70
48
48
48
48
ENDCHAR
STARTCHAR o
ENCODING 111
SWIDTH 720 0
DWIDTH 5 0
BBX 5 8 0 0
BITMAP
00
00
00
30
48
48
48
30
ENDCHAR
STARTCHAR p
ENCODING 112
SWIDTH 720 0
DWIDTH 5 0
BBX 5 8 0 0
BITMAP
00
00
00
70
48
70
40
40
ENDCHAR
STARTCHAR q
ENCODING 113
SWIDTH 720 0
DWIDTH 5 0
BBX 5 8 0 0
BITMAP
00
00
00
38
48
38
08
08
ENDCHAR
STARTCHAR r
ENCODING 114
SWIDTH 720 0
DWIDTH 4 0
BBX 4 8 0 0
BITMAP
00
00
00
50
60
40
40
40
ENDCHAR
STARTCHAR s
ENCODING 115
SWIDTH 720 0
DWIDTH 5 0
BBX 5 8 0 0
BITMAP
00
00
00
38
40
30
08
70
ENDCHAR
STARTCHAR t
ENCODING 116
SWIDTH 720 0
DWIDTH 4 0
BBX 4 8 0 0
BITMAP
00
20
20
70
20
20
20
20
ENDCHAR
STARTCHAR u
ENCODING 117
SWIDTH 720 0
DWIDTH 5 0
BBX 5 8 0 0
BITMAP
00
00
00
48
48
48
48
30
ENDCHAR
STARTCHAR v
ENCODING 118
SWIDTH 720 0
DWIDTH 6 0
BBX 6 8 0 0
BITMAP
00
00
00
44
44
44
28
10
ENDCHAR
STARTCHAR w
ENCODING 119
SWIDTH 720 0
DWIDTH 6 0
BBX 6 8 0 0
BITMAP
00
00
00
44
44
54
54
28
ENDCHAR
STARTCHAR x
ENCODING 120
SWIDTH 720 0
DWIDTH 4 0
BBX 4 8 0 0
BITMAP
00
00
00
50
50
20
50
50
ENDCHAR
STARTCHAR y
ENCODING 121
SWIDTH 720 0
DWIDTH 5 0
BBX 5 8 0 0
BITMAP
00
00
00
48
48
38
08
30
ENDCHAR
STARTCHAR z
ENCODING 122
SWIDTH 720 0
DWIDTH 4 0
BBX 4 8 0 0
BITMAP
00
00
00
70
10
20
40
70
ENDCHAR
STARTCHAR left curly bracket
ENCODING 123
SWIDTH 720 0
DWIDTH 4 0
BBX 4 8 0 0
BITMAP
00
10
20
20
40
20
20
10
ENDCHAR
STARTCHAR pipe symbol
ENCODING 124
SWIDTH 720 0
DWIDTH 2 0
BBX 2 8 0 0
BITMAP
40
40
40
40
40
40
40
40
ENDCHAR
STARTCHAR right curly bracket
ENCODING 125
SWIDTH 720 0
DWIDTH 4 0
BBX 4 8 0 0
BITMAP
00
40
20
20
10
20
20
40
ENDCHAR
STARTCHAR tilde
ENCODING 126
SWIDTH 720 0
DWIDTH 6 0
BBX 6 8 0 0
BITMAP
00
74
5c
00
00
00
00
00
ENDCHAR
STARTCHAR inverted exclamation
ENCODING 161
SWIDTH 720 0
DWIDTH 2 0
BBX 2 8 0 0
BITMAP
00
40
00
40
40
40
40
40
ENDCHAR
STARTCHAR cent sign
ENCODING 162
SWIDTH 720 0
DWIDTH 6 0
BBX 6 8 0 0
BITMAP
00
00
10
38
54
50
54
38
ENDCHAR
STARTCHAR pound sign
ENCODING 163
SWIDTH 720 0
DWIDTH 6 0
BBX 6 8 0 0
BITMAP
00
18
24
20
78
20
20
7c
ENDCHAR
STARTCHAR euro sign
ENCODING 164
SWIDTH 720 0
DWIDTH 5 0
BBX 5 8 0 0
BITMAP
00
18
20
70
20
70
20
18
ENDCHAR
STARTCHAR yen sign
ENCODING 165
SWIDTH 720 0
DWIDTH 6 0
BBX 6 8 0 0
BITMAP
00
44
44
28
7c
10
7c
10
ENDCHAR
STARTCHAR broken bar
ENCODING 166
SWIDTH 720 0
DWIDTH 2 0
BBX 2 8 0 0
BITMAP
00
40
40
40
00
40
40
40
ENDCHAR
STARTCHAR section sign
ENCODING 167
SWIDTH 720 0
DWIDTH 5 0
BBX 5 8 0 0
BITMAP
00
38
40
30
48
30
08
70
ENDCHAR
STARTCHAR dieresis
ENCODING 168
SWIDTH 720 0
DWIDTH 5 0
BBX 5 8 0 0
BITMAP
00
48
00
00
00
00
00
00
ENDCHAR
STARTCHAR copyright sign
ENCODING 169
SWIDTH 720 0
DWIDTH 8 0
BBX 8 8 0 0
BITMAP
00
3e
41
5d
51
5d
41
3e
ENDCHAR
STARTCHAR feminine ordinal
ENCODING 170
SWIDTH 720 0
DWIDTH 7 0
BBX 7 8 0 0
BITMAP
00
3c
04
1c
24
3e
00
00
ENDCHAR
STARTCHAR guillemot left
ENCODING 171
SWIDTH 720 0
DWIDTH 6 0
BBX 6 8 0 0
BITMAP
00
00
14
28
50
28
14
00
ENDCHAR
STARTCHAR not sign
ENCODING 172
SWIDTH 720 0
DWIDTH 6 0
BBX 6 8 0 0
BITMAP
00
7c
04
00
00
00
00
00
ENDCHAR
STARTCHAR soft hyphen
ENCODING 173
SWIDTH 720 0
DWIDTH 6 0
BBX 6 8 0 0
BITMAP
00
00
00
7c
00
00
00
00
ENDCHAR
STARTCHAR registered trademark
ENCODING 174
SWIDTH 720 0
DWIDTH 8 0
BBX 8 8 0 0
BITMAP
00
3e
41
5d
55
59
55
3e
ENDCHAR
STARTCHAR macron
ENCODING 175
SWIDTH 720 0
DWIDTH 8 0
BBX 8 8 0 0
BITMAP
00
7f
00
00
00
00
00
00
ENDCHAR
STARTCHAR degree sign
ENCODING 176
SWIDTH 720 0
DWIDTH 5 0
BBX 5 8 0 0
BITMAP
00
30
48
30
00
00
00
00
ENDCHAR
STARTCHAR plus or minus
ENCODING 177
SWIDTH 720 0
DWIDTH 6 0
BBX 6 8 0 0
BITMAP
00
10
7c
10
00
7c
00
00
ENDCHAR
STARTCHAR superscript 2
ENCODING 178
SWIDTH 720 0
DWIDTH 5 0
BBX 5 8 0 0
BITMAP
00
70
10
60
78
00
00
00
ENDCHAR
STARTCHAR superscript 3
ENCODING 179
SWIDTH 720 0
DWIDTH 4 0
BBX 4 8 0 0
BITMAP
00
70
30
10
70
00
00
00
ENDCHAR
STARTCHAR spacing acute
ENCODING 180
SWIDTH 720 0
DWIDTH 3 0
BBX 3 8 0 0
BITMAP
00
20
40
00
00
00
00
00
ENDCHAR
STARTCHAR micro sign
ENCODING 181
SWIDTH 720 0
DWIDTH 5 0
BBX 5 8 0 0
BITMAP
00
48
48
70
40
00
00
00
ENDCHAR
STARTCHAR paragraph sign
ENCODING 182
SWIDTH 720 0
DWIDTH 7 0
BBX 7 8 0 0
BITMAP
00
3e
7a
7a
1a
0a
0a
0a
ENDCHAR
STARTCHAR middle dot
ENCODING 183
SWIDTH 720 0
DWIDTH 5 0
BBX 5 8 0 0
BITMAP
00
00
00
30
78
30
00
00
ENDCHAR
STARTCHAR cedilla
ENCODING 184
SWIDTH 720 0
DWIDTH 5 0
BBX 5 8 0 0
BITMAP
00
00
00
00
00
00
10
08
ENDCHAR
STARTCHAR suprtscript 1
ENCODING 185
SWIDTH 720 0
DWIDTH 4 0
BBX 4 8 0 0
BITMAP
00
60
20
70
00
00
00
00
ENDCHAR
STARTCHAR masculine ordinal
ENCODING 186
SWIDTH 720 0
DWIDTH 5 0
BBX 5 8 0 0
BITMAP
00
30
48
30
00
00
00
00
ENDCHAR
STARTCHAR guillemot right
ENCODING 187
SWIDTH 720 0
DWIDTH 6 0
BBX 6 8 0 0
BITMAP
00
00
50
28
14
28
50
00
ENDCHAR
STARTCHAR one quarter
ENCODING 188
SWIDTH 720 0
DWIDTH 7 0
BBX 7 8 0 0
BITMAP
00
44
48
50
2a
4e
02
00
ENDCHAR
STARTCHAR one half
ENCODING 189
SWIDTH 720 0
DWIDTH 8 0
BBX 8 8 0 0
BITMAP
00
44
48
50
2e
42
0c
0f
ENDCHAR
STARTCHAR three quarters
ENCODING 190
SWIDTH 720 0
DWIDTH 7 0
BBX 7 8 0 0
BITMAP
00
72
34
18
70
2a
4e
02
ENDCHAR
STARTCHAR inverted question
ENCODING 191
SWIDTH 720 0
DWIDTH 5 0
BBX 5 8 0 0
BITMAP
00
10
00
10
30
40
48
30
ENDCHAR
STARTCHAR large A, grave accent
ENCODING 192
SWIDTH 720 0
DWIDTH 5 0
BBX 5 8 0 0
BITMAP
40
20
30
48
48
78
48
48
ENDCHAR
STARTCHAR large A, acute accent
ENCODING 193
SWIDTH 720 0
DWIDTH 5 0
BBX 5 8 0 0
BITMAP
08
10
30
48
48
78
48
48
ENDCHAR
STARTCHAR large A, circumflex accent
ENCODING 194
SWIDTH 720 0
DWIDTH 5 0
BBX 5 8 0 0
BITMAP
30
48
30
48
48
78
48
48
ENDCHAR
STARTCHAR large A, tilde
ENCODING 195
SWIDTH 720 0
DWIDTH 5 0
BBX 5 8 0 0
BITMAP
28
50
30
48
48
78
48
48
ENDCHAR
STARTCHAR large A, dieresis
ENCODING 196
SWIDTH 720 0
DWIDTH 5 0
BBX 5 8 0 0
BITMAP
48
00
30
48
48
78
48
48
ENDCHAR
STARTCHAR large A, circle
ENCODING 197
SWIDTH 720 0
DWIDTH 5 0
BBX 5 8 0 0
BITMAP
30
48
30
48
48
78
48
48
ENDCHAR
STARTCHAR large AE, diphtong
ENCODING 198
SWIDTH 720 0
DWIDTH 8 0
BBX 8 8 0 0
BITMAP
00
3f
48
48
7e
48
48
4f
ENDCHAR
STARTCHAR large C, cedilla
ENCODING 199
SWIDTH 720 0
DWIDTH 7 0
BBX 7 8 0 0
BITMAP
00
3c
42
40
40
42
3c
10
ENDCHAR
STARTCHAR large E, grave accent
ENCODING 200
SWIDTH 720 0
DWIDTH 5 0
BBX 5 8 0 0
BITMAP
20
10
38
40
70
40
40
38
ENDCHAR
STARTCHAR large E, acute accent
ENCODING 201
SWIDTH 720 0
DWIDTH 5 0
BBX 5 8 0 0
BITMAP
10
20
38
40
70
40
40
38
ENDCHAR
STARTCHAR large E, circumflex accent
ENCODING 202
SWIDTH 720 0
DWIDTH 5 0
BBX 5 8 0 0
BITMAP
30
48
38
40
70
40
40
38
ENDCHAR
STARTCHAR large E, dieresis
ENCODING 203
SWIDTH 720 0
DWIDTH 5 0
BBX 5 8 0 0
BITMAP
48
00
38
40
70
40
40
38
ENDCHAR
STARTCHAR capital I, grave accent
ENCODING 204
SWIDTH 720 0
DWIDTH 4 0
BBX 4 8 0 0
BITMAP
40
20
70
20
20
20
20
70
ENDCHAR
STARTCHAR capital I, acute accent
ENCODING 205
SWIDTH 720 0
DWIDTH 4 0
BBX 4 8 0 0
BITMAP
10
20
70
20
20
20
20
70
ENDCHAR
STARTCHAR capital I, circumflex accent
ENCODING 206
SWIDTH 720 0
DWIDTH 4 0
BBX 4 8 0 0
BITMAP
20
50
70
20
20
20
20
70
ENDCHAR
STARTCHAR capital I, dieresis
ENCODING 207
SWIDTH 720 0
DWIDTH 4 0
BBX 4 8 0 0
BITMAP
50
00
70
20
20
20
20
70
ENDCHAR
STARTCHAR capital Eth, Icelandic
ENCODING 208
SWIDTH 720 0
DWIDTH 6 0
BBX 6 8 0 0
BITMAP
00
38
24
24
74
24
24
38
ENDCHAR
STARTCHAR capital N, tilde
ENCODING 209
SWIDTH 720 0
DWIDTH 5 0
BBX 5 8 0 0
BITMAP
28
50
70
48
48
48
48
48
ENDCHAR
STARTCHAR capital O, grave accent
ENCODING 210
SWIDTH 720 0
DWIDTH 5 0
BBX 5 8 0 0
BITMAP
40
20
30
48
48
48
48
30
ENDCHAR
STARTCHAR capital O, acute accent
ENCODING 211
SWIDTH 720 0
DWIDTH 5 0
BBX 5 8 0 0
BITMAP
08
10
30
48
48
48
48
30
ENDCHAR
STARTCHAR capital O, circumflex accent
ENCODING 212
SWIDTH 720 0
DWIDTH 5 0
BBX 5 8 0 0
BITMAP
30
48
30
48
48
48
48
30
ENDCHAR
STARTCHAR capital O, tilde
ENCODING 213
SWIDTH 720 0
DWIDTH 5 0
BBX 5 8 0 0
BITMAP
28
50
30
48
48
48
48
30
ENDCHAR
STARTCHAR capital O, dieresis
ENCODING 214
SWIDTH 720 0
DWIDTH 5 0
BBX 5 8 0 0
BITMAP
48
00
30
48
48
48
48
30
ENDCHAR
STARTCHAR multiply sign
ENCODING 215
SWIDTH 720 0
DWIDTH 6 0
BBX 6 8 0 0
BITMAP
00
00
44
28
10
28
44
00
ENDCHAR
STARTCHAR capital O, slash
ENCODING 216
SWIDTH 720 0
DWIDTH 8 0
BBX 8 8 0 0
BITMAP
00
01
1e
26
2a
32
3c
40
ENDCHAR
STARTCHAR capital U, grave accent
ENCODING 217
SWIDTH 720 0
DWIDTH 5 0
BBX 5 8 0 0
BITMAP
20
10
48
48
48
48
48
30
ENDCHAR
STARTCHAR capital U, acute accent
ENCODING 218
SWIDTH 720 0
DWIDTH 5 0
BBX 5 8 0 0
BITMAP
10
20
48
48
48
48
48
30
ENDCHAR
STARTCHAR capital U, circumflex accent
ENCODING 219
SWIDTH 720 0
DWIDTH 5 0
BBX 5 8 0 0
BITMAP
30
48
00
48
48
48
48
30
ENDCHAR
STARTCHAR capital U, dieresis
ENCODING 220
SWIDTH 720 0
DWIDTH 5 0
BBX 5 8 0 0
BITMAP
48
00
48
48
48
48
48
30
ENDCHAR
STARTCHAR capital Y, acute accent
ENCODING 221
SWIDTH 720 0
DWIDTH 6 0
BBX 6 8 0 0
BITMAP
08
10
44
28
10
10
10
10
ENDCHAR
STARTCHAR capital Thorn, Icelandic
ENCODING 222
SWIDTH 720 0
DWIDTH 5 0
BBX 5 8 0 0
BITMAP
00
40
70
48
70
40
40
40
ENDCHAR
STARTCHAR sharp s, German
ENCODING 223
SWIDTH 720 0
DWIDTH 6 0
BBX 6 8 0 0
BITMAP
00
30
48
48
50
48
50
40
ENDCHAR
STARTCHAR small a, grave accent
ENCODING 224
SWIDTH 720 0
DWIDTH 5 0
BBX 5 8 0 0
BITMAP
20
10
00
30
08
38
48
38
ENDCHAR
STARTCHAR small a, acute accent
ENCODING 225
SWIDTH 720 0
DWIDTH 5 0
BBX 5 8 0 0
BITMAP
10
20
00
30
08
38
48
38
ENDCHAR
STARTCHAR small a, circumflex accent
ENCODING 226
SWIDTH 720 0
DWIDTH 5 0
BBX 5 8 0 0
BITMAP
30
48
00
30
08
38
48
38
ENDCHAR
STARTCHAR small a, tilde
ENCODING 227
SWIDTH 720 0
DWIDTH 5 0
BBX 5 8 0 0
BITMAP
28
50
00
30
08
38
48
38
ENDCHAR
STARTCHAR small a, dieresis
ENCODING 228
SWIDTH 720 0
DWIDTH 5 0
BBX 5 8 0 0
BITMAP
00
48
00
30
08
38
48
38
ENDCHAR
STARTCHAR small a, circle
ENCODING 229
SWIDTH 720 0
DWIDTH 5 0
BBX 5 8 0 0
BITMAP
00
30
48
30
08
38
48
38
ENDCHAR
STARTCHAR small ae, diphtong
ENCODING 230
SWIDTH 720 0
DWIDTH 8 0
BBX 8 8 0 0
BITMAP
00
00
00
36
09
3f
48
3f
ENDCHAR
STARTCHAR small c, cedilla
ENCODING 231
SWIDTH 720 0
DWIDTH 6 0
BBX 6 8 0 0
BITMAP
00
00
00
3c
40
40
3c
10
ENDCHAR
STARTCHAR small e, grave accent
ENCODING 232
SWIDTH 720 0
DWIDTH 5 0
BBX 5 8 0 0
BITMAP
20
10
00
30
48
78
40
38
ENDCHAR
STARTCHAR small e, acute accent
ENCODING 233
SWIDTH 720 0
DWIDTH 5 0
BBX 5 8 0 0
BITMAP
10
20
00
30
48
78
40
38
ENDCHAR
STARTCHAR small e, circumflex accent
ENCODING 234
SWIDTH 720 0
DWIDTH 5 0
BBX 5 8 0 0
BITMAP
30
48
00
30
48
78
40
38
ENDCHAR
STARTCHAR small e, dieresis
ENCODING 235
SWIDTH 720 0
DWIDTH 5 0
BBX 5 8 0 0
BITMAP
00
48
00
30
48
78
40
38
ENDCHAR
STARTCHAR small i, grave accent
ENCODING 236
SWIDTH 720 0
DWIDTH 3 0
BBX 3 8 0 0
BITMAP
40
20
00
40
40
40
40
40
ENDCHAR
STARTCHAR small i, acute accent
ENCODING 237
SWIDTH 720 0
DWIDTH 3 0
BBX 3 8 0 0
BITMAP
20
40
00
40
40
40
40
40
ENDCHAR
STARTCHAR small i, circumflex accent
ENCODING 238
SWIDTH 720 0
DWIDTH 4 0
BBX 4 8 0 0
BITMAP
20
50
00
20
20
20
20
20
ENDCHAR
STARTCHAR small i, dieresis
ENCODING 239
SWIDTH 720 0
DWIDTH 4 0
BBX 4 8 0 0
BITMAP
00
50
00
20
20
20
20
20
ENDCHAR
STARTCHAR small eth, Icelandic
ENCODING 240
SWIDTH 720 0
DWIDTH 5 0
BBX 5 8 0 0
BITMAP
20
60
10
30
48
48
48
30
ENDCHAR
STARTCHAR small n, tilde
ENCODING 241
SWIDTH 720 0
DWIDTH 5 0
BBX 5 8 0 0
BITMAP
28
50
00
70
48
48
48
48
ENDCHAR
STARTCHAR small o, grave accent
ENCODING 242
SWIDTH 720 0
DWIDTH 5 0
BBX 5 8 0 0
BITMAP
40
20
00
30
48
48
48
30
ENDCHAR
STARTCHAR small o, acute accent
ENCODING 243
SWIDTH 720 0
DWIDTH 5 0
BBX 5 8 0 0
BITMAP
08
10
00
30
48
48
48
30
ENDCHAR
STARTCHAR small o, circumflex accent
ENCODING 244
SWIDTH 720 0
DWIDTH 5 0
BBX 5 8 0 0
BITMAP
30
48
00
30
48
48
48
30
ENDCHAR
STARTCHAR small o, tilde
ENCODING 245
SWIDTH 720 0
DWIDTH 5 0
BBX 5 8 0 0
BITMAP
28
50
00
30
48
48
48
30
ENDCHAR
STARTCHAR small o, dieresis
ENCODING 246
SWIDTH 720 0
DWIDTH 5 0
BBX 5 8 0 0
BITMAP
00
48
00
30
48
48
48
30
ENDCHAR
STARTCHAR division sign
ENCODING 247
SWIDTH 720 0
DWIDTH 6 0
BBX 6 8 0 0
BITMAP
00
00
10
00
7c
00
10
00
ENDCHAR
STARTCHAR small o, slash
ENCODING 248
SWIDTH 720 0
DWIDTH 7 0
BBX 7 8 0 0
BITMAP
00
00
3a
44
4a
52
22
5c
ENDCHAR
STARTCHAR small u, grave accent
ENCODING 249
SWIDTH 720 0
DWIDTH 5 0
BBX 5 8 0 0
BITMAP
20
10
00
48
48
48
48
30
ENDCHAR
STARTCHAR small u, acute accent
ENCODING 250
SWIDTH 720 0
DWIDTH 5 0
BBX 5 8 0 0
BITMAP
10
20
00
48
48
48
48
30
ENDCHAR
STARTCHAR small u, circumflex accent
ENCODING 251
SWIDTH 720 0
DWIDTH 5 0
BBX 5 8 0 0
BITMAP
30
48
00
48
48
48
48
30
ENDCHAR
STARTCHAR small u, dieresis
ENCODING 252
SWIDTH 720 0
DWIDTH 5 0
BBX 5 8 0 0
BITMAP
00
48
00
48
48
48
48
30
ENDCHAR
STARTCHAR small y, acute accent
ENCODING 253
SWIDTH 720 0
DWIDTH 5 0
BBX 5 8 0 0
BITMAP
20
10
00
48
48
38
08
30
ENDCHAR
STARTCHAR small thorn, Icelandic
ENCODING 254
SWIDTH 720 0
DWIDTH 7 0
BBX 7 8 0 0
BITMAP
00
40
5c
62
42
62
5c
40
ENDCHAR
STARTCHAR small y, dieresis
ENCODING 255
SWIDTH 720 0
DWIDTH 5 0
BBX 5 8 0 0
BITMAP
00
48
00
48
48
38
08
30
ENDCHAR
ENDFONT