/* XPM */
static char * fonts_3d_xpm[] = {
"56 46 9 1",
" 	c #FFFFFFFFFFFF",
".	c #BEBEBABABEBE",
"X	c #000000001111",
"o	c #AEAEAAAAAEAE",
"O	c #C7C7BABAC7C7",
"+	c #51515555FFFF",
"@	c #FFFF14144141",
"#	c #9E9E9A9A9E9E",
"$	c #010101010101",
"                                                       .",
" ......................................................X",
" ......................................................X",
" ......................................................X",
" o...o...o...o...o...o...o...o...o...o...o...o...o...o.X",
" .....O....O...O..O....O...O..O....O...O..O...O..O..O..X",
" o.o.o.o.o.o.o.o.o.o.o.o.o.o.o.o.o.o.o.o.o.o.o.o.o.o.o.X",
" .....o.......o.......o.......o.......o.......o.......oX",
" o.o.o.o.o.o.o.o.o.o.o.o.o.o.o.o.o.o.o.o.o.o.o.o.o.o.o.X",
" ...o...o...o...o...o...o...o...o...o...++..o...o...o..X",
" o.o.o.o.o.o.o.o.o.o.o.o.o.o.o.o.o.o.o.+++.o.o.o.o.o.o.X",
" .o...o.o.o...o.o.o...o.o.o...o.o.o...++++o...o.o.o...oX",
" o.o.o.o.o.o.o.o.o.o.o.o.o.o.o.o.o.o.+++++.o.o.o.o.o.o.X",
" .o.o.o.o.o.o.o.o.o.o.o.o.o.o.o.o.o.++o+++o.o.o.o.o.o.oX",
" o.o.o.o.o.o.o.o.o.o.o.o.o.o.o.o.o.++o.+++.o.o.o.o.o.o.X",
" oo.ooo.ooo.ooo.ooo.ooo.ooo.ooo.oo++ooo+++o.ooo.ooo.oooX",
" o.o.o.o.o.o.o.o.o.o@@.o.o.o.o.o.++o.o.+++.o.o.o.o.o.o.X",
" ooooooooooooooooooo@@oooooooooo++ooooo+++oooooooooooooX",
" o.o.o.o.o.o.o.o.o.@@@@o.o.o.o.+++++++++++.o.o.o.o.o.o.X",
" oooooooooooooooooo@@@@ooooooo++ooooooo+++oooooooooooooX",
" ooo.ooo.ooo.ooo.o@@@@@@.ooo.++o.ooo.oo+++oo.ooo.ooo.ooX",
" ooooooooooooooooo@@@@@@oooo++ooooooooo+++oooooooooooooX",
" oooooooooooooooo@@@@@@@@o++++++ooooo+++++++oooooooooooX",
" oooooooooooooooo@@@@@@@@ooooooooooooooooooooooooooooooX",
" #ooo#ooo#ooo#oo@@@oo@@@@@ooo#ooo#oo$$ooo#ooo#ooo#ooo#oX",
" ooooooooooooooo@@@oo@@@@@ooooooooo$$$$ooooooooooooooooX",
" oo#o#o#ooo#o#o@@@o#o#@@@@@#o#o#oo$$$$$$ooo#o#o#ooo#o#oX",
" oooooooooooooo@@@oooo@@@@@oooooo$oo$$$$$ooooooooooooooX",
" #o#o#o#o#o#o#@@@#o#o#o@@@@@o#o#$$o#o$$$$#o#o#o#o#o#o#oX",
" ooooooooooooo@@@@@@@@@@@@@@ooo$$$oooo$$$ooooooooooooooX",
" #o#o#o#o#o#o@@@@@@@@@@@@@@@@#o$$$o#o#$$$#o#o#o#o#o#o#oX",
" o#ooo#ooo#oo@@@oo#ooo#o@@@@@o#$$$#ooo$$$o#ooo#ooo#ooo#X",
" #o#o#o#o#o#@@@#o#o#o#o#o@@@@@o$$$o#o#$$$#o#o#o#o#o#o#oX",
" o#o#o#o#o#o@@@o#o#o#o#o#@@@@@#$$$#o#o$$$o#o#o#o#o#o#o#X",
" #o#o#o#o#o#o#o#o#o#o#o#o#o#o#o$$$o#o#$$$#o#o#o#o#o#o#oX",
" ##o###o###o###o###o###o###o###$$$#o##$$$##o###o###o###X",
" #o#o#o#o#o#o#o#o#o#o#o#o#o#o#o$$$$#o$$$$#o$o#o#o#o#o#oX",
" ##############################$$$$$$#$$$$$############X",
" #o#o#o#o#o#o#o#o#o#o#o#o#o#o#o#$$$$o#o$$$o#o#o#o#o#o#oX",
" ######################################################X",
" ###o###o###o###o###o###o###o###o###o###o###o###o###o##X",
" ######################################################X",
" #o#######o#######o#######o#######o#######o#######o####X",
" ######################################################X",
" ######################################################X",
".XXXXXXXXXXXXXXXXXXXXXXXXXXXXXXXXXXXXXXXXXXXXXXXXXXXXXXX"};
