/* XPM */
static char * tools2_3d_xpm[] = {
"56 46 9 1",
" 	c #FFFFFFFFFFFF",
".	c #BEBEBABABEBE",
"X	c #BEBEC3C3BEBE",
"o	c #000000001111",
"O	c #AEAEAAAAAEAE",
"+	c #9E9E9A9A9E9E",
"@	c #010101010101",
"#	c #51515555FFFF",
"$	c #AEAE55552828",
"                                                       .",
" .X.X.X.X.X.X.X.X.X.X.X.X.X.X.X.X.X.X.X.X.X.X.X.X.X.X.Xo",
" X.X.X.X.X.X.X.X.X.X.X.X.X.X.X.X.X.X.X.X.X.X.X.X.X.X.X.o",
" X..X...X...X...X...X...X...X...X...X...X...X...X...X..o",
" O.X.OX..+X..OX..+X..OX..+X..OX..+X..OX..+X..OX..+X..OXo",
" .X..X.X.X.X.X.X.X.X.X.X.X.X.X.X.X.X.X.X.X.X.X.X.X.X.X.o",
" O.+XO.OXO.OX+.OXO.OX+.OXO.OX+.OXO.OX+.OXO.OX+.OXO.OXO.o",
" X.X..+..X.X..O..X.X..O..X.X..O..X.X..O..X.X..O..X.X..Oo",
" OXO.OXO.O.OXOXO.O.OXOXO.O.OXOXO.O.OXOXO.O.OXOXO.O.OXOXo",
" X..OX.XO.X.O..XO.X.O..XO.X.O..XO.X.O..XO.X.O..XO.X.O..o",
" O.OXO.OXO.OXO.OXO.O@@@O.O@@@OXO@@@@@@@O.OXO.OXO.+XO.OXo",
" XOX..O.O.+X.XO.+.OX@X@.OX@X.@@@..X.X.X@O.+.X.OXO.O.X.Oo",
" O.OXOXOXO.O.OXOXO.O@.@OXO@.X..X.X###.X.@OXO.O.O.OXO.OXo",
" XO.O.O.O.OXO.O.OXO@.X.@O.o..X .X###X ..X@O.OXOXO.OXO.Oo",
" O.OXO.OXO.O.OXO.O.@X.Xo.O@X.o@@.X.X.@@X..oOXO.O.OXO.OXo",
" OOXOOO.OOOXOOO.OOO.o.@XOO@o@OX.@o@o@OO@ X@.OOOXOOO.OOOo",
" O.O.OXO.O.O.OXOXOXO@Xo.XO.X.O.OX@.@.X.O@.@O.O.O.OX+.O.o",
" OOOO+OOOOOOOOOOOOO.o.@OOOOOOOOO.@X@OOOOO@@OOOOOOOOOOOOo",
" OXOXO.OXOXO.O.O.O.O@X@..OXO.OXO.@.@.OXO.OXOXOXO.OXO.OXo",
" OOOOOOOOOOOOOOOOOOO@.@OOOOOOOOOX@.@XOOOOOOOOOOOOOOOOOOo",
" OOO.OOO.OOOXOOOXOOO@X@OXOOO.OOO.@X@.OOOXOOO.OOO.OOOXOOo",
" OOOOOOOOOOOOOOOOOOO@.@OOOOOOOOOX@.@OOOOOOOOOOOOOOOOOOOo",
" OOOOOOOOOOOOOOOOOOO@.o.OOOOOOOOO@.@XOOOOOOOOOOOOOOOOOOo",
" OOOOOOOOOOOOOOOOOOX@@@OOOOOOOOOO@@@OOOOOOOOOOOOOOOOOOOo",
" +OOO+OOO+OOO+OOO+O@$$$@O+OOO+OO@$$$@+OOO+OOO+OOO+OOO+Oo",
" OOOOOOOOOOOOOOOOO@$$$$$@OOOOOO@$$$$$@OOOOOOOOOOOOOOOOOo",
" OO+O+O+OOO+O+O+OO@$@$@$@OO+O+O@$@$@$@O+OOO+O+O+OOO+O+Oo",
" OOOOOOOOOOOOOOOOO@$@$@$@OOOOOO@$@$@$@OOOOOOOOOOOOOOOOOo",
" +O+O+O+O+O+O+O+O+@$@$@$@+O+O+O@$@$@$@O+O+O+O+O+O+O+O+Oo",
" OOOOOOOOOOOOOOOOO@$@$@$@OOOOOO@$@$@$@OOOOOOOOOOOOOOOOOo",
" +O+O+O+O+O+O+O+O+@$@$@$@+O+O+O@$@$@$@O+O+O+O+O+O+O+O+Oo",
" O+OOO+OOO+OOO+OOO@$@$@$@O+OOO+@$@$@$@+OOO+OOO+OOO+OOO+o",
" +O+O+O+O+O+O+O+O+@$@$@$@+O+O+O@$@$@$@O+O+O+O+O+O+O+O+Oo",
" O+O+O+O+O+O+O+O+O@$@$@$@O+O+O+@$@$@$@+O+O+O+O+O+O+O+O+o",
" +O+O+O+O+O+O+O+O+@$@$@$@+O+O+O@$@$@$@O+O+O+O+O+O+O+O+Oo",
" ++O+++O+++O+++O++@$@$@$@++O+++@$@$@$@+O+++O+++O+++O+++o",
" +O+O+O+O+O+O+O+O+@$$$$$@+O+O+O@$$$$$@O+O+O+O+O+O+O+O+Oo",
" ++++++++++++++++++@$$$@++++++++@$$$@++++++++++++++++++o",
" +O+O+O+O+O+O+O+O+O+@@@+O+O+O+O+O@@@O+O+O+O+O+O+O+O+O+Oo",
" ++++++++++++++++++++++++++++++++++++++++++++++++++++++o",
" +++O+++O+++O+++O+++O+++O+++O+++O+++O+++O+++O+++O+++O++o",
" ++++++++++++++++++++++++++++++++++++++++++++++++++++++o",
" +O+++++++O+++++++O+++++++O+++++++O+++++++O+++++++O++++o",
" ++++++++++++++++++++++++++++++++++++++++++++++++++++++o",
" ++++++++++++++++++++++++++++++++++++++++++++++++++++++o",
"Xooooooooooooooooooooooooooooooooooooooooooooooooooooooo"};
