/* XPM */
static char * uninstall_3d_xpm[] = {
"56 46 264 2",
"  	c #FFFFFF",
". 	c #BEBABE",
"+ 	c #BEC3BE",
"@ 	c #000011",
"# 	c #AEAAAE",
"$ 	c #9E9A9E",
"% 	c #010101",
"& 	c #79869E",
"* 	c #C7BAC7",
"= 	c #5155FF",
"- 	c #5558FC",
"; 	c #6A66E3",
"> 	c #5F3C3B",
", 	c #C67175",
"' 	c #623841",
") 	c #949194",
"! 	c #BEBFBB",
"~ 	c #BA7F82",
"{ 	c #C97173",
"] 	c #431C1D",
"^ 	c #241D1D",
"/ 	c #ADAAAE",
"( 	c #6E5EDE",
"_ 	c #BD8587",
": 	c #A25A94",
"< 	c #C2344A",
"[ 	c #DA0909",
"} 	c #DB0302",
"| 	c #D51617",
"1 	c #9A8B98",
"2 	c #AEAEB6",
"3 	c #C07B7E",
"4 	c #D81111",
"5 	c #DA0707",
"6 	c #D71314",
"7 	c #D13434",
"8 	c #C49094",
"9 	c #C0BCB8",
"0 	c #0D0D0D",
"a 	c #5558FE",
"b 	c #5449BC",
"c 	c #A2484A",
"d 	c #CF1D26",
"e 	c #DC0000",
"f 	c #DD0000",
"g 	c #A1848F",
"h 	c #CE5456",
"i 	c #DC0101",
"j 	c #D01717",
"k 	c #943857",
"l 	c #4B1A1A",
"m 	c #524ACB",
"n 	c #4C4FEE",
"o 	c #4A4DE5",
"p 	c #7D57A6",
"q 	c #D71F26",
"r 	c #DB0000",
"s 	c #DC0100",
"t 	c #E20200",
"u 	c #E10000",
"v 	c #E00201",
"w 	c #D90707",
"x 	c #A13C3C",
"y 	c #868EA1",
"z 	c #B6AEB6",
"A 	c #CFC7CF",
"B 	c #452F2E",
"C 	c #C92B2B",
"D 	c #DE0101",
"E 	c #DF0809",
"F 	c #B80E1A",
"G 	c #7D308D",
"H 	c #6E3FBA",
"I 	c #7F2C85",
"J 	c #C70102",
"K 	c #DE0000",
"L 	c #DD0302",
"M 	c #DE0203",
"N 	c #B00E28",
"O 	c #AC2945",
"P 	c #6C0E18",
"Q 	c #B4949B",
"R 	c #222020",
"S 	c #A6989C",
"T 	c #A67578",
"U 	c #9D3234",
"V 	c #C90D0D",
"W 	c #E50B0B",
"X 	c #E50202",
"Y 	c #E40304",
"Z 	c #E40303",
"` 	c #DF0303",
" .	c #DB0303",
"..	c #D90306",
"+.	c #CE1723",
"@.	c #753FC5",
"#.	c #5449DC",
"$.	c #5459F3",
"%.	c #100C0D",
"&.	c #48459B",
"*.	c #63376A",
"=.	c #B6374A",
"-.	c #D1171C",
";.	c #DB0202",
">.	c #DE0202",
",.	c #9F206C",
"'.	c #6660EB",
").	c #202496",
"!.	c #202495",
"~.	c #343798",
"{.	c #B48083",
"].	c #D80101",
"^.	c #DC0303",
"/.	c #DF0100",
"(.	c #DE0200",
"_.	c #DD0202",
":.	c #B31143",
"<.	c #645CEB",
"[.	c #9696AE",
"}.	c #1F2390",
"|.	c #867274",
"1.	c #BB1C1D",
"2.	c #E40101",
"3.	c #AF1F58",
"4.	c #C51539",
"5.	c #E30202",
"6.	c #DC0201",
"7.	c #A62566",
"8.	c #5255FE",
"9.	c #7992B6",
"0.	c #717986",
"a.	c #8E6C81",
"b.	c #C40505",
"c.	c #E10100",
"d.	c #930000",
"e.	c #0D040A",
"f.	c #200610",
"g.	c #B30307",
"h.	c #E20102",
"i.	c #DD0001",
"j.	c #891034",
"k.	c #080309",
"l.	c #010103",
"m.	c #9B7795",
"n.	c #D80B16",
"o.	c #E30201",
"p.	c #DB0201",
"q.	c #C84848",
"r.	c #938D8A",
"s.	c #887B78",
"t.	c #D11111",
"u.	c #E00202",
"v.	c #EE0100",
"w.	c #4D6A15",
"x.	c #ADA9AD",
"y.	c #28080B",
"z.	c #DD0D11",
"A.	c #DC0102",
"B.	c #9F3435",
"C.	c #322D2E",
"D.	c #060707",
"E.	c #77312F",
"F.	c #8F2926",
"G.	c #010111",
"H.	c #B0A6AA",
"I.	c #B30807",
"J.	c #C66265",
"K.	c #292728",
"L.	c #B5A7AA",
"M.	c #D60B0B",
"N.	c #CF0303",
"O.	c #A89595",
"P.	c #A19CA0",
"Q.	c #C35557",
"R.	c #E00101",
"S.	c #9E1717",
"T.	c #A9A2A6",
"U.	c #BFC4BF",
"V.	c #CB6B6C",
"W.	c #DF0000",
"X.	c #E35A59",
"Y.	c #BFC0BC",
"Z.	c #B28C90",
"`.	c #E80A0A",
" +	c #370C0D",
".+	c #C6BEBB",
"++	c #E12F2E",
"@+	c #DE0303",
"#+	c #D60000",
"$+	c #260000",
"%+	c #121213",
"&+	c #C05B5C",
"*+	c #963334",
"=+	c #A6A1A5",
"-+	c #BBB8BC",
";+	c #B05956",
">+	c #E40202",
",+	c #AE1414",
"'+	c #040101",
")+	c #AFA7AB",
"!+	c #D30F0F",
"~+	c #DC0202",
"{+	c #CC0203",
"]+	c #95898C",
"^+	c #040404",
"/+	c #BDB9BD",
"(+	c #D0C9CB",
"_+	c #D8171A",
":+	c #261C23",
"<+	c #513436",
"[+	c #E10101",
"}+	c #AE4042",
"|+	c #131212",
"1+	c #090909",
"2+	c #812A2D",
"3+	c #60333C",
"4+	c #C05658",
"5+	c #E60303",
"6+	c #986365",
"7+	c #766775",
"8+	c #E30606",
"9+	c #D12829",
"0+	c #82899D",
"a+	c #B72223",
"b+	c #DD0101",
"c+	c #D20607",
"d+	c #A79194",
"e+	c #928B8F",
"f+	c #AF1113",
"g+	c #DB0101",
"h+	c #DA0404",
"i+	c #9C8387",
"j+	c #D01E1F",
"k+	c #E10202",
"l+	c #A50E0E",
"m+	c #A49DA1",
"n+	c #ADADB5",
"o+	c #882C2D",
"p+	c #EA0101",
"q+	c #BD6063",
"r+	c #ADAEB6",
"s+	c #D90708",
"t+	c #A9292A",
"u+	c #1D0203",
"v+	c #D90102",
"w+	c #BE454A",
"x+	c #CF2121",
"y+	c #D51313",
"z+	c #603A3B",
"A+	c #080808",
"B+	c #B4B1B6",
"C+	c #BB6065",
"D+	c #DB0807",
"E+	c #5C3035",
"F+	c #AE9598",
"G+	c #AC8083",
"H+	c #AE989C",
"I+	c #080707",
"J+	c #050506",
"K+	c #141011",
"L+	c #453133",
"M+	c #453333",
"N+	c #090808",
"O+	c #A69EA6",
"                                                                                                              . ",
"  . + . + . + . + . + . + . + . + . + . + . + . + . + . + . + . + . + . + . + . + . + . + . + . + . + . + . + @ ",
"  + . + . + . + . + . + . + . + . + . + . + . + . + . + . + . + . + . + . + . + . + . + . + . + . + . + . + . @ ",
"  + . . + . . . + . . . + . . . + . . . + . . . + . . . + . . . + . . . + . . . + . . . + . . . + . . . + . . @ ",
"  # . # . $ + . # # + # . $ + . # # + # . $ + . # # + # . $ + . # # + # . $ + . # # + # . $ + . # # + # . # + @ ",
"  . + . + . + . + . . + . + . + . + . . + . + . + . . + . + . + . + . . + . + . + . . + . + . + . + . . + . . @ ",
"  # . # . # . # . # . # . # . # . # + # . # . # . # . # . # . # . # + # . # . # . # . # . # . # . # + # . # . @ ",
"  . + . + . # . . + . + . + # . + . . + . + % % % % % % % % % % % % % % % % # . . + . + . + # + . + . . + . # @ ",
"  # . $ + # . # + $ . # . # . $ % % . # . % . + . + . + . + . + . + . . + . % # . $ . # . # . $ . # . $ . # . @ ",
"  . + . # . + . # . . + # . + % # % + . # % . % % @ % % @ % @ % @ % @ % @ . % & # . + . # + . + # + . + # . + @ ",
"  # . # . # * $ + # + # . # % # . % . # . % + @ = = = = = = = = = = = = % + % & & # * # . $ . # . # + # . # . @ ",
"  . # . + . # + # . # . . % # . % + % % + % . % = = = = = = = + = + - ; > , ' ) & . # + . + # . # . # . . + # @ ",
"  # . # . $ . # . # . $ % # . % ! ~ { ] ^ % % % % = = = = = = / ( _ : < [ } | 1 & 2 . # . # . # . $ + # + # . @ ",
"  . # * # . # . # . # + % + % . 3 4 5 6 7 8 9 0 % = = = = a b c d e f f e f f g & . # . # + # * # . # . # . # @ ",
"  # + # + # . # . # . # % % . # h e i e e e j k l m n = o p q r e s t u v w x y & z . # . $ . # + # . # . $ + @ ",
"  # # . # # # A # # # . # % # % B C D e f e e f E F G H I J K L f M N O P Q R & & # # . # # # . # # # * # # # @ ",
"  # . # . # . $ . # . # . # % # . S T U V W e e e u X Y Z `  ...+.@.#.$.% + % $ & # . # + # . # . # . # . # . @ ",
"  # # # # # # # # # # # # # % % % % % %.&.*.=.-. .;.;. . . .>.,.'.= = = % . % & & # # # # # # # # # # # # # # @ ",
"  # . # . # . # . # * # . # % ).).).).% ).!.~.{.].^.;./.(. ._.:.<.= = = % + @ & [.# . # . # . $ + # . # . # . @ ",
"  # # # # # # # # # # # # # % ).).).).% ).}.|.1.` } 2.3.4.5.} 6.7.8.= = % . % 9.0.# # # # # # # # # # # # # # @ ",
"  # # # . # # # . # # # . # % ).).).).% ).a.b.c. .e d.e.f.g.h.} i.j.k.% % + % & & 2 # # . # # # . # # # . # # @ ",
"  # # # # # # # # # # # # # % # # # # l.m.n.o.p.K q.r.+ + s.t.u.6.v.w.+ + . % & & # # # # # # # # # # # # # # @ ",
"  # # # # # # # # # # # # # % # # # x.y.z./.A.K B.C.@ % @ D.E.r  .u F.G.% @ % % % # # # # # # # # # # # # # # @ ",
"  # # # # # # # # # # # # # % # # # H.I.c. .r J.K.+ . . + . L.M.i _.N.O.. . + . . % # # # # # # # # # # # # # @ ",
"  $ # # # $ # # # $ # # # $ % # # P.Q.R. .X S.T.% .   + .   U.V.e ;.W.X.Y..   + . % & # # $ # # # $ # # # $ # @ ",
"  # # # # # # # # # # # # # % # # Z.^.i i `. +# % + . . + . . .+++r @+#+$+% % . . % & & # # # # # # # # # # # @ ",
"  # # $ # $ # $ # # # $ # $ % $ %+&+K ;.K *+=+$ % . + . + . + -+;+e ;.>+,+'+% % + % & & z $ # $ # # # $ # $ # @ ",
"  # # # # # # # # # # # # # % # )+!+i ~+{+]+^+# % .   + .   . /+(+_+i ~+W.:+% % % % & & # # # # # # # # # # # @ ",
"  $ # $ # $ # $ # $ # $ # $ % $ <+e  .[+}+|+# $ % % % % % % % % 1+2+K  .W.3+% % % & & & # $ # $ # $ # $ # $ # @ ",
"  # # # # # # # # # # # # # % # 4+f ;.5+6+# # # % & & & & & & & & 7+8+;.e 9+0+& 9.0.[.& # # # # # # # # # # # @ ",
"  $ # $ # $ # $ # $ # $ # $ % $ a+f b+c+d+$ # % % & & & [.0.9.& & e+f+[+g+h+i+0.9.0.9.$ # $ # $ # $ # $ # $ # @ ",
"  # $ # # # $ # # # $ # # # % # j+f k+l+m+# % & % % % % % % % % @ n+o+p+;.f q+r+* # $ # # # $ # # # $ # # # $ @ ",
"  $ # $ # $ # $ # $ # $ # $ % $ s+s W.t+/ % & & % $ . . . # . % % % u+v+W.u w+$ # $ # $ # $ # $ # $ # $ # $ # @ ",
"  # $ # $ # $ # $ # $ # $ # % # x+f y+z+A+& & & & % % % % % % % # . B+C+b+D+E+# $ # $ # $ # $ # $ # $ # $ # $ @ ",
"  $ # $ # $ # $ # $ # $ # $ % $ F+G+H+I+& & [.0.z $ % % % % . % % % J+K+L+M+N+% # $ # $ # $ # $ # $ # $ # $ # @ ",
"  $ $ # $ $ $ # $ $ $ # $ $ % % % % % [.0.9.0.2 $ $ $ % % % % % % % % % $ % % % % $ $ # $ $ $ # $ $ $ # $ $ $ @ ",
"  $ # $ # $ # $ # $ # $ # $ # $ & & & & & & z [.# $ # $ & % % % % % % % % % % % % % # $ # $ # $ # $ # $ # $ # @ ",
"  $ $ $ $ $ $ $ $ $ $ $ $ $ $ $ & & & & & $ $ $ $ $ $ $ $ & & & & & & % % % % % % % & $ $ $ $ $ $ $ $ $ $ $ $ @ ",
"  $ # $ # $ # $ # $ # $ # $ # $ # O+# $ 2 $ # $ # $ # $ . $ # $ * $ # & & & & & & & & & # $ # $ # $ # $ # $ # @ ",
"  $ $ $ $ $ $ $ $ $ $ $ $ $ $ $ $ $ $ O+$ $ $ $ $ $ $ $ $ $ $ $ $ $ $ $ $ $ $ $ $ $ $ O+$ $ $ $ $ $ $ $ $ $ $ @ ",
"  $ $ $ # $ $ $ # $ $ $ # $ $ $ # $ $ $ # $ $ $ # $ $ $ # $ $ $ # $ $ $ # $ $ $ # $ $ $ # $ $ $ # $ $ $ # $ $ @ ",
"  $ $ $ $ $ $ $ $ $ $ $ $ $ $ $ $ $ $ $ $ $ $ $ $ $ $ $ $ $ $ $ $ $ $ $ $ $ $ $ $ $ $ $ $ $ $ $ $ $ $ $ $ $ $ @ ",
"  $ # $ $ $ $ $ $ $ # $ $ $ $ $ $ $ # $ $ $ $ $ $ $ # $ $ $ $ $ $ $ # $ $ $ $ $ $ $ # $ $ $ $ $ $ $ # $ $ $ $ @ ",
"  $ $ $ $ $ $ $ $ $ $ $ $ $ $ $ $ $ $ $ $ $ $ $ $ $ $ $ $ $ $ $ $ $ $ $ $ $ $ $ $ $ $ $ $ $ $ $ $ $ $ $ $ $ $ @ ",
"  $ $ $ $ $ $ $ $ $ $ $ $ $ $ $ $ $ $ $ $ $ $ $ $ $ $ $ $ $ $ $ $ $ $ $ $ $ $ $ $ $ $ $ $ $ $ $ $ $ $ $ $ $ $ @ ",
"+ @ @ @ @ @ @ @ @ @ @ @ @ @ @ @ @ @ @ @ @ @ @ @ @ @ @ @ @ @ @ @ @ @ @ @ @ @ @ @ @ @ @ @ @ @ @ @ @ @ @ @ @ @ @ @ "};
