/* XPM */
static char * untools2_3d_xpm[] = {
"56 46 255 2",
"  	c #FFFFFF",
". 	c #BEBABE",
"+ 	c #BEC3BE",
"@ 	c #000011",
"# 	c #AEAAAE",
"$ 	c #9E9A9E",
"% 	c #010101",
"& 	c #5155FF",
"* 	c #5558FC",
"= 	c #6A66E3",
"- 	c #C39E9F",
"; 	c #C67575",
"> 	c #C19597",
", 	c #191918",
"' 	c #BEBFBB",
") 	c #BA7F82",
"! 	c #630C0C",
"~ 	c #C2989C",
"{ 	c #BEBAB7",
"] 	c #BBC0BC",
"^ 	c #6E5EDE",
"/ 	c #9761A9",
"( 	c #A25A94",
"_ 	c #D04242",
": 	c #DA0909",
"< 	c #DB0302",
"[ 	c #D81819",
"} 	c #BFACA9",
"| 	c #C07B7E",
"1 	c #D81111",
"2 	c #DA0707",
"3 	c #D71314",
"4 	c #D23636",
"5 	c #C49594",
"6 	c #3F3843",
"7 	c #BCB8BC",
"8 	c #070707",
"9 	c #1E1010",
"0 	c #A2484A",
"a 	c #D42223",
"b 	c #DC0000",
"c 	c #DD0000",
"d 	c #C09C9E",
"e 	c #CA5052",
"f 	c #DC0101",
"g 	c #D71E1E",
"h 	c #B95B5D",
"i 	c #9D6A6C",
"j 	c #160B0B",
"k 	c #000010",
"l 	c #9C989D",
"m 	c #AF8989",
"n 	c #DC2423",
"o 	c #DB0000",
"p 	c #DC0100",
"q 	c #E20200",
"r 	c #E10000",
"s 	c #E00201",
"t 	c #D90707",
"u 	c #A13C3C",
"v 	c #EEECEC",
"w 	c #B69D9F",
"x 	c #D83B3A",
"y 	c #DE0101",
"z 	c #DF0809",
"A 	c #BE1417",
"B 	c #AF626F",
"C 	c #BD888B",
"D 	c #A54F64",
"E 	c #C80101",
"F 	c #DE0000",
"G 	c #DD0302",
"H 	c #DE0203",
"I 	c #A7050E",
"J 	c #BD3A3A",
"K 	c #A74B4E",
"L 	c #B4949B",
"M 	c #AFAAAD",
"N 	c #A6989C",
"O 	c #A67578",
"P 	c #9D3238",
"Q 	c #CF1212",
"R 	c #E50B0B",
"S 	c #E50202",
"T 	c #E40304",
"U 	c #E40303",
"V 	c #DF0303",
"W 	c #DB0303",
"X 	c #DA0406",
"Y 	c #CC141A",
"Z 	c #B6819E",
"` 	c #100207",
" .	c #A9A6AA",
"..	c #AEA9AD",
"+.	c #100C0D",
"@.	c #BDBCB9",
"#.	c #552828",
"$.	c #D15151",
"%.	c #D81D1D",
"&.	c #DB0202",
"*.	c #DE0202",
"=.	c #BF3E58",
"-.	c #271E24",
";.	c #ADA9AC",
">.	c #B48083",
",.	c #D80101",
"'.	c #DC0303",
").	c #DF0100",
"!.	c #DE0200",
"~.	c #DD0202",
"{.	c #C72637",
"].	c #22171A",
"^.	c #867274",
"/.	c #BD1F1F",
"(.	c #E40101",
"_.	c #C4334B",
":.	c #CF1E30",
"<.	c #E30202",
"[.	c #DC0201",
"}.	c #8A070D",
"|.	c #BDC1BE",
"1.	c #260619",
"2.	c #C40505",
"3.	c #E10100",
"4.	c #BC292A",
"5.	c #ADA0A9",
"6.	c #A88B98",
"7.	c #C31217",
"8.	c #E20102",
"9.	c #DD0001",
"0.	c #C2486D",
"a.	c #080309",
"b.	c #010103",
"c.	c #A682A0",
"d.	c #D20510",
"e.	c #E30201",
"f.	c #DB0201",
"g.	c #C54445",
"h.	c #887C7E",
"i.	c #7E6B6E",
"j.	c #D00F10",
"k.	c #E00202",
"l.	c #EE0100",
"m.	c #3D0608",
"n.	c #BCC1BD",
"o.	c #28080B",
"p.	c #D9090D",
"q.	c #DC0102",
"r.	c #C5595A",
"s.	c #AEA6AA",
"t.	c #ACA8AC",
"u.	c #ADA9AD",
"v.	c #A5A3A6",
"w.	c #B06868",
"x.	c #8F2926",
"y.	c #A3A0A4",
"z.	c #332C2D",
"A.	c #BE0D09",
"B.	c #C25E61",
"C.	c #A29DA1",
"D.	c #AA9D9F",
"E.	c #D60B0B",
"F.	c #CE0101",
"G.	c #3B2528",
"H.	c #201E1F",
"I.	c #C3433A",
"J.	c #E00101",
"K.	c #9E0B05",
"L.	c #272324",
"M.	c #1C1D1C",
"N.	c #C75246",
"O.	c #DF0000",
"P.	c #D7433C",
"Q.	c #1D1A1A",
"R.	c #623F40",
"S.	c #E80A0A",
"T.	c #83311E",
"U.	c #BC785C",
"V.	c #D42221",
"W.	c #DE0303",
"X.	c #D60000",
"Y.	c #260000",
"Z.	c #963132",
"`.	c #963334",
" +	c #A65B37",
".+	c #AC562B",
"++	c #7D2423",
"@+	c #E40202",
"#+	c #9B0202",
"$+	c #8B8588",
"%+	c #A39C9F",
"&+	c #D30F0F",
"*+	c #DC0202",
"=+	c #CC0101",
"-+	c #251B1C",
";+	c #AE572A",
">+	c #AD5428",
",+	c #1C1417",
"'+	c #D81416",
")+	c #9D919A",
"!+	c #B19396",
"~+	c #E10101",
"{+	c #AE2D24",
"]+	c #131212",
"^+	c #AE5528",
"/+	c #090909",
"(+	c #B34238",
"_+	c #B48690",
":+	c #BD5255",
"<+	c #E60303",
"[+	c #98412F",
"}+	c #934C33",
"|+	c #E30606",
"1+	c #D42A2A",
"2+	c #A0999D",
"3+	c #CA3536",
"4+	c #DD0101",
"5+	c #D20607",
"6+	c #A75C40",
"7+	c #AC613E",
"8+	c #A50606",
"9+	c #DB0101",
"0+	c #DA0404",
"a+	c #B0969A",
"b+	c #CF1E1E",
"c+	c #E10202",
"d+	c #A50E0E",
"e+	c #A4532B",
"f+	c #5B0000",
"g+	c #EA0101",
"h+	c #ADAAAE",
"i+	c #D90708",
"j+	c #A9292A",
"k+	c #AD5A30",
"l+	c #AB5427",
"m+	c #1D0203",
"n+	c #D90102",
"o+	c #BE454A",
"p+	c #CF2121",
"q+	c #D51211",
"r+	c #603A3B",
"s+	c #AD582D",
"t+	c #0B0C0D",
"u+	c #BB4B43",
"v+	c #DB0807",
"w+	c #A3757C",
"x+	c #A48B8E",
"y+	c #5D3435",
"z+	c #AE654B",
"A+	c #080707",
"B+	c #050506",
"C+	c #AD5B33",
"D+	c #453133",
"E+	c #A79295",
"F+	c #ADA8AC",
"                                                                                                              . ",
"  . + . + . + . + . + . + . + . + . + . + . + . + . + . + . + . + . + . + . + . + . + . + . + . + . + . + . + @ ",
"  + . + . + . + . + . + . + . + . + . + . + . + . + . + . + . + . + . + . + . + . + . + . + . + . + . + . + . @ ",
"  + . . + . . . + . . . + . . . + . . . + . . . + . . . + . . . + . . . + . . . + . . . + . . . + . . . + . . @ ",
"  # . + . # + . . $ + . . # + . . $ + . . # + . . $ + . . # + . . $ + . . # + . . $ + . . # + . . $ + . . # + @ ",
"  . + . . + . + . + . + . + . + . + . + . + . + . + . + . + . + . + . + . + . + . + . + . + . + . + . + . + . @ ",
"  # . $ + # . # + # . # + $ . # + # . # + $ . # + # . # + $ . # + # . # + $ . # + # . # + $ . # + # . # + # . @ ",
"  + . + . . $ . . + . + . . # . . + . + . . # . . + . + . . # . . + . + . . # . . + . + . . # . . + . + . . # @ ",
"  # + # . # + # . # . # + # + # . # . # + # + # . # . # + # + # . # . # + # + # . # . # + # + # . # . # + # + @ ",
"  + . . # + . + # . + . # . . + # . + . # . . + # . + . # . . + # . + . # . . + # . + . # . . + # . + . # . . @ ",
"  # . # + # . # + # . # + # . # + # . # % % % # . # % % % # + # % % % % % % % # . # + # . # + # . $ + # . # + @ ",
"  + # + . . # . # . $ + . + # . $ . # + % + % . # + % + . % % % . . + . + . + % # . $ . + . # + # . # . + . # @ ",
"  # . # + # + # + # . # . # + # + # . # % . % # + # % . + . . + . + & * = - ; > , # + # . # . # . # + # . # + @ ",
"  + # . # . # . # . # + # . # . # ' ) ! ~ { . % # . @ . . +   . ] ^ / ( _ : < [ } % # . # + # + # . # + # . # @ ",
"  # . # + # . # + # . # . # + # . | 1 2 3 4 5 6 7 # % + . @ 8 9 0 a b c c b c c d . @ # + # . # . # + # . # + @ ",
"  # # + # # # . # # # + # # # . # e b f b b b g h i j k % l m n o b p q r s t u v + % . # # # + # # # . # # # @ ",
"  # . # . # + # . # . # . # + # + w x y b c b b c z A B C D E F G c H I J K L M % . % # . # . # . # + $ . # . @ ",
"  # # # # $ # # # # # # # # # # # # N O P Q R b b b r S T U V W X Y Z `  ...# # # % % # # # # # # # # # # # # @ ",
"  # + # + # . # + # + # . # . # . # . # +.@.#.$.%.W &.&.W W W *.=.-.. % . # + # . # + # + # + # . # + # . # + @ ",
"  # # # # # # # # # # # # # # # # # # # % . % ;.>.,.'.&.).!.W ~.{.].. % + # # # # # # # # # # # # # # # # # # @ ",
"  # # # . # # # . # # # + # # # + # # # % + % ^./.V < (._.:.<.< [.}.|.% . # # # + # # # . # # # . # # # + # # @ ",
"  # # # # # # # # # # # # # # # # # # # % . 1.2.3.W b 4.5.6.7.8.< 9.0.a.# # # # # # # # # # # # # # # # # # # @ ",
"  # # # # # # # # # # # # # # # # # # # b.c.d.e.f.F g.h.# # i.j.k.[.l.m.+ # # # # # # # # # # # # # # # # # # @ ",
"  # # # # # # # # # # # # # # # # # # n.o.p.).q.F r.s.t.# u.v.w.o W r x.y.# # # # # # # # # # # # # # # # # # @ ",
"  $ # # # $ # # # $ # # # $ # # # $ # z.A.3.W o B.C.# # # $ # D.E.f ~.F.G.$ # # # $ # # # $ # # # $ # # # $ # @ ",
"  # # # # # # # # # # # # # # # # # H.I.J.W S K.L.# # # # # # M.N.b &.O.P.Q.# # # # # # # # # # # # # # # # # @ ",
"  # # $ # $ # $ # # # $ # $ # $ # # R.'.f f S.T.% # # $ # $ # % U.V.o W.X.Y.u.$ # # # $ # $ # $ # # # $ # $ # @ ",
"  # # # # # # # # # # # # # # # # # Z.F &.F `. +% # # # # # # % .+++b &.@+#+$+# # # # # # # # # # # # # # # # @ ",
"  $ # $ # $ # $ # $ # $ # $ # $ # %+&+f *+=+-+;+% $ # $ # $ # % >+,+'+f *+O.)+$ # $ # $ # $ # $ # $ # $ # $ # @ ",
"  # # # # # # # # # # # # # # # # !+b W ~+{+]+^+% # # # # # # % ^+/+(+F W O._+# # # # # # # # # # # # # # # # @ ",
"  $ # $ # $ # $ # $ # $ # $ # $ # :+c &.<+[+% ^+% $ # $ # $ # % ^+% }+|+&.b 1+2+# $ # $ # $ # $ # $ # $ # $ # @ ",
"  # $ # # # $ # # # $ # # # $ # # 3+c 4+5+6+% ^+% # $ # # # $ % ^+% 7+8+~+9+0+a+# # $ # # # $ # # # $ # # # $ @ ",
"  $ # $ # $ # $ # $ # $ # $ # $ # b+c c+d+e+% ^+% $ # $ # $ # % ^+% >+f+g+&.c h h+$ # $ # $ # $ # $ # $ # $ # @ ",
"  # $ # $ # $ # $ # $ # $ # $ # $ i+p O.j+k+% ^+% # $ # $ # $ % ^+% l+m+n+O.r o+$ # $ # $ # $ # $ # $ # $ # $ @ ",
"  $ # $ # $ # $ # $ # $ # $ # $ # p+c q+r+s+% ^+% $ # $ # $ # % ^+% ^+t+u+4+v+w+# $ # $ # $ # $ # $ # $ # $ # @ ",
"  $ $ # $ $ $ # $ $ $ # $ $ $ # $ x+y+z+A+^+% ^+% $ $ # $ $ $ % ^+% ^+B+C+D+E+F+$ $ $ # $ $ $ # $ $ $ # $ $ $ @ ",
"  $ # $ # $ # $ # $ # $ # $ # $ # $ % ^+^+^+^+^+% $ # $ # $ # % ^+^+^+^+^+% # $ # $ # $ # $ # $ # $ # $ # $ # @ ",
"  $ $ $ $ $ $ $ $ $ $ $ $ $ $ $ $ $ $ % ^+^+^+% $ $ $ $ $ $ $ $ % ^+^+^+% $ $ $ $ $ $ $ $ $ $ $ $ $ $ $ $ $ $ @ ",
"  $ # $ # $ # $ # $ # $ # $ # $ # $ # $ % % % $ # $ # $ # $ # $ # % % % # $ # $ # $ # $ # $ # $ # $ # $ # $ # @ ",
"  $ $ $ $ $ $ $ $ $ $ $ $ $ $ $ $ $ $ $ $ $ $ $ $ $ $ $ $ $ $ $ $ $ $ $ $ $ $ $ $ $ $ $ $ $ $ $ $ $ $ $ $ $ $ @ ",
"  $ $ $ # $ $ $ # $ $ $ # $ $ $ # $ $ $ # $ $ $ # $ $ $ # $ $ $ # $ $ $ # $ $ $ # $ $ $ # $ $ $ # $ $ $ # $ $ @ ",
"  $ $ $ $ $ $ $ $ $ $ $ $ $ $ $ $ $ $ $ $ $ $ $ $ $ $ $ $ $ $ $ $ $ $ $ $ $ $ $ $ $ $ $ $ $ $ $ $ $ $ $ $ $ $ @ ",
"  $ # $ $ $ $ $ $ $ # $ $ $ $ $ $ $ # $ $ $ $ $ $ $ # $ $ $ $ $ $ $ # $ $ $ $ $ $ $ # $ $ $ $ $ $ $ # $ $ $ $ @ ",
"  $ $ $ $ $ $ $ $ $ $ $ $ $ $ $ $ $ $ $ $ $ $ $ $ $ $ $ $ $ $ $ $ $ $ $ $ $ $ $ $ $ $ $ $ $ $ $ $ $ $ $ $ $ $ @ ",
"  $ $ $ $ $ $ $ $ $ $ $ $ $ $ $ $ $ $ $ $ $ $ $ $ $ $ $ $ $ $ $ $ $ $ $ $ $ $ $ $ $ $ $ $ $ $ $ $ $ $ $ $ $ $ @ ",
"+ @ @ @ @ @ @ @ @ @ @ @ @ @ @ @ @ @ @ @ @ @ @ @ @ @ @ @ @ @ @ @ @ @ @ @ @ @ @ @ @ @ @ @ @ @ @ @ @ @ @ @ @ @ @ @ "};
